<svg width="18" height="18" viewBox="0 0 18 18" fill="none" xmlns="http://www.w3.org/2000/svg">
<path d="M9.00002 8.1002C10.4912 8.1002 11.7 6.89136 11.7 5.4002C11.7 3.90903 10.4912 2.7002 9.00002 2.7002C7.50886 2.7002 6.30002 3.90903 6.30002 5.4002C6.30002 6.89136 7.50886 8.1002 9.00002 8.1002Z" fill="#A6ADBB" style="fill:#A6ADBB;fill:color(display-p3 0.6510 0.6784 0.7333);fill-opacity:1;"/>
<path d="M5.40002 7.2002C5.40002 8.19431 4.59414 9.0002 3.60002 9.0002C2.60591 9.0002 1.80002 8.19431 1.80002 7.2002C1.80002 6.20608 2.60591 5.4002 3.60002 5.4002C4.59414 5.4002 5.40002 6.20608 5.40002 7.2002Z" fill="#A6ADBB" style="fill:#A6ADBB;fill:color(display-p3 0.6510 0.6784 0.7333);fill-opacity:1;"/>
<path d="M1.3416 13.7933C1.18898 13.7046 1.07122 13.5648 1.01925 13.3961C0.941745 13.1445 0.900024 12.8772 0.900024 12.6002C0.900024 11.109 2.10886 9.9002 3.60002 9.9002C4.06983 9.9002 4.5116 10.0202 4.89638 10.2312C3.95399 11.1592 3.32475 12.4045 3.18133 13.7942C3.16065 13.9947 3.16928 14.1925 3.20399 14.383C2.52957 14.3242 1.89778 14.1166 1.3416 13.7933Z" fill="#A6ADBB" style="fill:#A6ADBB;fill:color(display-p3 0.6510 0.6784 0.7333);fill-opacity:1;"/>
<path d="M14.7965 14.383C15.4707 14.3241 16.1024 14.1166 16.6584 13.7933C16.8111 13.7046 16.9288 13.5648 16.9808 13.3961C17.0583 13.1445 17.1 12.8772 17.1 12.6002C17.1 11.109 15.8912 9.9002 14.4 9.9002C13.9303 9.9002 13.4886 10.0201 13.1039 10.2311C14.0464 11.159 14.6757 12.4044 14.8191 13.7942C14.8398 13.9946 14.8312 14.1924 14.7965 14.383Z" fill="#A6ADBB" style="fill:#A6ADBB;fill:color(display-p3 0.6510 0.6784 0.7333);fill-opacity:1;"/>
<path d="M16.2 7.2002C16.2 8.19431 15.3941 9.0002 14.4 9.0002C13.4059 9.0002 12.6 8.19431 12.6 7.2002C12.6 6.20608 13.4059 5.4002 14.4 5.4002C15.3941 5.4002 16.2 6.20608 16.2 7.2002Z" fill="#A6ADBB" style="fill:#A6ADBB;fill:color(display-p3 0.6510 0.6784 0.7333);fill-opacity:1;"/>
<path d="M4.77347 14.572C4.59428 14.4098 4.49932 14.1732 4.52413 13.9328C4.75794 11.6672 6.6727 9.9002 9.00016 9.9002C11.3276 9.9002 13.2424 11.6672 13.4762 13.9328C13.501 14.1733 13.406 14.4098 13.2268 14.572C12.1091 15.5839 10.6266 16.2002 9.00016 16.2002C7.3737 16.2002 5.8912 15.5839 4.77347 14.572Z" fill="#A6ADBB" style="fill:#A6ADBB;fill:color(display-p3 0.6510 0.6784 0.7333);fill-opacity:1;"/>
</svg>
