<svg width="18" height="18" viewBox="0 0 18 18" fill="none" xmlns="http://www.w3.org/2000/svg">
<path fill-rule="evenodd" clip-rule="evenodd" d="M9 1.6875C9.31066 1.6875 9.5625 1.93934 9.5625 2.25V2.81674C11.1138 2.84014 12.6418 2.96018 14.1409 3.17116C14.9106 3.27948 15.6726 3.41177 16.4262 3.56726C16.7088 3.62557 16.9014 3.88824 16.8721 4.17528C16.8428 4.46233 16.6011 4.68065 16.3125 4.68065H14.8743L16.7295 12.2741C16.7904 12.5234 16.6748 12.7824 16.4485 12.9035C15.737 13.2843 14.9241 13.5 14.0625 13.5C13.2009 13.5 12.388 13.2843 11.6766 12.9035C11.4503 12.7824 11.3347 12.5234 11.3956 12.2741L13.2508 4.68065H9.5625V14.6413C10.5319 14.6976 11.4632 14.8984 12.3349 15.2228C12.5901 15.3178 12.7406 15.5818 12.6923 15.8497C12.6441 16.1176 12.411 16.3125 12.1387 16.3125H5.86099C5.58877 16.3125 5.35562 16.1176 5.30739 15.8497C5.25915 15.5818 5.40967 15.3178 5.66479 15.2228C6.53657 14.8984 7.46805 14.6976 8.4375 14.6413V4.68065H4.74929L6.60449 12.2741C6.6654 12.5234 6.5498 12.7824 6.3235 12.9035C5.61203 13.2843 4.79914 13.5 3.93753 13.5C3.07593 13.5 2.26303 13.2843 1.55156 12.9035C1.32526 12.7824 1.20966 12.5234 1.27058 12.2741L3.12578 4.68065H1.68753C1.39899 4.68065 1.15725 4.46233 1.12794 4.17528C1.09864 3.88824 1.29128 3.62557 1.57387 3.56726C2.32744 3.41177 3.08946 3.27948 3.85914 3.17116C5.35822 2.96018 6.88627 2.84014 8.4375 2.81674V2.25C8.4375 1.93934 8.68934 1.6875 9 1.6875ZM12.6585 11.8451L14.0625 6.09822L15.4666 11.8451H12.6585ZM5.34158 11.8451L3.93753 6.09822L2.53348 11.8451H5.34158Z" fill="#A6ADBB" style="fill:#A6ADBB;fill:color(display-p3 0.6510 0.6784 0.7333);fill-opacity:1;"/>
</svg>
