<svg width="18" height="18" viewBox="0 0 18 18" fill="none" xmlns="http://www.w3.org/2000/svg">
<path d="M12.1425 1.5H5.8575C3.1275 1.5 1.5 3.1275 1.5 5.8575V12.135C1.5 14.8725 3.1275 16.5 5.8575 16.5H12.135C14.865 16.5 16.4925 14.8725 16.4925 12.1425V5.8575C16.5 3.1275 14.8725 1.5 12.1425 1.5ZM5.8125 6.855C5.8125 6.2475 6.3075 5.745 6.9225 5.745C7.53 5.745 8.0325 6.24 8.0325 6.855C8.0325 7.4625 7.5375 7.965 6.9225 7.965C6.3075 7.9575 5.8125 7.4625 5.8125 6.855ZM6.615 12.015C6.4725 12.015 6.33 11.9625 6.2175 11.85C6 11.6325 6 11.28 6.2175 11.055L11.13 6.1425C11.3475 5.925 11.7075 5.925 11.925 6.1425C12.1425 6.36 12.1425 6.72 11.925 6.9375L7.0125 11.85C6.9 11.9625 6.7575 12.015 6.615 12.015ZM11.8275 12.255C11.22 12.255 10.7175 11.76 10.7175 11.145C10.7175 10.5375 11.2125 10.035 11.8275 10.035C12.435 10.035 12.9375 10.53 12.9375 11.145C12.9375 11.76 12.4425 12.255 11.8275 12.255Z" fill="#A6ADBB" style="fill:#A6ADBB;fill:color(display-p3 0.6510 0.6784 0.7333);fill-opacity:1;"/>
</svg>
