<svg width="18" height="18" viewBox="0 0 18 18" fill="none" xmlns="http://www.w3.org/2000/svg">
<g clip-path="url(#clip0_5994_5000)">
<path d="M8.3168 0.22506L1.85705 3.95461C1.4343 4.1987 1.17383 4.64979 1.17383 5.13797V12.9044C1.17383 13.3926 1.43427 13.8437 1.85705 14.0878L8.31684 17.8174C8.73963 18.0614 9.2605 18.0614 9.68326 17.8174L16.143 14.0878C16.5658 13.8437 16.8263 13.3926 16.8263 12.9044V5.13797C16.8263 4.64979 16.5658 4.1987 16.143 3.95461L9.68326 0.22506C9.26047 -0.0190303 8.73959 -0.0190303 8.3168 0.22506Z" fill="url(#paint0_linear_5994_5000)" style=""/>
<path d="M16.143 3.95461L9.68326 0.22506C9.26047 -0.0190303 8.73959 -0.0190303 8.31684 0.22506L1.85705 3.95461C1.43427 4.1987 1.17383 4.64979 1.17383 5.13797V9.36467H16.8262V5.13797C16.8262 4.64979 16.5658 4.1987 16.143 3.95461Z" fill="url(#paint1_linear_5994_5000)" style=""/>
<path d="M16.0794 4.77936L9.41572 8.62661C9.15848 8.77515 9 9.04965 9 9.34668V17.3486C9 17.7318 9.41488 17.9714 9.74679 17.7797L16.4104 13.9325C16.6677 13.7839 16.8262 13.5094 16.8262 13.2124V5.21052C16.8262 4.82728 16.4113 4.58772 16.0794 4.77936Z" fill="url(#paint2_linear_5994_5000)" style=""/>
<path d="M1.92068 4.77935L8.58433 8.6266C8.84161 8.77513 9.00009 9.04963 9.00009 9.34667V17.3485C9.00009 17.7318 8.58521 17.9713 8.25327 17.7797L1.58961 13.9325C1.33234 13.784 1.17389 13.5095 1.17389 13.2124V5.21054C1.17385 4.82726 1.58877 4.58774 1.92068 4.77935Z" fill="url(#paint3_linear_5994_5000)" style=""/>
<path d="M5.98462 14.2027C5.98462 13.5357 6.39022 13.229 6.89053 13.5179C7.39083 13.8068 7.79643 14.5817 7.79643 15.2488C7.79643 15.9159 7.39083 16.2225 6.89053 15.9337C6.39018 15.6448 5.98462 14.8698 5.98462 14.2027Z" fill="url(#paint4_linear_5994_5000)" style=""/>
<path d="M2.37744 12.1207C2.37744 11.4536 2.78304 11.147 3.28335 11.4359C3.78366 11.7247 4.18925 12.4997 4.18925 13.1668C4.18925 13.8339 3.78366 14.1405 3.28335 13.8516C2.78304 13.5628 2.37744 12.7878 2.37744 12.1207Z" fill="url(#paint5_linear_5994_5000)" style=""/>
<path d="M5.98462 9.39317C5.98462 8.72608 6.39022 8.41945 6.89053 8.70833C7.39083 8.99721 7.79643 9.77216 7.79643 10.4392C7.79643 11.1063 7.39083 11.413 6.89053 11.1241C6.39018 10.8352 5.98462 10.0603 5.98462 9.39317Z" fill="url(#paint6_linear_5994_5000)" style=""/>
<path d="M2.37744 7.31114C2.37744 6.64405 2.78304 6.33742 3.28335 6.6263C3.78366 6.91518 4.18925 7.69013 4.18925 8.35722C4.18925 9.02431 3.78366 9.33094 3.28335 9.04206C2.78304 8.75322 2.37744 7.97823 2.37744 7.31114Z" fill="url(#paint7_linear_5994_5000)" style=""/>
<path d="M1.76634 4.00657L8.45126 0.14705C8.79084 -0.0490166 9.20923 -0.0490166 9.54884 0.14705L16.2338 4.00657C16.4971 4.15862 16.4971 4.5387 16.2338 4.69071L9.54884 8.55027C9.20923 8.74634 8.79084 8.74634 8.45126 8.55027L1.76634 4.69071C1.50302 4.5387 1.50302 4.15862 1.76634 4.00657Z" fill="url(#paint8_linear_5994_5000)" style=""/>
<path d="M10.2752 5.08441C11.0884 4.61493 11.1767 3.9047 10.4725 3.49812C9.76821 3.09154 8.53809 3.14251 7.72489 3.61203C6.91169 4.0815 6.82338 4.79173 7.52763 5.19831C8.23188 5.60489 9.462 5.55392 10.2752 5.08441Z" fill="url(#paint9_linear_5994_5000)" style=""/>
<path d="M13.819 10.7574C13.819 10.0903 13.4134 9.78371 12.9131 10.0726C12.4128 10.3615 12.0072 11.1364 12.0072 11.8035C12.0072 12.4706 12.4128 12.7772 12.9131 12.4883C13.4135 12.1995 13.819 11.4245 13.819 10.7574Z" fill="url(#paint10_linear_5994_5000)" style=""/>
<path d="M12.0155 14.2027C12.0155 13.5357 11.6099 13.229 11.1096 13.5179C10.6093 13.8068 10.2037 14.5817 10.2037 15.2488C10.2037 15.9159 10.6093 16.2225 11.1096 15.9337C11.6099 15.6448 12.0155 14.8698 12.0155 14.2027Z" fill="url(#paint11_linear_5994_5000)" style=""/>
<path d="M15.6226 12.1207C15.6226 11.4536 15.217 11.147 14.7167 11.4359C14.2164 11.7247 13.8108 12.4997 13.8108 13.1668C13.8108 13.8339 14.2164 14.1405 14.7167 13.8516C15.217 13.5628 15.6226 12.7878 15.6226 12.1207Z" fill="url(#paint12_linear_5994_5000)" style=""/>
<path d="M12.0155 9.39317C12.0155 8.72608 11.6099 8.41945 11.1096 8.70833C10.6093 8.99721 10.2037 9.77216 10.2037 10.4392C10.2037 11.1063 10.6093 11.413 11.1096 11.1241C11.6099 10.8352 12.0155 10.0603 12.0155 9.39317Z" fill="url(#paint13_linear_5994_5000)" style=""/>
<path d="M15.6226 7.31114C15.6226 6.64405 15.217 6.33742 14.7167 6.6263C14.2164 6.91518 13.8108 7.69013 13.8108 8.35722C13.8108 9.02431 14.2164 9.33094 14.7167 9.04206C15.217 8.75322 15.6226 7.97823 15.6226 7.31114Z" fill="url(#paint14_linear_5994_5000)" style=""/>
</g>
<defs>
<linearGradient id="paint0_linear_5994_5000" x1="9.00003" y1="15.7772" x2="9.00003" y2="-0.262733" gradientUnits="userSpaceOnUse">
<stop stop-color="#C9BAEC" style="stop-color:#C9BAEC;stop-color:color(display-p3 0.7882 0.7294 0.9255);stop-opacity:1;"/>
<stop offset="1" stop-color="#F3EEFA" style="stop-color:#F3EEFA;stop-color:color(display-p3 0.9529 0.9333 0.9804);stop-opacity:1;"/>
</linearGradient>
<linearGradient id="paint1_linear_5994_5000" x1="-4.32549" y1="-0.836624" x2="9.28539" y2="7.02161" gradientUnits="userSpaceOnUse">
<stop stop-color="#C9BAEC" style="stop-color:#C9BAEC;stop-color:color(display-p3 0.7882 0.7294 0.9255);stop-opacity:1;"/>
<stop offset="1" stop-color="#F3EEFA" style="stop-color:#F3EEFA;stop-color:color(display-p3 0.9529 0.9333 0.9804);stop-opacity:1;"/>
</linearGradient>
<linearGradient id="paint2_linear_5994_5000" x1="12.9131" y1="21.3628" x2="12.9131" y2="3.40377" gradientUnits="userSpaceOnUse">
<stop stop-color="#C9BAEC" style="stop-color:#C9BAEC;stop-color:color(display-p3 0.7882 0.7294 0.9255);stop-opacity:1;"/>
<stop offset="1" stop-color="#F3EEFA" style="stop-color:#F3EEFA;stop-color:color(display-p3 0.9529 0.9333 0.9804);stop-opacity:1;"/>
</linearGradient>
<linearGradient id="paint3_linear_5994_5000" x1="5.08696" y1="12.9193" x2="5.08696" y2="-3.12058" gradientUnits="userSpaceOnUse">
<stop stop-color="#C9BAEC" style="stop-color:#C9BAEC;stop-color:color(display-p3 0.7882 0.7294 0.9255);stop-opacity:1;"/>
<stop offset="1" stop-color="#F3EEFA" style="stop-color:#F3EEFA;stop-color:color(display-p3 0.9529 0.9333 0.9804);stop-opacity:1;"/>
</linearGradient>
<linearGradient id="paint4_linear_5994_5000" x1="7.52151" y1="13.6329" x2="6.39022" y2="15.5923" gradientUnits="userSpaceOnUse">
<stop stop-color="#1D182F" style="stop-color:#1D182F;stop-color:color(display-p3 0.1137 0.0941 0.1843);stop-opacity:1;"/>
<stop offset="0.1795" stop-color="#292243" style="stop-color:#292243;stop-color:color(display-p3 0.1608 0.1333 0.2627);stop-opacity:1;"/>
<stop offset="0.5463" stop-color="#493D76" style="stop-color:#493D76;stop-color:color(display-p3 0.2863 0.2392 0.4627);stop-opacity:1;"/>
<stop offset="1" stop-color="#7662BD" style="stop-color:#7662BD;stop-color:color(display-p3 0.4627 0.3843 0.7412);stop-opacity:1;"/>
</linearGradient>
<linearGradient id="paint5_linear_5994_5000" x1="3.91433" y1="11.5509" x2="2.78304" y2="13.5103" gradientUnits="userSpaceOnUse">
<stop stop-color="#1D182F" style="stop-color:#1D182F;stop-color:color(display-p3 0.1137 0.0941 0.1843);stop-opacity:1;"/>
<stop offset="0.1795" stop-color="#292243" style="stop-color:#292243;stop-color:color(display-p3 0.1608 0.1333 0.2627);stop-opacity:1;"/>
<stop offset="0.5463" stop-color="#493D76" style="stop-color:#493D76;stop-color:color(display-p3 0.2863 0.2392 0.4627);stop-opacity:1;"/>
<stop offset="1" stop-color="#7662BD" style="stop-color:#7662BD;stop-color:color(display-p3 0.4627 0.3843 0.7412);stop-opacity:1;"/>
</linearGradient>
<linearGradient id="paint6_linear_5994_5000" x1="7.52151" y1="8.82336" x2="6.39022" y2="10.7828" gradientUnits="userSpaceOnUse">
<stop stop-color="#1D182F" style="stop-color:#1D182F;stop-color:color(display-p3 0.1137 0.0941 0.1843);stop-opacity:1;"/>
<stop offset="0.1795" stop-color="#292243" style="stop-color:#292243;stop-color:color(display-p3 0.1608 0.1333 0.2627);stop-opacity:1;"/>
<stop offset="0.5463" stop-color="#493D76" style="stop-color:#493D76;stop-color:color(display-p3 0.2863 0.2392 0.4627);stop-opacity:1;"/>
<stop offset="1" stop-color="#7662BD" style="stop-color:#7662BD;stop-color:color(display-p3 0.4627 0.3843 0.7412);stop-opacity:1;"/>
</linearGradient>
<linearGradient id="paint7_linear_5994_5000" x1="3.91433" y1="6.74129" x2="2.78304" y2="8.70073" gradientUnits="userSpaceOnUse">
<stop stop-color="#1D182F" style="stop-color:#1D182F;stop-color:color(display-p3 0.1137 0.0941 0.1843);stop-opacity:1;"/>
<stop offset="0.1795" stop-color="#292243" style="stop-color:#292243;stop-color:color(display-p3 0.1608 0.1333 0.2627);stop-opacity:1;"/>
<stop offset="0.5463" stop-color="#493D76" style="stop-color:#493D76;stop-color:color(display-p3 0.2863 0.2392 0.4627);stop-opacity:1;"/>
<stop offset="1" stop-color="#7662BD" style="stop-color:#7662BD;stop-color:color(display-p3 0.4627 0.3843 0.7412);stop-opacity:1;"/>
</linearGradient>
<linearGradient id="paint8_linear_5994_5000" x1="-3.23369" y1="-2.71449" x2="10.3628" y2="5.13544" gradientUnits="userSpaceOnUse">
<stop stop-color="#C9BAEC" style="stop-color:#C9BAEC;stop-color:color(display-p3 0.7882 0.7294 0.9255);stop-opacity:1;"/>
<stop offset="1" stop-color="#F3EEFA" style="stop-color:#F3EEFA;stop-color:color(display-p3 0.9529 0.9333 0.9804);stop-opacity:1;"/>
</linearGradient>
<linearGradient id="paint9_linear_5994_5000" x1="9.93063" y1="5.96004" x2="8.40291" y2="3.31394" gradientUnits="userSpaceOnUse">
<stop stop-color="#63141A" style="stop-color:#63141A;stop-color:color(display-p3 0.3882 0.0784 0.1020);stop-opacity:1;"/>
<stop offset="0.2842" stop-color="#981F28" style="stop-color:#981F28;stop-color:color(display-p3 0.5961 0.1216 0.1569);stop-opacity:1;"/>
<stop offset="0.5147" stop-color="#C62834" style="stop-color:#C62834;stop-color:color(display-p3 0.7765 0.1569 0.2039);stop-opacity:1;"/>
<stop offset="0.9681" stop-color="#FB4355" style="stop-color:#FB4355;stop-color:color(display-p3 0.9843 0.2627 0.3333);stop-opacity:1;"/>
<stop offset="1" stop-color="#FF4557" style="stop-color:#FF4557;stop-color:color(display-p3 1.0000 0.2706 0.3412);stop-opacity:1;"/>
</linearGradient>
<linearGradient id="paint10_linear_5994_5000" x1="12.2821" y1="10.1876" x2="13.4134" y2="12.147" gradientUnits="userSpaceOnUse">
<stop stop-color="#1D182F" style="stop-color:#1D182F;stop-color:color(display-p3 0.1137 0.0941 0.1843);stop-opacity:1;"/>
<stop offset="0.1795" stop-color="#292243" style="stop-color:#292243;stop-color:color(display-p3 0.1608 0.1333 0.2627);stop-opacity:1;"/>
<stop offset="0.5463" stop-color="#493D76" style="stop-color:#493D76;stop-color:color(display-p3 0.2863 0.2392 0.4627);stop-opacity:1;"/>
<stop offset="1" stop-color="#7662BD" style="stop-color:#7662BD;stop-color:color(display-p3 0.4627 0.3843 0.7412);stop-opacity:1;"/>
</linearGradient>
<linearGradient id="paint11_linear_5994_5000" x1="10.4786" y1="13.6329" x2="11.6099" y2="15.5923" gradientUnits="userSpaceOnUse">
<stop stop-color="#1D182F" style="stop-color:#1D182F;stop-color:color(display-p3 0.1137 0.0941 0.1843);stop-opacity:1;"/>
<stop offset="0.1795" stop-color="#292243" style="stop-color:#292243;stop-color:color(display-p3 0.1608 0.1333 0.2627);stop-opacity:1;"/>
<stop offset="0.5463" stop-color="#493D76" style="stop-color:#493D76;stop-color:color(display-p3 0.2863 0.2392 0.4627);stop-opacity:1;"/>
<stop offset="1" stop-color="#7662BD" style="stop-color:#7662BD;stop-color:color(display-p3 0.4627 0.3843 0.7412);stop-opacity:1;"/>
</linearGradient>
<linearGradient id="paint12_linear_5994_5000" x1="14.0857" y1="11.5509" x2="15.217" y2="13.5103" gradientUnits="userSpaceOnUse">
<stop stop-color="#1D182F" style="stop-color:#1D182F;stop-color:color(display-p3 0.1137 0.0941 0.1843);stop-opacity:1;"/>
<stop offset="0.1795" stop-color="#292243" style="stop-color:#292243;stop-color:color(display-p3 0.1608 0.1333 0.2627);stop-opacity:1;"/>
<stop offset="0.5463" stop-color="#493D76" style="stop-color:#493D76;stop-color:color(display-p3 0.2863 0.2392 0.4627);stop-opacity:1;"/>
<stop offset="1" stop-color="#7662BD" style="stop-color:#7662BD;stop-color:color(display-p3 0.4627 0.3843 0.7412);stop-opacity:1;"/>
</linearGradient>
<linearGradient id="paint13_linear_5994_5000" x1="10.4786" y1="8.82336" x2="11.6099" y2="10.7828" gradientUnits="userSpaceOnUse">
<stop stop-color="#1D182F" style="stop-color:#1D182F;stop-color:color(display-p3 0.1137 0.0941 0.1843);stop-opacity:1;"/>
<stop offset="0.1795" stop-color="#292243" style="stop-color:#292243;stop-color:color(display-p3 0.1608 0.1333 0.2627);stop-opacity:1;"/>
<stop offset="0.5463" stop-color="#493D76" style="stop-color:#493D76;stop-color:color(display-p3 0.2863 0.2392 0.4627);stop-opacity:1;"/>
<stop offset="1" stop-color="#7662BD" style="stop-color:#7662BD;stop-color:color(display-p3 0.4627 0.3843 0.7412);stop-opacity:1;"/>
</linearGradient>
<linearGradient id="paint14_linear_5994_5000" x1="14.0857" y1="6.74129" x2="15.217" y2="8.70073" gradientUnits="userSpaceOnUse">
<stop stop-color="#1D182F" style="stop-color:#1D182F;stop-color:color(display-p3 0.1137 0.0941 0.1843);stop-opacity:1;"/>
<stop offset="0.1795" stop-color="#292243" style="stop-color:#292243;stop-color:color(display-p3 0.1608 0.1333 0.2627);stop-opacity:1;"/>
<stop offset="0.5463" stop-color="#493D76" style="stop-color:#493D76;stop-color:color(display-p3 0.2863 0.2392 0.4627);stop-opacity:1;"/>
<stop offset="1" stop-color="#7662BD" style="stop-color:#7662BD;stop-color:color(display-p3 0.4627 0.3843 0.7412);stop-opacity:1;"/>
</linearGradient>
<clipPath id="clip0_5994_5000">
<rect width="18" height="18" fill="white" style="fill:white;fill-opacity:1;"/>
</clipPath>
</defs>
</svg>
