<svg width="18" height="18" viewBox="0 0 18 18" fill="none" xmlns="http://www.w3.org/2000/svg">
<path fill-rule="evenodd" clip-rule="evenodd" d="M16.2 8.9998C16.2 12.9763 12.9765 16.1998 9.00005 16.1998C5.0236 16.1998 1.80005 12.9763 1.80005 8.9998C1.80005 5.02335 5.0236 1.7998 9.00005 1.7998C12.9765 1.7998 16.2 5.02335 16.2 8.9998ZM8.04545 6.24519C7.78185 6.50879 7.35446 6.50879 7.09086 6.24519C6.82726 5.98158 6.82726 5.5542 7.09086 5.29059C8.14528 4.23618 9.85482 4.23618 10.9092 5.29059C11.9637 6.34501 11.9637 8.05455 10.9092 9.10897C10.556 9.4622 10.1276 9.69787 9.67505 9.81437V10.1248C9.67505 10.4976 9.37284 10.7998 9.00005 10.7998C8.62726 10.7998 8.32505 10.4976 8.32505 10.1248V9.67478C8.32505 9.02651 8.838 8.62024 9.29826 8.5167C9.53845 8.46267 9.76649 8.34253 9.95464 8.15438C10.4819 7.62717 10.4819 6.77239 9.95464 6.24519C9.42744 5.71798 8.57266 5.71798 8.04545 6.24519ZM9.00005 13.4998C9.4971 13.4998 9.90005 13.0969 9.90005 12.5998C9.90005 12.1027 9.4971 11.6998 9.00005 11.6998C8.50299 11.6998 8.10005 12.1027 8.10005 12.5998C8.10005 13.0969 8.50299 13.4998 9.00005 13.4998Z" fill="#A6ADBB" style="fill:#A6ADBB;fill:color(display-p3 0.6510 0.6784 0.7333);fill-opacity:1;"/>
</svg>
