<svg width="18" height="18" viewBox="0 0 18 18" fill="none" xmlns="http://www.w3.org/2000/svg">
<path d="M8.68804 1.78197C8.87698 1.65601 9.12313 1.65601 9.31208 1.78197L16.0621 6.28197C16.3206 6.4543 16.3904 6.80353 16.2181 7.06202C16.0458 7.3205 15.6965 7.39035 15.438 7.21803L9.00006 2.92604L2.56208 7.21803C2.30359 7.39035 1.95435 7.3205 1.78203 7.06202C1.60971 6.80353 1.67956 6.4543 1.93804 6.28197L8.68804 1.78197Z" fill="#A6ADBB" style="fill:#A6ADBB;fill:color(display-p3 0.6510 0.6784 0.7333);fill-opacity:1;"/>
<path fill-rule="evenodd" clip-rule="evenodd" d="M15.1875 7.74938V15.1875H15.75C16.0607 15.1875 16.3125 15.4393 16.3125 15.75C16.3125 16.0607 16.0607 16.3125 15.75 16.3125H2.25C1.93934 16.3125 1.6875 16.0607 1.6875 15.75C1.6875 15.4393 1.93934 15.1875 2.25 15.1875H2.8125V7.74938C2.8125 7.47238 3.01416 7.23661 3.28781 7.19367C5.14933 6.90159 7.05716 6.75 9 6.75C10.9428 6.75 12.8507 6.90159 14.7122 7.19367C14.9858 7.23661 15.1875 7.47238 15.1875 7.74938ZM9.5625 9.5625C9.5625 9.25184 9.31066 9 9 9C8.68934 9 8.4375 9.25184 8.4375 9.5625V14.625C8.4375 14.9357 8.68934 15.1875 9 15.1875C9.31066 15.1875 9.5625 14.9357 9.5625 14.625V9.5625ZM11.8125 9C12.1232 9 12.375 9.25184 12.375 9.5625V14.625C12.375 14.9357 12.1232 15.1875 11.8125 15.1875C11.5018 15.1875 11.25 14.9357 11.25 14.625V9.5625C11.25 9.25184 11.5018 9 11.8125 9ZM6.75 9.5625C6.75 9.25184 6.49816 9 6.1875 9C5.87684 9 5.625 9.25184 5.625 9.5625V14.625C5.625 14.9357 5.87684 15.1875 6.1875 15.1875C6.49816 15.1875 6.75 14.9357 6.75 14.625V9.5625Z" fill="#A6ADBB" style="fill:#A6ADBB;fill:color(display-p3 0.6510 0.6784 0.7333);fill-opacity:1;"/>
<path d="M9 5.90625C9.46599 5.90625 9.84375 5.52849 9.84375 5.0625C9.84375 4.59651 9.46599 4.21875 9 4.21875C8.53401 4.21875 8.15625 4.59651 8.15625 5.0625C8.15625 5.52849 8.53401 5.90625 9 5.90625Z" fill="#A6ADBB" style="fill:#A6ADBB;fill:color(display-p3 0.6510 0.6784 0.7333);fill-opacity:1;"/>
</svg>
