<svg width="18" height="18" viewBox="0 0 18 18" fill="none" xmlns="http://www.w3.org/2000/svg">
<path fill-rule="evenodd" clip-rule="evenodd" d="M3.9375 1.6875C2.69486 1.6875 1.6875 2.69486 1.6875 3.9375V7.17601C1.6875 7.77275 1.92455 8.34505 2.34651 8.767L9.53235 15.9528C10.2218 16.6423 11.3242 16.8423 12.193 16.2735C13.8182 15.2095 15.2095 13.8182 16.2735 12.193C16.8423 11.3242 16.6423 10.2218 15.9528 9.53234L8.767 2.34651C8.34505 1.92455 7.77275 1.6875 7.17601 1.6875H3.9375ZM4.78125 5.625C5.24724 5.625 5.625 5.24724 5.625 4.78125C5.625 4.31526 5.24724 3.9375 4.78125 3.9375C4.31526 3.9375 3.9375 4.31526 3.9375 4.78125C3.9375 5.24724 4.31526 5.625 4.78125 5.625Z" fill="#A6ADBB" style="fill:#A6ADBB;fill:color(display-p3 0.6510 0.6784 0.7333);fill-opacity:1;"/>
</svg>
