<svg width="18" height="18" viewBox="0 0 18 18" fill="none" xmlns="http://www.w3.org/2000/svg">
<g clip-path="url(#clip0_7394_2340)">
<path d="M8.99995 7.1998C10.4911 7.1998 11.7 5.99097 11.7 4.4998C11.7 3.00864 10.4911 1.7998 8.99995 1.7998C7.50878 1.7998 6.29995 3.00864 6.29995 4.4998C6.29995 5.99097 7.50878 7.1998 8.99995 7.1998Z" fill="#A6ADBB" style="fill:#A6ADBB;fill:color(display-p3 0.6510 0.6784 0.7333);fill-opacity:1;"/>
<path d="M3.1186 13.044C2.94321 13.5012 3.09987 14.0137 3.48673 14.3139C5.00985 15.496 6.92277 16.1998 9.00005 16.1998C11.0795 16.1998 12.9942 15.4946 14.518 14.3103C14.9047 14.0098 15.061 13.4972 14.8853 13.0401C13.977 10.677 11.6857 8.9998 9.00271 8.9998C6.31824 8.9998 4.02591 10.6788 3.1186 13.044Z" fill="#A6ADBB" style="fill:#A6ADBB;fill:color(display-p3 0.6510 0.6784 0.7333);fill-opacity:1;"/>
<path d="M14.3262 9.28744V10.2067C14.4779 10.1787 14.616 10.1266 14.7261 10.0546C14.8956 9.9438 14.9414 9.82689 14.9414 9.74707C14.9414 9.66726 14.8956 9.55034 14.7261 9.4395C14.616 9.36753 14.4779 9.31547 14.3262 9.28744Z" fill="#A6ADBB" style="fill:#A6ADBB;fill:color(display-p3 0.6510 0.6784 0.7333);fill-opacity:1;"/>
<path d="M13.4753 8.51466C13.4942 8.53433 13.5157 8.5537 13.5401 8.57256C13.6132 8.62904 13.7016 8.67226 13.7988 8.70008V7.80579C13.7726 7.8133 13.747 7.82192 13.7222 7.83162C13.7064 7.8378 13.691 7.84441 13.6758 7.85145C13.6265 7.87435 13.5809 7.90177 13.5401 7.93332C13.4074 8.03586 13.3594 8.15362 13.3594 8.25294C13.3594 8.31757 13.3797 8.39002 13.4305 8.46099C13.4434 8.47903 13.4583 8.49697 13.4753 8.51466Z" fill="#A6ADBB" style="fill:#A6ADBB;fill:color(display-p3 0.6510 0.6784 0.7333);fill-opacity:1;"/>
<path fill-rule="evenodd" clip-rule="evenodd" d="M16.875 9C16.875 10.5533 15.6158 11.8125 14.0625 11.8125C12.5092 11.8125 11.25 10.5533 11.25 9C11.25 7.4467 12.5092 6.1875 14.0625 6.1875C15.6158 6.1875 16.875 7.4467 16.875 9ZM14.0625 6.89062C14.2081 6.89062 14.3262 7.00867 14.3262 7.1543V7.26533C14.5344 7.30232 14.7369 7.38431 14.9073 7.51603C15.0572 7.63182 15.1687 7.77599 15.2326 7.93792C15.286 8.0734 15.2194 8.22651 15.084 8.27991C14.9485 8.33331 14.7954 8.26677 14.742 8.13129C14.7164 8.06638 14.6672 7.9969 14.5849 7.93331C14.5118 7.87682 14.4233 7.83361 14.3262 7.80579V8.75371C14.5716 8.78637 14.8123 8.86577 15.0147 8.99813C15.2914 9.17903 15.4687 9.4445 15.4687 9.74707C15.4687 10.0496 15.2914 10.3151 15.0147 10.496C14.8123 10.6284 14.5716 10.7078 14.3262 10.7404V10.8457C14.3262 10.9913 14.2081 11.1094 14.0625 11.1094C13.9169 11.1094 13.7988 10.9913 13.7988 10.8457V10.7404C13.5534 10.7078 13.3127 10.6284 13.1103 10.496C12.9406 10.3851 12.8087 10.2437 12.7313 10.0783C12.6695 9.94642 12.7263 9.78945 12.8582 9.72768C12.9901 9.66592 13.1471 9.72276 13.2088 9.85464C13.2372 9.91529 13.295 9.98675 13.3989 10.0546C13.5089 10.1266 13.6471 10.1787 13.7988 10.2067V9.24053C13.5906 9.20353 13.3881 9.12155 13.2176 8.98983C12.9728 8.80062 12.832 8.536 12.832 8.25293C12.832 7.96986 12.9728 7.70524 13.2176 7.51603C13.3881 7.38431 13.5906 7.30232 13.7988 7.26533V7.1543C13.7988 7.00867 13.9169 6.89062 14.0625 6.89062Z" fill="#A6ADBB" style="fill:#A6ADBB;fill:color(display-p3 0.6510 0.6784 0.7333);fill-opacity:1;"/>
</g>
<defs>
<clipPath id="clip0_7394_2340">
<rect width="18" height="18" fill="white" style="fill:white;fill-opacity:1;"/>
</clipPath>
</defs>
</svg>
