<svg width="18" height="18" viewBox="0 0 18 18" fill="none" xmlns="http://www.w3.org/2000/svg">
<g clip-path="url(#clip0_2114_13354)">
<path d="M11.2408 0.00157297L9.01263 0.388573V2.5652L11.2408 0.379397C11.381 0.241866 11.381 -0.0227903 11.2408 0.00157297Z" fill="url(#paint0_linear_2114_13354)" style=""/>
<path d="M14.5378 7.83301L3.46204 8.75495V15.2576L3.46355 15.2575C3.46221 15.9928 3.90522 16.6952 4.81369 17.2197C6.81594 18.3757 10.3134 18.2307 12.6254 16.8958C13.8903 16.1655 14.5367 15.2305 14.5364 14.3439L14.5378 14.3438V7.83301H14.5378Z" fill="url(#paint1_linear_2114_13354)" style=""/>
<path d="M4.13507 16.7166C4.32182 16.8971 4.54763 17.066 4.81369 17.2196C5.07016 17.3677 5.3513 17.4943 5.65118 17.5999V9.81964H7.74825V17.9885C8.5064 18.0261 9.2965 17.9697 10.0637 17.821V9.81964H12.1972V17.1229C12.3437 17.0515 12.4867 16.9758 12.6253 16.8958C13.0965 16.6238 13.4817 16.3234 13.7797 16.0076V8.2207H4.13507V16.7166Z" fill="url(#paint2_linear_2114_13354)" style=""/>
<path d="M14.3831 9.51676C14.3831 9.80511 14.7649 9.90741 14.9091 9.6577C15.1238 9.28575 15.2369 8.86387 15.2369 8.4344V8.03809L14.6741 8.65634L14.3831 9.51676Z" fill="url(#paint3_linear_2114_13354)" style=""/>
<path d="M12.6008 10.7527C12.6008 11.1972 13.1001 11.4586 13.4654 11.2055L13.5185 11.1686C14.06 10.7934 14.3831 10.1764 14.3831 9.51758L13.3374 10.0439L12.6008 10.7527Z" fill="url(#paint4_linear_2114_13354)" style=""/>
<path d="M10.198 11.5299C10.198 12.0494 10.7046 12.4178 11.1988 12.2578L11.6 12.1279C12.1966 11.9347 12.6008 11.3791 12.6008 10.752L11.2657 10.937L10.198 11.5299Z" fill="url(#paint5_linear_2114_13354)" style=""/>
<path d="M7.59027 11.7162C7.59027 12.2846 8.07254 12.7337 8.63951 12.6932L9.14878 12.6568C9.73997 12.6146 10.198 12.1226 10.198 11.5299L8.89415 11.3965L7.59027 11.7162Z" fill="url(#paint6_linear_2114_13354)" style=""/>
<path d="M5.22852 11.2793C5.22852 11.8889 5.6634 12.4117 6.26281 12.5228L6.55602 12.5772C7.09391 12.6768 7.59031 12.264 7.59031 11.7169L6.3391 11.3554L5.22852 11.2793Z" fill="url(#paint7_linear_2114_13354)" style=""/>
<path d="M3.52106 10.293V10.4734C3.52106 11.0127 3.80878 11.511 4.27579 11.7806L4.31756 11.8047C4.72245 12.0385 5.22853 11.7463 5.22853 11.2788L4.37479 10.5278L3.52106 10.293Z" fill="url(#paint8_linear_2114_13354)" style=""/>
<path d="M2.76312 8.92969V9.38282C2.76312 9.77551 2.86325 10.1617 3.05404 10.505C3.17895 10.7297 3.52106 10.641 3.52106 10.3839V10.2933L3.36282 9.66765L2.76312 8.92969Z" fill="url(#paint9_linear_2114_13354)" style=""/>
<path d="M11.674 4.64355L13.7541 5.37115L10.4511 5.567L10.9857 4.66078L11.674 4.64355Z" fill="url(#paint10_linear_2114_13354)" style=""/>
<path d="M6.57257 5.00757L9.13377 4.51465L9.01262 5.99026L6.57257 5.00757Z" fill="url(#paint11_linear_2114_13354)" style=""/>
<path d="M4.43329 6.03672L6.57258 5.0077C7.51656 5.20057 8.44831 4.62794 8.70259 3.69862L9.01267 2.56543L8.01227 4.73837C7.74536 5.31809 7.19552 5.71677 6.56154 5.79021L4.43329 6.03672Z" fill="url(#paint12_linear_2114_13354)" style=""/>
<path d="M3.08582 7.42399L4.96787 6.81501C6.37391 6.36005 7.54528 5.37153 8.23009 4.06196L9.01267 2.56543L8.90825 2.79226C8.08496 4.58052 6.38892 5.81021 4.43332 6.03676L3.08582 7.42399Z" fill="url(#paint13_linear_2114_13354)" style=""/>
<path d="M2.76312 8.92952L4.33095 8.07072C6.10694 7.09791 7.53685 5.59745 8.42307 3.7767L9.01264 2.56543C7.82625 4.83417 5.79693 6.54673 3.36106 7.3349L3.08579 7.42399L2.76312 8.92952Z" fill="url(#paint14_linear_2114_13354)" style=""/>
<path d="M11.674 4.64323C10.6668 4.96987 9.58677 4.41064 9.27219 3.39958L9.01263 2.56543L9.03116 2.86366C9.08959 3.80412 9.84492 4.55077 10.786 4.59837L11.674 4.64323Z" fill="url(#paint15_linear_2114_13354)" style=""/>
<path d="M5.22852 11.2789C6.95107 8.65119 8.21873 5.7521 8.97832 2.70328L9.01266 2.56543L8.56843 7.44582L7.59031 11.7165L5.22852 11.2789Z" fill="url(#paint16_linear_2114_13354)" style=""/>
<path d="M10.198 11.5302C9.65507 8.77086 9.27496 5.98198 9.0597 3.17799L9.0127 2.56543L9.09436 2.8992C9.78135 5.70646 10.9692 8.36674 12.6008 10.7522L10.198 11.5302Z" fill="url(#paint17_linear_2114_13354)" style=""/>
<path d="M14.3831 9.51709L14.3086 9.46143C11.9421 7.69409 10.1095 5.30776 9.01263 2.56543C10.2675 4.97448 12.3379 6.85906 14.854 7.88264L15.2368 8.03838L14.3831 9.51709Z" fill="url(#paint18_linear_2114_13354)" style=""/>
<path d="M3.52106 10.2931L4.68701 9.27679C6.40155 7.7823 7.7262 5.89262 8.54643 3.77122L9.01264 2.56543C7.74286 5.1742 5.69406 7.32411 3.14942 8.71795L2.76312 8.92955L3.52106 10.2931Z" fill="url(#paint19_linear_2114_13354)" style=""/>
<path d="M9.01263 2.56543C10.2005 4.63996 12.2475 6.08056 14.6012 6.49843L15.0143 6.57177L13.7541 5.37083L13.747 5.37104C11.7597 5.42782 9.91713 4.33586 9.01263 2.56543Z" fill="url(#paint20_linear_2114_13354)" style=""/>
<path d="M7.59027 11.7165L10.198 11.5302C9.65503 8.77089 9.27492 5.98198 9.05966 3.17799L9.01266 2.56543L8.96558 3.08258C8.7011 5.9881 8.24165 8.87257 7.59027 11.7165Z" fill="url(#paint21_linear_2114_13354)" style=""/>
<path d="M12.6008 10.7522L14.3831 9.51712L14.3086 9.46147C11.9421 7.69409 10.1095 5.30776 9.01263 2.56543L9.0943 2.8992C9.78129 5.70646 10.9692 8.36674 12.6008 10.7522Z" fill="url(#paint22_linear_2114_13354)" style=""/>
<path d="M5.22855 11.2789C6.9511 8.65119 8.21877 5.7521 8.97835 2.70328L9.0127 2.56543C7.88626 5.47876 6.0671 8.07385 3.71254 10.1262L3.52112 10.2931L5.22855 11.2789Z" fill="url(#paint23_linear_2114_13354)" style=""/>
<path d="M9.01263 2.56543C10.2675 4.97448 12.3379 6.85906 14.854 7.88264L15.2368 8.03838L15.0144 6.57176L14.6012 6.49843C12.2475 6.08056 10.2005 4.63996 9.01263 2.56543Z" fill="url(#paint24_linear_2114_13354)" style=""/>
<path d="M6.72302 17.8761C7.68662 18.0445 8.75407 18.0408 9.79178 17.8701L10.0637 13.1631C10.0637 13.1631 9.50669 15.5064 8.6416 16.495C7.77708 17.4831 6.72436 17.8754 6.72302 17.8761Z" fill="url(#paint25_linear_2114_13354)" style=""/>
<path d="M10.0637 17.8215C10.982 17.6435 11.8674 17.3338 12.6254 16.8962C12.7726 16.8113 12.911 16.7234 13.0414 16.6333C12.7548 16.5405 12.3705 16.3781 11.9223 16.0937C10.9337 15.4664 10.0638 13.1631 10.0638 13.1631V17.8215H10.0637Z" fill="url(#paint26_linear_2114_13354)" style=""/>
<path d="M10.8851 15.9878C10.5541 15.1669 10.0638 13.1631 10.0638 13.1631C10.0638 13.1631 9.85038 15.2161 9.53256 16.3151C9.21479 17.4141 8.80676 17.9814 8.80676 17.9814H8.80729C9.79796 17.9195 10.7996 17.7058 11.6978 17.3448C11.6971 17.344 11.2159 16.8081 10.8851 15.9878Z" fill="url(#paint27_linear_2114_13354)" style=""/>
<path d="M9.1337 0.376953L8.89154 0.399031V2.78428C8.89154 2.806 8.90202 2.82675 8.92023 2.83856C8.92051 2.83873 8.92079 2.83891 8.92104 2.83909C8.96382 2.86605 9.04131 2.8612 9.09186 2.83202C9.11559 2.81831 9.12617 2.79855 9.13064 2.7866C9.13271 2.78104 9.13366 2.77514 9.13366 2.7692L9.1337 0.376953Z" fill="url(#paint28_linear_2114_13354)" style=""/>
<path d="M9.09191 0.437947C9.14247 0.408767 9.14795 0.364611 9.10418 0.339334C9.06041 0.314056 8.98391 0.31722 8.93336 0.3464C8.88281 0.37558 8.87732 0.419736 8.92109 0.445013C8.9649 0.470326 9.04136 0.467162 9.09191 0.437947Z" fill="#F2EFFA" style="fill:#F2EFFA;fill:color(display-p3 0.9490 0.9373 0.9804);fill-opacity:1;"/>
</g>
<defs>
<linearGradient id="paint0_linear_2114_13354" x1="10.1793" y1="2.42916" x2="8.87881" y2="0.176746" gradientUnits="userSpaceOnUse">
<stop stop-color="#FFA538" style="stop-color:#FFA538;stop-color:color(display-p3 1.0000 0.6471 0.2196);stop-opacity:1;"/>
<stop offset="1" stop-color="#F7E041" style="stop-color:#F7E041;stop-color:color(display-p3 0.9686 0.8784 0.2549);stop-opacity:1;"/>
</linearGradient>
<linearGradient id="paint1_linear_2114_13354" x1="6.0206" y1="12.9165" x2="14.1246" y2="12.9165" gradientUnits="userSpaceOnUse">
<stop stop-color="#AB2C37" style="stop-color:#AB2C37;stop-color:color(display-p3 0.6706 0.1725 0.2157);stop-opacity:1;"/>
<stop offset="0.2351" stop-color="#C74651" style="stop-color:#C74651;stop-color:color(display-p3 0.7804 0.2745 0.3176);stop-opacity:1;"/>
<stop offset="0.6333" stop-color="#FF7A85" style="stop-color:#FF7A85;stop-color:color(display-p3 1.0000 0.4784 0.5216);stop-opacity:1;"/>
<stop offset="1" stop-color="#FF4757" style="stop-color:#FF4757;stop-color:color(display-p3 1.0000 0.2784 0.3412);stop-opacity:1;"/>
</linearGradient>
<linearGradient id="paint2_linear_2114_13354" x1="8.95742" y1="18.4001" x2="8.95742" y2="9.76603" gradientUnits="userSpaceOnUse">
<stop stop-color="#DFDAEF" style="stop-color:#DFDAEF;stop-color:color(display-p3 0.8745 0.8549 0.9373);stop-opacity:1;"/>
<stop offset="1" stop-color="#F2EFFA" style="stop-color:#F2EFFA;stop-color:color(display-p3 0.9490 0.9373 0.9804);stop-opacity:1;"/>
</linearGradient>
<linearGradient id="paint3_linear_2114_13354" x1="15.1626" y1="9.4276" x2="14.759" y2="8.72848" gradientUnits="userSpaceOnUse">
<stop stop-color="#DFDAEF" style="stop-color:#DFDAEF;stop-color:color(display-p3 0.8745 0.8549 0.9373);stop-opacity:1;"/>
<stop offset="1" stop-color="#F2EFFA" style="stop-color:#F2EFFA;stop-color:color(display-p3 0.9490 0.9373 0.9804);stop-opacity:1;"/>
</linearGradient>
<linearGradient id="paint4_linear_2114_13354" x1="13.4919" y1="13.4499" x2="13.4919" y2="9.3946" gradientUnits="userSpaceOnUse">
<stop stop-color="#AB2C37" style="stop-color:#AB2C37;stop-color:color(display-p3 0.6706 0.1725 0.2157);stop-opacity:1;"/>
<stop offset="0.3712" stop-color="#C73542" style="stop-color:#C73542;stop-color:color(display-p3 0.7804 0.2078 0.2588);stop-opacity:1;"/>
<stop offset="1" stop-color="#FF4757" style="stop-color:#FF4757;stop-color:color(display-p3 1.0000 0.2784 0.3412);stop-opacity:1;"/>
</linearGradient>
<linearGradient id="paint5_linear_2114_13354" x1="11.7935" y1="11.9267" x2="11.3985" y2="11.2425" gradientUnits="userSpaceOnUse">
<stop stop-color="#DFDAEF" style="stop-color:#DFDAEF;stop-color:color(display-p3 0.8745 0.8549 0.9373);stop-opacity:1;"/>
<stop offset="1" stop-color="#F2EFFA" style="stop-color:#F2EFFA;stop-color:color(display-p3 0.9490 0.9373 0.9804);stop-opacity:1;"/>
</linearGradient>
<linearGradient id="paint6_linear_2114_13354" x1="8.89415" y1="13.5354" x2="8.89415" y2="9.01588" gradientUnits="userSpaceOnUse">
<stop stop-color="#AB2C37" style="stop-color:#AB2C37;stop-color:color(display-p3 0.6706 0.1725 0.2157);stop-opacity:1;"/>
<stop offset="0.3712" stop-color="#C73542" style="stop-color:#C73542;stop-color:color(display-p3 0.7804 0.2078 0.2588);stop-opacity:1;"/>
<stop offset="1" stop-color="#FF4757" style="stop-color:#FF4757;stop-color:color(display-p3 1.0000 0.2784 0.3412);stop-opacity:1;"/>
</linearGradient>
<linearGradient id="paint7_linear_2114_13354" x1="6.8573" y1="12.4434" x2="6.22653" y2="11.3509" gradientUnits="userSpaceOnUse">
<stop stop-color="#DFDAEF" style="stop-color:#DFDAEF;stop-color:color(display-p3 0.8745 0.8549 0.9373);stop-opacity:1;"/>
<stop offset="1" stop-color="#F2EFFA" style="stop-color:#F2EFFA;stop-color:color(display-p3 0.9490 0.9373 0.9804);stop-opacity:1;"/>
</linearGradient>
<linearGradient id="paint8_linear_2114_13354" x1="4.37479" y1="13.4493" x2="4.37479" y2="9.39399" gradientUnits="userSpaceOnUse">
<stop stop-color="#AB2C37" style="stop-color:#AB2C37;stop-color:color(display-p3 0.6706 0.1725 0.2157);stop-opacity:1;"/>
<stop offset="0.3712" stop-color="#C73542" style="stop-color:#C73542;stop-color:color(display-p3 0.7804 0.2078 0.2588);stop-opacity:1;"/>
<stop offset="1" stop-color="#FF4757" style="stop-color:#FF4757;stop-color:color(display-p3 1.0000 0.2784 0.3412);stop-opacity:1;"/>
</linearGradient>
<linearGradient id="paint9_linear_2114_13354" x1="3.40075" y1="10.4195" x2="2.84388" y2="9.45496" gradientUnits="userSpaceOnUse">
<stop stop-color="#DFDAEF" style="stop-color:#DFDAEF;stop-color:color(display-p3 0.8745 0.8549 0.9373);stop-opacity:1;"/>
<stop offset="1" stop-color="#F2EFFA" style="stop-color:#F2EFFA;stop-color:color(display-p3 0.9490 0.9373 0.9804);stop-opacity:1;"/>
</linearGradient>
<linearGradient id="paint10_linear_2114_13354" x1="12.3855" y1="5.95917" x2="11.7541" y2="4.86553" gradientUnits="userSpaceOnUse">
<stop stop-color="#AB2C37" style="stop-color:#AB2C37;stop-color:color(display-p3 0.6706 0.1725 0.2157);stop-opacity:1;"/>
<stop offset="0.3712" stop-color="#C73542" style="stop-color:#C73542;stop-color:color(display-p3 0.7804 0.2078 0.2588);stop-opacity:1;"/>
<stop offset="1" stop-color="#FF4757" style="stop-color:#FF4757;stop-color:color(display-p3 1.0000 0.2784 0.3412);stop-opacity:1;"/>
</linearGradient>
<linearGradient id="paint11_linear_2114_13354" x1="8.58463" y1="6.02802" x2="7.93059" y2="4.89518" gradientUnits="userSpaceOnUse">
<stop stop-color="#DFDAEF" style="stop-color:#DFDAEF;stop-color:color(display-p3 0.8745 0.8549 0.9373);stop-opacity:1;"/>
<stop offset="1" stop-color="#F2EFFA" style="stop-color:#F2EFFA;stop-color:color(display-p3 0.9490 0.9373 0.9804);stop-opacity:1;"/>
</linearGradient>
<linearGradient id="paint12_linear_2114_13354" x1="7.32739" y1="5.34798" x2="6.785" y2="4.40853" gradientUnits="userSpaceOnUse">
<stop stop-color="#AB2C37" style="stop-color:#AB2C37;stop-color:color(display-p3 0.6706 0.1725 0.2157);stop-opacity:1;"/>
<stop offset="0.3712" stop-color="#C73542" style="stop-color:#C73542;stop-color:color(display-p3 0.7804 0.2078 0.2588);stop-opacity:1;"/>
<stop offset="1" stop-color="#FF4757" style="stop-color:#FF4757;stop-color:color(display-p3 1.0000 0.2784 0.3412);stop-opacity:1;"/>
</linearGradient>
<linearGradient id="paint13_linear_2114_13354" x1="6.55148" y1="5.8646" x2="5.98853" y2="4.88954" gradientUnits="userSpaceOnUse">
<stop stop-color="#DFDAEF" style="stop-color:#DFDAEF;stop-color:color(display-p3 0.8745 0.8549 0.9373);stop-opacity:1;"/>
<stop offset="1" stop-color="#F2EFFA" style="stop-color:#F2EFFA;stop-color:color(display-p3 0.9490 0.9373 0.9804);stop-opacity:1;"/>
</linearGradient>
<linearGradient id="paint14_linear_2114_13354" x1="5.88788" y1="11.4459" x2="5.88788" y2="2.43373" gradientUnits="userSpaceOnUse">
<stop stop-color="#AB2C37" style="stop-color:#AB2C37;stop-color:color(display-p3 0.6706 0.1725 0.2157);stop-opacity:1;"/>
<stop offset="0.3712" stop-color="#C73542" style="stop-color:#C73542;stop-color:color(display-p3 0.7804 0.2078 0.2588);stop-opacity:1;"/>
<stop offset="1" stop-color="#FF4757" style="stop-color:#FF4757;stop-color:color(display-p3 1.0000 0.2784 0.3412);stop-opacity:1;"/>
</linearGradient>
<linearGradient id="paint15_linear_2114_13354" x1="10.8472" y1="4.80418" x2="9.85874" y2="3.09203" gradientUnits="userSpaceOnUse">
<stop stop-color="#DFDAEF" style="stop-color:#DFDAEF;stop-color:color(display-p3 0.8745 0.8549 0.9373);stop-opacity:1;"/>
<stop offset="1" stop-color="#F2EFFA" style="stop-color:#F2EFFA;stop-color:color(display-p3 0.9490 0.9373 0.9804);stop-opacity:1;"/>
</linearGradient>
<linearGradient id="paint16_linear_2114_13354" x1="8.99825" y1="10.1744" x2="6.72009" y2="6.22857" gradientUnits="userSpaceOnUse">
<stop stop-color="#DFDAEF" style="stop-color:#DFDAEF;stop-color:color(display-p3 0.8745 0.8549 0.9373);stop-opacity:1;"/>
<stop offset="1" stop-color="#F2EFFA" style="stop-color:#F2EFFA;stop-color:color(display-p3 0.9490 0.9373 0.9804);stop-opacity:1;"/>
</linearGradient>
<linearGradient id="paint17_linear_2114_13354" x1="11.5694" y1="10.4496" x2="8.76382" y2="5.59024" gradientUnits="userSpaceOnUse">
<stop stop-color="#DFDAEF" style="stop-color:#DFDAEF;stop-color:color(display-p3 0.8745 0.8549 0.9373);stop-opacity:1;"/>
<stop offset="1" stop-color="#F2EFFA" style="stop-color:#F2EFFA;stop-color:color(display-p3 0.9490 0.9373 0.9804);stop-opacity:1;"/>
</linearGradient>
<linearGradient id="paint18_linear_2114_13354" x1="14.0625" y1="8.82219" x2="11.3133" y2="4.06045" gradientUnits="userSpaceOnUse">
<stop stop-color="#DFDAEF" style="stop-color:#DFDAEF;stop-color:color(display-p3 0.8745 0.8549 0.9373);stop-opacity:1;"/>
<stop offset="1" stop-color="#F2EFFA" style="stop-color:#F2EFFA;stop-color:color(display-p3 0.9490 0.9373 0.9804);stop-opacity:1;"/>
</linearGradient>
<linearGradient id="paint19_linear_2114_13354" x1="7.08073" y1="7.83901" x2="5.83441" y2="5.68031" gradientUnits="userSpaceOnUse">
<stop stop-color="#DFDAEF" style="stop-color:#DFDAEF;stop-color:color(display-p3 0.8745 0.8549 0.9373);stop-opacity:1;"/>
<stop offset="1" stop-color="#F2EFFA" style="stop-color:#F2EFFA;stop-color:color(display-p3 0.9490 0.9373 0.9804);stop-opacity:1;"/>
</linearGradient>
<linearGradient id="paint20_linear_2114_13354" x1="13.3449" y1="6.88153" x2="11.3016" y2="3.34231" gradientUnits="userSpaceOnUse">
<stop stop-color="#DFDAEF" style="stop-color:#DFDAEF;stop-color:color(display-p3 0.8745 0.8549 0.9373);stop-opacity:1;"/>
<stop offset="1" stop-color="#F2EFFA" style="stop-color:#F2EFFA;stop-color:color(display-p3 0.9490 0.9373 0.9804);stop-opacity:1;"/>
</linearGradient>
<linearGradient id="paint21_linear_2114_13354" x1="8.89415" y1="11.4459" x2="8.89415" y2="2.43373" gradientUnits="userSpaceOnUse">
<stop stop-color="#AB2C37" style="stop-color:#AB2C37;stop-color:color(display-p3 0.6706 0.1725 0.2157);stop-opacity:1;"/>
<stop offset="0.3712" stop-color="#C73542" style="stop-color:#C73542;stop-color:color(display-p3 0.7804 0.2078 0.2588);stop-opacity:1;"/>
<stop offset="1" stop-color="#FF4757" style="stop-color:#FF4757;stop-color:color(display-p3 1.0000 0.2784 0.3412);stop-opacity:1;"/>
</linearGradient>
<linearGradient id="paint22_linear_2114_13354" x1="11.6979" y1="11.4459" x2="11.6979" y2="2.43373" gradientUnits="userSpaceOnUse">
<stop stop-color="#AB2C37" style="stop-color:#AB2C37;stop-color:color(display-p3 0.6706 0.1725 0.2157);stop-opacity:1;"/>
<stop offset="0.3712" stop-color="#C73542" style="stop-color:#C73542;stop-color:color(display-p3 0.7804 0.2078 0.2588);stop-opacity:1;"/>
<stop offset="1" stop-color="#FF4757" style="stop-color:#FF4757;stop-color:color(display-p3 1.0000 0.2784 0.3412);stop-opacity:1;"/>
</linearGradient>
<linearGradient id="paint23_linear_2114_13354" x1="6.26689" y1="11.446" x2="6.26689" y2="2.4338" gradientUnits="userSpaceOnUse">
<stop stop-color="#AB2C37" style="stop-color:#AB2C37;stop-color:color(display-p3 0.6706 0.1725 0.2157);stop-opacity:1;"/>
<stop offset="0.3712" stop-color="#C73542" style="stop-color:#C73542;stop-color:color(display-p3 0.7804 0.2078 0.2588);stop-opacity:1;"/>
<stop offset="1" stop-color="#FF4757" style="stop-color:#FF4757;stop-color:color(display-p3 1.0000 0.2784 0.3412);stop-opacity:1;"/>
</linearGradient>
<linearGradient id="paint24_linear_2114_13354" x1="12.1247" y1="11.4459" x2="12.1247" y2="2.43377" gradientUnits="userSpaceOnUse">
<stop stop-color="#AB2C37" style="stop-color:#AB2C37;stop-color:color(display-p3 0.6706 0.1725 0.2157);stop-opacity:1;"/>
<stop offset="0.3712" stop-color="#C73542" style="stop-color:#C73542;stop-color:color(display-p3 0.7804 0.2078 0.2588);stop-opacity:1;"/>
<stop offset="1" stop-color="#FF4757" style="stop-color:#FF4757;stop-color:color(display-p3 1.0000 0.2784 0.3412);stop-opacity:1;"/>
</linearGradient>
<linearGradient id="paint25_linear_2114_13354" x1="8.3934" y1="18.0092" x2="8.3934" y2="10.869" gradientUnits="userSpaceOnUse">
<stop stop-color="#C5BAEB" style="stop-color:#C5BAEB;stop-color:color(display-p3 0.7725 0.7294 0.9216);stop-opacity:1;"/>
<stop offset="1" stop-color="#F2EFFA" style="stop-color:#F2EFFA;stop-color:color(display-p3 0.9490 0.9373 0.9804);stop-opacity:1;"/>
</linearGradient>
<linearGradient id="paint26_linear_2114_13354" x1="11.5526" y1="17.8301" x2="11.5526" y2="10.9538" gradientUnits="userSpaceOnUse">
<stop stop-color="#C5BAEB" style="stop-color:#C5BAEB;stop-color:color(display-p3 0.7725 0.7294 0.9216);stop-opacity:1;"/>
<stop offset="1" stop-color="#F2EFFA" style="stop-color:#F2EFFA;stop-color:color(display-p3 0.9490 0.9373 0.9804);stop-opacity:1;"/>
</linearGradient>
<linearGradient id="paint27_linear_2114_13354" x1="10.2523" y1="18.1786" x2="10.2523" y2="13.9245" gradientUnits="userSpaceOnUse">
<stop stop-color="#43386B" style="stop-color:#43386B;stop-color:color(display-p3 0.2627 0.2196 0.4196);stop-opacity:1;"/>
<stop offset="0.8188" stop-color="#554687" style="stop-color:#554687;stop-color:color(display-p3 0.3333 0.2745 0.5294);stop-opacity:1;"/>
<stop offset="1" stop-color="#594A8E" style="stop-color:#594A8E;stop-color:color(display-p3 0.3490 0.2902 0.5569);stop-opacity:1;"/>
</linearGradient>
<linearGradient id="paint28_linear_2114_13354" x1="8.93415" y1="1.61691" x2="9.18506" y2="1.61691" gradientUnits="userSpaceOnUse">
<stop stop-color="#C5BAEB" style="stop-color:#C5BAEB;stop-color:color(display-p3 0.7725 0.7294 0.9216);stop-opacity:1;"/>
<stop offset="0.2337" stop-color="#D0C9EB" style="stop-color:#D0C9EB;stop-color:color(display-p3 0.8157 0.7882 0.9216);stop-opacity:1;"/>
<stop offset="0.4509" stop-color="#D7D1EB" style="stop-color:#D7D1EB;stop-color:color(display-p3 0.8431 0.8196 0.9216);stop-opacity:1;"/>
<stop offset="1" stop-color="#C5BAEB" style="stop-color:#C5BAEB;stop-color:color(display-p3 0.7725 0.7294 0.9216);stop-opacity:1;"/>
</linearGradient>
<clipPath id="clip0_2114_13354">
<rect width="18" height="18" fill="white" style="fill:white;fill-opacity:1;"/>
</clipPath>
</defs>
</svg>
