<svg width="18" height="18" viewBox="0 0 18 18" fill="none" xmlns="http://www.w3.org/2000/svg">
<path fill-rule="evenodd" clip-rule="evenodd" d="M9 1.6875C4.96142 1.6875 1.6875 4.96142 1.6875 9C1.6875 13.0386 4.96142 16.3125 9 16.3125C13.0386 16.3125 16.3125 13.0386 16.3125 9C16.3125 4.96142 13.0386 1.6875 9 1.6875ZM9.5625 4.5C9.5625 4.18934 9.31066 3.9375 9 3.9375C8.68934 3.9375 8.4375 4.18934 8.4375 4.5V9C8.4375 9.31066 8.68934 9.5625 9 9.5625H12.375C12.6857 9.5625 12.9375 9.31066 12.9375 9C12.9375 8.68934 12.6857 8.4375 12.375 8.4375H9.5625V4.5Z" fill="#A6ADBB" style="fill:#A6ADBB;fill:color(display-p3 0.6510 0.6784 0.7333);fill-opacity:1;"/>
</svg>
