<svg width="18" height="18" viewBox="0 0 18 18" fill="none" xmlns="http://www.w3.org/2000/svg">
<g clip-path="url(#clip0_2114_13417)">
<path d="M13.3285 9.00135H16.5021C16.5021 9.00088 16.5021 9.00065 16.5021 9.00018C16.5021 4.85689 13.1433 1.49805 8.99998 1.49805C7.01145 1.49805 5.20484 2.27311 3.86243 3.53605L13.3285 9.00135Z" fill="#0B4BB2" style="fill:#0B4BB2;fill:color(display-p3 0.0431 0.2941 0.6980);fill-opacity:1;"/>
<path d="M3.86383 14.4653C5.20624 15.7273 7.01215 16.5019 8.99998 16.5019C13.1428 16.5019 16.5014 13.1438 16.5021 9.00098H13.3285L3.86383 14.4653Z" fill="#D61D37" style="fill:#D61D37;fill:color(display-p3 0.8392 0.1137 0.2157);fill-opacity:1;"/>
<path d="M3.86244 3.53613C2.40773 4.90433 1.49786 6.84551 1.49786 9.00026C1.49786 11.1557 2.4082 13.0976 3.86385 14.4658L13.3283 9.0012L3.86244 3.53613Z" fill="white" style="fill:white;fill-opacity:1;"/>
<path d="M11.8628 8.99992L11.3015 9.19498L11.2893 9.78905L10.9304 9.31548L10.3616 9.48756L10.7009 8.99992L10.3614 8.51205L10.9302 8.68413L11.2891 8.21056L11.3013 8.80463L11.8628 8.99992ZM6.55781 8.90239C6.5557 8.86981 6.55242 8.83722 6.54843 8.80533L7.88897 8.6288L7.73072 8.47055L6.53249 8.70874C6.49381 8.51275 6.41668 8.33059 6.3093 8.17023L7.32491 7.49152V7.26763L6.2521 8.09076C6.23217 8.06497 6.21154 8.03988 6.18997 8.0155L7.29701 7.04468V6.77038H7.02271L6.05189 7.87741C6.02751 7.85585 6.00219 7.83521 5.9764 7.81529L6.79976 6.74248H6.57586L5.89692 7.75832C5.73656 7.65094 5.55464 7.57381 5.35864 7.53489L5.59684 6.33666L5.43859 6.17841L5.26205 7.51895C5.22993 7.51473 5.19758 7.51168 5.16499 7.50957L5.26112 6.04056L5.06723 5.84668L4.87335 6.04056L4.96947 7.50957C4.93688 7.51168 4.9043 7.51497 4.87241 7.51895L4.69588 6.17841L4.53763 6.33666L4.77582 7.53489C4.57983 7.57358 4.39767 7.65071 4.23731 7.75808L3.5586 6.74248H3.33471L4.15783 7.81529C4.13204 7.83521 4.10696 7.85585 4.08258 7.87741L3.11175 6.77038H2.83746V7.04468L3.94449 8.0155C3.92292 8.03988 3.90229 8.0652 3.88236 8.09099L2.80956 7.26763V7.49152L3.82539 8.17047C3.71802 8.33082 3.64089 8.51275 3.60197 8.70874L2.40374 8.47055L2.24549 8.6288L3.58603 8.80533C3.58181 8.83745 3.57876 8.86981 3.57665 8.90239L2.10764 8.80627L1.91376 9.00016L2.10764 9.19404L3.57665 9.09792C3.57876 9.13074 3.58204 9.16309 3.58603 9.19521L2.24549 9.37151L2.40374 9.52976L3.60197 9.29157C3.64065 9.48756 3.71779 9.66972 3.82516 9.83008L2.80956 10.5088V10.7327L3.88236 9.90955C3.90229 9.93534 3.92292 9.96043 3.94449 9.98481L2.83746 10.9556V11.2299H3.11175L4.08258 10.1229C4.10696 10.1445 4.13228 10.1651 4.15807 10.185L3.33471 11.2578H3.5586L4.23754 10.242C4.39767 10.3494 4.57983 10.4267 4.77582 10.4654L4.53763 11.6634L4.69588 11.8217L4.87241 10.4811C4.90453 10.4853 4.93688 10.4884 4.96947 10.4905L4.87335 11.9595L5.06723 12.1534L5.26112 11.9595L5.16499 10.4905C5.19758 10.4884 5.23017 10.4851 5.26205 10.4811L5.43859 11.8217L5.59684 11.6634L5.35864 10.4652C5.55464 10.4265 5.7368 10.3494 5.89716 10.242L6.57586 11.2576H6.79976L5.97663 10.1848C6.00242 10.1649 6.02751 10.1442 6.05189 10.1227L7.02271 11.2297H7.29701V10.9554L6.18997 9.98458C6.21154 9.96019 6.23217 9.93487 6.2521 9.90909L7.32491 10.7324V10.5086L6.30907 9.82961C6.41644 9.66925 6.49358 9.48733 6.53249 9.29133L7.73072 9.52952L7.88897 9.37128L6.54843 9.19474C6.55265 9.16262 6.5557 9.13027 6.55781 9.09768L8.02682 9.1938L8.22071 8.99992L8.02682 8.80604L6.55781 8.90239Z" fill="#F4CD2A" style="fill:#F4CD2A;fill:color(display-p3 0.9569 0.8039 0.1647);fill-opacity:1;"/>
</g>
<defs>
<clipPath id="clip0_2114_13417">
<rect width="15.0043" height="15.0043" fill="white" style="fill:white;fill-opacity:1;" transform="translate(1.49786 1.49805)"/>
</clipPath>
</defs>
</svg>
