<svg width="18" height="18" viewBox="0 0 18 18" fill="none" xmlns="http://www.w3.org/2000/svg">
<path d="M3.02709 6.17706C1.92937 6.11716 1.05469 5.20538 1.05469 4.09296V2.16602H2.65946V1.11133H0.527344C0.236109 1.11133 0 1.34744 0 1.63867V4.09296C0 5.82554 1.40955 7.23505 3.14209 7.23505H3.52009C3.32473 6.90061 3.15925 6.54673 3.02709 6.17706Z" fill="#A6ADBB" style="fill:#A6ADBB;fill:color(display-p3 0.6510 0.6784 0.7333);fill-opacity:1;"/>
<path d="M17.4727 1.11133H15.3255V2.16602H16.9453V4.09296C16.9453 5.21055 16.0625 6.12563 14.9576 6.17787C14.8255 6.54726 14.6601 6.90086 14.4648 7.23509H14.8579C16.5905 7.23509 18 5.82554 18 4.093V1.63867C18 1.34744 17.7639 1.11133 17.4727 1.11133Z" fill="#A6ADBB" style="fill:#A6ADBB;fill:color(display-p3 0.6510 0.6784 0.7333);fill-opacity:1;"/>
<path d="M10.3223 12.0886L10.3228 10.2431C9.89369 10.3352 9.44872 10.3841 8.9925 10.3841C8.51258 10.3841 8.04511 10.3302 7.59546 10.2285V12.0886H10.3223Z" fill="#A6ADBB" style="fill:#A6ADBB;fill:color(display-p3 0.6510 0.6784 0.7333);fill-opacity:1;"/>
<path d="M13.2755 16.9431H12.6459V13.5648C12.6459 13.3316 12.4569 13.1426 12.2237 13.1426H5.77622C5.54302 13.1426 5.35399 13.3316 5.35399 13.5648V16.9431H4.76259C4.47863 16.9431 4.2343 17.1613 4.22094 17.4449C4.20667 17.7478 4.44798 17.9978 4.74769 17.9978H13.2904C13.5902 17.9978 13.8315 17.7478 13.8172 17.4449C13.8038 17.1613 13.5595 16.9431 13.2755 16.9431ZM7.04919 14.6913H10.9508C11.242 14.6913 11.4781 14.9274 11.4781 15.2186C11.4781 15.5099 11.242 15.746 10.9508 15.746H7.04919C6.75795 15.746 6.52185 15.5099 6.52185 15.2186C6.52185 14.9274 6.75795 14.6913 7.04919 14.6913Z" fill="#A6ADBB" style="fill:#A6ADBB;fill:color(display-p3 0.6510 0.6784 0.7333);fill-opacity:1;"/>
<path d="M9.41291 3.51634L9 2.67969L8.58709 3.51634C8.51027 3.67197 8.36177 3.77983 8.19003 3.80479L7.26672 3.93895L7.93483 4.59018C8.05911 4.71133 8.11582 4.88588 8.0865 5.05695L7.92879 5.97646L8.75461 5.54229C8.83142 5.50193 8.91573 5.48171 9 5.48171C9.08427 5.48171 9.16857 5.50189 9.24539 5.54229L10.0712 5.97646L9.9135 5.05695C9.88418 4.88588 9.94088 4.71133 10.0652 4.59018L10.7333 3.93895L9.81 3.80479C9.63822 3.77983 9.48972 3.67197 9.41291 3.51634Z" fill="#A6ADBB" style="fill:#A6ADBB;fill:color(display-p3 0.6510 0.6784 0.7333);fill-opacity:1;"/>
<path d="M13.7158 0.00195312H4.26909C3.9626 0.00195312 3.71411 0.250437 3.71411 0.55693V4.051C3.71411 6.96644 6.09008 9.33745 9.00741 9.32929C11.925 9.32114 14.2708 6.91754 14.2708 3.99989V0.556895C14.2708 0.250402 14.0223 0.00195312 13.7158 0.00195312ZM12.2345 3.94856L10.9998 5.1521L11.2913 6.85155C11.3252 7.04941 11.2439 7.24934 11.0815 7.36736C10.9897 7.43409 10.8809 7.46805 10.7715 7.46805C10.6876 7.46805 10.6033 7.44805 10.5262 7.40748L8.99996 6.60511L7.47376 7.40751C7.29615 7.50085 7.08078 7.48535 6.91839 7.36736C6.75601 7.24938 6.67465 7.04941 6.70862 6.85155L7.0001 5.1521L5.76537 3.94856C5.62165 3.80846 5.5699 3.59889 5.63196 3.40796C5.69397 3.21706 5.85899 3.07791 6.05766 3.04909L7.76401 2.80113L8.52711 1.25492C8.61595 1.07492 8.79929 0.96098 8.99999 0.96098C9.2007 0.96098 9.38404 1.07492 9.47288 1.25492L10.236 2.80113L11.9423 3.04909C12.141 3.07791 12.306 3.21706 12.368 3.40796C12.43 3.59889 12.3783 3.80846 12.2345 3.94856Z" fill="#A6ADBB" style="fill:#A6ADBB;fill:color(display-p3 0.6510 0.6784 0.7333);fill-opacity:1;"/>
</svg>
