<svg width="18" height="18" viewBox="0 0 18 18" fill="none" xmlns="http://www.w3.org/2000/svg">
<path fill-rule="evenodd" clip-rule="evenodd" d="M9.72251 1.71452C9.63118 1.59205 9.49397 1.512 9.34241 1.49276C9.19085 1.47352 9.03798 1.51676 8.91895 1.61254C7.51632 2.74115 6.53805 4.3785 6.26492 6.24496C5.77249 5.88799 5.34 5.45307 4.9857 4.95829C4.88823 4.82218 4.7352 4.73655 4.56821 4.72469C4.40122 4.71283 4.23763 4.77597 4.1219 4.89694C2.96285 6.1085 2.25 7.7528 2.25 9.56242C2.25 13.2903 5.27208 16.3124 9 16.3124C12.7279 16.3124 15.75 13.2903 15.75 9.56242C15.75 6.81675 14.1107 4.45517 11.7598 3.40073C10.9279 2.9946 10.241 2.40981 9.72251 1.71452ZM11.8125 10.6877C11.8125 12.241 10.5533 13.5002 9 13.5002C7.4467 13.5002 6.1875 12.241 6.1875 10.6877C6.1875 10.3807 6.23669 10.0852 6.32762 9.80863C6.79897 10.1571 7.34077 10.4157 7.92773 10.5592C8.08964 9.50859 8.61492 8.5779 9.37117 7.89949C10.749 8.08115 11.8125 9.26024 11.8125 10.6877Z" fill="#A6ADBB" style="fill:#A6ADBB;fill:color(display-p3 0.6510 0.6784 0.7333);fill-opacity:1;"/>
</svg>
