<svg width="18" height="18" viewBox="0 0 18 18" fill="none" xmlns="http://www.w3.org/2000/svg">
<g clip-path="url(#clip0_5994_4232)">
<path d="M2.07692 0C0.930288 0 0 0.930288 0 2.07692V13.1538C0 14.3005 0.930288 15.2308 2.07692 15.2308H9.69231C10.8389 15.2308 11.7692 14.3005 11.7692 13.1538V2.07692C11.7692 0.930288 10.8389 0 9.69231 0H2.07692ZM2.07692 1.38462H9.69231C10.0736 1.38462 10.3846 1.69561 10.3846 2.07692V13.1538C10.3846 13.5352 10.0736 13.8462 9.69231 13.8462H2.07692C1.69561 13.8462 1.38462 13.5352 1.38462 13.1538V2.07692C1.38462 1.69561 1.69561 1.38462 2.07692 1.38462ZM8.4375 2.07692C8.39423 2.07692 8.36448 2.08233 8.35096 2.09856C8.33744 2.11208 8.34014 2.13371 8.32933 2.16346L7.72356 4.06731C7.71274 4.10246 7.71544 4.12139 7.72356 4.13221C7.73167 4.14303 7.74519 4.15385 7.76683 4.15385H8.11298C8.14273 4.15385 8.16166 4.14303 8.17788 4.13221C8.19411 4.11869 8.21034 4.10246 8.22115 4.06731L8.32933 3.67788H8.95673L9.0649 4.06731C9.07572 4.09976 9.07302 4.11869 9.08654 4.13221C9.09736 4.14844 9.13792 4.15385 9.17308 4.15385H9.5625C9.58413 4.15385 9.57873 4.14303 9.58413 4.13221C9.58954 4.12139 9.59225 4.11328 9.58413 4.08894L8.95673 2.16346C8.94591 2.13371 8.94862 2.11478 8.9351 2.09856C8.92157 2.08233 8.89183 2.07692 8.84856 2.07692H8.4375ZM12.4615 2.22837V3.67788L15.3606 4.4351C15.7311 4.53245 15.9555 4.91106 15.8582 5.27885L13.024 15.988C12.9267 16.3558 12.5508 16.5829 12.1803 16.4856L9.95192 15.9014C9.86809 15.9096 9.78155 15.9231 9.69231 15.9231H4.78125C4.89213 15.9745 5.003 16.0204 5.1274 16.0529L11.8341 17.8269C12.9429 18.1217 14.0706 17.4645 14.3654 16.3558L17.1995 5.64663C17.4916 4.53786 16.8371 3.38852 15.7284 3.09375L12.4615 2.22837ZM8.63221 2.57452H8.65385L8.76202 2.96394L8.84856 3.3101H8.4375L8.52404 2.96394L8.63221 2.57452ZM5.86298 4.19712C5.86298 4.19712 2.83143 6.3146 2.83413 7.91827C2.83684 8.8756 3.4994 9.47596 4.41346 9.47596C4.85156 9.47596 5.3735 9.14603 5.64663 8.89183C5.64663 8.89183 5.38431 9.98167 4.93269 10.9471C4.87861 11.0634 6.91767 11.0634 6.85817 10.9471C6.39303 10.0547 6.14423 8.89183 6.14423 8.89183C6.41737 9.15685 6.88251 9.47596 7.35577 9.47596C8.27254 9.47326 8.91346 8.85667 8.91346 7.89663C8.91076 6.29297 5.88462 4.19712 5.88462 4.19712H5.86298ZM13.9111 4.80288C13.8921 4.8137 13.8624 4.82181 13.8462 4.84615L12.7644 6.53365C12.7428 6.56611 12.7374 6.58504 12.7428 6.59856C12.7482 6.60937 12.7644 6.61478 12.7861 6.62019L13.1322 6.72836C13.162 6.73648 13.1782 6.73648 13.1971 6.72836C13.216 6.72025 13.2431 6.69321 13.262 6.66346L13.4567 6.31731L14.0625 6.49038V6.87981C14.0625 6.91496 14.076 6.92849 14.0841 6.94471C14.0922 6.96364 14.1139 6.97716 14.149 6.98798L14.5168 7.09615C14.5385 7.10156 14.552 7.10697 14.5601 7.09615C14.5682 7.08534 14.5817 7.05829 14.5817 7.03125L14.4736 5.01923C14.4709 4.98678 14.46 4.97326 14.4519 4.95433C14.4411 4.9354 14.4059 4.92187 14.3654 4.91106L13.9976 4.80288C13.957 4.79207 13.9273 4.79207 13.9111 4.80288ZM14.0409 5.34375H14.0625V6.10096L13.6731 5.99279L13.8462 5.66827L14.0409 5.34375ZM2.22837 11.0769C2.20673 11.0769 2.19321 11.0877 2.1851 11.0986C2.17698 11.1094 2.17428 11.1283 2.1851 11.1635L2.79087 13.0673C2.80168 13.0971 2.82061 13.116 2.83413 13.1322C2.84766 13.1457 2.85847 13.1538 2.89904 13.1538H3.3101C3.35337 13.1538 3.38311 13.1484 3.39663 13.1322C3.41016 13.116 3.40745 13.0971 3.41827 13.0673L4.04567 11.1418C4.05379 11.1175 4.05108 11.1094 4.04567 11.0986C4.04026 11.0877 4.04567 11.0769 4.02404 11.0769H3.63462C3.59946 11.0769 3.55889 11.0823 3.54808 11.0986C3.53456 11.1148 3.53726 11.131 3.52644 11.1635L3.41827 11.5529H2.79087L2.68269 11.1635C2.67187 11.1283 2.65565 11.1121 2.63942 11.0986C2.6232 11.0877 2.60427 11.0769 2.57452 11.0769H2.22837ZM2.89904 11.9207H3.3101L3.22356 12.2668L3.11538 12.6562H3.09375L2.98558 12.2668L2.89904 11.9207Z" fill="#A6ADBB" style="fill:#A6ADBB;fill:color(display-p3 0.6510 0.6784 0.7333);fill-opacity:1;"/>
</g>
<defs>
<clipPath id="clip0_5994_4232">
<rect width="18" height="18" fill="white" style="fill:white;fill-opacity:1;"/>
</clipPath>
</defs>
</svg>
