<svg width="18" height="18" viewBox="0 0 18 18" fill="none" xmlns="http://www.w3.org/2000/svg">
<g clip-path="url(#clip0_2114_13628)">
<path d="M9.57377 1.55835L9.294 1.3942C9.17243 1.32312 9.00642 1.34804 8.83479 1.48417L2.66831 6.37577C2.362 6.61877 2.15387 7.12365 2.20348 7.50345L3.50317 17.4546C3.52504 17.6221 3.59345 17.7371 3.68929 17.7927L3.96161 17.9511L9.57377 1.55835Z" fill="url(#paint0_linear_2114_13628)" style=""/>
<path d="M9.11691 1.64808L2.95525 6.53589C2.64915 6.77871 2.44127 7.28366 2.49091 7.66377L3.79165 17.6229C3.84129 18.003 4.12968 18.1144 4.43575 17.8715L10.5974 12.9837C10.9035 12.7409 11.1114 12.2359 11.0618 11.8558L9.76101 1.89667C9.71137 1.51656 9.42298 1.40526 9.11691 1.64808Z" fill="url(#paint1_linear_2114_13628)" style=""/>
<path d="M3.87948 7.5931L3.2955 8.05635L3.24877 8.34847C3.23608 8.42774 3.19217 8.50772 3.13754 8.55107C3.03977 8.62863 2.9581 8.55543 2.98341 8.41298L3.24891 6.91901C3.27159 6.79154 3.3425 6.66469 3.43 6.59529C3.5174 6.52597 3.60494 6.52692 3.65356 6.59768L4.22422 7.4285C4.27864 7.5077 4.22963 7.68475 4.13179 7.76234L4.12487 7.76783C4.07024 7.81117 4.01564 7.80934 3.98656 7.76318L3.87948 7.5931ZM3.752 7.39134L3.47444 6.95157L3.35308 7.70778L3.752 7.39134Z" fill="#FF4757" style="fill:#FF4757;fill:color(display-p3 1.0000 0.2784 0.3412);fill-opacity:1;"/>
<path d="M10.4193 10.9553C10.3647 10.9987 10.3208 11.0786 10.3081 11.1579L10.2614 11.45L9.67738 11.9132L9.57029 11.7432C9.54122 11.697 9.48662 11.6952 9.43199 11.7386L9.42506 11.744C9.32722 11.8216 9.27825 11.9987 9.33263 12.0779L9.90329 12.9087C9.95191 12.9795 10.0395 12.9804 10.1268 12.9111C10.2143 12.8417 10.2853 12.7149 10.3079 12.5874L10.5734 11.0934C10.5988 10.9509 10.5171 10.8778 10.4193 10.9553ZM10.0824 12.5548L9.80482 12.115L10.2037 11.7986L10.0824 12.5548Z" fill="#FF4757" style="fill:#FF4757;fill:color(display-p3 1.0000 0.2784 0.3412);fill-opacity:1;"/>
<path d="M8.21051 6.68776C7.6811 6.46525 6.93265 7.05247 6.54783 7.98724C6.01402 7.78119 5.26713 8.38014 4.88976 9.32194C4.52034 10.2439 4.65952 11.1414 5.18419 11.3439L6.86726 11.9935C6.98581 12.0392 7.15119 11.908 7.23665 11.7005L8.44996 8.75333C8.82814 7.83462 8.72875 6.90555 8.21051 6.68776Z" fill="#FF4757" style="fill:#FF4757;fill:color(display-p3 1.0000 0.2784 0.3412);fill-opacity:1;"/>
<path d="M4.10985 8.17861C3.96827 8.11913 3.76813 8.27614 3.66519 8.52613C3.52242 8.47104 3.3227 8.63122 3.22176 8.88308C3.12297 9.12963 3.1602 9.36964 3.30051 9.42378L3.75062 9.59749C3.78233 9.60972 3.82656 9.57463 3.84941 9.51912L4.17387 8.73099C4.27501 8.48532 4.24843 8.23687 4.10985 8.17861Z" fill="#FF4757" style="fill:#FF4757;fill:color(display-p3 1.0000 0.2784 0.3412);fill-opacity:1;"/>
<path d="M9.44707 11.3276C9.58864 11.387 9.78879 11.23 9.89172 10.98C10.0345 11.0351 10.2342 10.875 10.3351 10.6231C10.4339 10.3765 10.3967 10.1365 10.2564 10.0824L9.80629 9.90868C9.77458 9.89645 9.73035 9.93154 9.7075 9.98705L9.38305 10.7752C9.2819 11.0209 9.30848 11.2693 9.44707 11.3276Z" fill="#FF4757" style="fill:#FF4757;fill:color(display-p3 1.0000 0.2784 0.3412);fill-opacity:1;"/>
<path d="M9.294 1.3942C9.17243 1.32312 9.00642 1.34804 8.83479 1.48417L5.34149 4.25525L5.82426 4.25947L6.08244 4.05465L9.57378 1.55835L9.294 1.3942Z" fill="url(#paint2_linear_2114_13628)" style=""/>
<path d="M5.82422 4.26016L4.90802 15.3363C4.87233 15.7679 5.09329 16.0121 5.40154 15.8817L8.66815 14.5L10.5923 12.9737C10.8986 12.7307 11.1068 12.2258 11.0572 11.846L9.7575 1.89474C9.7445 1.79504 9.71465 1.71442 9.67271 1.65332L8.45669 2.16769L5.82422 4.26016Z" fill="url(#paint3_linear_2114_13628)" style=""/>
<path d="M13.5356 0.205049L13.2589 0.0440683L13.2586 0.0446308C13.1745 -0.00905275 13.0669 -0.0166817 12.9452 0.0347519L6.7399 2.65948C6.43165 2.78988 6.15283 3.24547 6.11714 3.67708L5.18206 14.986C5.16009 15.2516 5.23557 15.4458 5.36853 15.5258L5.36828 15.5263L5.64345 15.6866L13.5356 0.205049Z" fill="url(#paint4_linear_2114_13628)" style=""/>
<path d="M13.2116 0.173799L7.00083 2.80089C6.6923 2.93139 6.41323 3.3874 6.37751 3.81936L5.44165 15.1381C5.40593 15.5701 5.6271 15.8145 5.93563 15.684L12.1464 13.0569C12.4549 12.9264 12.734 12.4705 12.7697 12.0385L13.7055 0.71974C13.7412 0.287705 13.5201 0.0432988 13.2116 0.173799Z" fill="url(#paint5_linear_2114_13628)" style=""/>
<path d="M11.7659 6.73669L10.0198 4.80693C9.92608 4.70336 9.75427 4.77606 9.63601 4.96925L7.43255 8.56967C7.31432 8.76285 7.29443 9.00343 7.38812 9.107L9.13429 11.0368C9.22798 11.1403 9.39979 11.0677 9.51806 10.8745L11.7215 7.27405C11.8397 7.0808 11.8596 6.84026 11.7659 6.73669Z" fill="#FF4757" style="fill:#FF4757;fill:color(display-p3 1.0000 0.2784 0.3412);fill-opacity:1;"/>
<path d="M7.74677 5.39287L7.27641 4.87305C7.25117 4.84517 7.20491 4.86472 7.17306 4.91678L6.57951 5.88664C6.54766 5.93867 6.54232 6.0035 6.56756 6.03138L7.03795 6.5512C7.06319 6.57908 7.10946 6.55953 7.14131 6.50746L7.73485 5.53761C7.76667 5.48558 7.77201 5.42078 7.74677 5.39287Z" fill="#FF4757" style="fill:#FF4757;fill:color(display-p3 1.0000 0.2784 0.3412);fill-opacity:1;"/>
<path d="M11.4073 10.4513L11.8777 10.9711C11.9029 10.999 11.9492 10.9794 11.981 10.9274L12.5746 9.95752C12.6064 9.90549 12.6118 9.84066 12.5865 9.81278L12.1161 9.29297C12.0909 9.26509 12.0446 9.28467 12.0128 9.3367L11.4192 10.3066C11.3874 10.3586 11.382 10.4234 11.4073 10.4513Z" fill="#FF4757" style="fill:#FF4757;fill:color(display-p3 1.0000 0.2784 0.3412);fill-opacity:1;"/>
<path d="M7.56683 4.341L6.97824 4.58997L6.879 4.88539C6.85207 4.96555 6.79856 5.03305 6.74351 5.05632C6.64496 5.09802 6.59086 4.98379 6.64138 4.84081L7.17132 3.34133C7.21653 3.21336 7.30246 3.10694 7.39066 3.06964C7.47873 3.03237 7.55259 3.07108 7.57924 3.16846L7.89203 4.31161C7.92184 4.42062 7.84421 4.59075 7.74563 4.63244L7.73867 4.63539C7.68362 4.6587 7.63781 4.63321 7.62266 4.57085L7.56683 4.341ZM7.50024 4.06818L7.3554 3.47362L7.0982 4.23823L7.50024 4.06818Z" fill="#FF4757" style="fill:#FF4757;fill:color(display-p3 1.0000 0.2784 0.3412);fill-opacity:1;"/>
<path d="M12.4105 10.788C12.3554 10.8113 12.3019 10.8788 12.275 10.9589L12.1758 11.2543L11.5872 11.5033L11.5314 11.2735C11.5162 11.2111 11.4704 11.1856 11.4154 11.209L11.4084 11.2119C11.3098 11.2536 11.2322 11.4237 11.262 11.5327L11.5748 12.6759C11.6015 12.7733 11.6753 12.812 11.7634 12.7747C11.8516 12.7374 11.9375 12.631 11.9827 12.503L12.5127 11.0035C12.5632 10.8605 12.5091 10.7463 12.4105 10.788ZM11.7986 12.3707L11.6537 11.7761L12.0558 11.6061L11.7986 12.3707Z" fill="#FF4757" style="fill:#FF4757;fill:color(display-p3 1.0000 0.2784 0.3412);fill-opacity:1;"/>
<path d="M12.1793 8.40841C11.85 8.59853 11.5348 8.86087 11.244 9.17527L10.0005 10.4339C8.92854 11.4594 8.13411 13.2029 8.08215 14.7754L12.1464 13.0563C12.4549 12.9258 12.734 12.4698 12.7697 12.0378L13.0955 8.09668C12.81 8.12104 12.5014 8.22243 12.1793 8.40841Z" fill="url(#paint6_linear_2114_13628)" style=""/>
<path d="M11.463 8.90026L11.463 8.90029C11.0045 9.33468 10.5972 9.90351 10.2766 10.5364L10.2765 10.5366L9.61919 12.5057L9.61824 12.5078C9.56044 12.8473 9.53179 13.1857 9.53674 13.5146C9.54145 13.828 9.57651 14.1136 9.63768 14.3691L11.4836 16.205L14.8629 8.79321L13.8592 8.23369C13.856 8.2319 13.8528 8.23014 13.8497 8.22839L13.8445 8.2255L13.8445 8.22561C13.5467 8.06287 13.1944 8.0185 12.8093 8.1079L11.463 8.90026Z" fill="url(#paint7_linear_2114_13628)" style=""/>
<path d="M9.6377 14.3691C9.78591 14.9882 10.0885 15.4292 10.492 15.6522L10.4919 15.6523L11.4836 16.2051L10.6356 14.9254L9.6377 14.3691Z" fill="url(#paint8_linear_2114_13628)" style=""/>
<path d="M12.5309 16.3291L13.877 15.5369C14.3356 15.1025 14.7429 14.5335 15.0636 13.9006L15.7214 11.9318C15.7795 11.5915 15.8083 11.2523 15.8033 10.9226C15.7986 10.6092 15.7636 10.3236 15.7025 10.0682L15.0128 8.89268C14.6829 8.64236 14.2688 8.55743 13.8074 8.66455L12.4611 9.45679C12.0026 9.89125 11.5953 10.4602 11.2746 11.0931L10.6168 13.062C10.5587 13.4022 10.5299 13.7414 10.5348 14.0712C10.5396 14.3845 10.5745 14.6701 10.6356 14.9255L11.483 16.2043C11.7835 16.3728 12.1403 16.4198 12.5309 16.3291Z" fill="url(#paint9_linear_2114_13628)" style=""/>
<path d="M13.2081 15.0892C14.2726 14.453 15.118 12.7766 15.0965 11.3449C15.0749 9.91309 14.1945 9.26811 13.13 9.90426C12.0655 10.5404 11.22 12.2168 11.2416 13.6486C11.2632 15.0804 12.1436 15.7254 13.2081 15.0892ZM11.534 13.4739C11.5157 12.2593 12.2329 10.8372 13.1359 10.2976C14.0389 9.75794 14.7857 10.3051 14.804 11.5196C14.8223 12.7342 14.1052 14.1562 13.2022 14.6959C12.2992 15.2355 11.5523 14.6884 11.534 13.4739Z" fill="url(#paint10_linear_2114_13628)" style=""/>
<path d="M15.0109 11.2968C15.0324 12.7285 14.187 14.4049 13.1225 15.0411C12.6602 15.3174 12.2327 15.3517 11.8951 15.1852C12.2446 15.4036 12.7058 15.3889 13.2081 15.0888C14.2725 14.4526 15.118 12.7762 15.0964 11.3445C15.0842 10.5345 14.797 9.97664 14.3573 9.75977C14.7484 10.0042 14.9995 10.5406 15.0109 11.2968Z" fill="url(#paint11_linear_2114_13628)" style=""/>
<path d="M13.0503 10.2496C12.1473 10.7893 11.4301 12.2114 11.4485 13.4259C11.4589 14.1171 11.7054 14.5916 12.0822 14.7733C11.7541 14.5641 11.5436 14.111 11.534 13.4736C11.5157 12.2591 12.2329 10.837 13.1359 10.2973C13.525 10.0648 13.885 10.0345 14.1703 10.172C13.8731 9.98259 13.4795 9.99321 13.0503 10.2496Z" fill="url(#paint12_linear_2114_13628)" style=""/>
<path d="M12.9374 10.1063L12.9519 10.2775C12.847 10.3529 12.7429 10.4412 12.6423 10.5398L12.6037 10.3891C12.7121 10.2827 12.8243 10.1876 12.9374 10.1063ZM13.2778 9.904C13.3912 9.85063 13.5042 9.81185 13.6137 9.78872L13.5797 9.98264C13.4781 10.0041 13.3733 10.0401 13.2681 10.0896L13.2778 9.904ZM12.2882 10.7436L12.3497 10.8686C12.2564 10.9877 12.167 11.1169 12.0841 11.2525L12.0019 11.1573C12.0914 11.0112 12.1877 10.872 12.2882 10.7436ZM13.9336 9.76562C14.0359 9.77343 14.1343 9.79681 14.2262 9.83516L14.1479 10.0258C14.0626 9.9902 13.9713 9.96848 13.8763 9.96123L13.9336 9.76562ZM11.7544 11.6158L11.8542 11.6781C11.7846 11.8252 11.7219 11.9775 11.668 12.1308L11.5537 12.1035C11.6118 11.9383 11.6793 11.7742 11.7544 11.6158ZM14.482 9.99439C14.56 10.0618 14.6308 10.1437 14.6924 10.2378L14.5806 10.3995C14.5235 10.3122 14.4578 10.2362 14.3853 10.1735L14.482 9.99439ZM11.407 12.6041L11.5319 12.5953C11.4955 12.75 11.4683 12.9049 11.4508 13.0558L11.3196 13.1007C11.3384 12.938 11.3678 12.771 11.407 12.6041ZM14.8501 10.5577C14.893 10.6756 14.9264 10.8054 14.9492 10.9433L14.8188 11.0539C14.7976 10.926 14.7667 10.8057 14.7269 10.6962L14.8501 10.5577ZM11.2943 13.576L11.4274 13.4965L11.4275 13.5041C11.4296 13.6464 11.4415 13.783 11.4627 13.9101L11.3324 14.021C11.3095 13.884 11.2967 13.7368 11.2945 13.5836L11.2943 13.576ZM14.8535 11.4603L14.9866 11.3811C14.9887 11.5343 14.9804 11.6941 14.9618 11.8559L14.8305 11.9011C14.8478 11.751 14.8555 11.6027 14.8535 11.4603ZM11.5551 14.2673C11.5951 14.3765 11.6444 14.4762 11.7018 14.5635L11.5902 14.7254C11.5283 14.6312 11.4751 14.5238 11.432 14.4061L11.5551 14.2673ZM14.75 12.3615L14.8749 12.3523C14.836 12.519 14.7868 12.6874 14.7287 12.853L14.6143 12.8259C14.6682 12.6723 14.7138 12.5161 14.75 12.3615ZM11.8975 14.7887C11.97 14.851 12.05 14.9005 12.1353 14.9359L12.0571 15.1266C11.9653 15.0885 11.8791 15.0352 11.801 14.9681L11.8975 14.7887ZM14.4285 13.2788L14.5285 13.3409C14.4537 13.4993 14.3705 13.6537 14.2813 13.7997L14.1991 13.7047C14.2818 13.5691 14.359 13.4259 14.4285 13.2788ZM12.4071 14.9997C12.5023 15.0067 12.6022 14.9992 12.7039 14.9775L12.6701 15.1714C12.5604 15.1948 12.4527 15.2029 12.3501 15.1953L12.4071 14.9997ZM13.9336 14.089L13.9953 14.2138C13.8947 14.3426 13.7886 14.4621 13.6801 14.5688L13.6412 14.4183C13.7419 14.3193 13.8403 14.2085 13.9336 14.089ZM13.0156 14.8698C13.1202 14.8204 13.2276 14.7563 13.3317 14.6812L13.3464 14.8523C13.2343 14.9331 13.1186 15.0021 13.0061 15.0553L13.0156 14.8698Z" fill="url(#paint13_linear_2114_13628)" style=""/>
<path d="M11.7258 13.3593C11.742 14.4314 12.4012 14.9143 13.1983 14.438C13.9954 13.9616 14.6284 12.7064 14.6123 11.6343C14.5961 10.5622 13.9369 10.0792 13.1398 10.5556C12.3427 11.0319 11.7097 12.2872 11.7258 13.3593Z" fill="url(#paint14_linear_2114_13628)" style=""/>
<path d="M13.2224 16.0396C13.449 15.9041 13.6683 15.7342 13.877 15.5365L13.874 15.3356C13.871 15.1385 13.7498 15.0497 13.6032 15.1373L12.7878 15.6245C12.6412 15.7121 12.5248 15.943 12.5278 16.1401L12.5306 16.3288C12.7518 16.2775 12.9837 16.1823 13.2224 16.0396Z" fill="url(#paint15_linear_2114_13628)" style=""/>
<path d="M15.7214 11.9316L15.5906 11.9085C15.4622 11.8857 15.3007 12.0412 15.23 12.2558L14.8366 13.4492C14.7659 13.6637 14.8127 13.8561 14.9411 13.8788L15.0636 13.9004C15.3762 13.2833 15.6064 12.6053 15.7214 11.9316Z" fill="url(#paint16_linear_2114_13628)" style=""/>
<path d="M15.2178 10.3202C15.2937 10.4471 15.4569 10.4086 15.5823 10.2342L15.7025 10.0672C15.5752 9.53542 15.3339 9.13527 15.0128 8.8916L14.8856 9.06837C14.7602 9.24281 14.72 9.48715 14.7959 9.6141L15.2178 10.3202Z" fill="url(#paint17_linear_2114_13628)" style=""/>
<path d="M12.8093 8.10742C12.5882 8.15875 12.3563 8.25406 12.1176 8.39672C11.891 8.53211 11.6717 8.70205 11.463 8.89981L12.461 9.45612L13.8074 8.6638L12.8093 8.10742Z" fill="url(#paint18_linear_2114_13628)" style=""/>
<path d="M12.7349 9.85565L13.5502 9.36838C13.6968 9.28077 13.8132 9.04994 13.8103 8.85278L13.8074 8.66406C13.5863 8.71543 13.3544 8.81066 13.1156 8.95333C12.8891 9.08871 12.6697 9.25866 12.4611 9.45638L12.4641 9.65726C12.467 9.85442 12.5883 9.94326 12.7349 9.85565Z" fill="url(#paint19_linear_2114_13628)" style=""/>
<path d="M10.2766 10.5361C9.96387 11.1533 9.73416 11.8314 9.6192 12.5052L10.6167 13.0613L11.2745 11.0924L10.2766 10.5361Z" fill="url(#paint20_linear_2114_13628)" style=""/>
<path d="M10.7475 13.0848C10.8759 13.1075 11.0373 12.952 11.1081 12.7374L11.5014 11.544C11.5722 11.3295 11.5254 11.1371 11.397 11.1144L11.2745 11.0928C10.9619 11.7099 10.7317 12.3879 10.6167 13.0616L10.7475 13.0848Z" fill="url(#paint21_linear_2114_13628)" style=""/>
<path d="M11.4837 16.2042L11.5834 16.0486C11.7089 15.8742 11.7491 15.6299 11.6732 15.5029L11.1203 14.6715C11.0444 14.5445 10.8812 14.583 10.7557 14.7575L10.6356 14.9245C10.7629 15.4563 11.1077 15.9707 11.4837 16.2042Z" fill="url(#paint22_linear_2114_13628)" style=""/>
</g>
<defs>
<linearGradient id="paint0_linear_2114_13628" x1="5.2061" y1="8.81389" x2="5.73703" y2="7.89431" gradientUnits="userSpaceOnUse">
<stop stop-color="#43386B" style="stop-color:#43386B;stop-color:color(display-p3 0.2627 0.2196 0.4196);stop-opacity:1;"/>
<stop offset="1" stop-color="#7662BD" style="stop-color:#7662BD;stop-color:color(display-p3 0.4627 0.3843 0.7412);stop-opacity:1;"/>
</linearGradient>
<linearGradient id="paint1_linear_2114_13628" x1="7.81876" y1="17.9487" x2="0.921299" y2="9.25057" gradientUnits="userSpaceOnUse">
<stop stop-color="#D7D1EB" style="stop-color:#D7D1EB;stop-color:color(display-p3 0.8431 0.8196 0.9216);stop-opacity:1;"/>
<stop offset="1" stop-color="#F2EDFF" style="stop-color:#F2EDFF;stop-color:color(display-p3 0.9490 0.9294 1.0000);stop-opacity:1;"/>
</linearGradient>
<linearGradient id="paint2_linear_2114_13628" x1="8.6472" y1="1.92749" x2="2.71564" y2="6.25709" gradientUnits="userSpaceOnUse">
<stop stop-color="#43386B" style="stop-color:#43386B;stop-color:color(display-p3 0.2627 0.2196 0.4196);stop-opacity:1;"/>
<stop offset="1" stop-color="#43386B" stop-opacity="0" style="stop-color:none;stop-opacity:0;"/>
</linearGradient>
<linearGradient id="paint3_linear_2114_13628" x1="10.993" y1="7.14086" x2="-3.24092" y2="14.1271" gradientUnits="userSpaceOnUse">
<stop stop-color="#43386B" style="stop-color:#43386B;stop-color:color(display-p3 0.2627 0.2196 0.4196);stop-opacity:1;"/>
<stop offset="1" stop-color="#43386B" stop-opacity="0" style="stop-color:none;stop-opacity:0;"/>
</linearGradient>
<linearGradient id="paint4_linear_2114_13628" x1="8.47346" y1="5.06016" x2="9.0232" y2="4.10799" gradientUnits="userSpaceOnUse">
<stop stop-color="#43386B" style="stop-color:#43386B;stop-color:color(display-p3 0.2627 0.2196 0.4196);stop-opacity:1;"/>
<stop offset="1" stop-color="#7662BD" style="stop-color:#7662BD;stop-color:color(display-p3 0.4627 0.3843 0.7412);stop-opacity:1;"/>
</linearGradient>
<linearGradient id="paint5_linear_2114_13628" x1="8.78071" y1="17.2347" x2="3.72447" y2="5.28861" gradientUnits="userSpaceOnUse">
<stop stop-color="#D7D1EB" style="stop-color:#D7D1EB;stop-color:color(display-p3 0.8431 0.8196 0.9216);stop-opacity:1;"/>
<stop offset="1" stop-color="#F2EDFF" style="stop-color:#F2EDFF;stop-color:color(display-p3 0.9490 0.9294 1.0000);stop-opacity:1;"/>
</linearGradient>
<linearGradient id="paint6_linear_2114_13628" x1="14.6334" y1="11.5916" x2="7.44906" y2="11.3153" gradientUnits="userSpaceOnUse">
<stop stop-color="#7662BD" style="stop-color:#7662BD;stop-color:color(display-p3 0.4627 0.3843 0.7412);stop-opacity:1;"/>
<stop offset="1" stop-color="#7662BD" stop-opacity="0" style="stop-color:none;stop-opacity:0;"/>
</linearGradient>
<linearGradient id="paint7_linear_2114_13628" x1="10.3934" y1="14.2032" x2="13.434" y2="8.93678" gradientUnits="userSpaceOnUse">
<stop stop-color="#00395E" style="stop-color:#00395E;stop-color:color(display-p3 0.0000 0.2235 0.3686);stop-opacity:1;"/>
<stop offset="1" stop-color="#0072BC" style="stop-color:#0072BC;stop-color:color(display-p3 0.0000 0.4471 0.7373);stop-opacity:1;"/>
</linearGradient>
<linearGradient id="paint8_linear_2114_13628" x1="11.3827" y1="13.8633" x2="13.83" y2="9.62449" gradientUnits="userSpaceOnUse">
<stop stop-color="#C5BAEB" style="stop-color:#C5BAEB;stop-color:color(display-p3 0.7725 0.7294 0.9216);stop-opacity:1;"/>
<stop offset="1" stop-color="#D7D1EB" style="stop-color:#D7D1EB;stop-color:color(display-p3 0.8431 0.8196 0.9216);stop-opacity:1;"/>
</linearGradient>
<linearGradient id="paint9_linear_2114_13628" x1="13.169" y1="16.5199" x2="13.169" y2="8.30332" gradientUnits="userSpaceOnUse">
<stop stop-color="#0072BC" style="stop-color:#0072BC;stop-color:color(display-p3 0.0000 0.4471 0.7373);stop-opacity:1;"/>
<stop offset="1" stop-color="#2F97F7" style="stop-color:#2F97F7;stop-color:color(display-p3 0.1843 0.5922 0.9686);stop-opacity:1;"/>
</linearGradient>
<linearGradient id="paint10_linear_2114_13628" x1="11.2015" y1="13.6611" x2="17.4956" y2="9.97133" gradientUnits="userSpaceOnUse">
<stop stop-color="#00395E" style="stop-color:#00395E;stop-color:color(display-p3 0.0000 0.2235 0.3686);stop-opacity:1;"/>
<stop offset="1" stop-color="#0072BC" style="stop-color:#0072BC;stop-color:color(display-p3 0.0000 0.4471 0.7373);stop-opacity:1;"/>
</linearGradient>
<linearGradient id="paint11_linear_2114_13628" x1="13.194" y1="13.8854" x2="14.3729" y2="11.7696" gradientUnits="userSpaceOnUse">
<stop stop-color="#00395E" style="stop-color:#00395E;stop-color:color(display-p3 0.0000 0.2235 0.3686);stop-opacity:1;"/>
<stop offset="1" stop-color="#0072BC" style="stop-color:#0072BC;stop-color:color(display-p3 0.0000 0.4471 0.7373);stop-opacity:1;"/>
</linearGradient>
<linearGradient id="paint12_linear_2114_13628" x1="13.4717" y1="10.4952" x2="12.3685" y2="12.4749" gradientUnits="userSpaceOnUse">
<stop stop-color="#00395E" style="stop-color:#00395E;stop-color:color(display-p3 0.0000 0.2235 0.3686);stop-opacity:1;"/>
<stop offset="1" stop-color="#0072BC" style="stop-color:#0072BC;stop-color:color(display-p3 0.0000 0.4471 0.7373);stop-opacity:1;"/>
</linearGradient>
<linearGradient id="paint13_linear_2114_13628" x1="13.1331" y1="10.0171" x2="15.336" y2="13.7014" gradientUnits="userSpaceOnUse">
<stop stop-color="#F2EFFA" style="stop-color:#F2EFFA;stop-color:color(display-p3 0.9490 0.9373 0.9804);stop-opacity:1;"/>
<stop offset="1" stop-color="white" style="stop-color:white;stop-opacity:1;"/>
</linearGradient>
<linearGradient id="paint14_linear_2114_13628" x1="13.169" y1="14.2925" x2="13.169" y2="10.0373" gradientUnits="userSpaceOnUse">
<stop stop-color="#F2EFFA" style="stop-color:#F2EFFA;stop-color:color(display-p3 0.9490 0.9373 0.9804);stop-opacity:1;"/>
<stop offset="1" stop-color="white" style="stop-color:white;stop-opacity:1;"/>
</linearGradient>
<linearGradient id="paint15_linear_2114_13628" x1="13.2024" y1="16.0004" x2="13.2024" y2="8.24783" gradientUnits="userSpaceOnUse">
<stop stop-color="#F2EFFA" style="stop-color:#F2EFFA;stop-color:color(display-p3 0.9490 0.9373 0.9804);stop-opacity:1;"/>
<stop offset="1" stop-color="white" style="stop-color:white;stop-opacity:1;"/>
</linearGradient>
<linearGradient id="paint16_linear_2114_13628" x1="15.2625" y1="16.0006" x2="15.2625" y2="8.24806" gradientUnits="userSpaceOnUse">
<stop stop-color="#F2EFFA" style="stop-color:#F2EFFA;stop-color:color(display-p3 0.9490 0.9373 0.9804);stop-opacity:1;"/>
<stop offset="1" stop-color="white" style="stop-color:white;stop-opacity:1;"/>
</linearGradient>
<linearGradient id="paint17_linear_2114_13628" x1="15.23" y1="15.9997" x2="15.23" y2="8.24712" gradientUnits="userSpaceOnUse">
<stop stop-color="#F2EFFA" style="stop-color:#F2EFFA;stop-color:color(display-p3 0.9490 0.9373 0.9804);stop-opacity:1;"/>
<stop offset="1" stop-color="white" style="stop-color:white;stop-opacity:1;"/>
</linearGradient>
<linearGradient id="paint18_linear_2114_13628" x1="10.5366" y1="12.4167" x2="12.5871" y2="8.86507" gradientUnits="userSpaceOnUse">
<stop stop-color="#C5BAEB" style="stop-color:#C5BAEB;stop-color:color(display-p3 0.7725 0.7294 0.9216);stop-opacity:1;"/>
<stop offset="1" stop-color="#D7D1EB" style="stop-color:#D7D1EB;stop-color:color(display-p3 0.8431 0.8196 0.9216);stop-opacity:1;"/>
</linearGradient>
<linearGradient id="paint19_linear_2114_13628" x1="13.1357" y1="16.0004" x2="13.1357" y2="8.24781" gradientUnits="userSpaceOnUse">
<stop stop-color="#F2EFFA" style="stop-color:#F2EFFA;stop-color:color(display-p3 0.9490 0.9373 0.9804);stop-opacity:1;"/>
<stop offset="1" stop-color="white" style="stop-color:white;stop-opacity:1;"/>
</linearGradient>
<linearGradient id="paint20_linear_2114_13628" x1="9.89883" y1="12.7475" x2="12.1931" y2="8.77375" gradientUnits="userSpaceOnUse">
<stop stop-color="#C5BAEB" style="stop-color:#C5BAEB;stop-color:color(display-p3 0.7725 0.7294 0.9216);stop-opacity:1;"/>
<stop offset="1" stop-color="#D7D1EB" style="stop-color:#D7D1EB;stop-color:color(display-p3 0.8431 0.8196 0.9216);stop-opacity:1;"/>
</linearGradient>
<linearGradient id="paint21_linear_2114_13628" x1="11.0756" y1="16.0004" x2="11.0756" y2="8.24789" gradientUnits="userSpaceOnUse">
<stop stop-color="#F2EFFA" style="stop-color:#F2EFFA;stop-color:color(display-p3 0.9490 0.9373 0.9804);stop-opacity:1;"/>
<stop offset="1" stop-color="white" style="stop-color:white;stop-opacity:1;"/>
</linearGradient>
<linearGradient id="paint22_linear_2114_13628" x1="11.1736" y1="15.9998" x2="11.1736" y2="8.24725" gradientUnits="userSpaceOnUse">
<stop stop-color="#F2EFFA" style="stop-color:#F2EFFA;stop-color:color(display-p3 0.9490 0.9373 0.9804);stop-opacity:1;"/>
<stop offset="1" stop-color="white" style="stop-color:white;stop-opacity:1;"/>
</linearGradient>
<clipPath id="clip0_2114_13628">
<rect width="18" height="18" fill="white" style="fill:white;fill-opacity:1;"/>
</clipPath>
</defs>
</svg>
