<svg width="18" height="18" viewBox="0 0 18 18" fill="none" xmlns="http://www.w3.org/2000/svg">
<path d="M12.3696 2.69336C10.9201 2.69336 9.67881 3.72641 8.99732 4.43765C8.31854 3.72641 7.07996 2.69336 5.63044 2.69336C3.12893 2.69336 1.38464 4.43495 1.38464 6.92834C1.38464 9.67864 3.55351 11.4554 5.64937 13.1726C6.63915 13.9839 7.66409 14.8223 8.44835 15.7553C8.58086 15.9094 8.77557 15.9986 8.97839 15.9986H9.01896C9.22449 15.9986 9.41649 15.9094 9.54901 15.7553C10.336 14.8223 11.3582 13.9839 12.3507 13.1726C14.4465 11.4554 16.6154 9.67864 16.6154 6.92834C16.6154 4.43495 14.8711 2.69336 12.3696 2.69336Z" fill="#A6ADBB" style="fill:#A6ADBB;fill:color(display-p3 0.6510 0.6784 0.7333);fill-opacity:1;"/>
</svg>
