<svg width="18" height="18" viewBox="0 0 18 18" fill="none" xmlns="http://www.w3.org/2000/svg">
<path fill-rule="evenodd" clip-rule="evenodd" d="M3.09375 2.25C2.3171 2.25 1.6875 2.8796 1.6875 3.65625V13.5C1.6875 14.7426 2.69486 15.75 3.9375 15.75H15.1875C13.9449 15.75 12.9375 14.7426 12.9375 13.5V3.65625C12.9375 2.8796 12.3079 2.25 11.5312 2.25H3.09375ZM9 7.3125C8.68934 7.3125 8.4375 7.56434 8.4375 7.875C8.4375 8.18566 8.68934 8.4375 9 8.4375H10.125C10.4357 8.4375 10.6875 8.18566 10.6875 7.875C10.6875 7.56434 10.4357 7.3125 10.125 7.3125H9ZM8.4375 5.625C8.4375 5.31434 8.68934 5.0625 9 5.0625H10.125C10.4357 5.0625 10.6875 5.31434 10.6875 5.625C10.6875 5.93566 10.4357 6.1875 10.125 6.1875H9C8.68934 6.1875 8.4375 5.93566 8.4375 5.625ZM4.5 9.5625C4.18934 9.5625 3.9375 9.81434 3.9375 10.125C3.9375 10.4357 4.18934 10.6875 4.5 10.6875H10.125C10.4357 10.6875 10.6875 10.4357 10.6875 10.125C10.6875 9.81434 10.4357 9.5625 10.125 9.5625H4.5ZM3.9375 12.375C3.9375 12.0643 4.18934 11.8125 4.5 11.8125H10.125C10.4357 11.8125 10.6875 12.0643 10.6875 12.375C10.6875 12.6857 10.4357 12.9375 10.125 12.9375H4.5C4.18934 12.9375 3.9375 12.6857 3.9375 12.375ZM4.5 5.0625C4.18934 5.0625 3.9375 5.31434 3.9375 5.625V7.875C3.9375 8.18566 4.18934 8.4375 4.5 8.4375H6.75C7.06066 8.4375 7.3125 8.18566 7.3125 7.875V5.625C7.3125 5.31434 7.06066 5.0625 6.75 5.0625H4.5Z" fill="#A6ADBB" style="fill:#A6ADBB;fill:color(display-p3 0.6510 0.6784 0.7333);fill-opacity:1;"/>
<path d="M14.0625 5.0625H15.4688C15.9347 5.0625 16.3125 5.44026 16.3125 5.90625V13.5C16.3125 14.1213 15.8088 14.625 15.1875 14.625C14.5662 14.625 14.0625 14.1213 14.0625 13.5V5.0625Z" fill="#A6ADBB" style="fill:#A6ADBB;fill:color(display-p3 0.6510 0.6784 0.7333);fill-opacity:1;"/>
</svg>
