<svg width="48" height="48" viewBox="0 0 48 48" fill="none" xmlns="http://www.w3.org/2000/svg">
<g clip-path="url(#clip0_1969_43024)">
<path d="M29.9755 0.00419459L24.0338 1.03619V6.84054L29.9755 1.01173C30.3494 0.644976 30.3494 -0.0607742 29.9755 0.00419459Z" fill="url(#paint0_linear_1969_43024)" style=""/>
<path d="M38.7676 20.8877L9.23224 23.3462V40.6866L9.23627 40.6863C9.23271 42.6473 10.4141 44.5201 12.8366 45.9188C18.176 49.0014 27.5024 48.6149 33.6678 45.0552C37.0409 43.1078 38.7647 40.6144 38.7638 38.2502L38.7677 38.2499V20.8877H38.7676Z" fill="url(#paint1_linear_1969_43024)" style=""/>
<path d="M11.027 44.5775C11.525 45.0588 12.1271 45.5093 12.8366 45.919C13.5205 46.3138 14.2703 46.6513 15.0699 46.9331V26.1857H20.6621V47.9694C22.6839 48.0697 24.7908 47.9191 26.8367 47.5227V26.1857H32.5259V45.6612C32.9168 45.4706 33.298 45.2689 33.6677 45.0555C34.924 44.3302 35.9513 43.529 36.7461 42.687V21.9219H11.027V44.5775Z" fill="url(#paint2_linear_1969_43024)" style=""/>
<path d="M38.355 25.3787C38.355 26.1476 39.3731 26.4204 39.7575 25.7545C40.3302 24.7626 40.6317 23.6376 40.6317 22.4924V21.4355L39.1309 23.0842L38.355 25.3787Z" fill="url(#paint3_linear_1969_43024)" style=""/>
<path d="M33.6021 28.6726C33.6021 29.8578 34.9336 30.555 35.9077 29.8799L36.0495 29.7817C37.4935 28.781 38.355 27.1358 38.355 25.3789L35.5666 26.7824L33.6021 28.6726Z" fill="url(#paint4_linear_1969_43024)" style=""/>
<path d="M27.1947 30.7465C27.1947 32.1316 28.5455 33.1141 29.8634 32.6875L30.9335 32.3411C32.5244 31.8259 33.6021 30.3442 33.6021 28.6719L30.0418 29.1654L27.1947 30.7465Z" fill="url(#paint5_linear_1969_43024)" style=""/>
<path d="M20.2408 31.2433C20.2408 32.759 21.5269 33.9565 23.0388 33.8485L24.3969 33.7515C25.9734 33.6389 27.1948 32.327 27.1948 30.7465L23.7178 30.3906L20.2408 31.2433Z" fill="url(#paint6_linear_1969_43024)" style=""/>
<path d="M13.9428 30.0771C13.9428 31.7028 15.1025 33.097 16.7009 33.3933L17.4828 33.5381C18.9172 33.8039 20.2409 32.7029 20.2409 31.2441L16.9044 30.28L13.9428 30.0771Z" fill="url(#paint7_linear_1969_43024)" style=""/>
<path d="M9.38959 27.4473V27.9283C9.38959 29.3664 10.1568 30.6952 11.4022 31.4143L11.5136 31.4786C12.5933 32.102 13.9428 31.3228 13.9428 30.0761L11.6662 28.0735L9.38959 27.4473Z" fill="url(#paint8_linear_1969_43024)" style=""/>
<path d="M7.36841 23.8115V25.0199C7.36841 26.0671 7.63541 27.097 8.14419 28.0123C8.47728 28.6115 9.38956 28.3751 9.38956 27.6894V27.4477L8.9676 25.7794L7.36841 23.8115Z" fill="url(#paint9_linear_1969_43024)" style=""/>
<path d="M31.1308 12.3818L36.6777 14.3221L27.8698 14.8444L29.2954 12.4278L31.1308 12.3818Z" fill="url(#paint10_linear_1969_43024)" style=""/>
<path d="M17.527 13.3535L24.3569 12.0391L24.0338 15.974L17.527 13.3535Z" fill="url(#paint11_linear_1969_43024)" style=""/>
<path d="M11.8221 16.0976L17.5269 13.3535C20.0442 13.8679 22.5289 12.3409 23.207 9.86266L24.0338 6.84082L21.3661 12.6353C20.6543 14.1813 19.1881 15.2444 17.4975 15.4402L11.8221 16.0976Z" fill="url(#paint12_linear_1969_43024)" style=""/>
<path d="M8.22888 19.797L13.2477 18.173C16.9971 16.9598 20.1208 14.3238 21.9469 10.8316L24.0338 6.84082L23.7554 7.4457C21.5599 12.2144 17.0372 15.4936 11.8222 16.0977L8.22888 19.797Z" fill="url(#paint13_linear_1969_43024)" style=""/>
<path d="M7.36841 23.8117L11.5493 21.5216C16.2853 18.9274 20.0983 14.9262 22.4616 10.0709L24.0338 6.84082C20.8701 12.8908 15.4586 17.4576 8.96291 19.5594L8.22885 19.797L7.36841 23.8117Z" fill="url(#paint14_linear_1969_43024)" style=""/>
<path d="M31.1309 12.3816C28.4448 13.2527 25.5648 11.7614 24.726 9.06523L24.0338 6.84082L24.0832 7.6361C24.239 10.144 26.2533 12.1351 28.7628 12.262L31.1309 12.3816Z" fill="url(#paint15_linear_1969_43024)" style=""/>
<path d="M13.9428 30.0769C18.5363 23.0695 21.9167 15.3386 23.9423 7.20841L24.0339 6.84082L22.8492 19.8552L20.2409 31.2437L13.9428 30.0769Z" fill="url(#paint16_linear_1969_43024)" style=""/>
<path d="M27.1947 30.7469C25.7469 23.3886 24.7332 15.9516 24.1592 8.47432L24.0339 6.84082L24.2517 7.73088C26.0836 15.2169 29.2512 22.311 33.6022 28.6723L27.1947 30.7469Z" fill="url(#paint17_linear_1969_43024)" style=""/>
<path d="M38.3551 25.3786L38.1563 25.2302C31.8458 20.5173 26.9588 14.1537 24.0338 6.84082C27.3802 13.2649 32.9012 18.2905 39.6108 21.02L40.6317 21.4354L38.3551 25.3786Z" fill="url(#paint18_linear_1969_43024)" style=""/>
<path d="M9.38956 27.448L12.4988 24.7378C17.0709 20.7525 20.6033 15.7133 22.7906 10.0563L24.0338 6.84082C20.6477 13.7975 15.1843 19.5306 8.39853 23.2475L7.36841 23.8118L9.38956 27.448Z" fill="url(#paint19_linear_1969_43024)" style=""/>
<path d="M24.0338 6.84082C27.2013 12.3729 32.6601 16.2145 38.9367 17.3288L40.0383 17.5244L36.6777 14.3219L36.6588 14.3224C31.3594 14.4739 26.4458 11.562 24.0338 6.84082Z" fill="url(#paint20_linear_1969_43024)" style=""/>
<path d="M20.2408 31.2437L27.1948 30.7469C25.7469 23.3887 24.7333 15.9516 24.1592 8.47432L24.0339 6.84082L23.9083 8.21988C23.2031 15.9679 21.9778 23.6599 20.2408 31.2437Z" fill="url(#paint21_linear_1969_43024)" style=""/>
<path d="M33.6021 28.6723L38.3551 25.3787L38.1563 25.2303C31.8458 20.5173 26.9588 14.1537 24.0338 6.84082L24.2516 7.73088C26.0836 15.2169 29.2512 22.311 33.6021 28.6723Z" fill="url(#paint22_linear_1969_43024)" style=""/>
<path d="M13.9428 30.0769C18.5363 23.0695 21.9167 15.3386 23.9423 7.20841L24.0339 6.84082C21.03 14.6097 16.1789 21.5299 9.90012 27.003L9.38965 27.4479L13.9428 30.0769Z" fill="url(#paint23_linear_1969_43024)" style=""/>
<path d="M24.0338 6.84082C27.3802 13.2649 32.9012 18.2905 39.6108 21.02L40.6317 21.4354L40.0384 17.5244L38.9368 17.3288C32.6601 16.2145 27.2014 12.3729 24.0338 6.84082Z" fill="url(#paint24_linear_1969_43024)" style=""/>
<path d="M17.9282 47.6686C20.4978 48.1178 23.3443 48.1077 26.1115 47.6526L26.8367 35.1006C26.8367 35.1006 25.3513 41.3493 23.0444 43.9857C20.739 46.6205 17.9317 47.6668 17.9282 47.6686Z" fill="url(#paint25_linear_1969_43024)" style=""/>
<path d="M26.8367 47.5229C29.2856 47.0485 31.6466 46.2225 33.6678 45.0556C34.0604 44.829 34.4295 44.5946 34.7773 44.3544C34.0128 44.107 32.988 43.674 31.793 42.9157C29.1566 41.2427 26.8368 35.1006 26.8368 35.1006V47.5229H26.8367Z" fill="url(#paint26_linear_1969_43024)" style=""/>
<path d="M29.0271 42.6332C28.1443 40.4441 26.8368 35.1006 26.8368 35.1006C26.8368 35.1006 26.2677 40.5752 25.4202 43.5059C24.5728 46.4366 23.4847 47.9493 23.4847 47.9493H23.4861C26.1279 47.7843 28.7991 47.2146 31.1943 46.2518C31.1924 46.2496 29.9091 44.8207 29.0271 42.6332Z" fill="url(#paint27_linear_1969_43024)" style=""/>
<path d="M24.3566 1.00488L23.7109 1.06376V7.42441C23.7109 7.48235 23.7388 7.53766 23.7874 7.56916C23.7881 7.56963 23.7889 7.5701 23.7895 7.57057C23.9036 7.64248 24.1103 7.62954 24.2451 7.55173C24.3083 7.51516 24.3366 7.46248 24.3485 7.4306C24.354 7.41579 24.3565 7.40004 24.3565 7.3842L24.3566 1.00488Z" fill="url(#paint28_linear_1969_43024)" style=""/>
<path d="M24.2451 1.16688C24.38 1.08907 24.3946 0.97132 24.2779 0.903913C24.1611 0.836507 23.9571 0.844945 23.8223 0.922757C23.6875 1.00057 23.6729 1.11832 23.7896 1.18573C23.9064 1.25323 24.1103 1.24479 24.2451 1.16688Z" fill="#F2EFFA" style="fill:#F2EFFA;fill:color(display-p3 0.9490 0.9373 0.9804);fill-opacity:1;"/>
</g>
<defs>
<linearGradient id="paint0_linear_1969_43024" x1="27.1449" y1="6.47776" x2="23.677" y2="0.471323" gradientUnits="userSpaceOnUse">
<stop stop-color="#FFA538" style="stop-color:#FFA538;stop-color:color(display-p3 1.0000 0.6471 0.2196);stop-opacity:1;"/>
<stop offset="1" stop-color="#F7E041" style="stop-color:#F7E041;stop-color:color(display-p3 0.9686 0.8784 0.2549);stop-opacity:1;"/>
</linearGradient>
<linearGradient id="paint1_linear_1969_43024" x1="16.0551" y1="34.4438" x2="37.6657" y2="34.4438" gradientUnits="userSpaceOnUse">
<stop stop-color="#AB2C37" style="stop-color:#AB2C37;stop-color:color(display-p3 0.6706 0.1725 0.2157);stop-opacity:1;"/>
<stop offset="0.2351" stop-color="#C74651" style="stop-color:#C74651;stop-color:color(display-p3 0.7804 0.2745 0.3176);stop-opacity:1;"/>
<stop offset="0.6333" stop-color="#FF7A85" style="stop-color:#FF7A85;stop-color:color(display-p3 1.0000 0.4784 0.5216);stop-opacity:1;"/>
<stop offset="1" stop-color="#FF4757" style="stop-color:#FF4757;stop-color:color(display-p3 1.0000 0.2784 0.3412);stop-opacity:1;"/>
</linearGradient>
<linearGradient id="paint2_linear_1969_43024" x1="23.8866" y1="49.0669" x2="23.8866" y2="26.0427" gradientUnits="userSpaceOnUse">
<stop stop-color="#DFDAEF" style="stop-color:#DFDAEF;stop-color:color(display-p3 0.8745 0.8549 0.9373);stop-opacity:1;"/>
<stop offset="1" stop-color="#F2EFFA" style="stop-color:#F2EFFA;stop-color:color(display-p3 0.9490 0.9373 0.9804);stop-opacity:1;"/>
</linearGradient>
<linearGradient id="paint3_linear_1969_43024" x1="40.4338" y1="25.1409" x2="39.3573" y2="23.2766" gradientUnits="userSpaceOnUse">
<stop stop-color="#DFDAEF" style="stop-color:#DFDAEF;stop-color:color(display-p3 0.8745 0.8549 0.9373);stop-opacity:1;"/>
<stop offset="1" stop-color="#F2EFFA" style="stop-color:#F2EFFA;stop-color:color(display-p3 0.9490 0.9373 0.9804);stop-opacity:1;"/>
</linearGradient>
<linearGradient id="paint4_linear_1969_43024" x1="35.9786" y1="35.8652" x2="35.9786" y2="25.051" gradientUnits="userSpaceOnUse">
<stop stop-color="#AB2C37" style="stop-color:#AB2C37;stop-color:color(display-p3 0.6706 0.1725 0.2157);stop-opacity:1;"/>
<stop offset="0.3712" stop-color="#C73542" style="stop-color:#C73542;stop-color:color(display-p3 0.7804 0.2078 0.2588);stop-opacity:1;"/>
<stop offset="1" stop-color="#FF4757" style="stop-color:#FF4757;stop-color:color(display-p3 1.0000 0.2784 0.3412);stop-opacity:1;"/>
</linearGradient>
<linearGradient id="paint5_linear_1969_43024" x1="31.4495" y1="31.8044" x2="30.3961" y2="29.98" gradientUnits="userSpaceOnUse">
<stop stop-color="#DFDAEF" style="stop-color:#DFDAEF;stop-color:color(display-p3 0.8745 0.8549 0.9373);stop-opacity:1;"/>
<stop offset="1" stop-color="#F2EFFA" style="stop-color:#F2EFFA;stop-color:color(display-p3 0.9490 0.9373 0.9804);stop-opacity:1;"/>
</linearGradient>
<linearGradient id="paint6_linear_1969_43024" x1="23.7178" y1="36.0945" x2="23.7178" y2="24.0423" gradientUnits="userSpaceOnUse">
<stop stop-color="#AB2C37" style="stop-color:#AB2C37;stop-color:color(display-p3 0.6706 0.1725 0.2157);stop-opacity:1;"/>
<stop offset="0.3712" stop-color="#C73542" style="stop-color:#C73542;stop-color:color(display-p3 0.7804 0.2078 0.2588);stop-opacity:1;"/>
<stop offset="1" stop-color="#FF4757" style="stop-color:#FF4757;stop-color:color(display-p3 1.0000 0.2784 0.3412);stop-opacity:1;"/>
</linearGradient>
<linearGradient id="paint7_linear_1969_43024" x1="18.2862" y1="33.1814" x2="16.6042" y2="30.268" gradientUnits="userSpaceOnUse">
<stop stop-color="#DFDAEF" style="stop-color:#DFDAEF;stop-color:color(display-p3 0.8745 0.8549 0.9373);stop-opacity:1;"/>
<stop offset="1" stop-color="#F2EFFA" style="stop-color:#F2EFFA;stop-color:color(display-p3 0.9490 0.9373 0.9804);stop-opacity:1;"/>
</linearGradient>
<linearGradient id="paint8_linear_1969_43024" x1="11.6662" y1="35.8642" x2="11.6662" y2="25.05" gradientUnits="userSpaceOnUse">
<stop stop-color="#AB2C37" style="stop-color:#AB2C37;stop-color:color(display-p3 0.6706 0.1725 0.2157);stop-opacity:1;"/>
<stop offset="0.3712" stop-color="#C73542" style="stop-color:#C73542;stop-color:color(display-p3 0.7804 0.2078 0.2588);stop-opacity:1;"/>
<stop offset="1" stop-color="#FF4757" style="stop-color:#FF4757;stop-color:color(display-p3 1.0000 0.2784 0.3412);stop-opacity:1;"/>
</linearGradient>
<linearGradient id="paint9_linear_1969_43024" x1="9.06875" y1="27.7844" x2="7.58375" y2="25.2122" gradientUnits="userSpaceOnUse">
<stop stop-color="#DFDAEF" style="stop-color:#DFDAEF;stop-color:color(display-p3 0.8745 0.8549 0.9373);stop-opacity:1;"/>
<stop offset="1" stop-color="#F2EFFA" style="stop-color:#F2EFFA;stop-color:color(display-p3 0.9490 0.9373 0.9804);stop-opacity:1;"/>
</linearGradient>
<linearGradient id="paint10_linear_1969_43024" x1="33.0283" y1="15.8902" x2="31.3445" y2="12.9738" gradientUnits="userSpaceOnUse">
<stop stop-color="#AB2C37" style="stop-color:#AB2C37;stop-color:color(display-p3 0.6706 0.1725 0.2157);stop-opacity:1;"/>
<stop offset="0.3712" stop-color="#C73542" style="stop-color:#C73542;stop-color:color(display-p3 0.7804 0.2078 0.2588);stop-opacity:1;"/>
<stop offset="1" stop-color="#FF4757" style="stop-color:#FF4757;stop-color:color(display-p3 1.0000 0.2784 0.3412);stop-opacity:1;"/>
</linearGradient>
<linearGradient id="paint11_linear_1969_43024" x1="22.8925" y1="16.0747" x2="21.1484" y2="13.0538" gradientUnits="userSpaceOnUse">
<stop stop-color="#DFDAEF" style="stop-color:#DFDAEF;stop-color:color(display-p3 0.8745 0.8549 0.9373);stop-opacity:1;"/>
<stop offset="1" stop-color="#F2EFFA" style="stop-color:#F2EFFA;stop-color:color(display-p3 0.9490 0.9373 0.9804);stop-opacity:1;"/>
</linearGradient>
<linearGradient id="paint12_linear_1969_43024" x1="19.5397" y1="14.2609" x2="18.0934" y2="11.7558" gradientUnits="userSpaceOnUse">
<stop stop-color="#AB2C37" style="stop-color:#AB2C37;stop-color:color(display-p3 0.6706 0.1725 0.2157);stop-opacity:1;"/>
<stop offset="0.3712" stop-color="#C73542" style="stop-color:#C73542;stop-color:color(display-p3 0.7804 0.2078 0.2588);stop-opacity:1;"/>
<stop offset="1" stop-color="#FF4757" style="stop-color:#FF4757;stop-color:color(display-p3 1.0000 0.2784 0.3412);stop-opacity:1;"/>
</linearGradient>
<linearGradient id="paint13_linear_1969_43024" x1="17.4707" y1="15.6386" x2="15.9694" y2="13.0384" gradientUnits="userSpaceOnUse">
<stop stop-color="#DFDAEF" style="stop-color:#DFDAEF;stop-color:color(display-p3 0.8745 0.8549 0.9373);stop-opacity:1;"/>
<stop offset="1" stop-color="#F2EFFA" style="stop-color:#F2EFFA;stop-color:color(display-p3 0.9490 0.9373 0.9804);stop-opacity:1;"/>
</linearGradient>
<linearGradient id="paint14_linear_1969_43024" x1="15.7011" y1="30.5222" x2="15.7011" y2="6.48963" gradientUnits="userSpaceOnUse">
<stop stop-color="#AB2C37" style="stop-color:#AB2C37;stop-color:color(display-p3 0.6706 0.1725 0.2157);stop-opacity:1;"/>
<stop offset="0.3712" stop-color="#C73542" style="stop-color:#C73542;stop-color:color(display-p3 0.7804 0.2078 0.2588);stop-opacity:1;"/>
<stop offset="1" stop-color="#FF4757" style="stop-color:#FF4757;stop-color:color(display-p3 1.0000 0.2784 0.3412);stop-opacity:1;"/>
</linearGradient>
<linearGradient id="paint15_linear_1969_43024" x1="28.9261" y1="12.8108" x2="26.2901" y2="8.2451" gradientUnits="userSpaceOnUse">
<stop stop-color="#DFDAEF" style="stop-color:#DFDAEF;stop-color:color(display-p3 0.8745 0.8549 0.9373);stop-opacity:1;"/>
<stop offset="1" stop-color="#F2EFFA" style="stop-color:#F2EFFA;stop-color:color(display-p3 0.9490 0.9373 0.9804);stop-opacity:1;"/>
</linearGradient>
<linearGradient id="paint16_linear_1969_43024" x1="23.9954" y1="27.1314" x2="17.9203" y2="16.6092" gradientUnits="userSpaceOnUse">
<stop stop-color="#DFDAEF" style="stop-color:#DFDAEF;stop-color:color(display-p3 0.8745 0.8549 0.9373);stop-opacity:1;"/>
<stop offset="1" stop-color="#F2EFFA" style="stop-color:#F2EFFA;stop-color:color(display-p3 0.9490 0.9373 0.9804);stop-opacity:1;"/>
</linearGradient>
<linearGradient id="paint17_linear_1969_43024" x1="30.8517" y1="27.8654" x2="23.3702" y2="14.907" gradientUnits="userSpaceOnUse">
<stop stop-color="#DFDAEF" style="stop-color:#DFDAEF;stop-color:color(display-p3 0.8745 0.8549 0.9373);stop-opacity:1;"/>
<stop offset="1" stop-color="#F2EFFA" style="stop-color:#F2EFFA;stop-color:color(display-p3 0.9490 0.9373 0.9804);stop-opacity:1;"/>
</linearGradient>
<linearGradient id="paint18_linear_1969_43024" x1="37.5001" y1="23.5255" x2="30.1688" y2="10.8275" gradientUnits="userSpaceOnUse">
<stop stop-color="#DFDAEF" style="stop-color:#DFDAEF;stop-color:color(display-p3 0.8745 0.8549 0.9373);stop-opacity:1;"/>
<stop offset="1" stop-color="#F2EFFA" style="stop-color:#F2EFFA;stop-color:color(display-p3 0.9490 0.9373 0.9804);stop-opacity:1;"/>
</linearGradient>
<linearGradient id="paint19_linear_1969_43024" x1="18.882" y1="20.9037" x2="15.5585" y2="15.1472" gradientUnits="userSpaceOnUse">
<stop stop-color="#DFDAEF" style="stop-color:#DFDAEF;stop-color:color(display-p3 0.8745 0.8549 0.9373);stop-opacity:1;"/>
<stop offset="1" stop-color="#F2EFFA" style="stop-color:#F2EFFA;stop-color:color(display-p3 0.9490 0.9373 0.9804);stop-opacity:1;"/>
</linearGradient>
<linearGradient id="paint20_linear_1969_43024" x1="35.5866" y1="18.3504" x2="30.1377" y2="8.91251" gradientUnits="userSpaceOnUse">
<stop stop-color="#DFDAEF" style="stop-color:#DFDAEF;stop-color:color(display-p3 0.8745 0.8549 0.9373);stop-opacity:1;"/>
<stop offset="1" stop-color="#F2EFFA" style="stop-color:#F2EFFA;stop-color:color(display-p3 0.9490 0.9373 0.9804);stop-opacity:1;"/>
</linearGradient>
<linearGradient id="paint21_linear_1969_43024" x1="23.7178" y1="30.5222" x2="23.7178" y2="6.48963" gradientUnits="userSpaceOnUse">
<stop stop-color="#AB2C37" style="stop-color:#AB2C37;stop-color:color(display-p3 0.6706 0.1725 0.2157);stop-opacity:1;"/>
<stop offset="0.3712" stop-color="#C73542" style="stop-color:#C73542;stop-color:color(display-p3 0.7804 0.2078 0.2588);stop-opacity:1;"/>
<stop offset="1" stop-color="#FF4757" style="stop-color:#FF4757;stop-color:color(display-p3 1.0000 0.2784 0.3412);stop-opacity:1;"/>
</linearGradient>
<linearGradient id="paint22_linear_1969_43024" x1="31.1944" y1="30.5222" x2="31.1944" y2="6.48963" gradientUnits="userSpaceOnUse">
<stop stop-color="#AB2C37" style="stop-color:#AB2C37;stop-color:color(display-p3 0.6706 0.1725 0.2157);stop-opacity:1;"/>
<stop offset="0.3712" stop-color="#C73542" style="stop-color:#C73542;stop-color:color(display-p3 0.7804 0.2078 0.2588);stop-opacity:1;"/>
<stop offset="1" stop-color="#FF4757" style="stop-color:#FF4757;stop-color:color(display-p3 1.0000 0.2784 0.3412);stop-opacity:1;"/>
</linearGradient>
<linearGradient id="paint23_linear_1969_43024" x1="16.7117" y1="30.5223" x2="16.7117" y2="6.48982" gradientUnits="userSpaceOnUse">
<stop stop-color="#AB2C37" style="stop-color:#AB2C37;stop-color:color(display-p3 0.6706 0.1725 0.2157);stop-opacity:1;"/>
<stop offset="0.3712" stop-color="#C73542" style="stop-color:#C73542;stop-color:color(display-p3 0.7804 0.2078 0.2588);stop-opacity:1;"/>
<stop offset="1" stop-color="#FF4757" style="stop-color:#FF4757;stop-color:color(display-p3 1.0000 0.2784 0.3412);stop-opacity:1;"/>
</linearGradient>
<linearGradient id="paint24_linear_1969_43024" x1="32.3328" y1="30.5222" x2="32.3328" y2="6.48973" gradientUnits="userSpaceOnUse">
<stop stop-color="#AB2C37" style="stop-color:#AB2C37;stop-color:color(display-p3 0.6706 0.1725 0.2157);stop-opacity:1;"/>
<stop offset="0.3712" stop-color="#C73542" style="stop-color:#C73542;stop-color:color(display-p3 0.7804 0.2078 0.2588);stop-opacity:1;"/>
<stop offset="1" stop-color="#FF4757" style="stop-color:#FF4757;stop-color:color(display-p3 1.0000 0.2784 0.3412);stop-opacity:1;"/>
</linearGradient>
<linearGradient id="paint25_linear_1969_43024" x1="22.3825" y1="48.0236" x2="22.3825" y2="28.983" gradientUnits="userSpaceOnUse">
<stop stop-color="#C5BAEB" style="stop-color:#C5BAEB;stop-color:color(display-p3 0.7725 0.7294 0.9216);stop-opacity:1;"/>
<stop offset="1" stop-color="#F2EFFA" style="stop-color:#F2EFFA;stop-color:color(display-p3 0.9490 0.9373 0.9804);stop-opacity:1;"/>
</linearGradient>
<linearGradient id="paint26_linear_1969_43024" x1="30.807" y1="47.546" x2="30.807" y2="29.2092" gradientUnits="userSpaceOnUse">
<stop stop-color="#C5BAEB" style="stop-color:#C5BAEB;stop-color:color(display-p3 0.7725 0.7294 0.9216);stop-opacity:1;"/>
<stop offset="1" stop-color="#F2EFFA" style="stop-color:#F2EFFA;stop-color:color(display-p3 0.9490 0.9373 0.9804);stop-opacity:1;"/>
</linearGradient>
<linearGradient id="paint27_linear_1969_43024" x1="27.3396" y1="48.4752" x2="27.3396" y2="37.131" gradientUnits="userSpaceOnUse">
<stop stop-color="#43386B" style="stop-color:#43386B;stop-color:color(display-p3 0.2627 0.2196 0.4196);stop-opacity:1;"/>
<stop offset="0.8188" stop-color="#554687" style="stop-color:#554687;stop-color:color(display-p3 0.3333 0.2745 0.5294);stop-opacity:1;"/>
<stop offset="1" stop-color="#594A8E" style="stop-color:#594A8E;stop-color:color(display-p3 0.3490 0.2902 0.5569);stop-opacity:1;"/>
</linearGradient>
<linearGradient id="paint28_linear_1969_43024" x1="23.8245" y1="4.31144" x2="24.4936" y2="4.31144" gradientUnits="userSpaceOnUse">
<stop stop-color="#C5BAEB" style="stop-color:#C5BAEB;stop-color:color(display-p3 0.7725 0.7294 0.9216);stop-opacity:1;"/>
<stop offset="0.2337" stop-color="#D0C9EB" style="stop-color:#D0C9EB;stop-color:color(display-p3 0.8157 0.7882 0.9216);stop-opacity:1;"/>
<stop offset="0.4509" stop-color="#D7D1EB" style="stop-color:#D7D1EB;stop-color:color(display-p3 0.8431 0.8196 0.9216);stop-opacity:1;"/>
<stop offset="1" stop-color="#C5BAEB" style="stop-color:#C5BAEB;stop-color:color(display-p3 0.7725 0.7294 0.9216);stop-opacity:1;"/>
</linearGradient>
<clipPath id="clip0_1969_43024">
<rect width="48" height="48" fill="white" style="fill:white;fill-opacity:1;"/>
</clipPath>
</defs>
</svg>
