<svg width="18" height="18" viewBox="0 0 18 18" fill="none" xmlns="http://www.w3.org/2000/svg">
<path fill-rule="evenodd" clip-rule="evenodd" d="M9 1.6875C4.96142 1.6875 1.6875 4.96142 1.6875 9C1.6875 13.0386 4.96142 16.3125 9 16.3125C13.0386 16.3125 16.3125 13.0386 16.3125 9C16.3125 4.96142 13.0386 1.6875 9 1.6875ZM4.69648 4.55423C3.5347 5.67906 2.8125 7.25519 2.8125 9C2.8125 12.4173 5.58274 15.1875 9 15.1875C12.4173 15.1875 15.1875 12.4173 15.1875 9C15.1875 6.93346 14.1744 5.10354 12.6178 3.9798C12.3647 4.38409 12.0281 4.73124 11.6292 4.99717L10.6874 5.625L10.8109 5.87188C11.0126 6.27532 10.7192 6.75 10.2682 6.75C10.174 6.75 10.0811 6.72807 9.99682 6.68594L9.54388 6.45947C9.21904 6.29705 8.82672 6.36072 8.56992 6.61752L8.47156 6.71588C8.14206 7.04538 8.14205 7.57962 8.47156 7.90912L8.69291 8.13047C8.88559 8.32315 9.15946 8.41091 9.42824 8.36612L10.3058 8.21986C10.5481 8.17947 10.796 8.24669 10.9847 8.40394L11.9817 9.23476C12.2221 9.43515 12.3267 9.75548 12.2508 10.0592C11.964 11.2065 11.3707 12.2542 10.5345 13.0905L9.99246 13.6325C9.73566 13.8893 9.34334 13.9529 9.0185 13.7905L8.90385 13.7332C8.618 13.5903 8.43744 13.2981 8.43744 12.9785V12.162C8.43744 11.9382 8.34854 11.7236 8.19031 11.5654L7.17996 10.555C6.92315 10.2982 6.85949 9.9059 7.02191 9.58106L7.31244 9L6.08215 7.76971C5.41895 7.10652 4.97955 6.25267 4.82536 5.32753L4.69648 4.55423Z" fill="#A6ADBB" style="fill:#A6ADBB;fill:color(display-p3 0.6510 0.6784 0.7333);fill-opacity:1;"/>
</svg>
