<svg width="18" height="18" viewBox="0 0 18 18" fill="none" xmlns="http://www.w3.org/2000/svg">
<path d="M15.3507 3.46572L13.7405 2.53612L13.374 0.970717L11.7606 0.03992L11.7608 0.0406583C11.6596 -0.022623 11.5244 -0.013623 11.3805 0.078838L9.77372 1.11162L8.52016 0.491045C8.32652 0.395174 8.05061 0.554502 7.85697 0.873932L6.6034 2.942L4.99666 3.76455C4.74845 3.8916 4.52525 4.23673 4.46014 4.59406L4.03861 6.90741L2.69237 8.85886C2.48443 9.16029 2.39917 9.55942 2.48745 9.81817L3.05895 11.4932L2.48745 13.8282C2.40427 14.168 2.47525 14.4544 2.65764 14.5377L2.65732 14.5376L4.1418 15.3947L4.46017 16.7744C4.48977 16.9027 4.55232 16.9902 4.63483 17.033L4.63423 17.0334L6.25254 17.9673L15.3507 3.46572Z" fill="url(#paint0_linear_2114_8458)" style=""/>
<path d="M6.25247 17.9672L5.66146 15.884L4.14172 15.3945L4.4601 16.7742C4.4897 16.9026 4.55224 16.9901 4.63475 17.0329L4.63416 17.0332L6.25247 17.9672Z" fill="url(#paint1_linear_2114_8458)" style=""/>
<path d="M3.05893 11.4932L2.48743 13.8281C2.40425 14.168 2.47523 14.4543 2.65762 14.5376L2.65731 14.5376L4.14178 15.3946L4.68185 12.4296L3.05893 11.4932Z" fill="url(#paint2_linear_2114_8458)" style=""/>
<path d="M13.4836 1.43882L13.3741 0.970717L11.7606 0.03992L11.7608 0.0406583C11.6596 -0.022623 11.5244 -0.013623 11.3805 0.078838L9.77374 1.11162L11.3966 2.04805L13.4836 1.43882Z" fill="url(#paint3_linear_2114_8458)" style=""/>
<path d="M7.85696 0.87445L6.60339 2.94248L8.22628 3.8789L11.3966 2.04853L9.77368 1.11211L8.52011 0.491528C8.32651 0.395692 8.0506 0.55502 7.85696 0.87445Z" fill="url(#paint4_linear_2114_8458)" style=""/>
<path d="M7.85696 0.87445L6.60339 2.94248L8.22628 3.8789L11.3966 2.04853L9.77368 1.11211L8.52011 0.491528C8.32651 0.395692 8.0506 0.55502 7.85696 0.87445Z" fill="url(#paint5_linear_2114_8458)" style=""/>
<path d="M8.22625 3.87884L6.60336 2.94238L4.99662 3.76493C4.74841 3.89199 4.52521 4.23712 4.4601 4.59445L4.03857 6.9078L5.66146 7.84422L8.22625 3.87884Z" fill="url(#paint6_linear_2114_8458)" style=""/>
<path d="M8.22625 3.87884L6.60336 2.94238L4.99662 3.76493C4.74841 3.89199 4.52521 4.23712 4.4601 4.59445L4.03857 6.9078L5.66146 7.84422L8.22625 3.87884Z" fill="url(#paint7_linear_2114_8458)" style=""/>
<path d="M2.4874 9.81795L3.0589 11.493L4.68179 12.4294L5.66145 7.84365L4.03857 6.90723L2.69233 8.85868C2.48438 9.16007 2.39909 9.5592 2.4874 9.81795Z" fill="url(#paint8_linear_2114_8458)" style=""/>
<path d="M2.4874 9.81795L3.0589 11.493L4.68179 12.4294L5.66145 7.84365L4.03857 6.90723L2.69233 8.85868C2.48438 9.16007 2.39909 9.5592 2.4874 9.81795Z" fill="url(#paint9_linear_2114_8458)" style=""/>
<path d="M10.143 1.42794L11.3966 2.04851L13.0033 1.01569C13.2515 0.856154 13.4747 0.943517 13.5399 1.22568L13.9614 3.05229L15.3076 3.44924C15.5156 3.51056 15.6009 3.81121 15.5126 4.17188L14.941 6.50685L15.5126 8.18191C15.6009 8.44066 15.5156 8.83975 15.3076 9.14122L13.9614 11.0927L13.5399 13.406C13.4748 13.7633 13.2515 14.1085 13.0034 14.2355L11.3966 15.058L10.1431 17.1261C9.94941 17.4455 9.67351 17.6048 9.47987 17.509L8.2263 16.8884L6.61952 17.9212C6.37132 18.0807 6.14811 17.9934 6.083 17.7112L5.66148 15.8846L4.31524 15.4877C4.10729 15.4264 4.02204 15.1257 4.11031 14.765L4.68181 12.43L4.11031 10.755C4.02204 10.4962 4.10729 10.0972 4.31524 9.79569L5.66148 7.84423L6.083 5.53088C6.14811 5.17355 6.37135 4.82842 6.61952 4.70137L8.2263 3.87885L9.47987 1.81079C9.67347 1.49139 9.94938 1.33206 10.143 1.42794Z" fill="url(#paint10_linear_2114_8458)" style=""/>
<path d="M13.6807 7.23413C13.6807 4.38489 11.9483 3.07528 9.81143 4.30906C7.67449 5.5428 5.9422 8.85272 5.9422 11.702C5.9422 14.5512 7.67452 15.8608 9.81143 14.627C11.9484 13.3933 13.6807 10.0834 13.6807 7.23413Z" fill="url(#paint11_linear_2114_8458)" style=""/>
<path d="M9.34797 10.8711L6.89966 10.9715V12.1251L6.90177 12.1266C6.88967 12.4454 6.97194 12.7149 7.15053 12.8499L8.7423 14.0532C8.90954 14.1797 9.12874 14.1646 9.34797 14.038C9.56721 13.9115 9.78641 13.6734 9.95365 13.3539L9.34797 10.8711Z" fill="url(#paint12_linear_2114_8458)" style=""/>
<path d="M12.6991 5.27706C12.3646 5.04084 11.8223 5.33728 11.4877 5.97642L9.40817 9.94978L9.16612 9.78325L8.32121 9.29201L8.32103 9.29373C7.98462 9.09306 7.47191 9.40468 7.15054 10.0188C6.81603 10.6579 6.81603 11.381 7.15054 11.6339L8.74231 12.8372C8.77353 12.8608 8.80707 12.8779 8.84159 12.8918L8.84089 12.8932L9.68977 13.3877L13.489 5.73536C13.489 5.73536 12.7016 5.27882 12.6991 5.27706Z" fill="url(#paint13_linear_2114_8458)" style=""/>
<path d="M8.04757 12.1513L7.14954 11.6328C7.14989 11.6331 7.1502 11.6334 7.15056 11.6337L8.74233 12.8371C8.77354 12.8607 8.80708 12.8778 8.84161 12.8917L8.8409 12.8931L9.68979 13.3875L9.7312 13.3041L8.04757 12.1513Z" fill="url(#paint14_linear_2114_8458)" style=""/>
<path d="M12.6991 5.27706C12.3646 5.04084 11.8223 5.33728 11.4877 5.97642L9.4082 9.94975L10.245 10.5823L13.489 5.73532C13.489 5.73532 12.7016 5.27882 12.6991 5.27706Z" fill="url(#paint15_linear_2114_8458)" style=""/>
<path d="M10.245 13.3396C10.0258 13.4661 9.80658 13.4812 9.63934 13.3547L8.04758 12.1514C7.71306 11.8985 7.71306 11.1754 8.04758 10.5363C8.38205 9.89719 8.92444 9.58402 9.25888 9.83694L10.245 10.5824L12.3847 6.49403C12.7193 5.85489 13.2616 5.54176 13.5961 5.79467C13.9306 6.04755 13.9306 6.77064 13.5961 7.40978L10.8507 12.6554C10.6835 12.9749 10.4642 13.213 10.245 13.3396Z" fill="url(#paint16_linear_2114_8458)" style=""/>
<defs>
<linearGradient id="paint0_linear_2114_8458" x1="8.90178" y1="27.2877" x2="8.90178" y2="-2.11917" gradientUnits="userSpaceOnUse">
<stop stop-color="#FFA538" style="stop-color:#FFA538;stop-color:color(display-p3 1.0000 0.6471 0.2196);stop-opacity:1;"/>
<stop offset="1" stop-color="#FCF3B3" style="stop-color:#FCF3B3;stop-color:color(display-p3 0.9882 0.9529 0.7020);stop-opacity:1;"/>
</linearGradient>
<linearGradient id="paint1_linear_2114_8458" x1="5.19711" y1="15.6147" x2="5.19711" y2="18.2164" gradientUnits="userSpaceOnUse">
<stop stop-color="#FFA538" style="stop-color:#FFA538;stop-color:color(display-p3 1.0000 0.6471 0.2196);stop-opacity:1;"/>
<stop offset="1" stop-color="#FFA538" stop-opacity="0" style="stop-color:none;stop-opacity:0;"/>
</linearGradient>
<linearGradient id="paint2_linear_2114_8458" x1="2.84996" y1="14.7436" x2="3.93299" y2="12.8677" gradientUnits="userSpaceOnUse">
<stop stop-color="#FFA538" style="stop-color:#FFA538;stop-color:color(display-p3 1.0000 0.6471 0.2196);stop-opacity:1;"/>
<stop offset="1" stop-color="#FFA538" stop-opacity="0" style="stop-color:none;stop-opacity:0;"/>
</linearGradient>
<linearGradient id="paint3_linear_2114_8458" x1="10.3948" y1="3.41232" x2="12.5527" y2="-0.325318" gradientUnits="userSpaceOnUse">
<stop stop-color="#FFA538" style="stop-color:#FFA538;stop-color:color(display-p3 1.0000 0.6471 0.2196);stop-opacity:1;"/>
<stop offset="1" stop-color="#FFA538" stop-opacity="0" style="stop-color:none;stop-opacity:0;"/>
</linearGradient>
<linearGradient id="paint4_linear_2114_8458" x1="7.744" y1="4.67097" x2="9.92682" y2="0.8902" gradientUnits="userSpaceOnUse">
<stop stop-color="#FFA538" style="stop-color:#FFA538;stop-color:color(display-p3 1.0000 0.6471 0.2196);stop-opacity:1;"/>
<stop offset="1" stop-color="#FFA538" stop-opacity="0" style="stop-color:none;stop-opacity:0;"/>
</linearGradient>
<linearGradient id="paint5_linear_2114_8458" x1="8.49983" y1="3.36182" x2="10.6826" y2="-0.418913" gradientUnits="userSpaceOnUse">
<stop stop-color="#FCF3B3" stop-opacity="0" style="stop-color:none;stop-opacity:0;"/>
<stop offset="0.4701" stop-color="#FCF3B3" stop-opacity="0.89" style="stop-color:#FCF3B3;stop-color:color(display-p3 0.9882 0.9529 0.7020);stop-opacity:0.89;"/>
<stop offset="0.5279" stop-color="#FCF3B3" style="stop-color:#FCF3B3;stop-color:color(display-p3 0.9882 0.9529 0.7020);stop-opacity:1;"/>
<stop offset="0.5968" stop-color="#FCF3B3" stop-opacity="0.854" style="stop-color:#FCF3B3;stop-color:color(display-p3 0.9882 0.9529 0.7020);stop-opacity:0.854;"/>
<stop offset="1" stop-color="#FCF3B3" stop-opacity="0" style="stop-color:none;stop-opacity:0;"/>
</linearGradient>
<linearGradient id="paint6_linear_2114_8458" x1="3.15165" y1="9.6851" x2="6.66007" y2="3.60835" gradientUnits="userSpaceOnUse">
<stop stop-color="#FFA538" style="stop-color:#FFA538;stop-color:color(display-p3 1.0000 0.6471 0.2196);stop-opacity:1;"/>
<stop offset="1" stop-color="#FFA538" stop-opacity="0" style="stop-color:none;stop-opacity:0;"/>
</linearGradient>
<linearGradient id="paint7_linear_2114_8458" x1="4.75446" y1="6.90899" x2="7.05484" y2="2.92459" gradientUnits="userSpaceOnUse">
<stop stop-color="#FCF3B3" stop-opacity="0" style="stop-color:none;stop-opacity:0;"/>
<stop offset="0.4701" stop-color="#FCF3B3" stop-opacity="0.89" style="stop-color:#FCF3B3;stop-color:color(display-p3 0.9882 0.9529 0.7020);stop-opacity:0.89;"/>
<stop offset="0.5279" stop-color="#FCF3B3" style="stop-color:#FCF3B3;stop-color:color(display-p3 0.9882 0.9529 0.7020);stop-opacity:1;"/>
<stop offset="0.5968" stop-color="#FCF3B3" stop-opacity="0.854" style="stop-color:#FCF3B3;stop-color:color(display-p3 0.9882 0.9529 0.7020);stop-opacity:0.854;"/>
<stop offset="1" stop-color="#FCF3B3" stop-opacity="0" style="stop-color:none;stop-opacity:0;"/>
</linearGradient>
<linearGradient id="paint8_linear_2114_8458" x1="3.2517" y1="11.3938" x2="5.05715" y2="8.26672" gradientUnits="userSpaceOnUse">
<stop stop-color="#FFA538" style="stop-color:#FFA538;stop-color:color(display-p3 1.0000 0.6471 0.2196);stop-opacity:1;"/>
<stop offset="1" stop-color="#FFA538" stop-opacity="0" style="stop-color:none;stop-opacity:0;"/>
</linearGradient>
<linearGradient id="paint9_linear_2114_8458" x1="2.93016" y1="11.9508" x2="4.73564" y2="8.82363" gradientUnits="userSpaceOnUse">
<stop stop-color="#FCF3B3" stop-opacity="0" style="stop-color:none;stop-opacity:0;"/>
<stop offset="0.4701" stop-color="#FCF3B3" stop-opacity="0.89" style="stop-color:#FCF3B3;stop-color:color(display-p3 0.9882 0.9529 0.7020);stop-opacity:0.89;"/>
<stop offset="0.5279" stop-color="#FCF3B3" style="stop-color:#FCF3B3;stop-color:color(display-p3 0.9882 0.9529 0.7020);stop-opacity:1;"/>
<stop offset="0.5968" stop-color="#FCF3B3" stop-opacity="0.854" style="stop-color:#FCF3B3;stop-color:color(display-p3 0.9882 0.9529 0.7020);stop-opacity:0.854;"/>
<stop offset="1" stop-color="#FCF3B3" stop-opacity="0" style="stop-color:none;stop-opacity:0;"/>
</linearGradient>
<linearGradient id="paint10_linear_2114_8458" x1="9.81141" y1="19.1298" x2="2.40635" y2="6.30423" gradientUnits="userSpaceOnUse">
<stop stop-color="#FFA538" style="stop-color:#FFA538;stop-color:color(display-p3 1.0000 0.6471 0.2196);stop-opacity:1;"/>
<stop offset="0.2063" stop-color="#FBC33D" style="stop-color:#FBC33D;stop-color:color(display-p3 0.9843 0.7647 0.2392);stop-opacity:1;"/>
<stop offset="0.3959" stop-color="#F8D840" style="stop-color:#F8D840;stop-color:color(display-p3 0.9725 0.8471 0.2510);stop-opacity:1;"/>
<stop offset="0.5206" stop-color="#F7E041" style="stop-color:#F7E041;stop-color:color(display-p3 0.9686 0.8784 0.2549);stop-opacity:1;"/>
<stop offset="1" stop-color="#FAEC8D" style="stop-color:#FAEC8D;stop-color:color(display-p3 0.9804 0.9255 0.5529);stop-opacity:1;"/>
</linearGradient>
<linearGradient id="paint11_linear_2114_8458" x1="9.81143" y1="17.4167" x2="9.81143" y2="-4.0543" gradientUnits="userSpaceOnUse">
<stop stop-color="#FFA538" style="stop-color:#FFA538;stop-color:color(display-p3 1.0000 0.6471 0.2196);stop-opacity:1;"/>
<stop offset="1" stop-color="#F7E041" style="stop-color:#F7E041;stop-color:color(display-p3 0.9686 0.8784 0.2549);stop-opacity:1;"/>
</linearGradient>
<linearGradient id="paint12_linear_2114_8458" x1="8.42667" y1="9.61904" x2="8.42667" y2="14.7183" gradientUnits="userSpaceOnUse">
<stop offset="0.0319" stop-color="#8B451C" style="stop-color:#8B451C;stop-color:color(display-p3 0.5451 0.2706 0.1098);stop-opacity:1;"/>
<stop offset="1" stop-color="#8B451C" stop-opacity="0" style="stop-color:none;stop-opacity:0;"/>
</linearGradient>
<linearGradient id="paint13_linear_2114_8458" x1="8.22221" y1="12.041" x2="9.1388" y2="10.4663" gradientUnits="userSpaceOnUse">
<stop offset="0.0319" stop-color="#A996EB" style="stop-color:#A996EB;stop-color:color(display-p3 0.6627 0.5882 0.9216);stop-opacity:1;"/>
<stop offset="0.6819" stop-color="#D7CFF3" style="stop-color:#D7CFF3;stop-color:color(display-p3 0.8431 0.8118 0.9529);stop-opacity:1;"/>
<stop offset="1" stop-color="#E9E5F6" style="stop-color:#E9E5F6;stop-color:color(display-p3 0.9137 0.8980 0.9647);stop-opacity:1;"/>
</linearGradient>
<linearGradient id="paint14_linear_2114_8458" x1="9.00779" y1="12.936" x2="7.71777" y2="11.8732" gradientUnits="userSpaceOnUse">
<stop offset="0.0319" stop-color="#7662BD" style="stop-color:#7662BD;stop-color:color(display-p3 0.4627 0.3843 0.7412);stop-opacity:1;"/>
<stop offset="1" stop-color="#7662BD" stop-opacity="0" style="stop-color:none;stop-opacity:0;"/>
</linearGradient>
<linearGradient id="paint15_linear_2114_8458" x1="10.012" y1="10.1078" x2="11.9496" y2="6.77914" gradientUnits="userSpaceOnUse">
<stop offset="0.0319" stop-color="#A996EB" style="stop-color:#A996EB;stop-color:color(display-p3 0.6627 0.5882 0.9216);stop-opacity:1;"/>
<stop offset="0.6819" stop-color="#D7CFF3" style="stop-color:#D7CFF3;stop-color:color(display-p3 0.8431 0.8118 0.9529);stop-opacity:1;"/>
<stop offset="1" stop-color="#E9E5F6" style="stop-color:#E9E5F6;stop-color:color(display-p3 0.9137 0.8980 0.9647);stop-opacity:1;"/>
</linearGradient>
<linearGradient id="paint16_linear_2114_8458" x1="10.8219" y1="13.251" x2="10.8219" y2="7.42107" gradientUnits="userSpaceOnUse">
<stop stop-color="#DFDAEF" style="stop-color:#DFDAEF;stop-color:color(display-p3 0.8745 0.8549 0.9373);stop-opacity:1;"/>
<stop offset="1" stop-color="white" style="stop-color:white;stop-opacity:1;"/>
</linearGradient>
</defs>
</svg>
