<svg width="18" height="18" viewBox="0 0 18 18" fill="none" xmlns="http://www.w3.org/2000/svg">
<path d="M6.04411 5.16155L4.87178 6.30593C4.76954 6.40573 4.71191 6.54254 4.71191 6.68539V11.9041C4.71191 12.0433 4.76669 12.177 4.86441 12.2762L5.98 13.4088C6.07966 13.51 6.21576 13.567 6.3578 13.567H11.5855C11.7239 13.567 11.8568 13.5129 11.9559 13.4162L13.1282 12.2718C13.2305 12.172 13.2881 12.0352 13.2881 11.8923V6.67364C13.2881 6.53439 13.2333 6.40073 13.1356 6.30151L12.02 5.16891C11.9203 5.06772 11.7842 5.01074 11.6422 5.01074H6.41455C6.2761 5.01071 6.14316 5.06484 6.04411 5.16155Z" fill="#A6ADBB" style="fill:#A6ADBB;fill:color(display-p3 0.6510 0.6784 0.7333);fill-opacity:1;"/>
<path d="M0.639771 3.31303L4.05651 5.48576L5.22687 4.34332L3.0954 0.916016L0.639771 3.31303Z" fill="#A6ADBB" style="fill:#A6ADBB;fill:color(display-p3 0.6510 0.6784 0.7333);fill-opacity:1;"/>
<path d="M17.3711 3.19297L15.0335 0.911133L12.8411 4.35521L13.9432 5.47412L17.3711 3.19297Z" fill="#A6ADBB" style="fill:#A6ADBB;fill:color(display-p3 0.6510 0.6784 0.7333);fill-opacity:1;"/>
<path d="M17.7081 4.35742L14.4443 6.52937V12.0404L17.7081 14.1159V4.35742Z" fill="#A6ADBB" style="fill:#A6ADBB;fill:color(display-p3 0.6510 0.6784 0.7333);fill-opacity:1;"/>
<path d="M11.789 3.85459L13.8747 0.578125H4.24683L6.28448 3.85459H11.789Z" fill="#A6ADBB" style="fill:#A6ADBB;fill:color(display-p3 0.6510 0.6784 0.7333);fill-opacity:1;"/>
<path d="M0.291748 14.2204L3.55555 12.0485V6.53736L0.291748 4.46191V14.2204Z" fill="#A6ADBB" style="fill:#A6ADBB;fill:color(display-p3 0.6510 0.6784 0.7333);fill-opacity:1;"/>
<path d="M17.3601 15.2645L13.9434 13.0918L12.7731 14.2342L14.9045 17.6616L17.3601 15.2645Z" fill="#A6ADBB" style="fill:#A6ADBB;fill:color(display-p3 0.6510 0.6784 0.7333);fill-opacity:1;"/>
<path d="M11.7155 14.7236H6.21098L4.12524 18.0001H13.7531L11.7155 14.7236Z" fill="#A6ADBB" style="fill:#A6ADBB;fill:color(display-p3 0.6510 0.6784 0.7333);fill-opacity:1;"/>
<path d="M5.15884 14.2234L4.0567 13.1045L0.628784 15.3856L2.96641 17.6674L5.15884 14.2234Z" fill="#A6ADBB" style="fill:#A6ADBB;fill:color(display-p3 0.6510 0.6784 0.7333);fill-opacity:1;"/>
</svg>
