<svg width="18" height="18" viewBox="0 0 18 18" fill="none" xmlns="http://www.w3.org/2000/svg">
<g clip-path="url(#clip0_5994_5595)">
<path fill-rule="evenodd" clip-rule="evenodd" d="M4.1454 11.6726C4.37354 11.9674 4.31947 12.3914 4.02464 12.6195C3.49135 13.0322 3.15002 13.6763 3.15002 14.4004C3.15002 14.5416 3.16296 14.6794 3.18761 14.8128C3.32099 14.8375 3.45879 14.8504 3.60002 14.8504C4.32414 14.8504 4.96823 14.5091 5.38088 13.9758C5.60902 13.6809 6.03298 13.6269 6.32781 13.855C6.62264 14.0832 6.67671 14.5071 6.44857 14.8019C5.79125 15.6514 4.75959 16.2004 3.60002 16.2004C3.18605 16.2004 2.78703 16.1302 2.41508 16.0006C2.22052 15.9328 2.06758 15.7799 1.99978 15.5853C1.87017 15.2134 1.80002 14.8144 1.80002 14.4004C1.80002 13.2408 2.349 12.2092 3.19847 11.5519C3.49331 11.3237 3.91726 11.3778 4.1454 11.6726Z" fill="#A6ADBB" style="fill:#A6ADBB;fill:color(display-p3 0.6510 0.6784 0.7333);fill-opacity:1;"/>
<path fill-rule="evenodd" clip-rule="evenodd" d="M5.17715 10.8004C5.76645 11.5543 6.44616 12.234 7.20002 12.8233V16.4254C7.20002 16.7982 7.50223 17.1004 7.87502 17.1004C10.3603 17.1004 12.375 15.0857 12.375 12.6004C12.375 12.1591 12.3113 11.7319 12.1924 11.3279C15.162 9.2071 17.1 5.73025 17.1 1.80039C17.1 1.72149 17.0992 1.64277 17.0977 1.56422C17.0905 1.20191 16.7985 0.909912 16.4362 0.90273C16.3577 0.901173 16.2789 0.900391 16.2 0.900391C12.2702 0.900391 8.79331 2.83837 6.67251 5.80801C6.26849 5.68909 5.84127 5.62539 5.40002 5.62539C2.91474 5.62539 0.900024 7.64011 0.900024 10.1254C0.900024 10.4982 1.20223 10.8004 1.57502 10.8004H5.17715ZM11.7 8.10039C12.6941 8.10039 13.5 7.2945 13.5 6.30039C13.5 5.30628 12.6941 4.50039 11.7 4.50039C10.7059 4.50039 9.90002 5.30628 9.90002 6.30039C9.90002 7.2945 10.7059 8.10039 11.7 8.10039Z" fill="#A6ADBB" style="fill:#A6ADBB;fill:color(display-p3 0.6510 0.6784 0.7333);fill-opacity:1;"/>
</g>
<defs>
<clipPath id="clip0_5994_5595">
<rect width="18" height="18" fill="white" style="fill:white;fill-opacity:1;"/>
</clipPath>
</defs>
</svg>
