<svg width="18" height="18" viewBox="0 0 18 18" fill="none" xmlns="http://www.w3.org/2000/svg">
<path d="M6.99731 4.43945H11.0289V5.56726H6.99731V4.43945Z" fill="#A6ADBB" style="fill:#A6ADBB;fill:color(display-p3 0.6510 0.6784 0.7333);fill-opacity:1;"/>
<path d="M9.01309 13.4739C12.4177 13.4739 15.1876 10.7069 15.1876 7.30595V1.80078H2.83862V7.30595C2.83862 10.7069 5.60849 13.4739 9.01309 13.4739ZM5.94496 3.91334C5.94496 3.62275 6.18054 3.38717 6.47113 3.38717H11.555C11.8456 3.38717 12.0812 3.62275 12.0812 3.91334V6.0935C12.0812 6.38409 11.8456 6.61968 11.555 6.61968H6.47113C6.18054 6.61968 5.94496 6.38409 5.94496 6.0935V3.91334ZM4.48373 6.50038C4.77432 6.50038 5.00991 6.73596 5.00991 7.02655C5.00991 9.23148 6.80571 11.0253 9.01309 11.0253C11.2205 11.0253 13.0163 9.23148 13.0163 7.02655C13.0163 6.73596 13.2519 6.50038 13.5425 6.50038C13.833 6.50038 14.0686 6.73596 14.0686 7.02655C14.0686 9.81175 11.8007 12.0777 9.01309 12.0777C6.22544 12.0777 3.95755 9.81175 3.95755 7.02655C3.95755 6.73596 4.19314 6.50038 4.48373 6.50038Z" fill="#A6ADBB" style="fill:#A6ADBB;fill:color(display-p3 0.6510 0.6784 0.7333);fill-opacity:1;"/>
<path d="M16.2399 1.80082V7.30599C16.2399 11.2872 12.998 14.5262 9.01308 14.5262C5.02821 14.5262 1.78626 11.2872 1.78626 7.30599V1.80082H0.506111C0.226572 1.80082 0 2.02739 0 2.30689V7.22029C0.0261685 12.1788 4.0458 16.1984 9.00428 16.1984H9.02185C13.9803 16.1984 18 12.1788 18 7.22029V2.30689C18 2.02739 17.7734 1.80078 17.4939 1.80078L16.2399 1.80082Z" fill="#A6ADBB" style="fill:#A6ADBB;fill:color(display-p3 0.6510 0.6784 0.7333);fill-opacity:1;"/>
</svg>
