<svg width="18" height="18" viewBox="0 0 18 18" fill="none" xmlns="http://www.w3.org/2000/svg">
<g clip-path="url(#clip0_5994_6381)">
<path d="M12.7408 14.3102C14.3859 13.1362 15.398 11.1633 15.3872 9.13007C15.4379 6.22891 13.1804 3.47314 10.3331 2.88412L9.45641 4.4026C9.36225 4.56566 9.18829 4.66612 9 4.66612C8.8117 4.66612 8.63771 4.56566 8.54358 4.4026L7.65765 2.86816C4.84289 3.46509 2.56118 6.22462 2.61283 9.13007C2.54112 12.5508 5.54874 15.5835 9 15.5172C10.3628 15.5172 11.6597 15.0939 12.7408 14.3102ZM7.79598 12.6473C7.48707 12.9563 7.07629 13.1264 6.63937 13.1264C6.20241 13.1264 5.79164 12.9563 5.48272 12.6473C5.17377 12.3384 5.0036 11.9276 5.0036 11.4907C5.0036 11.0537 5.17377 10.643 5.48272 10.334C5.79164 10.0251 6.20241 9.85493 6.63937 9.85493C6.90278 9.85493 7.1565 9.91719 7.38429 10.034L8.28828 9.13003L7.39501 8.23677C7.16806 8.34818 6.9206 8.40437 6.67299 8.40437C6.2541 8.40437 5.83524 8.24495 5.51635 7.92609C4.87859 7.2883 4.87859 6.25055 5.51635 5.61279C6.15407 4.97504 7.19185 4.97504 7.82964 5.61279C8.33704 6.1202 8.44031 6.88054 8.14035 7.49146L9.03362 8.38473L9.89267 7.52568C9.78315 7.30365 9.72486 7.05791 9.72486 6.8031C9.72486 6.36615 9.89502 5.95541 10.204 5.64645C10.5129 5.33754 10.9237 5.16737 11.3606 5.16737C11.7975 5.16737 12.2083 5.33754 12.5172 5.64649C12.8262 5.95541 12.9964 6.36618 12.9964 6.8031C12.9964 7.24002 12.8262 7.6508 12.5172 7.95975C12.2083 8.26867 11.7975 8.43883 11.3606 8.43883C11.1058 8.43883 10.86 8.38058 10.638 8.27102L9.77896 9.13007L10.6604 10.0115C10.8765 9.90904 11.1144 9.85496 11.3606 9.85496C11.7975 9.85496 12.2083 10.0251 12.5172 10.3341C12.8262 10.643 12.9964 11.0538 12.9964 11.4907C12.9964 11.9276 12.8262 12.3384 12.5172 12.6473C12.2083 12.9563 11.7975 13.1264 11.3606 13.1264C10.9237 13.1264 10.5129 12.9563 10.204 12.6473C9.89502 12.3384 9.72486 11.9276 9.72486 11.4907C9.72486 11.2272 9.78712 10.9735 9.90394 10.7457L9.03362 9.87538L8.11853 10.7905C8.22099 11.0066 8.27506 11.2445 8.27506 11.4907C8.27506 11.9276 8.10494 12.3384 7.79598 12.6473Z" fill="#A6ADBB" style="fill:#A6ADBB;fill:color(display-p3 0.6510 0.6784 0.7333);fill-opacity:1;"/>
<path d="M14.6174 4.28248C15.1547 4.90123 15.5814 5.59685 15.8867 6.33872L17.271 5.88894C16.9584 5.10052 16.5294 4.35366 15.9894 3.66534C15.5874 3.15292 15.1309 2.68722 14.632 2.27539L13.7759 3.45372C14.0758 3.70652 14.3575 3.98326 14.6174 4.28248Z" fill="#A6ADBB" style="fill:#A6ADBB;fill:color(display-p3 0.6510 0.6784 0.7333);fill-opacity:1;"/>
<path d="M6.63942 10.9092C6.48405 10.9092 6.33799 10.9697 6.22811 11.0796C6.11824 11.1894 6.05774 11.3355 6.05774 11.4909C6.05774 11.6462 6.11824 11.7923 6.22811 11.9022C6.33799 12.012 6.48405 12.0725 6.63942 12.0725C6.79476 12.0725 6.94082 12.012 7.05069 11.9022C7.16056 11.7923 7.22106 11.6462 7.22106 11.4909C7.22106 11.3355 7.16056 11.1894 7.05069 11.0796C6.94082 10.9697 6.79476 10.9092 6.63942 10.9092Z" fill="#A6ADBB" style="fill:#A6ADBB;fill:color(display-p3 0.6510 0.6784 0.7333);fill-opacity:1;"/>
<path d="M10.8815 1.9349C11.6035 2.13051 12.2924 2.43384 12.9248 2.832L13.7816 1.65276C13.1129 1.22006 12.389 0.876179 11.6317 0.635742L10.8815 1.9349Z" fill="#A6ADBB" style="fill:#A6ADBB;fill:color(display-p3 0.6510 0.6784 0.7333);fill-opacity:1;"/>
<path d="M11.3606 12.0725C11.516 12.0725 11.6621 12.012 11.7719 11.9021C11.8818 11.7923 11.9423 11.6462 11.9423 11.4908C11.9423 11.3355 11.8818 11.1894 11.7719 11.0796C11.6621 10.9697 11.516 10.9092 11.3606 10.9092C11.2053 10.9092 11.0592 10.9697 10.9494 11.0796C10.8395 11.1894 10.779 11.3355 10.779 11.4909C10.779 11.6462 10.8395 11.7923 10.9494 11.9022C11.0592 12.012 11.2053 12.0725 11.3606 12.0725Z" fill="#A6ADBB" style="fill:#A6ADBB;fill:color(display-p3 0.6510 0.6784 0.7333);fill-opacity:1;"/>
<path d="M11.3606 7.38497C11.516 7.38497 11.6621 7.32446 11.7719 7.21459C11.8818 7.10476 11.9423 6.9587 11.9423 6.80332C11.9423 6.64795 11.8818 6.50189 11.7719 6.39206C11.6621 6.28218 11.516 6.22168 11.3606 6.22168C11.2053 6.22168 11.0592 6.28218 10.9494 6.39206C10.8395 6.50193 10.779 6.64799 10.779 6.80336C10.779 6.95873 10.8395 7.10479 10.9494 7.21463C11.0592 7.32443 11.2053 7.38497 11.3606 7.38497Z" fill="#A6ADBB" style="fill:#A6ADBB;fill:color(display-p3 0.6510 0.6784 0.7333);fill-opacity:1;"/>
<path d="M7.0843 6.35857C6.97088 6.24515 6.82194 6.18848 6.673 6.18848C6.52405 6.18848 6.37508 6.24515 6.26169 6.35857C6.03492 6.58534 6.03492 6.95438 6.26169 7.18114C6.48849 7.40788 6.8575 7.40795 7.0843 7.18114C7.31107 6.95434 7.31107 6.58534 7.0843 6.35857Z" fill="#A6ADBB" style="fill:#A6ADBB;fill:color(display-p3 0.6510 0.6784 0.7333);fill-opacity:1;"/>
<path d="M4.21014 16.6198C5.48127 17.4357 6.94009 17.9113 8.47297 18.0002V16.5532C7.24964 16.4684 6.08484 16.0885 5.06139 15.4482L4.21014 16.6198Z" fill="#A6ADBB" style="fill:#A6ADBB;fill:color(display-p3 0.6510 0.6784 0.7333);fill-opacity:1;"/>
<path d="M15.9005 11.9268C15.5313 12.8393 14.9794 13.6769 14.2629 14.3934C14.1107 14.5455 13.9528 14.6898 13.7902 14.827L14.6417 15.999C14.8639 15.8159 15.0785 15.6213 15.2846 15.4151C16.1651 14.5346 16.8375 13.5011 17.2781 12.3744L15.9005 11.9268Z" fill="#A6ADBB" style="fill:#A6ADBB;fill:color(display-p3 0.6510 0.6784 0.7333);fill-opacity:1;"/>
<path d="M9.52704 16.5532V18.0002C11.0599 17.9113 12.5187 17.4357 13.7898 16.6198L12.9386 15.4482C11.9152 16.0885 10.7504 16.4684 9.52704 16.5532Z" fill="#A6ADBB" style="fill:#A6ADBB;fill:color(display-p3 0.6510 0.6784 0.7333);fill-opacity:1;"/>
<path d="M10.3643 0H7.64098C7.45887 0 7.34486 0.196974 7.43558 0.354876L8.99995 3.07779L10.5694 0.355157C10.6605 0.197255 10.5465 0 10.3643 0Z" fill="#A6ADBB" style="fill:#A6ADBB;fill:color(display-p3 0.6510 0.6784 0.7333);fill-opacity:1;"/>
<path d="M3.35825 15.999L4.20974 14.827C4.04713 14.6898 3.88919 14.5456 3.73705 14.3934C3.02048 13.6768 2.4686 12.8393 2.09939 11.9268L0.721802 12.3744C1.16237 13.5011 1.83478 14.5346 2.71529 15.4151C2.92147 15.6213 3.13608 15.8159 3.35825 15.999Z" fill="#A6ADBB" style="fill:#A6ADBB;fill:color(display-p3 0.6510 0.6784 0.7333);fill-opacity:1;"/>
<path d="M17.8856 9.13049C17.8856 8.36459 17.7885 7.61418 17.5991 6.89062L16.2178 7.33942C16.3652 7.92205 16.4413 8.5233 16.4413 9.13049C16.4413 9.74305 16.3676 10.3442 16.2251 10.9239L17.6022 11.3713C17.7888 10.6485 17.8856 9.89705 17.8856 9.13049Z" fill="#A6ADBB" style="fill:#A6ADBB;fill:color(display-p3 0.6510 0.6784 0.7333);fill-opacity:1;"/>
<path d="M2.01256 3.66845C1.47259 4.35642 1.0434 5.10243 0.730652 5.88955L2.11519 6.3394C2.42049 5.59915 2.84655 4.90384 3.38291 4.28379C3.6425 3.98369 3.92369 3.70594 4.22281 3.45205L3.37001 2.27832C2.87122 2.69036 2.4147 3.15613 2.01256 3.66845Z" fill="#A6ADBB" style="fill:#A6ADBB;fill:color(display-p3 0.6510 0.6784 0.7333);fill-opacity:1;"/>
<path d="M7.11001 1.9199L6.3686 0.635742C5.61191 0.877023 4.88852 1.22157 4.22009 1.65473L5.07148 2.82655C5.70298 2.42523 6.39018 2.11867 7.11001 1.9199Z" fill="#A6ADBB" style="fill:#A6ADBB;fill:color(display-p3 0.6510 0.6784 0.7333);fill-opacity:1;"/>
<path d="M0.11438 9.13017C0.11438 9.89674 0.211145 10.6482 0.397789 11.3711L1.77495 10.9236C1.63237 10.3438 1.55876 9.74274 1.55876 9.13017C1.55876 8.52376 1.63522 7.92258 1.78321 7.33946L0.401829 6.89062C0.211777 7.61429 0.11438 8.36459 0.11438 9.13017Z" fill="#A6ADBB" style="fill:#A6ADBB;fill:color(display-p3 0.6510 0.6784 0.7333);fill-opacity:1;"/>
</g>
<defs>
<clipPath id="clip0_5994_6381">
<rect width="18" height="18" fill="white" style="fill:white;fill-opacity:1;"/>
</clipPath>
</defs>
</svg>
