<svg width="18" height="18" viewBox="0 0 18 18" fill="none" xmlns="http://www.w3.org/2000/svg">
<g clip-path="url(#clip0_5994_2910)">
<path d="M6.24664 7.72168V15.713H11.684V7.72168H6.24664ZM10.4599 10.5584C10.1285 11.0433 9.26797 12.5218 9.26797 13.5241C9.26797 13.8107 9.03562 14.0431 8.74896 14.0431C8.46233 14.0431 8.22998 13.8107 8.22998 13.5241C8.22998 12.5922 8.7189 11.5078 9.11374 10.784H7.88218C7.59555 10.784 7.36321 10.5517 7.36321 10.2651C7.36321 9.97843 7.59555 9.74608 7.88218 9.74608H10.0318C10.2244 9.74608 10.4011 9.85271 10.4909 10.0231C10.5807 10.1934 10.5688 10.3995 10.4599 10.5584Z" fill="#A6ADBB" style="fill:#A6ADBB;fill:color(display-p3 0.6510 0.6784 0.7333);fill-opacity:1;"/>
<path d="M0.501926 17.9925H17.498C17.7752 17.9925 18 17.7678 18 17.4906V16.752H0V17.4906C0 17.7678 0.224719 17.9925 0.501926 17.9925Z" fill="#A6ADBB" style="fill:#A6ADBB;fill:color(display-p3 0.6510 0.6784 0.7333);fill-opacity:1;"/>
<path d="M12.697 2.31026C12.0257 0.946969 10.6227 0.00878906 9.00049 0.00878906C7.37824 0.00878906 5.97526 0.946969 5.30402 2.31026H0.501926C0.224719 2.31026 0 2.53498 0 2.81218V4.20043H18V2.81218C18 2.53498 17.7753 2.31026 17.4981 2.31026H12.697Z" fill="#A6ADBB" style="fill:#A6ADBB;fill:color(display-p3 0.6510 0.6784 0.7333);fill-opacity:1;"/>
<path d="M5.20871 7.72168H0V15.713H5.20871V7.72168ZM4.07215 10.5584C3.74073 11.0433 2.88018 12.5218 2.88018 13.5241C2.88018 13.8107 2.64783 14.0431 2.3612 14.0431C2.07457 14.0431 1.84222 13.8107 1.84222 13.5241C1.84222 12.5922 2.33114 11.5078 2.72598 10.784H1.49442C1.20779 10.784 0.975445 10.5517 0.975445 10.2651C0.975445 9.97843 1.20779 9.74608 1.49442 9.74608H3.64402C3.8366 9.74608 4.01337 9.85271 4.10316 10.0231C4.19295 10.1934 4.18099 10.3995 4.07215 10.5584Z" fill="#A6ADBB" style="fill:#A6ADBB;fill:color(display-p3 0.6510 0.6784 0.7333);fill-opacity:1;"/>
<path d="M0 5.23828H18V6.54539H0V5.23828Z" fill="#A6ADBB" style="fill:#A6ADBB;fill:color(display-p3 0.6510 0.6784 0.7333);fill-opacity:1;"/>
<path d="M12.722 15.713H18V7.72168H12.722V15.713ZM14.27 9.74608H16.4196C16.6122 9.74608 16.789 9.85271 16.8787 10.0231C16.9685 10.1934 16.9566 10.3995 16.8477 10.5584C16.5163 11.0433 15.6558 12.5219 15.6558 13.5241C15.6558 13.8108 15.4234 14.0431 15.1368 14.0431C14.8502 14.0431 14.6178 13.8108 14.6178 13.5241C14.6178 12.5922 15.1067 11.5078 15.5016 10.784H14.2701C13.9834 10.784 13.7511 10.5517 13.7511 10.2651C13.7511 9.97843 13.9834 9.74608 14.27 9.74608Z" fill="#A6ADBB" style="fill:#A6ADBB;fill:color(display-p3 0.6510 0.6784 0.7333);fill-opacity:1;"/>
</g>
<defs>
<clipPath id="clip0_5994_2910">
<rect width="18" height="18" fill="white" style="fill:white;fill-opacity:1;"/>
</clipPath>
</defs>
</svg>
