<svg width="18" height="18" viewBox="0 0 18 18" fill="none" xmlns="http://www.w3.org/2000/svg">
<path d="M8.4375 2.25V5.28479C7.55611 4.44532 6.16097 4.45833 5.2955 5.3238C4.43923 6.18007 4.41739 7.55479 5.22997 8.4375H1.125V3.9375C1.125 3.00552 1.88052 2.25 2.8125 2.25H8.4375Z" fill="#A6ADBB" style="fill:#A6ADBB;fill:color(display-p3 0.6510 0.6784 0.7333);fill-opacity:1;"/>
<path d="M9.5625 2.25V5.25826C10.4452 4.44568 11.8199 4.46752 12.6762 5.32379C13.5325 6.18006 13.5543 7.55479 12.7417 8.4375H16.875V3.9375C16.875 3.00552 16.1195 2.25 15.1875 2.25H9.5625Z" fill="#A6ADBB" style="fill:#A6ADBB;fill:color(display-p3 0.6510 0.6784 0.7333);fill-opacity:1;"/>
<path d="M16.875 9.5625H10.1376C10.2797 11.1393 11.6049 12.375 13.2188 12.375C13.5294 12.375 13.7812 12.6268 13.7812 12.9375C13.7812 13.2482 13.5294 13.5 13.2188 13.5C11.6559 13.5 10.2915 12.6501 9.5625 11.3873V15.75H15.1875C16.1195 15.75 16.875 14.9945 16.875 14.0625V9.5625Z" fill="#A6ADBB" style="fill:#A6ADBB;fill:color(display-p3 0.6510 0.6784 0.7333);fill-opacity:1;"/>
<path d="M8.4375 15.75V11.3873C7.70853 12.6501 6.34414 13.5 4.78125 13.5C4.47059 13.5 4.21875 13.2482 4.21875 12.9375C4.21875 12.6268 4.47059 12.375 4.78125 12.375C6.39507 12.375 7.72029 11.1393 7.86239 9.5625H1.125V14.0625C1.125 14.9945 1.88052 15.75 2.8125 15.75H8.4375Z" fill="#A6ADBB" style="fill:#A6ADBB;fill:color(display-p3 0.6510 0.6784 0.7333);fill-opacity:1;"/>
<path d="M8.31409 7.76516C8.33657 7.98853 8.34255 8.19643 8.34112 8.36943C8.16813 8.37086 7.96022 8.36488 7.73685 8.3424C7.11219 8.27952 6.47926 8.09856 6.09099 7.71029C5.65165 7.27095 5.65165 6.55864 6.09099 6.1193C6.53033 5.67996 7.24264 5.67996 7.68198 6.1193C8.07025 6.50757 8.25121 7.1405 8.31409 7.76516Z" fill="#A6ADBB" style="fill:#A6ADBB;fill:color(display-p3 0.6510 0.6784 0.7333);fill-opacity:1;"/>
<path d="M9.6576 7.76514C9.63512 7.98851 9.62914 8.19641 9.63057 8.36941C9.80356 8.37084 10.0115 8.36486 10.2348 8.34238C10.8595 8.2795 11.4924 8.09854 11.8807 7.71027C12.32 7.27093 12.32 6.55862 11.8807 6.11928C11.4414 5.67994 10.729 5.67994 10.2897 6.11928C9.90144 6.50755 9.72048 7.14048 9.6576 7.76514Z" fill="#A6ADBB" style="fill:#A6ADBB;fill:color(display-p3 0.6510 0.6784 0.7333);fill-opacity:1;"/>
</svg>
