<svg width="18" height="18" viewBox="0 0 18 18" fill="none" xmlns="http://www.w3.org/2000/svg">
<path d="M3.15444 2.12844C4.77244 1.91168 6.42335 1.7998 8.10002 1.7998C9.7767 1.7998 11.4276 1.91168 13.0456 2.12844C14.1677 2.27877 15.0067 3.12578 15.2368 4.16978C15.0683 4.13821 14.8951 4.11718 14.7178 4.10749C14.0165 4.06919 13.3104 4.0498 12.6 4.0498C11.8896 4.0498 11.1835 4.06919 10.4822 4.10749C8.30624 4.22634 6.75002 6.05446 6.75002 8.09795V10.1137C6.75002 11.3858 7.3531 12.5751 8.3344 13.32L5.65232 16.0021C5.45927 16.1952 5.16894 16.2529 4.91671 16.1484C4.66448 16.0439 4.50002 15.7978 4.50002 15.5248V12.4264C4.0491 12.3827 3.60053 12.3309 3.15446 12.2712C1.83009 12.0937 0.900024 10.9458 0.900024 9.64884V4.75078C0.900024 3.45387 1.83006 2.30587 3.15444 2.12844Z" fill="#A6ADBB" style="fill:#A6ADBB;fill:color(display-p3 0.6510 0.6784 0.7333);fill-opacity:1;"/>
<path d="M12.6 5.3998C11.9142 5.3998 11.2326 5.41852 10.5559 5.45549C9.14152 5.53273 8.10002 6.72471 8.10002 8.09795V10.1137C8.10002 11.4806 9.13205 12.6691 10.5392 12.7551C10.7315 12.7669 10.9241 12.7772 11.1172 12.786C11.2974 12.7942 11.463 12.8674 11.5832 12.9876L13.6977 15.1021C13.8908 15.2952 14.1811 15.3529 14.4333 15.2484C14.6856 15.1439 14.85 14.8978 14.85 14.6248V12.7613C16.1573 12.5861 17.1 11.4447 17.1 10.1381V8.09795C17.1 6.72471 16.0585 5.53273 14.6442 5.45549C13.9674 5.41852 13.2859 5.3998 12.6 5.3998Z" fill="#A6ADBB" style="fill:#A6ADBB;fill:color(display-p3 0.6510 0.6784 0.7333);fill-opacity:1;"/>
</svg>
