<svg width="18" height="18" viewBox="0 0 18 18" fill="none" xmlns="http://www.w3.org/2000/svg">
<path d="M9.89401 1.06098C9.89401 1.06098 9.70184 0.535182 9.01601 0.169416C8.33022 -0.196349 7.38448 0.0497445 6.92763 0.718873C6.47077 1.388 6.79657 2.59154 7.43666 2.86587C8.07675 3.14019 8.69595 2.90503 8.69595 2.90503L9.89401 1.06098Z" fill="#43386B" style="fill:#43386B;fill:color(display-p3 0.2627 0.2196 0.4196);fill-opacity:1;"/>
<path d="M10.2035 3.10059C10.2035 3.10059 10.8884 3.10059 11.0713 4.12131C11.2073 4.88048 11.6885 8.63622 11.6885 8.63622C11.6885 8.63622 11.3227 9.15059 10.6712 8.7734C10.0197 8.39617 9.43767 3.30632 10.2035 3.10059Z" fill="url(#paint0_linear_2114_9493)" style=""/>
<path d="M11.6351 9.02246C11.6351 9.02246 11.7228 9.89968 11.7171 9.96827C11.7114 10.0369 11.3238 10.7572 11.0427 10.6712C10.7616 10.5852 10.9456 9.08813 10.997 9.07101C11.0484 9.05386 11.6351 9.02246 11.6351 9.02246Z" fill="url(#paint1_linear_2114_9493)" style=""/>
<path d="M11.6597 8.67101V8.98316C11.6597 8.98316 11.5628 9.20007 11.2656 9.11626C10.9684 9.03245 11.0979 8.49902 11.0979 8.49902L11.6597 8.67101Z" fill="url(#paint2_linear_2114_9493)" style=""/>
<path d="M6.93738 16.6367V17.0029C6.93738 17.1092 6.94501 17.2387 7.06693 17.3149C7.18885 17.3911 7.57666 17.5448 7.96528 17.7276C8.35389 17.9105 8.69762 18.0445 9.24627 17.9868C9.8036 17.9282 9.8673 17.682 9.76633 17.4763C9.66536 17.2705 9.34534 17.1862 9.11671 17.0029C8.88813 16.8196 8.7281 16.5986 8.7281 16.5986L6.93738 16.6367Z" fill="#43386B" style="fill:#43386B;fill:color(display-p3 0.2627 0.2196 0.4196);fill-opacity:1;"/>
<path d="M9.37964 15.4932V15.8594C9.37964 15.9657 9.38727 16.0952 9.50919 16.1714C9.63111 16.2476 10.0517 16.3281 10.4403 16.511C10.8289 16.6939 11.0243 16.8456 11.6568 16.8616C12.1597 16.8744 12.3528 16.4963 12.2086 16.3181C12.0457 16.1169 11.9045 16.0172 11.6115 15.8291C11.3649 15.6708 11.1315 15.4775 11.1315 15.4775L9.37964 15.4932Z" fill="#43386B" style="fill:#43386B;fill:color(display-p3 0.2627 0.2196 0.4196);fill-opacity:1;"/>
<path d="M11.0699 8.33706L11.1742 15.5692C11.1742 15.5692 10.9456 15.935 10.2483 15.9121C9.55109 15.8893 9.37967 15.5121 9.37967 15.5121L9.23975 8.97329C9.23975 8.97329 10.5152 8.01686 11.0699 8.33706Z" fill="url(#paint3_linear_2114_9493)" style=""/>
<path d="M10.1454 8.94012L8.88815 16.5983C8.88815 16.5983 8.78145 16.9869 8.08044 17.0021C7.37939 17.0174 6.93744 16.6364 6.93744 16.6364V9.61069C6.9374 9.61069 9.69671 8.68105 10.1454 8.94012Z" fill="url(#paint4_linear_2114_9493)" style=""/>
<path d="M5.79714 5.79258C5.79714 5.79258 5.77748 5.31991 6.20421 4.9166C6.63094 4.51328 7.17561 3.96769 7.17561 3.96769L7.31659 3.69031C7.31659 3.69031 8.04594 4.04082 8.53479 4.13226C9.02364 4.2237 9.13955 4.4757 9.13955 4.4757C9.13955 4.4757 9.13575 4.17796 9.23971 4.05604C9.34366 3.93412 9.40624 3.69028 9.40624 3.69028L9.66369 3.10102C9.66369 3.10102 10.1564 2.90879 10.4769 3.17633C10.7973 3.44387 10.6908 5.4124 10.764 6.50967C10.8372 7.60693 11.1606 8.01843 11.1741 8.27753C11.1877 8.5366 10.7034 8.88714 9.4825 9.37483C8.26163 9.86252 7.36243 9.61867 7.04241 9.37483C6.72238 9.13102 5.79714 5.79258 5.79714 5.79258Z" fill="url(#paint5_linear_2114_9493)" style=""/>
<path d="M10.3536 4.15323C10.2929 3.56911 10.0341 3.24159 9.79885 3.06152C9.71666 3.07984 9.66371 3.10041 9.66371 3.10041L9.50262 3.46909C9.64617 3.58521 9.81168 3.80357 9.85334 4.20512C9.93856 5.02679 10.3089 8.23677 10.3935 8.96862C10.591 8.8674 10.7476 8.77371 10.8673 8.68691C10.7505 7.67557 10.4317 4.90593 10.3536 4.15323Z" fill="url(#paint6_linear_2114_9493)" style=""/>
<path d="M8.94405 9.54957C8.90907 9.17783 8.60648 6.037 8.29158 5.15047C7.91394 4.08727 7.07321 4.11413 7.02983 4.1123L7.02944 4.11269C6.92337 4.21798 6.77016 4.36944 6.60507 4.53035L6.60486 4.53056C6.61178 4.53084 7.51948 4.61588 7.77461 5.33412C8.05822 6.13263 8.34144 9.19298 8.38222 9.64453C8.55701 9.62976 8.74464 9.59967 8.94405 9.54957Z" fill="url(#paint7_linear_2114_9493)" style=""/>
<path d="M7.31634 10.8252C7.31634 10.8252 7.43003 11.0481 7.46473 11.2538C7.4994 11.4596 7.56226 11.6424 7.51082 11.671C7.45939 11.6996 7.28224 11.4881 7.28224 11.4881C7.28224 11.4881 7.28224 11.8768 7.36795 12.0368C7.45366 12.1968 7.51082 12.2825 7.49367 12.3683C7.47651 12.454 7.35438 12.473 7.19435 12.4101C7.03432 12.3473 7.0174 12.2406 7.0174 12.2406C7.0174 12.2406 6.88139 12.295 6.78994 12.2322C6.6985 12.1693 6.68947 12.061 6.68947 12.061C6.68947 12.061 6.52497 12.1111 6.45353 12.0025C6.41599 11.9454 6.39637 11.8482 6.39637 11.8482C6.39637 11.8482 6.25634 11.8568 6.21349 11.726C6.19893 11.6815 6.1449 10.8252 6.1449 10.8252H7.31634Z" fill="url(#paint8_linear_2114_9493)" style=""/>
<path d="M7.45938 2.72656L7.26508 3.9153C7.26508 3.9153 8.49952 4.56682 8.95672 4.46395C9.41393 4.36108 9.48252 4.06391 9.48252 4.06391L9.3568 3.44667L7.45938 2.72656Z" fill="url(#paint9_linear_2114_9493)" style=""/>
<path d="M9.89403 1.06055V2.51552C9.89403 2.77543 9.84963 3.03436 9.754 3.27606C9.68735 3.4446 9.59686 3.6085 9.48253 3.67519C9.2082 3.83522 8.70529 3.70946 8.35095 3.6066C7.99661 3.50373 7.48228 2.88649 7.48228 2.88649C7.48228 2.88649 7.27275 2.82173 7.19653 2.52452C7.12031 2.22735 7.26512 2.03684 7.43274 2.0978C7.60037 2.15876 7.66136 2.28831 7.66136 2.28831L7.69947 2.58548L7.95857 2.81411V2.18164C7.95857 2.18164 8.10725 2.15932 8.18154 2.01075C8.25582 1.86218 8.24647 1.73112 8.24647 1.73112C8.24647 1.73112 9.13958 1.31961 9.89403 1.06055Z" fill="url(#paint10_linear_2114_9493)" style=""/>
<path d="M7.31636 10.4791V10.8247C7.31636 10.8247 7.01936 11.019 6.64217 11.0247C6.26498 11.0304 6.00781 10.8475 6.00781 10.8475V10.4791C6.00778 10.4791 7.33904 10.4536 7.31636 10.4791Z" fill="url(#paint11_linear_2114_9493)" style=""/>
<path d="M5.74487 10.3392C5.74487 10.3392 5.81346 8.04171 5.80204 7.2759C5.79061 6.5101 5.74505 5.61867 5.87063 5.4585C5.9962 5.29836 6.48786 5.00129 7.01363 5.4585C7.53942 5.91571 7.48226 7.35592 7.43652 8.07599C7.39082 8.7961 7.39082 10.4306 7.39082 10.4306C7.39082 10.4306 6.37354 11.1736 5.74487 10.3392Z" fill="url(#paint12_linear_2114_9493)" style=""/>
<path d="M9.21088 4.49797C9.21088 4.49797 9.40174 4.24073 9.45982 4.21861C9.5179 4.1965 9.70321 4.30714 9.72813 4.49797C9.75306 4.68879 9.71983 4.79947 9.67835 4.8188C9.63686 4.83817 9.37685 4.8188 9.37685 4.8188L9.21088 4.49797Z" fill="#43386B" style="fill:#43386B;fill:color(display-p3 0.2627 0.2196 0.4196);fill-opacity:1;"/>
<path d="M8.94039 4.63274C8.93019 4.60121 8.93719 4.56665 8.95909 4.54179C8.98289 4.51479 9.01696 4.48241 9.05412 4.46698C9.12418 4.43787 9.18996 4.4011 9.29751 4.50055C9.40508 4.60005 9.47452 4.81123 9.40814 4.89374C9.34177 4.97629 9.2016 4.9984 9.13891 4.98736C9.07623 4.97629 9.02459 4.89374 9.02459 4.89374L8.94039 4.63274Z" fill="#594A8E" style="fill:#594A8E;fill:color(display-p3 0.3490 0.2902 0.5569);fill-opacity:1;"/>
<path d="M8.98776 4.61156C8.98776 4.61156 8.6029 4.55025 8.55994 4.63367C8.51702 4.7171 8.73326 5.26061 8.8439 5.24219C8.95454 5.22377 9.13893 4.91626 9.13893 4.91626C9.13893 4.91626 9.15767 4.70968 8.98776 4.61156Z" fill="#43386B" style="fill:#43386B;fill:color(display-p3 0.2627 0.2196 0.4196);fill-opacity:1;"/>
<defs>
<linearGradient id="paint0_linear_2114_9493" x1="10.764" y1="4.32441" x2="10.764" y2="9.03566" gradientUnits="userSpaceOnUse">
<stop stop-color="#D7D1EB" style="stop-color:#D7D1EB;stop-color:color(display-p3 0.8431 0.8196 0.9216);stop-opacity:1;"/>
<stop offset="1" stop-color="#E9E5F6" style="stop-color:#E9E5F6;stop-color:color(display-p3 0.9137 0.8980 0.9647);stop-opacity:1;"/>
</linearGradient>
<linearGradient id="paint1_linear_2114_9493" x1="11.3039" y1="8.79669" x2="11.3039" y2="10.3055" gradientUnits="userSpaceOnUse">
<stop stop-color="#DEA861" style="stop-color:#DEA861;stop-color:color(display-p3 0.8706 0.6588 0.3804);stop-opacity:1;"/>
<stop offset="1" stop-color="#EBCBA0" style="stop-color:#EBCBA0;stop-color:color(display-p3 0.9216 0.7961 0.6275);stop-opacity:1;"/>
</linearGradient>
<linearGradient id="paint2_linear_2114_9493" x1="11.3648" y1="9.02591" x2="11.3648" y2="8.46879" gradientUnits="userSpaceOnUse">
<stop stop-color="#D7D1EB" style="stop-color:#D7D1EB;stop-color:color(display-p3 0.8431 0.8196 0.9216);stop-opacity:1;"/>
<stop offset="1" stop-color="#E9E5F6" style="stop-color:#E9E5F6;stop-color:color(display-p3 0.9137 0.8980 0.9647);stop-opacity:1;"/>
</linearGradient>
<linearGradient id="paint3_linear_2114_9493" x1="10.207" y1="9.88088" x2="10.207" y2="16.0763" gradientUnits="userSpaceOnUse">
<stop stop-color="#43386B" style="stop-color:#43386B;stop-color:color(display-p3 0.2627 0.2196 0.4196);stop-opacity:1;"/>
<stop offset="1" stop-color="#594A8E" style="stop-color:#594A8E;stop-color:color(display-p3 0.3490 0.2902 0.5569);stop-opacity:1;"/>
</linearGradient>
<linearGradient id="paint4_linear_2114_9493" x1="8.54144" y1="9.00108" x2="8.54144" y2="13.4524" gradientUnits="userSpaceOnUse">
<stop stop-color="#43386B" style="stop-color:#43386B;stop-color:color(display-p3 0.2627 0.2196 0.4196);stop-opacity:1;"/>
<stop offset="1" stop-color="#594A8E" style="stop-color:#594A8E;stop-color:color(display-p3 0.3490 0.2902 0.5569);stop-opacity:1;"/>
</linearGradient>
<linearGradient id="paint5_linear_2114_9493" x1="8.48571" y1="8.51631" x2="8.48571" y2="2.71996" gradientUnits="userSpaceOnUse">
<stop stop-color="#D7D1EB" style="stop-color:#D7D1EB;stop-color:color(display-p3 0.8431 0.8196 0.9216);stop-opacity:1;"/>
<stop offset="1" stop-color="#E9E5F6" style="stop-color:#E9E5F6;stop-color:color(display-p3 0.9137 0.8980 0.9647);stop-opacity:1;"/>
</linearGradient>
<linearGradient id="paint6_linear_2114_9493" x1="10.1849" y1="3.06152" x2="10.1849" y2="8.96858" gradientUnits="userSpaceOnUse">
<stop stop-color="#43386B" style="stop-color:#43386B;stop-color:color(display-p3 0.2627 0.2196 0.4196);stop-opacity:1;"/>
<stop offset="1" stop-color="#594A8E" style="stop-color:#594A8E;stop-color:color(display-p3 0.3490 0.2902 0.5569);stop-opacity:1;"/>
</linearGradient>
<linearGradient id="paint7_linear_2114_9493" x1="7.77444" y1="4.1123" x2="7.77444" y2="9.64449" gradientUnits="userSpaceOnUse">
<stop stop-color="#43386B" style="stop-color:#43386B;stop-color:color(display-p3 0.2627 0.2196 0.4196);stop-opacity:1;"/>
<stop offset="1" stop-color="#594A8E" style="stop-color:#594A8E;stop-color:color(display-p3 0.3490 0.2902 0.5569);stop-opacity:1;"/>
</linearGradient>
<linearGradient id="paint8_linear_2114_9493" x1="6.83758" y1="10.5642" x2="6.83758" y2="12.1518" gradientUnits="userSpaceOnUse">
<stop stop-color="#DEA861" style="stop-color:#DEA861;stop-color:color(display-p3 0.8706 0.6588 0.3804);stop-opacity:1;"/>
<stop offset="1" stop-color="#EBCBA0" style="stop-color:#EBCBA0;stop-color:color(display-p3 0.9216 0.7961 0.6275);stop-opacity:1;"/>
</linearGradient>
<linearGradient id="paint9_linear_2114_9493" x1="8.37376" y1="3.0809" x2="8.37376" y2="4.50673" gradientUnits="userSpaceOnUse">
<stop stop-color="#DEA861" style="stop-color:#DEA861;stop-color:color(display-p3 0.8706 0.6588 0.3804);stop-opacity:1;"/>
<stop offset="1" stop-color="#EBCBA0" style="stop-color:#EBCBA0;stop-color:color(display-p3 0.9216 0.7961 0.6275);stop-opacity:1;"/>
</linearGradient>
<linearGradient id="paint10_linear_2114_9493" x1="7.4654" y1="1.38683" x2="9.16398" y2="2.36748" gradientUnits="userSpaceOnUse">
<stop stop-color="#DEA861" style="stop-color:#DEA861;stop-color:color(display-p3 0.8706 0.6588 0.3804);stop-opacity:1;"/>
<stop offset="1" stop-color="#EBCBA0" style="stop-color:#EBCBA0;stop-color:color(display-p3 0.9216 0.7961 0.6275);stop-opacity:1;"/>
</linearGradient>
<linearGradient id="paint11_linear_2114_9493" x1="6.66221" y1="10.9289" x2="6.66221" y2="10.4413" gradientUnits="userSpaceOnUse">
<stop stop-color="#D7D1EB" style="stop-color:#D7D1EB;stop-color:color(display-p3 0.8431 0.8196 0.9216);stop-opacity:1;"/>
<stop offset="1" stop-color="#E9E5F6" style="stop-color:#E9E5F6;stop-color:color(display-p3 0.9137 0.8980 0.9647);stop-opacity:1;"/>
</linearGradient>
<linearGradient id="paint12_linear_2114_9493" x1="6.60479" y1="6.37752" x2="6.60479" y2="10.8532" gradientUnits="userSpaceOnUse">
<stop stop-color="#D7D1EB" style="stop-color:#D7D1EB;stop-color:color(display-p3 0.8431 0.8196 0.9216);stop-opacity:1;"/>
<stop offset="1" stop-color="#E9E5F6" style="stop-color:#E9E5F6;stop-color:color(display-p3 0.9137 0.8980 0.9647);stop-opacity:1;"/>
</linearGradient>
</defs>
</svg>
