<svg width="18" height="18" viewBox="0 0 18 18" fill="none" xmlns="http://www.w3.org/2000/svg">
<path fill-rule="evenodd" clip-rule="evenodd" d="M12.6002 5.3998C12.8827 5.02376 13.0501 4.55633 13.0501 4.0498C13.0501 2.80716 12.0427 1.7998 10.8001 1.7998C10.064 1.7998 9.41055 2.15321 9.00005 2.69959C8.58955 2.15321 7.93607 1.7998 7.20005 1.7998C5.95741 1.7998 4.95005 2.80716 4.95005 4.0498C4.95005 4.55633 5.11742 5.02376 5.39988 5.3998H2.92505C2.30373 5.3998 1.80005 5.90348 1.80005 6.5248V6.9748C1.80005 7.59613 2.30373 8.0998 2.92505 8.0998H8.32505V5.3998H9.67505V8.0998H15.075C15.6964 8.0998 16.2 7.59613 16.2 6.9748V6.5248C16.2 5.90348 15.6964 5.3998 15.075 5.3998H12.6002ZM11.7001 4.0498C11.7001 4.54686 11.2971 4.9498 10.8001 4.9498H9.90005L9.90005 4.0498C9.90005 3.55275 10.303 3.1498 10.8001 3.1498C11.2971 3.1498 11.7001 3.55275 11.7001 4.0498ZM6.30005 4.0498C6.30005 4.54686 6.70299 4.9498 7.20005 4.9498H8.10005V4.0498C8.10005 3.55275 7.69711 3.1498 7.20005 3.1498C6.70299 3.1498 6.30005 3.55275 6.30005 4.0498Z" fill="#A6ADBB" style="fill:#A6ADBB;fill:color(display-p3 0.6510 0.6784 0.7333);fill-opacity:1;"/>
<path d="M8.32505 9.4498H2.70005V13.7248C2.70005 15.0917 3.80814 16.1998 5.17505 16.1998H8.32505V9.4498Z" fill="#A6ADBB" style="fill:#A6ADBB;fill:color(display-p3 0.6510 0.6784 0.7333);fill-opacity:1;"/>
<path d="M9.67505 16.1998V9.4498H15.3V13.7248C15.3 15.0917 14.192 16.1998 12.825 16.1998H9.67505Z" fill="#A6ADBB" style="fill:#A6ADBB;fill:color(display-p3 0.6510 0.6784 0.7333);fill-opacity:1;"/>
</svg>
