<svg width="33" height="32" viewBox="0 0 33 32" fill="none" xmlns="http://www.w3.org/2000/svg">
<path d="M16.5 2.66602C12.9638 2.66602 9.57242 4.07077 7.07193 6.57126C4.57144 9.07174 3.16669 12.4631 3.16669 15.9993C3.16669 19.5356 4.57144 22.927 7.07193 25.4274C9.57242 27.9279 12.9638 29.3327 16.5 29.3327C20.0362 29.3327 23.4276 27.9279 25.9281 25.4274C28.4286 22.927 29.8334 19.5356 29.8334 15.9993C29.8334 12.4631 28.4286 9.07174 25.9281 6.57126C23.4276 4.07077 20.0362 2.66602 16.5 2.66602Z" fill="#29B6F6" style="fill:#29B6F6;fill:color(display-p3 0.1608 0.7137 0.9647);fill-opacity:1;"/>
<path d="M23.1334 10.0007L20.636 22.7513C20.636 22.7513 20.5287 23.334 19.806 23.334C19.422 23.334 19.224 23.1513 19.224 23.1513L13.8147 18.6627L11.168 17.3287L7.77135 16.4253C7.77135 16.4253 7.16669 16.2507 7.16669 15.7507C7.16669 15.334 7.78869 15.1353 7.78869 15.1353L21.9994 9.48999C21.9994 9.48999 22.4334 9.33332 22.75 9.33399C22.9447 9.33399 23.1667 9.41732 23.1667 9.66732C23.1667 9.83399 23.1334 10.0007 23.1334 10.0007Z" fill="white" style="fill:white;fill-opacity:1;"/>
<path d="M15.8333 20.3362L13.5493 22.5855C13.5493 22.5855 13.45 22.6622 13.3173 22.6655C13.2713 22.6668 13.222 22.6595 13.1713 22.6368L13.814 18.6602L15.8333 20.3362Z" fill="#B0BEC5" style="fill:#B0BEC5;fill:color(display-p3 0.6902 0.7451 0.7725);fill-opacity:1;"/>
<path d="M20.4314 12.1306C20.3187 11.9839 20.1107 11.9573 19.964 12.0686L11.1667 17.3333C11.1667 17.3333 12.5707 21.2613 12.7847 21.9413C12.9994 22.6219 13.1714 22.6379 13.1714 22.6379L13.814 18.6613L20.3687 12.5973C20.5154 12.4859 20.5427 12.2773 20.4314 12.1306Z" fill="#CFD8DC" style="fill:#CFD8DC;fill:color(display-p3 0.8118 0.8471 0.8627);fill-opacity:1;"/>
</svg>
