<svg width="33" height="32" viewBox="0 0 33 32" fill="none" xmlns="http://www.w3.org/2000/svg">
<path fill-rule="evenodd" clip-rule="evenodd" d="M3.7453 28.8693L5.5413 22.3127C4.4333 20.394 3.85063 18.2167 3.8513 15.9867C3.85463 9.00998 9.53197 3.33398 16.5093 3.33398C19.8953 3.33532 23.0726 4.65332 25.4626 7.04465C27.852 9.43665 29.168 12.6153 29.1666 15.9967C29.164 22.9733 23.4853 28.65 16.5093 28.65H16.504C14.386 28.6493 12.304 28.118 10.4553 27.1093L3.7453 28.8693Z" fill="white" style="fill:white;fill-opacity:1;"/>
<path fill-rule="evenodd" clip-rule="evenodd" d="M3.74533 29.202C3.65733 29.202 3.572 29.1673 3.50867 29.1033C3.42533 29.0187 3.39267 28.8953 3.424 28.7813L5.18333 22.3573C4.09267 20.42 3.51733 18.22 3.51867 15.9867C3.52133 8.82533 9.34867 3 16.5093 3C19.9827 3.00133 23.246 4.354 25.6987 6.80867C28.1513 9.264 29.5013 12.5267 29.5 15.996C29.4973 23.1567 23.6693 28.9827 16.5093 28.9827C14.3833 28.982 12.28 28.4573 10.4133 27.4647L3.83 29.1907C3.802 29.1987 3.774 29.202 3.74533 29.202Z" fill="white" style="fill:white;fill-opacity:1;"/>
<path fill-rule="evenodd" clip-rule="evenodd" d="M16.5094 3.33268C19.8954 3.33402 23.0727 4.65202 25.4627 7.04335C27.852 9.43535 29.168 12.614 29.1667 15.9953C29.164 22.972 23.4854 28.6487 16.5094 28.6487H16.504C14.386 28.648 12.304 28.1167 10.4554 27.108L3.74537 28.868L5.54137 22.3113C4.43337 20.3927 3.8507 18.2153 3.85137 15.9853C3.8547 9.00868 9.53204 3.33268 16.5094 3.33268ZM16.5094 2.66602C9.16537 2.66602 3.18804 8.64068 3.1847 15.9853C3.18404 18.23 3.7507 20.442 4.82537 22.4L3.10204 28.6927C3.03937 28.9227 3.10337 29.168 3.27137 29.3373C3.39804 29.4653 3.56937 29.5354 3.74537 29.5354C3.80204 29.5354 3.8587 29.528 3.9147 29.5133L10.3727 27.82C12.258 28.7987 14.3714 29.3153 16.504 29.316C23.8534 29.316 29.8307 23.3407 29.834 15.996C29.8354 12.4367 28.4507 9.09002 25.9354 6.57268C23.4187 4.05468 20.0714 2.66735 16.5094 2.66602Z" fill="#CFD8DC" style="fill:#CFD8DC;fill:color(display-p3 0.8118 0.8471 0.8627);fill-opacity:1;"/>
<path fill-rule="evenodd" clip-rule="evenodd" d="M23.9506 8.5547C21.964 6.5667 19.3233 5.47137 16.5126 5.4707C10.71 5.4707 5.99064 10.188 5.98798 15.9867C5.98731 17.974 6.54331 19.9087 7.59664 21.584L7.84731 21.982L6.78398 25.8627L10.766 24.8187L11.1506 25.0467C12.7653 26.0054 14.6173 26.512 16.5053 26.5127H16.5093C22.308 26.5127 27.0273 21.7947 27.0293 15.9954C27.03 13.1854 25.9373 10.5427 23.9506 8.5547Z" fill="#40C351" style="fill:#40C351;fill:color(display-p3 0.2510 0.7647 0.3176);fill-opacity:1;"/>
<path fill-rule="evenodd" clip-rule="evenodd" d="M13.3453 10.6966C13.1087 10.1699 12.8593 10.1593 12.6333 10.1499C12.4487 10.1419 12.238 10.1426 12.0273 10.1426C11.8167 10.1426 11.474 10.2219 11.184 10.5386C10.894 10.8553 10.0767 11.6199 10.0767 13.1759C10.0767 14.7319 11.21 16.2359 11.368 16.4466C11.526 16.6573 13.556 19.9526 16.7707 21.2206C19.442 22.2739 19.986 22.0646 20.566 22.0119C21.146 21.9593 22.4373 21.2473 22.7007 20.5086C22.964 19.7699 22.964 19.1373 22.8853 19.0053C22.806 18.8733 22.5953 18.7946 22.2793 18.6359C21.9633 18.4773 20.408 17.7126 20.118 17.6073C19.828 17.5019 19.6173 17.4493 19.406 17.7659C19.1953 18.0819 18.5893 18.7946 18.4047 19.0053C18.22 19.2166 18.0353 19.2433 17.7193 19.0846C17.4033 18.9259 16.3847 18.5926 15.176 17.5153C14.236 16.6773 13.6013 15.6419 13.4167 15.3253C13.232 15.0093 13.3967 14.8379 13.5553 14.6799C13.6973 14.5379 13.8713 14.3106 14.03 14.1259C14.188 13.9413 14.2407 13.8093 14.346 13.5986C14.4513 13.3873 14.3987 13.2026 14.3193 13.0446C14.2413 12.8859 13.6267 11.3219 13.3453 10.6966Z" fill="white" style="fill:white;fill-opacity:1;"/>
</svg>
