<svg width="33" height="32" viewBox="0 0 33 32" fill="none" xmlns="http://www.w3.org/2000/svg">
<path d="M16.5 3.33398C13.1406 3.33398 9.91882 4.6685 7.54335 7.04397C5.16789 9.41943 3.83337 12.6412 3.83337 16.0007C3.83337 19.3601 5.16789 22.5819 7.54335 24.9573C9.91882 27.3328 13.1406 28.6673 16.5 28.6673C19.8594 28.6673 23.0813 27.3328 25.4567 24.9573C27.8322 22.5819 29.1667 19.3601 29.1667 16.0007C29.1667 12.6412 27.8322 9.41943 25.4567 7.04397C23.0813 4.6685 19.8594 3.33398 16.5 3.33398Z" fill="#039BE5" style="fill:#039BE5;fill:color(display-p3 0.0118 0.6078 0.8980);fill-opacity:1;"/>
<path d="M18.2146 19.3565H21.4926L22.0073 16.0265H18.214V14.2065C18.214 12.8232 18.666 11.5965 19.96 11.5965H22.0393V8.69054C21.674 8.6412 20.9013 8.5332 19.4413 8.5332C16.3926 8.5332 14.6053 10.1432 14.6053 13.8112V16.0265H11.4713V19.3565H14.6053V28.5092C15.226 28.6025 15.8546 28.6659 16.5 28.6659C17.0833 28.6659 17.6526 28.6125 18.2146 28.5365V19.3565Z" fill="white" style="fill:white;fill-opacity:1;"/>
</svg>
