<svg width="33" height="32" viewBox="0 0 33 32" fill="none" xmlns="http://www.w3.org/2000/svg">
<path d="M16.5 29.3327C23.8638 29.3327 29.8333 23.3631 29.8333 15.9993C29.8333 8.63555 23.8638 2.66602 16.5 2.66602C9.13616 2.66602 3.16663 8.63555 3.16663 15.9993C3.16663 23.3631 9.13616 29.3327 16.5 29.3327Z" fill="#C13584" style="fill:#C13584;fill:color(display-p3 0.7569 0.2078 0.5176);fill-opacity:1;"/>
<path d="M16.5 9.44147C18.6361 9.44147 18.8891 9.4496 19.7327 9.48807C20.5127 9.52367 20.9363 9.654 21.2182 9.76353C21.5916 9.90867 21.8581 10.082 22.138 10.3619C22.418 10.6419 22.5913 10.9084 22.7365 11.2818C22.846 11.5637 22.9763 11.9873 23.0119 12.7673C23.0504 13.6109 23.0585 13.8639 23.0585 15.9999C23.0585 18.1361 23.0504 18.3891 23.0119 19.2327C22.9763 20.0127 22.846 20.4362 22.7365 20.7181C22.5913 21.0915 22.418 21.3581 22.1381 21.638C21.8581 21.9179 21.5916 22.0913 21.2182 22.2364C20.9363 22.346 20.5127 22.4763 19.7327 22.5119C18.8893 22.5503 18.6363 22.5585 16.5 22.5585C14.3637 22.5585 14.1108 22.5503 13.2673 22.5119C12.4873 22.4763 12.0637 22.346 11.7818 22.2364C11.4084 22.0913 11.1419 21.9179 10.862 21.638C10.5821 21.3581 10.4087 21.0915 10.2635 20.7181C10.154 20.4362 10.0237 20.0127 9.98807 19.2327C9.9496 18.3891 9.94147 18.1361 9.94147 15.9999C9.94147 13.8639 9.9496 13.6109 9.98807 12.7673C10.0237 11.9873 10.154 11.5637 10.2635 11.2818C10.4087 10.9084 10.582 10.6419 10.862 10.362C11.1419 10.082 11.4084 9.90867 11.7818 9.76353C12.0637 9.654 12.4873 9.52367 13.2673 9.48807C14.1109 9.4496 14.3639 9.44147 16.5 9.44147ZM16.5 8C14.3273 8 14.0549 8.0092 13.2016 8.04813C12.3501 8.087 11.7685 8.2222 11.2597 8.42C10.7336 8.6244 10.2875 8.89793 9.84273 9.34273C9.39793 9.78747 9.1244 10.2336 8.92 10.7597C8.7222 11.2685 8.587 11.8501 8.54813 12.7016C8.5092 13.5549 8.5 13.8273 8.5 15.9999C8.5 18.1727 8.5092 18.4451 8.54813 19.2983C8.587 20.1499 8.7222 20.7314 8.92 21.2403C9.1244 21.7663 9.39793 22.2125 9.84273 22.6573C10.2875 23.102 10.7336 23.3755 11.2597 23.5799C11.7685 23.7777 12.3501 23.9129 13.2016 23.9518C14.0549 23.9907 14.3273 23.9999 16.5 23.9999C18.6727 23.9999 18.9451 23.9907 19.7984 23.9518C20.6499 23.9129 21.2315 23.7777 21.7403 23.5799C22.2664 23.3755 22.7125 23.102 23.1573 22.6573C23.602 22.2125 23.8756 21.7663 24.08 21.2403C24.2778 20.7314 24.413 20.1499 24.4519 19.2983C24.4908 18.4451 24.5 18.1727 24.5 15.9999C24.5 13.8273 24.4908 13.5549 24.4519 12.7016C24.413 11.8501 24.2778 11.2685 24.08 10.7597C23.8756 10.2336 23.602 9.78747 23.1573 9.34273C22.7125 8.89793 22.2664 8.6244 21.7403 8.42C21.2315 8.2222 20.6499 8.087 19.7984 8.04813C18.9451 8.0092 18.6727 8 16.5 8Z" fill="white" style="fill:white;fill-opacity:1;"/>
<path d="M16.5039 11.8965C14.2351 11.8965 12.3959 13.7357 12.3959 16.0046C12.3959 18.2734 14.2351 20.1126 16.5039 20.1126C18.7728 20.1126 20.6121 18.2734 20.6121 16.0046C20.6121 13.7357 18.7728 11.8965 16.5039 11.8965ZM16.5039 18.6712C15.0312 18.6712 13.8373 17.4773 13.8373 16.0046C13.8373 14.5318 15.0312 13.3379 16.5039 13.3379C17.9767 13.3379 19.1706 14.5318 19.1706 16.0046C19.1706 17.4773 17.9767 18.6712 16.5039 18.6712Z" fill="white" style="fill:white;fill-opacity:1;"/>
<path d="M21.7338 11.7316C21.7338 12.2617 21.304 12.6916 20.7738 12.6916C20.2436 12.6916 19.8138 12.2617 19.8138 11.7316C19.8138 11.2014 20.2436 10.7715 20.7738 10.7715C21.304 10.7715 21.7338 11.2014 21.7338 11.7316Z" fill="white" style="fill:white;fill-opacity:1;"/>
</svg>
