<svg width="33" height="32" viewBox="0 0 33 32" fill="none" xmlns="http://www.w3.org/2000/svg">
<path d="M7.53994 2.56055C5.0657 2.56055 3.05994 4.56631 3.05994 7.04055V24.9605C3.05994 27.4348 5.0657 29.4405 7.53994 29.4405H25.4599C27.9342 29.4405 29.9399 27.4348 29.9399 24.9605V7.04055C29.9399 4.56631 27.9342 2.56055 25.4599 2.56055H7.53994ZM8.87494 8.32055H13.9549L17.5624 13.4468L21.9399 8.32055H23.5399L18.2849 14.473L24.7649 23.6805H19.6862L15.4999 17.733L10.4199 23.6805H8.81994L14.7774 16.7068L8.87494 8.32055ZM11.3249 9.60055L20.3537 22.4005H22.3149L13.2862 9.60055H11.3249Z" fill="black" style="fill:black;fill-opacity:1;"/>
</svg>
