<svg width="33" height="32" viewBox="0 0 33 32" fill="none" xmlns="http://www.w3.org/2000/svg">
<path d="M16.5 2.66602C12.9637 2.66602 9.57235 4.07077 7.07187 6.57126C4.57138 9.07174 3.16663 12.4631 3.16663 15.9993C3.16663 19.5356 4.57138 22.927 7.07187 25.4274C9.57235 27.9279 12.9637 29.3327 16.5 29.3327C20.0362 29.3327 23.4276 27.9279 25.9281 25.4274C28.4285 22.927 29.8333 19.5356 29.8333 15.9993C29.8333 12.4631 28.4285 9.07174 25.9281 6.57126C23.4276 4.07077 20.0362 2.66602 16.5 2.66602Z" fill="#FFEE58" fill-opacity="0.7" style="fill:#FFEE58;fill:color(display-p3 1.0000 0.9333 0.3451);fill-opacity:0.7;"/>
<path d="M16.6093 24.6654C16.5646 24.6654 16.5206 24.664 16.4766 24.662C16.4486 24.664 16.42 24.6654 16.39 24.6654C15.3633 24.6654 14.704 24.188 14.0666 23.7267C13.6266 23.408 13.2113 23.1074 12.722 23.024C12.4833 22.9834 12.246 22.9634 12.016 22.9634C11.6026 22.9634 11.276 23.0287 11.0373 23.076C10.8926 23.1054 10.7673 23.13 10.6726 23.13C10.5733 23.13 10.466 23.108 10.4193 22.9447C10.3786 22.8034 10.3493 22.666 10.3213 22.5334C10.2486 22.192 10.1966 21.9814 10.0573 21.96C8.42864 21.702 7.96264 21.3514 7.85864 21.1014C7.84397 21.066 7.83531 21.03 7.83331 20.9947C7.82797 20.8994 7.89464 20.814 7.98664 20.7987C10.49 20.376 11.6126 17.7547 11.66 17.6434C11.6613 17.64 11.6626 17.6374 11.664 17.634C11.8173 17.316 11.8473 17.0394 11.7533 16.8134C11.5813 16.3987 11.0853 16.2227 10.7146 16.1027C10.624 16.0734 10.538 16.0454 10.47 16.018C9.72997 15.718 9.66864 15.4107 9.69731 15.2534C9.74664 14.986 10.0953 14.8 10.3773 14.8C10.4546 14.8 10.5226 14.814 10.58 14.8414C10.9126 15.0014 11.1486 15.0754 11.4073 15.0754C11.7653 15.0754 11.9213 14.9214 11.94 14.9007C11.9306 14.7274 11.9193 14.546 11.908 14.3587C11.8333 13.146 11.7406 11.6394 12.1153 10.7794C13.2373 8.20138 15.618 8.00138 16.3206 8.00138C16.3386 8.00138 16.6286 7.99805 16.6286 7.99805H16.6706C17.3753 7.99805 19.76 8.19871 20.8833 10.778C21.258 11.6387 21.1653 13.1467 21.0906 14.358L21.0873 14.4107C21.0773 14.5794 21.0666 14.7434 21.0586 14.9C21.0766 14.9187 21.22 15.06 21.5446 15.0734H21.5453C21.792 15.0634 22.0193 15.0007 22.33 14.8514C22.4206 14.808 22.522 14.7987 22.5913 14.7987C22.6966 14.7987 22.8033 14.8194 22.892 14.8574L22.8973 14.86C23.1486 14.9514 23.3133 15.132 23.3166 15.3207C23.32 15.498 23.1873 15.7654 22.538 16.028C22.4706 16.0554 22.3846 16.0834 22.2933 16.1127C21.922 16.2334 21.418 16.398 21.246 16.8127C21.152 17.0394 21.182 17.3147 21.3353 17.6334C21.3366 17.6367 21.338 17.6394 21.3393 17.6427C21.386 17.754 22.508 20.3747 25.0126 20.7974C25.1053 20.8134 25.1713 20.8974 25.166 20.9934C25.164 21.0294 25.1553 21.0654 25.1406 21.1007C25.0373 21.348 24.5713 21.6994 22.9426 21.9574C22.8093 21.978 22.758 22.156 22.6786 22.5287C22.65 22.664 22.6206 22.7974 22.58 22.9374C22.5453 23.0587 22.4713 23.116 22.3466 23.116H22.3266C22.2406 23.116 22.1173 23.1 21.962 23.0687C21.686 23.0134 21.3773 22.9627 20.9833 22.9627C20.754 22.9627 20.516 22.9834 20.2773 23.0234C19.7886 23.1067 19.3733 23.4074 18.9346 23.7254C18.2953 24.188 17.636 24.6654 16.6093 24.6654Z" fill="white" style="fill:white;fill-opacity:1;"/>
</svg>
