<svg width="33" height="32" viewBox="0 0 33 32" fill="none" xmlns="http://www.w3.org/2000/svg">
<path d="M12.5 4C6.63337 4 1.83337 8 1.83337 13C1.83337 15.8667 3.36671 18.3333 5.83337 20L4.50004 24L8.70004 21.4C9.83337 21.8 11.1667 22 12.5 22C18.3667 22 23.1667 18 23.1667 13C23.1667 8 18.3667 4 12.5 4Z" fill="#8BC34A" style="fill:#8BC34A;fill:color(display-p3 0.5451 0.7647 0.2902);fill-opacity:1;"/>
<path d="M13.8333 19.3327C13.8333 15.266 17.7 11.9993 22.5 11.9993C22.7 11.9993 22.9 11.9993 23.1 11.9993C23.0333 11.5327 22.9 11.066 22.7667 10.666C22.7 10.666 22.5667 10.666 22.5 10.666C16.9667 10.666 12.5 14.5327 12.5 19.3327C12.5 20.266 12.7 21.1327 12.9667 21.9993C13.4333 21.9993 13.9 21.9327 14.3667 21.866C14.0333 21.066 13.8333 20.1993 13.8333 19.3327Z" fill="#7CB342" style="fill:#7CB342;fill:color(display-p3 0.4863 0.7020 0.2588);fill-opacity:1;"/>
<path d="M31.1667 19.3333C31.1667 15.2667 27.3 12 22.5 12C17.7 12 13.8334 15.2667 13.8334 19.3333C13.8334 23.4 17.7 26.6667 22.5 26.6667C23.7 26.6667 24.8334 26.4667 25.8334 26.1333L29.1667 28L28.2334 24.8C30.0334 23.4667 31.1667 21.5333 31.1667 19.3333Z" fill="#CFD8DC" style="fill:#CFD8DC;fill:color(display-p3 0.8118 0.8471 0.8627);fill-opacity:1;"/>
<path d="M9.83329 9.99935C9.83329 10.7327 9.23329 11.3327 8.49996 11.3327C7.76663 11.3327 7.16663 10.7327 7.16663 9.99935C7.16663 9.26602 7.76663 8.66602 8.49996 8.66602C9.23329 8.66602 9.83329 9.26602 9.83329 9.99935ZM16.5 8.66602C15.7666 8.66602 15.1666 9.26602 15.1666 9.99935C15.1666 10.7327 15.7666 11.3327 16.5 11.3327C17.2333 11.3327 17.8333 10.7327 17.8333 9.99935C17.8333 9.26602 17.2333 8.66602 16.5 8.66602Z" fill="#33691E" style="fill:#33691E;fill:color(display-p3 0.2000 0.4118 0.1176);fill-opacity:1;"/>
<path d="M20.5 17.666C20.5 18.1993 20.0333 18.666 19.5 18.666C18.9667 18.666 18.5 18.1993 18.5 17.666C18.5 17.1327 18.9667 16.666 19.5 16.666C20.0333 16.666 20.5 17.1327 20.5 17.666ZM25.5 16.666C24.9667 16.666 24.5 17.1327 24.5 17.666C24.5 18.1993 24.9667 18.666 25.5 18.666C26.0333 18.666 26.5 18.1993 26.5 17.666C26.5 17.1327 26.0333 16.666 25.5 16.666Z" fill="#546E7A" style="fill:#546E7A;fill:color(display-p3 0.3294 0.4314 0.4784);fill-opacity:1;"/>
</svg>
