<svg width="512" height="512" viewBox="0 0 512 512" fill="none" xmlns="http://www.w3.org/2000/svg">
<g clip-path="url(#clip0_7389_117821)">
<path d="M256 512C397.385 512 512 397.385 512 256C512 114.615 397.385 0 256 0C114.615 0 0 114.615 0 256C0 397.385 114.615 512 256 512Z" fill="#6DA544" style="fill:#6DA544;fill:color(display-p3 0.4275 0.6471 0.2667);fill-opacity:1;"/>
<path d="M144.696 306.086C144.696 324.527 159.646 339.477 178.087 339.477H278.261C278.261 354.845 290.719 367.303 306.087 367.303H339.478C354.846 367.303 367.304 354.845 367.304 339.477V306.086H144.696Z" fill="#F0F0F0" style="fill:#F0F0F0;fill:color(display-p3 0.9412 0.9412 0.9412);fill-opacity:1;"/>
<path d="M370.087 144.695V222.608C370.087 234.883 360.101 244.869 347.826 244.869V278.26C378.513 278.26 403.478 253.294 403.478 222.608V144.695H370.087Z" fill="#F0F0F0" style="fill:#F0F0F0;fill:color(display-p3 0.9412 0.9412 0.9412);fill-opacity:1;"/>
<path d="M130.783 222.608C130.783 234.883 120.797 244.869 108.522 244.869V278.26C139.209 278.26 164.174 253.294 164.174 222.608V144.695H130.783V222.608Z" fill="#F0F0F0" style="fill:#F0F0F0;fill:color(display-p3 0.9412 0.9412 0.9412);fill-opacity:1;"/>
<path d="M320 144.695H353.391V222.608H320V144.695Z" fill="#F0F0F0" style="fill:#F0F0F0;fill:color(display-p3 0.9412 0.9412 0.9412);fill-opacity:1;"/>
<path d="M269.913 189.217C269.913 192.286 267.416 194.782 264.348 194.782C261.28 194.782 258.783 192.285 258.783 189.217V144.695H225.392V189.217C225.392 192.286 222.895 194.782 219.827 194.782C216.759 194.782 214.262 192.285 214.262 189.217V144.695H180.87V189.217C180.87 210.698 198.346 228.174 219.827 228.174C228.1 228.174 235.772 225.574 242.088 221.158C248.403 225.573 256.076 228.174 264.349 228.174C266.015 228.174 267.653 228.057 269.264 227.852C266.898 237.601 258.118 244.869 247.653 244.869V278.26C278.34 278.26 303.305 253.294 303.305 222.608V189.217V144.695H269.914V189.217H269.913Z" fill="#F0F0F0" style="fill:#F0F0F0;fill:color(display-p3 0.9412 0.9412 0.9412);fill-opacity:1;"/>
<path d="M180.87 244.867H230.957V278.258H180.87V244.867Z" fill="#F0F0F0" style="fill:#F0F0F0;fill:color(display-p3 0.9412 0.9412 0.9412);fill-opacity:1;"/>
</g>
<defs>
<clipPath id="clip0_7389_117821">
<rect width="512" height="512" fill="white" style="fill:white;fill-opacity:1;"/>
</clipPath>
</defs>
</svg>
