<svg width="512" height="512" viewBox="0 0 512 512" fill="none" xmlns="http://www.w3.org/2000/svg">
<g clip-path="url(#clip0_7391_117831)">
<path d="M512 256.002C512 224.688 506.368 194.691 496.077 166.959L256 155.828L15.923 166.958C5.633 194.691 0 224.688 0 256.002C0 287.316 5.633 317.313 15.923 345.045L256 356.176L496.077 345.046C506.368 317.313 512 287.316 512 256.002Z" fill="#496E2D" style="fill:#496E2D;fill:color(display-p3 0.2863 0.4314 0.1765);fill-opacity:1;"/>
<path d="M256 512.004C366.071 512.004 459.906 442.532 496.077 345.047H15.9229C52.0939 442.532 145.929 512.004 256 512.004Z" fill="#D80027" style="fill:#D80027;fill:color(display-p3 0.8471 0.0000 0.1529);fill-opacity:1;"/>
<path d="M15.9229 166.957H496.078C459.906 69.472 366.071 0 256 0C145.929 0 52.0939 69.472 15.9229 166.957V166.957Z" fill="#F0F0F0" style="fill:#F0F0F0;fill:color(display-p3 0.9412 0.9412 0.9412);fill-opacity:1;"/>
</g>
<defs>
<clipPath id="clip0_7391_117831">
<rect width="512" height="512" fill="white" style="fill:white;fill-opacity:1;"/>
</clipPath>
</defs>
</svg>
