<svg width="512" height="512" viewBox="0 0 512 512" fill="none" xmlns="http://www.w3.org/2000/svg">
<g clip-path="url(#clip0_7391_117849)">
<path d="M15.9229 345.041C52.0939 442.525 145.929 511.998 256 511.998C366.071 511.998 459.906 442.525 496.077 345.041L256 322.781L15.9229 345.041Z" fill="#FFDA44" style="fill:#FFDA44;fill:color(display-p3 1.0000 0.8549 0.2667);fill-opacity:1;"/>
<path d="M256 0C145.929 0 52.0939 69.472 15.9229 166.957L256 189.217L496.077 166.956C459.906 69.472 366.071 0 256 0Z" fill="black" style="fill:black;fill-opacity:1;"/>
<path d="M15.923 166.953C5.633 194.686 0 224.682 0 255.996C0 287.31 5.633 317.306 15.923 345.039H496.078C506.368 317.306 512 287.31 512 255.996C512 224.682 506.368 194.686 496.077 166.953H15.923Z" fill="#D80027" style="fill:#D80027;fill:color(display-p3 0.8471 0.0000 0.1529);fill-opacity:1;"/>
</g>
<defs>
<clipPath id="clip0_7391_117849">
<rect width="512" height="512" fill="white" style="fill:white;fill-opacity:1;"/>
</clipPath>
</defs>
</svg>
