<svg width="512" height="512" viewBox="0 0 512 512" fill="none" xmlns="http://www.w3.org/2000/svg">
<g clip-path="url(#clip0_7393_117863)">
<path d="M256 512C397.385 512 512 397.385 512 256C512 114.615 397.385 0 256 0C114.615 0 0 114.615 0 256C0 397.385 114.615 512 256 512Z" fill="#F0F0F0" style="fill:#F0F0F0;fill:color(display-p3 0.9412 0.9412 0.9412);fill-opacity:1;"/>
<path d="M52.9201 100.141C32.8111 126.304 17.6481 156.459 8.81909 189.218H141.997L52.9201 100.141Z" fill="#0052B4" style="fill:#0052B4;fill:color(display-p3 0.0000 0.3216 0.7059);fill-opacity:1;"/>
<path d="M503.181 189.217C494.352 156.459 479.188 126.304 459.08 100.141L370.005 189.217H503.181Z" fill="#0052B4" style="fill:#0052B4;fill:color(display-p3 0.0000 0.3216 0.7059);fill-opacity:1;"/>
<path d="M8.81909 322.789C17.6491 355.547 32.8121 385.702 52.9201 411.864L141.994 322.789H8.81909Z" fill="#0052B4" style="fill:#0052B4;fill:color(display-p3 0.0000 0.3216 0.7059);fill-opacity:1;"/>
<path d="M411.858 52.9223C385.695 32.8133 355.541 17.6503 322.782 8.82031V141.997L411.858 52.9223Z" fill="#0052B4" style="fill:#0052B4;fill:color(display-p3 0.0000 0.3216 0.7059);fill-opacity:1;"/>
<path d="M100.142 459.082C126.305 479.191 156.46 494.354 189.218 503.184V370.008L100.142 459.082Z" fill="#0052B4" style="fill:#0052B4;fill:color(display-p3 0.0000 0.3216 0.7059);fill-opacity:1;"/>
<path d="M189.217 8.82031C156.459 17.6503 126.304 32.8133 100.142 52.9213L189.217 141.996V8.82031Z" fill="#0052B4" style="fill:#0052B4;fill:color(display-p3 0.0000 0.3216 0.7059);fill-opacity:1;"/>
<path d="M322.783 503.184C355.541 494.354 385.696 479.191 411.858 459.083L322.783 370.008V503.184Z" fill="#0052B4" style="fill:#0052B4;fill:color(display-p3 0.0000 0.3216 0.7059);fill-opacity:1;"/>
<path d="M370.005 322.789L459.08 411.865C479.188 385.703 494.352 355.547 503.181 322.789H370.005Z" fill="#0052B4" style="fill:#0052B4;fill:color(display-p3 0.0000 0.3216 0.7059);fill-opacity:1;"/>
<path d="M509.833 222.609H289.393H289.392V2.167C278.461 0.744 267.317 0 256 0C244.681 0 233.539 0.744 222.609 2.167V222.607V222.608H2.167C0.744 233.539 0 244.683 0 256C0 267.319 0.744 278.461 2.167 289.391H222.607H222.608V509.833C233.539 511.256 244.681 512 256 512C267.317 512 278.461 511.257 289.391 509.833V289.393V289.392H509.833C511.256 278.461 512 267.319 512 256C512 244.683 511.256 233.539 509.833 222.609V222.609Z" fill="#D80027" style="fill:#D80027;fill:color(display-p3 0.8471 0.0000 0.1529);fill-opacity:1;"/>
<path d="M322.783 322.782L437.019 437.018C442.273 431.766 447.285 426.275 452.067 420.583L354.265 322.781H322.783V322.782Z" fill="#D80027" style="fill:#D80027;fill:color(display-p3 0.8471 0.0000 0.1529);fill-opacity:1;"/>
<path d="M189.217 322.781H189.215L74.98 437.016C80.232 442.27 85.723 447.282 91.415 452.064L189.217 354.26V322.781Z" fill="#D80027" style="fill:#D80027;fill:color(display-p3 0.8471 0.0000 0.1529);fill-opacity:1;"/>
<path d="M189.217 189.216V189.214L74.9811 74.9766C69.7271 80.2286 64.7151 85.7196 59.9331 91.4116L157.736 189.215H189.217V189.216Z" fill="#D80027" style="fill:#D80027;fill:color(display-p3 0.8471 0.0000 0.1529);fill-opacity:1;"/>
<path d="M322.783 189.223L437.02 74.9845C431.768 69.7305 426.277 64.7185 420.585 59.9375L322.783 157.741V189.223Z" fill="#D80027" style="fill:#D80027;fill:color(display-p3 0.8471 0.0000 0.1529);fill-opacity:1;"/>
</g>
<defs>
<clipPath id="clip0_7393_117863">
<rect width="512" height="512" fill="white" style="fill:white;fill-opacity:1;"/>
</clipPath>
</defs>
</svg>
