<svg width="512" height="512" viewBox="0 0 512 512" fill="none" xmlns="http://www.w3.org/2000/svg">
<g clip-path="url(#clip0_7393_117892)">
<path d="M256 512C397.385 512 512 397.385 512 256C512 114.615 397.385 0 256 0C114.615 0 0 114.615 0 256C0 397.385 114.615 512 256 512Z" fill="#F0F0F0" style="fill:#F0F0F0;fill:color(display-p3 0.9412 0.9412 0.9412);fill-opacity:1;"/>
<path d="M509.833 222.61H200.349H200.348V6.08594C176.69 11.3319 154.261 19.8349 133.565 31.1279V222.608V222.609H2.167C0.742 233.54 0 244.684 0 256.001C0 267.318 0.742 278.462 2.167 289.392H133.564H133.565V480.873C154.261 492.165 176.69 500.67 200.348 505.915V289.395V289.393H509.833C511.256 278.462 512 267.318 512 256.001C512 244.684 511.256 233.54 509.833 222.61V222.61Z" fill="#0052B4" style="fill:#0052B4;fill:color(display-p3 0.0000 0.3216 0.7059);fill-opacity:1;"/>
</g>
<defs>
<clipPath id="clip0_7393_117892">
<rect width="512" height="512" fill="white" style="fill:white;fill-opacity:1;"/>
</clipPath>
</defs>
</svg>
