<svg width="512" height="512" viewBox="0 0 512 512" fill="none" xmlns="http://www.w3.org/2000/svg">
<g clip-path="url(#clip0_7393_117896)">
<path d="M256 512C397.385 512 512 397.385 512 256C512 114.615 397.385 0 256 0C114.615 0 0 114.615 0 256C0 397.385 114.615 512 256 512Z" fill="#F0F0F0" style="fill:#F0F0F0;fill:color(display-p3 0.9412 0.9412 0.9412);fill-opacity:1;"/>
<path d="M256 0V256L74.98 437.02C121.307 483.346 185.307 512 256 512C397.384 512 512 397.384 512 256C512 114.616 256 0 256 0Z" fill="#D80027" style="fill:#D80027;fill:color(display-p3 0.8471 0.0000 0.1529);fill-opacity:1;"/>
<path d="M256 0C185.307 0 121.307 28.654 74.98 74.98C137.79 137.79 160.087 160.088 256 256H512C512 114.616 397.384 0 256 0Z" fill="#0052B4" style="fill:#0052B4;fill:color(display-p3 0.0000 0.3216 0.7059);fill-opacity:1;"/>
<path d="M175.291 255.998L144.027 241.292L160.676 211.013L126.726 217.508L122.424 183.211L98.7762 208.435L75.1292 183.211L70.8262 217.508L36.8772 211.012L53.5262 241.292L22.2612 255.998L53.5262 270.704L36.8772 300.983L70.8292 294.489L75.1282 328.785L98.7762 303.561L122.424 328.785L126.726 294.489L160.674 300.984L144.026 270.705L175.291 255.998Z" fill="#FFDA44" style="fill:#FFDA44;fill:color(display-p3 1.0000 0.8549 0.2667);fill-opacity:1;"/>
<path d="M68.2733 100.172L78.6773 114.715L95.7223 109.316L85.1043 123.704L95.5083 138.247L78.5423 132.596L67.9253 146.983L68.0583 129.103L51.0933 123.451L68.1413 118.052L68.2733 100.172Z" fill="#FFDA44" style="fill:#FFDA44;fill:color(display-p3 1.0000 0.8549 0.2667);fill-opacity:1;"/>
<path d="M68.2733 365.016L78.6773 379.559L95.7223 374.159L85.1043 388.548L95.5083 403.091L78.5423 397.44L67.9253 411.827L68.0583 393.947L51.0933 388.295L68.1413 382.896L68.2733 365.016Z" fill="#FFDA44" style="fill:#FFDA44;fill:color(display-p3 1.0000 0.8549 0.2667);fill-opacity:1;"/>
<path d="M216.666 232.594L206.263 247.137L189.217 241.736L199.835 256.125L189.431 270.669L206.397 265.017L217.015 279.404L216.881 261.525L233.846 255.873L216.799 250.474L216.666 232.594Z" fill="#FFDA44" style="fill:#FFDA44;fill:color(display-p3 1.0000 0.8549 0.2667);fill-opacity:1;"/>
</g>
<defs>
<clipPath id="clip0_7393_117896">
<rect width="512" height="512" fill="white" style="fill:white;fill-opacity:1;"/>
</clipPath>
</defs>
</svg>
