<svg width="512" height="512" viewBox="0 0 512 512" fill="none" xmlns="http://www.w3.org/2000/svg">
<g clip-path="url(#clip0_7393_117957)">
<path d="M256 512C397.385 512 512 397.385 512 256C512 114.615 397.385 0 256 0C114.615 0 0 114.615 0 256C0 397.385 114.615 512 256 512Z" fill="#F0F0F0" style="fill:#F0F0F0;fill:color(display-p3 0.9412 0.9412 0.9412);fill-opacity:1;"/>
<path d="M256 0C137.721 0 38.1951 80.221 8.81909 189.217H503.182C473.805 80.221 374.279 0 256 0Z" fill="#A2001D" style="fill:#A2001D;fill:color(display-p3 0.6353 0.0000 0.1137);fill-opacity:1;"/>
<path d="M256 511.998C374.279 511.998 473.805 431.777 503.181 322.781H8.81909C38.1951 431.776 137.721 511.998 256 511.998Z" fill="#A2001D" style="fill:#A2001D;fill:color(display-p3 0.6353 0.0000 0.1137);fill-opacity:1;"/>
</g>
<defs>
<clipPath id="clip0_7393_117957">
<rect width="512" height="512" fill="white" style="fill:white;fill-opacity:1;"/>
</clipPath>
</defs>
</svg>
