<svg width="512" height="512" viewBox="0 0 512 512" fill="none" xmlns="http://www.w3.org/2000/svg">
<g clip-path="url(#clip0_7393_117968)">
<path d="M256 512C397.385 512 512 397.385 512 256C512 114.615 397.385 0 256 0C114.615 0 0 114.615 0 256C0 397.385 114.615 512 256 512Z" fill="#F0F0F0" style="fill:#F0F0F0;fill:color(display-p3 0.9412 0.9412 0.9412);fill-opacity:1;"/>
<path d="M8.81885 322.781C23.6308 377.74 56.2759 425.374 100.174 459.103V322.781H8.81885Z" fill="#D80027" style="fill:#D80027;fill:color(display-p3 0.8471 0.0000 0.1529);fill-opacity:1;"/>
<path d="M233.739 511.024C241.077 511.656 248.498 511.998 256 511.998C374.279 511.998 473.805 431.777 503.181 322.781H233.739V511.024Z" fill="#D80027" style="fill:#D80027;fill:color(display-p3 0.8471 0.0000 0.1529);fill-opacity:1;"/>
<path d="M503.181 189.217C473.805 80.221 374.279 0 256 0C248.498 0 241.077 0.342 233.739 0.974V189.217H503.181Z" fill="#D80027" style="fill:#D80027;fill:color(display-p3 0.8471 0.0000 0.1529);fill-opacity:1;"/>
<path d="M100.174 52.8984C56.2759 86.6284 23.6308 134.261 8.81885 189.22H100.174V52.8984Z" fill="#D80027" style="fill:#D80027;fill:color(display-p3 0.8471 0.0000 0.1529);fill-opacity:1;"/>
<path d="M509.833 222.61H200.349H200.348V6.08594C176.69 11.3319 154.261 19.8349 133.565 31.1279V222.608V222.609H2.167C0.742 233.54 0 244.684 0 256.001C0 267.318 0.742 278.462 2.167 289.392H133.564H133.565V480.873C154.261 492.165 176.69 500.67 200.348 505.915V289.395V289.393H509.833C511.256 278.462 512 267.318 512 256.001C512 244.684 511.256 233.54 509.833 222.61V222.61Z" fill="#0052B4" style="fill:#0052B4;fill:color(display-p3 0.0000 0.3216 0.7059);fill-opacity:1;"/>
</g>
<defs>
<clipPath id="clip0_7393_117968">
<rect width="512" height="512" fill="white" style="fill:white;fill-opacity:1;"/>
</clipPath>
</defs>
</svg>
