<svg width="512" height="512" viewBox="0 0 512 512" fill="none" xmlns="http://www.w3.org/2000/svg">
<g clip-path="url(#clip0_7393_117981)">
<path d="M0 255.999C0 366.069 69.472 459.904 166.955 496.075L189.217 255.998L166.955 15.9219C69.472 52.0939 0 145.928 0 255.999Z" fill="#6DA544" style="fill:#6DA544;fill:color(display-p3 0.4275 0.6471 0.2667);fill-opacity:1;"/>
<path d="M512 256C512 114.616 397.384 0 256 0C224.686 0 194.689 5.633 166.955 15.923V496.077C194.689 506.368 224.686 512 256 512C397.384 512 512 397.384 512 256Z" fill="#D80027" style="fill:#D80027;fill:color(display-p3 0.8471 0.0000 0.1529);fill-opacity:1;"/>
<path d="M166.957 345.039C216.134 345.039 256 305.173 256 255.996C256 206.819 216.134 166.953 166.957 166.953C117.78 166.953 77.9141 206.819 77.9141 255.996C77.9141 305.173 117.78 345.039 166.957 345.039Z" fill="#FFDA44" style="fill:#FFDA44;fill:color(display-p3 1.0000 0.8549 0.2667);fill-opacity:1;"/>
<path d="M116.87 211.477V267.129C116.87 294.791 139.294 317.216 166.957 317.216C194.62 317.216 217.044 294.792 217.044 267.129V211.477H116.87Z" fill="#D80027" style="fill:#D80027;fill:color(display-p3 0.8471 0.0000 0.1529);fill-opacity:1;"/>
<path d="M166.957 283.823C157.751 283.823 150.261 276.333 150.261 267.127V244.867H183.652V267.128C183.652 276.333 176.162 283.823 166.957 283.823Z" fill="#F0F0F0" style="fill:#F0F0F0;fill:color(display-p3 0.9412 0.9412 0.9412);fill-opacity:1;"/>
</g>
<defs>
<clipPath id="clip0_7393_117981">
<rect width="512" height="512" fill="white" style="fill:white;fill-opacity:1;"/>
</clipPath>
</defs>
</svg>
