<svg width="512" height="512" viewBox="0 0 512 512" fill="none" xmlns="http://www.w3.org/2000/svg">
<g clip-path="url(#clip0_7393_117998)">
<path d="M256 512C397.385 512 512 397.385 512 256C512 114.615 397.385 0 256 0C114.615 0 0 114.615 0 256C0 397.385 114.615 512 256 512Z" fill="#F0F0F0" style="fill:#F0F0F0;fill:color(display-p3 0.9412 0.9412 0.9412);fill-opacity:1;"/>
<path d="M256 511.996C397.384 511.996 512 397.38 512 255.996C512 224.682 506.368 194.685 496.077 166.953H15.923C5.633 194.685 0 224.682 0 255.996C0 397.38 114.616 511.996 256 511.996Z" fill="#0052B4" style="fill:#0052B4;fill:color(display-p3 0.0000 0.3216 0.7059);fill-opacity:1;"/>
<path d="M256 512.004C366.071 512.004 459.906 442.532 496.077 345.047H15.9229C52.0939 442.532 145.929 512.004 256 512.004Z" fill="#D80027" style="fill:#D80027;fill:color(display-p3 0.8471 0.0000 0.1529);fill-opacity:1;"/>
<path d="M66.1982 144.695V272.401C66.1982 345.045 161.099 367.304 161.099 367.304C161.099 367.304 255.999 345.045 255.999 272.401V144.695H66.1982Z" fill="#F0F0F0" style="fill:#F0F0F0;fill:color(display-p3 0.9412 0.9412 0.9412);fill-opacity:1;"/>
<path d="M88.459 144.695V272.401C88.459 280.929 90.353 288.983 94.105 296.534H228.092C231.844 288.984 233.738 280.929 233.738 272.401V144.695H88.459Z" fill="#D80027" style="fill:#D80027;fill:color(display-p3 0.8471 0.0000 0.1529);fill-opacity:1;"/>
<path d="M205.62 233.735H172.23V211.474H194.491V189.213H172.23V166.953H149.969V189.213H127.709V211.474H149.969V233.735H116.577V255.996H149.969V278.257H172.23V255.996H205.62V233.735Z" fill="#F0F0F0" style="fill:#F0F0F0;fill:color(display-p3 0.9412 0.9412 0.9412);fill-opacity:1;"/>
<path d="M124.471 327.612C138.816 336.627 153.554 341.861 161.099 344.189C168.644 341.862 183.382 336.627 197.727 327.612C212.193 318.52 222.334 308.122 228.092 296.537C221.741 292.044 213.992 289.394 205.621 289.394C202.573 289.394 199.612 289.755 196.765 290.418C190.732 276.71 177.037 267.133 161.1 267.133C145.163 267.133 131.467 276.71 125.435 290.418C122.588 289.755 119.626 289.394 116.579 289.394C108.208 289.394 100.459 292.044 94.1079 296.537C99.8629 308.121 110.004 318.519 124.471 327.612Z" fill="#0052B4" style="fill:#0052B4;fill:color(display-p3 0.0000 0.3216 0.7059);fill-opacity:1;"/>
</g>
<defs>
<clipPath id="clip0_7393_117998">
<rect width="512" height="512" fill="white" style="fill:white;fill-opacity:1;"/>
</clipPath>
</defs>
</svg>
