<svg width="512" height="512" viewBox="0 0 512 512" fill="none" xmlns="http://www.w3.org/2000/svg">
<g clip-path="url(#clip0_7393_118007)">
<path d="M256 512C397.385 512 512 397.385 512 256C512 114.615 397.385 0 256 0C114.615 0 0 114.615 0 256C0 397.385 114.615 512 256 512Z" fill="#F0F0F0" style="fill:#F0F0F0;fill:color(display-p3 0.9412 0.9412 0.9412);fill-opacity:1;"/>
<path d="M496.077 166.955H222.609V100.172H89.043V166.955H15.923C5.633 194.687 0 224.684 0 255.998C0 287.312 5.633 317.308 15.923 345.041L256 367.302L496.077 345.041C506.367 317.308 512 287.312 512 255.998C512 224.684 506.367 194.687 496.077 166.955Z" fill="#0052B4" style="fill:#0052B4;fill:color(display-p3 0.0000 0.3216 0.7059);fill-opacity:1;"/>
<path d="M256 512.004C366.071 512.004 459.906 442.532 496.077 345.047H15.9229C52.0939 442.532 145.929 512.004 256 512.004Z" fill="#D80027" style="fill:#D80027;fill:color(display-p3 0.8471 0.0000 0.1529);fill-opacity:1;"/>
<path d="M89.043 166.958V189.218C89.043 240.339 155.826 256.002 155.826 256.002C155.826 256.002 222.609 240.339 222.609 189.218V166.958L200.348 189.219L155.826 155.828L111.304 189.219L89.043 166.958Z" fill="#F0F0F0" style="fill:#F0F0F0;fill:color(display-p3 0.9412 0.9412 0.9412);fill-opacity:1;"/>
</g>
<defs>
<clipPath id="clip0_7393_118007">
<rect width="512" height="512" fill="white" style="fill:white;fill-opacity:1;"/>
</clipPath>
</defs>
</svg>
