<svg width="512" height="512" viewBox="0 0 512 512" fill="none" xmlns="http://www.w3.org/2000/svg">
<g clip-path="url(#clip0_7393_118031)">
<path d="M256 512C397.385 512 512 397.385 512 256C512 114.615 397.385 0 256 0C114.615 0 0 114.615 0 256C0 397.385 114.615 512 256 512Z" fill="#D80027" style="fill:#D80027;fill:color(display-p3 0.8471 0.0000 0.1529);fill-opacity:1;"/>
<path d="M245.518 209.18L266.523 238.125L300.54 227.095L279.502 256.015L300.504 284.959L266.499 273.887L245.462 302.807L245.484 267.046L211.478 255.974L245.496 244.944L245.518 209.18Z" fill="#F0F0F0" style="fill:#F0F0F0;fill:color(display-p3 0.9412 0.9412 0.9412);fill-opacity:1;"/>
<path d="M188.194 328.345C148.238 328.345 115.846 295.953 115.846 255.997C115.846 216.041 148.238 183.649 188.194 183.649C200.652 183.649 212.374 186.8 222.608 192.345C206.553 176.643 184.596 166.953 160.368 166.953C111.19 166.953 71.3252 206.819 71.3252 255.996C71.3252 305.173 111.191 345.039 160.368 345.039C184.598 345.039 206.554 335.348 222.608 319.647C212.374 325.194 200.652 328.345 188.194 328.345V328.345Z" fill="#F0F0F0" style="fill:#F0F0F0;fill:color(display-p3 0.9412 0.9412 0.9412);fill-opacity:1;"/>
</g>
<defs>
<clipPath id="clip0_7393_118031">
<rect width="512" height="512" fill="white" style="fill:white;fill-opacity:1;"/>
</clipPath>
</defs>
</svg>
