<svg width="104" height="104" viewBox="0 0 104 104" fill="none" xmlns="http://www.w3.org/2000/svg">
<path d="M33.0907 0H0V33.0907H33.0907V0ZM28.3635 28.3635H4.72724V4.72724H28.3635V28.3635Z" fill="#A6ADBB" style="fill:#A6ADBB;fill:color(display-p3 0.6510 0.6784 0.7333);fill-opacity:1;"/>
<path d="M68.5444 94.5453H63.8172V104H103.999V99.2726H68.5444V94.5453Z" fill="#A6ADBB" style="fill:#A6ADBB;fill:color(display-p3 0.6510 0.6784 0.7333);fill-opacity:1;"/>
<path d="M23.6356 9.45395H9.45392V23.6357H23.6356V9.45395Z" fill="#A6ADBB" style="fill:#A6ADBB;fill:color(display-p3 0.6510 0.6784 0.7333);fill-opacity:1;"/>
<path d="M0 104H33.0907V70.9089H0V104ZM4.72724 75.6362H28.3635V99.2724H4.72724V75.6362Z" fill="#A6ADBB" style="fill:#A6ADBB;fill:color(display-p3 0.6510 0.6784 0.7333);fill-opacity:1;"/>
<path d="M23.6356 80.3629H9.45392V94.5446H23.6356V80.3629Z" fill="#A6ADBB" style="fill:#A6ADBB;fill:color(display-p3 0.6510 0.6784 0.7333);fill-opacity:1;"/>
<path d="M70.9089 0V33.0907H104V0H70.9089ZM99.2724 28.3635H75.6362V4.72724H99.2724V28.3635Z" fill="#A6ADBB" style="fill:#A6ADBB;fill:color(display-p3 0.6510 0.6784 0.7333);fill-opacity:1;"/>
<path d="M94.5446 9.45395H80.3629V23.6357H94.5446V9.45395Z" fill="#A6ADBB" style="fill:#A6ADBB;fill:color(display-p3 0.6510 0.6784 0.7333);fill-opacity:1;"/>
<path d="M104 37.8172H94.5453V47.2717H104V37.8172Z" fill="#A6ADBB" style="fill:#A6ADBB;fill:color(display-p3 0.6510 0.6784 0.7333);fill-opacity:1;"/>
<path d="M9.45449 56.7266H0V66.1811H9.45449V56.7266Z" fill="#A6ADBB" style="fill:#A6ADBB;fill:color(display-p3 0.6510 0.6784 0.7333);fill-opacity:1;"/>
<path d="M49.6358 37.8179H30.7268V42.5452H54.363V33.0907V28.3635H59.0903V18.909H54.363H49.6358H44.9085V9.45449H49.6358V14.1817H66.1811V0H61.4539V9.45449H54.363V0H51.9994H42.5449H40.1813V23.6362H49.6358V28.3635H40.1813V33.0907H49.6358V37.8179Z" fill="#A6ADBB" style="fill:#A6ADBB;fill:color(display-p3 0.6510 0.6784 0.7333);fill-opacity:1;"/>
<path d="M7.09086 51.9989H16.5454H21.2726H23.6362V56.7262H14.1817V61.4534H23.6362V66.1807H42.5452V61.4534H28.3635V56.7262V47.2717H21.2726V40.1808H16.5454V47.2717H11.8181V37.8172H0V42.5444H7.09086V51.9989Z" fill="#A6ADBB" style="fill:#A6ADBB;fill:color(display-p3 0.6510 0.6784 0.7333);fill-opacity:1;"/>
<path d="M51.9989 94.5451V82.7269H42.5444V73.2725H37.8172V87.4542H47.2717V94.5451H37.8172V99.2723H47.2717V104H59.0898V99.2723H51.9989V94.5451Z" fill="#A6ADBB" style="fill:#A6ADBB;fill:color(display-p3 0.6510 0.6784 0.7333);fill-opacity:1;"/>
<path d="M75.6353 47.2718H66.1809V35.4537H61.4536V51.9991H85.0898V47.2718H80.3626V42.5446H87.4534V37.8174H80.3626H75.6353H70.9081V42.5446H75.6353V47.2718Z" fill="#A6ADBB" style="fill:#A6ADBB;fill:color(display-p3 0.6510 0.6784 0.7333);fill-opacity:1;"/>
<path d="M70.9079 89.8179H77.9988V94.5451H87.4533V89.8179V85.0906V77.9998H77.9988V85.0906H70.9079V77.9998H66.1807V85.0906H61.4534V66.1816H56.7262V61.4544H51.999V47.2727H35.4536V56.7272H40.1809V51.9999H47.2717V61.4544V70.9089H56.7262V85.0906V89.8179H61.4534H66.1807H70.9079Z" fill="#A6ADBB" style="fill:#A6ADBB;fill:color(display-p3 0.6510 0.6784 0.7333);fill-opacity:1;"/>
<path d="M99.2728 59.0905H92.182H87.4547H75.6366V68.545H70.9094V59.0905H66.1821V73.2723H80.3639V63.8178H87.4547V70.9086H92.182V63.8178H99.2728V77.9995H92.182V92.1812H104V87.454H96.9092V82.7267H104V63.8178V59.0905V51.9997H99.2728V59.0905Z" fill="#A6ADBB" style="fill:#A6ADBB;fill:color(display-p3 0.6510 0.6784 0.7333);fill-opacity:1;"/>
</svg>
