<svg width="48" height="48" viewBox="0 0 48 48" fill="none" xmlns="http://www.w3.org/2000/svg">
<g clip-path="url(#clip0_1971_46053)">
<path d="M8.71265 40.2562V43.0624C8.71265 44.5958 9.63149 46.0058 11.2336 46.9308C12.4632 47.6407 13.9432 47.9998 15.3774 47.9997C16.6521 47.9997 17.8906 47.7159 18.8835 47.1426L42.4405 33.5419C43.8095 32.7515 44.5948 31.4828 44.5948 30.0611V27.2549L8.71265 40.2562Z" fill="url(#paint0_linear_1971_46053)" style=""/>
<path d="M42.0737 23.3873C39.751 22.0464 36.5338 21.9572 34.4239 23.1755L10.8664 36.7763C9.49768 37.5667 8.71252 38.8354 8.71252 40.2571C8.71252 41.7905 9.63137 43.2005 11.2335 44.1255C12.4631 44.8354 13.9431 45.1944 15.3773 45.1944C16.6519 45.1944 17.8905 44.9106 18.8834 44.3373L42.4405 30.7364C43.8095 29.9461 44.5948 28.6774 44.5948 27.2557C44.5947 25.7223 43.6759 24.3123 42.0737 23.3873Z" fill="#E9E5F6" style="fill:#E9E5F6;fill:color(display-p3 0.9137 0.8980 0.9647);fill-opacity:1;"/>
<path d="M13.9903 34.9728L16.5294 36.4388L17.3794 35.9489L17.438 32.9824L13.9903 34.9728Z" fill="url(#paint1_linear_1971_46053)" style=""/>
<path d="M35.6938 25.3748L12.1365 38.9756C10.8267 39.7317 10.991 41.0527 12.5033 41.9259C14.0158 42.7991 16.3037 42.8939 17.6135 42.1376L41.1708 28.537C42.4806 27.7808 42.3163 26.4598 40.8038 25.5866C39.2915 24.7134 37.0036 24.6186 35.6938 25.3748Z" fill="#221C36" style="fill:#221C36;fill:color(display-p3 0.1333 0.1098 0.2118);fill-opacity:1;"/>
<path d="M17.3924 42.2514L37.3969 0.487553L36.6562 0.0616468C36.517 -0.0264782 36.3327 -0.0237594 36.1298 0.0934281L17.4042 10.9047C16.9711 11.1547 16.6199 11.8257 16.6199 12.4032V42.5148C16.8969 42.4507 17.1566 42.3625 17.3924 42.2514Z" fill="url(#paint2_linear_1971_46053)" style=""/>
<path d="M17.4756 13.2366V41.9965L18.9505 41.366L37.5773 30.618V1.63086L17.4756 13.2366Z" fill="url(#paint3_linear_1971_46053)" style=""/>
<path d="M36.8893 0.532613L18.1636 11.3439C17.7305 11.5939 17.3793 12.2649 17.3793 12.8424V42.2578C17.46 42.2202 17.5388 42.181 17.6134 42.1378L18.9505 41.3659V19.2522C19.4797 19.3987 20.1084 19.2988 20.7835 18.909C22.6636 17.8235 24.1876 14.9114 24.1876 12.4046C24.1876 11.5045 23.9903 10.7802 23.6513 10.2702L31.4014 5.79574C31.0624 6.69714 30.8651 7.64927 30.8651 8.54946C30.8651 11.0562 32.3892 12.2084 34.2692 11.123C34.9443 10.7332 35.573 10.1071 36.1022 9.34961V31.4694L37.6734 30.5622V1.12549C37.6736 0.547988 37.3225 0.282488 36.8893 0.532613Z" fill="url(#paint4_linear_1971_46053)" style=""/>
<path d="M32.9291 33.3008C33.8499 31.199 34.4003 28.9062 34.4003 26.7584C34.4003 21.6484 31.2935 19.2998 27.461 21.5124C23.6285 23.7251 20.5218 29.6612 20.5217 34.7713C20.5217 36.919 21.072 38.5764 21.9929 39.6149L32.9291 33.3008Z" fill="url(#paint5_linear_1971_46053)" style=""/>
<path d="M32.1696 27.0882L31.1582 27.6722C30.9817 26.0308 30.2346 25.1616 28.9584 25.8984C26.3436 27.4081 27.0285 32.1178 25.8248 32.8128C25.4927 33.0045 25.3268 32.6992 25.3267 32.0905C25.3267 31.6163 25.4463 30.8992 25.634 30.1287C25.8703 29.159 25.7854 28.4962 25.4117 28.4749C24.9435 28.4482 24.1135 29.8421 23.9361 30.9564C23.8855 31.2744 23.847 31.5931 23.8222 31.9076L22.9263 32.4248C22.6512 32.5837 22.3073 33.3118 22.3073 33.7354C22.3073 34.2842 22.5269 34.4955 22.8834 34.2897L23.8326 33.7417C24.0506 35.3867 24.8495 36.0322 26.0012 35.3672C28.5746 33.8814 27.8275 29.2077 29.0623 28.4948C29.4462 28.2732 29.6537 28.6238 29.6537 29.3708C29.6537 29.9576 29.4995 30.8017 29.2442 31.6741C28.9238 32.7684 28.9838 33.5564 29.3868 33.5905L29.3938 33.5911C29.8073 33.6262 30.5355 32.5077 30.8117 31.4151C30.972 30.7809 31.0872 30.138 31.1478 29.5182L32.1267 28.9531C32.4018 28.7943 32.7457 28.0662 32.7457 27.6427C32.7457 27.0937 32.5261 26.8824 32.1696 27.0882Z" fill="white" style="fill:white;fill-opacity:1;"/>
<path d="M16.0482 24.1737C16.0331 24.1628 16.0171 24.1536 16.0008 24.1451L13.5111 22.648V19.3531C13.5111 18.4576 13.2095 17.8306 12.7347 17.5673L12.7348 17.5665L9.84928 15.8324C9.45862 15.5823 8.93869 15.5923 8.36794 15.9218C7.15425 16.6226 6.17025 18.5026 6.17025 20.1209V26.1323L4.14544 27.3014C3.53775 27.6522 3.18994 28.7768 3.55303 29.2169L7.77553 34.3344C7.80619 34.3716 7.84012 34.4007 7.87659 34.4231V34.4233L10.8201 36.1921L10.8202 36.1919C11.1345 36.3884 11.6405 36.0482 11.9058 35.4203L16.1283 25.4271C16.3677 24.8602 16.2979 24.3529 16.0482 24.1737Z" fill="url(#paint6_linear_1971_46053)" style=""/>
<path d="M6.17008 26.1328L4.14518 27.3019C3.53749 27.6528 3.18977 28.7773 3.55286 29.2174L7.77536 34.335C7.80602 34.372 7.83996 34.4013 7.87643 34.4237V34.4239L10.8199 36.1927L10.82 36.1925L9.11552 27.9027L6.17008 26.1328Z" fill="url(#paint7_linear_1971_46053)" style=""/>
<path d="M6.49842 30.9874L10.7209 36.105C11.0163 36.463 11.6102 36.12 11.9056 35.421L16.1281 25.4277C16.4912 24.5684 16.1434 23.8453 15.5358 24.1962L13.5109 25.3652V19.3538C13.5109 17.7355 12.527 16.9917 11.3132 17.6925C10.0995 18.3932 9.11555 20.2732 9.11555 21.8915V27.903L7.09064 29.072C6.48305 29.4227 6.13533 30.5474 6.49842 30.9874Z" fill="url(#paint8_linear_1971_46053)" style=""/>
<path d="M17.3793 34.5323V42.2573C17.46 42.2197 17.5388 42.1804 17.6134 42.1373L20.8846 40.2486V40.2547L37.6735 30.5617V22.8154L17.3793 34.5323Z" fill="url(#paint9_linear_1971_46053)" style=""/>
</g>
<defs>
<linearGradient id="paint0_linear_1971_46053" x1="8.71265" y1="37.6272" x2="44.5947" y2="37.6272" gradientUnits="userSpaceOnUse">
<stop stop-color="#7662BD" style="stop-color:#7662BD;stop-color:color(display-p3 0.4627 0.3843 0.7412);stop-opacity:1;"/>
<stop offset="0.2216" stop-color="#E9E5F6" style="stop-color:#E9E5F6;stop-color:color(display-p3 0.9137 0.8980 0.9647);stop-opacity:1;"/>
<stop offset="0.3753" stop-color="#A996EB" style="stop-color:#A996EB;stop-color:color(display-p3 0.6627 0.5882 0.9216);stop-opacity:1;"/>
<stop offset="0.437" stop-color="#BBACEF" style="stop-color:#BBACEF;stop-color:color(display-p3 0.7333 0.6745 0.9373);stop-opacity:1;"/>
<stop offset="0.5523" stop-color="#D9D1F5" style="stop-color:#D9D1F5;stop-color:color(display-p3 0.8510 0.8196 0.9608);stop-opacity:1;"/>
<stop offset="0.646" stop-color="#EBE7F9" style="stop-color:#EBE7F9;stop-color:color(display-p3 0.9216 0.9059 0.9765);stop-opacity:1;"/>
<stop offset="0.7058" stop-color="#F2EFFA" style="stop-color:#F2EFFA;stop-color:color(display-p3 0.9490 0.9373 0.9804);stop-opacity:1;"/>
<stop offset="0.7637" stop-color="#E9E4F8" style="stop-color:#E9E4F8;stop-color:color(display-p3 0.9137 0.8941 0.9725);stop-opacity:1;"/>
<stop offset="0.8662" stop-color="#D0C6F3" style="stop-color:#D0C6F3;stop-color:color(display-p3 0.8157 0.7765 0.9529);stop-opacity:1;"/>
<stop offset="1" stop-color="#A996EB" style="stop-color:#A996EB;stop-color:color(display-p3 0.6627 0.5882 0.9216);stop-opacity:1;"/>
</linearGradient>
<linearGradient id="paint1_linear_1971_46053" x1="19.2469" y1="36.0172" x2="15.7687" y2="34.0091" gradientUnits="userSpaceOnUse">
<stop stop-color="#7662BD" style="stop-color:#7662BD;stop-color:color(display-p3 0.4627 0.3843 0.7412);stop-opacity:1;"/>
<stop offset="1" stop-color="#7662BD" stop-opacity="0" style="stop-color:none;stop-opacity:0;"/>
</linearGradient>
<linearGradient id="paint2_linear_1971_46053" x1="23.6201" y1="15.6327" x2="24.801" y2="13.5873" gradientUnits="userSpaceOnUse">
<stop stop-color="#1A4C4E" style="stop-color:#1A4C4E;stop-color:color(display-p3 0.1020 0.2980 0.3059);stop-opacity:1;"/>
<stop offset="1" stop-color="#236568" style="stop-color:#236568;stop-color:color(display-p3 0.1373 0.3961 0.4078);stop-opacity:1;"/>
</linearGradient>
<linearGradient id="paint3_linear_1971_46053" x1="18.7661" y1="16.7559" x2="37.2724" y2="27.4405" gradientUnits="userSpaceOnUse">
<stop stop-color="#06DAAE" style="stop-color:#06DAAE;stop-color:color(display-p3 0.0235 0.8549 0.6824);stop-opacity:1;"/>
<stop offset="1" stop-color="#9BF0DF" style="stop-color:#9BF0DF;stop-color:color(display-p3 0.6078 0.9412 0.8745);stop-opacity:1;"/>
</linearGradient>
<linearGradient id="paint4_linear_1971_46053" x1="21.3331" y1="17.877" x2="43.2443" y2="30.5275" gradientUnits="userSpaceOnUse">
<stop stop-color="#2F878A" style="stop-color:#2F878A;stop-color:color(display-p3 0.1843 0.5294 0.5412);stop-opacity:1;"/>
<stop offset="1" stop-color="#06DAAE" style="stop-color:#06DAAE;stop-color:color(display-p3 0.0235 0.8549 0.6824);stop-opacity:1;"/>
</linearGradient>
<linearGradient id="paint5_linear_1971_46053" x1="19.3397" y1="28.8175" x2="35.6102" y2="34.4525" gradientUnits="userSpaceOnUse">
<stop stop-color="#2F878A" style="stop-color:#2F878A;stop-color:color(display-p3 0.1843 0.5294 0.5412);stop-opacity:1;"/>
<stop offset="1" stop-color="#06DAAE" style="stop-color:#06DAAE;stop-color:color(display-p3 0.0235 0.8549 0.6824);stop-opacity:1;"/>
</linearGradient>
<linearGradient id="paint6_linear_1971_46053" x1="11.3884" y1="23.0457" x2="13.7465" y2="18.9613" gradientUnits="userSpaceOnUse">
<stop stop-color="#00395E" style="stop-color:#00395E;stop-color:color(display-p3 0.0000 0.2235 0.3686);stop-opacity:1;"/>
<stop offset="1" stop-color="#0197F8" style="stop-color:#0197F8;stop-color:color(display-p3 0.0039 0.5922 0.9725);stop-opacity:1;"/>
</linearGradient>
<linearGradient id="paint7_linear_1971_46053" x1="7.50761" y1="31.5441" x2="8.38596" y2="30.0227" gradientUnits="userSpaceOnUse">
<stop stop-color="#00395E" style="stop-color:#00395E;stop-color:color(display-p3 0.0000 0.2235 0.3686);stop-opacity:1;"/>
<stop offset="1" stop-color="#0197F8" style="stop-color:#0197F8;stop-color:color(display-p3 0.0039 0.5922 0.9725);stop-opacity:1;"/>
</linearGradient>
<linearGradient id="paint8_linear_1971_46053" x1="11.3133" y1="38.9678" x2="11.3133" y2="22.7151" gradientUnits="userSpaceOnUse">
<stop stop-color="#0072BC" style="stop-color:#0072BC;stop-color:color(display-p3 0.0000 0.4471 0.7373);stop-opacity:1;"/>
<stop offset="1" stop-color="#2F97F7" style="stop-color:#2F97F7;stop-color:color(display-p3 0.1843 0.5922 0.9686);stop-opacity:1;"/>
</linearGradient>
<linearGradient id="paint9_linear_1971_46053" x1="29.386" y1="35.7571" x2="26.342" y2="30.4847" gradientUnits="userSpaceOnUse">
<stop stop-color="#1A4C4E" style="stop-color:#1A4C4E;stop-color:color(display-p3 0.1020 0.2980 0.3059);stop-opacity:1;"/>
<stop offset="1" stop-color="#1A4C4E" stop-opacity="0" style="stop-color:none;stop-opacity:0;"/>
</linearGradient>
<clipPath id="clip0_1971_46053">
<rect width="48" height="48" fill="white" style="fill:white;fill-opacity:1;"/>
</clipPath>
</defs>
</svg>
