<svg width="60" height="60" viewBox="0 0 60 60" fill="none" xmlns="http://www.w3.org/2000/svg">
<g clip-path="url(#clip0_2146_30368)">
<path d="M0 30.7899V34.593C0 36.6636 0.750586 38.78 2.17078 40.7134C3.55723 42.601 5.53852 44.2961 8.05945 45.7516C12.8326 48.5073 19.1306 50.0879 25.3385 50.0879C30.5339 50.0879 35.3298 48.9709 38.8427 46.9427L54.0035 38.1896C57.8703 35.957 60 32.7681 60 29.2103V25.4072L0 30.7899Z" fill="url(#paint0_linear_2146_30368)" style=""/>
<path d="M22.1814 15.8668L7.02063 24.6199C-0.344606 28.8723 0.579066 36.2998 9.08371 41.21C17.5884 46.1202 30.4534 46.6535 37.8187 42.4011L52.9795 33.648C60.3447 29.3957 59.421 21.968 50.9164 17.0579C42.4117 12.1479 29.5466 11.6145 22.1814 15.8668Z" fill="url(#paint1_linear_2146_30368)" style=""/>
<path d="M35.4814 18.6804L38.1784 13.1707C37.9452 13.1477 37.7121 13.1269 37.479 13.1084L34.7317 18.7211C32.8056 18.8693 31.0107 19.3423 29.6065 20.153L26.1463 22.1508L22.3221 15.7872C22.2752 15.8136 22.2278 15.8393 22.1814 15.8661L21.8128 16.0789L25.6379 22.4443L18.4141 26.615L7.38902 24.4064L7.02046 24.6191C6.97406 24.646 6.92941 24.6734 6.88371 24.7005L17.9058 26.9083L14.4456 28.9061C13.0413 29.7169 12.2221 30.7531 11.9654 31.8652L2.24402 33.4513C2.27601 33.5859 2.31199 33.7205 2.35195 33.855L11.895 32.298C11.7243 34.0254 12.8692 35.8851 15.2634 37.3457L8.83031 41.0598C8.91433 41.1098 8.99789 41.1598 9.08355 41.2093C9.16921 41.2587 9.25593 41.3069 9.34242 41.3555L15.7755 37.6414C18.3053 39.0237 21.5263 39.6848 24.5183 39.5862L21.8214 45.0959C22.0544 45.119 22.2875 45.1397 22.5206 45.1582L25.2681 39.5455C27.1943 39.3974 28.989 38.9243 30.3934 38.1136L33.8536 36.1159L37.6778 42.4795C37.7245 42.4531 37.7721 42.4273 37.8185 42.4005L38.1871 42.1878L34.3619 35.8225L41.5859 31.6518L52.6109 33.8602L52.9794 33.6474C53.0258 33.6207 53.0705 33.5931 53.1162 33.5662L42.0941 31.3584L45.5543 29.3605C46.9585 28.5497 47.7779 27.5136 48.0346 26.4014L57.756 24.8153C57.724 24.6808 57.6879 24.5461 57.648 24.4116L48.105 25.9687C48.2757 24.2412 47.1307 22.3816 44.7364 20.9211L51.1696 17.2069C51.0855 17.157 51.002 17.1068 50.9163 17.0575C50.8308 17.008 50.7439 16.9599 50.6575 16.9112L44.2243 20.6254C41.6945 19.2429 38.4735 18.5819 35.4814 18.6804ZM45.0422 29.0649L29.8814 37.818C26.3182 39.8752 20.0719 39.6162 15.9574 37.2408C11.843 34.8653 11.3945 31.2591 14.9577 29.2019L30.1185 20.4488C33.6817 18.3916 39.928 18.6505 44.0425 21.0259C48.1569 23.4013 48.6054 27.0077 45.0422 29.0649Z" fill="#F2EFFA" style="fill:#F2EFFA;fill:color(display-p3 0.9490 0.9373 0.9804);fill-opacity:1;"/>
<path d="M34.6614 11.9613C40.3084 11.9613 46.2647 13.3377 50.9162 16.0231C59.4209 20.9333 60.3445 28.361 52.9793 32.6132L37.8185 41.3663C34.4816 43.2929 30.0162 44.2371 25.3384 44.2371C19.6914 44.2371 13.7351 42.8608 9.08355 40.1752C0.579024 35.2651 -0.344648 27.8375 7.02059 23.5851L22.1814 14.832C25.5183 12.9055 29.9836 11.9613 34.6614 11.9613ZM34.6614 9.91309C29.466 9.91309 24.6701 11.03 21.1571 13.0583L5.99648 21.8112C2.12953 24.0438 0 27.2327 0 30.7905C0 32.8611 0.750586 34.9775 2.17078 36.911C3.55723 38.7985 5.53852 40.4936 8.05945 41.9491C12.8326 44.7049 19.1306 46.2854 25.3385 46.2854C30.5339 46.2854 35.3298 45.1684 38.8427 43.1402L54.0035 34.3871C57.8705 32.1547 60 28.9658 60 25.408C60 23.3374 59.2493 21.221 57.8292 19.2875C56.4428 17.4 54.4615 15.7048 51.9405 14.2494C47.1673 11.4936 40.8694 9.91309 34.6614 9.91309Z" fill="url(#paint2_linear_2146_30368)" style=""/>
<path d="M50.9163 16.0229C46.2648 13.3373 40.3084 11.9609 34.6614 11.9609C29.9836 11.9609 25.5182 12.9051 22.1813 14.8317L7.0206 23.5848C3.47075 25.6343 1.84712 28.4214 2.06907 31.3088C2.26489 28.7973 3.89685 26.4226 7.0206 24.6191L22.1814 15.866C25.5183 13.9394 29.9836 12.9952 34.6615 12.9952C40.3085 12.9952 46.2649 14.3716 50.9163 17.0571C55.322 19.6006 57.6925 22.8198 57.9309 25.9231C58.1967 22.513 55.814 18.8505 50.9163 16.0229Z" fill="url(#paint3_linear_2146_30368)" style=""/>
<path d="M21.2927 30.8846L17.976 32.7994C17.8112 32.8946 17.8319 33.0607 18.0222 33.1705L23.007 36.0485C23.1972 36.1583 23.485 36.1703 23.6497 36.0751L26.9664 34.1603C27.1311 34.0651 27.1105 33.899 26.9202 33.7892L21.9354 30.9112C21.7453 30.8013 21.4575 30.7894 21.2927 30.8846Z" fill="url(#paint4_linear_2146_30368)" style=""/>
<path d="M22.4146 32.8731C22.0975 32.6901 21.6179 32.6702 21.3433 32.8287C21.0687 32.9873 21.1032 33.2642 21.4202 33.4472C21.1448 33.6062 21.1802 33.8843 21.4999 34.0674C21.8148 34.2477 22.2969 34.267 22.5685 34.1102C22.6872 34.0416 22.7479 33.9509 22.7532 33.8553L22.8954 33.987C23.0136 34.0966 23.0577 34.2227 23.0178 34.3377C23.0145 34.3472 23.0206 34.3577 23.0337 34.3653L23.0771 34.3904C23.0974 34.4021 23.1281 34.4034 23.1457 34.3932L24.053 33.8692C24.0706 33.8591 24.0684 33.8413 24.0481 33.8296L24.0048 33.8045C23.9916 33.7969 23.9735 33.7934 23.9571 33.7954C23.7577 33.8184 23.5393 33.7929 23.3496 33.7247L23.1215 33.6427C23.2872 33.6396 23.4443 33.6046 23.563 33.5361C23.8346 33.3793 23.8012 33.1009 23.4889 32.9191C23.1717 32.7346 22.69 32.7141 22.4146 32.8731Z" fill="#43386B" style="fill:#43386B;fill:color(display-p3 0.2627 0.2196 0.4196);fill-opacity:1;"/>
<path d="M19.1698 33.0486L18.8552 33.2302L18.9295 33.3209C18.9496 33.3456 18.9437 33.3727 18.9141 33.3897C18.8615 33.4201 18.7637 33.4043 18.7296 33.3598L18.3719 32.8937C18.3414 32.8539 18.3521 32.8107 18.3992 32.7835C18.4463 32.7563 18.521 32.7501 18.5898 32.7677L19.3979 32.9738C19.475 32.9935 19.5024 33.05 19.4498 33.0805L19.4461 33.0826C19.4166 33.0996 19.3696 33.1031 19.327 33.0915L19.1698 33.0486ZM18.9829 32.9977L18.5759 32.8868L18.768 33.1217L18.9829 32.9977Z" fill="#43386B" style="fill:#43386B;fill:color(display-p3 0.2627 0.2196 0.4196);fill-opacity:1;"/>
<path d="M25.7729 33.9105L26.0876 33.7289L26.0133 33.6382C25.9931 33.6135 25.9992 33.5864 26.0286 33.5694C26.0812 33.539 26.1791 33.5548 26.2132 33.5992L26.5708 34.0654C26.6013 34.1051 26.5907 34.1484 26.5435 34.1756C26.4964 34.2028 26.4218 34.209 26.353 34.1914L25.5449 33.9853C25.4678 33.9656 25.4403 33.9091 25.493 33.8786L25.4967 33.8765C25.5261 33.8595 25.5731 33.856 25.6158 33.8676L25.7729 33.9105ZM25.9597 33.9614L26.3667 34.0722L26.1746 33.8373L25.9597 33.9614Z" fill="#43386B" style="fill:#43386B;fill:color(display-p3 0.2627 0.2196 0.4196);fill-opacity:1;"/>
<path d="M26.312 27.988L22.9953 29.9028C22.8305 29.998 22.8511 30.1642 23.0414 30.274L28.0263 33.152C28.2166 33.2618 28.5043 33.2737 28.669 33.1786L31.9857 31.2637C32.1504 31.1686 32.1298 31.0024 31.9395 30.8926L26.9547 28.0146C26.7645 27.9049 26.4767 27.8929 26.312 27.988Z" fill="url(#paint5_linear_2146_30368)" style=""/>
<path d="M24.189 30.152L23.8745 30.3336L23.9488 30.4245C23.9689 30.4491 23.9628 30.4763 23.9334 30.4933C23.8808 30.5237 23.783 30.5078 23.7489 30.4634L23.3912 29.9972C23.3607 29.9575 23.3714 29.9142 23.4185 29.887C23.4656 29.8598 23.5403 29.8536 23.609 29.8712L24.4172 30.0773C24.4943 30.097 24.5217 30.1535 24.4691 30.184L24.4653 30.1861C24.4359 30.2031 24.3888 30.2066 24.3462 30.1949L24.189 30.152ZM24.0021 30.1011L23.5951 29.9902L23.7872 30.2251L24.0021 30.1011Z" fill="#FF4757" style="fill:#FF4757;fill:color(display-p3 1.0000 0.2784 0.3412);fill-opacity:1;"/>
<path d="M30.7921 31.014L31.1067 30.8324L31.0324 30.7417C31.0123 30.7171 31.0184 30.6899 31.0478 30.6729C31.1004 30.6425 31.1983 30.6584 31.2324 30.7028L31.59 31.1689C31.6205 31.2087 31.6098 31.2519 31.5627 31.2791C31.5156 31.3063 31.4411 31.3125 31.3722 31.2949L30.564 31.0888C30.4869 31.0691 30.4595 31.0126 30.5121 30.9821L30.5159 30.98C30.5453 30.963 30.5923 30.9595 30.6349 30.9712L30.7921 31.014ZM30.9789 31.0649L31.3859 31.1757L31.1938 30.9408L30.9789 31.0649Z" fill="#FF4757" style="fill:#FF4757;fill:color(display-p3 1.0000 0.2784 0.3412);fill-opacity:1;"/>
<path d="M27.508 29.6319C27.0091 29.6065 26.6313 29.8214 26.667 30.1079C26.1706 30.0873 25.7982 30.3055 25.8424 30.5935C25.8856 30.8754 26.3215 31.1156 26.8095 31.1358L28.3746 31.2007C28.4849 31.2053 28.5677 31.1574 28.5599 31.0937L28.4475 30.1901C28.4123 29.9085 27.9964 29.6568 27.508 29.6319Z" fill="#FF4757" style="fill:#FF4757;fill:color(display-p3 1.0000 0.2784 0.3412);fill-opacity:1;"/>
<path d="M36.35 22.1922L33.0334 24.107C32.8686 24.2022 32.8892 24.3683 33.0795 24.4781L38.0643 27.3562C38.2545 27.466 38.5423 27.4779 38.7071 27.3828L42.0239 25.4679C42.1886 25.3728 42.168 25.2066 41.9777 25.0968L36.9929 22.2188C36.8026 22.109 36.5148 22.097 36.35 22.1922Z" fill="url(#paint6_linear_2146_30368)" style=""/>
<path d="M34.227 24.3562L33.9123 24.5379L33.9866 24.6286C34.0068 24.6532 34.0007 24.6804 33.9713 24.6973C33.9186 24.7277 33.8208 24.7119 33.7867 24.6675L33.429 24.2013C33.3986 24.1616 33.4092 24.1183 33.4563 24.0911C33.5035 24.064 33.5781 24.0577 33.6469 24.0753L34.455 24.2814C34.5321 24.3011 34.5596 24.3576 34.5069 24.3881L34.5032 24.3902C34.4738 24.4072 34.4268 24.4107 34.384 24.3991L34.227 24.3562ZM34.0402 24.3054L33.6332 24.1944L33.8253 24.4293L34.0402 24.3054Z" fill="#FF4757" style="fill:#FF4757;fill:color(display-p3 1.0000 0.2784 0.3412);fill-opacity:1;"/>
<path d="M40.83 25.2191L41.1447 25.0375L41.0704 24.9467C41.0502 24.9221 41.0563 24.895 41.0857 24.878C41.1384 24.8476 41.2362 24.8634 41.2703 24.9078L41.628 25.374C41.6584 25.4137 41.6478 25.457 41.6007 25.4842C41.5536 25.5114 41.4789 25.5176 41.4101 25.5L40.602 25.2939C40.5249 25.2742 40.4975 25.2177 40.5501 25.1872L40.5538 25.1851C40.5832 25.1681 40.6304 25.1646 40.673 25.1762L40.83 25.2191ZM41.017 25.27L41.424 25.3809L41.2319 25.146L41.017 25.27Z" fill="#FF4757" style="fill:#FF4757;fill:color(display-p3 1.0000 0.2784 0.3412);fill-opacity:1;"/>
<path d="M38.3896 24.177L36.5059 24.0989C36.4047 24.0947 36.3287 24.1386 36.3359 24.197L36.4712 25.2846C36.4784 25.343 36.5662 25.3937 36.6673 25.3978L38.5511 25.4759C38.6523 25.4801 38.7283 25.4361 38.721 25.3778L38.5858 24.2902C38.5785 24.2319 38.4908 24.1812 38.3896 24.177Z" fill="#FF4757" style="fill:#FF4757;fill:color(display-p3 1.0000 0.2784 0.3412);fill-opacity:1;"/>
<path d="M31.331 25.0896L28.0143 27.0045C27.8496 27.0996 27.8702 27.2658 28.0605 27.3756L33.0453 30.2536C33.2356 30.3634 33.5233 30.3754 33.6881 30.2802L37.0047 28.3654C37.1695 28.2702 37.1489 28.104 36.9585 27.9942L31.9737 25.1162C31.7834 25.0064 31.4957 24.9945 31.331 25.0896Z" fill="url(#paint7_linear_2146_30368)" style=""/>
<path d="M29.2079 27.2537L28.8933 27.4353L28.9676 27.526C28.9877 27.5506 28.9816 27.5778 28.9522 27.5948C28.8996 27.6253 28.8018 27.6093 28.7677 27.5649L28.41 27.0988C28.3795 27.059 28.3902 27.0158 28.4373 26.9886C28.4844 26.9614 28.5589 26.9552 28.6278 26.9728L29.436 27.1789C29.5131 27.1986 29.5405 27.2551 29.4879 27.2856L29.4841 27.2877C29.4547 27.3047 29.4077 27.3082 29.3651 27.2965L29.2079 27.2537ZM29.0211 27.2028L28.6141 27.092L28.8062 27.3269L29.0211 27.2028Z" fill="#43386B" style="fill:#43386B;fill:color(display-p3 0.2627 0.2196 0.4196);fill-opacity:1;"/>
<path d="M35.8111 28.1156L36.1258 27.9339L36.0515 27.8432C36.0313 27.8186 36.0373 27.7914 36.0668 27.7744C36.1194 27.7441 36.2173 27.7599 36.2514 27.8043L36.6091 28.2705C36.6395 28.3103 36.6289 28.3535 36.5818 28.3807C36.5346 28.4078 36.46 28.4141 36.3912 28.3965L35.5831 28.1903C35.506 28.1707 35.4785 28.1142 35.5312 28.0837L35.5349 28.0816C35.5643 28.0646 35.6113 28.0611 35.6541 28.0728L35.8111 28.1156ZM35.998 28.1666L36.405 28.2775L36.213 28.0426L35.998 28.1666Z" fill="#43386B" style="fill:#43386B;fill:color(display-p3 0.2627 0.2196 0.4196);fill-opacity:1;"/>
<path d="M33.9205 27.5458C33.8861 27.2631 33.4454 27.0147 32.9557 26.9944L31.2788 26.9249C31.2294 26.9229 31.1924 26.9443 31.1959 26.9727L31.3172 27.9477C31.3525 28.2312 31.779 28.4776 32.2701 28.4978C32.6569 28.5139 32.9681 28.3849 33.0655 28.1908L33.1759 28.3014C33.297 28.4227 33.2772 28.5645 33.127 28.6511C33.1136 28.6588 33.1152 28.6724 33.1308 28.6815L33.2227 28.7345C33.2383 28.7436 33.2618 28.7445 33.2753 28.7368L34.3341 28.1255C34.3476 28.1178 34.3459 28.1041 34.3303 28.0952L34.2384 28.0421C34.2229 28.0331 34.1993 28.0321 34.1858 28.0399C34.0357 28.1266 33.7902 28.1379 33.5801 28.0681L33.3885 28.0043C33.7243 27.9481 33.9477 27.7688 33.9205 27.5458Z" fill="#43386B" style="fill:#43386B;fill:color(display-p3 0.2627 0.2196 0.4196);fill-opacity:1;"/>
<path d="M46.6066 26.909H44.4456C43.4726 26.8847 42.4286 27.1103 41.6222 27.576C40.2188 28.3863 40.0665 29.6118 41.2817 30.3134C41.8549 30.6443 42.6304 30.7974 43.4367 30.784L43.436 30.7872H46.0639L46.6066 26.909Z" fill="url(#paint8_linear_2146_30368)" style=""/>
<path d="M49.8713 28.5729L49.8714 27.6328L43.1489 28.1768V29.1282V29.1373V29.1422C43.1526 29.5845 43.4224 30.0062 43.9692 30.3218C45.1845 31.0234 47.3072 30.9354 48.7105 30.1253C49.48 29.6811 49.8733 29.1121 49.8713 28.5729Z" fill="url(#paint9_linear_2146_30368)" style=""/>
<path d="M43.4813 29.9382C43.6075 30.0775 43.77 30.2067 43.9694 30.3219C44.1587 30.4311 44.37 30.5213 44.5971 30.5925V29.6464L43.4813 28.9922V29.9382Z" fill="url(#paint10_linear_2146_30368)" style=""/>
<path d="M43.1489 29.1284V29.1375V29.1424C43.1524 29.5627 43.3967 29.9645 43.8903 30.2743L44.8545 29.7175L43.731 28.1299L43.1488 28.177V29.1284H43.1489Z" fill="url(#paint11_linear_2146_30368)" style=""/>
<path d="M48.7105 29.1798C50.1138 28.3697 50.2662 27.144 49.0509 26.4424C47.8357 25.7408 45.713 25.8288 44.3097 26.6389C42.9063 27.449 42.754 28.6747 43.9692 29.3763C45.1846 30.0779 47.3073 29.99 48.7105 29.1798Z" fill="url(#paint12_linear_2146_30368)" style=""/>
<path d="M48.3692 26.8358C47.48 26.3224 45.9269 26.3869 44.9001 26.9796C43.8734 27.5725 43.7619 28.4691 44.6511 28.9825C45.5403 29.4959 47.0934 29.4314 48.1202 28.8387C49.1469 28.2459 49.2583 27.3492 48.3692 26.8358ZM47.8758 28.6977C47.0049 29.2006 45.6874 29.2552 44.933 28.8197C44.1788 28.3842 44.2734 27.6236 45.1443 27.1207C46.0153 26.6179 47.3328 26.5633 48.0871 26.9987C48.8414 27.4342 48.7468 28.1949 47.8758 28.6977Z" fill="url(#paint13_linear_2146_30368)" style=""/>
<path d="M44.9002 27.0607C45.927 26.4679 47.4801 26.4035 48.3693 26.9169C48.7555 27.1399 48.9527 27.4351 48.9684 27.7464C48.9855 27.4056 48.789 27.0781 48.3693 26.8358C47.4801 26.3224 45.927 26.3869 44.9002 26.9796C44.3195 27.315 44.0318 27.7476 44.0522 28.153C44.0713 27.7716 44.3579 27.3738 44.9002 27.0607Z" fill="url(#paint14_linear_2146_30368)" style=""/>
<path d="M44.9332 28.9008C45.6875 29.3363 47.005 29.2817 47.876 28.7788C48.3716 28.4927 48.6154 28.123 48.5949 27.7773C48.5759 28.099 48.3331 28.4338 47.876 28.6977C47.005 29.2006 45.6875 29.2552 44.9332 28.8197C44.6081 28.6321 44.4411 28.3839 44.4255 28.1222C44.4084 28.4134 44.5747 28.6939 44.9332 28.9008Z" fill="url(#paint15_linear_2146_30368)" style=""/>
<path d="M44.8751 29.0401L44.9931 28.9606C45.0899 29.0061 45.1957 29.0458 45.3076 29.0787L45.2142 29.1674C45.0935 29.1318 44.9795 29.089 44.8751 29.0401ZM44.5916 28.8754C44.5072 28.8149 44.4336 28.7487 44.3728 28.6789L44.5268 28.6253C44.5833 28.6901 44.6515 28.7514 44.7298 28.8076L44.5916 28.8754ZM45.5977 29.2526L45.6633 29.1577C45.787 29.1772 45.9165 29.1897 46.048 29.1951L46.0123 29.2928C45.8706 29.2871 45.731 29.2735 45.5977 29.2526ZM44.2272 28.4569C44.1915 28.3798 44.1688 28.2992 44.1594 28.2173L44.3289 28.1971C44.3376 28.2732 44.3586 28.348 44.3917 28.4196L44.2272 28.4569ZM46.4436 29.2871L46.4484 29.1897C46.5829 29.1808 46.7183 29.1648 46.8509 29.1419L46.8772 29.2355C46.7344 29.2601 46.5885 29.2775 46.4436 29.2871ZM44.1715 27.9682C44.1887 27.8845 44.2194 27.8003 44.2627 27.7178L44.4246 27.7334C44.3845 27.8099 44.3559 27.8881 44.3399 27.9657L44.1715 27.9682ZM47.2984 29.1399L47.2417 29.0532C47.3683 29.0171 47.4913 28.9743 47.6074 28.9262L47.6929 29.0029C47.5676 29.0548 47.4349 29.101 47.2984 29.1399ZM44.4305 27.4749C44.4984 27.3963 44.5788 27.3199 44.6694 27.2478L44.802 27.2975C44.7181 27.3643 44.6434 27.4352 44.5804 27.5082L44.4305 27.4749ZM48.0468 28.8296L47.9356 28.7654L47.9411 28.7622C48.0431 28.7033 48.1371 28.6396 48.2206 28.5731L48.3532 28.6226C48.2633 28.6944 48.1621 28.7629 48.0522 28.8264L48.0468 28.8296ZM45.0819 27.1085L44.9709 27.0441C45.081 26.9808 45.1998 26.9224 45.3243 26.8706L45.4098 26.9472C45.2944 26.9955 45.184 27.0496 45.0819 27.1085ZM48.4416 28.3623C48.5044 28.2894 48.5565 28.2134 48.5966 28.1368L48.7587 28.1523C48.7156 28.2349 48.6593 28.3167 48.5916 28.3953L48.4416 28.3623ZM45.7753 26.8201L45.7184 26.7333C45.8545 26.6943 45.9962 26.662 46.1394 26.6373L46.166 26.7309C46.0331 26.754 45.9017 26.784 45.7753 26.8201ZM48.6806 27.9045C48.6965 27.8269 48.7 27.7491 48.6912 27.6732L48.8606 27.6528C48.8701 27.7346 48.8663 27.8184 48.8493 27.9019L48.6806 27.9045ZM46.5683 26.6828L46.5729 26.5855C46.7176 26.5757 46.8628 26.5736 47.0044 26.5792L46.9689 26.677C46.8374 26.6718 46.7027 26.6738 46.5683 26.6828ZM48.6277 27.4509C48.5944 27.3793 48.5487 27.31 48.492 27.2452L48.6458 27.1915C48.707 27.2614 48.7562 27.336 48.7921 27.4134L48.6277 27.4509ZM47.3537 26.714L47.4191 26.6191C47.5528 26.6399 47.682 26.6685 47.803 26.7039L47.7099 26.7926C47.5976 26.7598 47.4778 26.7333 47.3537 26.714ZM48.2885 27.0631C48.2107 27.0074 48.1209 26.9555 48.0247 26.9105L48.1425 26.831C48.2461 26.8795 48.3427 26.9353 48.4266 26.9953L48.2885 27.0631Z" fill="url(#paint16_linear_2146_30368)" style=""/>
<path d="M47.7157 28.605C48.4845 28.1611 48.568 27.4897 47.9022 27.1052C47.2364 26.7208 46.0733 26.769 45.3046 27.2129C44.5357 27.6568 44.4523 28.3282 45.1181 28.7127C45.7839 29.097 46.9468 29.0488 47.7157 28.605Z" fill="url(#paint17_linear_2146_30368)" style=""/>
<path d="M49.051 26.4425C48.8617 26.3331 48.6504 26.2431 48.4233 26.1719L48.2793 26.2551C48.1379 26.3368 48.1226 26.4602 48.245 26.5309L48.9261 26.9241C49.0485 26.9948 49.2624 26.986 49.4037 26.9043L49.5391 26.8261C49.4128 26.6869 49.2504 26.5577 49.051 26.4425Z" fill="url(#paint18_linear_2146_30368)" style=""/>
<path d="M45.0725 26.2917L45.1085 26.3956C45.1439 26.4977 45.3214 26.5517 45.505 26.5163L46.5267 26.3197C46.7103 26.2843 46.8306 26.173 46.7953 26.0709L46.7616 25.9736C46.1892 25.9964 45.6061 26.1032 45.0725 26.2917Z" fill="url(#paint19_linear_2146_30368)" style=""/>
<path d="M44.1108 27.3052C44.1721 27.1991 44.0783 27.0966 43.9016 27.0762L43.7324 27.0566C43.3991 27.3631 43.207 27.6988 43.1603 28.0293L43.3393 28.0499C43.5161 28.0703 43.709 28.0009 43.7702 27.8949L44.1108 27.3052Z" fill="url(#paint20_linear_2146_30368)" style=""/>
<path d="M44.7754 29.2886L44.0943 28.8954C43.9719 28.8247 43.758 28.8335 43.6167 28.9152L43.4813 28.9934C43.6077 29.1326 43.77 29.2618 43.9694 29.377C44.1587 29.4862 44.37 29.5764 44.5971 29.6476L44.7411 29.5644C44.8825 29.4827 44.8979 29.3592 44.7754 29.2886Z" fill="url(#paint21_linear_2146_30368)" style=""/>
<path d="M46.2587 30.7923C46.8311 30.7696 47.414 30.6625 47.9477 30.4739V29.5283L46.2587 29.8462V30.7923Z" fill="url(#paint22_linear_2146_30368)" style=""/>
<path d="M47.9118 29.4245C47.8764 29.3225 47.6989 29.2684 47.5152 29.3038L46.4936 29.5005C46.31 29.5358 46.1897 29.6472 46.225 29.7492L46.2588 29.8465C46.8311 29.8239 47.4141 29.717 47.9478 29.5286L47.9118 29.4245Z" fill="url(#paint23_linear_2146_30368)" style=""/>
<path d="M49.2878 29.7086C49.6211 29.4022 49.8133 29.0663 49.86 28.7359V27.79L49.2878 28.7627V29.7086Z" fill="url(#paint24_linear_2146_30368)" style=""/>
<path d="M49.8599 27.7908L49.6808 27.7702C49.5041 27.7498 49.3112 27.8191 49.2499 27.9252L48.9093 28.515C48.8482 28.6211 48.9418 28.7236 49.1185 28.744L49.2877 28.7636C49.621 28.457 49.8131 28.1213 49.8599 27.7908Z" fill="url(#paint25_linear_2146_30368)" style=""/>
<path d="M43.9693 29.3771C44.2284 29.5266 44.5288 29.6402 44.8546 29.7187H45.5429V27.4766H43.3744C42.9421 28.1533 43.1272 28.891 43.9693 29.3771Z" fill="url(#paint26_linear_2146_30368)" style=""/>
<path d="M49.4062 27.4948L49.4063 26.5547L42.6838 27.0987V28.0501V28.0591V28.0641H42.684C42.6877 28.5063 42.9574 28.9281 43.5042 29.2438C44.7194 29.9454 46.8421 29.8574 48.2454 29.0473C49.0148 28.603 49.4081 28.0339 49.4062 27.4948Z" fill="url(#paint27_linear_2146_30368)" style=""/>
<path d="M43.0161 28.8601C43.1423 28.9993 43.3047 29.1286 43.5042 29.2438C43.6935 29.353 43.9047 29.4431 44.1319 29.5144V28.5683L43.0161 27.9141V28.8601Z" fill="url(#paint28_linear_2146_30368)" style=""/>
<path d="M42.6838 28.0504V28.0595V28.0644H42.684C42.6877 28.5066 42.9574 28.9284 43.5041 29.2441C43.542 29.2659 43.5807 29.287 43.6202 29.3073L44.675 28.6982L43.7737 27.0107L42.6838 27.099V28.0504Z" fill="url(#paint29_linear_2146_30368)" style=""/>
<path d="M48.2454 28.1017C49.6486 27.2915 49.8011 26.0659 48.5859 25.3643C47.3706 24.6627 45.2479 24.7507 43.8446 25.5608C42.4412 26.3709 42.2889 27.5966 43.5041 28.2982C44.7194 28.9998 46.8421 28.9119 48.2454 28.1017Z" fill="url(#paint30_linear_2146_30368)" style=""/>
<path d="M47.904 25.7577C47.0148 25.2443 45.4617 25.3088 44.4349 25.9015C43.4081 26.4943 43.2967 27.391 44.1859 27.9043C45.0751 28.4177 46.6282 28.3533 47.655 27.7606C48.6817 27.1678 48.7933 26.2711 47.904 25.7577ZM47.4107 27.6196C46.5397 28.1224 45.2222 28.177 44.4679 27.7416C43.7135 27.3061 43.8082 26.5454 44.6792 26.0426C45.5501 25.5397 46.8676 25.4851 47.622 25.9206C48.3763 26.3561 48.2817 27.1167 47.4107 27.6196Z" fill="url(#paint31_linear_2146_30368)" style=""/>
<path d="M44.4349 25.9826C45.4617 25.3899 47.0148 25.3254 47.904 25.8388C48.2901 26.0617 48.4874 26.357 48.5031 26.6684C48.5202 26.3276 48.3237 26.0001 47.904 25.7577C47.0148 25.2443 45.4617 25.3088 44.4349 25.9015C43.8541 26.2369 43.5664 26.6694 43.5868 27.0749C43.6059 26.6935 43.8927 26.2957 44.4349 25.9826Z" fill="url(#paint32_linear_2146_30368)" style=""/>
<path d="M44.4678 27.8227C45.2221 28.2582 46.5397 28.2036 47.4106 27.7007C47.9062 27.4145 48.1501 27.0449 48.1296 26.6992C48.1106 27.0209 47.8678 27.3557 47.4106 27.6196C46.5397 28.1225 45.2222 28.1771 44.4678 27.7416C44.1428 27.554 43.9758 27.3058 43.9602 27.0441C43.9431 27.3353 44.1094 27.6157 44.4678 27.8227Z" fill="url(#paint33_linear_2146_30368)" style=""/>
<path d="M44.41 27.9619L44.528 27.8825C44.6248 27.928 44.7306 27.9677 44.8425 28.0006L44.7491 28.0893C44.6283 28.0538 44.5143 28.011 44.41 27.9619ZM44.1264 27.7974C44.0421 27.7368 43.9684 27.6707 43.9076 27.6009L44.0616 27.5473C44.1181 27.6121 44.1863 27.6734 44.2646 27.7296L44.1264 27.7974ZM45.1326 28.1746L45.1982 28.0797C45.322 28.0992 45.4514 28.1117 45.5829 28.1171L45.5472 28.2148C45.4054 28.2091 45.2659 28.1955 45.1326 28.1746ZM43.762 27.3789C43.7263 27.3018 43.7036 27.2212 43.6943 27.1393L43.8638 27.1191C43.8725 27.1951 43.8936 27.2699 43.9266 27.3416L43.762 27.3789ZM45.9784 28.2091L45.9832 28.1117C46.1177 28.1028 46.2531 28.0867 46.3857 28.0639L46.412 28.1575C46.2692 28.1821 46.1233 28.1995 45.9784 28.2091ZM43.7064 26.8901C43.7237 26.8065 43.7543 26.7223 43.7976 26.6398L43.9595 26.6554C43.9195 26.7319 43.891 26.8101 43.8748 26.8877L43.7064 26.8901ZM46.8333 28.0619L46.7766 27.9752C46.9032 27.9391 47.0262 27.8963 47.1423 27.8482L47.2278 27.9249C47.1024 27.9768 46.9697 28.023 46.8333 28.0619ZM43.9653 26.3969C44.0332 26.3183 44.1136 26.2419 44.2042 26.1698L44.3368 26.2195C44.2529 26.2863 44.1782 26.3572 44.1152 26.4302L43.9653 26.3969ZM47.5816 27.7516L47.4705 27.6874L47.476 27.6842C47.578 27.6253 47.672 27.5616 47.7555 27.4951L47.8881 27.5446C47.7982 27.6164 47.697 27.6849 47.5871 27.7484L47.5816 27.7516ZM44.6167 26.0305L44.5057 25.9662C44.6158 25.9028 44.7346 25.8445 44.8591 25.7927L44.9446 25.8694C44.8292 25.9175 44.7189 25.9716 44.6167 26.0305ZM47.9764 27.2842C48.0392 27.2114 48.0913 27.1354 48.1314 27.0588L48.2935 27.0742C48.2504 27.1569 48.1941 27.2387 48.1264 27.3173L47.9764 27.2842ZM45.3101 25.7421L45.2532 25.6553C45.3893 25.6163 45.531 25.584 45.6742 25.5592L45.7008 25.6529C45.5679 25.676 45.4366 25.7058 45.3101 25.7421ZM48.2154 26.8264C48.2312 26.7488 48.2348 26.671 48.226 26.5952L48.3954 26.5748C48.4049 26.6566 48.4011 26.7404 48.3841 26.8239L48.2154 26.8264ZM46.1031 25.6047L46.1077 25.5073C46.2524 25.4976 46.3976 25.4955 46.5392 25.5011L46.5037 25.599C46.3723 25.5938 46.2375 25.5957 46.1031 25.6047ZM48.1626 26.3729C48.1293 26.3013 48.0836 26.232 48.0269 26.1672L48.1807 26.1135C48.2419 26.1835 48.2911 26.258 48.3271 26.3354L48.1626 26.3729ZM46.8886 25.636L46.954 25.5411C47.0877 25.5619 47.2169 25.5905 47.3379 25.6259L47.2448 25.7148C47.1324 25.6818 47.0126 25.6553 46.8886 25.636ZM47.8233 25.9851C47.7455 25.9294 47.6557 25.8775 47.5595 25.8325L47.6773 25.753C47.7809 25.8015 47.8775 25.8573 47.9614 25.9173L47.8233 25.9851Z" fill="url(#paint34_linear_2146_30368)" style=""/>
<path d="M47.2505 27.5268C48.0193 27.0829 48.1028 26.4115 47.437 26.0271C46.7711 25.6427 45.6081 25.6909 44.8394 26.1348C44.0705 26.5787 43.9871 27.2502 44.6528 27.6345C45.3187 28.0189 46.4818 27.9706 47.2505 27.5268Z" fill="url(#paint35_linear_2146_30368)" style=""/>
<path d="M48.5858 25.3634C48.3966 25.254 48.1853 25.164 47.9582 25.0928L47.8142 25.176C47.6727 25.2577 47.6574 25.3811 47.7798 25.4518L48.4609 25.845C48.5834 25.9157 48.7972 25.9069 48.9386 25.8252L49.0739 25.747C48.9476 25.6078 48.7852 25.4786 48.5858 25.3634Z" fill="url(#paint36_linear_2146_30368)" style=""/>
<path d="M44.6073 25.2125L44.6433 25.3164C44.6787 25.4185 44.8562 25.4725 45.0398 25.4372L46.0615 25.2406C46.2451 25.2052 46.3653 25.0939 46.3301 24.9918L46.2963 24.8945C45.724 24.9171 45.141 25.024 44.6073 25.2125Z" fill="url(#paint37_linear_2146_30368)" style=""/>
<path d="M43.6457 26.2261C43.7069 26.12 43.6132 26.0175 43.4365 25.9971L43.2673 25.9775C42.934 26.284 42.7419 26.6197 42.6952 26.9502L42.8743 26.9708C43.051 26.9912 43.2439 26.9218 43.3051 26.8158L43.6457 26.2261Z" fill="url(#paint38_linear_2146_30368)" style=""/>
<path d="M44.3102 28.2085L43.6291 27.8153C43.5067 27.7446 43.2928 27.7534 43.1515 27.8351L43.0161 27.9133C43.1424 28.0525 43.3047 28.1818 43.5042 28.2969C43.6935 28.4062 43.9047 28.4963 44.1319 28.5675L44.2759 28.4843C44.4173 28.4027 44.4327 28.2791 44.3102 28.2085Z" fill="url(#paint39_linear_2146_30368)" style=""/>
<path d="M45.7935 29.7122C46.3659 29.6895 46.9488 29.5824 47.4825 29.3938V28.4482L45.7935 28.7662V29.7122Z" fill="url(#paint40_linear_2146_30368)" style=""/>
<path d="M47.4466 28.3445C47.4112 28.2424 47.2337 28.1884 47.05 28.2237L46.0284 28.4203C45.8448 28.4557 45.7245 28.567 45.7598 28.6691L45.7936 28.7664C46.3659 28.7436 46.9489 28.6369 47.4826 28.4484L47.4466 28.3445Z" fill="url(#paint41_linear_2146_30368)" style=""/>
<path d="M48.8226 28.6295C49.1559 28.3231 49.3481 27.9873 49.3947 27.6568V26.7109L48.8226 27.6836V28.6295Z" fill="url(#paint42_linear_2146_30368)" style=""/>
<path d="M49.3948 26.7107L49.2157 26.6901C49.039 26.6697 48.8461 26.7391 48.7848 26.8451L48.4443 27.4349C48.3831 27.541 48.4767 27.6435 48.6534 27.6639L48.8227 27.6835C49.1558 27.377 49.3479 27.0413 49.3948 26.7107Z" fill="url(#paint43_linear_2146_30368)" style=""/>
<path d="M45.7172 25.6055C45.7172 25.6055 44.6827 25.6117 43.7569 25.6138C42.4358 26.4236 42.3149 27.6121 43.5043 28.2988C43.8374 28.4911 44.239 28.624 44.6751 28.6991H45.8726L45.7172 25.6055Z" fill="url(#paint44_linear_2146_30368)" style=""/>
<path d="M49.7658 26.4801L49.7659 25.54L43.0435 26.084V27.0355V27.0445V27.0494C43.0472 27.4917 43.3171 27.9134 43.8638 28.229C45.079 28.9306 47.2017 28.8426 48.6051 28.0325C49.3744 27.5884 49.7677 27.0193 49.7658 26.4801Z" fill="url(#paint45_linear_2146_30368)" style=""/>
<path d="M43.3756 27.8455C43.5018 27.9847 43.6642 28.1139 43.8637 28.2291C44.053 28.3384 44.2642 28.4285 44.4914 28.4997V27.5537L43.3756 26.8994V27.8455Z" fill="url(#paint46_linear_2146_30368)" style=""/>
<path d="M43.0433 27.0366V27.0456V27.0505H43.0435C43.047 27.4709 43.2911 27.8726 43.7847 28.1824L44.749 27.6257L44.3724 25.9775L43.0435 26.0851V27.0366H43.0433Z" fill="url(#paint47_linear_2146_30368)" style=""/>
<path d="M48.6049 27.087C50.0082 26.2769 50.1605 25.0512 48.9453 24.3496C47.7301 23.648 45.6073 23.736 44.204 24.5461C42.8008 25.3563 42.6484 26.5819 43.8636 27.2835C45.0789 27.9851 47.2017 27.8972 48.6049 27.087Z" fill="url(#paint48_linear_2146_30368)" style=""/>
<path d="M48.2637 24.7431C47.3744 24.2297 45.8214 24.2941 44.7946 24.8868C43.7678 25.4797 43.6563 26.3763 44.5455 26.8897C45.4348 27.4031 46.9878 27.3386 48.0146 26.7459C49.0413 26.1532 49.1528 25.2565 48.2637 24.7431ZM47.7703 26.6049C46.8994 27.1078 45.5818 27.1624 44.8275 26.7269C44.0732 26.2915 44.1678 25.5308 45.0388 25.0279C45.9097 24.5251 47.2273 24.4705 47.9816 24.906C48.7358 25.3414 48.6412 26.1021 47.7703 26.6049Z" fill="url(#paint49_linear_2146_30368)" style=""/>
<path d="M44.7945 24.9679C45.8213 24.3751 47.3744 24.3108 48.2636 24.8242C48.6498 25.0472 48.847 25.3424 48.8627 25.6536C48.8798 25.3128 48.6833 24.9853 48.2636 24.7431C47.3744 24.2297 45.8213 24.2941 44.7945 24.8868C44.2138 25.2222 43.9261 25.6548 43.9464 26.0602C43.9655 25.6788 44.2522 25.281 44.7945 24.9679Z" fill="url(#paint50_linear_2146_30368)" style=""/>
<path d="M44.8275 26.808C45.5818 27.2435 46.8993 27.1889 47.7703 26.6861C48.2659 26.3999 48.5097 26.0303 48.4892 25.6846C48.4702 26.0063 48.2274 26.3411 47.7703 26.605C46.8993 27.1078 45.5818 27.1624 44.8275 26.727C44.5024 26.5393 44.3354 26.2911 44.3198 26.0295C44.3027 26.3207 44.469 26.6011 44.8275 26.808Z" fill="url(#paint51_linear_2146_30368)" style=""/>
<path d="M44.7695 26.9474L44.8875 26.868C44.9843 26.9134 45.0901 26.9532 45.202 26.9861L45.1086 27.0748C44.9879 27.0392 44.8739 26.9964 44.7695 26.9474ZM44.486 26.7828C44.4016 26.7223 44.3281 26.6561 44.2672 26.5862L44.4212 26.5327C44.4777 26.5975 44.5459 26.6588 44.6242 26.7149L44.486 26.7828ZM45.4921 27.16L45.5577 27.0651C45.6815 27.0845 45.8109 27.0971 45.9424 27.1024L45.9067 27.2002C45.765 27.1944 45.6254 27.1808 45.4921 27.16ZM44.1216 26.3643C44.0859 26.2872 44.0632 26.2065 44.0538 26.1246L44.2233 26.1045C44.232 26.1805 44.2531 26.2553 44.2861 26.3269L44.1216 26.3643ZM46.3381 27.1944L46.3429 27.0971C46.4773 27.0882 46.6127 27.0721 46.7453 27.0492L46.7716 27.1429C46.6288 27.1675 46.4829 27.1848 46.3381 27.1944ZM44.0659 25.8755C44.0831 25.7918 44.1138 25.7077 44.1571 25.6252L44.319 25.6408C44.279 25.7173 44.2504 25.7955 44.2343 25.873L44.0659 25.8755ZM47.1928 27.0473L47.1361 26.9605C47.2627 26.9244 47.3857 26.8817 47.5018 26.8335L47.5873 26.9103C47.462 26.9622 47.3293 27.0083 47.1928 27.0473ZM44.3249 25.3823C44.3929 25.3036 44.4732 25.2272 44.5638 25.1551L44.6964 25.2048C44.6125 25.2717 44.5378 25.3425 44.4748 25.4155L44.3249 25.3823ZM47.9412 26.7369L47.8301 26.6727L47.8356 26.6696C47.9377 26.6106 48.0316 26.547 48.1151 26.4804L48.2477 26.53C48.1579 26.6017 48.0566 26.6703 47.9467 26.7338L47.9412 26.7369ZM44.9763 25.0158L44.8654 24.9515C44.9754 24.8882 45.0942 24.8297 45.2187 24.7779L45.3042 24.8546C45.1888 24.9028 45.0784 24.957 44.9763 25.0158ZM48.336 26.2696C48.3988 26.1967 48.4509 26.1208 48.491 26.0441L48.6531 26.0596C48.61 26.1422 48.5537 26.224 48.486 26.3026L48.336 26.2696ZM45.6697 24.7274L45.6128 24.6407C45.7491 24.6017 45.8906 24.5693 46.0338 24.5446L46.0604 24.6382C45.9275 24.6613 45.7961 24.6913 45.6697 24.7274ZM48.575 25.8119C48.5909 25.7343 48.5944 25.6565 48.5856 25.5805L48.755 25.5601C48.7645 25.6419 48.7607 25.7257 48.7437 25.8093L48.575 25.8119ZM46.4627 24.5901L46.4673 24.4927C46.612 24.483 46.7572 24.4808 46.8988 24.4865L46.8633 24.5842C46.7319 24.5792 46.5972 24.5812 46.4627 24.5901ZM48.5221 25.3582C48.4888 25.2866 48.4431 25.2174 48.3864 25.1526L48.5402 25.0989C48.6014 25.1687 48.6506 25.2434 48.6866 25.3207L48.5221 25.3582ZM47.2481 24.6214L47.3135 24.5264C47.4472 24.5473 47.5765 24.5759 47.6974 24.6113L47.6043 24.7C47.492 24.6672 47.3722 24.6407 47.2481 24.6214ZM48.1829 24.9705C48.1051 24.9148 48.0154 24.8629 47.9191 24.8179L48.0369 24.7383C48.1405 24.7868 48.2371 24.8426 48.321 24.9026L48.1829 24.9705Z" fill="url(#paint52_linear_2146_30368)" style=""/>
<path d="M47.6101 26.5122C48.379 26.0683 48.4624 25.3969 47.7966 25.0124C47.1308 24.6281 45.9678 24.6762 45.1991 25.1201C44.4303 25.564 44.3468 26.2354 45.0126 26.6199C45.6782 27.0043 46.8412 26.956 47.6101 26.5122Z" fill="url(#paint53_linear_2146_30368)" style=""/>
<path d="M48.9454 24.3507C48.7561 24.2414 48.5449 24.1513 48.3177 24.0801L48.1737 24.1633C48.0323 24.245 48.017 24.3684 48.1394 24.4391L48.8205 24.8323C48.9429 24.903 49.1568 24.8942 49.2983 24.8125L49.4336 24.7343C49.3072 24.5951 49.1449 24.4659 48.9454 24.3507Z" fill="url(#paint54_linear_2146_30368)" style=""/>
<path d="M44.9669 24.1989L45.0029 24.3029C45.0383 24.4049 45.2158 24.4589 45.3995 24.4236L46.4211 24.2269C46.6047 24.1915 46.725 24.0802 46.6897 23.9781L46.6559 23.8809C46.0836 23.9036 45.5005 24.0105 44.9669 24.1989Z" fill="url(#paint55_linear_2146_30368)" style=""/>
<path d="M44.0053 25.2124C44.0665 25.1064 43.9729 25.0038 43.7961 24.9834L43.6269 24.9639C43.2936 25.2703 43.1016 25.6061 43.0548 25.9365L43.2339 25.9571C43.4106 25.9775 43.6035 25.9082 43.6648 25.8021L44.0053 25.2124Z" fill="url(#paint56_linear_2146_30368)" style=""/>
<path d="M44.6698 27.1958L43.9887 26.8026C43.8663 26.7319 43.6524 26.7407 43.511 26.8224L43.3756 26.9006C43.5019 27.0398 43.6642 27.1691 43.8637 27.2843C44.053 27.3935 44.2642 27.4836 44.4913 27.5548L44.6354 27.4716C44.7769 27.39 44.7923 27.2664 44.6698 27.1958Z" fill="url(#paint57_linear_2146_30368)" style=""/>
<path d="M46.1531 28.6995C46.7255 28.6768 47.3084 28.5696 47.8421 28.3811V27.4355L46.1531 27.7535V28.6995Z" fill="url(#paint58_linear_2146_30368)" style=""/>
<path d="M47.8062 27.3308C47.7708 27.2287 47.5933 27.1747 47.4097 27.2101L46.388 27.4067C46.2044 27.4421 46.0842 27.5534 46.1194 27.6555L46.1532 27.7528C46.7255 27.7301 47.3086 27.6233 47.8422 27.4348L47.8062 27.3308Z" fill="url(#paint59_linear_2146_30368)" style=""/>
<path d="M49.1823 27.6159C49.5155 27.3094 49.7077 26.9736 49.7544 26.6431V25.6973L49.1823 26.6699V27.6159Z" fill="url(#paint60_linear_2146_30368)" style=""/>
<path d="M49.7543 25.698L49.5752 25.6774C49.3985 25.657 49.2056 25.7264 49.1443 25.8324L48.8038 26.4222C48.7426 26.5283 48.8362 26.6308 49.0129 26.6512L49.1822 26.6708C49.5154 26.3642 49.7075 26.0285 49.7543 25.698Z" fill="url(#paint61_linear_2146_30368)" style=""/>
<path d="M45.6127 24.972L43.8316 24.793C42.7843 25.5894 42.7662 26.6503 43.8637 27.2839C44.1228 27.4334 44.4231 27.547 44.7489 27.6255H46.338L45.6127 24.972Z" fill="url(#paint62_linear_2146_30368)" style=""/>
<path d="M50.2151 25.401L50.2153 24.4609L43.4928 25.0049V25.9564V25.9654V25.9703H43.4929C43.4967 26.4126 43.7663 26.8343 44.3131 27.15C45.5283 27.8516 47.6511 27.7636 49.0544 26.9535C49.8237 26.5093 50.2171 25.9402 50.2151 25.401Z" fill="url(#paint63_linear_2146_30368)" style=""/>
<path d="M43.8251 26.7664C43.9513 26.9056 44.1137 27.0348 44.3132 27.15C44.5024 27.2593 44.7137 27.3494 44.9408 27.4206V26.4746L43.8251 25.8203V26.7664Z" fill="url(#paint64_linear_2146_30368)" style=""/>
<path d="M49.0545 26.0069C50.4578 25.1968 50.6102 23.9711 49.3949 23.2695C48.1797 22.5679 46.057 22.656 44.6537 23.4661C43.2503 24.2763 43.098 25.5019 44.3132 26.2035C45.5285 26.9051 47.6512 26.817 49.0545 26.0069Z" fill="url(#paint65_linear_2146_30368)" style=""/>
<path d="M48.7131 23.663C47.8239 23.1496 46.2708 23.214 45.244 23.8068C44.2172 24.3995 44.1058 25.2962 44.995 25.8096C45.8842 26.323 47.4373 26.2586 48.4641 25.6658C49.4908 25.0731 49.6023 24.1763 48.7131 23.663ZM48.2198 25.5249C47.3488 26.0277 46.0313 26.0823 45.277 25.6468C44.5226 25.2114 44.6173 24.4507 45.4882 23.9479C46.3592 23.445 47.6767 23.3904 48.4311 23.8259C49.1854 24.2612 49.0908 25.0219 48.2198 25.5249Z" fill="url(#paint66_linear_2146_30368)" style=""/>
<path d="M45.244 23.8888C46.2708 23.296 47.8239 23.2317 48.7131 23.7451C49.0992 23.9681 49.2965 24.2633 49.3122 24.5746C49.3293 24.2338 49.1327 23.9063 48.7131 23.664C47.8239 23.1506 46.2708 23.215 45.244 23.8077C44.6632 24.1431 44.3755 24.5757 44.3959 24.9811C44.415 24.5997 44.7018 24.2018 45.244 23.8888Z" fill="url(#paint67_linear_2146_30368)" style=""/>
<path d="M45.2769 25.7289C46.0313 26.1644 47.3487 26.1098 48.2197 25.607C48.7154 25.3208 48.9592 24.9512 48.9387 24.6055C48.9197 24.9271 48.6769 25.262 48.2197 25.5259C47.3488 26.0287 46.0313 26.0833 45.2769 25.6478C44.9518 25.4602 44.7848 25.2121 44.7693 24.9504C44.7522 25.2417 44.9186 25.522 45.2769 25.7289Z" fill="url(#paint68_linear_2146_30368)" style=""/>
<path d="M45.219 25.8682L45.337 25.7887C45.4338 25.8342 45.5396 25.8739 45.6515 25.9069L45.5581 25.9956C45.4373 25.9601 45.3233 25.9172 45.219 25.8682ZM44.9354 25.7037C44.851 25.6432 44.7774 25.577 44.7166 25.5071L44.8706 25.4536C44.927 25.5184 44.9952 25.5797 45.0735 25.6358L44.9354 25.7037ZM45.9415 26.0809L46.0072 25.986C46.1309 26.0054 46.2604 26.018 46.3919 26.0233L46.3561 26.1211C46.2143 26.1153 46.0749 26.1017 45.9415 26.0809ZM44.5709 25.2852C44.5353 25.2081 44.5125 25.1274 44.5032 25.0455L44.6726 25.0254C44.6813 25.1013 44.7024 25.1762 44.7354 25.2478L44.5709 25.2852ZM46.7874 26.1153L46.7922 26.018C46.9266 26.0091 47.0621 25.993 47.1946 25.9701L47.221 26.0638C47.0781 26.0884 46.9322 26.1057 46.7874 26.1153ZM44.5154 24.7964C44.5326 24.7127 44.5633 24.6286 44.6065 24.5461L44.7685 24.5617C44.7284 24.6382 44.6998 24.7164 44.6838 24.7939L44.5154 24.7964ZM47.6423 25.968L47.5856 25.8813C47.7121 25.8452 47.8352 25.8025 47.9513 25.7543L48.0367 25.831C47.9113 25.8831 47.7787 25.9291 47.6423 25.968ZM44.7742 24.3032C44.8422 24.2245 44.9226 24.1481 45.0132 24.076L45.1457 24.1257C45.0618 24.1925 44.9872 24.2634 44.9241 24.3364L44.7742 24.3032ZM48.3905 25.6578L48.2794 25.5936L48.2849 25.5905C48.387 25.5315 48.481 25.4679 48.5644 25.4013L48.6971 25.4509C48.6072 25.5226 48.5059 25.5912 48.396 25.6547L48.3905 25.6578ZM45.4257 23.9367L45.3147 23.8725C45.4247 23.8092 45.5436 23.7507 45.668 23.6989L45.7536 23.7756C45.6381 23.8237 45.5279 23.8779 45.4257 23.9367ZM48.7853 25.1905C48.8481 25.1176 48.9003 25.0417 48.9404 24.965L49.1024 24.9805C49.0593 25.0631 49.0031 25.1449 48.9353 25.2235L48.7853 25.1905ZM46.1191 23.6483L46.0621 23.5616C46.1984 23.5226 46.34 23.4902 46.4832 23.4655L46.5098 23.5591C46.3769 23.5821 46.2455 23.6121 46.1191 23.6483ZM49.0244 24.7326C49.0402 24.6551 49.0437 24.5773 49.0349 24.5014L49.2044 24.4812C49.2139 24.5628 49.21 24.6467 49.193 24.7303L49.0244 24.7326ZM46.9121 23.511L46.9166 23.4136C47.0614 23.4039 47.2066 23.4017 47.3481 23.4074L47.3126 23.5052C47.1813 23.5001 47.0465 23.5019 46.9121 23.511ZM48.9715 24.2791C48.9383 24.2075 48.8925 24.1383 48.8358 24.0735L48.9897 24.0198C49.0509 24.0898 49.1001 24.1643 49.1361 24.2416L48.9715 24.2791ZM47.6976 23.5423L47.763 23.4473C47.8967 23.4682 48.0259 23.4968 48.1469 23.5322L48.0537 23.6209C47.9413 23.5881 47.8216 23.5616 47.6976 23.5423ZM48.6323 23.8914C48.5545 23.8357 48.4647 23.7838 48.3685 23.7388L48.4863 23.6592C48.5899 23.7077 48.6864 23.7635 48.7703 23.8235L48.6323 23.8914Z" fill="url(#paint69_linear_2146_30368)" style=""/>
<path d="M48.0595 25.4331C48.8284 24.9892 48.9118 24.3178 48.246 23.9333C47.5801 23.549 46.4172 23.5971 45.6484 24.041C44.8797 24.4849 44.7961 25.1564 45.462 25.5408C46.1277 25.9252 47.2908 25.877 48.0595 25.4331Z" fill="url(#paint70_linear_2146_30368)" style=""/>
<path d="M49.3949 23.2696C49.2056 23.1604 48.9943 23.0703 48.7672 22.999L48.6232 23.0822C48.4817 23.1639 48.4665 23.2873 48.5889 23.3581L49.2699 23.7513C49.3924 23.8219 49.6063 23.8131 49.7476 23.7314L49.8829 23.6533C49.7566 23.5141 49.5942 23.3847 49.3949 23.2696Z" fill="url(#paint71_linear_2146_30368)" style=""/>
<path d="M45.4164 23.1187L45.4524 23.2227C45.4877 23.3247 45.6653 23.3787 45.8489 23.3435L46.8706 23.1468C47.0542 23.1114 47.1744 23.0001 47.1392 22.898L47.1054 22.8008C46.5331 22.8234 45.9501 22.9303 45.4164 23.1187Z" fill="url(#paint72_linear_2146_30368)" style=""/>
<path d="M44.4548 24.1323C44.516 24.0263 44.4223 23.9238 44.2456 23.9034L44.0764 23.8838C43.7431 24.1902 43.551 24.526 43.5043 24.8564L43.6833 24.8771C43.8601 24.8975 44.0529 24.8281 44.1142 24.722L44.4548 24.1323Z" fill="url(#paint73_linear_2146_30368)" style=""/>
<path d="M45.1192 26.1157L44.4381 25.7225C44.3156 25.6519 44.1018 25.6607 43.9604 25.7423L43.8251 25.8205C43.9514 25.9597 44.1137 26.089 44.3132 26.2042C44.5024 26.3134 44.7137 26.4035 44.9408 26.4748L45.0848 26.3916C45.2263 26.3099 45.2416 26.1864 45.1192 26.1157Z" fill="url(#paint74_linear_2146_30368)" style=""/>
<path d="M46.6025 27.6185C47.175 27.5959 47.7579 27.4886 48.2916 27.3001V26.3545L46.6025 26.6724V27.6185Z" fill="url(#paint75_linear_2146_30368)" style=""/>
<path d="M48.2556 26.2507C48.2202 26.1486 48.0426 26.0946 47.859 26.13L46.8374 26.3266C46.6537 26.362 46.5335 26.4734 46.5688 26.5754L46.6025 26.6727C47.1749 26.65 47.758 26.5432 48.2915 26.3548L48.2556 26.2507Z" fill="url(#paint76_linear_2146_30368)" style=""/>
<path d="M49.6316 26.5358C49.9649 26.2293 50.1571 25.8936 50.2037 25.563V24.6172L49.6316 25.5898V26.5358Z" fill="url(#paint77_linear_2146_30368)" style=""/>
<path d="M50.2039 24.617L50.0248 24.5963C49.8481 24.5759 49.6552 24.6453 49.5939 24.7514L49.2533 25.3412C49.1922 25.4472 49.2858 25.5498 49.4625 25.5702L49.6317 25.5897C49.9649 25.2833 50.1571 24.9475 50.2039 24.617Z" fill="url(#paint78_linear_2146_30368)" style=""/>
<path d="M22.4076 37.1004H21.1562C20.1832 37.0761 19.1393 37.3017 18.3329 37.7674C16.9295 38.5777 16.7772 39.8032 17.9924 40.5048C18.5656 40.8358 19.3411 40.9888 20.1474 40.9754L20.1467 40.9786H21.8649L22.4076 37.1004Z" fill="url(#paint79_linear_2146_30368)" style=""/>
<path d="M25.4775 38.7555L25.4776 37.8154L18.7551 38.3594V39.3109V39.3199V39.3248C18.7589 39.7671 19.0286 40.1888 19.5754 40.5045C20.7907 41.2061 22.9134 41.1181 24.3167 40.308C25.0862 39.8637 25.4795 39.2946 25.4775 38.7555Z" fill="url(#paint80_linear_2146_30368)" style=""/>
<path d="M19.0873 40.1209C19.2135 40.2601 19.3759 40.3893 19.5754 40.5045C19.7646 40.6137 19.9759 40.7039 20.203 40.7751V39.8291L19.0873 39.1748V40.1209Z" fill="url(#paint81_linear_2146_30368)" style=""/>
<path d="M18.7551 39.3112V39.3202V39.3252C18.7581 39.6808 18.9335 40.0231 19.2862 40.3078L20.1466 39.811L19.1096 38.3311L18.755 38.3598V39.3112H18.7551Z" fill="url(#paint82_linear_2146_30368)" style=""/>
<path d="M24.3167 39.3624C25.7199 38.5522 25.8724 37.3266 24.6571 36.625C23.4419 35.9234 21.3192 36.0114 19.9159 36.8215C18.5125 37.6318 18.3602 38.8573 19.5754 39.5589C20.7907 40.2605 22.9134 40.1725 24.3167 39.3624Z" fill="url(#paint83_linear_2146_30368)" style=""/>
<path d="M24.3167 40.3087C25.7199 39.4985 25.8724 38.2729 24.6571 37.5713C23.4419 36.8697 21.3192 36.9577 19.9159 37.7678C18.5125 38.5779 18.3602 39.8036 19.5754 40.5052C20.7907 41.2068 22.9134 41.1188 24.3167 40.3087Z" fill="url(#paint84_linear_2146_30368)" style=""/>
<path d="M23.9753 37.0184C23.0861 36.5051 21.533 36.5695 20.5062 37.1622C19.4794 37.7551 19.368 38.6518 20.2572 39.1651C21.1464 39.6785 22.6995 39.614 23.7263 39.0213C24.753 38.4286 24.8645 37.5318 23.9753 37.0184ZM23.482 38.8803C22.611 39.3832 21.2935 39.4378 20.5392 39.0023C19.7848 38.5668 19.8795 37.8062 20.7504 37.3033C21.6214 36.8005 22.9389 36.7459 23.6933 37.1813C24.4476 37.6168 24.353 38.3775 23.482 38.8803Z" fill="url(#paint85_linear_2146_30368)" style=""/>
<path d="M20.5062 37.2433C21.533 36.6506 23.0861 36.5861 23.9753 37.0995C24.3614 37.3226 24.5587 37.6177 24.5744 37.9291C24.5915 37.5883 24.395 37.2608 23.9753 37.0184C23.0861 36.5051 21.533 36.5695 20.5062 37.1622C19.9254 37.4976 19.6377 37.9302 19.6581 38.3356C19.6772 37.9543 19.964 37.5565 20.5062 37.2433Z" fill="url(#paint86_linear_2146_30368)" style=""/>
<path d="M20.5393 39.0834C21.2935 39.5189 22.611 39.4643 23.4821 38.9614C23.9778 38.6753 24.2215 38.3057 24.201 37.96C24.182 38.2816 23.9392 38.6164 23.4821 38.8804C22.6111 39.3832 21.2936 39.4378 20.5393 39.0023C20.2142 38.8147 20.0472 38.5666 20.0316 38.3048C20.0144 38.5961 20.1808 38.8765 20.5393 39.0834Z" fill="url(#paint87_linear_2146_30368)" style=""/>
<path d="M20.4813 39.2227L20.5993 39.1432C20.6961 39.1887 20.8019 39.2284 20.9138 39.2614L20.8204 39.3501C20.6997 39.3146 20.5856 39.2717 20.4813 39.2227ZM20.1977 39.0582C20.1134 38.9977 20.0397 38.9315 19.9789 38.8616L20.1329 38.8081C20.1894 38.8729 20.2576 38.9342 20.3359 38.9903L20.1977 39.0582ZM21.2039 39.4353L21.2695 39.3403C21.3932 39.3598 21.5227 39.3723 21.6542 39.3777L21.6185 39.4755C21.4767 39.4698 21.3372 39.4562 21.2039 39.4353ZM19.8332 38.6397C19.7976 38.5626 19.7749 38.4819 19.7656 38.4L19.9351 38.3799C19.9437 38.4558 19.9648 38.5307 19.9979 38.6023L19.8332 38.6397ZM22.0497 39.4697L22.0545 39.3723C22.1889 39.3634 22.3244 39.3474 22.457 39.3245L22.4833 39.4181C22.3405 39.4429 22.1947 39.4602 22.0497 39.4697ZM19.7777 38.1508C19.795 38.0671 19.8256 37.983 19.8689 37.9005L20.0308 37.9162C19.9907 37.9927 19.9623 38.0708 19.9461 38.1484L19.7777 38.1508ZM22.9046 39.3225L22.8479 39.2358C22.9745 39.1997 23.0975 39.1569 23.2136 39.1088L23.2991 39.1855C23.1737 39.2376 23.041 39.2836 22.9046 39.3225ZM20.0367 37.6575C20.1046 37.5789 20.185 37.5025 20.2756 37.4304L20.4082 37.4801C20.3243 37.5469 20.2496 37.6178 20.1866 37.6908L20.0367 37.6575ZM23.6529 39.0122L23.5416 38.948L23.5471 38.9448C23.6492 38.8859 23.7432 38.8223 23.8266 38.7557L23.9593 38.8053C23.8694 38.877 23.7682 38.9455 23.6582 39.009L23.6529 39.0122ZM20.688 37.2912L20.577 37.227C20.6871 37.1637 20.8059 37.1052 20.9304 37.0534L21.0159 37.1302C20.9006 37.1781 20.7902 37.2324 20.688 37.2912ZM24.0477 38.545C24.1105 38.4721 24.1626 38.3962 24.2027 38.3195L24.3648 38.335C24.3216 38.4176 24.2654 38.4994 24.1977 38.578L24.0477 38.545ZM21.3815 37.0028L21.3246 36.9161C21.4609 36.8771 21.6024 36.8447 21.7456 36.82L21.7722 36.9136C21.6392 36.9366 21.5078 36.9666 21.3815 37.0028ZM24.2867 38.0871C24.3025 38.0096 24.3061 37.9317 24.2973 37.8559L24.4667 37.8357C24.4762 37.9173 24.4723 38.0012 24.4554 38.0848L24.2867 38.0871ZM22.1745 36.8655L22.1791 36.7681C22.3238 36.7583 22.469 36.7562 22.6106 36.7619L22.5751 36.8596C22.4436 36.8546 22.3088 36.8564 22.1745 36.8655ZM24.2339 37.6336C24.2006 37.562 24.1549 37.4928 24.0982 37.428L24.252 37.3743C24.3132 37.4442 24.3624 37.5188 24.3984 37.5961L24.2339 37.6336ZM22.9599 36.8967L23.0253 36.8018C23.159 36.8227 23.2882 36.8513 23.4092 36.8867L23.3161 36.9754C23.2038 36.9426 23.0839 36.9161 22.9599 36.8967ZM23.8946 37.2458C23.8168 37.1902 23.727 37.1383 23.6308 37.0933L23.7486 37.0137C23.8522 37.0622 23.9487 37.118 24.0327 37.178L23.8946 37.2458Z" fill="url(#paint88_linear_2146_30368)" style=""/>
<path d="M23.3218 38.7876C24.0907 38.3437 24.1741 37.6723 23.5083 37.2878C22.8424 36.9034 21.6794 36.9516 20.9107 37.3955C20.1418 37.8394 20.0584 38.5108 20.7241 38.8953C21.3901 39.2797 22.5531 39.2315 23.3218 38.7876Z" fill="url(#paint89_linear_2146_30368)" style=""/>
<path d="M24.6572 36.6251C24.4679 36.5159 24.2566 36.4257 24.0295 36.3545L23.8855 36.4377C23.7441 36.5194 23.7288 36.6428 23.8511 36.7136L24.5322 37.1067C24.6547 37.1774 24.8686 37.1686 25.0099 37.0869L25.1452 37.0087C25.0189 36.8695 24.8566 36.7402 24.6572 36.6251Z" fill="url(#paint90_linear_2146_30368)" style=""/>
<path d="M20.6788 36.4742L20.7148 36.5781C20.7502 36.6802 20.9277 36.7342 21.1114 36.6989L22.133 36.5023C22.3166 36.4669 22.4369 36.3556 22.4016 36.2535L22.3679 36.1562C21.7955 36.179 21.2124 36.2857 20.6788 36.4742Z" fill="url(#paint91_linear_2146_30368)" style=""/>
<path d="M19.717 37.4878C19.7782 37.3818 19.6845 37.2792 19.5078 37.2588L19.3386 37.2393C19.0053 37.5457 18.8132 37.8814 18.7665 38.2119L18.9455 38.2325C19.1223 38.2529 19.3151 38.1836 19.3764 38.0775L19.717 37.4878Z" fill="url(#paint92_linear_2146_30368)" style=""/>
<path d="M20.3815 39.4702L19.7004 39.077C19.5779 39.0064 19.3641 39.0151 19.2228 39.0968L19.0874 39.175C19.2137 39.3142 19.376 39.4435 19.5755 39.5587C19.7647 39.6679 19.976 39.758 20.2031 39.8292L20.3472 39.746C20.4886 39.6644 20.504 39.541 20.3815 39.4702Z" fill="url(#paint93_linear_2146_30368)" style=""/>
<path d="M21.8649 40.9739C22.4373 40.9512 23.0202 40.8441 23.5539 40.6555V39.71L21.8649 40.0279V40.9739Z" fill="url(#paint94_linear_2146_30368)" style=""/>
<path d="M23.5179 39.6062C23.4825 39.5041 23.305 39.4501 23.1213 39.4855L22.0997 39.6821C21.9161 39.7175 21.7958 39.8288 21.8311 39.9309L21.8648 40.0282C22.4372 40.0054 23.0203 39.8987 23.5539 39.7102L23.5179 39.6062Z" fill="url(#paint95_linear_2146_30368)" style=""/>
<path d="M24.894 39.8912C25.2273 39.5848 25.4195 39.2491 25.4662 38.9185V37.9727L24.894 38.9453V39.8912Z" fill="url(#paint96_linear_2146_30368)" style=""/>
<path d="M25.4662 37.9724L25.2871 37.9518C25.1104 37.9314 24.9175 38.0008 24.8562 38.1068L24.5157 38.6966C24.4545 38.8027 24.5481 38.9052 24.7249 38.9256L24.8941 38.9452C25.2272 38.6388 25.4194 38.3029 25.4662 37.9724Z" fill="url(#paint97_linear_2146_30368)" style=""/>
<path d="M25.097 37.5924L25.0971 36.6523L18.3746 37.1963V38.1478V38.1568V38.1617H18.3748C18.3785 38.604 18.6483 39.0257 19.1949 39.3414C20.4102 40.043 22.5329 39.955 23.9362 39.1449C24.7057 38.7007 25.099 38.1316 25.097 37.5924Z" fill="url(#paint98_linear_2146_30368)" style=""/>
<path d="M23.9362 38.1993C25.3395 37.3892 25.4919 36.1635 24.2767 35.4619C23.0614 34.7603 20.9387 34.8483 19.5354 35.6585C18.132 36.4686 17.9797 37.6942 19.1949 38.3958C20.4102 39.0974 22.5329 39.0094 23.9362 38.1993Z" fill="url(#paint99_linear_2146_30368)" style=""/>
<path d="M23.5948 35.8554C22.7056 35.342 21.1525 35.4064 20.1257 35.9992C19.0989 36.592 18.9875 37.4887 19.8767 38.002C20.7659 38.5154 22.319 38.4509 23.3458 37.8582C24.3725 37.2654 24.4841 36.3686 23.5948 35.8554ZM23.1015 37.7172C22.2305 38.2201 20.913 38.2747 20.1587 37.8392C19.4044 37.4038 19.499 36.6431 20.37 36.1402C21.2409 35.6374 22.5584 35.5828 23.3128 36.0183C24.0671 36.4536 23.9725 37.2143 23.1015 37.7172Z" fill="url(#paint100_linear_2146_30368)" style=""/>
<path d="M20.1257 36.0802C21.1524 35.4875 22.7056 35.4231 23.5948 35.9365C23.9809 36.1595 24.1782 36.4547 24.1939 36.766C24.211 36.4252 24.0145 36.0977 23.5948 35.8554C22.7056 35.342 21.1525 35.4064 20.1257 35.9992C19.5449 36.3345 19.2572 36.7671 19.2776 37.1726C19.2967 36.7911 19.5835 36.3933 20.1257 36.0802Z" fill="url(#paint101_linear_2146_30368)" style=""/>
<path d="M20.1586 37.9204C20.913 38.3558 22.2305 38.3012 23.1014 37.7984C23.597 37.5122 23.8409 37.1426 23.8204 36.7969C23.8014 37.1186 23.5586 37.4534 23.1014 37.7173C22.2305 38.2201 20.913 38.2747 20.1586 37.8393C19.8336 37.6516 19.6666 37.4034 19.651 37.1418C19.6339 37.4329 19.8003 37.7133 20.1586 37.9204Z" fill="url(#paint102_linear_2146_30368)" style=""/>
<path d="M20.1008 38.0596L20.2188 37.9801C20.3156 38.0256 20.4214 38.0653 20.5333 38.0983L20.4399 38.187C20.3191 38.1515 20.2051 38.1087 20.1008 38.0596ZM19.8172 37.8951C19.7329 37.8346 19.6592 37.7685 19.5984 37.6985L19.7524 37.645C19.8089 37.7098 19.8771 37.7711 19.9554 37.8272L19.8172 37.8951ZM20.8234 38.2722L20.889 38.1773C21.0127 38.1967 21.1422 38.2092 21.2737 38.2146L21.238 38.3124C21.0962 38.3067 20.9567 38.2931 20.8234 38.2722ZM19.4527 37.4766C19.4171 37.3995 19.3944 37.3189 19.3851 37.2369L19.5546 37.2168C19.5633 37.2928 19.5843 37.3676 19.6174 37.4392L19.4527 37.4766ZM21.6692 38.3067L21.674 38.2094C21.8085 38.2005 21.9439 38.1844 22.0765 38.1615L22.1028 38.2552C21.96 38.2798 21.8141 38.2971 21.6692 38.3067ZM19.3972 36.9878C19.4145 36.9041 19.4451 36.82 19.4884 36.7375L19.6504 36.7532C19.6104 36.8297 19.5819 36.9079 19.5657 36.9855L19.3972 36.9878ZM22.5241 38.1594L22.4674 38.0727C22.594 38.0366 22.717 37.9939 22.8331 37.9457L22.9186 38.0224C22.7932 38.0745 22.6605 38.1205 22.5241 38.1594ZM19.6561 36.4944C19.724 36.4158 19.8044 36.3394 19.895 36.2673L20.0276 36.317C19.9436 36.3838 19.869 36.4547 19.806 36.5277L19.6561 36.4944ZM23.2724 37.8491L23.1611 37.785L23.1667 37.7819C23.2687 37.7229 23.3627 37.6593 23.4461 37.5927L23.5788 37.6423C23.4889 37.714 23.3877 37.7826 23.2777 37.8461L23.2724 37.8491ZM20.3075 36.1281L20.1965 36.0639C20.3066 36.0006 20.4254 35.9421 20.5499 35.8903L20.6354 35.9671C20.52 36.015 20.4097 36.0693 20.3075 36.1281ZM23.6672 37.3819C23.73 37.309 23.7821 37.2331 23.8222 37.1564L23.9843 37.1719C23.9411 37.2545 23.8849 37.3363 23.8172 37.4149L23.6672 37.3819ZM21.0009 35.8397L20.944 35.753C21.0802 35.714 21.2218 35.6816 21.365 35.6569L21.3916 35.7505C21.2587 35.7735 21.1274 35.8035 21.0009 35.8397ZM23.9062 36.924C23.922 36.8465 23.9256 36.7687 23.9168 36.6928L24.0862 36.6724C24.0957 36.7541 24.0918 36.838 24.0749 36.9216L23.9062 36.924ZM21.7939 35.7024L21.7985 35.605C21.9432 35.5953 22.0884 35.5932 22.23 35.5988L22.1945 35.6965C22.0631 35.6915 21.9283 35.6933 21.7939 35.7024ZM23.8534 36.4705C23.8201 36.3989 23.7744 36.3297 23.7177 36.2649L23.8715 36.2112C23.9327 36.2812 23.9819 36.3557 24.0179 36.4329L23.8534 36.4705ZM22.5794 35.7337L22.6448 35.6387C22.7785 35.6596 22.9077 35.6882 23.0287 35.7236L22.9354 35.8124C22.8232 35.7795 22.7034 35.753 22.5794 35.7337ZM23.5141 36.0828C23.4363 36.0271 23.3465 35.9752 23.2503 35.9302L23.3681 35.8506C23.4717 35.8991 23.5683 35.9549 23.6522 36.0149L23.5141 36.0828Z" fill="url(#paint103_linear_2146_30368)" style=""/>
<path d="M22.9413 37.6245C23.7102 37.1806 23.7936 36.5092 23.1277 36.1247C22.4619 35.7404 21.2989 35.7885 20.5302 36.2324C19.7613 36.6763 19.6779 37.3477 20.3437 37.7322C21.0096 38.1166 22.1725 38.0684 22.9413 37.6245Z" fill="url(#paint104_linear_2146_30368)" style=""/>
<path d="M24.2767 35.462C24.0875 35.3528 23.8762 35.2627 23.6491 35.1914L23.505 35.2746C23.3637 35.3563 23.3482 35.4797 23.4707 35.5505L24.1518 35.9436C24.2742 36.0143 24.4881 36.0055 24.6294 35.9238L24.7648 35.8457C24.6385 35.7064 24.476 35.5771 24.2767 35.462Z" fill="url(#paint105_linear_2146_30368)" style=""/>
<path d="M20.2981 35.3112L20.3341 35.4152C20.3695 35.5172 20.547 35.5713 20.7306 35.5359L21.7523 35.3392C21.9359 35.3038 22.0561 35.1925 22.0209 35.0904L21.9871 34.9932C21.4149 35.0159 20.8318 35.1228 20.2981 35.3112Z" fill="url(#paint106_linear_2146_30368)" style=""/>
<path d="M19.3365 36.3247C19.3977 36.2187 19.304 36.1161 19.1273 36.0957L18.9581 36.0762C18.6248 36.3826 18.4327 36.7184 18.386 37.0488L18.565 37.0696C18.7418 37.09 18.9347 37.0206 18.9959 36.9145L19.3365 36.3247Z" fill="url(#paint107_linear_2146_30368)" style=""/>
<path d="M18.7069 38.9588C18.8331 39.098 18.9955 39.2272 19.195 39.3424C19.3843 39.4516 19.5955 39.5418 19.8227 39.613V38.667L18.7069 38.0127V38.9588Z" fill="url(#paint108_linear_2146_30368)" style=""/>
<path d="M20.001 38.3081L19.3199 37.9149C19.1975 37.8443 18.9836 37.853 18.8423 37.9347L18.7069 38.0129C18.8332 38.1521 18.9955 38.2814 19.195 38.3966C19.3843 38.5059 19.5955 38.5959 19.8227 38.6671L19.9667 38.5839C20.1081 38.5023 20.1235 38.3787 20.001 38.3081Z" fill="url(#paint109_linear_2146_30368)" style=""/>
<path d="M21.4843 39.8109C22.0567 39.7882 22.6396 39.681 23.1733 39.4925V38.5469L21.4843 38.8648V39.8109Z" fill="url(#paint110_linear_2146_30368)" style=""/>
<path d="M23.1374 38.4431C23.102 38.341 22.9245 38.287 22.7408 38.3224L21.7192 38.519C21.5356 38.5544 21.4153 38.6657 21.4506 38.7678L21.4843 38.8651C22.0567 38.8423 22.6398 38.7356 23.1734 38.5471L23.1374 38.4431Z" fill="url(#paint111_linear_2146_30368)" style=""/>
<path d="M24.5135 38.7282C24.8468 38.4217 25.039 38.086 25.0857 37.7554V36.8096L24.5135 37.7822V38.7282Z" fill="url(#paint112_linear_2146_30368)" style=""/>
<path d="M25.0856 36.8093L24.9065 36.7887C24.7298 36.7683 24.5369 36.8377 24.4756 36.9438L24.1351 37.5336C24.0739 37.6396 24.1675 37.7421 24.3442 37.7625L24.5135 37.7821C24.8466 37.4757 25.0388 37.1398 25.0856 36.8093Z" fill="url(#paint113_linear_2146_30368)" style=""/>
</g>
<defs>
<linearGradient id="paint0_linear_2146_30368" x1="14.0846" y1="37.7477" x2="37.1498" y2="37.7477" gradientUnits="userSpaceOnUse">
<stop stop-color="#46230E" style="stop-color:#46230E;stop-color:color(display-p3 0.2745 0.1373 0.0549);stop-opacity:1;"/>
<stop offset="1" stop-color="#8B451C" style="stop-color:#8B451C;stop-color:color(display-p3 0.5451 0.2706 0.1098);stop-opacity:1;"/>
</linearGradient>
<linearGradient id="paint1_linear_2146_30368" x1="10.5047" y1="17.8736" x2="29.1998" y2="50.2535" gradientUnits="userSpaceOnUse">
<stop stop-color="#2F878A" style="stop-color:#2F878A;stop-color:color(display-p3 0.1843 0.5294 0.5412);stop-opacity:1;"/>
<stop offset="1" stop-color="#06DAAE" style="stop-color:#06DAAE;stop-color:color(display-p3 0.0235 0.8549 0.6824);stop-opacity:1;"/>
</linearGradient>
<linearGradient id="paint2_linear_2146_30368" x1="9.55523" y1="16.2955" x2="55.7122" y2="42.9443" gradientUnits="userSpaceOnUse">
<stop stop-color="#8B451C" style="stop-color:#8B451C;stop-color:color(display-p3 0.5451 0.2706 0.1098);stop-opacity:1;"/>
<stop offset="1" stop-color="#CC8241" style="stop-color:#CC8241;stop-color:color(display-p3 0.8000 0.5098 0.2549);stop-opacity:1;"/>
</linearGradient>
<linearGradient id="paint3_linear_2146_30368" x1="44.2617" y1="21.6349" x2="-3.35331" y2="21.6349" gradientUnits="userSpaceOnUse">
<stop stop-color="#46230E" style="stop-color:#46230E;stop-color:color(display-p3 0.2745 0.1373 0.0549);stop-opacity:1;"/>
<stop offset="1" stop-color="#8B451C" style="stop-color:#8B451C;stop-color:color(display-p3 0.5451 0.2706 0.1098);stop-opacity:1;"/>
</linearGradient>
<linearGradient id="paint4_linear_2146_30368" x1="10.4319" y1="26.5203" x2="17.3151" y2="38.4421" gradientUnits="userSpaceOnUse">
<stop stop-color="#C9BAEC" style="stop-color:#C9BAEC;stop-color:color(display-p3 0.7882 0.7294 0.9255);stop-opacity:1;"/>
<stop offset="1" stop-color="#F3EEFA" style="stop-color:#F3EEFA;stop-color:color(display-p3 0.9529 0.9333 0.9804);stop-opacity:1;"/>
</linearGradient>
<linearGradient id="paint5_linear_2146_30368" x1="15.4512" y1="23.6238" x2="22.3344" y2="35.5454" gradientUnits="userSpaceOnUse">
<stop stop-color="#C9BAEC" style="stop-color:#C9BAEC;stop-color:color(display-p3 0.7882 0.7294 0.9255);stop-opacity:1;"/>
<stop offset="1" stop-color="#F3EEFA" style="stop-color:#F3EEFA;stop-color:color(display-p3 0.9529 0.9333 0.9804);stop-opacity:1;"/>
</linearGradient>
<linearGradient id="paint6_linear_2146_30368" x1="25.4892" y1="17.8279" x2="32.3724" y2="29.7496" gradientUnits="userSpaceOnUse">
<stop stop-color="#C9BAEC" style="stop-color:#C9BAEC;stop-color:color(display-p3 0.7882 0.7294 0.9255);stop-opacity:1;"/>
<stop offset="1" stop-color="#F3EEFA" style="stop-color:#F3EEFA;stop-color:color(display-p3 0.9529 0.9333 0.9804);stop-opacity:1;"/>
</linearGradient>
<linearGradient id="paint7_linear_2146_30368" x1="20.4701" y1="20.7253" x2="27.3533" y2="32.6471" gradientUnits="userSpaceOnUse">
<stop stop-color="#C9BAEC" style="stop-color:#C9BAEC;stop-color:color(display-p3 0.7882 0.7294 0.9255);stop-opacity:1;"/>
<stop offset="1" stop-color="#F3EEFA" style="stop-color:#F3EEFA;stop-color:color(display-p3 0.9529 0.9333 0.9804);stop-opacity:1;"/>
</linearGradient>
<linearGradient id="paint8_linear_2146_30368" x1="44.4443" y1="28.8472" x2="37.7816" y2="28.8472" gradientUnits="userSpaceOnUse">
<stop stop-color="#1A4C4E" style="stop-color:#1A4C4E;stop-color:color(display-p3 0.1020 0.2980 0.3059);stop-opacity:1;"/>
<stop offset="1" stop-color="#1A4C4E" stop-opacity="0" style="stop-color:none;stop-opacity:0;"/>
</linearGradient>
<linearGradient id="paint9_linear_2146_30368" x1="45.0367" y1="29.2143" x2="48.0055" y2="29.2143" gradientUnits="userSpaceOnUse">
<stop stop-color="#43386B" style="stop-color:#43386B;stop-color:color(display-p3 0.2627 0.2196 0.4196);stop-opacity:1;"/>
<stop offset="1" stop-color="#594A8E" style="stop-color:#594A8E;stop-color:color(display-p3 0.3490 0.2902 0.5569);stop-opacity:1;"/>
</linearGradient>
<linearGradient id="paint10_linear_2146_30368" x1="45.0368" y1="29.7922" x2="48.0056" y2="29.7922" gradientUnits="userSpaceOnUse">
<stop stop-color="#C5BAEB" style="stop-color:#C5BAEB;stop-color:color(display-p3 0.7725 0.7294 0.9216);stop-opacity:1;"/>
<stop offset="1" stop-color="#D7D1EB" style="stop-color:#D7D1EB;stop-color:color(display-p3 0.8431 0.8196 0.9216);stop-opacity:1;"/>
</linearGradient>
<linearGradient id="paint11_linear_2146_30368" x1="43.6787" y1="29.0137" x2="44.6992" y2="30.7811" gradientUnits="userSpaceOnUse">
<stop stop-color="#43386B" style="stop-color:#43386B;stop-color:color(display-p3 0.2627 0.2196 0.4196);stop-opacity:1;"/>
<stop offset="1" stop-color="#43386B" stop-opacity="0" style="stop-color:none;stop-opacity:0;"/>
</linearGradient>
<linearGradient id="paint12_linear_2146_30368" x1="43.8478" y1="29.4502" x2="46.3375" y2="25.138" gradientUnits="userSpaceOnUse">
<stop stop-color="#7662BD" style="stop-color:#7662BD;stop-color:color(display-p3 0.4627 0.3843 0.7412);stop-opacity:1;"/>
<stop offset="1" stop-color="#A996EB" style="stop-color:#A996EB;stop-color:color(display-p3 0.6627 0.5882 0.9216);stop-opacity:1;"/>
</linearGradient>
<linearGradient id="paint13_linear_2146_30368" x1="48.1112" y1="28.852" x2="42.9085" y2="25.7882" gradientUnits="userSpaceOnUse">
<stop stop-color="#43386B" style="stop-color:#43386B;stop-color:color(display-p3 0.2627 0.2196 0.4196);stop-opacity:1;"/>
<stop offset="1" stop-color="#594A8E" style="stop-color:#594A8E;stop-color:color(display-p3 0.3490 0.2902 0.5569);stop-opacity:1;"/>
</linearGradient>
<linearGradient id="paint14_linear_2146_30368" x1="47.4711" y1="27.3211" x2="45.4667" y2="27.3211" gradientUnits="userSpaceOnUse">
<stop stop-color="#43386B" style="stop-color:#43386B;stop-color:color(display-p3 0.2627 0.2196 0.4196);stop-opacity:1;"/>
<stop offset="1" stop-color="#594A8E" style="stop-color:#594A8E;stop-color:color(display-p3 0.3490 0.2902 0.5569);stop-opacity:1;"/>
</linearGradient>
<linearGradient id="paint15_linear_2146_30368" x1="44.9083" y1="28.4861" x2="46.7839" y2="28.4861" gradientUnits="userSpaceOnUse">
<stop stop-color="#43386B" style="stop-color:#43386B;stop-color:color(display-p3 0.2627 0.2196 0.4196);stop-opacity:1;"/>
<stop offset="1" stop-color="#594A8E" style="stop-color:#594A8E;stop-color:color(display-p3 0.3490 0.2902 0.5569);stop-opacity:1;"/>
</linearGradient>
<linearGradient id="paint16_linear_2146_30368" x1="44.7368" y1="28.9641" x2="46.5133" y2="25.8872" gradientUnits="userSpaceOnUse">
<stop stop-color="#F2EFFA" style="stop-color:#F2EFFA;stop-color:color(display-p3 0.9490 0.9373 0.9804);stop-opacity:1;"/>
<stop offset="1" stop-color="white" style="stop-color:white;stop-opacity:1;"/>
</linearGradient>
<linearGradient id="paint17_linear_2146_30368" x1="45.0515" y1="28.7552" x2="46.4156" y2="26.3927" gradientUnits="userSpaceOnUse">
<stop stop-color="#F2EFFA" style="stop-color:#F2EFFA;stop-color:color(display-p3 0.9490 0.9373 0.9804);stop-opacity:1;"/>
<stop offset="1" stop-color="white" style="stop-color:white;stop-opacity:1;"/>
</linearGradient>
<linearGradient id="paint18_linear_2146_30368" x1="48.5741" y1="26.7395" x2="48.809" y2="26.3326" gradientUnits="userSpaceOnUse">
<stop stop-color="#F2EFFA" style="stop-color:#F2EFFA;stop-color:color(display-p3 0.9490 0.9373 0.9804);stop-opacity:1;"/>
<stop offset="1" stop-color="white" style="stop-color:white;stop-opacity:1;"/>
</linearGradient>
<linearGradient id="paint19_linear_2146_30368" x1="45.3274" y1="26.6004" x2="45.9282" y2="25.5599" gradientUnits="userSpaceOnUse">
<stop stop-color="#F2EFFA" style="stop-color:#F2EFFA;stop-color:color(display-p3 0.9490 0.9373 0.9804);stop-opacity:1;"/>
<stop offset="1" stop-color="white" style="stop-color:white;stop-opacity:1;"/>
</linearGradient>
<linearGradient id="paint20_linear_2146_30368" x1="42.962" y1="27.9527" x2="43.5648" y2="26.9086" gradientUnits="userSpaceOnUse">
<stop stop-color="#F2EFFA" style="stop-color:#F2EFFA;stop-color:color(display-p3 0.9490 0.9373 0.9804);stop-opacity:1;"/>
<stop offset="1" stop-color="white" style="stop-color:white;stop-opacity:1;"/>
</linearGradient>
<linearGradient id="paint21_linear_2146_30368" x1="43.9439" y1="29.3791" x2="44.1789" y2="28.9722" gradientUnits="userSpaceOnUse">
<stop stop-color="#F2EFFA" style="stop-color:#F2EFFA;stop-color:color(display-p3 0.9490 0.9373 0.9804);stop-opacity:1;"/>
<stop offset="1" stop-color="white" style="stop-color:white;stop-opacity:1;"/>
</linearGradient>
<linearGradient id="paint22_linear_2146_30368" x1="45.0366" y1="30.1603" x2="48.0055" y2="30.1603" gradientUnits="userSpaceOnUse">
<stop stop-color="#C5BAEB" style="stop-color:#C5BAEB;stop-color:color(display-p3 0.7725 0.7294 0.9216);stop-opacity:1;"/>
<stop offset="1" stop-color="#D7D1EB" style="stop-color:#D7D1EB;stop-color:color(display-p3 0.8431 0.8196 0.9216);stop-opacity:1;"/>
</linearGradient>
<linearGradient id="paint23_linear_2146_30368" x1="46.4081" y1="29.9703" x2="47.0089" y2="28.9298" gradientUnits="userSpaceOnUse">
<stop stop-color="#F2EFFA" style="stop-color:#F2EFFA;stop-color:color(display-p3 0.9490 0.9373 0.9804);stop-opacity:1;"/>
<stop offset="1" stop-color="white" style="stop-color:white;stop-opacity:1;"/>
</linearGradient>
<linearGradient id="paint24_linear_2146_30368" x1="45.0369" y1="28.7493" x2="48.0056" y2="28.7493" gradientUnits="userSpaceOnUse">
<stop stop-color="#C5BAEB" style="stop-color:#C5BAEB;stop-color:color(display-p3 0.7725 0.7294 0.9216);stop-opacity:1;"/>
<stop offset="1" stop-color="#D7D1EB" style="stop-color:#D7D1EB;stop-color:color(display-p3 0.8431 0.8196 0.9216);stop-opacity:1;"/>
</linearGradient>
<linearGradient id="paint25_linear_2146_30368" x1="48.769" y1="28.6206" x2="49.3719" y2="27.5765" gradientUnits="userSpaceOnUse">
<stop stop-color="#F2EFFA" style="stop-color:#F2EFFA;stop-color:color(display-p3 0.9490 0.9373 0.9804);stop-opacity:1;"/>
<stop offset="1" stop-color="white" style="stop-color:white;stop-opacity:1;"/>
</linearGradient>
<linearGradient id="paint26_linear_2146_30368" x1="44.2621" y1="28.7111" x2="42.2641" y2="29.8646" gradientUnits="userSpaceOnUse">
<stop offset="0.0319" stop-color="#45356D" style="stop-color:#45356D;stop-color:color(display-p3 0.2706 0.2078 0.4275);stop-opacity:1;"/>
<stop offset="1" stop-color="#45356D" stop-opacity="0" style="stop-color:none;stop-opacity:0;"/>
</linearGradient>
<linearGradient id="paint27_linear_2146_30368" x1="44.5716" y1="28.1361" x2="47.5403" y2="28.1361" gradientUnits="userSpaceOnUse">
<stop stop-color="#00395E" style="stop-color:#00395E;stop-color:color(display-p3 0.0000 0.2235 0.3686);stop-opacity:1;"/>
<stop offset="1" stop-color="#0072BC" style="stop-color:#0072BC;stop-color:color(display-p3 0.0000 0.4471 0.7373);stop-opacity:1;"/>
</linearGradient>
<linearGradient id="paint28_linear_2146_30368" x1="44.5717" y1="28.7141" x2="47.5404" y2="28.7141" gradientUnits="userSpaceOnUse">
<stop stop-color="#C5BAEB" style="stop-color:#C5BAEB;stop-color:color(display-p3 0.7725 0.7294 0.9216);stop-opacity:1;"/>
<stop offset="1" stop-color="#D7D1EB" style="stop-color:#D7D1EB;stop-color:color(display-p3 0.8431 0.8196 0.9216);stop-opacity:1;"/>
</linearGradient>
<linearGradient id="paint29_linear_2146_30368" x1="43.0318" y1="27.3398" x2="44.1426" y2="29.2638" gradientUnits="userSpaceOnUse">
<stop stop-color="#43386B" style="stop-color:#43386B;stop-color:color(display-p3 0.2627 0.2196 0.4196);stop-opacity:1;"/>
<stop offset="1" stop-color="#43386B" stop-opacity="0" style="stop-color:none;stop-opacity:0;"/>
</linearGradient>
<linearGradient id="paint30_linear_2146_30368" x1="43.3827" y1="28.3724" x2="45.8724" y2="24.0601" gradientUnits="userSpaceOnUse">
<stop stop-color="#0072BC" style="stop-color:#0072BC;stop-color:color(display-p3 0.0000 0.4471 0.7373);stop-opacity:1;"/>
<stop offset="1" stop-color="#2F97F7" style="stop-color:#2F97F7;stop-color:color(display-p3 0.1843 0.5922 0.9686);stop-opacity:1;"/>
</linearGradient>
<linearGradient id="paint31_linear_2146_30368" x1="47.646" y1="27.7739" x2="42.4433" y2="24.71" gradientUnits="userSpaceOnUse">
<stop stop-color="#00395E" style="stop-color:#00395E;stop-color:color(display-p3 0.0000 0.2235 0.3686);stop-opacity:1;"/>
<stop offset="1" stop-color="#0072BC" style="stop-color:#0072BC;stop-color:color(display-p3 0.0000 0.4471 0.7373);stop-opacity:1;"/>
</linearGradient>
<linearGradient id="paint32_linear_2146_30368" x1="47.0059" y1="26.243" x2="45.0015" y2="26.243" gradientUnits="userSpaceOnUse">
<stop stop-color="#00395E" style="stop-color:#00395E;stop-color:color(display-p3 0.0000 0.2235 0.3686);stop-opacity:1;"/>
<stop offset="1" stop-color="#0072BC" style="stop-color:#0072BC;stop-color:color(display-p3 0.0000 0.4471 0.7373);stop-opacity:1;"/>
</linearGradient>
<linearGradient id="paint33_linear_2146_30368" x1="44.443" y1="27.408" x2="46.3186" y2="27.408" gradientUnits="userSpaceOnUse">
<stop stop-color="#00395E" style="stop-color:#00395E;stop-color:color(display-p3 0.0000 0.2235 0.3686);stop-opacity:1;"/>
<stop offset="1" stop-color="#0072BC" style="stop-color:#0072BC;stop-color:color(display-p3 0.0000 0.4471 0.7373);stop-opacity:1;"/>
</linearGradient>
<linearGradient id="paint34_linear_2146_30368" x1="44.2716" y1="27.8863" x2="46.0481" y2="24.8094" gradientUnits="userSpaceOnUse">
<stop stop-color="#F2EFFA" style="stop-color:#F2EFFA;stop-color:color(display-p3 0.9490 0.9373 0.9804);stop-opacity:1;"/>
<stop offset="1" stop-color="white" style="stop-color:white;stop-opacity:1;"/>
</linearGradient>
<linearGradient id="paint35_linear_2146_30368" x1="44.5864" y1="27.6773" x2="45.9505" y2="25.3148" gradientUnits="userSpaceOnUse">
<stop stop-color="#F2EFFA" style="stop-color:#F2EFFA;stop-color:color(display-p3 0.9490 0.9373 0.9804);stop-opacity:1;"/>
<stop offset="1" stop-color="white" style="stop-color:white;stop-opacity:1;"/>
</linearGradient>
<linearGradient id="paint36_linear_2146_30368" x1="48.1089" y1="25.6607" x2="48.3438" y2="25.2538" gradientUnits="userSpaceOnUse">
<stop stop-color="#F2EFFA" style="stop-color:#F2EFFA;stop-color:color(display-p3 0.9490 0.9373 0.9804);stop-opacity:1;"/>
<stop offset="1" stop-color="white" style="stop-color:white;stop-opacity:1;"/>
</linearGradient>
<linearGradient id="paint37_linear_2146_30368" x1="44.8623" y1="25.5215" x2="45.4631" y2="24.4809" gradientUnits="userSpaceOnUse">
<stop stop-color="#F2EFFA" style="stop-color:#F2EFFA;stop-color:color(display-p3 0.9490 0.9373 0.9804);stop-opacity:1;"/>
<stop offset="1" stop-color="white" style="stop-color:white;stop-opacity:1;"/>
</linearGradient>
<linearGradient id="paint38_linear_2146_30368" x1="42.4969" y1="26.8739" x2="43.0997" y2="25.8298" gradientUnits="userSpaceOnUse">
<stop stop-color="#F2EFFA" style="stop-color:#F2EFFA;stop-color:color(display-p3 0.9490 0.9373 0.9804);stop-opacity:1;"/>
<stop offset="1" stop-color="white" style="stop-color:white;stop-opacity:1;"/>
</linearGradient>
<linearGradient id="paint39_linear_2146_30368" x1="43.4787" y1="28.2992" x2="43.7136" y2="27.8923" gradientUnits="userSpaceOnUse">
<stop stop-color="#F2EFFA" style="stop-color:#F2EFFA;stop-color:color(display-p3 0.9490 0.9373 0.9804);stop-opacity:1;"/>
<stop offset="1" stop-color="white" style="stop-color:white;stop-opacity:1;"/>
</linearGradient>
<linearGradient id="paint40_linear_2146_30368" x1="44.5715" y1="29.0802" x2="47.5403" y2="29.0802" gradientUnits="userSpaceOnUse">
<stop stop-color="#C5BAEB" style="stop-color:#C5BAEB;stop-color:color(display-p3 0.7725 0.7294 0.9216);stop-opacity:1;"/>
<stop offset="1" stop-color="#D7D1EB" style="stop-color:#D7D1EB;stop-color:color(display-p3 0.8431 0.8196 0.9216);stop-opacity:1;"/>
</linearGradient>
<linearGradient id="paint41_linear_2146_30368" x1="45.9429" y1="28.8907" x2="46.5436" y2="27.8502" gradientUnits="userSpaceOnUse">
<stop stop-color="#F2EFFA" style="stop-color:#F2EFFA;stop-color:color(display-p3 0.9490 0.9373 0.9804);stop-opacity:1;"/>
<stop offset="1" stop-color="white" style="stop-color:white;stop-opacity:1;"/>
</linearGradient>
<linearGradient id="paint42_linear_2146_30368" x1="44.5715" y1="27.6702" x2="47.5404" y2="27.6702" gradientUnits="userSpaceOnUse">
<stop stop-color="#C5BAEB" style="stop-color:#C5BAEB;stop-color:color(display-p3 0.7725 0.7294 0.9216);stop-opacity:1;"/>
<stop offset="1" stop-color="#D7D1EB" style="stop-color:#D7D1EB;stop-color:color(display-p3 0.8431 0.8196 0.9216);stop-opacity:1;"/>
</linearGradient>
<linearGradient id="paint43_linear_2146_30368" x1="48.3038" y1="27.5408" x2="48.9067" y2="26.4968" gradientUnits="userSpaceOnUse">
<stop stop-color="#F2EFFA" style="stop-color:#F2EFFA;stop-color:color(display-p3 0.9490 0.9373 0.9804);stop-opacity:1;"/>
<stop offset="1" stop-color="white" style="stop-color:white;stop-opacity:1;"/>
</linearGradient>
<linearGradient id="paint44_linear_2146_30368" x1="44.4455" y1="27.3696" x2="41.6994" y2="28.9552" gradientUnits="userSpaceOnUse">
<stop stop-color="#43386B" style="stop-color:#43386B;stop-color:color(display-p3 0.2627 0.2196 0.4196);stop-opacity:1;"/>
<stop offset="1" stop-color="#43386B" stop-opacity="0" style="stop-color:none;stop-opacity:0;"/>
</linearGradient>
<linearGradient id="paint45_linear_2146_30368" x1="44.9311" y1="27.1215" x2="47.8999" y2="27.1215" gradientUnits="userSpaceOnUse">
<stop stop-color="#236568" style="stop-color:#236568;stop-color:color(display-p3 0.1373 0.3961 0.4078);stop-opacity:1;"/>
<stop offset="1" stop-color="#2F878A" style="stop-color:#2F878A;stop-color:color(display-p3 0.1843 0.5294 0.5412);stop-opacity:1;"/>
</linearGradient>
<linearGradient id="paint46_linear_2146_30368" x1="44.931" y1="27.6996" x2="47.8999" y2="27.6996" gradientUnits="userSpaceOnUse">
<stop stop-color="#C5BAEB" style="stop-color:#C5BAEB;stop-color:color(display-p3 0.7725 0.7294 0.9216);stop-opacity:1;"/>
<stop offset="1" stop-color="#D7D1EB" style="stop-color:#D7D1EB;stop-color:color(display-p3 0.8431 0.8196 0.9216);stop-opacity:1;"/>
</linearGradient>
<linearGradient id="paint47_linear_2146_30368" x1="42.9419" y1="25.3305" x2="44.5969" y2="28.1973" gradientUnits="userSpaceOnUse">
<stop stop-color="#43386B" style="stop-color:#43386B;stop-color:color(display-p3 0.2627 0.2196 0.4196);stop-opacity:1;"/>
<stop offset="1" stop-color="#43386B" stop-opacity="0" style="stop-color:none;stop-opacity:0;"/>
</linearGradient>
<linearGradient id="paint48_linear_2146_30368" x1="43.7423" y1="27.3581" x2="46.2319" y2="23.046" gradientUnits="userSpaceOnUse">
<stop stop-color="#06DAAE" style="stop-color:#06DAAE;stop-color:color(display-p3 0.0235 0.8549 0.6824);stop-opacity:1;"/>
<stop offset="1" stop-color="#9BF0DF" style="stop-color:#9BF0DF;stop-color:color(display-p3 0.6078 0.9412 0.8745);stop-opacity:1;"/>
</linearGradient>
<linearGradient id="paint49_linear_2146_30368" x1="48.0056" y1="26.7593" x2="42.803" y2="23.6954" gradientUnits="userSpaceOnUse">
<stop stop-color="#236568" style="stop-color:#236568;stop-color:color(display-p3 0.1373 0.3961 0.4078);stop-opacity:1;"/>
<stop offset="1" stop-color="#2F878A" style="stop-color:#2F878A;stop-color:color(display-p3 0.1843 0.5294 0.5412);stop-opacity:1;"/>
</linearGradient>
<linearGradient id="paint50_linear_2146_30368" x1="47.3654" y1="25.2283" x2="45.361" y2="25.2283" gradientUnits="userSpaceOnUse">
<stop stop-color="#236568" style="stop-color:#236568;stop-color:color(display-p3 0.1373 0.3961 0.4078);stop-opacity:1;"/>
<stop offset="1" stop-color="#2F878A" style="stop-color:#2F878A;stop-color:color(display-p3 0.1843 0.5294 0.5412);stop-opacity:1;"/>
</linearGradient>
<linearGradient id="paint51_linear_2146_30368" x1="44.8026" y1="26.3933" x2="46.6782" y2="26.3933" gradientUnits="userSpaceOnUse">
<stop stop-color="#236568" style="stop-color:#236568;stop-color:color(display-p3 0.1373 0.3961 0.4078);stop-opacity:1;"/>
<stop offset="1" stop-color="#2F878A" style="stop-color:#2F878A;stop-color:color(display-p3 0.1843 0.5294 0.5412);stop-opacity:1;"/>
</linearGradient>
<linearGradient id="paint52_linear_2146_30368" x1="44.6312" y1="26.872" x2="46.4076" y2="23.7953" gradientUnits="userSpaceOnUse">
<stop stop-color="#F2EFFA" style="stop-color:#F2EFFA;stop-color:color(display-p3 0.9490 0.9373 0.9804);stop-opacity:1;"/>
<stop offset="1" stop-color="white" style="stop-color:white;stop-opacity:1;"/>
</linearGradient>
<linearGradient id="paint53_linear_2146_30368" x1="44.946" y1="26.6631" x2="46.31" y2="24.3006" gradientUnits="userSpaceOnUse">
<stop stop-color="#F2EFFA" style="stop-color:#F2EFFA;stop-color:color(display-p3 0.9490 0.9373 0.9804);stop-opacity:1;"/>
<stop offset="1" stop-color="white" style="stop-color:white;stop-opacity:1;"/>
</linearGradient>
<linearGradient id="paint54_linear_2146_30368" x1="48.4684" y1="24.6485" x2="48.7035" y2="24.2414" gradientUnits="userSpaceOnUse">
<stop stop-color="#F2EFFA" style="stop-color:#F2EFFA;stop-color:color(display-p3 0.9490 0.9373 0.9804);stop-opacity:1;"/>
<stop offset="1" stop-color="white" style="stop-color:white;stop-opacity:1;"/>
</linearGradient>
<linearGradient id="paint55_linear_2146_30368" x1="45.2219" y1="24.5083" x2="45.8227" y2="23.4678" gradientUnits="userSpaceOnUse">
<stop stop-color="#F2EFFA" style="stop-color:#F2EFFA;stop-color:color(display-p3 0.9490 0.9373 0.9804);stop-opacity:1;"/>
<stop offset="1" stop-color="white" style="stop-color:white;stop-opacity:1;"/>
</linearGradient>
<linearGradient id="paint56_linear_2146_30368" x1="42.8565" y1="25.8606" x2="43.4593" y2="24.8166" gradientUnits="userSpaceOnUse">
<stop stop-color="#F2EFFA" style="stop-color:#F2EFFA;stop-color:color(display-p3 0.9490 0.9373 0.9804);stop-opacity:1;"/>
<stop offset="1" stop-color="white" style="stop-color:white;stop-opacity:1;"/>
</linearGradient>
<linearGradient id="paint57_linear_2146_30368" x1="43.8383" y1="27.287" x2="44.0733" y2="26.88" gradientUnits="userSpaceOnUse">
<stop stop-color="#F2EFFA" style="stop-color:#F2EFFA;stop-color:color(display-p3 0.9490 0.9373 0.9804);stop-opacity:1;"/>
<stop offset="1" stop-color="white" style="stop-color:white;stop-opacity:1;"/>
</linearGradient>
<linearGradient id="paint58_linear_2146_30368" x1="44.931" y1="28.0675" x2="47.8999" y2="28.0675" gradientUnits="userSpaceOnUse">
<stop stop-color="#C5BAEB" style="stop-color:#C5BAEB;stop-color:color(display-p3 0.7725 0.7294 0.9216);stop-opacity:1;"/>
<stop offset="1" stop-color="#D7D1EB" style="stop-color:#D7D1EB;stop-color:color(display-p3 0.8431 0.8196 0.9216);stop-opacity:1;"/>
</linearGradient>
<linearGradient id="paint59_linear_2146_30368" x1="46.3025" y1="27.8774" x2="46.9032" y2="26.8369" gradientUnits="userSpaceOnUse">
<stop stop-color="#F2EFFA" style="stop-color:#F2EFFA;stop-color:color(display-p3 0.9490 0.9373 0.9804);stop-opacity:1;"/>
<stop offset="1" stop-color="white" style="stop-color:white;stop-opacity:1;"/>
</linearGradient>
<linearGradient id="paint60_linear_2146_30368" x1="44.9311" y1="26.6566" x2="47.9" y2="26.6566" gradientUnits="userSpaceOnUse">
<stop stop-color="#C5BAEB" style="stop-color:#C5BAEB;stop-color:color(display-p3 0.7725 0.7294 0.9216);stop-opacity:1;"/>
<stop offset="1" stop-color="#D7D1EB" style="stop-color:#D7D1EB;stop-color:color(display-p3 0.8431 0.8196 0.9216);stop-opacity:1;"/>
</linearGradient>
<linearGradient id="paint61_linear_2146_30368" x1="48.6634" y1="26.5284" x2="49.2663" y2="25.4844" gradientUnits="userSpaceOnUse">
<stop stop-color="#F2EFFA" style="stop-color:#F2EFFA;stop-color:color(display-p3 0.9490 0.9373 0.9804);stop-opacity:1;"/>
<stop offset="1" stop-color="white" style="stop-color:white;stop-opacity:1;"/>
</linearGradient>
<linearGradient id="paint62_linear_2146_30368" x1="45.8233" y1="25.7829" x2="40.7759" y2="28.697" gradientUnits="userSpaceOnUse">
<stop stop-color="#43386B" style="stop-color:#43386B;stop-color:color(display-p3 0.2627 0.2196 0.4196);stop-opacity:1;"/>
<stop offset="1" stop-color="#43386B" stop-opacity="0" style="stop-color:none;stop-opacity:0;"/>
</linearGradient>
<linearGradient id="paint63_linear_2146_30368" x1="45.3806" y1="26.0424" x2="48.3493" y2="26.0424" gradientUnits="userSpaceOnUse">
<stop stop-color="#FFA538" style="stop-color:#FFA538;stop-color:color(display-p3 1.0000 0.6471 0.2196);stop-opacity:1;"/>
<stop offset="1" stop-color="#FFC538" style="stop-color:#FFC538;stop-color:color(display-p3 1.0000 0.7725 0.2196);stop-opacity:1;"/>
</linearGradient>
<linearGradient id="paint64_linear_2146_30368" x1="45.3806" y1="26.6205" x2="48.3493" y2="26.6205" gradientUnits="userSpaceOnUse">
<stop stop-color="#C5BAEB" style="stop-color:#C5BAEB;stop-color:color(display-p3 0.7725 0.7294 0.9216);stop-opacity:1;"/>
<stop offset="1" stop-color="#D7D1EB" style="stop-color:#D7D1EB;stop-color:color(display-p3 0.8431 0.8196 0.9216);stop-opacity:1;"/>
</linearGradient>
<linearGradient id="paint65_linear_2146_30368" x1="44.1918" y1="26.2785" x2="46.6815" y2="21.9664" gradientUnits="userSpaceOnUse">
<stop stop-color="#F7E041" style="stop-color:#F7E041;stop-color:color(display-p3 0.9686 0.8784 0.2549);stop-opacity:1;"/>
<stop offset="1" stop-color="#FCF3B3" style="stop-color:#FCF3B3;stop-color:color(display-p3 0.9882 0.9529 0.7020);stop-opacity:1;"/>
</linearGradient>
<linearGradient id="paint66_linear_2146_30368" x1="48.4551" y1="25.6792" x2="43.2524" y2="22.6153" gradientUnits="userSpaceOnUse">
<stop stop-color="#FFA538" style="stop-color:#FFA538;stop-color:color(display-p3 1.0000 0.6471 0.2196);stop-opacity:1;"/>
<stop offset="1" stop-color="#FFC538" style="stop-color:#FFC538;stop-color:color(display-p3 1.0000 0.7725 0.2196);stop-opacity:1;"/>
</linearGradient>
<linearGradient id="paint67_linear_2146_30368" x1="47.815" y1="24.1492" x2="45.8106" y2="24.1492" gradientUnits="userSpaceOnUse">
<stop stop-color="#FFA538" style="stop-color:#FFA538;stop-color:color(display-p3 1.0000 0.6471 0.2196);stop-opacity:1;"/>
<stop offset="1" stop-color="#FFC538" style="stop-color:#FFC538;stop-color:color(display-p3 1.0000 0.7725 0.2196);stop-opacity:1;"/>
</linearGradient>
<linearGradient id="paint68_linear_2146_30368" x1="45.2522" y1="25.3142" x2="47.1277" y2="25.3142" gradientUnits="userSpaceOnUse">
<stop stop-color="#FFA538" style="stop-color:#FFA538;stop-color:color(display-p3 1.0000 0.6471 0.2196);stop-opacity:1;"/>
<stop offset="1" stop-color="#FFC538" style="stop-color:#FFC538;stop-color:color(display-p3 1.0000 0.7725 0.2196);stop-opacity:1;"/>
</linearGradient>
<linearGradient id="paint69_linear_2146_30368" x1="45.0805" y1="25.7934" x2="46.857" y2="22.7165" gradientUnits="userSpaceOnUse">
<stop stop-color="#F2EFFA" style="stop-color:#F2EFFA;stop-color:color(display-p3 0.9490 0.9373 0.9804);stop-opacity:1;"/>
<stop offset="1" stop-color="white" style="stop-color:white;stop-opacity:1;"/>
</linearGradient>
<linearGradient id="paint70_linear_2146_30368" x1="45.3954" y1="25.5846" x2="46.7595" y2="23.2221" gradientUnits="userSpaceOnUse">
<stop stop-color="#F2EFFA" style="stop-color:#F2EFFA;stop-color:color(display-p3 0.9490 0.9373 0.9804);stop-opacity:1;"/>
<stop offset="1" stop-color="white" style="stop-color:white;stop-opacity:1;"/>
</linearGradient>
<linearGradient id="paint71_linear_2146_30368" x1="48.9178" y1="23.5678" x2="49.1528" y2="23.1609" gradientUnits="userSpaceOnUse">
<stop stop-color="#F2EFFA" style="stop-color:#F2EFFA;stop-color:color(display-p3 0.9490 0.9373 0.9804);stop-opacity:1;"/>
<stop offset="1" stop-color="white" style="stop-color:white;stop-opacity:1;"/>
</linearGradient>
<linearGradient id="paint72_linear_2146_30368" x1="45.6713" y1="23.4285" x2="46.2721" y2="22.388" gradientUnits="userSpaceOnUse">
<stop stop-color="#F2EFFA" style="stop-color:#F2EFFA;stop-color:color(display-p3 0.9490 0.9373 0.9804);stop-opacity:1;"/>
<stop offset="1" stop-color="white" style="stop-color:white;stop-opacity:1;"/>
</linearGradient>
<linearGradient id="paint73_linear_2146_30368" x1="43.3059" y1="24.7811" x2="43.9088" y2="23.7369" gradientUnits="userSpaceOnUse">
<stop stop-color="#F2EFFA" style="stop-color:#F2EFFA;stop-color:color(display-p3 0.9490 0.9373 0.9804);stop-opacity:1;"/>
<stop offset="1" stop-color="white" style="stop-color:white;stop-opacity:1;"/>
</linearGradient>
<linearGradient id="paint74_linear_2146_30368" x1="44.2877" y1="26.2073" x2="44.5227" y2="25.8004" gradientUnits="userSpaceOnUse">
<stop stop-color="#F2EFFA" style="stop-color:#F2EFFA;stop-color:color(display-p3 0.9490 0.9373 0.9804);stop-opacity:1;"/>
<stop offset="1" stop-color="white" style="stop-color:white;stop-opacity:1;"/>
</linearGradient>
<linearGradient id="paint75_linear_2146_30368" x1="45.3806" y1="26.9865" x2="48.3493" y2="26.9865" gradientUnits="userSpaceOnUse">
<stop stop-color="#C5BAEB" style="stop-color:#C5BAEB;stop-color:color(display-p3 0.7725 0.7294 0.9216);stop-opacity:1;"/>
<stop offset="1" stop-color="#D7D1EB" style="stop-color:#D7D1EB;stop-color:color(display-p3 0.8431 0.8196 0.9216);stop-opacity:1;"/>
</linearGradient>
<linearGradient id="paint76_linear_2146_30368" x1="46.7519" y1="26.7977" x2="47.3527" y2="25.7572" gradientUnits="userSpaceOnUse">
<stop stop-color="#F2EFFA" style="stop-color:#F2EFFA;stop-color:color(display-p3 0.9490 0.9373 0.9804);stop-opacity:1;"/>
<stop offset="1" stop-color="white" style="stop-color:white;stop-opacity:1;"/>
</linearGradient>
<linearGradient id="paint77_linear_2146_30368" x1="45.3805" y1="25.5765" x2="48.3493" y2="25.5765" gradientUnits="userSpaceOnUse">
<stop stop-color="#C5BAEB" style="stop-color:#C5BAEB;stop-color:color(display-p3 0.7725 0.7294 0.9216);stop-opacity:1;"/>
<stop offset="1" stop-color="#D7D1EB" style="stop-color:#D7D1EB;stop-color:color(display-p3 0.8431 0.8196 0.9216);stop-opacity:1;"/>
</linearGradient>
<linearGradient id="paint78_linear_2146_30368" x1="49.1129" y1="25.448" x2="49.7157" y2="24.4038" gradientUnits="userSpaceOnUse">
<stop stop-color="#F2EFFA" style="stop-color:#F2EFFA;stop-color:color(display-p3 0.9490 0.9373 0.9804);stop-opacity:1;"/>
<stop offset="1" stop-color="white" style="stop-color:white;stop-opacity:1;"/>
</linearGradient>
<linearGradient id="paint79_linear_2146_30368" x1="19.8743" y1="39.0387" x2="15.5848" y2="39.0387" gradientUnits="userSpaceOnUse">
<stop stop-color="#1A4C4E" style="stop-color:#1A4C4E;stop-color:color(display-p3 0.1020 0.2980 0.3059);stop-opacity:1;"/>
<stop offset="1" stop-color="#1A4C4E" stop-opacity="0" style="stop-color:none;stop-opacity:0;"/>
</linearGradient>
<linearGradient id="paint80_linear_2146_30368" x1="20.6429" y1="39.3968" x2="23.6117" y2="39.3968" gradientUnits="userSpaceOnUse">
<stop stop-color="#FFA538" style="stop-color:#FFA538;stop-color:color(display-p3 1.0000 0.6471 0.2196);stop-opacity:1;"/>
<stop offset="1" stop-color="#FFC538" style="stop-color:#FFC538;stop-color:color(display-p3 1.0000 0.7725 0.2196);stop-opacity:1;"/>
</linearGradient>
<linearGradient id="paint81_linear_2146_30368" x1="20.6428" y1="39.975" x2="23.6115" y2="39.975" gradientUnits="userSpaceOnUse">
<stop stop-color="#C5BAEB" style="stop-color:#C5BAEB;stop-color:color(display-p3 0.7725 0.7294 0.9216);stop-opacity:1;"/>
<stop offset="1" stop-color="#D7D1EB" style="stop-color:#D7D1EB;stop-color:color(display-p3 0.8431 0.8196 0.9216);stop-opacity:1;"/>
</linearGradient>
<linearGradient id="paint82_linear_2146_30368" x1="18.8486" y1="38.6682" x2="19.7597" y2="40.2464" gradientUnits="userSpaceOnUse">
<stop stop-color="#43386B" style="stop-color:#43386B;stop-color:color(display-p3 0.2627 0.2196 0.4196);stop-opacity:1;"/>
<stop offset="1" stop-color="#43386B" stop-opacity="0" style="stop-color:none;stop-opacity:0;"/>
</linearGradient>
<linearGradient id="paint83_linear_2146_30368" x1="19.4539" y1="39.6243" x2="21.9436" y2="35.3122" gradientUnits="userSpaceOnUse">
<stop stop-color="#F7E041" style="stop-color:#F7E041;stop-color:color(display-p3 0.9686 0.8784 0.2549);stop-opacity:1;"/>
<stop offset="1" stop-color="#FCF3B3" style="stop-color:#FCF3B3;stop-color:color(display-p3 0.9882 0.9529 0.7020);stop-opacity:1;"/>
</linearGradient>
<linearGradient id="paint84_linear_2146_30368" x1="19.4539" y1="40.5703" x2="21.9436" y2="36.2581" gradientUnits="userSpaceOnUse">
<stop stop-color="#F7E041" style="stop-color:#F7E041;stop-color:color(display-p3 0.9686 0.8784 0.2549);stop-opacity:1;"/>
<stop offset="1" stop-color="#FCF3B3" style="stop-color:#FCF3B3;stop-color:color(display-p3 0.9882 0.9529 0.7020);stop-opacity:1;"/>
</linearGradient>
<linearGradient id="paint85_linear_2146_30368" x1="23.7173" y1="39.0347" x2="18.5146" y2="35.9709" gradientUnits="userSpaceOnUse">
<stop stop-color="#FFA538" style="stop-color:#FFA538;stop-color:color(display-p3 1.0000 0.6471 0.2196);stop-opacity:1;"/>
<stop offset="1" stop-color="#FFC538" style="stop-color:#FFC538;stop-color:color(display-p3 1.0000 0.7725 0.2196);stop-opacity:1;"/>
</linearGradient>
<linearGradient id="paint86_linear_2146_30368" x1="23.0772" y1="37.5038" x2="21.0728" y2="37.5038" gradientUnits="userSpaceOnUse">
<stop stop-color="#FFA538" style="stop-color:#FFA538;stop-color:color(display-p3 1.0000 0.6471 0.2196);stop-opacity:1;"/>
<stop offset="1" stop-color="#FFC538" style="stop-color:#FFC538;stop-color:color(display-p3 1.0000 0.7725 0.2196);stop-opacity:1;"/>
</linearGradient>
<linearGradient id="paint87_linear_2146_30368" x1="20.5144" y1="38.6687" x2="22.3899" y2="38.6687" gradientUnits="userSpaceOnUse">
<stop stop-color="#FFA538" style="stop-color:#FFA538;stop-color:color(display-p3 1.0000 0.6471 0.2196);stop-opacity:1;"/>
<stop offset="1" stop-color="#FFC538" style="stop-color:#FFC538;stop-color:color(display-p3 1.0000 0.7725 0.2196);stop-opacity:1;"/>
</linearGradient>
<linearGradient id="paint88_linear_2146_30368" x1="20.3429" y1="39.1383" x2="22.1193" y2="36.0615" gradientUnits="userSpaceOnUse">
<stop stop-color="#F2EFFA" style="stop-color:#F2EFFA;stop-color:color(display-p3 0.9490 0.9373 0.9804);stop-opacity:1;"/>
<stop offset="1" stop-color="white" style="stop-color:white;stop-opacity:1;"/>
</linearGradient>
<linearGradient id="paint89_linear_2146_30368" x1="20.6577" y1="38.9294" x2="22.0217" y2="36.5669" gradientUnits="userSpaceOnUse">
<stop stop-color="#F2EFFA" style="stop-color:#F2EFFA;stop-color:color(display-p3 0.9490 0.9373 0.9804);stop-opacity:1;"/>
<stop offset="1" stop-color="white" style="stop-color:white;stop-opacity:1;"/>
</linearGradient>
<linearGradient id="paint90_linear_2146_30368" x1="24.1801" y1="36.9137" x2="24.4151" y2="36.5067" gradientUnits="userSpaceOnUse">
<stop stop-color="#F2EFFA" style="stop-color:#F2EFFA;stop-color:color(display-p3 0.9490 0.9373 0.9804);stop-opacity:1;"/>
<stop offset="1" stop-color="white" style="stop-color:white;stop-opacity:1;"/>
</linearGradient>
<linearGradient id="paint91_linear_2146_30368" x1="20.9337" y1="36.7745" x2="21.5344" y2="35.734" gradientUnits="userSpaceOnUse">
<stop stop-color="#F2EFFA" style="stop-color:#F2EFFA;stop-color:color(display-p3 0.9490 0.9373 0.9804);stop-opacity:1;"/>
<stop offset="1" stop-color="white" style="stop-color:white;stop-opacity:1;"/>
</linearGradient>
<linearGradient id="paint92_linear_2146_30368" x1="18.5682" y1="38.127" x2="19.171" y2="37.0829" gradientUnits="userSpaceOnUse">
<stop stop-color="#F2EFFA" style="stop-color:#F2EFFA;stop-color:color(display-p3 0.9490 0.9373 0.9804);stop-opacity:1;"/>
<stop offset="1" stop-color="white" style="stop-color:white;stop-opacity:1;"/>
</linearGradient>
<linearGradient id="paint93_linear_2146_30368" x1="19.55" y1="39.5523" x2="19.785" y2="39.1454" gradientUnits="userSpaceOnUse">
<stop stop-color="#F2EFFA" style="stop-color:#F2EFFA;stop-color:color(display-p3 0.9490 0.9373 0.9804);stop-opacity:1;"/>
<stop offset="1" stop-color="white" style="stop-color:white;stop-opacity:1;"/>
</linearGradient>
<linearGradient id="paint94_linear_2146_30368" x1="20.643" y1="40.3421" x2="23.6118" y2="40.3421" gradientUnits="userSpaceOnUse">
<stop stop-color="#C5BAEB" style="stop-color:#C5BAEB;stop-color:color(display-p3 0.7725 0.7294 0.9216);stop-opacity:1;"/>
<stop offset="1" stop-color="#D7D1EB" style="stop-color:#D7D1EB;stop-color:color(display-p3 0.8431 0.8196 0.9216);stop-opacity:1;"/>
</linearGradient>
<linearGradient id="paint95_linear_2146_30368" x1="22.0141" y1="40.1436" x2="22.6149" y2="39.1031" gradientUnits="userSpaceOnUse">
<stop stop-color="#F2EFFA" style="stop-color:#F2EFFA;stop-color:color(display-p3 0.9490 0.9373 0.9804);stop-opacity:1;"/>
<stop offset="1" stop-color="white" style="stop-color:white;stop-opacity:1;"/>
</linearGradient>
<linearGradient id="paint96_linear_2146_30368" x1="20.6429" y1="38.932" x2="23.6118" y2="38.932" gradientUnits="userSpaceOnUse">
<stop stop-color="#C5BAEB" style="stop-color:#C5BAEB;stop-color:color(display-p3 0.7725 0.7294 0.9216);stop-opacity:1;"/>
<stop offset="1" stop-color="#D7D1EB" style="stop-color:#D7D1EB;stop-color:color(display-p3 0.8431 0.8196 0.9216);stop-opacity:1;"/>
</linearGradient>
<linearGradient id="paint97_linear_2146_30368" x1="24.3753" y1="38.7938" x2="24.9781" y2="37.7497" gradientUnits="userSpaceOnUse">
<stop stop-color="#F2EFFA" style="stop-color:#F2EFFA;stop-color:color(display-p3 0.9490 0.9373 0.9804);stop-opacity:1;"/>
<stop offset="1" stop-color="white" style="stop-color:white;stop-opacity:1;"/>
</linearGradient>
<linearGradient id="paint98_linear_2146_30368" x1="20.2624" y1="38.2338" x2="23.2312" y2="38.2338" gradientUnits="userSpaceOnUse">
<stop stop-color="#AB2C37" style="stop-color:#AB2C37;stop-color:color(display-p3 0.6706 0.1725 0.2157);stop-opacity:1;"/>
<stop offset="1" stop-color="#FF4757" style="stop-color:#FF4757;stop-color:color(display-p3 1.0000 0.2784 0.3412);stop-opacity:1;"/>
</linearGradient>
<linearGradient id="paint99_linear_2146_30368" x1="19.0734" y1="38.4616" x2="21.5631" y2="34.1494" gradientUnits="userSpaceOnUse">
<stop stop-color="#FF4757" style="stop-color:#FF4757;stop-color:color(display-p3 1.0000 0.2784 0.3412);stop-opacity:1;"/>
<stop offset="1" stop-color="#FF7A85" style="stop-color:#FF7A85;stop-color:color(display-p3 1.0000 0.4784 0.5216);stop-opacity:1;"/>
</linearGradient>
<linearGradient id="paint100_linear_2146_30368" x1="23.3368" y1="37.8715" x2="18.1341" y2="34.8077" gradientUnits="userSpaceOnUse">
<stop stop-color="#AB2C37" style="stop-color:#AB2C37;stop-color:color(display-p3 0.6706 0.1725 0.2157);stop-opacity:1;"/>
<stop offset="1" stop-color="#FF4757" style="stop-color:#FF4757;stop-color:color(display-p3 1.0000 0.2784 0.3412);stop-opacity:1;"/>
</linearGradient>
<linearGradient id="paint101_linear_2146_30368" x1="22.6967" y1="36.3406" x2="20.6923" y2="36.3406" gradientUnits="userSpaceOnUse">
<stop stop-color="#AB2C37" style="stop-color:#AB2C37;stop-color:color(display-p3 0.6706 0.1725 0.2157);stop-opacity:1;"/>
<stop offset="1" stop-color="#FF4757" style="stop-color:#FF4757;stop-color:color(display-p3 1.0000 0.2784 0.3412);stop-opacity:1;"/>
</linearGradient>
<linearGradient id="paint102_linear_2146_30368" x1="20.1339" y1="37.5055" x2="22.0094" y2="37.5055" gradientUnits="userSpaceOnUse">
<stop stop-color="#AB2C37" style="stop-color:#AB2C37;stop-color:color(display-p3 0.6706 0.1725 0.2157);stop-opacity:1;"/>
<stop offset="1" stop-color="#FF4757" style="stop-color:#FF4757;stop-color:color(display-p3 1.0000 0.2784 0.3412);stop-opacity:1;"/>
</linearGradient>
<linearGradient id="paint103_linear_2146_30368" x1="19.9624" y1="37.9756" x2="21.7389" y2="34.8987" gradientUnits="userSpaceOnUse">
<stop stop-color="#F2EFFA" style="stop-color:#F2EFFA;stop-color:color(display-p3 0.9490 0.9373 0.9804);stop-opacity:1;"/>
<stop offset="1" stop-color="white" style="stop-color:white;stop-opacity:1;"/>
</linearGradient>
<linearGradient id="paint104_linear_2146_30368" x1="20.2771" y1="37.7667" x2="21.6412" y2="35.4042" gradientUnits="userSpaceOnUse">
<stop stop-color="#F2EFFA" style="stop-color:#F2EFFA;stop-color:color(display-p3 0.9490 0.9373 0.9804);stop-opacity:1;"/>
<stop offset="1" stop-color="white" style="stop-color:white;stop-opacity:1;"/>
</linearGradient>
<linearGradient id="paint105_linear_2146_30368" x1="23.7998" y1="35.751" x2="24.0347" y2="35.3441" gradientUnits="userSpaceOnUse">
<stop stop-color="#F2EFFA" style="stop-color:#F2EFFA;stop-color:color(display-p3 0.9490 0.9373 0.9804);stop-opacity:1;"/>
<stop offset="1" stop-color="white" style="stop-color:white;stop-opacity:1;"/>
</linearGradient>
<linearGradient id="paint106_linear_2146_30368" x1="20.553" y1="35.6118" x2="21.1538" y2="34.5713" gradientUnits="userSpaceOnUse">
<stop stop-color="#F2EFFA" style="stop-color:#F2EFFA;stop-color:color(display-p3 0.9490 0.9373 0.9804);stop-opacity:1;"/>
<stop offset="1" stop-color="white" style="stop-color:white;stop-opacity:1;"/>
</linearGradient>
<linearGradient id="paint107_linear_2146_30368" x1="18.1876" y1="36.9641" x2="18.7904" y2="35.92" gradientUnits="userSpaceOnUse">
<stop stop-color="#F2EFFA" style="stop-color:#F2EFFA;stop-color:color(display-p3 0.9490 0.9373 0.9804);stop-opacity:1;"/>
<stop offset="1" stop-color="white" style="stop-color:white;stop-opacity:1;"/>
</linearGradient>
<linearGradient id="paint108_linear_2146_30368" x1="20.2625" y1="38.8129" x2="23.2312" y2="38.8129" gradientUnits="userSpaceOnUse">
<stop stop-color="#C5BAEB" style="stop-color:#C5BAEB;stop-color:color(display-p3 0.7725 0.7294 0.9216);stop-opacity:1;"/>
<stop offset="1" stop-color="#D7D1EB" style="stop-color:#D7D1EB;stop-color:color(display-p3 0.8431 0.8196 0.9216);stop-opacity:1;"/>
</linearGradient>
<linearGradient id="paint109_linear_2146_30368" x1="19.1695" y1="38.3905" x2="19.4045" y2="37.9836" gradientUnits="userSpaceOnUse">
<stop stop-color="#F2EFFA" style="stop-color:#F2EFFA;stop-color:color(display-p3 0.9490 0.9373 0.9804);stop-opacity:1;"/>
<stop offset="1" stop-color="white" style="stop-color:white;stop-opacity:1;"/>
</linearGradient>
<linearGradient id="paint110_linear_2146_30368" x1="20.2623" y1="39.1789" x2="23.2312" y2="39.1789" gradientUnits="userSpaceOnUse">
<stop stop-color="#C5BAEB" style="stop-color:#C5BAEB;stop-color:color(display-p3 0.7725 0.7294 0.9216);stop-opacity:1;"/>
<stop offset="1" stop-color="#D7D1EB" style="stop-color:#D7D1EB;stop-color:color(display-p3 0.8431 0.8196 0.9216);stop-opacity:1;"/>
</linearGradient>
<linearGradient id="paint111_linear_2146_30368" x1="21.6337" y1="38.9808" x2="22.2345" y2="37.9403" gradientUnits="userSpaceOnUse">
<stop stop-color="#F2EFFA" style="stop-color:#F2EFFA;stop-color:color(display-p3 0.9490 0.9373 0.9804);stop-opacity:1;"/>
<stop offset="1" stop-color="white" style="stop-color:white;stop-opacity:1;"/>
</linearGradient>
<linearGradient id="paint112_linear_2146_30368" x1="20.2625" y1="37.7689" x2="23.2313" y2="37.7689" gradientUnits="userSpaceOnUse">
<stop stop-color="#C5BAEB" style="stop-color:#C5BAEB;stop-color:color(display-p3 0.7725 0.7294 0.9216);stop-opacity:1;"/>
<stop offset="1" stop-color="#D7D1EB" style="stop-color:#D7D1EB;stop-color:color(display-p3 0.8431 0.8196 0.9216);stop-opacity:1;"/>
</linearGradient>
<linearGradient id="paint113_linear_2146_30368" x1="23.9946" y1="37.6311" x2="24.5975" y2="36.587" gradientUnits="userSpaceOnUse">
<stop stop-color="#F2EFFA" style="stop-color:#F2EFFA;stop-color:color(display-p3 0.9490 0.9373 0.9804);stop-opacity:1;"/>
<stop offset="1" stop-color="white" style="stop-color:white;stop-opacity:1;"/>
</linearGradient>
<clipPath id="clip0_2146_30368">
<rect width="60" height="60" fill="white" style="fill:white;fill-opacity:1;"/>
</clipPath>
</defs>
</svg>
