<svg width="60" height="60" viewBox="0 0 60 60" fill="none" xmlns="http://www.w3.org/2000/svg">
<g clip-path="url(#clip0_2146_30392)">
<path d="M43.0241 3.12072L39.8023 1.26271C39.8018 1.26236 39.8014 1.26213 39.8009 1.26189L39.7925 1.25697L39.7924 1.25709C36.6479 -0.572325 32.6805 -0.461114 28.4475 1.96068C28.4131 1.98037 28.3788 2.00029 28.3443 2.02021C28.3099 2.04014 28.2754 2.05994 28.2411 2.07998C22.8174 5.23959 17.8297 11.6888 14.4504 19.2961C10.7784 27.563 11.5723 35.8402 13.2722 39.4198L17.6757 49.0493L14.5559 53.3391C14.2749 53.7253 14.103 54.229 14.103 54.6656V57.2749C14.103 57.6832 14.2515 57.9585 14.4796 58.0531L17.7762 59.9563L23.6173 47.1813L19.8194 20.1944C20.598 18.7977 43.0241 3.12072 43.0241 3.12072Z" fill="url(#paint0_linear_2146_30392)" style=""/>
<path d="M43.8408 18.9044L40.5558 11.29L35.5613 13.0897C36.115 13.8366 36.5391 14.7856 36.8046 15.9139C37.4016 18.45 37.3072 21.562 36.5347 24.8135L32.9431 39.9317C32.8879 40.1639 32.8597 40.3918 32.8597 40.6052V45.8721C32.8597 46.4518 33.0643 46.8486 33.3817 46.9975L36.702 48.9112L43.8408 18.9044Z" fill="url(#paint1_linear_2146_30392)" style=""/>
<path d="M42.2523 37.4619L45.5664 39.3736L41.4583 39.5889L42.2523 37.4619Z" fill="#C5BAEB" style="fill:#C5BAEB;fill:color(display-p3 0.7725 0.7294 0.9216);fill-opacity:1;"/>
<path d="M45.5496 5.16229C42.1704 1.45682 37.1826 0.767054 31.7591 3.86994C31.7246 3.88963 31.6902 3.90967 31.6558 3.92948C31.6214 3.9494 31.5869 3.9692 31.5526 3.98924C26.129 7.14897 21.1413 13.598 17.7621 21.2055C14.09 29.4724 14.884 37.7496 16.5839 41.3292L20.9873 50.9587L17.8675 55.2483C17.5866 55.6346 17.4146 56.1384 17.4146 56.5749V59.1842C17.4146 59.8696 17.8313 60.1847 18.3454 59.8879L25.7795 55.5959C26.5311 55.162 27.1404 53.9978 27.1404 52.9956V47.7288C27.1404 47.5154 27.1121 47.32 27.0569 47.1515L23.4652 36.1806C22.6927 33.8211 22.5984 30.818 23.1954 27.5927C23.9297 23.6256 25.8697 19.6283 28.4342 16.7985C29.4692 15.6564 30.5625 14.753 31.6557 14.1219C32.749 13.4907 33.8422 13.1316 34.8772 13.0787C37.4417 12.9472 39.3818 14.7043 40.1161 17.8235C40.713 20.3595 40.6187 23.4715 39.8462 26.723L36.2545 41.8413C36.1993 42.0734 36.1711 42.3015 36.1711 42.5147V47.7816C36.1711 48.7838 36.7803 49.2444 37.532 48.8104L44.966 44.5184C45.4801 44.2216 45.8968 43.4253 45.8968 42.7399V40.1306C45.8968 39.694 45.7248 39.3889 45.4439 39.327L42.3241 38.6397L46.7275 23.9255C48.4278 18.3829 49.2218 9.18897 45.5496 5.16229Z" fill="url(#paint2_linear_2146_30392)" style=""/>
<path d="M32.6565 7.24227L30.6552 8.39774C30.3584 8.56919 30.1177 9.02892 30.1177 9.42489V11.6082C30.1177 12.0041 30.3584 12.1861 30.6552 12.0146L32.6565 10.8591C32.9534 10.6877 33.1941 10.228 33.1941 9.832V7.64868C33.1941 7.2527 32.9534 7.07083 32.6565 7.24227Z" fill="url(#paint3_linear_2146_30392)" style=""/>
<path d="M23.0796 17.5128L21.0782 18.6682C20.7814 18.8397 20.5406 19.2995 20.5406 19.6954V21.8787C20.5406 22.2746 20.7814 22.4564 21.0782 22.2851L23.0796 21.1296C23.3765 20.9582 23.6172 20.4985 23.6172 20.1025V17.9192C23.6172 17.5233 23.3765 17.3413 23.0796 17.5128Z" fill="url(#paint4_linear_2146_30392)" style=""/>
<path d="M20.5406 32.0237C20.5406 31.6278 20.3001 31.4458 20.0031 31.6173L18.0018 32.7727C17.7048 32.9442 17.4642 33.4039 17.4642 33.7999V35.9832C17.4642 36.3791 17.7049 36.5609 18.0018 36.3896L20.0031 35.2341C20.3001 35.0627 20.5406 34.603 20.5406 34.207V32.0237Z" fill="url(#paint5_linear_2146_30392)" style=""/>
<path d="M23.0796 42.3458L21.0782 43.5013C20.7814 43.6727 20.5406 44.1324 20.5406 44.5284V46.7117C20.5406 47.1076 20.7814 47.2895 21.0782 47.1181L23.0796 45.9627C23.3765 45.7912 23.6172 45.3315 23.6172 44.9355V42.7522C23.6172 42.3562 23.3765 42.1743 23.0796 42.3458Z" fill="url(#paint6_linear_2146_30392)" style=""/>
<path d="M40.232 11.2264L42.2334 10.071C42.5303 9.89953 42.771 9.43981 42.771 9.04383V6.86051C42.771 6.46477 42.5303 6.28278 42.2334 6.4541L40.232 7.60957C39.9352 7.78102 39.6945 8.24086 39.6945 8.63672V10.82C39.6945 11.2159 39.9352 11.3979 40.232 11.2264Z" fill="url(#paint7_linear_2146_30392)" style=""/>
<path d="M45.31 17.0059L43.3087 18.1614C43.0117 18.3329 42.7711 18.7926 42.7711 19.1886V21.3719C42.7711 21.7677 43.0118 21.9496 43.3087 21.7783L45.31 20.6228C45.6068 20.4514 45.8475 19.9917 45.8475 19.5957V17.4122C45.8475 17.0164 45.6068 16.8345 45.31 17.0059Z" fill="url(#paint8_linear_2146_30392)" style=""/>
<path d="M42.2334 31.2872L40.232 32.4426C39.9352 32.6141 39.6945 33.0738 39.6945 33.4698V35.6531C39.6945 36.049 39.9352 36.2309 40.232 36.0595L42.2334 34.9041C42.5303 34.7326 42.771 34.2729 42.771 33.8769V31.6936C42.771 31.2977 42.5303 31.1157 42.2334 31.2872Z" fill="url(#paint9_linear_2146_30392)" style=""/>
</g>
<defs>
<linearGradient id="paint0_linear_2146_30392" x1="2.14024" y1="48.8435" x2="58.4637" y2="0.0659908" gradientUnits="userSpaceOnUse">
<stop stop-color="#7662BD" style="stop-color:#7662BD;stop-color:color(display-p3 0.4627 0.3843 0.7412);stop-opacity:1;"/>
<stop offset="0.3105" stop-color="#E9E5F6" style="stop-color:#E9E5F6;stop-color:color(display-p3 0.9137 0.8980 0.9647);stop-opacity:1;"/>
<stop offset="0.5172" stop-color="#A996EB" style="stop-color:#A996EB;stop-color:color(display-p3 0.6627 0.5882 0.9216);stop-opacity:1;"/>
<stop offset="0.5739" stop-color="#BBACEF" style="stop-color:#BBACEF;stop-color:color(display-p3 0.7333 0.6745 0.9373);stop-opacity:1;"/>
<stop offset="0.6799" stop-color="#D9D1F5" style="stop-color:#D9D1F5;stop-color:color(display-p3 0.8510 0.8196 0.9608);stop-opacity:1;"/>
<stop offset="0.7661" stop-color="#EBE7F9" style="stop-color:#EBE7F9;stop-color:color(display-p3 0.9216 0.9059 0.9765);stop-opacity:1;"/>
<stop offset="0.8212" stop-color="#F2EFFA" style="stop-color:#F2EFFA;stop-color:color(display-p3 0.9490 0.9373 0.9804);stop-opacity:1;"/>
<stop offset="0.8564" stop-color="#E9E4F8" style="stop-color:#E9E4F8;stop-color:color(display-p3 0.9137 0.8941 0.9725);stop-opacity:1;"/>
<stop offset="0.9187" stop-color="#D0C6F3" style="stop-color:#D0C6F3;stop-color:color(display-p3 0.8157 0.7765 0.9529);stop-opacity:1;"/>
<stop offset="1" stop-color="#A996EB" style="stop-color:#A996EB;stop-color:color(display-p3 0.6627 0.5882 0.9216);stop-opacity:1;"/>
</linearGradient>
<linearGradient id="paint1_linear_2146_30392" x1="27.5428" y1="45.8768" x2="42.178" y2="20.5278" gradientUnits="userSpaceOnUse">
<stop stop-color="#7662BD" style="stop-color:#7662BD;stop-color:color(display-p3 0.4627 0.3843 0.7412);stop-opacity:1;"/>
<stop offset="0.3105" stop-color="#E9E5F6" style="stop-color:#E9E5F6;stop-color:color(display-p3 0.9137 0.8980 0.9647);stop-opacity:1;"/>
<stop offset="0.5172" stop-color="#A996EB" style="stop-color:#A996EB;stop-color:color(display-p3 0.6627 0.5882 0.9216);stop-opacity:1;"/>
<stop offset="0.5739" stop-color="#BBACEF" style="stop-color:#BBACEF;stop-color:color(display-p3 0.7333 0.6745 0.9373);stop-opacity:1;"/>
<stop offset="0.6799" stop-color="#D9D1F5" style="stop-color:#D9D1F5;stop-color:color(display-p3 0.8510 0.8196 0.9608);stop-opacity:1;"/>
<stop offset="0.7661" stop-color="#EBE7F9" style="stop-color:#EBE7F9;stop-color:color(display-p3 0.9216 0.9059 0.9765);stop-opacity:1;"/>
<stop offset="0.8212" stop-color="#F2EFFA" style="stop-color:#F2EFFA;stop-color:color(display-p3 0.9490 0.9373 0.9804);stop-opacity:1;"/>
<stop offset="0.8564" stop-color="#E9E4F8" style="stop-color:#E9E4F8;stop-color:color(display-p3 0.9137 0.8941 0.9725);stop-opacity:1;"/>
<stop offset="0.9187" stop-color="#D0C6F3" style="stop-color:#D0C6F3;stop-color:color(display-p3 0.8157 0.7765 0.9529);stop-opacity:1;"/>
<stop offset="1" stop-color="#A996EB" style="stop-color:#A996EB;stop-color:color(display-p3 0.6627 0.5882 0.9216);stop-opacity:1;"/>
</linearGradient>
<linearGradient id="paint2_linear_2146_30392" x1="31.6558" y1="54.9418" x2="11.5855" y2="20.1801" gradientUnits="userSpaceOnUse">
<stop stop-color="#E1DAEF" style="stop-color:#E1DAEF;stop-color:color(display-p3 0.8824 0.8549 0.9373);stop-opacity:1;"/>
<stop offset="1" stop-color="white" style="stop-color:white;stop-opacity:1;"/>
</linearGradient>
<linearGradient id="paint3_linear_2146_30392" x1="33.0394" y1="7.23196" x2="30.2722" y2="12.0249" gradientUnits="userSpaceOnUse">
<stop stop-color="#A996EB" style="stop-color:#A996EB;stop-color:color(display-p3 0.6627 0.5882 0.9216);stop-opacity:1;"/>
<stop offset="0.4097" stop-color="#B6A6EB" style="stop-color:#B6A6EB;stop-color:color(display-p3 0.7137 0.6510 0.9216);stop-opacity:1;"/>
<stop offset="1" stop-color="#C5BAEB" style="stop-color:#C5BAEB;stop-color:color(display-p3 0.7725 0.7294 0.9216);stop-opacity:1;"/>
</linearGradient>
<linearGradient id="paint4_linear_2146_30392" x1="23.4626" y1="17.5025" x2="20.6953" y2="22.2954" gradientUnits="userSpaceOnUse">
<stop stop-color="#A996EB" style="stop-color:#A996EB;stop-color:color(display-p3 0.6627 0.5882 0.9216);stop-opacity:1;"/>
<stop offset="0.4097" stop-color="#B6A6EB" style="stop-color:#B6A6EB;stop-color:color(display-p3 0.7137 0.6510 0.9216);stop-opacity:1;"/>
<stop offset="1" stop-color="#C5BAEB" style="stop-color:#C5BAEB;stop-color:color(display-p3 0.7725 0.7294 0.9216);stop-opacity:1;"/>
</linearGradient>
<linearGradient id="paint5_linear_2146_30392" x1="20.3861" y1="31.6069" x2="17.6188" y2="36.3999" gradientUnits="userSpaceOnUse">
<stop stop-color="#A996EB" style="stop-color:#A996EB;stop-color:color(display-p3 0.6627 0.5882 0.9216);stop-opacity:1;"/>
<stop offset="0.4097" stop-color="#B6A6EB" style="stop-color:#B6A6EB;stop-color:color(display-p3 0.7137 0.6510 0.9216);stop-opacity:1;"/>
<stop offset="1" stop-color="#C5BAEB" style="stop-color:#C5BAEB;stop-color:color(display-p3 0.7725 0.7294 0.9216);stop-opacity:1;"/>
</linearGradient>
<linearGradient id="paint6_linear_2146_30392" x1="23.0517" y1="43.0469" x2="21.5892" y2="45.58" gradientUnits="userSpaceOnUse">
<stop stop-color="#A996EB" style="stop-color:#A996EB;stop-color:color(display-p3 0.6627 0.5882 0.9216);stop-opacity:1;"/>
<stop offset="0.4097" stop-color="#B6A6EB" style="stop-color:#B6A6EB;stop-color:color(display-p3 0.7137 0.6510 0.9216);stop-opacity:1;"/>
<stop offset="1" stop-color="#C5BAEB" style="stop-color:#C5BAEB;stop-color:color(display-p3 0.7725 0.7294 0.9216);stop-opacity:1;"/>
</linearGradient>
<linearGradient id="paint7_linear_2146_30392" x1="42.6163" y1="6.44379" x2="39.8491" y2="11.2368" gradientUnits="userSpaceOnUse">
<stop stop-color="#A996EB" style="stop-color:#A996EB;stop-color:color(display-p3 0.6627 0.5882 0.9216);stop-opacity:1;"/>
<stop offset="0.4097" stop-color="#B6A6EB" style="stop-color:#B6A6EB;stop-color:color(display-p3 0.7137 0.6510 0.9216);stop-opacity:1;"/>
<stop offset="1" stop-color="#C5BAEB" style="stop-color:#C5BAEB;stop-color:color(display-p3 0.7725 0.7294 0.9216);stop-opacity:1;"/>
</linearGradient>
<linearGradient id="paint8_linear_2146_30392" x1="45.6928" y1="16.9955" x2="42.9256" y2="21.7886" gradientUnits="userSpaceOnUse">
<stop stop-color="#A996EB" style="stop-color:#A996EB;stop-color:color(display-p3 0.6627 0.5882 0.9216);stop-opacity:1;"/>
<stop offset="0.4097" stop-color="#B6A6EB" style="stop-color:#B6A6EB;stop-color:color(display-p3 0.7137 0.6510 0.9216);stop-opacity:1;"/>
<stop offset="1" stop-color="#C5BAEB" style="stop-color:#C5BAEB;stop-color:color(display-p3 0.7725 0.7294 0.9216);stop-opacity:1;"/>
</linearGradient>
<linearGradient id="paint9_linear_2146_30392" x1="42.6163" y1="31.2769" x2="39.8491" y2="36.0698" gradientUnits="userSpaceOnUse">
<stop stop-color="#A996EB" style="stop-color:#A996EB;stop-color:color(display-p3 0.6627 0.5882 0.9216);stop-opacity:1;"/>
<stop offset="0.4097" stop-color="#B6A6EB" style="stop-color:#B6A6EB;stop-color:color(display-p3 0.7137 0.6510 0.9216);stop-opacity:1;"/>
<stop offset="1" stop-color="#C5BAEB" style="stop-color:#C5BAEB;stop-color:color(display-p3 0.7725 0.7294 0.9216);stop-opacity:1;"/>
</linearGradient>
<clipPath id="clip0_2146_30392">
<rect width="60" height="60" fill="white" style="fill:white;fill-opacity:1;"/>
</clipPath>
</defs>
</svg>
