<svg width="60" height="60" viewBox="0 0 60 60" fill="none" xmlns="http://www.w3.org/2000/svg">
<g clip-path="url(#clip0_2146_38687)">
<path d="M21.0346 60.0004L19.0934 58.8796V46.8783L35.8294 37.2158L37.8695 38.3938V50.2807L21.0346 60.0004Z" fill="url(#paint0_linear_2146_38687)" style=""/>
<path opacity="0.7" d="M21.0346 52.2261L22.8014 47.1246L20.3758 46.1377L19.0935 46.8782V51.1054L21.0346 52.2261Z" fill="url(#paint1_linear_2146_38687)" style=""/>
<path d="M21.0345 48.1132V60.0001L37.8695 50.2805V38.3936L21.0345 48.1132Z" fill="url(#paint2_linear_2146_38687)" style=""/>
<path opacity="0.7" d="M37.8695 38.3936L21.0345 48.1132V52.2261C23.3197 52.4638 25.9081 51.8477 28.6506 50.2644C32.0566 48.2979 35.2247 45.1129 37.8696 41.2586L37.8695 38.3936Z" fill="url(#paint3_linear_2146_38687)" style=""/>
<path d="M38.84 1.08253L38.8373 1.08874C35.9073 -0.564538 32.1045 -0.39403 27.9451 2.00738C18.6887 7.35159 11.1849 21.6891 11.1849 34.0309C11.1849 40.7566 13.4167 45.4953 16.9426 47.5563L16.9397 47.5625L20.2913 49.4707L42.1777 2.98226L38.84 1.08253Z" fill="url(#paint4_linear_2146_38687)" style=""/>
<path d="M31.2007 3.86084C21.9443 9.20506 14.4406 23.5422 14.4406 35.8843C14.4406 48.226 21.9443 53.8987 31.2007 48.5545C40.457 43.2103 47.9609 28.873 47.9609 16.5314C47.9607 4.18943 40.457 -1.48326 31.2007 3.86084Z" fill="url(#paint5_linear_2146_38687)" style=""/>
<path d="M25.8386 46.4218C23.494 46.4218 21.4597 45.462 19.928 43.6254C16.9845 40.0958 16.2622 33.8166 17.9957 26.8284C19.3148 21.5109 21.8876 16.4259 25.2405 12.5098C28.6451 8.53318 32.4669 6.2213 36.0015 5.99982C38.5795 5.83869 40.8139 6.79939 42.4647 8.77869C45.4082 12.3083 46.1306 18.5876 44.397 25.576C43.078 30.8934 40.5051 35.9783 37.1522 39.8942C33.7476 43.8708 29.9259 46.1827 26.3913 46.4042C26.2053 46.4159 26.021 46.4218 25.8386 46.4218ZM36.0846 7.3279C32.9122 7.52665 29.4199 9.67435 26.2511 13.3752C23.0305 17.137 20.5572 22.0285 19.287 27.1488C18.4692 30.446 18.2109 33.6544 18.5402 36.4271C18.8534 39.0642 19.6867 41.2586 20.9498 42.7733C22.318 44.4138 24.1714 45.2102 26.3081 45.0762C29.4805 44.8775 32.9728 42.7298 36.1415 39.0289C39.3622 35.2673 41.8354 30.3758 43.1056 25.2556C43.9235 21.9583 44.1817 18.7499 43.8524 15.9772C43.5392 13.3401 42.7059 11.1456 41.4428 9.63087C40.0746 7.99048 38.2223 7.19361 36.0846 7.3279Z" fill="#00395E" style="fill:#00395E;fill:color(display-p3 0.0000 0.2235 0.3686);fill-opacity:1;"/>
<path d="M43.5052 11.7061L31.2339 26.1576L43.7722 25.3309C45.1159 19.9143 44.9152 15.1018 43.5052 11.7061Z" fill="#F7E041" style="fill:#F7E041;fill:color(display-p3 0.9686 0.8784 0.2549);fill-opacity:1;"/>
<path d="M29.9637 26.7973L43.6694 10.6562L44.0172 11.4937C45.5346 15.148 45.6386 20.1096 44.3103 25.4646L44.2128 25.8578L29.9637 26.7973ZM43.3159 12.7858L32.5043 25.5186L43.3292 24.8046C44.4024 20.2475 44.3942 16.0353 43.3159 12.7858Z" fill="#00395E" style="fill:#00395E;fill:color(display-p3 0.0000 0.2235 0.3686);fill-opacity:1;"/>
<path d="M25.7087 12.9867L31.2339 26.1584L36.043 6.66406C32.5624 6.88203 28.866 9.28391 25.7087 12.9867Z" fill="#FF4757" style="fill:#FF4757;fill:color(display-p3 1.0000 0.2784 0.3412);fill-opacity:1;"/>
<path d="M31.3708 27.9182L25.0654 12.8866L25.2868 12.627C28.682 8.64547 32.4896 6.33125 36.0084 6.1107L36.7623 6.06348L31.3708 27.9182ZM26.3527 13.089L31.0968 24.3989L35.3148 7.30121C32.3845 7.75859 29.2396 9.785 26.3527 13.089Z" fill="#00395E" style="fill:#00395E;fill:color(display-p3 0.0000 0.2235 0.3686);fill-opacity:1;"/>
<path d="M18.6499 27.064L31.2338 26.159L25.7685 12.959C22.3572 16.9434 19.8854 22.0448 18.6499 27.064Z" fill="#FFA538" style="fill:#FFA538;fill:color(display-p3 1.0000 0.6471 0.2196);fill-opacity:1;"/>
<path d="M17.9293 27.6718L18.1114 26.9316C19.4221 21.608 21.9916 16.5177 25.3473 12.5985L25.935 11.9121L32.0401 26.6571L17.9293 27.6718ZM25.6081 14.0211C22.7989 17.5196 20.6146 21.879 19.3794 26.4559L30.4277 25.6612L25.6081 14.0211Z" fill="#00395E" style="fill:#00395E;fill:color(display-p3 0.0000 0.2235 0.3686);fill-opacity:1;"/>
<path d="M18.9626 40.6099L31.2339 26.1582L18.6955 26.985C17.3519 32.4016 17.5527 37.2143 18.9626 40.6099Z" fill="#F7E041" style="fill:#F7E041;fill:color(display-p3 0.9686 0.8784 0.2549);fill-opacity:1;"/>
<path d="M18.7983 41.6596L18.4505 40.8222C16.9333 37.1678 16.8291 32.2062 18.1574 26.8512L18.2549 26.458L32.5042 25.5186L18.7983 41.6596ZM19.1386 27.5111C18.0654 32.0683 18.0736 36.2805 19.152 39.53L29.9637 26.7972L19.1386 27.5111Z" fill="#00395E" style="fill:#00395E;fill:color(display-p3 0.0000 0.2235 0.3686);fill-opacity:1;"/>
<path d="M26.4637 45.6909L31.2339 26.1582L18.9673 40.5274C20.4784 44.2033 23.2341 45.9079 26.4637 45.6909Z" fill="#59ACF9" style="fill:#59ACF9;fill:color(display-p3 0.3490 0.6745 0.9765);fill-opacity:1;"/>
<path d="M25.9289 46.2631C22.6125 46.2631 19.909 44.2763 18.4545 40.738L18.3256 40.4248L32.3254 24.0254L26.9057 46.2166L26.5006 46.2438C26.3085 46.2567 26.1175 46.2631 25.9289 46.2631ZM19.6123 40.6254C20.9219 43.5644 23.1403 45.1545 25.9206 45.1545C25.9551 45.1545 25.9894 45.1543 26.024 45.1538L30.1424 28.2904L19.6123 40.6254Z" fill="#00395E" style="fill:#00395E;fill:color(display-p3 0.0000 0.2235 0.3686);fill-opacity:1;"/>
<path d="M36.7589 39.33L31.2338 26.1582L26.4246 45.6526C29.9053 45.4345 33.6016 43.0326 36.7589 39.33Z" fill="#7662BD" style="fill:#7662BD;fill:color(display-p3 0.4627 0.3843 0.7412);fill-opacity:1;"/>
<path d="M25.7054 46.2531L31.097 24.3984L37.4022 39.4301L37.1808 39.6896C33.7855 43.6713 29.978 45.9855 26.4592 46.206L25.7054 46.2531ZM31.3708 27.9178L27.1528 45.0154C30.0831 44.5581 33.2279 42.5317 36.1149 39.2275L31.3708 27.9178Z" fill="#00395E" style="fill:#00395E;fill:color(display-p3 0.0000 0.2235 0.3686);fill-opacity:1;"/>
<path d="M43.8177 25.2529L31.2338 26.158L36.6992 39.358C40.1104 35.3737 42.5821 30.2723 43.8177 25.2529Z" fill="#FFA538" style="fill:#FFA538;fill:color(display-p3 1.0000 0.6471 0.2196);fill-opacity:1;"/>
<path d="M36.5327 40.4052L30.4277 25.6604L44.5384 24.6455L44.3563 25.3858C43.0457 30.7095 40.476 35.7996 37.1204 39.7189L36.5327 40.4052ZM32.0401 26.6562L36.8596 38.2963C39.6688 34.7978 41.8532 30.4386 43.0883 25.8616L32.0401 26.6562Z" fill="#00395E" style="fill:#00395E;fill:color(display-p3 0.0000 0.2235 0.3686);fill-opacity:1;"/>
<path d="M36.0041 6.62484L31.2339 26.1575L43.5005 11.7882C41.9894 8.1123 39.2336 6.40769 36.0041 6.62484Z" fill="#06DAAE" style="fill:#06DAAE;fill:color(display-p3 0.0235 0.8549 0.6824);fill-opacity:1;"/>
<path d="M30.1425 28.2905L35.562 6.0993L35.967 6.07211C39.5452 5.83164 42.4761 7.83848 44.0134 11.5779L44.1423 11.8911L30.1425 28.2905ZM36.4439 7.16196L32.3255 24.0254L42.8555 11.6903C41.5298 8.71516 39.2675 7.1227 36.4439 7.16196Z" fill="#00395E" style="fill:#00395E;fill:color(display-p3 0.0000 0.2235 0.3686);fill-opacity:1;"/>
<path d="M32.3493 15.3166L31.1607 14.6304L29.5239 7.99965L33.9862 6.7959L32.3493 15.3166Z" fill="#A996EB" style="fill:#A996EB;fill:color(display-p3 0.6627 0.5882 0.9216);fill-opacity:1;"/>
<path d="M28.4814 8.01137V7.40949L33.9862 6.80762L33.813 7.50945L30.7126 9.29949L28.4814 8.01137Z" fill="#A996EB" style="fill:#A996EB;fill:color(display-p3 0.6627 0.5882 0.9216);fill-opacity:1;"/>
<path d="M28.4814 7.40953L30.7126 8.69766L33.9862 6.80766L31.7551 5.51953L28.4814 7.40953Z" fill="white" style="fill:white;fill-opacity:1;"/>
<path d="M30.7126 8.6859L32.3494 15.3165L33.9863 6.7959L30.7126 8.6859Z" fill="url(#paint6_linear_2146_38687)" style=""/>
<path d="M32.8053 26.9036C33.4686 25.3469 33.2924 23.7807 32.4117 23.4054C31.531 23.0302 30.2793 23.9879 29.616 25.5446C28.9527 27.1013 29.129 28.6675 30.0097 29.0427C30.8904 29.418 32.142 28.4603 32.8053 26.9036Z" fill="white" style="fill:white;fill-opacity:1;"/>
<path d="M30.4069 29.6644C30.127 29.6644 29.8605 29.5947 29.6178 29.4545C29.0031 29.0997 28.6506 28.3364 28.6506 27.3604C28.6506 25.6887 29.6491 23.8029 30.9235 23.0671C31.5822 22.6868 32.2428 22.6494 32.7837 22.9618C33.3984 23.3166 33.7509 24.0798 33.7509 25.0559C33.7509 26.7276 32.7524 28.6134 31.478 29.3492C31.1147 29.5589 30.7509 29.6643 30.4069 29.6644ZM31.9931 23.8627C31.7996 23.8627 31.6005 23.9566 31.4779 24.0272C30.5464 24.565 29.7595 26.0914 29.7595 27.3603C29.7595 27.9211 29.9137 28.345 30.1722 28.4942C30.4197 28.6373 30.7491 28.4895 30.9236 28.3888C31.8551 27.851 32.642 26.3247 32.642 25.0558C32.642 24.4949 32.4878 24.071 32.2293 23.9219C32.1558 23.8794 32.0749 23.8627 31.9931 23.8627Z" fill="#00395E" style="fill:#00395E;fill:color(display-p3 0.0000 0.2235 0.3686);fill-opacity:1;"/>
<path d="M42.4861 7.48758C43.3176 7.48758 43.9916 6.81354 43.9916 5.98207C43.9916 5.1506 43.3176 4.47656 42.4861 4.47656C41.6546 4.47656 40.9806 5.1506 40.9806 5.98207C40.9806 6.81354 41.6546 7.48758 42.4861 7.48758Z" fill="url(#paint7_radial_2146_38687)" style=""/>
<path d="M47.3096 19.3929C48.1411 19.3929 48.8151 18.7188 48.8151 17.8873C48.8151 17.0559 48.1411 16.3818 47.3096 16.3818C46.4781 16.3818 45.8041 17.0559 45.8041 17.8873C45.8041 18.7188 46.4781 19.3929 47.3096 19.3929Z" fill="url(#paint8_radial_2146_38687)" style=""/>
<path d="M43.5005 35.094C44.332 35.094 45.006 34.42 45.006 33.5885C45.006 32.757 44.332 32.083 43.5005 32.083C42.669 32.083 41.995 32.757 41.995 33.5885C41.995 34.42 42.669 35.094 43.5005 35.094Z" fill="url(#paint9_radial_2146_38687)" style=""/>
<path d="M32.0402 48.1653C32.8716 48.1653 33.5457 47.4913 33.5457 46.6598C33.5457 45.8283 32.8716 45.1543 32.0402 45.1543C31.2087 45.1543 30.5347 45.8283 30.5347 46.6598C30.5347 47.4913 31.2087 48.1653 32.0402 48.1653Z" fill="url(#paint10_radial_2146_38687)" style=""/>
<path d="M21.1178 49.2747C21.9493 49.2747 22.6233 48.6006 22.6233 47.7692C22.6233 46.9377 21.9493 46.2637 21.1178 46.2637C20.2863 46.2637 19.6123 46.9377 19.6123 47.7692C19.6123 48.6006 20.2863 49.2747 21.1178 49.2747Z" fill="url(#paint11_radial_2146_38687)" style=""/>
<path d="M16.4238 35.5354C17.2553 35.5354 17.9293 34.8614 17.9293 34.0299C17.9293 33.1985 17.2553 32.5244 16.4238 32.5244C15.5924 32.5244 14.9183 33.1985 14.9183 34.0299C14.9183 34.8614 15.5924 35.5354 16.4238 35.5354Z" fill="url(#paint12_radial_2146_38687)" style=""/>
<path d="M21.7396 18.8596C22.5711 18.8596 23.2451 18.1856 23.2451 17.3541C23.2451 16.5227 22.5711 15.8486 21.7396 15.8486C20.9082 15.8486 20.2341 16.5227 20.2341 17.3541C20.2341 18.1856 20.9082 18.8596 21.7396 18.8596Z" fill="url(#paint13_radial_2146_38687)" style=""/>
</g>
<defs>
<linearGradient id="paint0_linear_2146_38687" x1="28.4815" y1="50.8849" x2="28.4815" y2="62.9324" gradientUnits="userSpaceOnUse">
<stop stop-color="#5D3645" style="stop-color:#5D3645;stop-color:color(display-p3 0.3647 0.2118 0.2706);stop-opacity:1;"/>
<stop offset="0.3113" stop-color="#6B4352" style="stop-color:#6B4352;stop-color:color(display-p3 0.4196 0.2627 0.3216);stop-opacity:1;"/>
<stop offset="0.8946" stop-color="#8F6676" style="stop-color:#8F6676;stop-color:color(display-p3 0.5608 0.4000 0.4627);stop-opacity:1;"/>
<stop offset="1" stop-color="#966D7D" style="stop-color:#966D7D;stop-color:color(display-p3 0.5882 0.4275 0.4902);stop-opacity:1;"/>
</linearGradient>
<linearGradient id="paint1_linear_2146_38687" x1="20.9475" y1="46.5668" x2="20.9475" y2="55.6856" gradientUnits="userSpaceOnUse">
<stop stop-color="#2F1B23" style="stop-color:#2F1B23;stop-color:color(display-p3 0.1843 0.1059 0.1373);stop-opacity:1;"/>
<stop offset="1" stop-color="#2F1B23" stop-opacity="0" style="stop-color:none;stop-opacity:0;"/>
</linearGradient>
<linearGradient id="paint2_linear_2146_38687" x1="29.452" y1="40.9683" x2="29.452" y2="58.9737" gradientUnits="userSpaceOnUse">
<stop stop-color="#5D3645" style="stop-color:#5D3645;stop-color:color(display-p3 0.3647 0.2118 0.2706);stop-opacity:1;"/>
<stop offset="0.3113" stop-color="#6B4352" style="stop-color:#6B4352;stop-color:color(display-p3 0.4196 0.2627 0.3216);stop-opacity:1;"/>
<stop offset="0.8946" stop-color="#8F6676" style="stop-color:#8F6676;stop-color:color(display-p3 0.5608 0.4000 0.4627);stop-opacity:1;"/>
<stop offset="1" stop-color="#966D7D" style="stop-color:#966D7D;stop-color:color(display-p3 0.5882 0.4275 0.4902);stop-opacity:1;"/>
</linearGradient>
<linearGradient id="paint3_linear_2146_38687" x1="29.452" y1="45.9762" x2="29.452" y2="55.6581" gradientUnits="userSpaceOnUse">
<stop stop-color="#2F1B23" style="stop-color:#2F1B23;stop-color:color(display-p3 0.1843 0.1059 0.1373);stop-opacity:1;"/>
<stop offset="1" stop-color="#2F1B23" stop-opacity="0" style="stop-color:none;stop-opacity:0;"/>
</linearGradient>
<linearGradient id="paint4_linear_2146_38687" x1="21.7107" y1="26.3007" x2="36.8642" y2="0.0540942" gradientUnits="userSpaceOnUse">
<stop stop-color="#5D3645" style="stop-color:#5D3645;stop-color:color(display-p3 0.3647 0.2118 0.2706);stop-opacity:1;"/>
<stop offset="0.2747" stop-color="#774F5E" style="stop-color:#774F5E;stop-color:color(display-p3 0.4667 0.3098 0.3686);stop-opacity:1;"/>
<stop offset="0.5818" stop-color="#8E6575" style="stop-color:#8E6575;stop-color:color(display-p3 0.5569 0.3961 0.4588);stop-opacity:1;"/>
<stop offset="0.7762" stop-color="#966D7D" style="stop-color:#966D7D;stop-color:color(display-p3 0.5882 0.4275 0.4902);stop-opacity:1;"/>
<stop offset="1" stop-color="#5D3645" style="stop-color:#5D3645;stop-color:color(display-p3 0.3647 0.2118 0.2706);stop-opacity:1;"/>
</linearGradient>
<linearGradient id="paint5_linear_2146_38687" x1="31.2007" y1="53.242" x2="-0.7244" y2="-2.0522" gradientUnits="userSpaceOnUse">
<stop stop-color="#DEA861" style="stop-color:#DEA861;stop-color:color(display-p3 0.8706 0.6588 0.3804);stop-opacity:1;"/>
<stop offset="0.2331" stop-color="#E0AD69" style="stop-color:#E0AD69;stop-color:color(display-p3 0.8784 0.6784 0.4118);stop-opacity:1;"/>
<stop offset="0.6023" stop-color="#E4B980" style="stop-color:#E4B980;stop-color:color(display-p3 0.8941 0.7255 0.5020);stop-opacity:1;"/>
<stop offset="1" stop-color="#EBCBA0" style="stop-color:#EBCBA0;stop-color:color(display-p3 0.9216 0.7961 0.6275);stop-opacity:1;"/>
</linearGradient>
<linearGradient id="paint6_linear_2146_38687" x1="32.3494" y1="6.92902" x2="32.3494" y2="18.1755" gradientUnits="userSpaceOnUse">
<stop stop-color="#DFDAEF" style="stop-color:#DFDAEF;stop-color:color(display-p3 0.8745 0.8549 0.9373);stop-opacity:1;"/>
<stop offset="1" stop-color="#F2EFFA" style="stop-color:#F2EFFA;stop-color:color(display-p3 0.9490 0.9373 0.9804);stop-opacity:1;"/>
</linearGradient>
<radialGradient id="paint7_radial_2146_38687" cx="0" cy="0" r="1" gradientUnits="userSpaceOnUse" gradientTransform="translate(42.4861 5.98207) scale(1.50551 1.50551)">
<stop stop-color="#F2EFFA" style="stop-color:#F2EFFA;stop-color:color(display-p3 0.9490 0.9373 0.9804);stop-opacity:1;"/>
<stop offset="1" stop-color="#DFDAEF" style="stop-color:#DFDAEF;stop-color:color(display-p3 0.8745 0.8549 0.9373);stop-opacity:1;"/>
</radialGradient>
<radialGradient id="paint8_radial_2146_38687" cx="0" cy="0" r="1" gradientUnits="userSpaceOnUse" gradientTransform="translate(47.3096 17.8875) scale(1.50551 1.50551)">
<stop stop-color="#F2EFFA" style="stop-color:#F2EFFA;stop-color:color(display-p3 0.9490 0.9373 0.9804);stop-opacity:1;"/>
<stop offset="1" stop-color="#DFDAEF" style="stop-color:#DFDAEF;stop-color:color(display-p3 0.8745 0.8549 0.9373);stop-opacity:1;"/>
</radialGradient>
<radialGradient id="paint9_radial_2146_38687" cx="0" cy="0" r="1" gradientUnits="userSpaceOnUse" gradientTransform="translate(43.5005 33.5885) scale(1.50551 1.50551)">
<stop stop-color="#F2EFFA" style="stop-color:#F2EFFA;stop-color:color(display-p3 0.9490 0.9373 0.9804);stop-opacity:1;"/>
<stop offset="1" stop-color="#DFDAEF" style="stop-color:#DFDAEF;stop-color:color(display-p3 0.8745 0.8549 0.9373);stop-opacity:1;"/>
</radialGradient>
<radialGradient id="paint10_radial_2146_38687" cx="0" cy="0" r="1" gradientUnits="userSpaceOnUse" gradientTransform="translate(32.0402 46.6598) scale(1.50551 1.50551)">
<stop stop-color="#F2EFFA" style="stop-color:#F2EFFA;stop-color:color(display-p3 0.9490 0.9373 0.9804);stop-opacity:1;"/>
<stop offset="1" stop-color="#DFDAEF" style="stop-color:#DFDAEF;stop-color:color(display-p3 0.8745 0.8549 0.9373);stop-opacity:1;"/>
</radialGradient>
<radialGradient id="paint11_radial_2146_38687" cx="0" cy="0" r="1" gradientUnits="userSpaceOnUse" gradientTransform="translate(21.1178 47.7692) scale(1.50551 1.50551)">
<stop stop-color="#F2EFFA" style="stop-color:#F2EFFA;stop-color:color(display-p3 0.9490 0.9373 0.9804);stop-opacity:1;"/>
<stop offset="1" stop-color="#DFDAEF" style="stop-color:#DFDAEF;stop-color:color(display-p3 0.8745 0.8549 0.9373);stop-opacity:1;"/>
</radialGradient>
<radialGradient id="paint12_radial_2146_38687" cx="0" cy="0" r="1" gradientUnits="userSpaceOnUse" gradientTransform="translate(16.424 34.0299) scale(1.50551)">
<stop stop-color="#F2EFFA" style="stop-color:#F2EFFA;stop-color:color(display-p3 0.9490 0.9373 0.9804);stop-opacity:1;"/>
<stop offset="1" stop-color="#DFDAEF" style="stop-color:#DFDAEF;stop-color:color(display-p3 0.8745 0.8549 0.9373);stop-opacity:1;"/>
</radialGradient>
<radialGradient id="paint13_radial_2146_38687" cx="0" cy="0" r="1" gradientUnits="userSpaceOnUse" gradientTransform="translate(21.7396 17.3541) scale(1.50551)">
<stop stop-color="#F2EFFA" style="stop-color:#F2EFFA;stop-color:color(display-p3 0.9490 0.9373 0.9804);stop-opacity:1;"/>
<stop offset="1" stop-color="#DFDAEF" style="stop-color:#DFDAEF;stop-color:color(display-p3 0.8745 0.8549 0.9373);stop-opacity:1;"/>
</radialGradient>
<clipPath id="clip0_2146_38687">
<rect width="60" height="60" fill="white" style="fill:white;fill-opacity:1;"/>
</clipPath>
</defs>
</svg>
