<svg width="60" height="60" viewBox="0 0 60 60" fill="none" xmlns="http://www.w3.org/2000/svg">
<g clip-path="url(#clip0_2146_38727)">
<path d="M48.4699 3.74552L42.2834 0.172945C41.7748 -0.0977577 41.121 -0.0599061 40.4075 0.352008L13.461 15.9095C11.8402 16.8453 10.5262 19.3557 10.5262 21.5169V53.8883C10.5262 55.0634 10.9153 55.8922 11.5304 56.2543L17.6984 59.8162L48.4699 3.74552Z" fill="url(#paint0_linear_2146_38727)" style=""/>
<path d="M46.539 3.89318L19.5924 19.4508C17.9716 20.3865 16.6577 22.8971 16.6577 25.0582V57.4296C16.6577 59.5906 17.9716 60.584 19.5924 59.6482L46.539 44.0906C48.1598 43.1549 49.4737 40.6442 49.4737 38.4832V6.11189C49.4737 3.95072 48.1598 2.95743 46.539 3.89318Z" fill="url(#paint1_linear_2146_38727)" style=""/>
<path d="M40.4075 0.351899L13.461 15.9095C11.8402 16.8453 10.5262 19.3557 10.5262 21.5169V27.8022L16.6577 31.3423L41.0551 17.2564L48.4699 3.74553L42.2834 0.172954C41.7748 -0.097749 41.121 -0.0598974 40.4075 0.351899Z" fill="url(#paint2_linear_2146_38727)" style=""/>
<path d="M46.539 3.89318L19.5924 19.4508C17.9716 20.3865 16.6577 22.8971 16.6577 25.0582V31.3427L49.4738 12.3963V6.11177C49.4737 3.95072 48.1598 2.95744 46.539 3.89318Z" fill="url(#paint3_linear_2146_38727)" style=""/>
<path d="M22.2604 35.7263L19.3701 37.395C18.9895 37.6147 18.6809 38.2044 18.6809 38.712V42.5657C18.6809 43.0732 18.9895 43.3065 19.3701 43.0867L22.2604 41.4179C22.641 41.1982 22.9496 40.6085 22.9496 40.101V36.2473C22.9496 35.7397 22.641 35.5065 22.2604 35.7263Z" fill="#FF959D" style="fill:#FF959D;fill:color(display-p3 1.0000 0.5843 0.6157);fill-opacity:1;"/>
<path d="M27.1962 32.8766L24.3059 34.5454C23.9253 34.7651 23.6167 35.3548 23.6167 35.8623V39.7161C23.6167 40.2236 23.9253 40.4569 24.3059 40.2371L27.1962 38.5683C27.5768 38.3486 27.8854 37.7589 27.8854 37.2515V33.3978C27.8854 32.8901 27.5768 32.6569 27.1962 32.8766Z" fill="#D7D1EB" style="fill:#D7D1EB;fill:color(display-p3 0.8431 0.8196 0.9216);fill-opacity:1;"/>
<path d="M32.1319 30.027L29.2415 31.6958C28.8609 31.9155 28.5524 32.5051 28.5524 33.0126V36.8663C28.5524 37.3739 28.8609 37.6072 29.2415 37.3873L32.1319 35.7186C32.5125 35.4989 32.821 34.9093 32.821 34.4018V30.548C32.8212 30.0405 32.5126 29.8073 32.1319 30.027Z" fill="#D7D1EB" style="fill:#D7D1EB;fill:color(display-p3 0.8431 0.8196 0.9216);fill-opacity:1;"/>
<path d="M37.0677 27.1775L34.1773 28.8462C33.7967 29.0659 33.4882 29.6556 33.4882 30.1632V34.0169C33.4882 34.5244 33.7967 34.7577 34.1773 34.5379L37.0677 32.8691C37.4483 32.6494 37.7568 32.0599 37.7568 31.5523V27.6986C37.7568 27.1909 37.4483 26.9576 37.0677 27.1775Z" fill="#D7D1EB" style="fill:#D7D1EB;fill:color(display-p3 0.8431 0.8196 0.9216);fill-opacity:1;"/>
<path d="M42.0034 24.3269L39.1131 25.9956C38.7325 26.2154 38.424 26.8051 38.424 27.3126V31.1663C38.424 31.6738 38.7325 31.9072 39.1131 31.6873L42.0034 30.0186C42.3841 29.7988 42.6926 29.2092 42.6926 28.7016V24.8479C42.6927 24.3404 42.3842 24.107 42.0034 24.3269Z" fill="#D7D1EB" style="fill:#D7D1EB;fill:color(display-p3 0.8431 0.8196 0.9216);fill-opacity:1;"/>
<path d="M46.9392 21.4783L44.0489 23.147C43.6683 23.3667 43.3597 23.9563 43.3597 24.464V28.3177C43.3597 28.8252 43.6683 29.0585 44.0489 28.8387L46.9392 27.1699C47.3199 26.9502 47.6284 26.3605 47.6284 25.853V21.9993C47.6284 21.4917 47.3199 21.2584 46.9392 21.4783Z" fill="#D7D1EB" style="fill:#D7D1EB;fill:color(display-p3 0.8431 0.8196 0.9216);fill-opacity:1;"/>
<path d="M22.2604 42.3073L19.3701 43.9761C18.9895 44.1958 18.6809 44.7854 18.6809 45.293V49.1467C18.6809 49.6543 18.9895 49.8876 19.3701 49.6677L22.2604 47.999C22.641 47.7793 22.9496 47.1897 22.9496 46.6821V42.8284C22.9496 42.3208 22.641 42.0876 22.2604 42.3073Z" fill="#FF959D" style="fill:#FF959D;fill:color(display-p3 1.0000 0.5843 0.6157);fill-opacity:1;"/>
<path d="M27.1962 39.4577L24.3059 41.1265C23.9253 41.3462 23.6167 41.9359 23.6167 42.4435V46.2972C23.6167 46.8047 23.9253 47.038 24.3059 46.8182L27.1962 45.1494C27.5768 44.9297 27.8854 44.34 27.8854 43.8326V39.9788C27.8854 39.4712 27.5768 39.2379 27.1962 39.4577Z" fill="#D7D1EB" style="fill:#D7D1EB;fill:color(display-p3 0.8431 0.8196 0.9216);fill-opacity:1;"/>
<path d="M22.2604 48.8884L19.3701 50.5572C18.9895 50.7769 18.6809 51.3665 18.6809 51.8741V55.7278C18.6809 56.2354 18.9895 56.4687 19.3701 56.2488L22.2604 54.5801C22.641 54.3604 22.9496 53.7707 22.9496 53.2631V49.4094C22.9496 48.9019 22.641 48.6686 22.2604 48.8884Z" fill="#FF959D" style="fill:#FF959D;fill:color(display-p3 1.0000 0.5843 0.6157);fill-opacity:1;"/>
<path d="M27.1961 46.0378L24.3058 47.7066C23.9251 47.9263 23.6166 48.5159 23.6166 49.0234V52.8771C23.6166 53.3847 23.9251 53.618 24.3058 53.3981L27.1961 51.7294C27.5767 51.5097 27.8852 50.9201 27.8852 50.4124V46.5587C27.8852 46.0513 27.5767 45.818 27.1961 46.0378Z" fill="#D7D1EB" style="fill:#D7D1EB;fill:color(display-p3 0.8431 0.8196 0.9216);fill-opacity:1;"/>
<path d="M32.1317 36.6072L29.2414 38.2759C28.8608 38.4956 28.5522 39.0852 28.5522 39.5927V43.4465C28.5522 43.954 28.8608 44.1873 29.2414 43.9675L32.1317 42.2987C32.5124 42.079 32.8209 41.4893 32.8209 40.9819V37.1282C32.821 36.6206 32.5125 36.3873 32.1317 36.6072Z" fill="#D7D1EB" style="fill:#D7D1EB;fill:color(display-p3 0.8431 0.8196 0.9216);fill-opacity:1;"/>
<path d="M37.0677 33.7576L34.1773 35.4263C33.7967 35.646 33.4882 36.2356 33.4882 36.7433V40.597C33.4882 41.1045 33.7967 41.3378 34.1773 41.118L37.0677 39.4492C37.4483 39.2295 37.7568 38.6398 37.7568 38.1323V34.2786C37.7568 33.771 37.4483 33.5377 37.0677 33.7576Z" fill="#D7D1EB" style="fill:#D7D1EB;fill:color(display-p3 0.8431 0.8196 0.9216);fill-opacity:1;"/>
<path d="M42.0033 30.9079L39.113 32.5767C38.7324 32.7964 38.4238 33.3861 38.4238 33.8935V37.7472C38.4238 38.2548 38.7324 38.4881 39.113 38.2683L42.0033 36.5995C42.3839 36.3798 42.6925 35.7901 42.6925 35.2827V31.429C42.6926 30.9214 42.3841 30.6881 42.0033 30.9079Z" fill="#D7D1EB" style="fill:#D7D1EB;fill:color(display-p3 0.8431 0.8196 0.9216);fill-opacity:1;"/>
<path d="M32.1317 43.1794L29.2414 44.8481C28.8608 45.0678 28.5522 45.6574 28.5522 46.1649V50.0187C28.5522 50.5262 28.8608 50.7595 29.2414 50.5397L32.1317 48.8709C32.5124 48.6512 32.8209 48.0616 32.8209 47.554V43.7003C32.821 43.193 32.5125 42.9596 32.1317 43.1794Z" fill="#D7D1EB" style="fill:#D7D1EB;fill:color(display-p3 0.8431 0.8196 0.9216);fill-opacity:1;"/>
<path d="M37.0677 40.3298L34.1773 41.9985C33.7967 42.2182 33.4882 42.8078 33.4882 43.3153V47.169C33.4882 47.6766 33.7967 47.9099 34.1773 47.6901L37.0677 46.0213C37.4483 45.8016 37.7568 45.212 37.7568 44.7045V40.8508C37.7568 40.3433 37.4483 40.11 37.0677 40.3298Z" fill="#D7D1EB" style="fill:#D7D1EB;fill:color(display-p3 0.8431 0.8196 0.9216);fill-opacity:1;"/>
<path d="M42.0033 37.4801L39.113 39.1489C38.7324 39.3686 38.4238 39.9583 38.4238 40.4658V44.3196C38.4238 44.8271 38.7324 45.0604 39.113 44.8406L42.0033 43.1718C42.3839 42.9521 42.6925 42.3624 42.6925 41.8549V38.0012C42.6926 37.4937 42.3841 37.2604 42.0033 37.4801Z" fill="#D7D1EB" style="fill:#D7D1EB;fill:color(display-p3 0.8431 0.8196 0.9216);fill-opacity:1;"/>
<path d="M42.0033 17.7458L39.113 19.4146C38.7324 19.6343 38.4238 20.224 38.4238 20.7315V24.5852C38.4238 25.0928 38.7324 25.3261 39.113 25.1063L42.0033 23.4375C42.3839 23.2178 42.6925 22.6281 42.6925 22.1206V18.2668C42.6926 17.7593 42.3841 17.526 42.0033 17.7458Z" fill="#D7D1EB" style="fill:#D7D1EB;fill:color(display-p3 0.8431 0.8196 0.9216);fill-opacity:1;"/>
<path d="M46.9391 14.8962L44.0488 16.565C43.6682 16.7847 43.3596 17.3743 43.3596 17.8819V21.7356C43.3596 22.2432 43.6682 22.4765 44.0488 22.2567L46.9391 20.5879C47.3197 20.3682 47.6283 19.7786 47.6283 19.2711V15.4174C47.6283 14.9097 47.3197 14.6764 46.9391 14.8962Z" fill="#D7D1EB" style="fill:#D7D1EB;fill:color(display-p3 0.8431 0.8196 0.9216);fill-opacity:1;"/>
<path d="M46.9391 28.0583L44.0488 29.7271C43.6682 29.9468 43.3596 30.5365 43.3596 31.0439V34.8976C43.3596 35.4052 43.6682 35.6385 44.0488 35.4186L46.9391 33.7499C47.3197 33.5302 47.6283 32.9405 47.6283 32.4331V28.5793C47.6283 28.0718 47.3197 27.8385 46.9391 28.0583Z" fill="#D7D1EB" style="fill:#D7D1EB;fill:color(display-p3 0.8431 0.8196 0.9216);fill-opacity:1;"/>
<path d="M30.1885 44.4562C29.8896 44.6287 29.5923 44.7084 29.3016 44.6914C28.7599 44.6596 28.4144 44.3316 28.2741 43.7165C27.9213 42.1684 29.0333 39.3365 29.0808 39.2167C29.1587 39.0202 29.3139 38.8922 29.4276 38.9303C29.5411 38.9685 29.5702 39.1587 29.4925 39.3552C29.4822 39.3814 28.4625 41.9814 28.7563 43.2667C28.8585 43.7138 29.1071 43.9429 29.5164 43.9668C30.2156 44.0077 30.8365 43.2965 31.2342 42.6925C32.219 41.1974 32.9527 38.7268 32.8364 37.2973C32.7859 36.6768 32.5806 36.3623 32.2262 36.3626C30.9436 36.3641 28.8434 39.3698 28.8222 39.4002C28.7066 39.5669 28.5521 39.6121 28.4771 39.5014C28.4022 39.3905 28.435 39.1656 28.5504 38.999C28.6454 38.8618 30.8963 35.6389 32.424 35.6377C32.9414 35.6372 33.2642 36.1005 33.3326 36.9422C33.4675 38.6004 32.6551 41.3494 31.5218 43.0702C31.0862 43.7315 30.6358 44.1979 30.1885 44.4562Z" fill="#FF4757" style="fill:#FF4757;fill:color(display-p3 1.0000 0.2784 0.3412);fill-opacity:1;"/>
<path d="M35.1241 41.6064C34.8253 41.7789 34.528 41.8586 34.2373 41.8416C33.6957 41.8099 33.35 41.4819 33.2099 40.8668C32.8571 39.3187 33.9691 36.4868 34.0166 36.367C34.0944 36.1706 34.2497 36.0425 34.3634 36.0806C34.477 36.1188 34.506 36.309 34.4283 36.5055C34.418 36.5316 33.3983 39.1317 33.692 40.4171C33.7942 40.8642 34.0427 41.0933 34.4522 41.1172C35.1511 41.1582 35.7722 40.447 36.1699 39.843C37.1546 38.3479 37.8885 35.8771 37.7721 34.4478C37.7217 33.8273 37.5163 33.5129 37.1619 33.5131C35.8796 33.5144 33.7791 36.5203 33.758 36.5506C33.6423 36.7173 33.4878 36.7625 33.4128 36.6518C33.338 36.5409 33.3708 36.3161 33.4862 36.1494C33.5812 36.0123 35.8317 32.7895 37.36 32.7881C37.8773 32.7876 38.2 33.251 38.2684 34.0926C38.4033 35.7508 37.591 38.4998 36.4576 40.2205C36.022 40.8818 35.5716 41.3482 35.1241 41.6064Z" fill="#FF4757" style="fill:#FF4757;fill:color(display-p3 1.0000 0.2784 0.3412);fill-opacity:1;"/>
<path d="M40.06 38.7567C39.7611 38.9292 39.4638 39.0089 39.1731 38.9919C38.6316 38.9602 38.2859 38.6321 38.1457 38.017C37.7928 36.469 38.905 33.637 38.9524 33.5173C39.0303 33.3207 39.1856 33.1928 39.2992 33.2309C39.4128 33.2691 39.4418 33.4593 39.3641 33.6558C39.3538 33.6819 38.334 36.282 38.6278 37.5674C38.73 38.0145 38.9787 38.2434 39.388 38.2675C40.0869 38.3085 40.708 37.5971 41.1057 36.9933C42.0905 35.4982 42.8243 33.0274 42.7079 31.5981C42.6575 30.9776 42.4521 30.6632 42.0977 30.6635C40.8155 30.6648 38.7149 33.6707 38.6938 33.701C38.578 33.8677 38.4237 33.913 38.3487 33.8021C38.2738 33.6913 38.3065 33.4665 38.4221 33.2998C38.5172 33.1627 40.7674 29.94 42.2958 29.9385C42.8132 29.938 43.1358 30.4014 43.2042 31.2431C43.3391 32.9013 42.5269 35.6503 41.3934 37.371C40.9578 38.032 40.5073 38.4984 40.06 38.7567Z" fill="#FF4757" style="fill:#FF4757;fill:color(display-p3 1.0000 0.2784 0.3412);fill-opacity:1;"/>
<path d="M44.9957 35.9082C44.6969 36.0807 44.3996 36.1604 44.1089 36.1434C43.5673 36.1116 43.2216 35.7836 43.0815 35.1685C42.7286 33.6205 43.8407 30.7886 43.8882 30.6688C43.9661 30.4722 44.1214 30.3443 44.235 30.3823C44.3486 30.4205 44.3776 30.6107 44.2999 30.8073C44.2896 30.8334 43.2698 33.4334 43.5636 34.7189C43.6658 35.1659 43.9145 35.3949 44.3238 35.4189C45.0227 35.46 45.6439 34.7486 46.0415 34.1448C47.0263 32.6497 47.7601 30.1789 47.6437 28.7496C47.5933 28.1291 47.3879 27.8146 47.0335 27.815C45.751 27.8164 43.6507 30.8221 43.6296 30.8525C43.5137 31.0191 43.3595 31.0645 43.2845 30.9536C43.2096 30.8428 43.2423 30.618 43.3579 30.4511C43.453 30.314 45.7036 27.0913 47.2316 27.0898C47.7489 27.0894 48.0716 27.5527 48.14 28.3944C48.2749 30.0526 47.4627 32.8016 46.3292 34.5222C45.8936 35.1835 45.4432 35.6499 44.9957 35.9082Z" fill="#FF4757" style="fill:#FF4757;fill:color(display-p3 1.0000 0.2784 0.3412);fill-opacity:1;"/>
</g>
<defs>
<linearGradient id="paint0_linear_2146_38727" x1="29.4981" y1="89.0837" x2="29.4981" y2="-5.18135" gradientUnits="userSpaceOnUse">
<stop stop-color="#C5BAEB" style="stop-color:#C5BAEB;stop-color:color(display-p3 0.7725 0.7294 0.9216);stop-opacity:1;"/>
<stop offset="1" stop-color="white" style="stop-color:white;stop-opacity:1;"/>
</linearGradient>
<linearGradient id="paint1_linear_2146_38727" x1="33.0657" y1="83.4685" x2="12.0679" y2="47.1002" gradientUnits="userSpaceOnUse">
<stop stop-color="#C5BAEB" style="stop-color:#C5BAEB;stop-color:color(display-p3 0.7725 0.7294 0.9216);stop-opacity:1;"/>
<stop offset="1" stop-color="white" style="stop-color:white;stop-opacity:1;"/>
</linearGradient>
<linearGradient id="paint2_linear_2146_38727" x1="21.452" y1="26.0078" x2="24.7791" y2="20.2449" gradientUnits="userSpaceOnUse">
<stop stop-color="#BF3541" style="stop-color:#BF3541;stop-color:color(display-p3 0.7490 0.2078 0.2549);stop-opacity:1;"/>
<stop offset="0.9975" stop-color="#FF959D" style="stop-color:#FF959D;stop-color:color(display-p3 1.0000 0.5843 0.6157);stop-opacity:1;"/>
</linearGradient>
<linearGradient id="paint3_linear_2146_38727" x1="33.0657" y1="33.445" x2="23.6902" y2="17.2067" gradientUnits="userSpaceOnUse">
<stop stop-color="#FF4757" style="stop-color:#FF4757;stop-color:color(display-p3 1.0000 0.2784 0.3412);stop-opacity:1;"/>
<stop offset="0.9975" stop-color="#FF7A85" style="stop-color:#FF7A85;stop-color:color(display-p3 1.0000 0.4784 0.5216);stop-opacity:1;"/>
</linearGradient>
<clipPath id="clip0_2146_38727">
<rect width="60" height="60" fill="white" style="fill:white;fill-opacity:1;"/>
</clipPath>
</defs>
</svg>
