<svg width="60" height="60" viewBox="0 0 60 60" fill="none" xmlns="http://www.w3.org/2000/svg">
<g clip-path="url(#clip0_2146_39769)">
<path d="M28.1664 11.9307C30.8766 11.9307 33.0736 9.73362 33.0736 7.02344C33.0736 4.31325 30.8766 2.11621 28.1664 2.11621C25.4562 2.11621 23.2592 4.31325 23.2592 7.02344C23.2592 9.73362 25.4562 11.9307 28.1664 11.9307Z" fill="url(#paint0_radial_2146_39769)" style=""/>
<path d="M25.1843 37.5367C23.7649 32.1633 23.5081 21.2898 24.2718 16.8794C24.8273 13.6718 26.0218 11.1716 26.9884 9.56646C27.5107 8.69904 28.8091 8.84248 29.1185 9.80646C30.3454 13.6297 33.1583 21.44 37.1477 26.7897C41.3541 32.4306 40.666 43.1126 31.977 42.0989C25.8939 41.3893 25.1843 37.5367 25.1843 37.5367Z" fill="url(#paint1_linear_2146_39769)" style=""/>
<path d="M48.6835 40.8516L17.9529 43.3437C17.9529 43.3437 17.0607 45.7262 17.029 47.9396C16.9953 50.3052 18.419 52.7647 18.419 52.7647L18.4189 52.7627C19.0376 53.8487 20.0663 54.8482 21.5179 55.6862C27.1584 58.9427 37.0106 58.5342 43.5237 54.7739C47.723 52.3495 49.3016 48.6325 49.5044 45.7938C49.6365 43.9457 48.6835 40.8516 48.6835 40.8516Z" fill="url(#paint2_linear_2146_39769)" style=""/>
<path d="M43.5237 49.5402C50.0367 45.7799 50.7441 40.0917 45.1036 36.8352C39.4631 33.5787 29.6108 33.9871 23.0978 37.7474C16.5847 41.5077 15.8774 47.1959 21.5179 50.4524C27.1583 53.7088 37.0106 53.3004 43.5237 49.5402Z" fill="url(#paint3_linear_2146_39769)" style=""/>
<path d="M55.0928 14.0662C55.0928 14.0662 45.8922 10.1882 38.3643 17.9441C31.8055 24.7018 30.7605 42.7074 30.7605 42.7074L38.8349 50.2135C40.1937 49.7759 41.4878 49.2189 42.6623 48.5409C46.3361 46.4198 47.9875 43.6285 47.5065 41.1011L47.5087 41.1009C47.5087 41.1009 44.5334 32.398 46.1049 25.8811C48.0555 17.7921 55.0928 14.0662 55.0928 14.0662Z" fill="url(#paint4_linear_2146_39769)" style=""/>
<path d="M38.8349 50.2136C38.8349 50.2136 35.6269 32.9747 25.7925 25.3708C15.9581 17.767 4.90723 23.7487 4.90723 23.7487C4.90723 23.7487 9.77367 24.2557 13.9304 30.5416C18.0872 36.8274 19.1096 45.0835 19.1096 45.0835L19.1135 45.0845C19.3808 46.6965 20.5072 48.2074 22.5307 49.3756C26.6739 51.7674 33.2996 51.9961 38.8349 50.2136Z" fill="url(#paint5_linear_2146_39769)" style=""/>
<path d="M4.90723 28.6299C7.61741 28.6299 9.81445 26.4328 9.81445 23.7227C9.81445 21.0125 7.61741 18.8154 4.90723 18.8154C2.19704 18.8154 0 21.0125 0 23.7227C0 26.4328 2.19704 28.6299 4.90723 28.6299Z" fill="url(#paint6_radial_2146_39769)" style=""/>
<path d="M55.0928 18.0039C57.803 18.0039 60 15.8069 60 13.0967C60 10.3865 57.803 8.18945 55.0928 8.18945C52.3826 8.18945 50.1855 10.3865 50.1855 13.0967C50.1855 15.8069 52.3826 18.0039 55.0928 18.0039Z" fill="url(#paint7_radial_2146_39769)" style=""/>
</g>
<defs>
<radialGradient id="paint0_radial_2146_39769" cx="0" cy="0" r="1" gradientUnits="userSpaceOnUse" gradientTransform="translate(29.7775 5.24277) scale(4.90723)">
<stop stop-color="#F2EFFA" style="stop-color:#F2EFFA;stop-color:color(display-p3 0.9490 0.9373 0.9804);stop-opacity:1;"/>
<stop offset="1" stop-color="#DFDAEF" style="stop-color:#DFDAEF;stop-color:color(display-p3 0.8745 0.8549 0.9373);stop-opacity:1;"/>
</radialGradient>
<linearGradient id="paint1_linear_2146_39769" x1="31.7514" y1="41.2052" x2="31.7514" y2="15.5978" gradientUnits="userSpaceOnUse">
<stop stop-color="#2F878A" style="stop-color:#2F878A;stop-color:color(display-p3 0.1843 0.5294 0.5412);stop-opacity:1;"/>
<stop offset="0.2957" stop-color="#4BA2A0" style="stop-color:#4BA2A0;stop-color:color(display-p3 0.2941 0.6353 0.6275);stop-opacity:1;"/>
<stop offset="0.932" stop-color="#93E8D9" style="stop-color:#93E8D9;stop-color:color(display-p3 0.5765 0.9098 0.8510);stop-opacity:1;"/>
<stop offset="1" stop-color="#9BF0DF" style="stop-color:#9BF0DF;stop-color:color(display-p3 0.6078 0.9412 0.8745);stop-opacity:1;"/>
</linearGradient>
<linearGradient id="paint2_linear_2146_39769" x1="24.5334" y1="49.368" x2="48.3047" y2="49.368" gradientUnits="userSpaceOnUse">
<stop stop-color="#FFA538" style="stop-color:#FFA538;stop-color:color(display-p3 1.0000 0.6471 0.2196);stop-opacity:1;"/>
<stop offset="1" stop-color="#F7E041" style="stop-color:#F7E041;stop-color:color(display-p3 0.9686 0.8784 0.2549);stop-opacity:1;"/>
</linearGradient>
<linearGradient id="paint3_linear_2146_39769" x1="49.7131" y1="33.1491" x2="28.4459" y2="46.7565" gradientUnits="userSpaceOnUse">
<stop stop-color="#FFA538" style="stop-color:#FFA538;stop-color:color(display-p3 1.0000 0.6471 0.2196);stop-opacity:1;"/>
<stop offset="1" stop-color="#F7E041" style="stop-color:#F7E041;stop-color:color(display-p3 0.9686 0.8784 0.2549);stop-opacity:1;"/>
</linearGradient>
<linearGradient id="paint4_linear_2146_39769" x1="42.9267" y1="51.2215" x2="42.9267" y2="11.6324" gradientUnits="userSpaceOnUse">
<stop stop-color="#59ACF9" style="stop-color:#59ACF9;stop-color:color(display-p3 0.3490 0.6745 0.9765);stop-opacity:1;"/>
<stop offset="0.5872" stop-color="#6EC6FC" style="stop-color:#6EC6FC;stop-color:color(display-p3 0.4314 0.7765 0.9882);stop-opacity:1;"/>
<stop offset="1" stop-color="#79D3FE" style="stop-color:#79D3FE;stop-color:color(display-p3 0.4745 0.8275 0.9961);stop-opacity:1;"/>
</linearGradient>
<linearGradient id="paint5_linear_2146_39769" x1="21.8711" y1="55.8689" x2="21.8711" y2="25.1174" gradientUnits="userSpaceOnUse">
<stop stop-color="#AB2C37" style="stop-color:#AB2C37;stop-color:color(display-p3 0.6706 0.1725 0.2157);stop-opacity:1;"/>
<stop offset="0.3712" stop-color="#C74651" style="stop-color:#C74651;stop-color:color(display-p3 0.7804 0.2745 0.3176);stop-opacity:1;"/>
<stop offset="1" stop-color="#FF7A85" style="stop-color:#FF7A85;stop-color:color(display-p3 1.0000 0.4784 0.5216);stop-opacity:1;"/>
</linearGradient>
<radialGradient id="paint6_radial_2146_39769" cx="0" cy="0" r="1" gradientUnits="userSpaceOnUse" gradientTransform="translate(6.51832 21.942) scale(4.90723)">
<stop stop-color="#F2EFFA" style="stop-color:#F2EFFA;stop-color:color(display-p3 0.9490 0.9373 0.9804);stop-opacity:1;"/>
<stop offset="1" stop-color="#DFDAEF" style="stop-color:#DFDAEF;stop-color:color(display-p3 0.8745 0.8549 0.9373);stop-opacity:1;"/>
</radialGradient>
<radialGradient id="paint7_radial_2146_39769" cx="0" cy="0" r="1" gradientUnits="userSpaceOnUse" gradientTransform="translate(56.7039 11.316) scale(4.90723)">
<stop stop-color="#F2EFFA" style="stop-color:#F2EFFA;stop-color:color(display-p3 0.9490 0.9373 0.9804);stop-opacity:1;"/>
<stop offset="1" stop-color="#DFDAEF" style="stop-color:#DFDAEF;stop-color:color(display-p3 0.8745 0.8549 0.9373);stop-opacity:1;"/>
</radialGradient>
<clipPath id="clip0_2146_39769">
<rect width="60" height="60" fill="white" style="fill:white;fill-opacity:1;"/>
</clipPath>
</defs>
</svg>
