<svg width="60" height="60" viewBox="0 0 60 60" fill="none" xmlns="http://www.w3.org/2000/svg">
<g clip-path="url(#clip0_1971_46417)">
<path d="M29.8848 12.2166C29.5644 12.2166 29.2207 12.0767 28.8993 11.808C28.1067 11.1459 27.6068 9.86432 27.761 8.89049C27.8519 8.31815 28.1285 8.04486 28.3446 7.91631C28.5174 7.81377 28.7398 7.87049 28.8423 8.04287C28.9448 8.21526 28.8883 8.43803 28.7159 8.54057C28.5991 8.60994 28.5147 8.77459 28.4784 9.00416C28.364 9.72498 28.77 10.7538 29.3649 11.2508C29.6037 11.4505 29.8397 11.5322 29.996 11.4704C30.183 11.3962 30.3935 11.487 30.4678 11.6732C30.5419 11.8596 30.4512 12.0707 30.2649 12.1449C30.1442 12.1929 30.0163 12.2166 29.8848 12.2166Z" fill="#FFC538" style="fill:#FFC538;fill:color(display-p3 1.0000 0.7725 0.2196);fill-opacity:1;"/>
<path d="M41.1763 5.74494C40.8559 5.74494 40.5122 5.60502 40.1907 5.33631C39.3982 4.6742 38.8983 3.39263 39.0525 2.41869C39.1433 1.84634 39.42 1.57306 39.6363 1.44463C39.8085 1.34209 40.0314 1.39881 40.134 1.57131C40.2363 1.74369 40.1796 1.96646 40.0072 2.06888C39.8906 2.13826 39.8061 2.30279 39.7698 2.53248C39.6554 3.2533 40.0615 4.28209 40.6562 4.77908C40.8951 4.97877 41.131 5.06068 41.2874 4.99869C41.4741 4.92439 41.6849 5.01533 41.7592 5.20166C41.8332 5.38799 41.7425 5.59916 41.5562 5.67334C41.4356 5.72127 41.3079 5.74494 41.1763 5.74494Z" fill="#FFC538" style="fill:#FFC538;fill:color(display-p3 1.0000 0.7725 0.2196);fill-opacity:1;"/>
<path d="M18.5932 18.6901C18.2728 18.6901 17.9292 18.5501 17.6077 18.2815C16.8152 17.6196 16.3153 16.3379 16.4695 15.364C16.5603 14.7917 16.837 14.5184 17.0533 14.3899C17.2255 14.2874 17.4485 14.3441 17.551 14.5166C17.6533 14.689 17.5966 14.9118 17.4242 15.0142C17.3076 15.0836 17.2231 15.2481 17.1868 15.4778C17.0724 16.1987 17.4785 17.2275 18.0733 17.7243C18.3121 17.9241 18.5479 18.0059 18.7042 17.9439C18.8902 17.8696 19.102 17.9604 19.1758 18.1469C19.2501 18.3331 19.1593 18.5442 18.973 18.6185C18.8525 18.6665 18.7246 18.6901 18.5932 18.6901Z" fill="#FFC538" style="fill:#FFC538;fill:color(display-p3 1.0000 0.7725 0.2196);fill-opacity:1;"/>
<path d="M16.2513 18.2698V56.2172L16.9781 56.6381L43.6027 2.47852L16.2513 18.2698Z" fill="#802129" style="fill:#802129;fill:color(display-p3 0.5020 0.1294 0.1608);fill-opacity:1;"/>
<path d="M43.5432 4.40137L17.7643 19.2849V55.5995L30.6538 58.7683L43.5432 40.716V4.40137Z" fill="url(#paint0_linear_1971_46417)" style=""/>
<path d="M43.5433 25.0742L30.6538 32.516V58.7681L43.5433 40.7159V25.0742Z" fill="url(#paint1_linear_1971_46417)" style=""/>
<path d="M30.6538 32.5157V11.8428L17.7643 19.2845V39.9575L30.6538 32.5157Z" fill="url(#paint2_linear_1971_46417)" style=""/>
<path d="M30.6538 60.0001L16.9781 56.6381V18.6907L44.3294 2.89941V40.847L30.6538 60.0001ZM18.5504 54.5611L30.6538 57.5364L42.7571 40.5853V5.90352L18.5504 19.8793V54.5611Z" fill="#AB2C37" style="fill:#AB2C37;fill:color(display-p3 0.6706 0.1725 0.2157);fill-opacity:1;"/>
<path d="M14.7306 16.8792L44.1279 0.0560115C44.3234 -0.0532072 44.5898 -0.00516033 44.8615 0.221832C45.3355 0.617808 45.6454 1.40836 45.5536 1.98738C45.5154 2.22855 45.4134 2.39496 45.2733 2.47851L15.8786 19.3005L14.7306 16.8792Z" fill="url(#paint3_linear_1971_46417)" style=""/>
<path d="M14.4463 17.3726C14.538 16.7936 14.9967 16.6452 15.4707 17.0412C15.9447 17.4373 16.2546 18.2277 16.1628 18.8067C16.0711 19.3858 15.6124 19.5341 15.1384 19.1381C14.6644 18.7422 14.3545 17.9516 14.4463 17.3726Z" fill="#966D7D" style="fill:#966D7D;fill:color(display-p3 0.5882 0.4275 0.4902);fill-opacity:1;"/>
<path d="M18.8389 18.6442C18.6946 18.6442 18.5581 18.5576 18.5013 18.4155C18.4272 18.2291 18.5179 18.018 18.7042 17.9438C18.8395 17.8899 18.94 17.7141 18.98 17.4614C19.0943 16.7405 18.6883 15.7116 18.0937 15.2147C17.8316 14.9959 17.5814 14.9207 17.4242 15.0141C17.2517 15.1165 17.029 15.0598 16.9265 14.8874C16.8242 14.715 16.8808 14.4923 17.0533 14.3898C17.4871 14.1321 18.0501 14.2321 18.5593 14.6574C19.3518 15.3196 19.8516 16.6012 19.6973 17.575C19.6151 18.0945 19.3579 18.465 18.973 18.6184C18.9289 18.6359 18.8835 18.6442 18.8389 18.6442Z" fill="#FFC538" style="fill:#FFC538;fill:color(display-p3 1.0000 0.7725 0.2196);fill-opacity:1;"/>
<path d="M30.1305 12.1719C29.9862 12.1719 29.8496 12.0854 29.7931 11.9431C29.7188 11.7568 29.8097 11.5456 29.996 11.4713C30.1311 11.4174 30.2317 11.2415 30.2717 10.9889C30.3861 10.2681 29.9801 9.23915 29.3853 8.74216C29.1234 8.52337 28.8735 8.44802 28.7158 8.54153C28.5433 8.6436 28.3207 8.58724 28.2181 8.41474C28.1158 8.24235 28.1726 8.01946 28.3449 7.91704C28.7797 7.65935 29.3422 7.75977 29.8509 8.18481C30.6435 8.84704 31.1434 10.1286 30.9892 11.1023C30.9067 11.6218 30.6497 11.9924 30.2649 12.1456C30.2208 12.1636 30.1752 12.1719 30.1305 12.1719Z" fill="#FFC538" style="fill:#FFC538;fill:color(display-p3 1.0000 0.7725 0.2196);fill-opacity:1;"/>
<path d="M41.422 5.69833C41.2777 5.69833 41.1412 5.61184 41.0846 5.46958C41.0103 5.28325 41.1011 5.07208 41.2875 4.99778C41.4226 4.94387 41.5231 4.76798 41.5632 4.51532C41.6776 3.79438 41.2715 2.76559 40.6767 2.2686C40.4144 2.04946 40.1641 1.97469 40.0072 2.06798C39.8348 2.17028 39.612 2.11368 39.5095 1.9413C39.4072 1.76891 39.4638 1.54614 39.6363 1.44372C40.07 1.18567 40.6334 1.28587 41.1423 1.71137C41.9348 2.3736 42.4347 3.65516 42.2805 4.62887C42.1981 5.14837 41.941 5.51891 41.5563 5.67219C41.5122 5.69001 41.4666 5.69833 41.422 5.69833Z" fill="#FFC538" style="fill:#FFC538;fill:color(display-p3 1.0000 0.7725 0.2196);fill-opacity:1;"/>
</g>
<defs>
<linearGradient id="paint0_linear_1971_46417" x1="30.6538" y1="60.7909" x2="30.6538" y2="1.57563" gradientUnits="userSpaceOnUse">
<stop stop-color="#AB2C37" style="stop-color:#AB2C37;stop-color:color(display-p3 0.6706 0.1725 0.2157);stop-opacity:1;"/>
<stop offset="0.2842" stop-color="#CE3744" style="stop-color:#CE3744;stop-color:color(display-p3 0.8078 0.2157 0.2667);stop-opacity:1;"/>
<stop offset="0.5631" stop-color="#E9404F" style="stop-color:#E9404F;stop-color:color(display-p3 0.9137 0.2510 0.3098);stop-opacity:1;"/>
<stop offset="0.8104" stop-color="#F94555" style="stop-color:#F94555;stop-color:color(display-p3 0.9765 0.2706 0.3333);stop-opacity:1;"/>
<stop offset="1" stop-color="#FF4757" style="stop-color:#FF4757;stop-color:color(display-p3 1.0000 0.2784 0.3412);stop-opacity:1;"/>
</linearGradient>
<linearGradient id="paint1_linear_1971_46417" x1="37.0985" y1="74.7683" x2="37.0985" y2="14.5796" gradientUnits="userSpaceOnUse">
<stop stop-color="#D7D1EB" style="stop-color:#D7D1EB;stop-color:color(display-p3 0.8431 0.8196 0.9216);stop-opacity:1;"/>
<stop offset="1" stop-color="#F2EFFA" style="stop-color:#F2EFFA;stop-color:color(display-p3 0.9490 0.9373 0.9804);stop-opacity:1;"/>
</linearGradient>
<linearGradient id="paint2_linear_1971_46417" x1="24.2091" y1="74.768" x2="24.2091" y2="14.5792" gradientUnits="userSpaceOnUse">
<stop stop-color="#D7D1EB" style="stop-color:#D7D1EB;stop-color:color(display-p3 0.8431 0.8196 0.9216);stop-opacity:1;"/>
<stop offset="1" stop-color="#F2EFFA" style="stop-color:#F2EFFA;stop-color:color(display-p3 0.9490 0.9373 0.9804);stop-opacity:1;"/>
</linearGradient>
<linearGradient id="paint3_linear_1971_46417" x1="30.3247" y1="9.5796" x2="29.8554" y2="8.76679" gradientUnits="userSpaceOnUse">
<stop stop-color="#5D3645" style="stop-color:#5D3645;stop-color:color(display-p3 0.3647 0.2118 0.2706);stop-opacity:1;"/>
<stop offset="1" stop-color="#966D7D" style="stop-color:#966D7D;stop-color:color(display-p3 0.5882 0.4275 0.4902);stop-opacity:1;"/>
</linearGradient>
<clipPath id="clip0_1971_46417">
<rect width="60" height="60" fill="white" style="fill:white;fill-opacity:1;"/>
</clipPath>
</defs>
</svg>
