<svg width="40" height="44" viewBox="0 0 40 44" fill="none" xmlns="http://www.w3.org/2000/svg">
<g clip-path="url(#clip0_2158_8048)">
<path d="M18.4817 0.54906L4.12668 9.66574C3.18723 10.2624 2.6084 11.3651 2.6084 12.5584V31.5431C2.6084 32.7364 3.18715 33.8391 4.12668 34.4358L18.4818 43.5524C19.4213 44.1491 20.5788 44.1491 21.5182 43.5524L35.8733 34.4358C36.8129 33.8391 37.3916 32.7364 37.3916 31.5431V12.5584C37.3916 11.3651 36.8129 10.2624 35.8733 9.66574L21.5182 0.54906C20.5787 -0.0476035 19.4212 -0.0476035 18.4817 0.54906Z" fill="url(#paint0_linear_2158_8048)" style=""/>
<path d="M35.8732 9.66574L21.5182 0.549061C20.5787 -0.0476035 19.4212 -0.0476035 18.4818 0.549061L4.12668 9.66574C3.18715 10.2624 2.6084 11.3651 2.6084 12.5584V22.8903H37.3915V12.5584C37.3915 11.3651 36.8128 10.2624 35.8732 9.66574Z" fill="url(#paint1_linear_2158_8048)" style=""/>
<path d="M35.732 11.6844L20.9238 21.0888C20.3522 21.4519 20 22.1229 20 22.849V42.4091C20 43.346 20.922 43.9315 21.6595 43.4631L36.4677 34.0587C37.0394 33.6956 37.3915 33.0246 37.3915 32.2985V12.7383C37.3916 11.8015 36.4696 11.216 35.732 11.6844Z" fill="url(#paint2_linear_2158_8048)" style=""/>
<path d="M4.26793 11.6844L19.0761 21.0888C19.6478 21.4518 20 22.1228 20 22.8489V42.4091C20 43.346 19.078 43.9315 18.3404 43.463L3.53223 34.0587C2.96051 33.6956 2.6084 33.0246 2.6084 32.2985V12.7384C2.60832 11.8015 3.53035 11.216 4.26793 11.6844Z" fill="url(#paint3_linear_2158_8048)" style=""/>
<path d="M13.2991 34.7181C13.2991 33.0875 14.2004 32.3379 15.3122 33.0441C16.424 33.7502 17.3253 35.6446 17.3253 37.2752C17.3253 38.9059 16.424 39.6554 15.3122 38.9493C14.2003 38.2432 13.2991 36.3488 13.2991 34.7181Z" fill="url(#paint4_linear_2158_8048)" style=""/>
<path d="M5.28296 29.6273C5.28296 27.9967 6.18429 27.2471 7.29608 27.9533C8.40788 28.6594 9.30921 30.5537 9.30921 32.1844C9.30921 33.8151 8.40788 34.5646 7.29608 33.8585C6.18429 33.1524 5.28296 31.258 5.28296 29.6273Z" fill="url(#paint5_linear_2158_8048)" style=""/>
<path d="M13.2991 22.9623C13.2991 21.3316 14.2004 20.5821 15.3122 21.2882C16.424 21.9944 17.3253 23.8887 17.3253 25.5194C17.3253 27.15 16.424 27.8996 15.3122 27.1934C14.2003 26.4874 13.2991 24.593 13.2991 22.9623Z" fill="url(#paint6_linear_2158_8048)" style=""/>
<path d="M5.28296 17.8715C5.28296 16.2408 6.18429 15.4913 7.29608 16.1974C8.40788 16.9036 9.30921 18.7979 9.30921 20.4285C9.30921 22.0592 8.40788 22.8087 7.29608 22.1026C6.18429 21.3965 5.28296 19.5021 5.28296 17.8715Z" fill="url(#paint7_linear_2158_8048)" style=""/>
<path d="M3.92495 9.79385L18.7803 0.359455C19.535 -0.119818 20.4647 -0.119818 21.2194 0.359455L36.0748 9.79385C36.66 10.1655 36.66 11.0946 36.0748 11.4662L21.2194 20.9007C20.4647 21.3799 19.535 21.3799 18.7803 20.9007L3.92495 11.4662C3.33979 11.0946 3.33979 10.1655 3.92495 9.79385Z" fill="url(#paint8_linear_2158_8048)" style=""/>
<path d="M22.8336 12.4294C24.6407 11.2818 24.837 9.5457 23.272 8.55183C21.707 7.55796 18.9734 7.68257 17.1663 8.83027C15.3592 9.97787 15.1629 11.714 16.7279 12.7079C18.2929 13.7017 21.0265 13.5771 22.8336 12.4294Z" fill="url(#paint9_linear_2158_8048)" style=""/>
<path d="M30.7089 26.2953C30.7089 24.6646 29.8075 23.9151 28.6957 24.6212C27.5839 25.3274 26.6826 27.2217 26.6826 28.8524C26.6826 30.483 27.5839 31.2326 28.6957 30.5264C29.8076 29.8203 30.7089 27.926 30.7089 26.2953Z" fill="url(#paint10_linear_2158_8048)" style=""/>
<path d="M26.7011 34.7181C26.7011 33.0875 25.7997 32.3379 24.6879 33.0441C23.5761 33.7502 22.6748 35.6446 22.6748 37.2752C22.6748 38.9059 23.5761 39.6554 24.6879 38.9493C25.7997 38.2432 26.7011 36.3488 26.7011 34.7181Z" fill="url(#paint11_linear_2158_8048)" style=""/>
<path d="M34.7169 29.6273C34.7169 27.9967 33.8156 27.2471 32.7038 27.9533C31.592 28.6594 30.6907 30.5537 30.6907 32.1844C30.6907 33.8151 31.592 34.5646 32.7038 33.8585C33.8156 33.1524 34.7169 31.258 34.7169 29.6273Z" fill="url(#paint12_linear_2158_8048)" style=""/>
<path d="M26.7011 22.9623C26.7011 21.3316 25.7997 20.5821 24.6879 21.2882C23.5761 21.9944 22.6748 23.8887 22.6748 25.5194C22.6748 27.15 23.5761 27.8996 24.6879 27.1934C25.7997 26.4874 26.7011 24.593 26.7011 22.9623Z" fill="url(#paint13_linear_2158_8048)" style=""/>
<path d="M34.7169 17.8715C34.7169 16.2408 33.8156 15.4913 32.7038 16.1974C31.592 16.9036 30.6907 18.7979 30.6907 20.4285C30.6907 22.0592 31.592 22.8087 32.7038 22.1026C33.8156 21.3965 34.7169 19.5021 34.7169 17.8715Z" fill="url(#paint14_linear_2158_8048)" style=""/>
</g>
<defs>
<linearGradient id="paint0_linear_2158_8048" x1="20" y1="38.5654" x2="20" y2="-0.643321" gradientUnits="userSpaceOnUse">
<stop stop-color="#C9BAEC" style="stop-color:#C9BAEC;stop-color:color(display-p3 0.7882 0.7294 0.9255);stop-opacity:1;"/>
<stop offset="1" stop-color="#F3EEFA" style="stop-color:#F3EEFA;stop-color:color(display-p3 0.9529 0.9333 0.9804);stop-opacity:1;"/>
</linearGradient>
<linearGradient id="paint1_linear_2158_8048" x1="-9.61231" y1="-2.04617" x2="22.006" y2="14.5491" gradientUnits="userSpaceOnUse">
<stop stop-color="#C9BAEC" style="stop-color:#C9BAEC;stop-color:color(display-p3 0.7882 0.7294 0.9255);stop-opacity:1;"/>
<stop offset="1" stop-color="#F3EEFA" style="stop-color:#F3EEFA;stop-color:color(display-p3 0.9529 0.9333 0.9804);stop-opacity:1;"/>
</linearGradient>
<linearGradient id="paint2_linear_2158_8048" x1="28.6958" y1="52.2217" x2="28.6958" y2="8.32184" gradientUnits="userSpaceOnUse">
<stop stop-color="#C9BAEC" style="stop-color:#C9BAEC;stop-color:color(display-p3 0.7882 0.7294 0.9255);stop-opacity:1;"/>
<stop offset="1" stop-color="#F3EEFA" style="stop-color:#F3EEFA;stop-color:color(display-p3 0.9529 0.9333 0.9804);stop-opacity:1;"/>
</linearGradient>
<linearGradient id="paint3_linear_2158_8048" x1="11.3041" y1="31.582" x2="11.3041" y2="-7.62657" gradientUnits="userSpaceOnUse">
<stop stop-color="#C9BAEC" style="stop-color:#C9BAEC;stop-color:color(display-p3 0.7882 0.7294 0.9255);stop-opacity:1;"/>
<stop offset="1" stop-color="#F3EEFA" style="stop-color:#F3EEFA;stop-color:color(display-p3 0.9529 0.9333 0.9804);stop-opacity:1;"/>
</linearGradient>
<linearGradient id="paint4_linear_2158_8048" x1="16.7144" y1="33.3252" x2="13.8242" y2="37.876" gradientUnits="userSpaceOnUse">
<stop stop-color="#1D182F" style="stop-color:#1D182F;stop-color:color(display-p3 0.1137 0.0941 0.1843);stop-opacity:1;"/>
<stop offset="0.1795" stop-color="#292243" style="stop-color:#292243;stop-color:color(display-p3 0.1608 0.1333 0.2627);stop-opacity:1;"/>
<stop offset="0.5463" stop-color="#493D76" style="stop-color:#493D76;stop-color:color(display-p3 0.2863 0.2392 0.4627);stop-opacity:1;"/>
<stop offset="1" stop-color="#7662BD" style="stop-color:#7662BD;stop-color:color(display-p3 0.4627 0.3843 0.7412);stop-opacity:1;"/>
</linearGradient>
<linearGradient id="paint5_linear_2158_8048" x1="8.69827" y1="28.2344" x2="5.80809" y2="32.7852" gradientUnits="userSpaceOnUse">
<stop stop-color="#1D182F" style="stop-color:#1D182F;stop-color:color(display-p3 0.1137 0.0941 0.1843);stop-opacity:1;"/>
<stop offset="0.1795" stop-color="#292243" style="stop-color:#292243;stop-color:color(display-p3 0.1608 0.1333 0.2627);stop-opacity:1;"/>
<stop offset="0.5463" stop-color="#493D76" style="stop-color:#493D76;stop-color:color(display-p3 0.2863 0.2392 0.4627);stop-opacity:1;"/>
<stop offset="1" stop-color="#7662BD" style="stop-color:#7662BD;stop-color:color(display-p3 0.4627 0.3843 0.7412);stop-opacity:1;"/>
</linearGradient>
<linearGradient id="paint6_linear_2158_8048" x1="16.7144" y1="21.5694" x2="13.8242" y2="26.1202" gradientUnits="userSpaceOnUse">
<stop stop-color="#1D182F" style="stop-color:#1D182F;stop-color:color(display-p3 0.1137 0.0941 0.1843);stop-opacity:1;"/>
<stop offset="0.1795" stop-color="#292243" style="stop-color:#292243;stop-color:color(display-p3 0.1608 0.1333 0.2627);stop-opacity:1;"/>
<stop offset="0.5463" stop-color="#493D76" style="stop-color:#493D76;stop-color:color(display-p3 0.2863 0.2392 0.4627);stop-opacity:1;"/>
<stop offset="1" stop-color="#7662BD" style="stop-color:#7662BD;stop-color:color(display-p3 0.4627 0.3843 0.7412);stop-opacity:1;"/>
</linearGradient>
<linearGradient id="paint7_linear_2158_8048" x1="8.69827" y1="16.4785" x2="5.80809" y2="21.0293" gradientUnits="userSpaceOnUse">
<stop stop-color="#1D182F" style="stop-color:#1D182F;stop-color:color(display-p3 0.1137 0.0941 0.1843);stop-opacity:1;"/>
<stop offset="0.1795" stop-color="#292243" style="stop-color:#292243;stop-color:color(display-p3 0.1608 0.1333 0.2627);stop-opacity:1;"/>
<stop offset="0.5463" stop-color="#493D76" style="stop-color:#493D76;stop-color:color(display-p3 0.2863 0.2392 0.4627);stop-opacity:1;"/>
<stop offset="1" stop-color="#7662BD" style="stop-color:#7662BD;stop-color:color(display-p3 0.4627 0.3843 0.7412);stop-opacity:1;"/>
</linearGradient>
<linearGradient id="paint8_linear_2158_8048" x1="-7.18622" y1="-6.63543" x2="24.3987" y2="9.9423" gradientUnits="userSpaceOnUse">
<stop stop-color="#C9BAEC" style="stop-color:#C9BAEC;stop-color:color(display-p3 0.7882 0.7294 0.9255);stop-opacity:1;"/>
<stop offset="1" stop-color="#F3EEFA" style="stop-color:#F3EEFA;stop-color:color(display-p3 0.9529 0.9333 0.9804);stop-opacity:1;"/>
</linearGradient>
<linearGradient id="paint9_linear_2158_8048" x1="22.0679" y1="14.5699" x2="18.165" y2="8.42424" gradientUnits="userSpaceOnUse">
<stop stop-color="#63141A" style="stop-color:#63141A;stop-color:color(display-p3 0.3882 0.0784 0.1020);stop-opacity:1;"/>
<stop offset="0.2842" stop-color="#981F28" style="stop-color:#981F28;stop-color:color(display-p3 0.5961 0.1216 0.1569);stop-opacity:1;"/>
<stop offset="0.5147" stop-color="#C62834" style="stop-color:#C62834;stop-color:color(display-p3 0.7765 0.1569 0.2039);stop-opacity:1;"/>
<stop offset="0.9681" stop-color="#FB4355" style="stop-color:#FB4355;stop-color:color(display-p3 0.9843 0.2627 0.3333);stop-opacity:1;"/>
<stop offset="1" stop-color="#FF4557" style="stop-color:#FF4557;stop-color:color(display-p3 1.0000 0.2706 0.3412);stop-opacity:1;"/>
</linearGradient>
<linearGradient id="paint10_linear_2158_8048" x1="27.2936" y1="24.9023" x2="30.1837" y2="29.4531" gradientUnits="userSpaceOnUse">
<stop stop-color="#1D182F" style="stop-color:#1D182F;stop-color:color(display-p3 0.1137 0.0941 0.1843);stop-opacity:1;"/>
<stop offset="0.1795" stop-color="#292243" style="stop-color:#292243;stop-color:color(display-p3 0.1608 0.1333 0.2627);stop-opacity:1;"/>
<stop offset="0.5463" stop-color="#493D76" style="stop-color:#493D76;stop-color:color(display-p3 0.2863 0.2392 0.4627);stop-opacity:1;"/>
<stop offset="1" stop-color="#7662BD" style="stop-color:#7662BD;stop-color:color(display-p3 0.4627 0.3843 0.7412);stop-opacity:1;"/>
</linearGradient>
<linearGradient id="paint11_linear_2158_8048" x1="23.2857" y1="33.3252" x2="26.1758" y2="37.876" gradientUnits="userSpaceOnUse">
<stop stop-color="#1D182F" style="stop-color:#1D182F;stop-color:color(display-p3 0.1137 0.0941 0.1843);stop-opacity:1;"/>
<stop offset="0.1795" stop-color="#292243" style="stop-color:#292243;stop-color:color(display-p3 0.1608 0.1333 0.2627);stop-opacity:1;"/>
<stop offset="0.5463" stop-color="#493D76" style="stop-color:#493D76;stop-color:color(display-p3 0.2863 0.2392 0.4627);stop-opacity:1;"/>
<stop offset="1" stop-color="#7662BD" style="stop-color:#7662BD;stop-color:color(display-p3 0.4627 0.3843 0.7412);stop-opacity:1;"/>
</linearGradient>
<linearGradient id="paint12_linear_2158_8048" x1="31.3016" y1="28.2344" x2="34.1918" y2="32.7852" gradientUnits="userSpaceOnUse">
<stop stop-color="#1D182F" style="stop-color:#1D182F;stop-color:color(display-p3 0.1137 0.0941 0.1843);stop-opacity:1;"/>
<stop offset="0.1795" stop-color="#292243" style="stop-color:#292243;stop-color:color(display-p3 0.1608 0.1333 0.2627);stop-opacity:1;"/>
<stop offset="0.5463" stop-color="#493D76" style="stop-color:#493D76;stop-color:color(display-p3 0.2863 0.2392 0.4627);stop-opacity:1;"/>
<stop offset="1" stop-color="#7662BD" style="stop-color:#7662BD;stop-color:color(display-p3 0.4627 0.3843 0.7412);stop-opacity:1;"/>
</linearGradient>
<linearGradient id="paint13_linear_2158_8048" x1="23.2857" y1="21.5694" x2="26.1758" y2="26.1202" gradientUnits="userSpaceOnUse">
<stop stop-color="#1D182F" style="stop-color:#1D182F;stop-color:color(display-p3 0.1137 0.0941 0.1843);stop-opacity:1;"/>
<stop offset="0.1795" stop-color="#292243" style="stop-color:#292243;stop-color:color(display-p3 0.1608 0.1333 0.2627);stop-opacity:1;"/>
<stop offset="0.5463" stop-color="#493D76" style="stop-color:#493D76;stop-color:color(display-p3 0.2863 0.2392 0.4627);stop-opacity:1;"/>
<stop offset="1" stop-color="#7662BD" style="stop-color:#7662BD;stop-color:color(display-p3 0.4627 0.3843 0.7412);stop-opacity:1;"/>
</linearGradient>
<linearGradient id="paint14_linear_2158_8048" x1="31.3016" y1="16.4785" x2="34.1918" y2="21.0293" gradientUnits="userSpaceOnUse">
<stop stop-color="#1D182F" style="stop-color:#1D182F;stop-color:color(display-p3 0.1137 0.0941 0.1843);stop-opacity:1;"/>
<stop offset="0.1795" stop-color="#292243" style="stop-color:#292243;stop-color:color(display-p3 0.1608 0.1333 0.2627);stop-opacity:1;"/>
<stop offset="0.5463" stop-color="#493D76" style="stop-color:#493D76;stop-color:color(display-p3 0.2863 0.2392 0.4627);stop-opacity:1;"/>
<stop offset="1" stop-color="#7662BD" style="stop-color:#7662BD;stop-color:color(display-p3 0.4627 0.3843 0.7412);stop-opacity:1;"/>
</linearGradient>
<clipPath id="clip0_2158_8048">
<rect width="40" height="44" fill="white" style="fill:white;fill-opacity:1;"/>
</clipPath>
</defs>
</svg>
