<svg width="24" height="24" viewBox="0 0 24 24" fill="none" xmlns="http://www.w3.org/2000/svg">
<g clip-path="url(#clip0_2146_15425)">
<path d="M23.9994 11.6445L23.9998 11.6445V9.13281L0 12.3083V14.8185L0.000375 14.8185C-0.0001875 14.896 0.055875 14.9779 0.166547 15.0418L8.86861 20.0659C9.06989 20.1821 9.37439 20.1948 9.54872 20.0941L14.625 17.1633L17.0123 15.6508L18.8319 14.7345L23.8823 11.8186C23.9627 11.7722 24.0008 11.7097 23.9994 11.6445Z" fill="url(#paint0_linear_2146_15425)" style=""/>
<path d="M23.8823 11.6164L9.54867 19.8919C9.37434 19.9926 9.06984 19.98 8.86856 19.8638L0.1665 14.8396C0.0558281 14.7757 -0.000234375 14.6938 0.000328125 14.6163L0 14.6164V14.8622L0.000375 14.8621C-0.0001875 14.9397 0.055875 15.0216 0.166547 15.0855L8.86861 20.1096C9.06989 20.2258 9.37439 20.2384 9.54872 20.1377L14.625 17.2069L14.7388 16.9946L18.6907 14.7352L18.8319 14.7781L23.8823 11.8622C23.9627 11.8158 24.0009 11.7534 23.9995 11.6882L23.9999 11.6881V11.4424L23.9995 11.4424C24.0008 11.5076 23.9627 11.57 23.8823 11.6164Z" fill="url(#paint1_linear_2146_15425)" style=""/>
<path d="M23.8823 11.1291L9.54867 19.4046C9.37434 19.5053 9.06984 19.4927 8.86856 19.3765L0.1665 14.3523C0.0558281 14.2884 -0.000234375 14.2065 0.000328125 14.129L0 14.1291V14.3748L0.000375 14.3748C-0.0001875 14.4523 0.055875 14.5342 0.166547 14.5981L8.86861 19.6223C9.06989 19.7385 9.37439 19.7511 9.54872 19.6504L23.8823 11.3749C23.9627 11.3285 24.0009 11.266 23.9995 11.2009L23.9999 11.2008V10.9551L23.9995 10.9551C24.0008 11.0203 23.9627 11.0827 23.8823 11.1291Z" fill="url(#paint2_linear_2146_15425)" style=""/>
<path d="M23.8823 10.6467L9.54867 18.9222C9.37434 19.0228 9.06984 19.0102 8.86856 18.894L0.1665 13.8699C0.0558281 13.806 -0.000234375 13.7241 0.000328125 13.6466L0 13.6466V13.8924L0.000375 13.8924C-0.0001875 13.9699 0.055875 14.0518 0.166547 14.1157L8.86861 19.1398C9.06989 19.256 9.37439 19.2687 9.54872 19.168L23.8823 10.8925C23.9627 10.8461 24.0009 10.7836 23.9995 10.7185L23.9999 10.7184V10.4727L23.9995 10.4727C24.0008 10.5378 23.9627 10.6002 23.8823 10.6467Z" fill="url(#paint3_linear_2146_15425)" style=""/>
<path d="M23.8823 10.1584L9.54867 18.4339C9.37434 18.5346 9.06984 18.522 8.86856 18.4057L0.1665 13.3816C0.0558281 13.3177 -0.000234375 13.2358 0.000328125 13.1583L0 13.1584V13.4041L0.000375 13.4041C-0.0001875 13.4816 0.055875 13.5635 0.166547 13.6274L8.86861 18.6515C9.06989 18.7677 9.37439 18.7804 9.54872 18.6797L23.8823 10.4042C23.9627 10.3578 24.0009 10.2953 23.9995 10.2302L23.9999 10.2301V9.98438L23.9995 9.98442C24.0008 10.0496 23.9627 10.112 23.8823 10.1584Z" fill="url(#paint4_linear_2146_15425)" style=""/>
<path d="M23.8823 9.65935L9.54867 17.9349C9.37434 18.0355 9.06984 18.0229 8.86856 17.9067L0.1665 12.8826C0.0558281 12.8187 -0.000234375 12.7368 0.000328125 12.6593L0 12.6593V12.9051L0.000375 12.905C-0.0001875 12.9826 0.055875 13.0644 0.166547 13.1283L8.86861 18.1525C9.06989 18.2687 9.37439 18.2813 9.54872 18.1807L23.8823 9.90516C23.9627 9.85876 24.0009 9.79632 23.9995 9.73116L23.9999 9.73112V9.48535L23.9995 9.4854C24.0008 9.55051 23.9627 9.61295 23.8823 9.65935Z" fill="url(#paint5_linear_2146_15425)" style=""/>
<path d="M14.4281 3.92668L0.230412 12.1237C0.0577247 12.2234 0.0793809 12.3975 0.278787 12.5126L8.8983 17.4891C9.09766 17.6042 9.3993 17.6168 9.57194 17.5171L23.7696 9.32003C23.9423 9.22032 23.9207 9.04618 23.7213 8.93111L15.1017 3.95457C14.9024 3.8395 14.6008 3.82698 14.4281 3.92668Z" fill="url(#paint6_linear_2146_15425)" style=""/>
<path d="M14.4515 3.86187L9.39181 6.78308L7.79305 7.97276L5.17302 9.2188L0.117878 12.1374C-0.0564505 12.2381 -0.0346068 12.4139 0.166721 12.5301L8.86878 17.5542C9.07007 17.6705 9.37456 17.6831 9.54889 17.5825L23.8825 9.30692C24.0568 9.20628 24.035 9.0305 23.8337 8.91425L15.1316 3.89009C14.9303 3.77389 14.6258 3.76123 14.4515 3.86187ZM19.6641 8.08892C18.9075 8.52575 19.0024 9.28883 19.8761 9.79325C20.1898 9.97437 20.5614 10.0972 20.9438 10.1604L11.0273 15.8857C10.9177 15.665 10.705 15.4505 10.3913 15.2693C9.51758 14.7649 8.19594 14.7101 7.43928 15.147C7.1676 15.3039 7.0063 15.5029 6.9508 15.7168L3.34921 13.6374C3.71971 13.6054 4.06442 13.5123 4.33616 13.3554C5.09282 12.9186 4.99789 12.1555 4.12424 11.6511C3.8105 11.47 3.43892 11.3472 3.05657 11.2839L12.9731 5.55861C13.0826 5.77934 13.2953 5.99389 13.6091 6.17501C14.4828 6.67944 15.8044 6.73423 16.5611 6.2974C16.8328 6.14051 16.994 5.94153 17.0495 5.72759L20.6511 7.80697C20.2806 7.83894 19.9359 7.93203 19.6641 8.08892Z" fill="url(#paint7_linear_2146_15425)" style=""/>
<path d="M14.7624 9.09183C12.9813 8.06358 10.2872 7.95187 8.74482 8.84241C7.20245 9.73289 7.39585 11.2884 9.17687 12.3166C10.9579 13.3449 13.652 13.4566 15.1944 12.5661C16.7368 11.6756 16.5433 10.1201 14.7624 9.09183Z" fill="url(#paint8_linear_2146_15425)" style=""/>
<path d="M14.6249 14.6515V17.207L18.8318 14.7781V12.2227L16.7284 13.0947L14.6249 14.6515Z" fill="url(#paint9_linear_2146_15425)" style=""/>
<path d="M9.39163 6.7832L5.17279 9.21892L14.6249 14.6517L18.8318 12.2229L9.39163 6.7832Z" fill="url(#paint10_linear_2146_15425)" style=""/>
<path d="M13.9769 11.5296L14.447 11.801C14.6126 11.8966 14.6126 12.0145 14.447 12.1101C14.3191 12.1839 13.9994 12.1839 13.8716 12.1101L13.4167 11.8475C13.212 11.9331 12.9845 12.0026 12.7465 12.054C12.3365 12.1425 11.7875 12.0688 11.6779 11.9101L11.6761 11.9075C11.5694 11.7528 11.7898 11.5934 12.2131 11.5208C12.5506 11.463 12.8501 11.3728 13.0272 11.2705C13.2527 11.1404 13.2982 11.0027 13.1198 10.8997C12.546 10.5684 11.3523 11.6585 10.1564 10.9681C9.62123 10.6591 9.58401 10.2518 10.0172 9.88476L9.57609 9.63009C9.41043 9.53446 9.41043 9.41662 9.57609 9.321C9.70396 9.24717 10.0236 9.24717 10.1514 9.321L10.5678 9.56137C10.6699 9.51567 10.7773 9.47432 10.888 9.43762C11.2759 9.30886 11.9377 9.37214 12.0656 9.54956C12.1677 9.69112 11.9923 9.83793 11.631 9.91978C11.3439 9.98479 11.0927 10.0657 10.9496 10.1483C10.7659 10.2544 10.7219 10.3688 10.8763 10.4579C11.4356 10.7808 12.6583 9.70743 13.8734 10.409C14.4665 10.7514 14.4211 11.1785 13.9769 11.5296Z" fill="white" style="fill:white;fill-opacity:1;"/>
</g>
<defs>
<linearGradient id="paint0_linear_2146_15425" x1="0.813563" y1="14.6474" x2="9.72169" y2="14.6474" gradientUnits="userSpaceOnUse">
<stop offset="0.0022" stop-color="#236568" style="stop-color:#236568;stop-color:color(display-p3 0.1373 0.3961 0.4078);stop-opacity:1;"/>
<stop offset="0.8472" stop-color="#2F878A" style="stop-color:#2F878A;stop-color:color(display-p3 0.1843 0.5294 0.5412);stop-opacity:1;"/>
<stop offset="1" stop-color="#06DAAE" style="stop-color:#06DAAE;stop-color:color(display-p3 0.0235 0.8549 0.6824);stop-opacity:1;"/>
</linearGradient>
<linearGradient id="paint1_linear_2146_15425" x1="8.90292" y1="15.824" x2="9.915" y2="15.824" gradientUnits="userSpaceOnUse">
<stop stop-color="#236568" style="stop-color:#236568;stop-color:color(display-p3 0.1373 0.3961 0.4078);stop-opacity:1;"/>
<stop offset="1" stop-color="#2F878A" style="stop-color:#2F878A;stop-color:color(display-p3 0.1843 0.5294 0.5412);stop-opacity:1;"/>
</linearGradient>
<linearGradient id="paint2_linear_2146_15425" x1="8.90292" y1="15.3367" x2="9.915" y2="15.3367" gradientUnits="userSpaceOnUse">
<stop stop-color="#236568" style="stop-color:#236568;stop-color:color(display-p3 0.1373 0.3961 0.4078);stop-opacity:1;"/>
<stop offset="1" stop-color="#2F878A" style="stop-color:#2F878A;stop-color:color(display-p3 0.1843 0.5294 0.5412);stop-opacity:1;"/>
</linearGradient>
<linearGradient id="paint3_linear_2146_15425" x1="8.90292" y1="14.8543" x2="9.915" y2="14.8543" gradientUnits="userSpaceOnUse">
<stop stop-color="#236568" style="stop-color:#236568;stop-color:color(display-p3 0.1373 0.3961 0.4078);stop-opacity:1;"/>
<stop offset="1" stop-color="#2F878A" style="stop-color:#2F878A;stop-color:color(display-p3 0.1843 0.5294 0.5412);stop-opacity:1;"/>
</linearGradient>
<linearGradient id="paint4_linear_2146_15425" x1="8.90292" y1="14.366" x2="9.915" y2="14.366" gradientUnits="userSpaceOnUse">
<stop stop-color="#236568" style="stop-color:#236568;stop-color:color(display-p3 0.1373 0.3961 0.4078);stop-opacity:1;"/>
<stop offset="1" stop-color="#2F878A" style="stop-color:#2F878A;stop-color:color(display-p3 0.1843 0.5294 0.5412);stop-opacity:1;"/>
</linearGradient>
<linearGradient id="paint5_linear_2146_15425" x1="8.90292" y1="13.8669" x2="9.915" y2="13.8669" gradientUnits="userSpaceOnUse">
<stop stop-color="#236568" style="stop-color:#236568;stop-color:color(display-p3 0.1373 0.3961 0.4078);stop-opacity:1;"/>
<stop offset="1" stop-color="#2F878A" style="stop-color:#2F878A;stop-color:color(display-p3 0.1843 0.5294 0.5412);stop-opacity:1;"/>
</linearGradient>
<linearGradient id="paint6_linear_2146_15425" x1="5.5669" y1="7.00768" x2="19.081" y2="14.81" gradientUnits="userSpaceOnUse">
<stop stop-color="#06DAAE" style="stop-color:#06DAAE;stop-color:color(display-p3 0.0235 0.8549 0.6824);stop-opacity:1;"/>
<stop offset="1" stop-color="#9BF0DF" style="stop-color:#9BF0DF;stop-color:color(display-p3 0.6078 0.9412 0.8745);stop-opacity:1;"/>
</linearGradient>
<linearGradient id="paint7_linear_2146_15425" x1="7.52928" y1="8.14086" x2="23.3348" y2="17.2662" gradientUnits="userSpaceOnUse">
<stop stop-color="#2F878A" style="stop-color:#2F878A;stop-color:color(display-p3 0.1843 0.5294 0.5412);stop-opacity:1;"/>
<stop offset="1" stop-color="#06DAAE" style="stop-color:#06DAAE;stop-color:color(display-p3 0.0235 0.8549 0.6824);stop-opacity:1;"/>
</linearGradient>
<linearGradient id="paint8_linear_2146_15425" x1="7.14568" y1="7.91916" x2="17.1367" y2="13.6875" gradientUnits="userSpaceOnUse">
<stop stop-color="#2F878A" style="stop-color:#2F878A;stop-color:color(display-p3 0.1843 0.5294 0.5412);stop-opacity:1;"/>
<stop offset="1" stop-color="#06DAAE" style="stop-color:#06DAAE;stop-color:color(display-p3 0.0235 0.8549 0.6824);stop-opacity:1;"/>
</linearGradient>
<linearGradient id="paint9_linear_2146_15425" x1="16.7284" y1="16.2538" x2="16.7284" y2="8.80673" gradientUnits="userSpaceOnUse">
<stop stop-color="#FFA538" style="stop-color:#FFA538;stop-color:color(display-p3 1.0000 0.6471 0.2196);stop-opacity:1;"/>
<stop offset="1" stop-color="#FFC538" style="stop-color:#FFC538;stop-color:color(display-p3 1.0000 0.7725 0.2196);stop-opacity:1;"/>
</linearGradient>
<linearGradient id="paint10_linear_2146_15425" x1="7.08568" y1="7.88072" x2="12.2844" y2="16.8848" gradientUnits="userSpaceOnUse">
<stop stop-color="#FFC538" style="stop-color:#FFC538;stop-color:color(display-p3 1.0000 0.7725 0.2196);stop-opacity:1;"/>
<stop offset="1" stop-color="#F7E041" style="stop-color:#F7E041;stop-color:color(display-p3 0.9686 0.8784 0.2549);stop-opacity:1;"/>
</linearGradient>
<clipPath id="clip0_2146_15425">
<rect width="24" height="24" fill="white" style="fill:white;fill-opacity:1;"/>
</clipPath>
</defs>
</svg>
