<svg width="48" height="49" viewBox="0 0 48 49" fill="none" xmlns="http://www.w3.org/2000/svg">
<path d="M0.00158057 25.3584L0.000549316 25.3583V20.1445L48 24.1774V29.4004C48.0021 32.5839 46.0754 35.6236 42.1421 37.8945C33.4649 42.9042 18.3082 42.276 8.28871 36.4913C2.77199 33.3062 -0.0359194 29.2223 0.00158057 25.3584Z" fill="url(#paint0_linear_2146_15504)" style=""/>
<path d="M8.28852 31.2664C-1.73101 25.4815 -2.81916 16.7308 5.85796 11.721C14.5351 6.71119 29.6918 7.3395 39.7114 13.1242C49.7309 18.909 50.8192 27.6598 42.1419 32.6695C33.4648 37.6794 18.3081 37.0511 8.28852 31.2664Z" fill="url(#paint1_linear_2146_15504)" style=""/>
<path d="M7.0113 13.3654C15.1369 8.67402 29.3301 9.2624 38.7128 14.6795C43.572 17.4849 46.1872 21.0353 46.4514 24.4582C46.2344 27.2281 44.434 29.847 40.9888 31.8361C32.8632 36.5274 18.67 35.9391 9.28736 30.522C4.42811 27.7165 1.81295 24.1661 1.54877 20.7432C1.76561 17.9733 3.56608 15.3544 7.0113 13.3654Z" fill="url(#paint2_linear_2146_15504)" style=""/>
<path d="M38.7127 14.7097C29.33 9.29265 15.1368 8.70427 7.01125 13.3956C3.57193 15.3812 1.77156 17.9946 1.54956 20.7592C1.29709 17.5677 3.088 14.4859 7.01125 12.2208C15.1368 7.52949 29.33 8.11787 38.7127 13.5349C44.1241 16.6591 46.7529 20.7072 46.4505 24.4742C46.18 21.0556 43.5651 17.5112 38.7127 14.7097Z" fill="url(#paint3_linear_2146_15504)" style=""/>
<path d="M11.7866 30.3453C3.99785 25.8485 3.15194 19.046 9.89716 15.1516C16.6425 11.2572 28.4246 11.7455 36.2133 16.2425C44.0021 20.7393 44.848 27.5418 38.1028 31.4361C31.3575 35.3305 19.5753 34.8422 11.7866 30.3453Z" fill="url(#paint4_linear_2146_15504)" style=""/>
<path d="M9.89716 15.152C11.5532 14.1958 13.5133 13.5046 15.6429 13.0713L24 23.2942L9.89716 15.152Z" fill="url(#paint5_linear_2146_15504)" style=""/>
<path d="M29.8879 13.6619L24 23.2943L22.6639 12.5508C25.0878 12.6513 27.5453 13.0241 29.8879 13.6619Z" fill="url(#paint6_linear_2146_15504)" style=""/>
<path d="M24 23.2946L36.2134 16.2432C38.1256 17.3472 39.6183 18.5904 40.6839 19.8951L24 23.2946Z" fill="url(#paint7_linear_2146_15504)" style=""/>
<path d="M41.7067 28.119L24 23.2939L42.6083 24.0653C42.7823 25.4647 42.4847 26.8444 41.7067 28.119Z" fill="url(#paint8_linear_2146_15504)" style=""/>
<path d="M38.1028 31.4362C36.4467 32.3924 34.4867 33.0836 32.3571 33.5169L24 23.2939L38.1028 31.4362Z" fill="url(#paint9_linear_2146_15504)" style=""/>
<path d="M25.336 34.0375C22.9121 33.937 20.4546 33.5643 18.112 32.9265L24 23.2939L25.336 34.0375Z" fill="url(#paint10_linear_2146_15504)" style=""/>
<path d="M24 23.2939L11.7866 30.3454C9.87438 29.2414 8.3817 27.9981 7.31604 26.6934L24 23.2939Z" fill="#2F878A" style="fill:#2F878A;fill:color(display-p3 0.1843 0.5294 0.5412);fill-opacity:1;"/>
<path d="M23.9999 23.2948L5.39159 22.5234C5.21759 21.124 5.51525 19.7443 6.29328 18.4697L23.9999 23.2948Z" fill="url(#paint11_linear_2146_15504)" style=""/>
<path d="M25.3189 34.4522C20.2826 34.2434 15.4031 32.9125 11.5792 30.7048C7.35253 28.2646 4.92853 25.001 4.92853 21.7508C4.92843 19.0363 6.6194 16.5652 9.68971 14.7925C13.0193 12.8702 17.633 11.9268 22.6811 12.136C27.7174 12.3448 32.5969 13.6756 36.4208 15.8834C40.6475 18.3236 43.0715 21.5873 43.0715 24.8376C43.0715 27.552 41.3805 30.0232 38.3102 31.7958C35.2849 33.5424 31.1997 34.4809 26.6914 34.4809C26.2381 34.4808 25.78 34.4713 25.3189 34.4522ZM10.1046 15.5112C7.30181 17.1294 5.75831 19.3453 5.75831 21.7508C5.75831 24.6966 8.03118 27.6983 11.994 29.9862C16.1916 32.4098 21.5756 33.6524 26.6761 33.6521C30.8855 33.6519 34.902 32.8053 37.8952 31.0771C40.698 29.459 42.2416 27.243 42.2416 24.8376C42.2416 21.8918 39.9687 18.8901 36.0059 16.6021C31.8083 14.1787 26.4243 12.9362 21.3238 12.9362C17.1144 12.9361 13.0979 13.783 10.1046 15.5112Z" fill="url(#paint12_linear_2146_15504)" style=""/>
<path d="M14.9378 28.6617C11.8643 26.8872 10.1015 24.5188 10.1015 22.1637C10.1015 20.2014 11.3277 18.4128 13.554 17.1274C18.551 14.2424 27.3024 14.6008 33.0623 17.9264C36.1358 19.7009 37.8986 22.0693 37.8986 24.4244C37.8986 26.3866 36.6724 28.1752 34.446 29.4606C32.1797 30.7692 29.1418 31.4102 25.9603 31.4102C22.1269 31.4103 18.0853 30.4789 14.9378 28.6617ZM13.7887 17.5341C11.7138 18.732 10.5711 20.3762 10.5711 22.1637C10.5711 24.3464 12.2482 26.5666 15.1724 28.255C20.8029 31.5058 29.3434 31.8642 34.2112 29.0539C36.2862 27.856 37.4289 26.2118 37.4289 24.4244C37.4289 22.2416 35.7517 20.0214 32.8274 18.333C29.7437 16.5527 25.788 15.64 22.04 15.64C18.9445 15.6401 15.9905 16.2629 13.7887 17.5341Z" fill="url(#paint13_linear_2146_15504)" style=""/>
<path d="M34.5441 24.57C34.9452 21.278 30.5533 18.0346 24.7344 17.3255C18.9155 16.6165 13.8732 18.7103 13.4721 22.0023C13.071 25.2942 17.4629 28.5377 23.2818 29.2467C29.1006 29.9558 34.1429 27.8619 34.5441 24.57Z" fill="#2F878A" style="fill:#2F878A;fill:color(display-p3 0.1843 0.5294 0.5412);fill-opacity:1;"/>
<path d="M18.4369 26.5057C14.8892 24.4575 14.5039 21.3591 17.5762 19.5852C20.6486 17.8114 26.0153 18.0338 29.563 20.0821C33.1107 22.1303 33.496 25.2288 30.4236 27.0026C27.3513 28.7765 21.9846 28.554 18.4369 26.5057Z" fill="url(#paint14_linear_2146_15504)" style=""/>
<path d="M16.9712 27.487C14.5794 26.1061 13.2078 24.2593 13.2078 22.42C13.2078 20.884 14.1646 19.4856 15.9021 18.4825C19.7778 16.2448 26.5636 16.5218 31.0288 19.0998C33.4206 20.4807 34.7924 22.3275 34.7924 24.1668C34.7924 25.7028 33.8355 27.1012 32.098 28.1043C30.3398 29.1194 27.9825 29.6171 25.5148 29.6171C22.5428 29.6171 19.4107 28.8955 16.9712 27.487ZM16.1369 18.8892C14.5509 19.8048 13.6774 21.0588 13.6774 22.42C13.6774 24.0869 14.9636 25.7856 17.2061 27.0803C21.5418 29.5831 28.1172 29.8603 31.8632 27.6976C33.4492 26.782 34.3228 25.528 34.3228 24.1668C34.3228 22.4998 33.0366 20.8012 30.794 19.5065C28.4187 18.135 25.3719 17.432 22.4857 17.432C20.1037 17.4319 17.8307 17.9112 16.1369 18.8892Z" fill="url(#paint15_linear_2146_15504)" style=""/>
<path d="M24.8244 25.8724H20.6611C19.6282 25.8724 18.6376 25.4621 17.9072 24.7317H12.4301V22.925H17.3433C18.362 21.9062 19.7438 21.334 21.1844 21.334H23.9927L24.8244 25.8724Z" fill="url(#paint16_linear_2146_15504)" style=""/>
<path d="M24.5974 18.3019C26.9024 18.4945 28.6751 20.4216 28.6751 22.7346V23.5154L28.6741 23.5153C28.6928 24.1515 28.3184 24.7613 27.534 25.2142C25.8436 26.1901 22.8912 26.0677 20.9394 24.9408C19.9012 24.3413 19.3553 23.5785 19.3261 22.8488L19.3248 22.8487V22.6943C19.3248 20.0928 21.5487 18.0471 24.1411 18.2638L24.5974 18.3019Z" fill="url(#paint17_linear_2146_15504)" style=""/>
<path d="M24.9744 18.3504C24.8504 18.3294 24.725 18.3126 24.5976 18.302L24.1412 18.2638C21.5487 18.0471 19.3249 20.0929 19.3249 22.6943V22.8486L19.3262 22.8487C19.3554 23.5785 19.9013 24.3414 20.9395 24.9408C21.1521 25.0636 21.3773 25.1736 21.6107 25.2725C21.7129 24.5455 21.9155 23.0137 22.8387 21.7384C23.8656 20.32 24.9743 19.875 24.9743 19.875V18.3504H24.9744Z" fill="url(#paint18_linear_2146_15504)" style=""/>
<path d="M26.0845 15.5515V18.8943H26.0842C26.0925 19.178 25.9255 19.4499 25.5757 19.6518C24.8221 20.0869 23.5057 20.0324 22.6354 19.53C22.1724 19.2627 21.9291 18.9226 21.916 18.5972H21.9155V15.2031L26.0845 15.5515Z" fill="url(#paint19_linear_2146_15504)" style=""/>
<path d="M21.9155 18.5964L21.916 18.5965C21.9291 18.9219 22.1724 19.262 22.6354 19.5293C22.7083 19.5714 22.7853 19.6092 22.8639 19.645C24.8332 19.2386 25.7906 17.9901 25.7906 17.9901L21.9156 16.1973V18.5964H21.9155Z" fill="url(#paint20_linear_2146_15504)" style=""/>
<path d="M25.9069 12.5508L26.7291 17.0864H26.7285C26.7394 17.4577 26.5208 17.8137 26.0629 18.0781C25.0762 18.6478 23.3527 18.5763 22.2133 17.9185C21.6072 17.5686 21.2886 17.1232 21.2716 16.6973L21.2709 16.6972L22.1028 12.1943L25.9069 12.5508Z" fill="url(#paint21_linear_2146_15504)" style=""/>
<path d="M25.9069 12.5509L22.1029 12.1943L21.2709 16.6972L21.2717 16.6973C21.2887 17.1233 21.6074 17.5686 22.2134 17.9185C22.2574 17.9439 22.3037 17.9668 22.3492 17.9904C23.7047 17.0719 25.1521 15.0826 26.1013 13.6236L25.9069 12.5509Z" fill="url(#paint22_linear_2146_15504)" style=""/>
<path d="M29.776 16.3522C29.9503 16.3522 30.1197 16.2618 30.2131 16.1001C30.3523 15.859 30.2697 15.5506 30.0286 15.4115L24.2521 12.0764C24.011 11.9371 23.7025 12.0199 23.5634 12.2609C23.4242 12.5021 23.5068 12.8104 23.7479 12.9495L29.5244 16.2846C29.6038 16.3304 29.6905 16.3522 29.776 16.3522Z" fill="url(#paint23_linear_2146_15504)" style=""/>
<path d="M23.9996 13.0165C24.1738 13.0165 24.3432 12.9261 24.4366 12.7644C24.5758 12.5233 24.4932 12.215 24.2521 12.0758L18.6814 8.85965C18.4404 8.72034 18.1319 8.80312 17.9928 9.04415C17.8536 9.28527 17.9362 9.59362 18.1773 9.73274L23.748 12.949C23.8273 12.9947 23.9141 13.0165 23.9996 13.0165Z" fill="url(#paint24_linear_2146_15504)" style=""/>
<path d="M18.897 16.0015C18.9825 16.0015 19.0692 15.9797 19.1485 15.9339L24.9923 12.5599C25.2334 12.4207 25.316 12.1124 25.1768 11.8713C25.0378 11.6303 24.7294 11.5474 24.4882 11.6868L18.6444 15.0608C18.4033 15.2 18.3207 15.5084 18.4599 15.7494C18.5533 15.9111 18.7227 16.0015 18.897 16.0015Z" fill="url(#paint25_linear_2146_15504)" style=""/>
<path d="M24.7408 12.6276C24.8263 12.6276 24.913 12.6058 24.9923 12.56L29.5611 9.92224C29.8023 9.78302 29.8848 9.47477 29.7456 9.23364C29.6066 8.99261 29.2983 8.90974 29.057 9.04914L24.4882 11.6869C24.2471 11.8261 24.1645 12.1344 24.3037 12.3755C24.3971 12.5372 24.5665 12.6276 24.7408 12.6276Z" fill="url(#paint26_linear_2146_15504)" style=""/>
<path d="M24.3396 9.75025C25.6496 9.85975 26.6571 10.9549 26.6571 12.2696V12.7134H26.6566C26.6672 13.075 26.4544 13.4216 26.0086 13.6789C25.0479 14.2336 23.3698 14.164 22.2606 13.5236C21.6705 13.1829 21.3602 12.7493 21.3436 12.3346L21.3428 12.3345V12.2468C21.3428 10.7682 22.6068 9.6055 24.0802 9.72869L24.3396 9.75025Z" fill="url(#paint27_linear_2146_15504)" style=""/>
<defs>
<linearGradient id="paint0_linear_2146_15504" x1="2.63333" y1="30.7105" x2="28.2035" y2="30.7105" gradientUnits="userSpaceOnUse">
<stop stop-color="#1D182F" style="stop-color:#1D182F;stop-color:color(display-p3 0.1137 0.0941 0.1843);stop-opacity:1;"/>
<stop offset="0.1795" stop-color="#292243" style="stop-color:#292243;stop-color:color(display-p3 0.1608 0.1333 0.2627);stop-opacity:1;"/>
<stop offset="0.5463" stop-color="#493D76" style="stop-color:#493D76;stop-color:color(display-p3 0.2863 0.2392 0.4627);stop-opacity:1;"/>
<stop offset="1" stop-color="#7662BD" style="stop-color:#7662BD;stop-color:color(display-p3 0.4627 0.3843 0.7412);stop-opacity:1;"/>
</linearGradient>
<linearGradient id="paint1_linear_2146_15504" x1="40.9701" y1="12.3977" x2="-1.01541" y2="36.638" gradientUnits="userSpaceOnUse">
<stop stop-color="#1D182F" style="stop-color:#1D182F;stop-color:color(display-p3 0.1137 0.0941 0.1843);stop-opacity:1;"/>
<stop offset="0.1795" stop-color="#292243" style="stop-color:#292243;stop-color:color(display-p3 0.1608 0.1333 0.2627);stop-opacity:1;"/>
<stop offset="0.5463" stop-color="#493D76" style="stop-color:#493D76;stop-color:color(display-p3 0.2863 0.2392 0.4627);stop-opacity:1;"/>
<stop offset="1" stop-color="#7662BD" style="stop-color:#7662BD;stop-color:color(display-p3 0.4627 0.3843 0.7412);stop-opacity:1;"/>
</linearGradient>
<linearGradient id="paint2_linear_2146_15504" x1="0.268892" y1="36.3019" x2="32.5877" y2="17.6426" gradientUnits="userSpaceOnUse">
<stop stop-color="#8B451C" style="stop-color:#8B451C;stop-color:color(display-p3 0.5451 0.2706 0.1098);stop-opacity:1;"/>
<stop offset="1" stop-color="#CC8241" style="stop-color:#CC8241;stop-color:color(display-p3 0.8000 0.5098 0.2549);stop-opacity:1;"/>
</linearGradient>
<linearGradient id="paint3_linear_2146_15504" x1="47.9452" y1="16.764" x2="6.00287" y2="16.764" gradientUnits="userSpaceOnUse">
<stop stop-color="#1D182F" style="stop-color:#1D182F;stop-color:color(display-p3 0.1137 0.0941 0.1843);stop-opacity:1;"/>
<stop offset="0.1795" stop-color="#292243" style="stop-color:#292243;stop-color:color(display-p3 0.1608 0.1333 0.2627);stop-opacity:1;"/>
<stop offset="0.5463" stop-color="#493D76" style="stop-color:#493D76;stop-color:color(display-p3 0.2863 0.2392 0.4627);stop-opacity:1;"/>
<stop offset="1" stop-color="#7662BD" style="stop-color:#7662BD;stop-color:color(display-p3 0.4627 0.3843 0.7412);stop-opacity:1;"/>
</linearGradient>
<linearGradient id="paint4_linear_2146_15504" x1="36.1623" y1="16.2627" x2="24.6166" y2="36.2725" gradientUnits="userSpaceOnUse">
<stop stop-color="#AB2C37" style="stop-color:#AB2C37;stop-color:color(display-p3 0.6706 0.1725 0.2157);stop-opacity:1;"/>
<stop offset="0.1412" stop-color="#B8303C" style="stop-color:#B8303C;stop-color:color(display-p3 0.7216 0.1882 0.2353);stop-opacity:1;"/>
<stop offset="0.7169" stop-color="#EB414F" style="stop-color:#EB414F;stop-color:color(display-p3 0.9216 0.2549 0.3098);stop-opacity:1;"/>
<stop offset="1" stop-color="#FF4757" style="stop-color:#FF4757;stop-color:color(display-p3 1.0000 0.2784 0.3412);stop-opacity:1;"/>
</linearGradient>
<linearGradient id="paint5_linear_2146_15504" x1="27.298" y1="13.2414" x2="19.9096" y2="26.0462" gradientUnits="userSpaceOnUse">
<stop stop-color="#1D182F" style="stop-color:#1D182F;stop-color:color(display-p3 0.1137 0.0941 0.1843);stop-opacity:1;"/>
<stop offset="0.1795" stop-color="#292243" style="stop-color:#292243;stop-color:color(display-p3 0.1608 0.1333 0.2627);stop-opacity:1;"/>
<stop offset="0.5463" stop-color="#493D76" style="stop-color:#493D76;stop-color:color(display-p3 0.2863 0.2392 0.4627);stop-opacity:1;"/>
<stop offset="1" stop-color="#7662BD" style="stop-color:#7662BD;stop-color:color(display-p3 0.4627 0.3843 0.7412);stop-opacity:1;"/>
</linearGradient>
<linearGradient id="paint6_linear_2146_15504" x1="49.6747" y1="2.7061" x2="24.4499" y2="46.4234" gradientUnits="userSpaceOnUse">
<stop stop-color="#1D182F" style="stop-color:#1D182F;stop-color:color(display-p3 0.1137 0.0941 0.1843);stop-opacity:1;"/>
<stop offset="0.1795" stop-color="#292243" style="stop-color:#292243;stop-color:color(display-p3 0.1608 0.1333 0.2627);stop-opacity:1;"/>
<stop offset="0.5463" stop-color="#493D76" style="stop-color:#493D76;stop-color:color(display-p3 0.2863 0.2392 0.4627);stop-opacity:1;"/>
<stop offset="1" stop-color="#7662BD" style="stop-color:#7662BD;stop-color:color(display-p3 0.4627 0.3843 0.7412);stop-opacity:1;"/>
</linearGradient>
<linearGradient id="paint7_linear_2146_15504" x1="65.4341" y1="2.47844" x2="15.0037" y2="89.8796" gradientUnits="userSpaceOnUse">
<stop stop-color="#1D182F" style="stop-color:#1D182F;stop-color:color(display-p3 0.1137 0.0941 0.1843);stop-opacity:1;"/>
<stop offset="0.1795" stop-color="#292243" style="stop-color:#292243;stop-color:color(display-p3 0.1608 0.1333 0.2627);stop-opacity:1;"/>
<stop offset="0.5463" stop-color="#493D76" style="stop-color:#493D76;stop-color:color(display-p3 0.2863 0.2392 0.4627);stop-opacity:1;"/>
<stop offset="1" stop-color="#7662BD" style="stop-color:#7662BD;stop-color:color(display-p3 0.4627 0.3843 0.7412);stop-opacity:1;"/>
</linearGradient>
<linearGradient id="paint8_linear_2146_15504" x1="41.8615" y1="20.4937" x2="27.0901" y2="46.0942" gradientUnits="userSpaceOnUse">
<stop stop-color="#1D182F" style="stop-color:#1D182F;stop-color:color(display-p3 0.1137 0.0941 0.1843);stop-opacity:1;"/>
<stop offset="0.1795" stop-color="#292243" style="stop-color:#292243;stop-color:color(display-p3 0.1608 0.1333 0.2627);stop-opacity:1;"/>
<stop offset="0.5463" stop-color="#493D76" style="stop-color:#493D76;stop-color:color(display-p3 0.2863 0.2392 0.4627);stop-opacity:1;"/>
<stop offset="1" stop-color="#7662BD" style="stop-color:#7662BD;stop-color:color(display-p3 0.4627 0.3843 0.7412);stop-opacity:1;"/>
</linearGradient>
<linearGradient id="paint9_linear_2146_15504" x1="32.0519" y1="26.7755" x2="24.6635" y2="39.5804" gradientUnits="userSpaceOnUse">
<stop stop-color="#1D182F" style="stop-color:#1D182F;stop-color:color(display-p3 0.1137 0.0941 0.1843);stop-opacity:1;"/>
<stop offset="0.1795" stop-color="#292243" style="stop-color:#292243;stop-color:color(display-p3 0.1608 0.1333 0.2627);stop-opacity:1;"/>
<stop offset="0.5463" stop-color="#493D76" style="stop-color:#493D76;stop-color:color(display-p3 0.2863 0.2392 0.4627);stop-opacity:1;"/>
<stop offset="1" stop-color="#7662BD" style="stop-color:#7662BD;stop-color:color(display-p3 0.4627 0.3843 0.7412);stop-opacity:1;"/>
</linearGradient>
<linearGradient id="paint10_linear_2146_15504" x1="37.0753" y1="21.4911" x2="11.8504" y2="65.2085" gradientUnits="userSpaceOnUse">
<stop stop-color="#1D182F" style="stop-color:#1D182F;stop-color:color(display-p3 0.1137 0.0941 0.1843);stop-opacity:1;"/>
<stop offset="0.1795" stop-color="#292243" style="stop-color:#292243;stop-color:color(display-p3 0.1608 0.1333 0.2627);stop-opacity:1;"/>
<stop offset="0.5463" stop-color="#493D76" style="stop-color:#493D76;stop-color:color(display-p3 0.2863 0.2392 0.4627);stop-opacity:1;"/>
<stop offset="1" stop-color="#7662BD" style="stop-color:#7662BD;stop-color:color(display-p3 0.4627 0.3843 0.7412);stop-opacity:1;"/>
</linearGradient>
<linearGradient id="paint11_linear_2146_15504" x1="28.8301" y1="12.9754" x2="14.0586" y2="38.576" gradientUnits="userSpaceOnUse">
<stop stop-color="#1D182F" style="stop-color:#1D182F;stop-color:color(display-p3 0.1137 0.0941 0.1843);stop-opacity:1;"/>
<stop offset="0.1795" stop-color="#292243" style="stop-color:#292243;stop-color:color(display-p3 0.1608 0.1333 0.2627);stop-opacity:1;"/>
<stop offset="0.5463" stop-color="#493D76" style="stop-color:#493D76;stop-color:color(display-p3 0.2863 0.2392 0.4627);stop-opacity:1;"/>
<stop offset="1" stop-color="#7662BD" style="stop-color:#7662BD;stop-color:color(display-p3 0.4627 0.3843 0.7412);stop-opacity:1;"/>
</linearGradient>
<linearGradient id="paint12_linear_2146_15504" x1="9.48285" y1="14.9086" x2="23.996" y2="40.0454" gradientUnits="userSpaceOnUse">
<stop stop-color="#7662BD" style="stop-color:#7662BD;stop-color:color(display-p3 0.4627 0.3843 0.7412);stop-opacity:1;"/>
<stop offset="0.2216" stop-color="#E9E5F6" style="stop-color:#E9E5F6;stop-color:color(display-p3 0.9137 0.8980 0.9647);stop-opacity:1;"/>
<stop offset="0.3753" stop-color="#A996EB" style="stop-color:#A996EB;stop-color:color(display-p3 0.6627 0.5882 0.9216);stop-opacity:1;"/>
<stop offset="0.437" stop-color="#BBACEF" style="stop-color:#BBACEF;stop-color:color(display-p3 0.7333 0.6745 0.9373);stop-opacity:1;"/>
<stop offset="0.5523" stop-color="#D9D1F5" style="stop-color:#D9D1F5;stop-color:color(display-p3 0.8510 0.8196 0.9608);stop-opacity:1;"/>
<stop offset="0.646" stop-color="#EBE7F9" style="stop-color:#EBE7F9;stop-color:color(display-p3 0.9216 0.9059 0.9765);stop-opacity:1;"/>
<stop offset="0.7058" stop-color="#F2EFFA" style="stop-color:#F2EFFA;stop-color:color(display-p3 0.9490 0.9373 0.9804);stop-opacity:1;"/>
<stop offset="0.7637" stop-color="#E9E4F8" style="stop-color:#E9E4F8;stop-color:color(display-p3 0.9137 0.8941 0.9725);stop-opacity:1;"/>
<stop offset="0.8662" stop-color="#D0C6F3" style="stop-color:#D0C6F3;stop-color:color(display-p3 0.8157 0.7765 0.9529);stop-opacity:1;"/>
<stop offset="1" stop-color="#A996EB" style="stop-color:#A996EB;stop-color:color(display-p3 0.6627 0.5882 0.9216);stop-opacity:1;"/>
</linearGradient>
<linearGradient id="paint13_linear_2146_15504" x1="13.4371" y1="17.1901" x2="23.9971" y2="35.4801" gradientUnits="userSpaceOnUse">
<stop stop-color="#7662BD" style="stop-color:#7662BD;stop-color:color(display-p3 0.4627 0.3843 0.7412);stop-opacity:1;"/>
<stop offset="0.2216" stop-color="#E9E5F6" style="stop-color:#E9E5F6;stop-color:color(display-p3 0.9137 0.8980 0.9647);stop-opacity:1;"/>
<stop offset="0.3753" stop-color="#A996EB" style="stop-color:#A996EB;stop-color:color(display-p3 0.6627 0.5882 0.9216);stop-opacity:1;"/>
<stop offset="0.437" stop-color="#BBACEF" style="stop-color:#BBACEF;stop-color:color(display-p3 0.7333 0.6745 0.9373);stop-opacity:1;"/>
<stop offset="0.5523" stop-color="#D9D1F5" style="stop-color:#D9D1F5;stop-color:color(display-p3 0.8510 0.8196 0.9608);stop-opacity:1;"/>
<stop offset="0.646" stop-color="#EBE7F9" style="stop-color:#EBE7F9;stop-color:color(display-p3 0.9216 0.9059 0.9765);stop-opacity:1;"/>
<stop offset="0.7058" stop-color="#F2EFFA" style="stop-color:#F2EFFA;stop-color:color(display-p3 0.9490 0.9373 0.9804);stop-opacity:1;"/>
<stop offset="0.7637" stop-color="#E9E4F8" style="stop-color:#E9E4F8;stop-color:color(display-p3 0.9137 0.8941 0.9725);stop-opacity:1;"/>
<stop offset="0.8662" stop-color="#D0C6F3" style="stop-color:#D0C6F3;stop-color:color(display-p3 0.8157 0.7765 0.9529);stop-opacity:1;"/>
<stop offset="1" stop-color="#A996EB" style="stop-color:#A996EB;stop-color:color(display-p3 0.6627 0.5882 0.9216);stop-opacity:1;"/>
</linearGradient>
<linearGradient id="paint14_linear_2146_15504" x1="32.7034" y1="18.2598" x2="24.7369" y2="32.0666" gradientUnits="userSpaceOnUse">
<stop stop-color="#8B451C" style="stop-color:#8B451C;stop-color:color(display-p3 0.5451 0.2706 0.1098);stop-opacity:1;"/>
<stop offset="1" stop-color="#CC8241" style="stop-color:#CC8241;stop-color:color(display-p3 0.8000 0.5098 0.2549);stop-opacity:1;"/>
</linearGradient>
<linearGradient id="paint15_linear_2146_15504" x1="15.7851" y1="18.5442" x2="23.9978" y2="32.7687" gradientUnits="userSpaceOnUse">
<stop stop-color="#7662BD" style="stop-color:#7662BD;stop-color:color(display-p3 0.4627 0.3843 0.7412);stop-opacity:1;"/>
<stop offset="0.2216" stop-color="#E9E5F6" style="stop-color:#E9E5F6;stop-color:color(display-p3 0.9137 0.8980 0.9647);stop-opacity:1;"/>
<stop offset="0.3753" stop-color="#A996EB" style="stop-color:#A996EB;stop-color:color(display-p3 0.6627 0.5882 0.9216);stop-opacity:1;"/>
<stop offset="0.437" stop-color="#BBACEF" style="stop-color:#BBACEF;stop-color:color(display-p3 0.7333 0.6745 0.9373);stop-opacity:1;"/>
<stop offset="0.5523" stop-color="#D9D1F5" style="stop-color:#D9D1F5;stop-color:color(display-p3 0.8510 0.8196 0.9608);stop-opacity:1;"/>
<stop offset="0.646" stop-color="#EBE7F9" style="stop-color:#EBE7F9;stop-color:color(display-p3 0.9216 0.9059 0.9765);stop-opacity:1;"/>
<stop offset="0.7058" stop-color="#F2EFFA" style="stop-color:#F2EFFA;stop-color:color(display-p3 0.9490 0.9373 0.9804);stop-opacity:1;"/>
<stop offset="0.7637" stop-color="#E9E4F8" style="stop-color:#E9E4F8;stop-color:color(display-p3 0.9137 0.8941 0.9725);stop-opacity:1;"/>
<stop offset="0.8662" stop-color="#D0C6F3" style="stop-color:#D0C6F3;stop-color:color(display-p3 0.8157 0.7765 0.9529);stop-opacity:1;"/>
<stop offset="1" stop-color="#A996EB" style="stop-color:#A996EB;stop-color:color(display-p3 0.6627 0.5882 0.9216);stop-opacity:1;"/>
</linearGradient>
<linearGradient id="paint16_linear_2146_15504" x1="29.4716" y1="23.6032" x2="13.0736" y2="23.6032" gradientUnits="userSpaceOnUse">
<stop stop-color="#1E1B28" style="stop-color:#1E1B28;stop-color:color(display-p3 0.1176 0.1059 0.1569);stop-opacity:1;"/>
<stop offset="1" stop-color="#1E1B28" stop-opacity="0" style="stop-color:none;stop-opacity:0;"/>
</linearGradient>
<linearGradient id="paint17_linear_2146_15504" x1="29.0084" y1="22.0604" x2="16.4987" y2="22.0604" gradientUnits="userSpaceOnUse">
<stop stop-color="#BA5C25" style="stop-color:#BA5C25;stop-color:color(display-p3 0.7294 0.3608 0.1451);stop-opacity:1;"/>
<stop offset="0.2216" stop-color="#FFC538" style="stop-color:#FFC538;stop-color:color(display-p3 1.0000 0.7725 0.2196);stop-opacity:1;"/>
<stop offset="0.3753" stop-color="#FFA538" style="stop-color:#FFA538;stop-color:color(display-p3 1.0000 0.6471 0.2196);stop-opacity:1;"/>
<stop offset="0.5003" stop-color="#FBC23C" style="stop-color:#FBC23C;stop-color:color(display-p3 0.9843 0.7608 0.2353);stop-opacity:1;"/>
<stop offset="0.6256" stop-color="#F8D840" style="stop-color:#F8D840;stop-color:color(display-p3 0.9725 0.8471 0.2510);stop-opacity:1;"/>
<stop offset="0.7058" stop-color="#F7E041" style="stop-color:#F7E041;stop-color:color(display-p3 0.9686 0.8784 0.2549);stop-opacity:1;"/>
<stop offset="0.7857" stop-color="#F9D53F" style="stop-color:#F9D53F;stop-color:color(display-p3 0.9765 0.8353 0.2471);stop-opacity:1;"/>
<stop offset="0.9265" stop-color="#FDB73B" style="stop-color:#FDB73B;stop-color:color(display-p3 0.9922 0.7176 0.2314);stop-opacity:1;"/>
<stop offset="1" stop-color="#FFA538" style="stop-color:#FFA538;stop-color:color(display-p3 1.0000 0.6471 0.2196);stop-opacity:1;"/>
</linearGradient>
<linearGradient id="paint18_linear_2146_15504" x1="27.5638" y1="18.5375" x2="18.4426" y2="23.9029" gradientUnits="userSpaceOnUse">
<stop stop-color="#1E1B28" style="stop-color:#1E1B28;stop-color:color(display-p3 0.1176 0.1059 0.1569);stop-opacity:1;"/>
<stop offset="1" stop-color="#1E1B28" stop-opacity="0" style="stop-color:none;stop-opacity:0;"/>
</linearGradient>
<linearGradient id="paint19_linear_2146_15504" x1="25.5442" y1="17.5743" x2="19.5465" y2="17.5743" gradientUnits="userSpaceOnUse">
<stop stop-color="#BA5C25" style="stop-color:#BA5C25;stop-color:color(display-p3 0.7294 0.3608 0.1451);stop-opacity:1;"/>
<stop offset="0.2216" stop-color="#FFC538" style="stop-color:#FFC538;stop-color:color(display-p3 1.0000 0.7725 0.2196);stop-opacity:1;"/>
<stop offset="0.3753" stop-color="#FFA538" style="stop-color:#FFA538;stop-color:color(display-p3 1.0000 0.6471 0.2196);stop-opacity:1;"/>
<stop offset="0.5003" stop-color="#FBC23C" style="stop-color:#FBC23C;stop-color:color(display-p3 0.9843 0.7608 0.2353);stop-opacity:1;"/>
<stop offset="0.6256" stop-color="#F8D840" style="stop-color:#F8D840;stop-color:color(display-p3 0.9725 0.8471 0.2510);stop-opacity:1;"/>
<stop offset="0.7058" stop-color="#F7E041" style="stop-color:#F7E041;stop-color:color(display-p3 0.9686 0.8784 0.2549);stop-opacity:1;"/>
<stop offset="0.7857" stop-color="#F9D53F" style="stop-color:#F9D53F;stop-color:color(display-p3 0.9765 0.8353 0.2471);stop-opacity:1;"/>
<stop offset="0.9265" stop-color="#FDB73B" style="stop-color:#FDB73B;stop-color:color(display-p3 0.9922 0.7176 0.2314);stop-opacity:1;"/>
<stop offset="1" stop-color="#FFA538" style="stop-color:#FFA538;stop-color:color(display-p3 1.0000 0.6471 0.2196);stop-opacity:1;"/>
</linearGradient>
<linearGradient id="paint20_linear_2146_15504" x1="24.7539" y1="16.4383" x2="22.4669" y2="18.2374" gradientUnits="userSpaceOnUse">
<stop stop-color="#1E1B28" style="stop-color:#1E1B28;stop-color:color(display-p3 0.1176 0.1059 0.1569);stop-opacity:1;"/>
<stop offset="1" stop-color="#1E1B28" stop-opacity="0" style="stop-color:none;stop-opacity:0;"/>
</linearGradient>
<linearGradient id="paint21_linear_2146_15504" x1="26.0217" y1="15.3284" x2="23.1683" y2="15.3284" gradientUnits="userSpaceOnUse">
<stop stop-color="#BA5C25" style="stop-color:#BA5C25;stop-color:color(display-p3 0.7294 0.3608 0.1451);stop-opacity:1;"/>
<stop offset="0.2216" stop-color="#FFC538" style="stop-color:#FFC538;stop-color:color(display-p3 1.0000 0.7725 0.2196);stop-opacity:1;"/>
<stop offset="0.3753" stop-color="#FFA538" style="stop-color:#FFA538;stop-color:color(display-p3 1.0000 0.6471 0.2196);stop-opacity:1;"/>
<stop offset="0.5003" stop-color="#FBC23C" style="stop-color:#FBC23C;stop-color:color(display-p3 0.9843 0.7608 0.2353);stop-opacity:1;"/>
<stop offset="0.6256" stop-color="#F8D840" style="stop-color:#F8D840;stop-color:color(display-p3 0.9725 0.8471 0.2510);stop-opacity:1;"/>
<stop offset="0.7058" stop-color="#F7E041" style="stop-color:#F7E041;stop-color:color(display-p3 0.9686 0.8784 0.2549);stop-opacity:1;"/>
<stop offset="0.7857" stop-color="#F9D53F" style="stop-color:#F9D53F;stop-color:color(display-p3 0.9765 0.8353 0.2471);stop-opacity:1;"/>
<stop offset="0.9265" stop-color="#FDB73B" style="stop-color:#FDB73B;stop-color:color(display-p3 0.9922 0.7176 0.2314);stop-opacity:1;"/>
<stop offset="1" stop-color="#FFA538" style="stop-color:#FFA538;stop-color:color(display-p3 1.0000 0.6471 0.2196);stop-opacity:1;"/>
</linearGradient>
<linearGradient id="paint22_linear_2146_15504" x1="25.9428" y1="12.1772" x2="21.8416" y2="15.4032" gradientUnits="userSpaceOnUse">
<stop stop-color="#1E1B28" style="stop-color:#1E1B28;stop-color:color(display-p3 0.1176 0.1059 0.1569);stop-opacity:1;"/>
<stop offset="1" stop-color="#1E1B28" stop-opacity="0" style="stop-color:none;stop-opacity:0;"/>
</linearGradient>
<linearGradient id="paint23_linear_2146_15504" x1="30.2807" y1="14.1804" x2="23.4958" y2="14.1804" gradientUnits="userSpaceOnUse">
<stop offset="0.2216" stop-color="#FFC538" style="stop-color:#FFC538;stop-color:color(display-p3 1.0000 0.7725 0.2196);stop-opacity:1;"/>
<stop offset="0.3753" stop-color="#FFA538" style="stop-color:#FFA538;stop-color:color(display-p3 1.0000 0.6471 0.2196);stop-opacity:1;"/>
<stop offset="0.5003" stop-color="#FBC23C" style="stop-color:#FBC23C;stop-color:color(display-p3 0.9843 0.7608 0.2353);stop-opacity:1;"/>
<stop offset="0.6256" stop-color="#F8D840" style="stop-color:#F8D840;stop-color:color(display-p3 0.9725 0.8471 0.2510);stop-opacity:1;"/>
<stop offset="0.7058" stop-color="#F7E041" style="stop-color:#F7E041;stop-color:color(display-p3 0.9686 0.8784 0.2549);stop-opacity:1;"/>
<stop offset="0.7857" stop-color="#F9D53F" style="stop-color:#F9D53F;stop-color:color(display-p3 0.9765 0.8353 0.2471);stop-opacity:1;"/>
<stop offset="0.9265" stop-color="#FDB73B" style="stop-color:#FDB73B;stop-color:color(display-p3 0.9922 0.7176 0.2314);stop-opacity:1;"/>
<stop offset="1" stop-color="#FFA538" style="stop-color:#FFA538;stop-color:color(display-p3 1.0000 0.6471 0.2196);stop-opacity:1;"/>
</linearGradient>
<linearGradient id="paint24_linear_2146_15504" x1="24.5042" y1="10.9041" x2="17.9251" y2="10.9041" gradientUnits="userSpaceOnUse">
<stop offset="0.2216" stop-color="#FFC538" style="stop-color:#FFC538;stop-color:color(display-p3 1.0000 0.7725 0.2196);stop-opacity:1;"/>
<stop offset="0.3753" stop-color="#FFA538" style="stop-color:#FFA538;stop-color:color(display-p3 1.0000 0.6471 0.2196);stop-opacity:1;"/>
<stop offset="0.5003" stop-color="#FBC23C" style="stop-color:#FBC23C;stop-color:color(display-p3 0.9843 0.7608 0.2353);stop-opacity:1;"/>
<stop offset="0.6256" stop-color="#F8D840" style="stop-color:#F8D840;stop-color:color(display-p3 0.9725 0.8471 0.2510);stop-opacity:1;"/>
<stop offset="0.7058" stop-color="#F7E041" style="stop-color:#F7E041;stop-color:color(display-p3 0.9686 0.8784 0.2549);stop-opacity:1;"/>
<stop offset="0.7857" stop-color="#F9D53F" style="stop-color:#F9D53F;stop-color:color(display-p3 0.9765 0.8353 0.2471);stop-opacity:1;"/>
<stop offset="0.9265" stop-color="#FDB73B" style="stop-color:#FDB73B;stop-color:color(display-p3 0.9922 0.7176 0.2314);stop-opacity:1;"/>
<stop offset="1" stop-color="#FFA538" style="stop-color:#FFA538;stop-color:color(display-p3 1.0000 0.6471 0.2196);stop-opacity:1;"/>
</linearGradient>
<linearGradient id="paint25_linear_2146_15504" x1="18.3923" y1="13.8103" x2="25.2446" y2="13.8103" gradientUnits="userSpaceOnUse">
<stop offset="0.2216" stop-color="#FFC538" style="stop-color:#FFC538;stop-color:color(display-p3 1.0000 0.7725 0.2196);stop-opacity:1;"/>
<stop offset="0.3753" stop-color="#FFA538" style="stop-color:#FFA538;stop-color:color(display-p3 1.0000 0.6471 0.2196);stop-opacity:1;"/>
<stop offset="0.5003" stop-color="#FBC23C" style="stop-color:#FBC23C;stop-color:color(display-p3 0.9843 0.7608 0.2353);stop-opacity:1;"/>
<stop offset="0.6256" stop-color="#F8D840" style="stop-color:#F8D840;stop-color:color(display-p3 0.9725 0.8471 0.2510);stop-opacity:1;"/>
<stop offset="0.7058" stop-color="#F7E041" style="stop-color:#F7E041;stop-color:color(display-p3 0.9686 0.8784 0.2549);stop-opacity:1;"/>
<stop offset="0.7857" stop-color="#F9D53F" style="stop-color:#F9D53F;stop-color:color(display-p3 0.9765 0.8353 0.2471);stop-opacity:1;"/>
<stop offset="0.9265" stop-color="#FDB73B" style="stop-color:#FDB73B;stop-color:color(display-p3 0.9922 0.7176 0.2314);stop-opacity:1;"/>
<stop offset="1" stop-color="#FFA538" style="stop-color:#FFA538;stop-color:color(display-p3 1.0000 0.6471 0.2196);stop-opacity:1;"/>
</linearGradient>
<linearGradient id="paint26_linear_2146_15504" x1="24.2361" y1="10.8045" x2="29.8134" y2="10.8045" gradientUnits="userSpaceOnUse">
<stop offset="0.2216" stop-color="#FFC538" style="stop-color:#FFC538;stop-color:color(display-p3 1.0000 0.7725 0.2196);stop-opacity:1;"/>
<stop offset="0.3753" stop-color="#FFA538" style="stop-color:#FFA538;stop-color:color(display-p3 1.0000 0.6471 0.2196);stop-opacity:1;"/>
<stop offset="0.5003" stop-color="#FBC23C" style="stop-color:#FBC23C;stop-color:color(display-p3 0.9843 0.7608 0.2353);stop-opacity:1;"/>
<stop offset="0.6256" stop-color="#F8D840" style="stop-color:#F8D840;stop-color:color(display-p3 0.9725 0.8471 0.2510);stop-opacity:1;"/>
<stop offset="0.7058" stop-color="#F7E041" style="stop-color:#F7E041;stop-color:color(display-p3 0.9686 0.8784 0.2549);stop-opacity:1;"/>
<stop offset="0.7857" stop-color="#F9D53F" style="stop-color:#F9D53F;stop-color:color(display-p3 0.9765 0.8353 0.2471);stop-opacity:1;"/>
<stop offset="0.9265" stop-color="#FDB73B" style="stop-color:#FDB73B;stop-color:color(display-p3 0.9922 0.7176 0.2314);stop-opacity:1;"/>
<stop offset="1" stop-color="#FFA538" style="stop-color:#FFA538;stop-color:color(display-p3 1.0000 0.6471 0.2196);stop-opacity:1;"/>
</linearGradient>
<linearGradient id="paint27_linear_2146_15504" x1="26.8465" y1="11.8864" x2="19.7366" y2="11.8864" gradientUnits="userSpaceOnUse">
<stop stop-color="#BA5C25" style="stop-color:#BA5C25;stop-color:color(display-p3 0.7294 0.3608 0.1451);stop-opacity:1;"/>
<stop offset="0.2216" stop-color="#FFC538" style="stop-color:#FFC538;stop-color:color(display-p3 1.0000 0.7725 0.2196);stop-opacity:1;"/>
<stop offset="0.3753" stop-color="#FFA538" style="stop-color:#FFA538;stop-color:color(display-p3 1.0000 0.6471 0.2196);stop-opacity:1;"/>
<stop offset="0.5003" stop-color="#FBC23C" style="stop-color:#FBC23C;stop-color:color(display-p3 0.9843 0.7608 0.2353);stop-opacity:1;"/>
<stop offset="0.6256" stop-color="#F8D840" style="stop-color:#F8D840;stop-color:color(display-p3 0.9725 0.8471 0.2510);stop-opacity:1;"/>
<stop offset="0.7058" stop-color="#F7E041" style="stop-color:#F7E041;stop-color:color(display-p3 0.9686 0.8784 0.2549);stop-opacity:1;"/>
<stop offset="0.7857" stop-color="#F9D53F" style="stop-color:#F9D53F;stop-color:color(display-p3 0.9765 0.8353 0.2471);stop-opacity:1;"/>
<stop offset="0.9265" stop-color="#FDB73B" style="stop-color:#FDB73B;stop-color:color(display-p3 0.9922 0.7176 0.2314);stop-opacity:1;"/>
<stop offset="1" stop-color="#FFA538" style="stop-color:#FFA538;stop-color:color(display-p3 1.0000 0.6471 0.2196);stop-opacity:1;"/>
</linearGradient>
</defs>
</svg>
