<svg width="60" height="60" viewBox="0 0 60 60" fill="none" xmlns="http://www.w3.org/2000/svg">
<path d="M22.783 18.9378C22.2999 18.9378 21.7889 18.7897 21.2788 18.4953C19.4901 17.4624 18.0887 14.8158 18.0887 12.4701C18.0887 11.0996 18.584 10.0278 19.4474 9.52924C20.2077 9.09037 21.1359 9.14287 22.0606 9.6769C23.8493 10.7096 25.2507 13.3561 25.2507 15.702C25.2507 17.0725 24.7554 18.1443 23.8922 18.6427C23.5511 18.8397 23.1763 18.9378 22.783 18.9378ZM20.5586 10.8008C20.4444 10.8008 20.3317 10.8243 20.2291 10.8835C19.8681 11.0919 19.6525 11.685 19.6525 12.4701C19.6525 14.2483 20.7551 16.3873 22.0605 17.141C22.3043 17.2818 22.7649 17.488 23.1101 17.2887C23.4711 17.0802 23.6867 16.4871 23.6867 15.7022C23.6867 13.9239 22.5841 11.785 21.2787 11.0312C21.1074 10.9322 20.8289 10.8008 20.5586 10.8008Z" fill="#F2EFFA" style="fill:#F2EFFA;fill:color(display-p3 0.9490 0.9373 0.9804);fill-opacity:1;"/>
<path d="M30.8747 14.2609C30.3914 14.2609 29.8805 14.1129 29.3705 13.8184C27.5817 12.7857 26.1804 10.1392 26.1804 7.7933C26.1804 6.42279 26.6757 5.351 27.5389 4.85248C28.2993 4.41362 29.2274 4.46611 30.1523 5.00014C31.941 6.03291 33.3423 8.67947 33.3423 11.0252C33.3423 12.3956 32.8471 13.4675 31.9837 13.9659C31.6428 14.1628 31.2679 14.2609 30.8747 14.2609ZM28.6503 6.12397C28.536 6.12397 28.4234 6.1474 28.3207 6.20658C27.9596 6.41506 27.7442 7.00815 27.7442 7.79307C27.7442 9.57139 28.8468 11.7104 30.1521 12.4639C30.396 12.6047 30.8566 12.811 31.2018 12.6116C31.5627 12.4031 31.7783 11.81 31.7783 11.0251C31.7783 9.2469 30.6756 7.10787 29.3704 6.35412C29.1991 6.25533 28.9205 6.12397 28.6503 6.12397Z" fill="#F2EFFA" style="fill:#F2EFFA;fill:color(display-p3 0.9490 0.9373 0.9804);fill-opacity:1;"/>
<path d="M38.0006 10.1486C37.5173 10.1486 37.0062 10.0005 36.4963 9.70596C34.7075 8.67318 33.3062 6.02662 33.3062 3.68088C33.3062 2.31049 33.8014 1.23858 34.6649 0.740178C35.4252 0.30131 36.3534 0.35381 37.278 0.887834C39.0668 1.92049 40.4681 4.56705 40.4681 6.91291C40.4681 8.28342 39.9729 9.35522 39.1097 9.85373C38.7686 10.0506 38.3938 10.1486 38.0006 10.1486ZM35.7761 2.01178C35.6618 2.01178 35.5492 2.03522 35.4465 2.0944C35.0856 2.30287 34.87 2.89596 34.87 3.68088C34.87 5.45908 35.9726 7.59811 37.2779 8.35186C37.5219 8.4926 37.9825 8.69873 38.3276 8.49951C38.6888 8.29104 38.9041 7.69795 38.9041 6.91303C38.9041 5.13471 37.8015 2.99569 36.4962 2.24217C36.3248 2.14315 36.0464 2.01178 35.7761 2.01178Z" fill="#F2EFFA" style="fill:#F2EFFA;fill:color(display-p3 0.9490 0.9373 0.9804);fill-opacity:1;"/>
<path d="M14.4802 23.7238C13.997 23.7238 13.4861 23.5758 12.976 23.2813C11.1872 22.2486 9.78589 19.602 9.78589 17.2561C9.78589 15.8857 10.2811 14.8138 11.1443 14.3154C11.9043 13.8766 12.8324 13.9289 13.7577 14.463C15.5465 15.4957 16.9478 18.1422 16.9478 20.4882C16.9478 21.8586 16.4526 22.9305 15.5894 23.4289C15.2483 23.6258 14.8735 23.7238 14.4802 23.7238ZM12.2557 15.587C12.1415 15.587 12.0289 15.6104 11.9262 15.6696C11.565 15.8781 11.3496 16.4711 11.3496 17.2561C11.3496 19.0344 12.4523 21.1734 13.7576 21.9269C14.0015 22.0678 14.4621 22.2738 14.8073 22.0746C15.1684 21.8661 15.3838 21.273 15.3838 20.4881C15.3838 18.7098 14.2812 16.5708 12.9759 15.8172C12.8045 15.7183 12.5261 15.587 12.2557 15.587Z" fill="#F2EFFA" style="fill:#F2EFFA;fill:color(display-p3 0.9490 0.9373 0.9804);fill-opacity:1;"/>
<path d="M44.5386 2.55563L40.4792 0.183755C40.0807 -0.0771047 39.5483 -0.0699562 38.9631 0.267895L7.53188 18.4147C6.29767 19.1274 5.29712 21.039 5.29712 22.6847V55.6808C5.29712 56.653 5.64646 57.3145 6.18669 57.5466L9.18153 59.2971L10.0188 59.7873L44.5386 2.55563Z" fill="url(#paint0_linear_2146_34788)" style=""/>
<path d="M43.0077 41.5851L11.5765 59.7318C10.3423 60.4444 9.34174 59.688 9.34174 58.0423V25.0463C9.34174 23.4007 10.3423 21.4889 11.5765 20.7764L43.0077 2.62952C44.2419 1.9169 45.2425 2.67335 45.2425 4.31901V37.3151C45.2425 38.9608 44.2419 40.8725 43.0077 41.5851Z" fill="url(#paint1_linear_2146_34788)" style=""/>
<path d="M38.9631 0.267895L7.53188 18.4147C6.29767 19.1274 5.29712 21.039 5.29712 22.6847V27.4229L9.34173 29.7581L44.5386 2.55563L40.4792 0.183755C40.0806 -0.0771047 39.5482 -0.0699562 38.9631 0.267895Z" fill="url(#paint2_linear_2146_34788)" style=""/>
<path d="M23.11 25.6953L18.3978 28.4159V34.6989L23.11 31.9783V25.6953Z" fill="#594A8E" style="fill:#594A8E;fill:color(display-p3 0.3490 0.2902 0.5569);fill-opacity:1;"/>
<path d="M29.6482 21.9199L24.936 24.6405V30.9236L29.6482 28.2029V21.9199Z" fill="#594A8E" style="fill:#594A8E;fill:color(display-p3 0.3490 0.2902 0.5569);fill-opacity:1;"/>
<path d="M36.1865 18.1445L31.4742 20.8652V27.1482L36.1865 24.4275V18.1445Z" fill="#594A8E" style="fill:#594A8E;fill:color(display-p3 0.3490 0.2902 0.5569);fill-opacity:1;"/>
<path d="M42.7247 14.3701L38.0125 17.0907V23.3738L42.7247 20.6531V14.3701Z" fill="#FF4757" style="fill:#FF4757;fill:color(display-p3 1.0000 0.2784 0.3412);fill-opacity:1;"/>
<path d="M16.5717 38.375L11.8595 41.0956V47.3786L16.5717 44.658V38.375Z" fill="#594A8E" style="fill:#594A8E;fill:color(display-p3 0.3490 0.2902 0.5569);fill-opacity:1;"/>
<path d="M23.11 34.6006L18.3978 37.3212V43.6042L23.11 40.8836V34.6006Z" fill="#594A8E" style="fill:#594A8E;fill:color(display-p3 0.3490 0.2902 0.5569);fill-opacity:1;"/>
<path d="M29.6482 30.8252L24.936 33.5458V39.8288L29.6482 37.1082V30.8252Z" fill="#594A8E" style="fill:#594A8E;fill:color(display-p3 0.3490 0.2902 0.5569);fill-opacity:1;"/>
<path d="M36.1865 27.0508L31.4742 29.7714V36.0544L36.1865 33.3338V27.0508Z" fill="#594A8E" style="fill:#594A8E;fill:color(display-p3 0.3490 0.2902 0.5569);fill-opacity:1;"/>
<path d="M42.7247 23.2764L38.0125 25.997V32.28L42.7247 29.5594V23.2764Z" fill="#FF4757" style="fill:#FF4757;fill:color(display-p3 1.0000 0.2784 0.3412);fill-opacity:1;"/>
<path d="M16.5717 47.2812L11.8595 50.0019V56.2849L16.5717 53.5643V47.2812Z" fill="#594A8E" style="fill:#594A8E;fill:color(display-p3 0.3490 0.2902 0.5569);fill-opacity:1;"/>
<path d="M23.11 43.5059L18.3978 46.2265V52.5095L23.11 49.7889V43.5059Z" fill="#594A8E" style="fill:#594A8E;fill:color(display-p3 0.3490 0.2902 0.5569);fill-opacity:1;"/>
<path d="M29.6482 39.7314L24.936 42.4521V48.7351L29.6482 46.0145V39.7314Z" fill="#594A8E" style="fill:#594A8E;fill:color(display-p3 0.3490 0.2902 0.5569);fill-opacity:1;"/>
<path d="M36.1865 35.9561L31.4742 38.6767V44.9597L36.1865 42.2391V35.9561Z" fill="#594A8E" style="fill:#594A8E;fill:color(display-p3 0.3490 0.2902 0.5569);fill-opacity:1;"/>
<path d="M43.0077 2.62947L11.5764 20.7763C10.3421 21.4889 9.34155 23.4006 9.34155 25.0463V29.758L45.2424 9.03072V4.31896C45.2424 2.6733 44.2419 1.91697 43.0077 2.62947Z" fill="#FF4757" style="fill:#FF4757;fill:color(display-p3 1.0000 0.2784 0.3412);fill-opacity:1;"/>
<path d="M13.0299 22.9473H14.6009V26.2193H13.0299V22.9473Z" fill="url(#paint3_linear_2146_34788)" style=""/>
<path d="M13.7577 14.4632C12.8527 13.9408 11.9401 13.8797 11.1885 14.2908C10.8097 14.498 10.6704 14.9731 10.8776 15.352C11.0848 15.7309 11.5604 15.8699 11.9386 15.6629C12.2825 15.4749 12.7361 15.679 12.976 15.8176C14.2813 16.5711 15.384 18.7101 15.384 20.4884C15.384 21.2735 15.1686 21.8665 14.8074 22.0749C14.5102 22.2465 14.1285 22.1174 13.8722 21.9884C13.7826 21.9371 13.6674 21.9391 13.5399 22.0128C13.2575 22.1758 13.0285 22.6133 13.0285 22.9899C13.0285 23.2061 13.1055 23.3521 13.2233 23.4091L13.2224 23.4109C13.6501 23.6184 14.075 23.724 14.4803 23.724C14.8736 23.724 15.2485 23.626 15.5895 23.4291C16.4527 22.9307 16.9479 21.8588 16.9479 20.4884C16.9478 18.1424 15.5465 15.4959 13.7577 14.4632Z" fill="url(#paint4_linear_2146_34788)" style=""/>
<path d="M21.3327 18.1611H22.9037V21.4331H21.3327V18.1611Z" fill="url(#paint5_linear_2146_34788)" style=""/>
<path d="M22.0605 9.6761C21.1555 9.15368 20.2428 9.09263 19.4913 9.50372C19.1125 9.71091 18.9732 10.186 19.1804 10.5649C19.3876 10.9438 19.8632 11.0828 20.2414 10.8758C20.5853 10.6878 21.0389 10.8919 21.2788 11.0304C22.5841 11.784 23.6868 13.923 23.6868 15.7013C23.6868 16.4863 23.4714 17.0794 23.1102 17.2878C22.813 17.4593 22.4313 17.3303 22.175 17.2013C22.0854 17.15 21.9702 17.152 21.8427 17.2257C21.5603 17.3887 21.3313 17.8261 21.3313 18.2028C21.3313 18.4191 21.4083 18.565 21.526 18.622L21.5252 18.6238C21.9527 18.8313 22.3778 18.9368 22.7831 18.9368C23.1764 18.9368 23.5513 18.8389 23.8923 18.6419C24.7555 18.1435 25.2507 17.0716 25.2507 15.7012C25.2506 13.3553 23.8493 10.7088 22.0605 9.6761Z" fill="url(#paint6_linear_2146_34788)" style=""/>
<path d="M29.4244 13.4717H30.9954V16.7437H29.4244V13.4717Z" fill="url(#paint7_linear_2146_34788)" style=""/>
<path d="M30.1523 4.98763C29.2473 4.46521 28.3346 4.40415 27.5831 4.81525C27.2043 5.02243 27.065 5.49751 27.2722 5.87638C27.4794 6.25536 27.955 6.39435 28.3332 6.18728C28.6771 5.99931 29.1307 6.20345 29.3706 6.34196C30.6759 7.09548 31.7786 9.2345 31.7786 11.0128C31.7786 11.7979 31.5632 12.3909 31.202 12.5993C30.9048 12.7709 30.5231 12.6418 30.2668 12.5128C30.1772 12.4615 30.062 12.4635 29.9345 12.5372C29.6521 12.7003 29.4231 13.1378 29.4231 13.5143C29.4231 13.7306 29.5001 13.8765 29.6178 13.9335L29.617 13.9354C30.0446 14.1428 30.4696 14.2484 30.8749 14.2484C31.2682 14.2484 31.6431 14.1504 31.9841 13.9535C32.8473 13.455 33.3425 12.3832 33.3425 11.0128C33.3424 8.66696 31.9411 6.0204 30.1523 4.98763Z" fill="url(#paint8_linear_2146_34788)" style=""/>
<path d="M36.5601 9.3584H38.1311V12.6304H36.5601V9.3584Z" fill="url(#paint9_linear_2146_34788)" style=""/>
<path d="M37.2879 0.874347C36.3829 0.351925 35.4702 0.29087 34.7187 0.701964C34.3398 0.909152 34.2006 1.38423 34.4078 1.7631C34.615 2.14208 35.0905 2.28107 35.4688 2.074C35.8126 1.88603 36.2663 2.09017 36.5061 2.22857C37.8115 2.9822 38.9141 5.1211 38.9141 6.89943C38.9141 7.68446 38.6987 8.27755 38.3375 8.48591C38.0404 8.65747 37.6587 8.52845 37.4024 8.39943C37.3127 8.3481 37.1975 8.35009 37.07 8.4238C36.7876 8.58681 36.5586 9.02427 36.5586 9.40091C36.5586 9.61712 36.6356 9.76314 36.7534 9.82009L36.7526 9.82196C37.1801 10.0294 37.6051 10.135 38.0104 10.135C38.4036 10.135 38.7785 10.037 39.1195 9.84001C39.9827 9.3415 40.478 8.2697 40.478 6.89931C40.478 4.55368 39.0766 1.90712 37.2879 0.874347Z" fill="url(#paint10_linear_2146_34788)" style=""/>
<path d="M39.2261 19.6904C33.1682 23.188 28.2574 32.5711 28.2574 40.6481C28.2574 40.6481 28.2587 49.9823 28.261 50.0991L43.0077 41.5852C44.2419 40.8726 45.2424 38.9609 45.2424 37.3152V18.6124C43.5148 18.0959 41.4479 18.4077 39.2261 19.6904Z" fill="url(#paint11_linear_2146_34788)" style=""/>
<path d="M51.0411 21.5008L51.0417 21.4996L46.229 18.7289L46.2286 18.7296C44.3288 17.723 41.8883 17.8663 39.2258 19.4036C33.1681 22.901 28.2572 32.2841 28.2572 40.3613C28.2572 44.802 29.7435 47.9192 32.0868 49.2484L32.0851 49.252L36.4825 51.7908L36.487 51.7814C38.4199 52.9368 40.9556 52.8533 43.7345 51.2489C49.7924 47.7515 54.7033 38.3684 54.7033 30.2912C54.7033 25.9567 53.2879 22.8817 51.0411 21.5008Z" fill="url(#paint12_linear_2146_34788)" style=""/>
<path d="M54.7032 30.2911C54.7032 22.2139 49.7923 18.5014 43.7346 21.9989C37.6768 25.4963 32.7658 34.8794 32.7658 42.9566C32.7658 51.0337 37.6767 54.7462 43.7346 51.2488C49.7923 47.7513 54.7032 38.3682 54.7032 30.2911Z" fill="url(#paint13_linear_2146_34788)" style=""/>
<path d="M50.0749 39.3426C52.7063 33.1668 52.0071 26.9534 48.5132 25.4647C45.0193 23.976 40.0537 27.7757 37.4222 33.9515C34.7908 40.1273 35.49 46.3406 38.9839 47.8294C42.4779 49.3181 47.4435 45.5184 50.0749 39.3426Z" fill="#F2EFFA" style="fill:#F2EFFA;fill:color(display-p3 0.9490 0.9373 0.9804);fill-opacity:1;"/>
<path d="M45.2678 35.7386C45.2678 34.6096 44.5814 34.0907 43.7346 34.5794C42.888 35.0684 42.2015 36.3798 42.2015 37.5088C42.2015 38.6378 42.888 39.1567 43.7346 38.6679C44.5813 38.1791 45.2678 36.8675 45.2678 35.7386Z" fill="url(#paint14_linear_2146_34788)" style=""/>
<path d="M43.1373 37.6591V28.7789C43.1373 28.4491 43.4047 28.1816 43.7346 28.1816C44.0645 28.1816 44.3319 28.4491 44.3319 28.7789V35.59L49.1822 32.7897C49.4679 32.6246 49.8331 32.7228 49.998 33.0084C50.1629 33.2941 50.0649 33.6593 49.7792 33.8243L43.1373 37.6591Z" fill="url(#paint15_linear_2146_34788)" style=""/>
<path d="M43.7346 26.0669C39.3618 28.5915 35.8171 35.3644 35.8171 41.1946C35.8171 44.1591 36.734 46.3085 38.2099 47.3738L49.4051 25.9832C47.9669 24.8459 45.958 24.7832 43.7346 26.0669Z" fill="url(#paint16_linear_2146_34788)" style=""/>
<defs>
<linearGradient id="paint0_linear_2146_34788" x1="24.9178" y1="58.3426" x2="24.9178" y2="26.2099" gradientUnits="userSpaceOnUse">
<stop offset="0.0319" stop-color="#A996EB" style="stop-color:#A996EB;stop-color:color(display-p3 0.6627 0.5882 0.9216);stop-opacity:1;"/>
<stop offset="0.2213" stop-color="#BFB3EB" style="stop-color:#BFB3EB;stop-color:color(display-p3 0.7490 0.7020 0.9216);stop-opacity:1;"/>
<stop offset="0.4108" stop-color="#D1C9EB" style="stop-color:#D1C9EB;stop-color:color(display-p3 0.8196 0.7882 0.9216);stop-opacity:1;"/>
<stop offset="0.5321" stop-color="#D7D1EB" style="stop-color:#D7D1EB;stop-color:color(display-p3 0.8431 0.8196 0.9216);stop-opacity:1;"/>
<stop offset="1" stop-color="#E9E5F6" style="stop-color:#E9E5F6;stop-color:color(display-p3 0.9137 0.8980 0.9647);stop-opacity:1;"/>
</linearGradient>
<linearGradient id="paint1_linear_2146_34788" x1="27.2921" y1="89.5157" x2="27.2921" y2="4.37479" gradientUnits="userSpaceOnUse">
<stop stop-color="#DFDAEF" style="stop-color:#DFDAEF;stop-color:color(display-p3 0.8745 0.8549 0.9373);stop-opacity:1;"/>
<stop offset="1" stop-color="white" style="stop-color:white;stop-opacity:1;"/>
</linearGradient>
<linearGradient id="paint2_linear_2146_34788" x1="15.3667" y1="28.4825" x2="18.6811" y2="22.7419" gradientUnits="userSpaceOnUse">
<stop stop-color="#AB2C37" style="stop-color:#AB2C37;stop-color:color(display-p3 0.6706 0.1725 0.2157);stop-opacity:1;"/>
<stop offset="1" stop-color="#FF7A85" style="stop-color:#FF7A85;stop-color:color(display-p3 1.0000 0.4784 0.5216);stop-opacity:1;"/>
</linearGradient>
<linearGradient id="paint3_linear_2146_34788" x1="12.5448" y1="22.3825" x2="14.8526" y2="26.3798" gradientUnits="userSpaceOnUse">
<stop offset="0.0319" stop-color="#5D3645" style="stop-color:#5D3645;stop-color:color(display-p3 0.3647 0.2118 0.2706);stop-opacity:1;"/>
<stop offset="1" stop-color="#5D3645" stop-opacity="0" style="stop-color:none;stop-opacity:0;"/>
</linearGradient>
<linearGradient id="paint4_linear_2146_34788" x1="14.9718" y1="21.2329" x2="13.0256" y2="15.0401" gradientUnits="userSpaceOnUse">
<stop stop-color="#C5BAEB" style="stop-color:#C5BAEB;stop-color:color(display-p3 0.7725 0.7294 0.9216);stop-opacity:1;"/>
<stop offset="0.2585" stop-color="#CBC0ED" style="stop-color:#CBC0ED;stop-color:color(display-p3 0.7961 0.7529 0.9294);stop-opacity:1;"/>
<stop offset="0.6156" stop-color="#DAD2F4" style="stop-color:#DAD2F4;stop-color:color(display-p3 0.8549 0.8235 0.9569);stop-opacity:1;"/>
<stop offset="1" stop-color="#F2EDFF" style="stop-color:#F2EDFF;stop-color:color(display-p3 0.9490 0.9294 1.0000);stop-opacity:1;"/>
</linearGradient>
<linearGradient id="paint5_linear_2146_34788" x1="20.8475" y1="17.5963" x2="23.1554" y2="21.5936" gradientUnits="userSpaceOnUse">
<stop offset="0.0319" stop-color="#5D3645" style="stop-color:#5D3645;stop-color:color(display-p3 0.3647 0.2118 0.2706);stop-opacity:1;"/>
<stop offset="1" stop-color="#5D3645" stop-opacity="0" style="stop-color:none;stop-opacity:0;"/>
</linearGradient>
<linearGradient id="paint6_linear_2146_34788" x1="23.2746" y1="16.4458" x2="21.3284" y2="10.2531" gradientUnits="userSpaceOnUse">
<stop stop-color="#C5BAEB" style="stop-color:#C5BAEB;stop-color:color(display-p3 0.7725 0.7294 0.9216);stop-opacity:1;"/>
<stop offset="0.2585" stop-color="#CBC0ED" style="stop-color:#CBC0ED;stop-color:color(display-p3 0.7961 0.7529 0.9294);stop-opacity:1;"/>
<stop offset="0.6156" stop-color="#DAD2F4" style="stop-color:#DAD2F4;stop-color:color(display-p3 0.8549 0.8235 0.9569);stop-opacity:1;"/>
<stop offset="1" stop-color="#F2EDFF" style="stop-color:#F2EDFF;stop-color:color(display-p3 0.9490 0.9294 1.0000);stop-opacity:1;"/>
</linearGradient>
<linearGradient id="paint7_linear_2146_34788" x1="28.9392" y1="12.9068" x2="31.2471" y2="16.9042" gradientUnits="userSpaceOnUse">
<stop offset="0.0319" stop-color="#5D3645" style="stop-color:#5D3645;stop-color:color(display-p3 0.3647 0.2118 0.2706);stop-opacity:1;"/>
<stop offset="1" stop-color="#5D3645" stop-opacity="0" style="stop-color:none;stop-opacity:0;"/>
</linearGradient>
<linearGradient id="paint8_linear_2146_34788" x1="31.3664" y1="11.7573" x2="29.4201" y2="5.56466" gradientUnits="userSpaceOnUse">
<stop stop-color="#C5BAEB" style="stop-color:#C5BAEB;stop-color:color(display-p3 0.7725 0.7294 0.9216);stop-opacity:1;"/>
<stop offset="0.2585" stop-color="#CBC0ED" style="stop-color:#CBC0ED;stop-color:color(display-p3 0.7961 0.7529 0.9294);stop-opacity:1;"/>
<stop offset="0.6156" stop-color="#DAD2F4" style="stop-color:#DAD2F4;stop-color:color(display-p3 0.8549 0.8235 0.9569);stop-opacity:1;"/>
<stop offset="1" stop-color="#F2EDFF" style="stop-color:#F2EDFF;stop-color:color(display-p3 0.9490 0.9294 1.0000);stop-opacity:1;"/>
</linearGradient>
<linearGradient id="paint9_linear_2146_34788" x1="36.0749" y1="8.79355" x2="38.3828" y2="12.7909" gradientUnits="userSpaceOnUse">
<stop offset="0.0319" stop-color="#5D3645" style="stop-color:#5D3645;stop-color:color(display-p3 0.3647 0.2118 0.2706);stop-opacity:1;"/>
<stop offset="1" stop-color="#5D3645" stop-opacity="0" style="stop-color:none;stop-opacity:0;"/>
</linearGradient>
<linearGradient id="paint10_linear_2146_34788" x1="38.502" y1="7.64403" x2="36.5557" y2="1.45138" gradientUnits="userSpaceOnUse">
<stop stop-color="#C5BAEB" style="stop-color:#C5BAEB;stop-color:color(display-p3 0.7725 0.7294 0.9216);stop-opacity:1;"/>
<stop offset="0.2585" stop-color="#CBC0ED" style="stop-color:#CBC0ED;stop-color:color(display-p3 0.7961 0.7529 0.9294);stop-opacity:1;"/>
<stop offset="0.6156" stop-color="#DAD2F4" style="stop-color:#DAD2F4;stop-color:color(display-p3 0.8549 0.8235 0.9569);stop-opacity:1;"/>
<stop offset="1" stop-color="#F2EDFF" style="stop-color:#F2EDFF;stop-color:color(display-p3 0.9490 0.9294 1.0000);stop-opacity:1;"/>
</linearGradient>
<linearGradient id="paint11_linear_2146_34788" x1="36.75" y1="40.4111" x2="36.75" y2="49.0132" gradientUnits="userSpaceOnUse">
<stop stop-color="#43386B" style="stop-color:#43386B;stop-color:color(display-p3 0.2627 0.2196 0.4196);stop-opacity:1;"/>
<stop offset="1" stop-color="#43386B" stop-opacity="0" style="stop-color:none;stop-opacity:0;"/>
</linearGradient>
<linearGradient id="paint12_linear_2146_34788" x1="42.2244" y1="34.0374" x2="46.7324" y2="26.2293" gradientUnits="userSpaceOnUse">
<stop stop-color="#43386B" style="stop-color:#43386B;stop-color:color(display-p3 0.2627 0.2196 0.4196);stop-opacity:1;"/>
<stop offset="1" stop-color="#7662BD" style="stop-color:#7662BD;stop-color:color(display-p3 0.4627 0.3843 0.7412);stop-opacity:1;"/>
</linearGradient>
<linearGradient id="paint13_linear_2146_34788" x1="43.7346" y1="61.1381" x2="43.7346" y2="16.6949" gradientUnits="userSpaceOnUse">
<stop stop-color="#594A8E" style="stop-color:#594A8E;stop-color:color(display-p3 0.3490 0.2902 0.5569);stop-opacity:1;"/>
<stop offset="1" stop-color="#A996EB" style="stop-color:#A996EB;stop-color:color(display-p3 0.6627 0.5882 0.9216);stop-opacity:1;"/>
</linearGradient>
<linearGradient id="paint14_linear_2146_34788" x1="43.7346" y1="40.8657" x2="43.7346" y2="28.2771" gradientUnits="userSpaceOnUse">
<stop stop-color="#594A8E" style="stop-color:#594A8E;stop-color:color(display-p3 0.3490 0.2902 0.5569);stop-opacity:1;"/>
<stop offset="1" stop-color="#A996EB" style="stop-color:#A996EB;stop-color:color(display-p3 0.6627 0.5882 0.9216);stop-opacity:1;"/>
</linearGradient>
<linearGradient id="paint15_linear_2146_34788" x1="46.6077" y1="40.8666" x2="46.6077" y2="28.278" gradientUnits="userSpaceOnUse">
<stop stop-color="#594A8E" style="stop-color:#594A8E;stop-color:color(display-p3 0.3490 0.2902 0.5569);stop-opacity:1;"/>
<stop offset="1" stop-color="#A996EB" style="stop-color:#A996EB;stop-color:color(display-p3 0.6627 0.5882 0.9216);stop-opacity:1;"/>
</linearGradient>
<linearGradient id="paint16_linear_2146_34788" x1="57.6623" y1="43.3803" x2="30.9296" y2="30.3481" gradientUnits="userSpaceOnUse">
<stop stop-color="white" style="stop-color:white;stop-opacity:1;"/>
<stop offset="1" stop-color="white" stop-opacity="0" style="stop-color:none;stop-opacity:0;"/>
</linearGradient>
</defs>
</svg>
