<svg width="16" height="16" viewBox="0 0 16 16" fill="none" xmlns="http://www.w3.org/2000/svg">
<g clip-path="url(#clip0_4030_71301)">
<path d="M13.1679 0.221879L12.8188 0.0196917C12.7768 -0.00799582 12.7207 -0.00762082 12.6588 0.0280667L2.97806 5.63975C2.84793 5.71488 2.74243 5.91647 2.74243 6.08997V15.5833C2.74243 15.6825 2.77693 15.7508 2.83074 15.7773L3.17403 15.9754C3.21671 16.0081 3.27584 16.0095 3.34121 15.9718L13.022 10.3601C13.1521 10.285 13.2576 10.0834 13.2576 9.90988V0.416473C13.2577 0.316504 13.2225 0.24791 13.1679 0.221879Z" fill="url(#paint0_linear_4030_71301)" style=""/>
<path d="M13.0219 10.3609L3.34109 15.9726C3.21097 16.0477 3.10547 15.968 3.10547 15.7944V6.30108C3.10547 6.12755 3.21097 5.92599 3.34109 5.85087L13.0219 0.239209C13.152 0.164084 13.2575 0.243834 13.2575 0.417334V9.91071C13.2575 10.0842 13.152 10.2858 13.0219 10.3609Z" fill="url(#paint1_linear_4030_71301)" style=""/>
<path d="M8.18164 13.1668L13.022 10.361C13.1522 10.2858 13.2577 10.0843 13.2577 9.91072V0.417348C13.2577 0.243848 13.1522 0.164067 13.022 0.239223L8.18164 3.04504V13.1668Z" fill="#E9E5F6" style="fill:#E9E5F6;fill:color(display-p3 0.9137 0.8980 0.9647);fill-opacity:1;"/>
<path d="M4.87524 7.18311L7.09021 5.9043V6.48361L4.87524 7.76242V7.18311Z" fill="white" style="fill:white;fill-opacity:1;"/>
<path d="M9.1167 8.01319L11.3317 6.73438V7.31366L9.1167 8.5925V8.01319Z" fill="#594A8E" style="fill:#594A8E;fill:color(display-p3 0.3490 0.2902 0.5569);fill-opacity:1;"/>
<path d="M9.1167 9.62452L11.3317 8.3457V8.92502L9.1167 10.2038V9.62452Z" fill="#594A8E" style="fill:#594A8E;fill:color(display-p3 0.3490 0.2902 0.5569);fill-opacity:1;"/>
<path d="M4.87524 12.1421L7.09021 10.8633V11.4426L4.87524 12.7214V12.1421Z" fill="white" style="fill:white;fill-opacity:1;"/>
<path d="M12.5718 1.415V9.70829L3.79113 14.7968V6.50354L12.5718 1.415ZM13.0219 0.239223L3.34109 5.85088C3.21097 5.926 3.10547 6.12757 3.10547 6.3011V15.7944C3.10547 15.968 3.21097 16.0477 3.34109 15.9726L13.0219 10.3609C13.152 10.2858 13.2575 10.0842 13.2575 9.91072V0.417348C13.2575 0.243848 13.152 0.164067 13.0219 0.239223Z" fill="white" style="fill:white;fill-opacity:1;"/>
<path d="M3.10547 14.6167V15.7951C3.10547 15.8237 3.10925 15.8486 3.11459 15.8718L3.79116 14.5791V13.3066L3.10547 14.6167Z" fill="url(#paint2_linear_4030_71301)" style=""/>
<path d="M6.49123 13.2317L5.8042 14.5444L6.76017 13.9903L7.44714 12.6777L6.49123 13.2317Z" fill="url(#paint3_linear_4030_71301)" style=""/>
<path d="M8.90137 3.54247L9.85724 2.98853L10.5443 1.67578L9.58831 2.22994L8.90137 3.54247Z" fill="url(#paint4_linear_4030_71301)" style=""/>
<path d="M12.5718 2.88672L13.2574 1.57662V0.417469C13.2574 0.383531 13.2524 0.354438 13.2449 0.328125L12.5718 1.61425V2.88672Z" fill="url(#paint5_linear_4030_71301)" style=""/>
<path d="M3.10547 10.8813L3.79113 9.57127V8.29883L3.10547 9.60892V10.8813Z" fill="url(#paint6_linear_4030_71301)" style=""/>
<path d="M13.2575 5.36523L12.5718 6.67533V7.94777L13.2575 6.63767V5.36523Z" fill="url(#paint7_linear_4030_71301)" style=""/>
<path d="M5.14014 5.72134L6.09601 5.16738L6.78261 3.85547L5.82664 4.40963L5.14014 5.72134Z" fill="url(#paint8_linear_4030_71301)" style=""/>
<path d="M10.293 11.0286L9.60645 12.3405L10.5624 11.7863L11.2489 10.4746L10.293 11.0286Z" fill="url(#paint9_linear_4030_71301)" style=""/>
<path d="M3.88477 15.6581L4.84077 15.104L5.52795 13.791L4.57208 14.345L3.88477 15.6581Z" fill="url(#paint10_linear_4030_71301)" style=""/>
<path d="M8.39238 12.1321L7.70557 13.4444L8.66154 12.8903L9.34828 11.5781L8.39238 12.1321Z" fill="url(#paint11_linear_4030_71301)" style=""/>
<path d="M3.79113 10.8145L3.10547 12.1245V13.397L3.79113 12.0869V10.8145Z" fill="url(#paint12_linear_4030_71301)" style=""/>
<path d="M10.8022 2.44134L11.7581 1.88737L12.4454 0.574219L11.4894 1.12837L10.8022 2.44134Z" fill="url(#paint13_linear_4030_71301)" style=""/>
<path d="M3.10547 7.11725V8.38969L3.79113 7.07959V6.50366L4.22378 6.25291L4.91019 4.94141L3.95419 5.49556L3.10547 7.11725Z" fill="url(#paint14_linear_4030_71301)" style=""/>
<path d="M12.5718 4.14603V5.41847L13.2575 4.10838V2.83594L12.5718 4.14603Z" fill="url(#paint15_linear_4030_71301)" style=""/>
<path d="M13.2576 7.89648L12.5719 9.20658V9.70939L12.1942 9.9283L11.5078 11.2398L12.4638 10.6856L13.2576 9.16892V7.89648Z" fill="url(#paint16_linear_4030_71301)" style=""/>
<path d="M7.02881 4.628L7.98472 4.07406L8.67153 2.76172L7.71556 3.31588L7.02881 4.628Z" fill="url(#paint17_linear_4030_71301)" style=""/>
<path d="M12.1776 4.70391L10.5481 5.64466V3.47203L12.1776 2.53125V4.70391ZM10.7106 5.33419L12.0151 4.58106V2.84175L10.7106 3.59488V5.33419Z" fill="#594A8E" style="fill:#594A8E;fill:color(display-p3 0.3490 0.2902 0.5569);fill-opacity:1;"/>
<path d="M10.6292 6.08829C10.2588 6.3021 9.95752 6.07435 9.95752 5.58051C9.95752 5.08669 10.2588 4.51097 10.6292 4.29713C10.9996 4.08332 11.3009 4.3111 11.3009 4.80491C11.3009 5.29872 10.9996 5.87444 10.6292 6.08829ZM10.6292 4.51382C10.3485 4.67591 10.12 5.11235 10.12 5.48669C10.12 5.86104 10.3484 6.03372 10.6292 5.87163C10.91 5.70954 11.1384 5.2731 11.1384 4.89876C11.1384 4.52438 10.91 4.35172 10.6292 4.51382Z" fill="#FF2741" style="fill:#FF2741;fill:color(display-p3 1.0000 0.1529 0.2549);fill-opacity:1;"/>
<path d="M9.93051 5.19909L8.98848 5.74297C8.9436 5.76887 8.90723 5.74137 8.90723 5.68153C8.90723 5.62169 8.9436 5.55219 8.98848 5.52628L9.93051 4.98241C9.97538 4.9565 10.0118 4.984 10.0118 5.04384C10.0118 5.10369 9.97541 5.17319 9.93051 5.19909Z" fill="#FF2741" style="fill:#FF2741;fill:color(display-p3 1.0000 0.1529 0.2549);fill-opacity:1;"/>
<path d="M9.78427 5.78894L8.84224 6.33281C8.79736 6.35872 8.76099 6.33122 8.76099 6.27137C8.76099 6.21156 8.79736 6.14203 8.84224 6.11612L9.78427 5.57225C9.82914 5.54634 9.86552 5.57384 9.86552 5.63369C9.86552 5.69353 9.82917 5.76303 9.78427 5.78894Z" fill="#FF2741" style="fill:#FF2741;fill:color(display-p3 1.0000 0.1529 0.2549);fill-opacity:1;"/>
<path d="M9.93051 6.21081L8.98848 6.75469C8.9436 6.78059 8.90723 6.75309 8.90723 6.69325C8.90723 6.63344 8.9436 6.56391 8.98848 6.538L9.93051 5.99412C9.97538 5.96822 10.0118 5.99572 10.0118 6.05556C10.0118 6.11541 9.97541 6.18491 9.93051 6.21081Z" fill="#FF2741" style="fill:#FF2741;fill:color(display-p3 1.0000 0.1529 0.2549);fill-opacity:1;"/>
<path d="M5.96994 10.1312C5.62238 10.3319 5.3396 10.1181 5.3396 9.65474C5.3396 9.19133 5.62235 8.65105 5.96994 8.45039C6.31754 8.24974 6.60029 8.46349 6.60029 8.92689C6.60026 9.3903 6.31751 9.93055 5.96994 10.1312Z" fill="#FFC538" style="fill:#FFC538;fill:color(display-p3 1.0000 0.7725 0.2196);fill-opacity:1;"/>
<path d="M5.96991 8.26459C5.92813 8.28872 5.89429 8.26309 5.89429 8.2074V7.804C5.89429 7.74831 5.92816 7.68359 5.96991 7.65947C6.01169 7.63534 6.04557 7.66097 6.04557 7.71666V8.12006C6.04554 8.17575 6.01166 8.24047 5.96991 8.26459Z" fill="#FFC538" style="fill:#FFC538;fill:color(display-p3 1.0000 0.7725 0.2196);fill-opacity:1;"/>
<path d="M5.37256 8.94084C5.35322 8.95203 5.33384 8.95334 5.31909 8.94218L5.10516 8.78046C5.07563 8.75812 5.07563 8.69428 5.10516 8.63784C5.13469 8.5814 5.18256 8.55378 5.21212 8.57609L5.42606 8.73781C5.45562 8.76012 5.45562 8.824 5.42606 8.88043C5.41125 8.90865 5.39191 8.92965 5.37256 8.94084Z" fill="#FFC538" style="fill:#FFC538;fill:color(display-p3 1.0000 0.7725 0.2196);fill-opacity:1;"/>
<path d="M5.12526 9.87876L4.8227 10.0535C4.78091 10.0776 4.74707 10.052 4.74707 9.99626C4.74707 9.94058 4.78095 9.87586 4.8227 9.85173L5.12526 9.67705C5.16704 9.65292 5.20088 9.67855 5.20088 9.73423C5.20088 9.78992 5.16701 9.85464 5.12526 9.87876Z" fill="#FFC538" style="fill:#FFC538;fill:color(display-p3 1.0000 0.7725 0.2196);fill-opacity:1;"/>
<path d="M5.15862 10.9418C5.13928 10.953 5.11991 10.9543 5.10516 10.9432C5.07563 10.9208 5.07563 10.857 5.10516 10.8005L5.31909 10.3918C5.34866 10.3353 5.3965 10.3077 5.42606 10.33C5.45562 10.3523 5.45562 10.4162 5.42606 10.4726L5.21213 10.8814C5.19734 10.9096 5.178 10.9306 5.15862 10.9418Z" fill="#FFC538" style="fill:#FFC538;fill:color(display-p3 1.0000 0.7725 0.2196);fill-opacity:1;"/>
<path d="M5.96991 10.9208C5.92813 10.945 5.89429 10.9193 5.89429 10.8637V10.4602C5.89429 10.4046 5.92816 10.3398 5.96991 10.3157C6.01169 10.2916 6.04557 10.3172 6.04557 10.3729V10.7763C6.04554 10.832 6.01166 10.8967 5.96991 10.9208Z" fill="#FFC538" style="fill:#FFC538;fill:color(display-p3 1.0000 0.7725 0.2196);fill-opacity:1;"/>
<path d="M6.78104 10.0053C6.7617 10.0165 6.74232 10.0178 6.72754 10.0067L6.5136 9.84494C6.48407 9.82262 6.48407 9.75875 6.5136 9.70231C6.54313 9.64584 6.59101 9.61825 6.62057 9.64053L6.83451 9.80225C6.86404 9.82456 6.86404 9.88844 6.83451 9.94487C6.81976 9.97309 6.80038 9.99412 6.78104 10.0053Z" fill="#FFC538" style="fill:#FFC538;fill:color(display-p3 1.0000 0.7725 0.2196);fill-opacity:1;"/>
<path d="M7.11699 8.72838L6.81443 8.90307C6.77264 8.92719 6.73877 8.90157 6.73877 8.84588C6.73877 8.79019 6.77264 8.72547 6.81443 8.70135L7.11699 8.52666C7.15877 8.50253 7.19261 8.52813 7.19261 8.58385C7.19264 8.63954 7.15877 8.70425 7.11699 8.72838Z" fill="#FFC538" style="fill:#FFC538;fill:color(display-p3 1.0000 0.7725 0.2196);fill-opacity:1;"/>
<path d="M6.56707 8.25043C6.54773 8.26162 6.52835 8.26293 6.5136 8.25175C6.48407 8.22943 6.48407 8.16556 6.5136 8.10912L6.72754 7.70034C6.7571 7.6439 6.80495 7.61628 6.83451 7.63859C6.86404 7.6609 6.86404 7.72478 6.83451 7.78122L6.62057 8.19C6.60579 8.21822 6.58645 8.23925 6.56707 8.25043Z" fill="#FFC538" style="fill:#FFC538;fill:color(display-p3 1.0000 0.7725 0.2196);fill-opacity:1;"/>
</g>
<defs>
<linearGradient id="paint0_linear_4030_71301" x1="7.05606" y1="9.63491" x2="7.75449" y2="8.42519" gradientUnits="userSpaceOnUse">
<stop stop-color="#C5BAEB" style="stop-color:#C5BAEB;stop-color:color(display-p3 0.7725 0.7294 0.9216);stop-opacity:1;"/>
<stop offset="1" stop-color="#E9E5F6" style="stop-color:#E9E5F6;stop-color:color(display-p3 0.9137 0.8980 0.9647);stop-opacity:1;"/>
</linearGradient>
<linearGradient id="paint1_linear_4030_71301" x1="4.00184" y1="15.3452" x2="11.9923" y2="1.50537" gradientUnits="userSpaceOnUse">
<stop stop-color="#0197F8" style="stop-color:#0197F8;stop-color:color(display-p3 0.0039 0.5922 0.9725);stop-opacity:1;"/>
<stop offset="1" stop-color="#79D3FE" style="stop-color:#79D3FE;stop-color:color(display-p3 0.4745 0.8275 0.9961);stop-opacity:1;"/>
</linearGradient>
<linearGradient id="paint2_linear_4030_71301" x1="3.10546" y1="14.7868" x2="3.79114" y2="14.7868" gradientUnits="userSpaceOnUse">
<stop offset="0.0161" stop-color="#145EC7" style="stop-color:#145EC7;stop-color:color(display-p3 0.0784 0.3686 0.7804);stop-opacity:1;"/>
<stop offset="1" stop-color="#2F97F7" style="stop-color:#2F97F7;stop-color:color(display-p3 0.1843 0.5922 0.9686);stop-opacity:1;"/>
</linearGradient>
<linearGradient id="paint3_linear_4030_71301" x1="5.80421" y1="14.0826" x2="7.44714" y2="14.0826" gradientUnits="userSpaceOnUse">
<stop offset="0.0161" stop-color="#145EC7" style="stop-color:#145EC7;stop-color:color(display-p3 0.0784 0.3686 0.7804);stop-opacity:1;"/>
<stop offset="1" stop-color="#2F97F7" style="stop-color:#2F97F7;stop-color:color(display-p3 0.1843 0.5922 0.9686);stop-opacity:1;"/>
</linearGradient>
<linearGradient id="paint4_linear_4030_71301" x1="8.90139" y1="3.07826" x2="10.5443" y2="3.07826" gradientUnits="userSpaceOnUse">
<stop offset="0.0161" stop-color="#145EC7" style="stop-color:#145EC7;stop-color:color(display-p3 0.0784 0.3686 0.7804);stop-opacity:1;"/>
<stop offset="1" stop-color="#2F97F7" style="stop-color:#2F97F7;stop-color:color(display-p3 0.1843 0.5922 0.9686);stop-opacity:1;"/>
</linearGradient>
<linearGradient id="paint5_linear_4030_71301" x1="12.5718" y1="1.79681" x2="13.2575" y2="1.79681" gradientUnits="userSpaceOnUse">
<stop offset="0.0161" stop-color="#145EC7" style="stop-color:#145EC7;stop-color:color(display-p3 0.0784 0.3686 0.7804);stop-opacity:1;"/>
<stop offset="1" stop-color="#2F97F7" style="stop-color:#2F97F7;stop-color:color(display-p3 0.1843 0.5922 0.9686);stop-opacity:1;"/>
</linearGradient>
<linearGradient id="paint6_linear_4030_71301" x1="3.10546" y1="9.78379" x2="3.79114" y2="9.78379" gradientUnits="userSpaceOnUse">
<stop offset="0.0161" stop-color="#145EC7" style="stop-color:#145EC7;stop-color:color(display-p3 0.0784 0.3686 0.7804);stop-opacity:1;"/>
<stop offset="1" stop-color="#2F97F7" style="stop-color:#2F97F7;stop-color:color(display-p3 0.1843 0.5922 0.9686);stop-opacity:1;"/>
</linearGradient>
<linearGradient id="paint7_linear_4030_71301" x1="12.5718" y1="6.85086" x2="13.2575" y2="6.85086" gradientUnits="userSpaceOnUse">
<stop offset="0.0161" stop-color="#145EC7" style="stop-color:#145EC7;stop-color:color(display-p3 0.0784 0.3686 0.7804);stop-opacity:1;"/>
<stop offset="1" stop-color="#2F97F7" style="stop-color:#2F97F7;stop-color:color(display-p3 0.1843 0.5922 0.9686);stop-opacity:1;"/>
</linearGradient>
<linearGradient id="paint8_linear_4030_71301" x1="5.14013" y1="5.25743" x2="6.78263" y2="5.25743" gradientUnits="userSpaceOnUse">
<stop offset="0.0161" stop-color="#145EC7" style="stop-color:#145EC7;stop-color:color(display-p3 0.0784 0.3686 0.7804);stop-opacity:1;"/>
<stop offset="1" stop-color="#2F97F7" style="stop-color:#2F97F7;stop-color:color(display-p3 0.1843 0.5922 0.9686);stop-opacity:1;"/>
</linearGradient>
<linearGradient id="paint9_linear_4030_71301" x1="9.60646" y1="11.879" x2="11.249" y2="11.879" gradientUnits="userSpaceOnUse">
<stop offset="0.0161" stop-color="#145EC7" style="stop-color:#145EC7;stop-color:color(display-p3 0.0784 0.3686 0.7804);stop-opacity:1;"/>
<stop offset="1" stop-color="#2F97F7" style="stop-color:#2F97F7;stop-color:color(display-p3 0.1843 0.5922 0.9686);stop-opacity:1;"/>
</linearGradient>
<linearGradient id="paint10_linear_4030_71301" x1="3.88479" y1="15.1962" x2="5.52795" y2="15.1962" gradientUnits="userSpaceOnUse">
<stop stop-color="#AB2C37" style="stop-color:#AB2C37;stop-color:color(display-p3 0.6706 0.1725 0.2157);stop-opacity:1;"/>
<stop offset="1" stop-color="#FF4757" style="stop-color:#FF4757;stop-color:color(display-p3 1.0000 0.2784 0.3412);stop-opacity:1;"/>
</linearGradient>
<linearGradient id="paint11_linear_4030_71301" x1="7.70556" y1="12.9828" x2="9.34828" y2="12.9828" gradientUnits="userSpaceOnUse">
<stop stop-color="#AB2C37" style="stop-color:#AB2C37;stop-color:color(display-p3 0.6706 0.1725 0.2157);stop-opacity:1;"/>
<stop offset="1" stop-color="#FF4757" style="stop-color:#FF4757;stop-color:color(display-p3 1.0000 0.2784 0.3412);stop-opacity:1;"/>
</linearGradient>
<linearGradient id="paint12_linear_4030_71301" x1="3.10546" y1="12.3001" x2="3.79114" y2="12.3001" gradientUnits="userSpaceOnUse">
<stop stop-color="#AB2C37" style="stop-color:#AB2C37;stop-color:color(display-p3 0.6706 0.1725 0.2157);stop-opacity:1;"/>
<stop offset="1" stop-color="#FF4757" style="stop-color:#FF4757;stop-color:color(display-p3 1.0000 0.2784 0.3412);stop-opacity:1;"/>
</linearGradient>
<linearGradient id="paint13_linear_4030_71301" x1="10.8023" y1="1.97699" x2="12.4454" y2="1.97699" gradientUnits="userSpaceOnUse">
<stop stop-color="#AB2C37" style="stop-color:#AB2C37;stop-color:color(display-p3 0.6706 0.1725 0.2157);stop-opacity:1;"/>
<stop offset="1" stop-color="#FF4757" style="stop-color:#FF4757;stop-color:color(display-p3 1.0000 0.2784 0.3412);stop-opacity:1;"/>
</linearGradient>
<linearGradient id="paint14_linear_4030_71301" x1="3.10546" y1="7.18164" x2="4.91021" y2="7.18164" gradientUnits="userSpaceOnUse">
<stop stop-color="#AB2C37" style="stop-color:#AB2C37;stop-color:color(display-p3 0.6706 0.1725 0.2157);stop-opacity:1;"/>
<stop offset="1" stop-color="#FF4757" style="stop-color:#FF4757;stop-color:color(display-p3 1.0000 0.2784 0.3412);stop-opacity:1;"/>
</linearGradient>
<linearGradient id="paint15_linear_4030_71301" x1="12.5718" y1="4.32089" x2="13.2575" y2="4.32089" gradientUnits="userSpaceOnUse">
<stop stop-color="#AB2C37" style="stop-color:#AB2C37;stop-color:color(display-p3 0.6706 0.1725 0.2157);stop-opacity:1;"/>
<stop offset="1" stop-color="#FF4757" style="stop-color:#FF4757;stop-color:color(display-p3 1.0000 0.2784 0.3412);stop-opacity:1;"/>
</linearGradient>
<linearGradient id="paint16_linear_4030_71301" x1="11.5078" y1="10.0704" x2="13.2576" y2="10.0704" gradientUnits="userSpaceOnUse">
<stop stop-color="#AB2C37" style="stop-color:#AB2C37;stop-color:color(display-p3 0.6706 0.1725 0.2157);stop-opacity:1;"/>
<stop offset="1" stop-color="#FF4757" style="stop-color:#FF4757;stop-color:color(display-p3 1.0000 0.2784 0.3412);stop-opacity:1;"/>
</linearGradient>
<linearGradient id="paint17_linear_4030_71301" x1="7.02883" y1="4.16396" x2="8.67155" y2="4.16396" gradientUnits="userSpaceOnUse">
<stop stop-color="#AB2C37" style="stop-color:#AB2C37;stop-color:color(display-p3 0.6706 0.1725 0.2157);stop-opacity:1;"/>
<stop offset="1" stop-color="#FF4757" style="stop-color:#FF4757;stop-color:color(display-p3 1.0000 0.2784 0.3412);stop-opacity:1;"/>
</linearGradient>
<clipPath id="clip0_4030_71301">
<rect width="16" height="16" fill="white" style="fill:white;fill-opacity:1;"/>
</clipPath>
</defs>
</svg>
