<svg width="16" height="16" viewBox="0 0 16 16" fill="none" xmlns="http://www.w3.org/2000/svg">
<g clip-path="url(#clip0_4030_70612)">
<path d="M8.61651 7.72106L5.13154 7.64844L3.1167 15.3141L4.30726 16.0002L5.38548 14.9689L5.65357 15.2505L6.84414 15.9366L8.61651 7.72106Z" fill="url(#paint0_linear_4030_70612)" style=""/>
<path d="M9.92949 5.67773L7.39258 8.54352L9.15736 13.2149L10.3465 13.9048L9.92949 5.67773Z" fill="url(#paint1_linear_4030_70612)" style=""/>
<path d="M6.07947 9.27844L8.61638 9.21484L6.84403 15.9356L5.8521 14.9176L4.30713 15.9992L6.07947 9.27844Z" fill="url(#paint2_linear_4030_70612)" style=""/>
<path d="M11.1187 6.36719L8.58179 9.23297L10.3466 13.9043L11.3385 11.741L12.8835 11.0386L11.1187 6.36719Z" fill="url(#paint3_linear_4030_70612)" style=""/>
<path d="M11.094 1.01602L9.72052 0.223579C9.12621 -0.115046 8.35302 -0.0808276 7.50755 0.407329C5.63255 1.48986 4.11255 4.39408 4.11255 6.89408C4.11255 8.21198 4.53508 9.15423 5.20924 9.59227L5.20914 9.59249L6.72155 10.4663C7.30908 10.776 11.094 1.01602 11.094 1.01602Z" fill="url(#paint4_linear_4030_70612)" style=""/>
<path d="M12.2807 3.76889C12.2807 1.26889 10.7607 0.119797 8.88572 1.20233C7.01072 2.28486 5.49072 5.18908 5.49072 7.68908C5.49072 10.1891 7.01072 11.3382 8.88572 10.2556C10.7607 9.17311 12.2807 6.26889 12.2807 3.76889Z" fill="url(#paint5_linear_4030_70612)" style=""/>
<path d="M12.2808 3.76906C12.2808 2.98131 12.1297 2.32787 11.8644 1.83594L7.25562 10.6418C7.73949 10.7163 8.29496 10.5969 8.88577 10.2558C9.13396 10.1125 9.37586 9.937 9.60893 9.73503L12.2033 4.77797C12.2539 4.43806 12.2808 4.1 12.2808 3.76906Z" fill="url(#paint6_linear_4030_70612)" style=""/>
<path d="M8.88572 1.20218C8.73579 1.28875 8.58816 1.38709 8.44338 1.49581L5.51941 7.08259C5.50057 7.28653 5.49072 7.48903 5.49072 7.68893C5.49072 9.00256 5.91054 9.9429 6.58088 10.3828L11.3782 1.21671C10.758 0.680996 9.87094 0.633371 8.88572 1.20218Z" fill="url(#paint7_linear_4030_70612)" style=""/>
<path d="M11.5869 4.16895C11.5869 2.17985 10.3776 1.26557 8.88576 2.12689C7.39394 2.9882 6.18457 5.29892 6.18457 7.28801C6.18457 9.2771 7.39394 10.1914 8.88576 9.33007C10.3776 8.46879 11.5869 6.15807 11.5869 4.16895Z" fill="url(#paint8_linear_4030_70612)" style=""/>
<path d="M10.369 1.86328C10.7916 2.25491 11.0483 2.94284 11.0483 3.85906C11.0483 5.84816 9.83895 8.15891 8.34714 9.02019C7.79933 9.33647 7.28973 9.41303 6.86401 9.28519C7.35889 9.74378 8.0812 9.79603 8.88586 9.33147C10.3777 8.47016 11.587 6.15944 11.587 4.17034C11.5871 2.91162 11.1027 2.08363 10.369 1.86328Z" fill="url(#paint9_linear_4030_70612)" style=""/>
<path d="M10.9297 4.64016C11.0255 4.46031 11.0134 4.27578 10.9299 4.21466L10.9299 4.21462L10.9295 4.21437C10.923 4.20972 10.9162 4.20566 10.9089 4.2025L10.0349 3.6975C10.0333 3.69653 10.0317 3.69562 10.0301 3.69475L10.0292 3.69416L10.0291 3.69419C9.99931 3.67809 9.96196 3.67594 9.91827 3.69269L9.57253 3.82531L9.51306 3.699C9.49784 3.66666 9.47724 3.64512 9.45331 3.63316L8.57002 3.12325L8.56999 3.12344C8.46596 3.06459 8.29327 3.19578 8.22581 3.41697L7.87793 4.55766C7.84552 4.66397 7.78284 4.76084 7.71037 4.81675L6.93249 5.41656C6.74996 5.55734 6.67706 5.89853 6.80915 5.99394L7.37202 6.4005C7.42449 6.43841 7.4484 6.52278 7.43602 6.62622L7.30315 7.73591C7.28846 7.85869 7.32312 7.94012 7.38093 7.97009V7.97012L8.26274 8.47906L8.26284 8.47894C8.32777 8.51803 8.42506 8.48872 8.51418 8.37478L9.20993 7.48537C9.27477 7.4025 9.35221 7.35778 9.41706 7.36581L10.1128 7.45181C10.2761 7.472 10.4669 7.17697 10.4357 6.95256L10.3028 5.99631C10.2905 5.90719 10.3144 5.79516 10.3668 5.69669L10.9297 4.64016Z" fill="url(#paint10_linear_4030_70612)" style=""/>
<path d="M9.51315 3.69842L9.86103 4.43742C9.89343 4.5063 9.95612 4.53083 10.0286 4.50302L10.8065 4.20461C10.989 4.13458 11.0619 4.39161 10.9298 4.63955L10.3669 5.69611C10.3145 5.79458 10.2906 5.90661 10.3029 5.99573L10.4358 6.95198C10.467 7.17639 10.2762 7.47142 10.1129 7.45123L9.41715 7.36523C9.35231 7.35723 9.27487 7.40195 9.21003 7.48483L8.51428 8.37423C8.351 8.58295 8.16018 8.50827 8.19134 8.24786L8.32422 7.13817C8.33659 7.03477 8.31265 6.95036 8.26022 6.91248L7.69734 6.50589C7.56525 6.41048 7.63812 6.0693 7.82068 5.92852L8.59856 5.3287C8.67103 5.2728 8.73372 5.17592 8.76612 5.06964L9.114 3.92895C9.19565 3.66117 9.43153 3.52502 9.51315 3.69842Z" fill="url(#paint11_linear_4030_70612)" style=""/>
<path d="M10.4357 6.9524L10.3028 5.99615C10.2904 5.90703 10.3144 5.79499 10.3668 5.69656L10.9297 4.63999C11.0618 4.39206 10.9889 4.13503 10.8063 4.20506L10.5779 4.29268L8.38574 8.48125C8.42749 8.46356 8.47171 8.42887 8.51412 8.37465L9.20987 7.48524C9.27471 7.40237 9.35215 7.35765 9.41699 7.36565L10.1127 7.45165C10.2761 7.47184 10.4669 7.17681 10.4357 6.9524Z" fill="url(#paint12_linear_4030_70612)" style=""/>
<path d="M9.51315 3.69844C9.43152 3.525 9.19565 3.66119 9.11399 3.92888L8.76612 5.06956C8.73368 5.17584 8.67102 5.27275 8.59855 5.32863L7.82068 5.92847C7.63815 6.06922 7.56524 6.41041 7.69733 6.50584L8.26021 6.91241C8.29652 6.93863 8.31874 6.98744 8.32515 7.04909L9.78099 4.26744L9.51315 3.69844Z" fill="url(#paint13_linear_4030_70612)" style=""/>
<path d="M9.86088 4.43856C9.89329 4.50743 9.95598 4.53196 10.0284 4.50415L10.8063 4.20575C10.846 4.1905 10.8806 4.19078 10.9089 4.20306L10.0349 3.69806C10.0333 3.69709 10.0317 3.69618 10.0301 3.69531L10.0291 3.69471L10.0291 3.69475C9.99929 3.67865 9.96195 3.6765 9.91826 3.69325L9.57251 3.82587L9.86088 4.43856Z" fill="url(#paint14_linear_4030_70612)" style=""/>
<path d="M7.82059 5.92903L8.59846 5.32922C8.67093 5.27331 8.73362 5.17644 8.76603 5.07012L9.1139 3.92944C9.18034 3.71166 9.34881 3.58094 9.45331 3.63316L8.57003 3.12325L8.56999 3.12344C8.46596 3.06459 8.29327 3.19578 8.22581 3.41697L7.87793 4.55766C7.84552 4.66397 7.78284 4.76084 7.71037 4.81675L6.93249 5.41656C6.74996 5.55734 6.67706 5.89853 6.80915 5.99394L7.69724 6.50641C7.56515 6.41097 7.63802 6.06981 7.82059 5.92903Z" fill="url(#paint15_linear_4030_70612)" style=""/>
</g>
<defs>
<linearGradient id="paint0_linear_4030_70612" x1="6.24623" y1="10.8191" x2="3.32679" y2="21.8179" gradientUnits="userSpaceOnUse">
<stop stop-color="#AB2C37" style="stop-color:#AB2C37;stop-color:color(display-p3 0.6706 0.1725 0.2157);stop-opacity:1;"/>
<stop offset="0.2054" stop-color="#B6303B" style="stop-color:#B6303B;stop-color:color(display-p3 0.7137 0.1882 0.2314);stop-opacity:1;"/>
<stop offset="0.5676" stop-color="#D43947" style="stop-color:#D43947;stop-color:color(display-p3 0.8314 0.2235 0.2784);stop-opacity:1;"/>
<stop offset="1" stop-color="#FF4757" style="stop-color:#FF4757;stop-color:color(display-p3 1.0000 0.2784 0.3412);stop-opacity:1;"/>
</linearGradient>
<linearGradient id="paint1_linear_4030_70612" x1="9.95355" y1="10.6087" x2="12.592" y2="17.7496" gradientUnits="userSpaceOnUse">
<stop stop-color="#AB2C37" style="stop-color:#AB2C37;stop-color:color(display-p3 0.6706 0.1725 0.2157);stop-opacity:1;"/>
<stop offset="0.2054" stop-color="#B6303B" style="stop-color:#B6303B;stop-color:color(display-p3 0.7137 0.1882 0.2314);stop-opacity:1;"/>
<stop offset="0.5676" stop-color="#D43947" style="stop-color:#D43947;stop-color:color(display-p3 0.8314 0.2235 0.2784);stop-opacity:1;"/>
<stop offset="1" stop-color="#FF4757" style="stop-color:#FF4757;stop-color:color(display-p3 1.0000 0.2784 0.3412);stop-opacity:1;"/>
</linearGradient>
<linearGradient id="paint2_linear_4030_70612" x1="7.25463" y1="9.68513" x2="5.29388" y2="16.9108" gradientUnits="userSpaceOnUse">
<stop stop-color="#FF4757" style="stop-color:#FF4757;stop-color:color(display-p3 1.0000 0.2784 0.3412);stop-opacity:1;"/>
<stop offset="0.3032" stop-color="#FF5261" style="stop-color:#FF5261;stop-color:color(display-p3 1.0000 0.3216 0.3804);stop-opacity:1;"/>
<stop offset="0.8361" stop-color="#FF707C" style="stop-color:#FF707C;stop-color:color(display-p3 1.0000 0.4392 0.4863);stop-opacity:1;"/>
<stop offset="1" stop-color="#FF7A85" style="stop-color:#FF7A85;stop-color:color(display-p3 1.0000 0.4784 0.5216);stop-opacity:1;"/>
</linearGradient>
<linearGradient id="paint3_linear_4030_70612" x1="9.75304" y1="7.82569" x2="12.1858" y2="13.5626" gradientUnits="userSpaceOnUse">
<stop stop-color="#FF4757" style="stop-color:#FF4757;stop-color:color(display-p3 1.0000 0.2784 0.3412);stop-opacity:1;"/>
<stop offset="0.3032" stop-color="#FF5261" style="stop-color:#FF5261;stop-color:color(display-p3 1.0000 0.3216 0.3804);stop-opacity:1;"/>
<stop offset="0.8361" stop-color="#FF707C" style="stop-color:#FF707C;stop-color:color(display-p3 1.0000 0.4392 0.4863);stop-opacity:1;"/>
<stop offset="1" stop-color="#FF7A85" style="stop-color:#FF7A85;stop-color:color(display-p3 1.0000 0.4784 0.5216);stop-opacity:1;"/>
</linearGradient>
<linearGradient id="paint4_linear_4030_70612" x1="5.77867" y1="7.18083" x2="7.96214" y2="3.39895" gradientUnits="userSpaceOnUse">
<stop stop-color="#E37A34" style="stop-color:#E37A34;stop-color:color(display-p3 0.8902 0.4784 0.2039);stop-opacity:1;"/>
<stop offset="1" stop-color="#FFC538" style="stop-color:#FFC538;stop-color:color(display-p3 1.0000 0.7725 0.2196);stop-opacity:1;"/>
</linearGradient>
<linearGradient id="paint5_linear_4030_70612" x1="8.88572" y1="8.78786" x2="8.88572" y2="-5.2332" gradientUnits="userSpaceOnUse">
<stop stop-color="#F7E041" style="stop-color:#F7E041;stop-color:color(display-p3 0.9686 0.8784 0.2549);stop-opacity:1;"/>
<stop offset="1" stop-color="#FCF3B3" style="stop-color:#FCF3B3;stop-color:color(display-p3 0.9882 0.9529 0.7020);stop-opacity:1;"/>
</linearGradient>
<linearGradient id="paint6_linear_4030_70612" x1="12.821" y1="8.12159" x2="9.02183" y2="5.92816" gradientUnits="userSpaceOnUse">
<stop stop-color="white" style="stop-color:white;stop-opacity:1;"/>
<stop offset="1" stop-color="white" stop-opacity="0" style="stop-color:none;stop-opacity:0;"/>
</linearGradient>
<linearGradient id="paint7_linear_4030_70612" x1="11.2283" y1="7.07975" x2="4.92275" y2="3.43918" gradientUnits="userSpaceOnUse">
<stop stop-color="white" style="stop-color:white;stop-opacity:1;"/>
<stop offset="1" stop-color="white" stop-opacity="0" style="stop-color:none;stop-opacity:0;"/>
</linearGradient>
<linearGradient id="paint8_linear_4030_70612" x1="8.88576" y1="7.2342" x2="8.88576" y2="-1.90221" gradientUnits="userSpaceOnUse">
<stop stop-color="#FFC538" style="stop-color:#FFC538;stop-color:color(display-p3 1.0000 0.7725 0.2196);stop-opacity:1;"/>
<stop offset="1" stop-color="#F7E041" style="stop-color:#F7E041;stop-color:color(display-p3 0.9686 0.8784 0.2549);stop-opacity:1;"/>
</linearGradient>
<linearGradient id="paint9_linear_4030_70612" x1="7.97111" y1="9.04766" x2="11.2209" y2="3.41894" gradientUnits="userSpaceOnUse">
<stop stop-color="#E37A34" style="stop-color:#E37A34;stop-color:color(display-p3 0.8902 0.4784 0.2039);stop-opacity:1;"/>
<stop offset="1" stop-color="#FFC538" style="stop-color:#FFC538;stop-color:color(display-p3 1.0000 0.7725 0.2196);stop-opacity:1;"/>
</linearGradient>
<linearGradient id="paint10_linear_4030_70612" x1="7.67921" y1="7.98834" x2="8.33859" y2="6.84628" gradientUnits="userSpaceOnUse">
<stop stop-color="#E37A34" style="stop-color:#E37A34;stop-color:color(display-p3 0.8902 0.4784 0.2039);stop-opacity:1;"/>
<stop offset="1" stop-color="#FFC538" style="stop-color:#FFC538;stop-color:color(display-p3 1.0000 0.7725 0.2196);stop-opacity:1;"/>
</linearGradient>
<linearGradient id="paint11_linear_4030_70612" x1="9.31359" y1="7.60302" x2="9.31359" y2="3.41233" gradientUnits="userSpaceOnUse">
<stop stop-color="#F7E041" style="stop-color:#F7E041;stop-color:color(display-p3 0.9686 0.8784 0.2549);stop-opacity:1;"/>
<stop offset="1" stop-color="#FCF3B3" style="stop-color:#FCF3B3;stop-color:color(display-p3 0.9882 0.9529 0.7020);stop-opacity:1;"/>
</linearGradient>
<linearGradient id="paint12_linear_4030_70612" x1="11.7002" y1="7.52662" x2="9.22355" y2="6.09668" gradientUnits="userSpaceOnUse">
<stop stop-color="white" style="stop-color:white;stop-opacity:1;"/>
<stop offset="1" stop-color="white" stop-opacity="0" style="stop-color:none;stop-opacity:0;"/>
</linearGradient>
<linearGradient id="paint13_linear_4030_70612" x1="9.95283" y1="5.95478" x2="7.66143" y2="4.63181" gradientUnits="userSpaceOnUse">
<stop stop-color="white" style="stop-color:white;stop-opacity:1;"/>
<stop offset="1" stop-color="white" stop-opacity="0" style="stop-color:none;stop-opacity:0;"/>
</linearGradient>
<linearGradient id="paint14_linear_4030_70612" x1="9.46154" y1="4.46431" x2="10.983" y2="3.58587" gradientUnits="userSpaceOnUse">
<stop stop-color="#E37A34" style="stop-color:#E37A34;stop-color:color(display-p3 0.8902 0.4784 0.2039);stop-opacity:1;"/>
<stop offset="1" stop-color="#FFC538" style="stop-color:#FFC538;stop-color:color(display-p3 1.0000 0.7725 0.2196);stop-opacity:1;"/>
</linearGradient>
<linearGradient id="paint15_linear_4030_70612" x1="7.59684" y1="5.66453" x2="9.28421" y2="2.74194" gradientUnits="userSpaceOnUse">
<stop stop-color="#E37A34" style="stop-color:#E37A34;stop-color:color(display-p3 0.8902 0.4784 0.2039);stop-opacity:1;"/>
<stop offset="1" stop-color="#FFC538" style="stop-color:#FFC538;stop-color:color(display-p3 1.0000 0.7725 0.2196);stop-opacity:1;"/>
</linearGradient>
<clipPath id="clip0_4030_70612">
<rect width="16" height="16" fill="white" style="fill:white;fill-opacity:1;"/>
</clipPath>
</defs>
</svg>
