<svg width="16" height="16" viewBox="0 0 16 16" fill="none" xmlns="http://www.w3.org/2000/svg">
<g clip-path="url(#clip0_4030_69464)">
<path d="M8.00008 15.9987C12.4175 15.9987 15.9985 12.4177 15.9985 8.00033C15.9985 3.58295 12.4175 0.00195312 8.00008 0.00195312C3.5827 0.00195312 0.00170898 3.58295 0.00170898 8.00033C0.00170898 12.4177 3.5827 15.9987 8.00008 15.9987Z" fill="url(#paint0_radial_4030_69464)" style=""/>
<path d="M15.8256 6.34719C15.0793 2.81484 12.108 0.324125 8.68775 0.03025L7.0696 1.28634L6.61835 0.230031L7.42057 0.331094C7.43382 0.225875 7.43022 0.122469 7.41207 0.0234375C7.05863 0.0499375 6.70291 0.0997187 6.3466 0.175C5.7236 0.306625 5.13322 0.507844 4.58135 0.768125C4.82588 0.848656 4.98735 1.09313 4.95397 1.35813L4.88341 1.91819L5.81841 1.69769C5.86691 1.91434 5.72704 2.12831 5.5091 2.17072L4.75629 2.31731C4.68466 2.88575 4.16579 3.28853 3.59738 3.21694L3.38544 3.19022L3.45025 2.67559C3.20225 2.64434 2.97591 2.82009 2.94466 3.06809L2.93641 3.13369L2.80522 3.11716C2.2925 3.05256 1.82454 3.41584 1.75994 3.92856L1.18475 3.85612L1.17966 3.89644C1.13613 4.24197 1.38097 4.55738 1.72647 4.60091C1.697 4.83497 1.48335 5.00081 1.24925 4.97134L0.629723 4.89328C0.552161 5.07684 0.481348 5.26347 0.417504 5.45288C0.440348 5.461 0.464317 5.467 0.489379 5.47016C0.437254 5.88397 0.730442 6.26166 1.14425 6.31378C1.33235 6.33747 1.50404 6.20419 1.52772 6.01609L1.56775 5.69822C1.94672 5.74594 2.29263 5.47744 2.34035 5.09847L2.34925 5.02784L3.03544 5.11428C2.987 5.49884 3.25947 5.84981 3.644 5.89825L3.85591 5.92494L3.81779 6.22766L3.68485 6.24366C3.51107 6.26453 3.39357 6.43128 3.43235 6.60197L4.18972 6.44878L4.33591 5.28831C4.52838 5.31256 4.66838 5.48294 4.65488 5.6765L4.6241 6.11694C4.6025 6.42575 4.73813 6.72462 4.98479 6.91169L5.08891 6.99069L5.402 6.50922C5.74175 6.88162 6.25504 7.04337 6.74691 6.93303L6.85866 6.90797L6.939 7.24781C7.00922 7.54484 6.82616 7.84275 6.52947 7.91428L5.97707 8.04753L4.85647 7.19756C4.4676 7.5155 3.92532 7.56734 3.48322 7.32888L3.02354 7.08094L3.14219 6.34244L0.135036 6.65569C0.128754 6.78481 0.102567 6.90903 0.059473 7.02531C-0.0453707 7.87941 -0.013402 8.76503 0.174411 9.65403C0.307504 10.2839 0.511786 10.8804 0.776286 11.4375C0.871754 11.4387 0.967973 11.4351 1.06472 11.4257L1.58569 11.3745L1.78772 11.8458C2.06729 11.8472 2.29238 12.0758 2.28935 12.3553L2.28032 13.1842L2.64497 13.4607L2.74319 14.0291C3.76607 14.9197 5.00766 15.5448 6.35047 15.8286L6.64254 15.6018L6.86272 13.8536L8.91269 12.2623C9.12632 12.0965 9.03282 11.7552 8.76447 11.7213L8.256 11.6573C7.827 11.6033 7.46363 11.3151 7.31332 10.9096L6.57469 8.91753C6.46988 8.63484 6.60638 8.31975 6.88429 8.20278L7.79507 10.4191L7.72263 10.9943C8.00504 11.2085 8.38835 11.2324 8.69522 11.055L10.5733 9.96947L10.5226 9.89972C10.2174 9.47984 9.63007 9.38603 9.20929 9.69003L8.95132 9.35769C8.65907 8.98119 8.72735 8.43903 9.10385 8.14681L9.35579 8.47138C9.80041 9.04413 10.5067 9.35031 11.2287 9.28322L11.9762 10.2461L12.4984 10.3119L12.4098 11.0157L12.8529 11.5867L12.7014 12.79C13.1821 12.8506 13.6208 12.51 13.6813 12.0293L13.7624 11.386C14.1803 11.4387 14.5619 11.1425 14.6145 10.7245L14.645 10.4824L15.3716 10.5739L15.3525 10.7253C15.3364 10.8533 15.3453 10.9787 15.375 11.0967C15.9852 9.64675 16.1754 8.00281 15.8256 6.34719Z" fill="url(#paint1_radial_4030_69464)" style=""/>
<path d="M4.33452 1.88061L4.46783 0.822266C3.88364 1.1092 3.34436 1.46342 2.85742 1.87283C3.06198 1.93498 3.28767 1.92855 3.49752 1.84027L3.54364 1.82086L3.44958 2.56758C3.88364 2.62223 4.27986 2.3147 4.33452 1.88061Z" fill="url(#paint2_radial_4030_69464)" style=""/>
<path d="M7.73907 15.843C7.54669 15.7711 7.34879 15.8304 7.22241 15.962C7.58832 15.9977 7.95957 16.0078 8.33397 15.9917C8.37329 15.802 8.36438 15.6011 8.29929 15.4082L7.73907 15.843Z" fill="url(#paint3_radial_4030_69464)" style=""/>
<path d="M13.1458 13.1068L13.2736 13.2716C13.393 13.4253 13.6144 13.4532 13.7681 13.3338L13.5741 13.0839L13.7218 12.9693C13.83 12.8852 13.8496 12.7293 13.7656 12.6211L13.1458 13.1068Z" fill="url(#paint4_radial_4030_69464)" style=""/>
<path d="M3.33494 12.3773C3.3215 12.292 3.37963 12.212 3.46494 12.1986C3.55022 12.1851 3.62994 12.2433 3.64369 12.3286C3.65681 12.4139 3.59872 12.4939 3.51338 12.5073C3.50525 12.5086 3.49716 12.5092 3.489 12.5092C3.41334 12.5092 3.34709 12.4542 3.33494 12.3773ZM3.96494 12.2705C3.94775 12.1858 4.00209 12.1033 4.0865 12.0858C4.17119 12.0686 4.25372 12.123 4.27119 12.2073C4.28838 12.292 4.23403 12.3745 4.14935 12.392C4.13869 12.3942 4.12838 12.3951 4.11775 12.3951C4.04525 12.3951 3.98025 12.3442 3.96494 12.2705ZM4.58928 12.1345C4.56803 12.0508 4.61866 11.9658 4.70209 11.9445C4.78584 11.9233 4.87084 11.9736 4.89209 12.0573C4.91334 12.1408 4.86303 12.2261 4.77928 12.2473C4.7665 12.2505 4.75334 12.252 4.74084 12.252C4.67088 12.252 4.60741 12.2051 4.58928 12.1345ZM5.20681 11.9692C5.18147 11.8867 5.22806 11.7995 5.31053 11.7742C5.39306 11.7489 5.48053 11.7955 5.50553 11.878C5.53088 11.9605 5.48428 12.0476 5.40178 12.073C5.3865 12.0776 5.37116 12.0798 5.35616 12.0798C5.28931 12.0798 5.22744 12.0364 5.20681 11.9692ZM5.81556 11.7751C5.7865 11.6939 5.82869 11.6045 5.91025 11.5755C5.9915 11.5461 6.08088 11.5886 6.10994 11.6698C6.13903 11.7511 6.09681 11.8405 6.01556 11.8695C5.99803 11.8758 5.98025 11.8786 5.96275 11.8786C5.89869 11.8786 5.83869 11.8389 5.81556 11.7751ZM6.41494 11.5523C6.38178 11.4726 6.41991 11.3814 6.49963 11.3486C6.57963 11.3155 6.67084 11.3536 6.70366 11.4333C6.73681 11.513 6.69866 11.6045 6.61897 11.6373C6.59928 11.6455 6.57928 11.6492 6.55928 11.6492C6.49803 11.6492 6.43959 11.6126 6.41494 11.5523ZM7.00275 11.3017C6.96619 11.2236 6.99994 11.1308 7.07806 11.0942C7.1565 11.0573 7.24928 11.0911 7.28584 11.1692C7.32241 11.2476 7.28869 11.3405 7.21056 11.377C7.18928 11.387 7.16681 11.3917 7.14463 11.3917C7.08588 11.3917 7.02928 11.3586 7.00275 11.3017ZM7.57866 11.0239C7.53834 10.9476 7.56772 10.8533 7.64431 10.813C7.72053 10.773 7.81525 10.8023 7.85525 10.8786C7.89522 10.9551 7.86619 11.0495 7.78959 11.0898C7.7665 11.1017 7.74147 11.1076 7.71713 11.1076C7.66084 11.1076 7.6065 11.0773 7.57866 11.0239ZM8.14116 10.7201C8.09744 10.6455 8.12272 10.5498 8.19709 10.5064C8.27147 10.4626 8.36709 10.4876 8.41084 10.5623C8.45431 10.6367 8.42931 10.7323 8.35491 10.7761C8.32991 10.7905 8.30272 10.7973 8.27616 10.7973C8.22244 10.7973 8.17025 10.7698 8.14116 10.7201ZM8.68931 10.3908C8.64244 10.3183 8.66306 10.2217 8.73556 10.1748C8.80803 10.128 8.90494 10.1489 8.95181 10.2214C8.99838 10.2939 8.97775 10.3905 8.90525 10.4373C8.879 10.4542 8.84963 10.4623 8.82056 10.4623C8.76931 10.4623 8.71928 10.437 8.68931 10.3908ZM9.22244 10.0376C9.17241 9.96733 9.189 9.86983 9.25931 9.81983C9.32963 9.76983 9.42713 9.78639 9.47713 9.8567C9.52716 9.92702 9.51056 10.0245 9.44025 10.0745C9.41275 10.0942 9.38119 10.1036 9.34994 10.1036C9.30088 10.1036 9.25275 10.0808 9.22244 10.0376ZM9.73963 9.6617C9.6865 9.59358 9.699 9.49546 9.76713 9.44233C9.83525 9.38952 9.93338 9.4017 9.9865 9.46983C10.0393 9.53827 10.0268 9.63639 9.959 9.68921C9.93025 9.71139 9.8965 9.72202 9.86309 9.72202C9.8165 9.72202 9.77022 9.70139 9.73963 9.6617ZM10.2402 9.26389C10.1846 9.19795 10.1927 9.09952 10.2587 9.04389C10.3246 8.98796 10.4231 8.99608 10.479 9.06202C10.5346 9.12795 10.5265 9.2267 10.4606 9.28233C10.4312 9.30702 10.3952 9.31921 10.3596 9.31921C10.3153 9.31921 10.2712 9.30045 10.2402 9.26389ZM10.7243 8.84577C10.6659 8.78202 10.6699 8.68327 10.7337 8.62483C10.7971 8.56639 10.8959 8.57077 10.9543 8.6342C11.0128 8.69764 11.0083 8.7967 10.9449 8.85514C10.8815 8.91358 10.9449 8.85514 10.9449 8.85483C10.9149 8.88264 10.8771 8.89608 10.8393 8.89608C10.7971 8.89608 10.7553 8.8792 10.7243 8.84577ZM11.1908 8.40795C11.1299 8.3467 11.1299 8.24795 11.1912 8.18702C11.2521 8.12608 11.3512 8.12639 11.4121 8.18733C11.473 8.24858 11.4727 8.34733 11.4118 8.40827C11.3812 8.43858 11.3412 8.45389 11.3015 8.45389C11.2612 8.45389 11.2212 8.43858 11.1908 8.40795ZM11.6393 7.9517C11.5759 7.89327 11.5721 7.7942 11.6308 7.73108C11.6893 7.66764 11.7883 7.66389 11.8518 7.72264C11.9149 7.78139 11.9187 7.88014 11.8599 7.94327C11.8293 7.9767 11.7874 7.99327 11.7455 7.99327C11.7074 7.99327 11.6693 7.97952 11.6393 7.9517ZM12.0693 7.47795C12.0037 7.42202 11.9962 7.32327 12.0521 7.25764C12.1081 7.19202 12.2068 7.18452 12.2724 7.24045C12.3381 7.2967 12.3456 7.39545 12.2896 7.46077C12.2587 7.49702 12.2149 7.51545 12.1709 7.51545C12.1349 7.51545 12.0987 7.50327 12.0693 7.47795ZM12.4803 6.98764C12.4124 6.9342 12.4005 6.83608 12.454 6.76795C12.5074 6.70045 12.6058 6.68858 12.6733 6.74202C12.7412 6.79545 12.753 6.89358 12.6996 6.96139C12.6687 7.00077 12.623 7.02108 12.5768 7.02108C12.5428 7.02108 12.5087 7.01014 12.4803 6.98764ZM12.8709 6.48045C12.8009 6.43014 12.7849 6.33264 12.8352 6.26233C12.8858 6.19264 12.9837 6.1767 13.0537 6.22733C13.1233 6.27764 13.1393 6.37514 13.089 6.44514C13.0584 6.48764 13.0105 6.51014 12.9621 6.51014C12.9302 6.51014 12.8984 6.50045 12.8709 6.48045ZM13.2393 5.95702C13.1668 5.90983 13.1465 5.81327 13.1937 5.74077C13.2409 5.66858 13.3374 5.64827 13.4099 5.69514C13.4821 5.74233 13.5024 5.8392 13.4556 5.91139C13.4256 5.95733 13.3755 5.98233 13.3243 5.98233C13.2953 5.98233 13.2656 5.9742 13.2393 5.95702Z" fill="white" style="fill:white;fill-opacity:1;"/>
<path d="M2.85727 12.5934C2.94347 12.5934 3.01336 12.5236 3.01336 12.4373C3.01336 12.3511 2.94347 12.2812 2.85727 12.2812C2.77106 12.2812 2.70117 12.3511 2.70117 12.4373C2.70117 12.5236 2.77106 12.5934 2.85727 12.5934Z" fill="white" style="fill:white;fill-opacity:1;"/>
<path d="M13.6558 5.43523C13.7421 5.43523 13.8119 5.36535 13.8119 5.27914C13.8119 5.19293 13.7421 5.12305 13.6558 5.12305C13.5696 5.12305 13.4998 5.19293 13.4998 5.27914C13.4998 5.36535 13.5696 5.43523 13.6558 5.43523Z" fill="white" style="fill:white;fill-opacity:1;"/>
<path d="M4.42339 11.0049C4.66927 10.6557 4.80186 10.2209 4.76598 9.75371C4.69367 8.81178 3.92252 8.05249 2.97961 7.99403C1.86714 7.92503 0.943359 8.80687 0.943359 9.90443C0.943359 10.3142 1.07252 10.6935 1.29177 11.0049L2.29892 12.561C2.56114 12.9662 3.15395 12.9662 3.4162 12.561L4.42339 11.0049Z" fill="url(#paint5_linear_4030_69464)" style=""/>
<path d="M2.85778 11.1311C3.53417 11.1311 4.08249 10.5828 4.08249 9.90636C4.08249 9.22997 3.53417 8.68164 2.85778 8.68164C2.18138 8.68164 1.63306 9.22997 1.63306 9.90636C1.63306 10.5828 2.18138 11.1311 2.85778 11.1311Z" fill="white" style="fill:white;fill-opacity:1;"/>
<path d="M15.0477 3.64553C15.2935 3.29631 15.4261 2.86156 15.3903 2.39434C15.3179 1.4524 14.5468 0.693119 13.6039 0.634651C12.4914 0.565651 11.5676 1.44749 11.5676 2.54506C11.5676 2.95481 11.6968 3.33415 11.916 3.64553L12.9232 5.20162C13.1854 5.60678 13.7782 5.60678 14.0405 5.20162L15.0477 3.64553Z" fill="url(#paint6_linear_4030_69464)" style=""/>
<path d="M13.4815 3.76969C14.1579 3.76969 14.7062 3.22138 14.7062 2.545C14.7062 1.86862 14.1579 1.32031 13.4815 1.32031C12.8051 1.32031 12.2568 1.86862 12.2568 2.545C12.2568 3.22138 12.8051 3.76969 13.4815 3.76969Z" fill="white" style="fill:white;fill-opacity:1;"/>
</g>
<defs>
<radialGradient id="paint0_radial_4030_69464" cx="0" cy="0" r="1" gradientUnits="userSpaceOnUse" gradientTransform="translate(9.08897 4.81844) rotate(-11.9506) scale(7.38169)">
<stop stop-color="#79D3FE" style="stop-color:#79D3FE;stop-color:color(display-p3 0.4745 0.8275 0.9961);stop-opacity:1;"/>
<stop offset="1" stop-color="#2F97F7" style="stop-color:#2F97F7;stop-color:color(display-p3 0.1843 0.5922 0.9686);stop-opacity:1;"/>
</radialGradient>
<radialGradient id="paint1_radial_4030_69464" cx="0" cy="0" r="1" gradientUnits="userSpaceOnUse" gradientTransform="translate(8.74104 4.8711) scale(18.6647)">
<stop stop-color="#06DAAE" style="stop-color:#06DAAE;stop-color:color(display-p3 0.0235 0.8549 0.6824);stop-opacity:1;"/>
<stop offset="0.2214" stop-color="#0CCDA8" style="stop-color:#0CCDA8;stop-color:color(display-p3 0.0471 0.8039 0.6588);stop-opacity:1;"/>
<stop offset="0.6285" stop-color="#1DAB9A" style="stop-color:#1DAB9A;stop-color:color(display-p3 0.1137 0.6706 0.6039);stop-opacity:1;"/>
<stop offset="1" stop-color="#2F878A" style="stop-color:#2F878A;stop-color:color(display-p3 0.1843 0.5294 0.5412);stop-opacity:1;"/>
</radialGradient>
<radialGradient id="paint2_radial_4030_69464" cx="0" cy="0" r="1" gradientUnits="userSpaceOnUse" gradientTransform="translate(3.7372 1.35952) scale(2.0125)">
<stop stop-color="#06DAAE" style="stop-color:#06DAAE;stop-color:color(display-p3 0.0235 0.8549 0.6824);stop-opacity:1;"/>
<stop offset="0.2214" stop-color="#0CCDA8" style="stop-color:#0CCDA8;stop-color:color(display-p3 0.0471 0.8039 0.6588);stop-opacity:1;"/>
<stop offset="0.6285" stop-color="#1DAB9A" style="stop-color:#1DAB9A;stop-color:color(display-p3 0.1137 0.6706 0.6039);stop-opacity:1;"/>
<stop offset="1" stop-color="#2F878A" style="stop-color:#2F878A;stop-color:color(display-p3 0.1843 0.5294 0.5412);stop-opacity:1;"/>
</radialGradient>
<radialGradient id="paint3_radial_4030_69464" cx="0" cy="0" r="1" gradientUnits="userSpaceOnUse" gradientTransform="translate(9.05004 12.1306) scale(7.14078 7.14079)">
<stop stop-color="#06DAAE" style="stop-color:#06DAAE;stop-color:color(display-p3 0.0235 0.8549 0.6824);stop-opacity:1;"/>
<stop offset="0.2214" stop-color="#0CCDA8" style="stop-color:#0CCDA8;stop-color:color(display-p3 0.0471 0.8039 0.6588);stop-opacity:1;"/>
<stop offset="0.6285" stop-color="#1DAB9A" style="stop-color:#1DAB9A;stop-color:color(display-p3 0.1137 0.6706 0.6039);stop-opacity:1;"/>
<stop offset="1" stop-color="#2F878A" style="stop-color:#2F878A;stop-color:color(display-p3 0.1843 0.5294 0.5412);stop-opacity:1;"/>
</radialGradient>
<radialGradient id="paint4_radial_4030_69464" cx="0" cy="0" r="1" gradientUnits="userSpaceOnUse" gradientTransform="translate(9.50616 4.24384) scale(24.034 24.034)">
<stop stop-color="#06DAAE" style="stop-color:#06DAAE;stop-color:color(display-p3 0.0235 0.8549 0.6824);stop-opacity:1;"/>
<stop offset="0.2214" stop-color="#0CCDA8" style="stop-color:#0CCDA8;stop-color:color(display-p3 0.0471 0.8039 0.6588);stop-opacity:1;"/>
<stop offset="0.6285" stop-color="#1DAB9A" style="stop-color:#1DAB9A;stop-color:color(display-p3 0.1137 0.6706 0.6039);stop-opacity:1;"/>
<stop offset="1" stop-color="#2F878A" style="stop-color:#2F878A;stop-color:color(display-p3 0.1843 0.5294 0.5412);stop-opacity:1;"/>
</radialGradient>
<linearGradient id="paint5_linear_4030_69464" x1="2.85929" y1="14.152" x2="6.00286" y2="6.89038" gradientUnits="userSpaceOnUse">
<stop stop-color="#AB2C37" style="stop-color:#AB2C37;stop-color:color(display-p3 0.6706 0.1725 0.2157);stop-opacity:1;"/>
<stop offset="1" stop-color="#FF7A85" style="stop-color:#FF7A85;stop-color:color(display-p3 1.0000 0.4784 0.5216);stop-opacity:1;"/>
</linearGradient>
<linearGradient id="paint6_linear_4030_69464" x1="13.4863" y1="6.79261" x2="16.6299" y2="-0.469028" gradientUnits="userSpaceOnUse">
<stop stop-color="#AB2C37" style="stop-color:#AB2C37;stop-color:color(display-p3 0.6706 0.1725 0.2157);stop-opacity:1;"/>
<stop offset="1" stop-color="#FF7A85" style="stop-color:#FF7A85;stop-color:color(display-p3 1.0000 0.4784 0.5216);stop-opacity:1;"/>
</linearGradient>
<clipPath id="clip0_4030_69464">
<rect width="16" height="16" fill="white" style="fill:white;fill-opacity:1;"/>
</clipPath>
</defs>
</svg>
