<svg width="16" height="16" viewBox="0 0 16 16" fill="none" xmlns="http://www.w3.org/2000/svg">
<g clip-path="url(#clip0_4030_70354)">
<path d="M14.3175 6.72157L12.9406 5.92372C12.9387 5.92263 12.9368 5.9215 12.9349 5.92041L12.9332 5.91941L12.9331 5.91944C12.5671 5.71038 12.0906 5.73122 11.5695 6.03207L5.714 9.41275C4.55947 10.0793 3.62354 11.8676 3.62354 13.407C3.62354 14.2154 3.88179 14.7943 4.29416 15.0653L4.29407 15.0654L5.66269 15.8578L14.3175 6.72157Z" fill="url(#paint0_linear_4030_70354)" style=""/>
<path d="M12.8233 13.7048L11.5039 12.943L11.865 12.8223L12.8233 13.7048Z" fill="url(#paint1_linear_4030_70354)" style=""/>
<path d="M12.8889 6.79384L7.03334 10.1745C5.87881 10.8411 4.94287 12.6294 4.94287 14.1688C4.94287 15.7082 5.87881 16.4157 7.03334 15.7492L11.8491 12.9687L12.8232 13.7052V12.4064L12.8889 12.3685C14.0434 11.7019 14.9794 9.91359 14.9794 8.37422C14.9794 6.83481 14.0434 6.12725 12.8889 6.79384Z" fill="url(#paint2_linear_4030_70354)" style=""/>
<path d="M8.35454 11.7261L8.06326 11.5585C7.92442 11.4811 7.74457 11.4896 7.54792 11.6031C7.10845 11.8569 6.7522 12.5375 6.7522 13.1235C6.7522 13.4552 6.86638 13.6853 7.04517 13.7766L7.3247 13.9384L8.35454 11.7261Z" fill="url(#paint3_linear_4030_70354)" style=""/>
<path d="M8.63636 12.3728C8.63636 11.7869 8.28011 11.5175 7.84064 11.7713C7.40117 12.025 7.04492 12.7057 7.04492 13.2916C7.04492 13.8776 7.40117 14.1469 7.84064 13.8932C8.28011 13.6395 8.63636 12.9588 8.63636 12.3728Z" fill="url(#paint4_linear_4030_70354)" style=""/>
<path d="M10.7747 10.3315L10.4834 10.164C10.3446 10.0865 10.1647 10.0951 9.96808 10.2086C9.52861 10.4623 9.17236 11.143 9.17236 11.729C9.17236 12.0606 9.28658 12.2907 9.46533 12.3821L9.74486 12.5439L10.7747 10.3315Z" fill="url(#paint5_linear_4030_70354)" style=""/>
<path d="M11.0565 10.9783C11.0565 10.3924 10.7003 10.123 10.2608 10.3767C9.82134 10.6305 9.46509 11.3111 9.46509 11.8971C9.46509 12.4831 9.82134 12.7524 10.2608 12.4986C10.7002 12.245 11.0565 11.5643 11.0565 10.9783Z" fill="url(#paint6_linear_4030_70354)" style=""/>
<path d="M13.1797 8.94092L12.8885 8.77332C12.7496 8.69592 12.5698 8.70445 12.3731 8.81798C11.9336 9.0717 11.5774 9.75239 11.5774 10.3384C11.5774 10.67 11.6916 10.9001 11.8704 10.9915L12.1499 11.1532L13.1797 8.94092Z" fill="url(#paint7_linear_4030_70354)" style=""/>
<path d="M13.4616 9.58767C13.4616 9.00173 13.1053 8.73239 12.6658 8.98611C12.2264 9.23983 11.8701 9.92051 11.8701 10.5065C11.8701 11.0925 12.2264 11.3618 12.6658 11.108C13.1053 10.8543 13.4616 10.1736 13.4616 9.58767Z" fill="url(#paint8_linear_4030_70354)" style=""/>
<path d="M11.6196 0.883334L10.3475 0.148272C9.97919 -0.071416 9.49597 -0.0548222 8.96675 0.250772L3.11122 3.63143C1.95669 4.29799 1.02075 6.08627 1.02075 7.62568C1.02075 8.48499 1.31247 9.08493 1.77097 9.33149L1.77085 9.33162L3.10888 10.1031L11.6196 0.883334Z" fill="url(#paint9_linear_4030_70354)" style=""/>
<path d="M3.17676 10.4667L4.49613 11.2286L4.6337 9.65231L3.17676 9.16797V10.4667Z" fill="url(#paint10_linear_4030_70354)" style=""/>
<path d="M10.2861 1.01257L4.43056 4.39326C3.27603 5.05982 2.34009 6.84811 2.34009 8.38751C2.34009 9.92689 3.27603 10.6344 4.43056 9.96789L4.49624 9.92998V11.2288L5.47034 9.36757L10.2861 6.5872C11.4406 5.92064 12.3766 4.13236 12.3766 2.59295C12.3766 1.05357 11.4406 0.346012 10.2861 1.01257Z" fill="url(#paint11_linear_4030_70354)" style=""/>
<path d="M5.74761 5.94873L5.45633 5.78114C5.31748 5.70373 5.13764 5.71226 4.94098 5.82579C4.50151 6.07951 4.14526 6.7602 4.14526 7.34617C4.14526 7.67782 4.25945 7.90792 4.43823 7.99926L4.71776 8.16104L5.74761 5.94873Z" fill="url(#paint12_linear_4030_70354)" style=""/>
<path d="M6.02943 6.59548C6.02943 6.00954 5.67318 5.7402 5.23371 5.99392C4.79424 6.24764 4.43799 6.92833 4.43799 7.51429C4.43799 8.10026 4.79424 8.36958 5.23371 8.11583C5.67318 7.86214 6.02943 7.18145 6.02943 6.59548Z" fill="url(#paint13_linear_4030_70354)" style=""/>
<path d="M8.16777 4.5542L7.87649 4.38661C7.73765 4.3092 7.5578 4.31773 7.36115 4.43126C6.92168 4.68498 6.56543 5.36567 6.56543 5.95164C6.56543 6.28329 6.67965 6.51339 6.8584 6.60473L7.13793 6.76651L8.16777 4.5542Z" fill="url(#paint14_linear_4030_70354)" style=""/>
<path d="M8.44959 5.20095C8.44959 4.61501 8.09334 4.34567 7.65387 4.59939C7.2144 4.85311 6.85815 5.53379 6.85815 6.11976C6.85815 6.70573 7.2144 6.97504 7.65387 6.72133C8.09334 6.46758 8.44959 5.78689 8.44959 5.20095Z" fill="url(#paint15_linear_4030_70354)" style=""/>
<path d="M10.5728 3.16361L10.2815 2.99598C10.1427 2.91858 9.96283 2.92711 9.76618 3.04064C9.32671 3.29436 8.97046 3.97504 8.97046 4.56101C8.97046 4.89267 9.08465 5.12276 9.26343 5.21411L9.54296 5.37589L10.5728 3.16361Z" fill="url(#paint16_linear_4030_70354)" style=""/>
<path d="M10.8546 3.81033C10.8546 3.22439 10.4984 2.95504 10.0589 3.20876C9.61943 3.46248 9.26318 4.14317 9.26318 4.72914C9.26318 5.31511 9.61943 5.58442 10.0589 5.3307C10.4984 5.07698 10.8546 4.39629 10.8546 3.81033Z" fill="url(#paint17_linear_4030_70354)" style=""/>
</g>
<defs>
<linearGradient id="paint0_linear_4030_70354" x1="7.136" y1="15.2091" x2="8.51285" y2="11.0785" gradientUnits="userSpaceOnUse">
<stop offset="0.014" stop-color="#B096ED" style="stop-color:#B096ED;stop-color:color(display-p3 0.6902 0.5882 0.9294);stop-opacity:1;"/>
<stop offset="0.3465" stop-color="#B39AED" style="stop-color:#B39AED;stop-color:color(display-p3 0.7020 0.6039 0.9294);stop-opacity:1;"/>
<stop offset="0.6686" stop-color="#BBA6ED" style="stop-color:#BBA6ED;stop-color:color(display-p3 0.7333 0.6510 0.9294);stop-opacity:1;"/>
<stop offset="0.9855" stop-color="#C8B9EC" style="stop-color:#C8B9EC;stop-color:color(display-p3 0.7843 0.7255 0.9255);stop-opacity:1;"/>
<stop offset="1" stop-color="#C9BAEC" style="stop-color:#C9BAEC;stop-color:color(display-p3 0.7882 0.7294 0.9255);stop-opacity:1;"/>
</linearGradient>
<linearGradient id="paint1_linear_4030_70354" x1="11.6612" y1="12.8277" x2="12.6722" y2="13.8261" gradientUnits="userSpaceOnUse">
<stop stop-color="#B096ED" style="stop-color:#B096ED;stop-color:color(display-p3 0.6902 0.5882 0.9294);stop-opacity:1;"/>
<stop offset="0.2221" stop-color="#C1AEED" style="stop-color:#C1AEED;stop-color:color(display-p3 0.7569 0.6824 0.9294);stop-opacity:1;"/>
<stop offset="0.4712" stop-color="#CEC1EC" style="stop-color:#CEC1EC;stop-color:color(display-p3 0.8078 0.7569 0.9255);stop-opacity:1;"/>
<stop offset="0.7245" stop-color="#D6CDEC" style="stop-color:#D6CDEC;stop-color:color(display-p3 0.8392 0.8039 0.9255);stop-opacity:1;"/>
<stop offset="0.986" stop-color="#D9D1EC" style="stop-color:#D9D1EC;stop-color:color(display-p3 0.8510 0.8196 0.9255);stop-opacity:1;"/>
</linearGradient>
<linearGradient id="paint2_linear_4030_70354" x1="12.139" y1="18.1779" x2="8.44865" y2="6.47512" gradientUnits="userSpaceOnUse">
<stop stop-color="#B096ED" style="stop-color:#B096ED;stop-color:color(display-p3 0.6902 0.5882 0.9294);stop-opacity:1;"/>
<stop offset="0.0014" stop-color="#B096ED" style="stop-color:#B096ED;stop-color:color(display-p3 0.6902 0.5882 0.9294);stop-opacity:1;"/>
<stop offset="0.299" stop-color="#CDBCF3" style="stop-color:#CDBCF3;stop-color:color(display-p3 0.8039 0.7373 0.9529);stop-opacity:1;"/>
<stop offset="0.5742" stop-color="#E2D7F7" style="stop-color:#E2D7F7;stop-color:color(display-p3 0.8863 0.8431 0.9686);stop-opacity:1;"/>
<stop offset="0.8165" stop-color="#EFE8F9" style="stop-color:#EFE8F9;stop-color:color(display-p3 0.9373 0.9098 0.9765);stop-opacity:1;"/>
<stop offset="1" stop-color="#F3EEFA" style="stop-color:#F3EEFA;stop-color:color(display-p3 0.9529 0.9333 0.9804);stop-opacity:1;"/>
</linearGradient>
<linearGradient id="paint3_linear_4030_70354" x1="7.28773" y1="12.8569" x2="8.04998" y2="11.5365" gradientUnits="userSpaceOnUse">
<stop stop-color="#45356D" style="stop-color:#45356D;stop-color:color(display-p3 0.2706 0.2078 0.4275);stop-opacity:1;"/>
<stop offset="0.1612" stop-color="#544081" style="stop-color:#544081;stop-color:color(display-p3 0.3294 0.2510 0.5059);stop-opacity:1;"/>
<stop offset="1" stop-color="#7E62C0" style="stop-color:#7E62C0;stop-color:color(display-p3 0.4941 0.3843 0.7529);stop-opacity:1;"/>
</linearGradient>
<linearGradient id="paint4_linear_4030_70354" x1="7.84063" y1="13.9879" x2="6.81714" y2="12.2152" gradientUnits="userSpaceOnUse">
<stop stop-color="#45356D" style="stop-color:#45356D;stop-color:color(display-p3 0.2706 0.2078 0.4275);stop-opacity:1;"/>
<stop offset="0.3855" stop-color="#544081" style="stop-color:#544081;stop-color:color(display-p3 0.3294 0.2510 0.5059);stop-opacity:1;"/>
<stop offset="1" stop-color="#7E62C0" style="stop-color:#7E62C0;stop-color:color(display-p3 0.4941 0.3843 0.7529);stop-opacity:1;"/>
</linearGradient>
<linearGradient id="paint5_linear_4030_70354" x1="9.70789" y1="11.4623" x2="10.4701" y2="10.142" gradientUnits="userSpaceOnUse">
<stop stop-color="#45356D" style="stop-color:#45356D;stop-color:color(display-p3 0.2706 0.2078 0.4275);stop-opacity:1;"/>
<stop offset="0.1612" stop-color="#544081" style="stop-color:#544081;stop-color:color(display-p3 0.3294 0.2510 0.5059);stop-opacity:1;"/>
<stop offset="1" stop-color="#7E62C0" style="stop-color:#7E62C0;stop-color:color(display-p3 0.4941 0.3843 0.7529);stop-opacity:1;"/>
</linearGradient>
<linearGradient id="paint6_linear_4030_70354" x1="10.2608" y1="12.5933" x2="9.23729" y2="10.8207" gradientUnits="userSpaceOnUse">
<stop stop-color="#45356D" style="stop-color:#45356D;stop-color:color(display-p3 0.2706 0.2078 0.4275);stop-opacity:1;"/>
<stop offset="0.3855" stop-color="#544081" style="stop-color:#544081;stop-color:color(display-p3 0.3294 0.2510 0.5059);stop-opacity:1;"/>
<stop offset="1" stop-color="#7E62C0" style="stop-color:#7E62C0;stop-color:color(display-p3 0.4941 0.3843 0.7529);stop-opacity:1;"/>
</linearGradient>
<linearGradient id="paint7_linear_4030_70354" x1="12.1129" y1="10.0717" x2="12.8752" y2="8.75139" gradientUnits="userSpaceOnUse">
<stop stop-color="#45356D" style="stop-color:#45356D;stop-color:color(display-p3 0.2706 0.2078 0.4275);stop-opacity:1;"/>
<stop offset="0.1612" stop-color="#544081" style="stop-color:#544081;stop-color:color(display-p3 0.3294 0.2510 0.5059);stop-opacity:1;"/>
<stop offset="1" stop-color="#7E62C0" style="stop-color:#7E62C0;stop-color:color(display-p3 0.4941 0.3843 0.7529);stop-opacity:1;"/>
</linearGradient>
<linearGradient id="paint8_linear_4030_70354" x1="12.6658" y1="11.2027" x2="11.6424" y2="9.43004" gradientUnits="userSpaceOnUse">
<stop stop-color="#45356D" style="stop-color:#45356D;stop-color:color(display-p3 0.2706 0.2078 0.4275);stop-opacity:1;"/>
<stop offset="0.3855" stop-color="#544081" style="stop-color:#544081;stop-color:color(display-p3 0.3294 0.2510 0.5059);stop-opacity:1;"/>
<stop offset="1" stop-color="#7E62C0" style="stop-color:#7E62C0;stop-color:color(display-p3 0.4941 0.3843 0.7529);stop-opacity:1;"/>
</linearGradient>
<linearGradient id="paint9_linear_4030_70354" x1="3.50078" y1="8.50105" x2="5.20216" y2="5.55418" gradientUnits="userSpaceOnUse">
<stop stop-color="#B096ED" style="stop-color:#B096ED;stop-color:color(display-p3 0.6902 0.5882 0.9294);stop-opacity:1;"/>
<stop offset="0.0014" stop-color="#B096ED" style="stop-color:#B096ED;stop-color:color(display-p3 0.6902 0.5882 0.9294);stop-opacity:1;"/>
<stop offset="0.299" stop-color="#CDBCF3" style="stop-color:#CDBCF3;stop-color:color(display-p3 0.8039 0.7373 0.9529);stop-opacity:1;"/>
<stop offset="0.5742" stop-color="#E2D7F7" style="stop-color:#E2D7F7;stop-color:color(display-p3 0.8863 0.8431 0.9686);stop-opacity:1;"/>
<stop offset="0.8165" stop-color="#EFE8F9" style="stop-color:#EFE8F9;stop-color:color(display-p3 0.9373 0.9098 0.9765);stop-opacity:1;"/>
<stop offset="1" stop-color="#F3EEFA" style="stop-color:#F3EEFA;stop-color:color(display-p3 0.9529 0.9333 0.9804);stop-opacity:1;"/>
</linearGradient>
<linearGradient id="paint10_linear_4030_70354" x1="3.86713" y1="9.87381" x2="3.6902" y2="11.7443" gradientUnits="userSpaceOnUse">
<stop stop-color="#B096ED" style="stop-color:#B096ED;stop-color:color(display-p3 0.6902 0.5882 0.9294);stop-opacity:1;"/>
<stop offset="0.0014" stop-color="#B096ED" style="stop-color:#B096ED;stop-color:color(display-p3 0.6902 0.5882 0.9294);stop-opacity:1;"/>
<stop offset="0.299" stop-color="#CDBCF3" style="stop-color:#CDBCF3;stop-color:color(display-p3 0.8039 0.7373 0.9529);stop-opacity:1;"/>
<stop offset="0.5742" stop-color="#E2D7F7" style="stop-color:#E2D7F7;stop-color:color(display-p3 0.8863 0.8431 0.9686);stop-opacity:1;"/>
<stop offset="0.8165" stop-color="#EFE8F9" style="stop-color:#EFE8F9;stop-color:color(display-p3 0.9373 0.9098 0.9765);stop-opacity:1;"/>
<stop offset="1" stop-color="#F3EEFA" style="stop-color:#F3EEFA;stop-color:color(display-p3 0.9529 0.9333 0.9804);stop-opacity:1;"/>
</linearGradient>
<linearGradient id="paint11_linear_4030_70354" x1="9.20878" y1="14.6962" x2="6.17562" y2="-0.393675" gradientUnits="userSpaceOnUse">
<stop stop-color="#B096ED" style="stop-color:#B096ED;stop-color:color(display-p3 0.6902 0.5882 0.9294);stop-opacity:1;"/>
<stop offset="0.0014" stop-color="#B096ED" style="stop-color:#B096ED;stop-color:color(display-p3 0.6902 0.5882 0.9294);stop-opacity:1;"/>
<stop offset="0.299" stop-color="#CDBCF3" style="stop-color:#CDBCF3;stop-color:color(display-p3 0.8039 0.7373 0.9529);stop-opacity:1;"/>
<stop offset="0.5742" stop-color="#E2D7F7" style="stop-color:#E2D7F7;stop-color:color(display-p3 0.8863 0.8431 0.9686);stop-opacity:1;"/>
<stop offset="0.8165" stop-color="#EFE8F9" style="stop-color:#EFE8F9;stop-color:color(display-p3 0.9373 0.9098 0.9765);stop-opacity:1;"/>
<stop offset="1" stop-color="#F3EEFA" style="stop-color:#F3EEFA;stop-color:color(display-p3 0.9529 0.9333 0.9804);stop-opacity:1;"/>
</linearGradient>
<linearGradient id="paint12_linear_4030_70354" x1="4.68076" y1="7.07948" x2="5.44305" y2="5.7592" gradientUnits="userSpaceOnUse">
<stop stop-color="#45356D" style="stop-color:#45356D;stop-color:color(display-p3 0.2706 0.2078 0.4275);stop-opacity:1;"/>
<stop offset="0.1612" stop-color="#544081" style="stop-color:#544081;stop-color:color(display-p3 0.3294 0.2510 0.5059);stop-opacity:1;"/>
<stop offset="1" stop-color="#7E62C0" style="stop-color:#7E62C0;stop-color:color(display-p3 0.4941 0.3843 0.7529);stop-opacity:1;"/>
</linearGradient>
<linearGradient id="paint13_linear_4030_70354" x1="5.23369" y1="8.20867" x2="4.21021" y2="6.43599" gradientUnits="userSpaceOnUse">
<stop stop-color="#45356D" style="stop-color:#45356D;stop-color:color(display-p3 0.2706 0.2078 0.4275);stop-opacity:1;"/>
<stop offset="0.3855" stop-color="#544081" style="stop-color:#544081;stop-color:color(display-p3 0.3294 0.2510 0.5059);stop-opacity:1;"/>
<stop offset="1" stop-color="#7E62C0" style="stop-color:#7E62C0;stop-color:color(display-p3 0.4941 0.3843 0.7529);stop-opacity:1;"/>
</linearGradient>
<linearGradient id="paint14_linear_4030_70354" x1="7.10096" y1="5.68495" x2="7.86321" y2="4.36467" gradientUnits="userSpaceOnUse">
<stop stop-color="#45356D" style="stop-color:#45356D;stop-color:color(display-p3 0.2706 0.2078 0.4275);stop-opacity:1;"/>
<stop offset="0.1612" stop-color="#544081" style="stop-color:#544081;stop-color:color(display-p3 0.3294 0.2510 0.5059);stop-opacity:1;"/>
<stop offset="1" stop-color="#7E62C0" style="stop-color:#7E62C0;stop-color:color(display-p3 0.4941 0.3843 0.7529);stop-opacity:1;"/>
</linearGradient>
<linearGradient id="paint15_linear_4030_70354" x1="7.65387" y1="6.81409" x2="6.63039" y2="5.04142" gradientUnits="userSpaceOnUse">
<stop stop-color="#45356D" style="stop-color:#45356D;stop-color:color(display-p3 0.2706 0.2078 0.4275);stop-opacity:1;"/>
<stop offset="0.3855" stop-color="#544081" style="stop-color:#544081;stop-color:color(display-p3 0.3294 0.2510 0.5059);stop-opacity:1;"/>
<stop offset="1" stop-color="#7E62C0" style="stop-color:#7E62C0;stop-color:color(display-p3 0.4941 0.3843 0.7529);stop-opacity:1;"/>
</linearGradient>
<linearGradient id="paint16_linear_4030_70354" x1="9.50596" y1="4.29436" x2="10.2682" y2="2.97407" gradientUnits="userSpaceOnUse">
<stop stop-color="#45356D" style="stop-color:#45356D;stop-color:color(display-p3 0.2706 0.2078 0.4275);stop-opacity:1;"/>
<stop offset="0.1612" stop-color="#544081" style="stop-color:#544081;stop-color:color(display-p3 0.3294 0.2510 0.5059);stop-opacity:1;"/>
<stop offset="1" stop-color="#7E62C0" style="stop-color:#7E62C0;stop-color:color(display-p3 0.4941 0.3843 0.7529);stop-opacity:1;"/>
</linearGradient>
<linearGradient id="paint17_linear_4030_70354" x1="10.0589" y1="5.4235" x2="9.0354" y2="3.65083" gradientUnits="userSpaceOnUse">
<stop stop-color="#45356D" style="stop-color:#45356D;stop-color:color(display-p3 0.2706 0.2078 0.4275);stop-opacity:1;"/>
<stop offset="0.3855" stop-color="#544081" style="stop-color:#544081;stop-color:color(display-p3 0.3294 0.2510 0.5059);stop-opacity:1;"/>
<stop offset="1" stop-color="#7E62C0" style="stop-color:#7E62C0;stop-color:color(display-p3 0.4941 0.3843 0.7529);stop-opacity:1;"/>
</linearGradient>
<clipPath id="clip0_4030_70354">
<rect width="16" height="16" fill="white" style="fill:white;fill-opacity:1;"/>
</clipPath>
</defs>
</svg>
