<svg width="60" height="60" viewBox="0 0 60 60" fill="none" xmlns="http://www.w3.org/2000/svg">
<g clip-path="url(#clip0_4750_69514)">
<path d="M51.0717 3.38603L45.9885 0.451183C45.5568 0.190675 45.2778 -0.0483872 44.7949 0.00844873L28.6125 1.91122C28.1876 1.96114 27.7443 2.11946 27.3008 2.3754C26.8575 2.63134 26.4142 2.98501 25.9891 3.42575L9.80684 20.2088C8.75602 21.2986 8.05078 23.0247 8.05078 24.5067V36.6605C8.05078 45.4821 10.9545 52.0393 15.8216 54.8483L15.821 54.8495L15.8691 54.8773C15.8764 54.8815 15.8837 54.8858 15.8912 54.89L20.1414 57.3438L51.0717 3.38603Z" fill="url(#paint0_linear_4750_69514)" style=""/>
<path d="M50.1931 3.20842L34.0108 5.11108C33.161 5.21104 32.2374 5.74424 31.3876 6.62561L15.2053 23.4087C14.1545 24.4986 13.4492 26.2246 13.4492 27.7067V39.8606C13.4492 51.1999 18.2454 58.8006 25.8444 59.5044L31.1033 59.9913C32.1073 60.0842 33.2909 59.4009 34.2951 58.1485L39.554 51.589C47.1531 42.1107 51.9492 28.9717 51.9492 17.6326V5.47869C51.9492 3.99651 51.2439 3.0849 50.1931 3.20842Z" fill="url(#paint1_linear_4750_69514)" style=""/>
<path d="M32.6995 9.11621C32.8516 9.02832 33.0018 8.97523 33.1455 8.95836L49.2943 7.05957V19.1661C49.2943 24.0731 48.2733 29.4638 46.3416 34.7558C44.4098 40.0477 41.6505 45.0129 38.3621 49.1145L33.1032 55.674C32.9786 55.8295 32.839 55.9543 32.6994 56.0348C32.56 56.1153 32.4203 56.1518 32.2956 56.1403L27.0367 55.6534C23.7483 55.3488 20.989 53.5698 19.0573 50.5084C17.1255 47.447 16.1045 43.2352 16.1045 38.3282V26.2216L32.2534 9.4734C32.3972 9.32422 32.5473 9.20398 32.6995 9.11621Z" fill="url(#paint2_linear_4750_69514)" style=""/>
<path d="M43.7838 33.7501C42.9501 33.7501 42.1839 34.0379 41.5776 34.5185L40.6574 33.3738C40.5821 33.2801 40.5255 33.1631 40.4876 33.0292C40.4747 32.9838 40.4649 32.9359 40.4563 32.8868C40.4543 32.8754 40.4526 32.8641 40.4508 32.8526C40.4433 32.8031 40.4372 32.7525 40.434 32.6999C40.434 32.6999 40.434 32.6999 40.434 32.6998C40.4309 32.6471 40.4305 32.5925 40.4316 32.5373C40.4318 32.5242 40.4323 32.511 40.4328 32.4977C40.4349 32.4424 40.4383 32.3863 40.4445 32.329C40.4445 32.3286 40.4445 32.3283 40.4446 32.3279C40.4509 32.2705 40.4601 32.2119 40.4706 32.1529C40.4732 32.1383 40.4759 32.1238 40.4788 32.1093C40.4903 32.0503 40.5032 31.991 40.5188 31.9313C40.5189 31.9307 40.519 31.9302 40.5191 31.9296C40.5348 31.8696 40.5535 31.8093 40.5734 31.7488C40.5784 31.7336 40.5836 31.7183 40.5888 31.703C40.6098 31.6425 40.6321 31.5819 40.6573 31.5214C40.6574 31.5212 40.6575 31.521 40.6575 31.5207L43.1714 25.4906C43.495 25.5875 43.8378 25.6403 44.1928 25.6403C46.1563 25.6403 47.7481 24.0485 47.7481 22.085C47.7481 20.1216 46.1563 18.5299 44.1928 18.5299C42.2294 18.5299 40.6376 20.1216 40.6376 22.085C40.6376 22.4788 40.7025 22.8572 40.8208 23.2112L36.7349 26.1627L36.5745 25.7702L35.4283 22.9658L35.1918 22.3874C36.7365 22.0005 37.8808 20.6036 37.8808 18.9389C37.8808 16.9754 36.289 15.3838 34.3255 15.3838C32.3621 15.3838 30.7703 16.9755 30.7703 18.9389C30.7703 20.2886 31.5223 21.4625 32.6302 22.0647L30.7744 28.748C30.5676 29.4929 30.0805 30.1489 29.5708 30.3694L27.3708 31.3206C26.7521 30.2741 25.6128 29.5719 24.309 29.5719C22.3456 29.5719 20.7538 31.1637 20.7538 33.127C20.7538 35.0905 22.3456 36.6823 24.309 36.6823C25.2612 36.6823 26.1252 36.3071 26.7634 35.6977L27.4354 36.5337C27.7383 36.9104 27.7383 37.6602 27.4354 38.3866L25.1299 43.9167C24.7646 43.7898 24.3724 43.72 23.9639 43.72C22.0005 43.72 20.4087 45.3117 20.4087 47.2752C20.4087 49.2387 22.0005 50.8304 23.9639 50.8304C25.9274 50.8304 27.5192 49.2387 27.5192 47.2752C27.5192 47.0332 27.4948 46.797 27.4487 46.5687L31.4471 43.6806L32.7172 47.0332C31.5622 47.6203 30.7703 48.8191 30.7703 50.2036C30.7703 52.1671 32.3621 53.7587 34.3255 53.7587C36.289 53.7587 37.8808 52.167 37.8808 50.2036C37.8808 48.7336 36.9885 47.4721 35.716 46.9308L37.3185 41.1598C37.5253 40.4148 38.0124 39.7587 38.5221 39.5384L40.5048 38.6811C41.0426 39.9615 42.3081 40.8608 43.784 40.8608C45.7474 40.8608 47.3391 39.2691 47.3391 37.3056C47.339 35.3418 45.7473 33.7501 43.7838 33.7501Z" fill="url(#paint3_linear_4750_69514)" style=""/>
<path d="M34.3248 50.2032C36.2883 50.2032 37.88 48.6115 37.88 46.648C37.88 44.6845 36.2883 43.0928 34.3248 43.0928C32.3613 43.0928 30.7695 44.6845 30.7695 46.648C30.7695 48.6115 32.3613 50.2032 34.3248 50.2032Z" fill="url(#paint4_linear_4750_69514)" style=""/>
<path d="M44.1924 22.0851C46.1559 22.0851 47.7477 20.4933 47.7477 18.5298C47.7477 16.5663 46.1559 14.9746 44.1924 14.9746C42.2289 14.9746 40.6372 16.5663 40.6372 18.5298C40.6372 20.4933 42.2289 22.0851 44.1924 22.0851Z" fill="url(#paint5_linear_4750_69514)" style=""/>
<path d="M43.7833 37.3048C45.7468 37.3048 47.3385 35.7131 47.3385 33.7496C47.3385 31.7861 45.7468 30.1943 43.7833 30.1943C41.8198 30.1943 40.228 31.7861 40.228 33.7496C40.228 35.7131 41.8198 37.3048 43.7833 37.3048Z" fill="url(#paint6_linear_4750_69514)" style=""/>
<path d="M43.7834 20.4657L41.51 19.1573L36.7345 22.6068L35.1827 18.8105L33.3535 20.2474L30.77 26.5932L26.582 30.3969L28.1569 33.7494L26.582 43.6385L30.77 38.3386L32.9093 43.9852L35.1827 45.2936H35.1828L39.5226 27.9736L43.7834 20.4657Z" fill="url(#paint7_linear_4750_69514)" style=""/>
<path d="M26.5819 43.6389L29.7082 36.1396C30.0112 35.413 30.0112 34.6632 29.7082 34.2865L26.5819 30.3973L24.3086 29.0889L27.4349 32.9781C27.7379 33.3548 27.7379 34.1046 27.4349 34.8312L24.3086 42.3305L26.5819 43.6389Z" fill="url(#paint8_linear_4750_69514)" style=""/>
<path d="M35.1828 18.8105L37.3182 24.0349C37.525 24.541 38.012 24.6348 38.5218 24.2666L43.7835 20.4658L40.6572 27.9651C40.3543 28.6917 40.3543 29.4413 40.6572 29.8182L43.7835 33.7074L38.5218 35.9824C38.012 36.2028 37.5251 36.8587 37.3182 37.6038L35.1828 45.2937L33.0474 40.0694C32.8405 39.5633 32.3535 39.4695 31.8438 39.8377L26.582 43.6385L29.7084 36.1392C30.0113 35.4126 30.0113 34.663 29.7084 34.2861L26.582 30.3969L31.8438 28.1219C32.3535 27.9015 32.8404 27.2455 33.0474 26.5005L35.1828 18.8105Z" fill="url(#paint9_linear_4750_69514)" style=""/>
<path d="M40.6568 27.9651L43.7832 20.4658L40.3711 22.9305L31.3105 40.2229L31.8437 39.8379C32.3535 39.4697 32.8404 39.5634 33.0474 40.0695L33.8739 42.0917L40.4873 29.4737C40.3728 29.0696 40.4294 28.5109 40.6568 27.9651Z" fill="url(#paint10_linear_4750_69514)" style=""/>
<path d="M37.3179 24.035L35.4276 19.4102L34.5523 21.0803L33.0473 26.5006C32.8404 27.2457 32.3534 27.9016 31.8436 28.122L30.5743 28.6708L28.4511 32.7221L29.7084 34.2862C30.0113 34.6629 30.0113 35.4127 29.7084 36.1393L26.582 43.6386L28.8522 41.9988L38.0305 24.4813C37.7193 24.5259 37.4561 24.3729 37.3179 24.035Z" fill="url(#paint11_linear_4750_69514)" style=""/>
<path d="M26.5819 30.3977L31.8436 28.1227C32.3534 27.9023 32.8403 27.2464 33.0473 26.5013L35.1827 18.8113L32.9093 17.5029L30.7739 25.1929C30.5671 25.938 30.0801 26.5939 29.5703 26.8143L24.3086 29.0893L26.5819 30.3977Z" fill="url(#paint12_linear_4750_69514)" style=""/>
<path d="M34.3248 18.9386C36.2883 18.9386 37.88 17.3469 37.88 15.3834C37.88 13.4199 36.2883 11.8281 34.3248 11.8281C32.3613 11.8281 30.7695 13.4199 30.7695 15.3834C30.7695 17.3469 32.3613 18.9386 34.3248 18.9386Z" fill="url(#paint13_linear_4750_69514)" style=""/>
<path d="M24.3087 33.1271C26.2722 33.1271 27.8639 31.5353 27.8639 29.5718C27.8639 27.6083 26.2722 26.0166 24.3087 26.0166C22.3452 26.0166 20.7534 27.6083 20.7534 29.5718C20.7534 31.5353 22.3452 33.1271 24.3087 33.1271Z" fill="url(#paint14_linear_4750_69514)" style=""/>
<path d="M23.9634 47.2745C25.9269 47.2745 27.5187 45.6828 27.5187 43.7193C27.5187 41.7558 25.9269 40.1641 23.9634 40.1641C21.9999 40.1641 20.4082 41.7558 20.4082 43.7193C20.4082 45.6828 21.9999 47.2745 23.9634 47.2745Z" fill="url(#paint15_linear_4750_69514)" style=""/>
</g>
<defs>
<linearGradient id="paint0_linear_4750_69514" x1="19.0952" y1="31.4729" x2="39.2426" y2="-3.42315" gradientUnits="userSpaceOnUse">
<stop offset="0.0319" stop-color="#B096ED" style="stop-color:#B096ED;stop-color:color(display-p3 0.6902 0.5882 0.9294);stop-opacity:1;"/>
<stop offset="0.0645" stop-color="#B9A3EE" style="stop-color:#B9A3EE;stop-color:color(display-p3 0.7255 0.6392 0.9333);stop-opacity:1;"/>
<stop offset="0.1414" stop-color="#CBBBF1" style="stop-color:#CBBBF1;stop-color:color(display-p3 0.7961 0.7333 0.9451);stop-opacity:1;"/>
<stop offset="0.2286" stop-color="#D9CEF3" style="stop-color:#D9CEF3;stop-color:color(display-p3 0.8510 0.8078 0.9529);stop-opacity:1;"/>
<stop offset="0.3305" stop-color="#E3DBF5" style="stop-color:#E3DBF5;stop-color:color(display-p3 0.8902 0.8588 0.9608);stop-opacity:1;"/>
<stop offset="0.4611" stop-color="#E8E3F6" style="stop-color:#E8E3F6;stop-color:color(display-p3 0.9098 0.8902 0.9647);stop-opacity:1;"/>
<stop offset="0.719" stop-color="#EAE5F6" style="stop-color:#EAE5F6;stop-color:color(display-p3 0.9176 0.8980 0.9647);stop-opacity:1;"/>
<stop offset="0.7626" stop-color="#E0DAF0" style="stop-color:#E0DAF0;stop-color:color(display-p3 0.8784 0.8549 0.9412);stop-opacity:1;"/>
<stop offset="0.8254" stop-color="#DBD3ED" style="stop-color:#DBD3ED;stop-color:color(display-p3 0.8588 0.8275 0.9294);stop-opacity:1;"/>
<stop offset="1" stop-color="#D9D1EC" style="stop-color:#D9D1EC;stop-color:color(display-p3 0.8510 0.8196 0.9255);stop-opacity:1;"/>
</linearGradient>
<linearGradient id="paint1_linear_4750_69514" x1="32.6993" y1="62.4936" x2="32.6993" y2="16.5946" gradientUnits="userSpaceOnUse">
<stop stop-color="#E1DAEF" style="stop-color:#E1DAEF;stop-color:color(display-p3 0.8824 0.8549 0.9373);stop-opacity:1;"/>
<stop offset="1" stop-color="white" style="stop-color:white;stop-opacity:1;"/>
</linearGradient>
<linearGradient id="paint2_linear_4750_69514" x1="32.6995" y1="64.888" x2="32.6995" y2="19.5093" gradientUnits="userSpaceOnUse">
<stop stop-color="#43386B" style="stop-color:#43386B;stop-color:color(display-p3 0.2627 0.2196 0.4196);stop-opacity:1;"/>
<stop offset="0.0815" stop-color="#453A6E" style="stop-color:#453A6E;stop-color:color(display-p3 0.2706 0.2275 0.4314);stop-opacity:1;"/>
<stop offset="1" stop-color="#594A8E" style="stop-color:#594A8E;stop-color:color(display-p3 0.3490 0.2902 0.5569);stop-opacity:1;"/>
</linearGradient>
<linearGradient id="paint3_linear_4750_69514" x1="34.0785" y1="13.7945" x2="34.0785" y2="63.8195" gradientUnits="userSpaceOnUse">
<stop stop-color="#1E1B28" style="stop-color:#1E1B28;stop-color:color(display-p3 0.1176 0.1059 0.1569);stop-opacity:1;"/>
<stop offset="1" stop-color="#1E1B28" stop-opacity="0" style="stop-color:none;stop-opacity:0;"/>
</linearGradient>
<linearGradient id="paint4_linear_4750_69514" x1="34.3248" y1="48.4493" x2="34.3248" y2="39.0135" gradientUnits="userSpaceOnUse">
<stop stop-color="#FFC51E" style="stop-color:#FFC51E;stop-color:color(display-p3 1.0000 0.7725 0.1176);stop-opacity:1;"/>
<stop offset="1" stop-color="#FFF2B0" style="stop-color:#FFF2B0;stop-color:color(display-p3 1.0000 0.9490 0.6902);stop-opacity:1;"/>
</linearGradient>
<linearGradient id="paint5_linear_4750_69514" x1="44.1924" y1="21.558" x2="44.1924" y2="12.1223" gradientUnits="userSpaceOnUse">
<stop stop-color="#FFC51E" style="stop-color:#FFC51E;stop-color:color(display-p3 1.0000 0.7725 0.1176);stop-opacity:1;"/>
<stop offset="1" stop-color="#FFF2B0" style="stop-color:#FFF2B0;stop-color:color(display-p3 1.0000 0.9490 0.6902);stop-opacity:1;"/>
</linearGradient>
<linearGradient id="paint6_linear_4750_69514" x1="43.7833" y1="36.8545" x2="43.7833" y2="27.4187" gradientUnits="userSpaceOnUse">
<stop stop-color="#FFC51E" style="stop-color:#FFC51E;stop-color:color(display-p3 1.0000 0.7725 0.1176);stop-opacity:1;"/>
<stop offset="1" stop-color="#FFF2B0" style="stop-color:#FFF2B0;stop-color:color(display-p3 1.0000 0.9490 0.6902);stop-opacity:1;"/>
</linearGradient>
<linearGradient id="paint7_linear_4750_69514" x1="34.3296" y1="32.7185" x2="46.0848" y2="22.7717" gradientUnits="userSpaceOnUse">
<stop stop-color="#FF7B2A" style="stop-color:#FF7B2A;stop-color:color(display-p3 1.0000 0.4824 0.1647);stop-opacity:1;"/>
<stop offset="1" stop-color="#FFC51E" style="stop-color:#FFC51E;stop-color:color(display-p3 1.0000 0.7725 0.1176);stop-opacity:1;"/>
</linearGradient>
<linearGradient id="paint8_linear_4750_69514" x1="25.1736" y1="36.8344" x2="27.3132" y2="33.1286" gradientUnits="userSpaceOnUse">
<stop stop-color="#FF7B2A" style="stop-color:#FF7B2A;stop-color:color(display-p3 1.0000 0.4824 0.1647);stop-opacity:1;"/>
<stop offset="1" stop-color="#FFC51E" style="stop-color:#FFC51E;stop-color:color(display-p3 1.0000 0.7725 0.1176);stop-opacity:1;"/>
</linearGradient>
<linearGradient id="paint9_linear_4750_69514" x1="35.1828" y1="48.7806" x2="19.9607" y2="22.4159" gradientUnits="userSpaceOnUse">
<stop stop-color="#FFE026" style="stop-color:#FFE026;stop-color:color(display-p3 1.0000 0.8784 0.1490);stop-opacity:1;"/>
<stop offset="1" stop-color="#FFF2B0" style="stop-color:#FFF2B0;stop-color:color(display-p3 1.0000 0.9490 0.6902);stop-opacity:1;"/>
</linearGradient>
<linearGradient id="paint10_linear_4750_69514" x1="40.7587" y1="32.3932" x2="36.215" y2="29.7698" gradientUnits="userSpaceOnUse">
<stop stop-color="white" style="stop-color:white;stop-opacity:1;"/>
<stop offset="1" stop-color="white" stop-opacity="0" style="stop-color:none;stop-opacity:0;"/>
</linearGradient>
<linearGradient id="paint11_linear_4750_69514" x1="36.2725" y1="34.5657" x2="29.837" y2="30.8502" gradientUnits="userSpaceOnUse">
<stop stop-color="white" style="stop-color:white;stop-opacity:1;"/>
<stop offset="1" stop-color="white" stop-opacity="0" style="stop-color:none;stop-opacity:0;"/>
</linearGradient>
<linearGradient id="paint12_linear_4750_69514" x1="29.0024" y1="27.3329" x2="30.8465" y2="24.1388" gradientUnits="userSpaceOnUse">
<stop stop-color="#FF7B2A" style="stop-color:#FF7B2A;stop-color:color(display-p3 1.0000 0.4824 0.1647);stop-opacity:1;"/>
<stop offset="1" stop-color="#FFC51E" style="stop-color:#FFC51E;stop-color:color(display-p3 1.0000 0.7725 0.1176);stop-opacity:1;"/>
</linearGradient>
<linearGradient id="paint13_linear_4750_69514" x1="34.3248" y1="18.4882" x2="34.3248" y2="9.05254" gradientUnits="userSpaceOnUse">
<stop stop-color="#FFC51E" style="stop-color:#FFC51E;stop-color:color(display-p3 1.0000 0.7725 0.1176);stop-opacity:1;"/>
<stop offset="1" stop-color="#FFF2B0" style="stop-color:#FFF2B0;stop-color:color(display-p3 1.0000 0.9490 0.6902);stop-opacity:1;"/>
</linearGradient>
<linearGradient id="paint14_linear_4750_69514" x1="24.3087" y1="33.06" x2="24.3087" y2="23.6243" gradientUnits="userSpaceOnUse">
<stop stop-color="#FFC51E" style="stop-color:#FFC51E;stop-color:color(display-p3 1.0000 0.7725 0.1176);stop-opacity:1;"/>
<stop offset="1" stop-color="#FFF2B0" style="stop-color:#FFF2B0;stop-color:color(display-p3 1.0000 0.9490 0.6902);stop-opacity:1;"/>
</linearGradient>
<linearGradient id="paint15_linear_4750_69514" x1="23.9634" y1="47.2076" x2="23.9634" y2="37.7719" gradientUnits="userSpaceOnUse">
<stop stop-color="#FFC51E" style="stop-color:#FFC51E;stop-color:color(display-p3 1.0000 0.7725 0.1176);stop-opacity:1;"/>
<stop offset="1" stop-color="#FFF2B0" style="stop-color:#FFF2B0;stop-color:color(display-p3 1.0000 0.9490 0.6902);stop-opacity:1;"/>
</linearGradient>
<clipPath id="clip0_4750_69514">
<rect width="60" height="60" fill="white" style="fill:white;fill-opacity:1;"/>
</clipPath>
</defs>
</svg>
