<svg width="60" height="60" viewBox="0 0 60 60" fill="none" xmlns="http://www.w3.org/2000/svg">
<g clip-path="url(#clip0_7363_117231)">
<path d="M43.1979 47.0079L43.2006 47.0076L43.1547 46.951C43.1512 46.9467 43.1477 46.9422 43.1441 46.9379L41.0764 44.3809L17.9139 46.5229L16.1958 48.9253L16.1997 48.925C13.7601 52.0664 14.4157 55.6235 18.3826 57.9137C23.7364 61.0047 33.088 60.6171 39.27 57.0479C44.2584 54.1678 45.6562 50.0968 43.1979 47.0079Z" fill="url(#paint0_linear_7363_117231)" style=""/>
<path d="M37.7501 52.8316C42.9629 49.822 43.5291 45.2693 39.0147 42.6629C34.5002 40.0565 26.6147 40.3834 21.402 43.393C16.1891 46.4026 15.623 50.9553 20.1374 53.5617C24.6518 56.1682 32.5373 55.8412 37.7501 52.8316Z" fill="url(#paint1_linear_7363_117231)" style=""/>
<path d="M21.6708 43.2451C21.581 43.2945 21.4902 43.3427 21.402 43.3937C18.2678 45.2032 16.816 47.5703 17.1356 49.7371L19.839 51.2979L21.6708 43.2451Z" fill="url(#paint2_linear_7363_117231)" style=""/>
<path d="M39.8588 44.0025L39.8608 44.0023L39.8262 43.9596C39.8235 43.9563 39.8208 43.953 39.8182 43.9497L38.2574 42.0195L20.7725 43.6364L19.4756 45.4498L19.4787 45.4496C17.6371 47.8209 18.132 50.506 21.1265 52.2349C25.1679 54.5682 32.2272 54.2756 36.8938 51.5813C40.6594 49.4074 41.7145 46.3343 39.8588 44.0025Z" fill="url(#paint3_linear_7363_117231)" style=""/>
<path d="M35.7465 48.3989C39.6816 46.127 40.109 42.6904 36.7012 40.7228C33.2933 38.7553 27.3408 39.002 23.4058 41.2739C19.4707 43.5458 19.0433 46.9825 22.4512 48.9501C25.859 50.9176 31.8115 50.6708 35.7465 48.3989Z" fill="url(#paint4_linear_7363_117231)" style=""/>
<path d="M27.2768 46.558V39.8037C25.8897 40.1168 24.5605 40.6077 23.4057 41.2745C22.4725 41.8132 21.7392 42.4179 21.205 43.0525L27.2768 46.558Z" fill="url(#paint5_linear_7363_117231)" style=""/>
<path d="M43.0043 20.7429C42.3141 20.7431 41.643 20.3849 41.2733 19.7443C40.7219 18.7893 41.0491 17.5682 42.0041 17.0168L44.4481 15.6058C46.6426 14.3388 48.0059 11.9775 48.0059 9.4436V4.68157L44.0007 6.99403C43.0457 7.5454 41.8246 7.21821 41.2733 6.26325C40.7219 5.30829 41.0491 4.08719 42.0041 3.53583L46.4289 0.981021C47.5916 0.309771 48.9798 0.309653 50.1425 0.981021C51.3051 1.65227 51.9992 2.8545 51.9992 4.197V9.4436C51.9992 13.3996 49.8709 17.086 46.4448 19.0641L44.0007 20.4752C43.6863 20.6566 43.3429 20.7429 43.0043 20.7429Z" fill="#FFC538" style="fill:#FFC538;fill:color(display-p3 1.0000 0.7725 0.2196);fill-opacity:1;"/>
<path d="M32.9334 35.8438L26.2208 36.4434V45.2357C26.2156 45.6853 26.4841 46.1152 27.0391 46.4356C28.2527 47.1363 30.3726 47.0485 31.7741 46.2393C32.5609 45.7851 32.9538 45.2001 32.9323 44.6503L32.9333 44.6502V35.8438H32.9334Z" fill="url(#paint6_linear_7363_117231)" style=""/>
<path d="M12.9093 11.6812V21.9246C12.9093 31.1404 20.3802 38.6114 29.5961 38.6114C38.8119 38.6114 46.2829 31.1404 46.2829 21.9246V8.17871L12.9093 11.6812Z" fill="url(#paint7_linear_7363_117231)" style=""/>
<path d="M40.5131 15.9602C47.4879 11.9332 48.2454 5.84172 42.2051 2.35434C36.1647 -1.13304 25.614 -0.695697 18.6392 3.33122C11.6645 7.35813 10.907 13.4497 16.9473 16.937C22.9876 20.4244 33.5383 19.9871 40.5131 15.9602Z" fill="url(#paint8_linear_7363_117231)" style=""/>
<path d="M38.3655 14.7207C43.9706 11.4846 44.5794 6.58919 39.7252 3.78654C34.8709 0.983999 26.3919 1.33544 20.7867 4.57158C15.1815 7.80771 14.5728 12.7031 19.427 15.5058C24.2813 18.3083 32.7603 17.9568 38.3655 14.7207Z" fill="url(#paint9_linear_7363_117231)" style=""/>
<path d="M13.8797 36.9641C12.87 36.9641 11.8605 36.6984 10.9401 36.1671C9.09941 35.1043 8.00043 33.2009 8.00043 31.0755V25.7994C8.00043 24.1755 8.87406 22.6622 10.2804 21.8502L14.8226 19.2279C15.7777 18.6764 16.9987 19.0037 17.55 19.9586C18.1014 20.9136 17.7742 22.1348 16.8193 22.6861L12.2771 25.3085C12.1022 25.4094 11.9936 25.5976 11.9936 25.7995V31.0756C11.9936 32.0584 12.653 32.5453 12.9366 32.7089C13.2202 32.8726 13.9715 33.2 14.8225 32.7089L16.7206 31.6131C17.6755 31.0618 18.8968 31.389 19.448 32.344C19.9993 33.2989 19.6721 34.52 18.7171 35.0714L16.8191 36.1671C15.8991 36.6983 14.8894 36.9641 13.8797 36.9641Z" fill="#FFC538" style="fill:#FFC538;fill:color(display-p3 1.0000 0.7725 0.2196);fill-opacity:1;"/>
</g>
<defs>
<linearGradient id="paint0_linear_7363_117231" x1="14.7705" y1="52.1906" x2="44.3821" y2="52.1906" gradientUnits="userSpaceOnUse">
<stop stop-color="#E37A34" style="stop-color:#E37A34;stop-color:color(display-p3 0.8902 0.4784 0.2039);stop-opacity:1;"/>
<stop offset="1" stop-color="#FFC538" style="stop-color:#FFC538;stop-color:color(display-p3 1.0000 0.7725 0.2196);stop-opacity:1;"/>
</linearGradient>
<linearGradient id="paint1_linear_7363_117231" x1="11.1218" y1="37.4578" x2="44.4091" y2="56.6762" gradientUnits="userSpaceOnUse">
<stop stop-color="#E37A34" style="stop-color:#E37A34;stop-color:color(display-p3 0.8902 0.4784 0.2039);stop-opacity:1;"/>
<stop offset="0.0221" stop-color="#E37C34" style="stop-color:#E37C34;stop-color:color(display-p3 0.8902 0.4863 0.2039);stop-opacity:1;"/>
<stop offset="0.6897" stop-color="#F1C43D" style="stop-color:#F1C43D;stop-color:color(display-p3 0.9451 0.7686 0.2392);stop-opacity:1;"/>
<stop offset="1" stop-color="#F7E041" style="stop-color:#F7E041;stop-color:color(display-p3 0.9686 0.8784 0.2549);stop-opacity:1;"/>
</linearGradient>
<linearGradient id="paint2_linear_7363_117231" x1="22.8356" y1="48.4727" x2="18.1804" y2="45.785" gradientUnits="userSpaceOnUse">
<stop stop-color="#8B451C" style="stop-color:#8B451C;stop-color:color(display-p3 0.5451 0.2706 0.1098);stop-opacity:1;"/>
<stop offset="1" stop-color="#8B451C" stop-opacity="0" style="stop-color:none;stop-opacity:0;"/>
</linearGradient>
<linearGradient id="paint3_linear_7363_117231" x1="18.3997" y1="47.9149" x2="40.7527" y2="47.9149" gradientUnits="userSpaceOnUse">
<stop stop-color="#E37A34" style="stop-color:#E37A34;stop-color:color(display-p3 0.8902 0.4784 0.2039);stop-opacity:1;"/>
<stop offset="1" stop-color="#FFC538" style="stop-color:#FFC538;stop-color:color(display-p3 1.0000 0.7725 0.2196);stop-opacity:1;"/>
</linearGradient>
<linearGradient id="paint4_linear_7363_117231" x1="15.6455" y1="36.7936" x2="40.7732" y2="51.3011" gradientUnits="userSpaceOnUse">
<stop stop-color="#E37A34" style="stop-color:#E37A34;stop-color:color(display-p3 0.8902 0.4784 0.2039);stop-opacity:1;"/>
<stop offset="0.0221" stop-color="#E37C34" style="stop-color:#E37C34;stop-color:color(display-p3 0.8902 0.4863 0.2039);stop-opacity:1;"/>
<stop offset="0.6897" stop-color="#F1C43D" style="stop-color:#F1C43D;stop-color:color(display-p3 0.9451 0.7686 0.2392);stop-opacity:1;"/>
<stop offset="1" stop-color="#F7E041" style="stop-color:#F7E041;stop-color:color(display-p3 0.9686 0.8784 0.2549);stop-opacity:1;"/>
</linearGradient>
<linearGradient id="paint5_linear_7363_117231" x1="30.5081" y1="45.0464" x2="22.4677" y2="40.4043" gradientUnits="userSpaceOnUse">
<stop stop-color="#8B451C" style="stop-color:#8B451C;stop-color:color(display-p3 0.5451 0.2706 0.1098);stop-opacity:1;"/>
<stop offset="1" stop-color="#8B451C" stop-opacity="0" style="stop-color:none;stop-opacity:0;"/>
</linearGradient>
<linearGradient id="paint6_linear_7363_117231" x1="26.2207" y1="41.3763" x2="32.9334" y2="41.3763" gradientUnits="userSpaceOnUse">
<stop stop-color="#E37A34" style="stop-color:#E37A34;stop-color:color(display-p3 0.8902 0.4784 0.2039);stop-opacity:1;"/>
<stop offset="1" stop-color="#FFC538" style="stop-color:#FFC538;stop-color:color(display-p3 1.0000 0.7725 0.2196);stop-opacity:1;"/>
</linearGradient>
<linearGradient id="paint7_linear_7363_117231" x1="2.09744" y1="37.4979" x2="41.13" y2="14.9623" gradientUnits="userSpaceOnUse">
<stop stop-color="#E37A34" style="stop-color:#E37A34;stop-color:color(display-p3 0.8902 0.4784 0.2039);stop-opacity:1;"/>
<stop offset="0.0221" stop-color="#E37C34" style="stop-color:#E37C34;stop-color:color(display-p3 0.8902 0.4863 0.2039);stop-opacity:1;"/>
<stop offset="0.6897" stop-color="#F1C43D" style="stop-color:#F1C43D;stop-color:color(display-p3 0.9451 0.7686 0.2392);stop-opacity:1;"/>
<stop offset="1" stop-color="#F7E041" style="stop-color:#F7E041;stop-color:color(display-p3 0.9686 0.8784 0.2549);stop-opacity:1;"/>
</linearGradient>
<linearGradient id="paint8_linear_7363_117231" x1="18.6393" y1="3.35993" x2="29.5696" y2="22.3033" gradientUnits="userSpaceOnUse">
<stop stop-color="#F7E041" style="stop-color:#F7E041;stop-color:color(display-p3 0.9686 0.8784 0.2549);stop-opacity:1;"/>
<stop offset="1" stop-color="#FCF3B3" style="stop-color:#FCF3B3;stop-color:color(display-p3 0.9882 0.9529 0.7020);stop-opacity:1;"/>
</linearGradient>
<linearGradient id="paint9_linear_7363_117231" x1="39.6266" y1="3.84349" x2="19.6272" y2="15.3901" gradientUnits="userSpaceOnUse">
<stop stop-color="#E37A34" style="stop-color:#E37A34;stop-color:color(display-p3 0.8902 0.4784 0.2039);stop-opacity:1;"/>
<stop offset="1" stop-color="#FFC538" style="stop-color:#FFC538;stop-color:color(display-p3 1.0000 0.7725 0.2196);stop-opacity:1;"/>
</linearGradient>
<clipPath id="clip0_7363_117231">
<rect width="60" height="60" fill="white" style="fill:white;fill-opacity:1;"/>
</clipPath>
</defs>
</svg>
