<svg width="60" height="60" viewBox="0 0 60 60" fill="none" xmlns="http://www.w3.org/2000/svg">
<path d="M57.7225 13.5752L34.4024 0.0895952C34.2081 -0.0375533 33.9485 -0.0341548 33.6631 0.130611L3.02399 18.3726C2.42212 18.7201 1.93427 19.6523 1.93427 20.4548V45.5648C1.93427 46.0388 2.10466 46.3614 2.36809 46.4745L25.169 59.6572L25.5773 59.8962L57.7225 13.5752Z" fill="url(#paint0_linear_1971_46083)" style=""/>
<path d="M56.9761 41.6271L26.3369 59.8691C25.735 60.2166 25.2471 59.8478 25.2471 59.0453V33.9353C25.2471 33.1328 25.735 32.2006 26.3369 31.8531L56.9761 13.6112C57.578 13.2638 58.0658 13.6326 58.0658 14.4351V39.5451C58.0658 40.3475 57.5779 41.2797 56.9761 41.6271Z" fill="url(#paint1_linear_1971_46083)" style=""/>
<path d="M55.3675 17.709L54.7676 39.0956L27.9455 55.7706V34.0354L55.3675 17.709Z" fill="#DFDAEF" style="fill:#DFDAEF;fill:color(display-p3 0.8745 0.8549 0.9373);fill-opacity:1;"/>
<path d="M44.8187 32.7976C44.8187 32.1969 44.4535 31.9208 44.003 32.1809C43.5525 32.441 43.1873 33.1387 43.1873 33.7396C43.1873 34.3404 43.5525 34.6164 44.003 34.3563C44.4536 34.0962 44.8187 33.3983 44.8187 32.7976Z" fill="url(#paint2_linear_1971_46083)" style=""/>
<path d="M48.0526 30.9314C48.0526 30.3307 47.6874 30.0546 47.2369 30.3146C46.7864 30.5748 46.4211 31.2725 46.4211 31.8734C46.4211 32.4741 46.7864 32.7502 47.2369 32.49C47.6875 32.23 48.0526 31.5321 48.0526 30.9314Z" fill="url(#paint3_linear_1971_46083)" style=""/>
<path d="M51.2849 29.071C51.2849 28.4703 50.9196 28.1942 50.4691 28.4544C50.0185 28.7145 49.6534 29.4123 49.6534 30.0131C49.6534 30.6138 50.0187 30.8899 50.4691 30.6297C50.9196 30.3696 51.2849 29.6717 51.2849 29.071Z" fill="url(#paint4_linear_1971_46083)" style=""/>
<path d="M44.8187 36.2586C44.8187 35.6579 44.4535 35.3818 44.003 35.6418C43.5525 35.902 43.1873 36.5997 43.1873 37.2005C43.1873 37.8012 43.5525 38.0773 44.003 37.8173C44.4536 37.5571 44.8187 36.8593 44.8187 36.2586Z" fill="url(#paint5_linear_1971_46083)" style=""/>
<path d="M48.0526 34.3923C48.0526 33.7916 47.6874 33.5155 47.2369 33.7756C46.7864 34.0357 46.4211 34.7336 46.4211 35.3343C46.4211 35.935 46.7864 36.2111 47.2369 35.9509C47.6875 35.6909 48.0526 34.9932 48.0526 34.3923Z" fill="url(#paint6_linear_1971_46083)" style=""/>
<path d="M51.2849 32.533C51.2849 31.9323 50.9196 31.6562 50.4691 31.9162C50.0185 32.1764 49.6534 32.8742 49.6534 33.4749C49.6534 34.0756 50.0187 34.3517 50.4691 34.0916C50.9196 33.8315 51.2849 33.1337 51.2849 32.533Z" fill="url(#paint7_linear_1971_46083)" style=""/>
<path d="M44.8187 39.6746C44.8187 39.0739 44.4535 38.7978 44.003 39.0578C43.5525 39.318 43.1873 40.0157 43.1873 40.6165C43.1873 41.2173 43.5525 41.4933 44.003 41.2333C44.4536 40.9731 44.8187 40.2753 44.8187 39.6746Z" fill="url(#paint8_linear_1971_46083)" style=""/>
<path d="M48.0526 37.8083C48.0526 37.2076 47.6874 36.9315 47.2369 37.1917C46.7864 37.4518 46.4211 38.1496 46.4211 38.7504C46.4211 39.3511 46.7864 39.6272 47.2369 39.3671C47.6875 39.1069 48.0526 38.4091 48.0526 37.8083Z" fill="url(#paint9_linear_1971_46083)" style=""/>
<path d="M51.2849 35.948C51.2849 35.3473 50.9196 35.0712 50.4691 35.3313C50.0185 35.5915 49.6534 36.2892 49.6534 36.89C49.6534 37.4907 50.0187 37.7668 50.4691 37.5068C50.9196 37.2465 51.2849 36.5487 51.2849 35.948Z" fill="url(#paint10_linear_1971_46083)" style=""/>
<path d="M44.003 26.8173L49.5321 23.625V26.4383L44.003 29.6305V26.8173Z" fill="#06DAAE" style="fill:#06DAAE;fill:color(display-p3 0.0235 0.8549 0.6824);fill-opacity:1;"/>
<path d="M44.003 26.8176V29.6308L45.5978 28.7101L47.7078 24.6787L44.003 26.8176Z" fill="url(#paint11_linear_1971_46083)" style=""/>
<path d="M39.2084 33.4242L37.4186 32.3944C36.5653 31.9187 35.4604 31.9712 34.2522 32.6687C31.5519 34.2276 29.363 38.4102 29.363 42.0105C29.363 44.0484 30.0647 45.4622 31.1631 46.0235L32.8807 47.0176L39.2084 33.4242Z" fill="url(#paint12_linear_1971_46083)" style=""/>
<path d="M40.94 37.4011C40.94 33.8007 38.7511 32.1459 36.0509 33.7049C33.3506 35.2638 31.1616 39.4464 31.1616 43.0467C31.1616 46.6471 33.3505 48.3019 36.0509 46.7429C38.7511 45.184 40.94 41.0014 40.94 37.4011Z" fill="url(#paint13_linear_1971_46083)" style=""/>
<path d="M39.3599 36.8938L38.2283 36.2427C37.6889 35.942 36.9902 35.9752 36.2263 36.4162C34.519 37.4018 33.135 40.0463 33.135 42.3227C33.135 43.6111 33.5787 44.505 34.2731 44.8599L35.3591 45.4885L39.3599 36.8938Z" fill="url(#paint14_linear_1971_46083)" style=""/>
<path d="M40.4548 39.4091C40.4548 37.1327 39.0708 36.0865 37.3635 37.0721C35.6562 38.0578 34.2722 40.7022 34.2722 42.9785C34.2722 45.2547 35.6562 46.3011 37.3635 45.3155C39.0708 44.3298 40.4548 41.6854 40.4548 39.4091Z" fill="url(#paint15_linear_1971_46083)" style=""/>
<path d="M27.9455 55.771L55.3675 39.4446L52.7093 37.9004L27.9455 52.1977V55.771Z" fill="url(#paint16_linear_1971_46083)" style=""/>
<path d="M52.7093 19.2916V37.8999L55.3675 39.4441V17.709L52.7093 19.2916Z" fill="url(#paint17_linear_1971_46083)" style=""/>
<defs>
<linearGradient id="paint0_linear_1971_46083" x1="20.9539" y1="32.0541" x2="26.6042" y2="22.2674" gradientUnits="userSpaceOnUse">
<stop stop-color="#43386B" style="stop-color:#43386B;stop-color:color(display-p3 0.2627 0.2196 0.4196);stop-opacity:1;"/>
<stop offset="0.2476" stop-color="#7662BD" style="stop-color:#7662BD;stop-color:color(display-p3 0.4627 0.3843 0.7412);stop-opacity:1;"/>
<stop offset="0.5271" stop-color="#8F7CD4" style="stop-color:#8F7CD4;stop-color:color(display-p3 0.5608 0.4863 0.8314);stop-opacity:1;"/>
<stop offset="0.8066" stop-color="#A28FE5" style="stop-color:#A28FE5;stop-color:color(display-p3 0.6353 0.5608 0.8980);stop-opacity:1;"/>
<stop offset="1" stop-color="#A996EB" style="stop-color:#A996EB;stop-color:color(display-p3 0.6627 0.5882 0.9216);stop-opacity:1;"/>
</linearGradient>
<linearGradient id="paint1_linear_1971_46083" x1="41.6564" y1="70.1744" x2="41.6564" y2="17.5221" gradientUnits="userSpaceOnUse">
<stop stop-color="#43386B" style="stop-color:#43386B;stop-color:color(display-p3 0.2627 0.2196 0.4196);stop-opacity:1;"/>
<stop offset="1" stop-color="#7662BD" style="stop-color:#7662BD;stop-color:color(display-p3 0.4627 0.3843 0.7412);stop-opacity:1;"/>
</linearGradient>
<linearGradient id="paint2_linear_1971_46083" x1="44.003" y1="41.5977" x2="44.003" y2="25.7379" gradientUnits="userSpaceOnUse">
<stop stop-color="#43386B" style="stop-color:#43386B;stop-color:color(display-p3 0.2627 0.2196 0.4196);stop-opacity:1;"/>
<stop offset="1" stop-color="#7662BD" style="stop-color:#7662BD;stop-color:color(display-p3 0.4627 0.3843 0.7412);stop-opacity:1;"/>
</linearGradient>
<linearGradient id="paint3_linear_1971_46083" x1="47.2369" y1="41.5979" x2="47.2369" y2="25.7382" gradientUnits="userSpaceOnUse">
<stop stop-color="#43386B" style="stop-color:#43386B;stop-color:color(display-p3 0.2627 0.2196 0.4196);stop-opacity:1;"/>
<stop offset="1" stop-color="#7662BD" style="stop-color:#7662BD;stop-color:color(display-p3 0.4627 0.3843 0.7412);stop-opacity:1;"/>
</linearGradient>
<linearGradient id="paint4_linear_1971_46083" x1="50.4691" y1="41.5973" x2="50.4691" y2="25.7376" gradientUnits="userSpaceOnUse">
<stop stop-color="#43386B" style="stop-color:#43386B;stop-color:color(display-p3 0.2627 0.2196 0.4196);stop-opacity:1;"/>
<stop offset="1" stop-color="#7662BD" style="stop-color:#7662BD;stop-color:color(display-p3 0.4627 0.3843 0.7412);stop-opacity:1;"/>
</linearGradient>
<linearGradient id="paint5_linear_1971_46083" x1="44.003" y1="41.5969" x2="44.003" y2="25.7372" gradientUnits="userSpaceOnUse">
<stop stop-color="#43386B" style="stop-color:#43386B;stop-color:color(display-p3 0.2627 0.2196 0.4196);stop-opacity:1;"/>
<stop offset="1" stop-color="#7662BD" style="stop-color:#7662BD;stop-color:color(display-p3 0.4627 0.3843 0.7412);stop-opacity:1;"/>
</linearGradient>
<linearGradient id="paint6_linear_1971_46083" x1="47.2369" y1="41.5973" x2="47.2369" y2="25.7376" gradientUnits="userSpaceOnUse">
<stop stop-color="#43386B" style="stop-color:#43386B;stop-color:color(display-p3 0.2627 0.2196 0.4196);stop-opacity:1;"/>
<stop offset="1" stop-color="#7662BD" style="stop-color:#7662BD;stop-color:color(display-p3 0.4627 0.3843 0.7412);stop-opacity:1;"/>
</linearGradient>
<linearGradient id="paint7_linear_1971_46083" x1="50.4691" y1="41.5977" x2="50.4691" y2="25.738" gradientUnits="userSpaceOnUse">
<stop stop-color="#43386B" style="stop-color:#43386B;stop-color:color(display-p3 0.2627 0.2196 0.4196);stop-opacity:1;"/>
<stop offset="1" stop-color="#7662BD" style="stop-color:#7662BD;stop-color:color(display-p3 0.4627 0.3843 0.7412);stop-opacity:1;"/>
</linearGradient>
<linearGradient id="paint8_linear_1971_46083" x1="44.003" y1="41.5975" x2="44.003" y2="25.7378" gradientUnits="userSpaceOnUse">
<stop stop-color="#43386B" style="stop-color:#43386B;stop-color:color(display-p3 0.2627 0.2196 0.4196);stop-opacity:1;"/>
<stop offset="1" stop-color="#7662BD" style="stop-color:#7662BD;stop-color:color(display-p3 0.4627 0.3843 0.7412);stop-opacity:1;"/>
</linearGradient>
<linearGradient id="paint9_linear_1971_46083" x1="47.2369" y1="41.5978" x2="47.2369" y2="25.7381" gradientUnits="userSpaceOnUse">
<stop stop-color="#43386B" style="stop-color:#43386B;stop-color:color(display-p3 0.2627 0.2196 0.4196);stop-opacity:1;"/>
<stop offset="1" stop-color="#7662BD" style="stop-color:#7662BD;stop-color:color(display-p3 0.4627 0.3843 0.7412);stop-opacity:1;"/>
</linearGradient>
<linearGradient id="paint10_linear_1971_46083" x1="50.4691" y1="41.5972" x2="50.4691" y2="25.7375" gradientUnits="userSpaceOnUse">
<stop stop-color="#43386B" style="stop-color:#43386B;stop-color:color(display-p3 0.2627 0.2196 0.4196);stop-opacity:1;"/>
<stop offset="1" stop-color="#7662BD" style="stop-color:#7662BD;stop-color:color(display-p3 0.4627 0.3843 0.7412);stop-opacity:1;"/>
</linearGradient>
<linearGradient id="paint11_linear_1971_46083" x1="48.4299" y1="28.6412" x2="44.9176" y2="26.6134" gradientUnits="userSpaceOnUse">
<stop offset="0.0319" stop-color="white" style="stop-color:white;stop-opacity:1;"/>
<stop offset="1" stop-color="white" stop-opacity="0" style="stop-color:none;stop-opacity:0;"/>
</linearGradient>
<linearGradient id="paint12_linear_1971_46083" x1="32.6534" y1="40.3721" x2="37.3371" y2="32.2597" gradientUnits="userSpaceOnUse">
<stop stop-color="#43386B" style="stop-color:#43386B;stop-color:color(display-p3 0.2627 0.2196 0.4196);stop-opacity:1;"/>
<stop offset="0.2476" stop-color="#7662BD" style="stop-color:#7662BD;stop-color:color(display-p3 0.4627 0.3843 0.7412);stop-opacity:1;"/>
<stop offset="0.5271" stop-color="#8F7CD4" style="stop-color:#8F7CD4;stop-color:color(display-p3 0.5608 0.4863 0.8314);stop-opacity:1;"/>
<stop offset="0.8066" stop-color="#A28FE5" style="stop-color:#A28FE5;stop-color:color(display-p3 0.6353 0.5608 0.8980);stop-opacity:1;"/>
<stop offset="1" stop-color="#A996EB" style="stop-color:#A996EB;stop-color:color(display-p3 0.6627 0.5882 0.9216);stop-opacity:1;"/>
</linearGradient>
<linearGradient id="paint13_linear_1971_46083" x1="36.0508" y1="45.6805" x2="29.7621" y2="34.7884" gradientUnits="userSpaceOnUse">
<stop stop-color="#43386B" style="stop-color:#43386B;stop-color:color(display-p3 0.2627 0.2196 0.4196);stop-opacity:1;"/>
<stop offset="1" stop-color="#7662BD" style="stop-color:#7662BD;stop-color:color(display-p3 0.4627 0.3843 0.7412);stop-opacity:1;"/>
</linearGradient>
<linearGradient id="paint14_linear_1971_46083" x1="35.2154" y1="41.2867" x2="38.1768" y2="36.1575" gradientUnits="userSpaceOnUse">
<stop stop-color="#43386B" style="stop-color:#43386B;stop-color:color(display-p3 0.2627 0.2196 0.4196);stop-opacity:1;"/>
<stop offset="0.2476" stop-color="#7662BD" style="stop-color:#7662BD;stop-color:color(display-p3 0.4627 0.3843 0.7412);stop-opacity:1;"/>
<stop offset="0.5271" stop-color="#8F7CD4" style="stop-color:#8F7CD4;stop-color:color(display-p3 0.5608 0.4863 0.8314);stop-opacity:1;"/>
<stop offset="0.8066" stop-color="#A28FE5" style="stop-color:#A28FE5;stop-color:color(display-p3 0.6353 0.5608 0.8980);stop-opacity:1;"/>
<stop offset="1" stop-color="#A996EB" style="stop-color:#A996EB;stop-color:color(display-p3 0.6627 0.5882 0.9216);stop-opacity:1;"/>
</linearGradient>
<linearGradient id="paint15_linear_1971_46083" x1="37.3635" y1="44.6577" x2="33.3874" y2="37.7711" gradientUnits="userSpaceOnUse">
<stop stop-color="#43386B" style="stop-color:#43386B;stop-color:color(display-p3 0.2627 0.2196 0.4196);stop-opacity:1;"/>
<stop offset="1" stop-color="#7662BD" style="stop-color:#7662BD;stop-color:color(display-p3 0.4627 0.3843 0.7412);stop-opacity:1;"/>
</linearGradient>
<linearGradient id="paint16_linear_1971_46083" x1="41.6564" y1="41.8757" x2="41.6564" y2="56.2339" gradientUnits="userSpaceOnUse">
<stop stop-color="#43386B" style="stop-color:#43386B;stop-color:color(display-p3 0.2627 0.2196 0.4196);stop-opacity:1;"/>
<stop offset="1" stop-color="#7662BD" style="stop-color:#7662BD;stop-color:color(display-p3 0.4627 0.3843 0.7412);stop-opacity:1;"/>
</linearGradient>
<linearGradient id="paint17_linear_1971_46083" x1="54.0383" y1="22.544" x2="54.0383" y2="40.0072" gradientUnits="userSpaceOnUse">
<stop stop-color="#43386B" style="stop-color:#43386B;stop-color:color(display-p3 0.2627 0.2196 0.4196);stop-opacity:1;"/>
<stop offset="1" stop-color="#7662BD" style="stop-color:#7662BD;stop-color:color(display-p3 0.4627 0.3843 0.7412);stop-opacity:1;"/>
</linearGradient>
</defs>
</svg>
