<svg width="60" height="60" viewBox="0 0 60 60" fill="none" xmlns="http://www.w3.org/2000/svg">
<g clip-path="url(#clip0_5922_98149)">
<path d="M12.4635 18.2136C11.9788 18.2136 11.5029 17.9801 11.212 17.5482C11.1173 17.4093 8.94457 14.2855 5.81414 15.0254C5.00414 15.2167 4.19203 14.7154 4.00043 13.9051C3.80906 13.0949 4.31062 12.283 5.12074 12.0915C10.3059 10.8663 13.5789 15.6643 13.7157 15.8692C14.1779 16.5615 13.9912 17.4975 13.299 17.9598C13.042 18.1315 12.7512 18.2136 12.4635 18.2136Z" fill="#CC8241" style="fill:#CC8241;fill:color(display-p3 0.8000 0.5098 0.2549);fill-opacity:1;"/>
<path d="M48.9301 40.5004L42.1618 20.9619C41.5551 19.2106 39.5654 18.6456 38.1511 19.4528L38.1509 19.4524L38.1414 19.4578C38.1368 19.4605 38.1321 19.4632 38.1275 19.4659L34.0566 21.8165L43.8535 46.0193L47.4295 43.9547C48.6457 43.4044 49.4505 42.0026 48.9301 40.5004Z" fill="#5D3645" style="fill:#5D3645;fill:color(display-p3 0.3647 0.2118 0.2706);fill-opacity:1;"/>
<path d="M33.0525 22.8348L26.2842 34.5579C25.5164 35.8878 25.9721 37.5881 27.3019 38.356L40.8386 46.1713C43.068 47.4584 45.6986 45.2858 44.8559 42.8534L38.0876 23.3149C37.3078 21.0641 34.2436 20.772 33.0525 22.8348Z" fill="#966D7D" style="fill:#966D7D;fill:color(display-p3 0.5882 0.4275 0.4902);fill-opacity:1;"/>
<path d="M19.0575 10.7939L19.058 10.7947C15.3904 11.9838 12.0661 14.3345 9.6905 17.7407C3.90003 26.0435 5.93663 37.4682 14.2392 43.2586C20.5599 47.6667 28.6895 47.5378 34.7657 43.5623L34.7662 43.5632L56.4185 29.932L43.8258 2.61523L19.0575 10.7939Z" fill="url(#paint0_linear_5922_98149)" style=""/>
<path d="M51.2032 4.83461C45.6111 0.50231 40.4376 2.16801 39.6478 8.55497C38.858 14.9419 42.7508 23.6316 48.3429 27.9638C53.9348 32.296 59.1083 30.6303 59.8982 24.2433C60.688 17.8565 56.7951 9.1668 51.2032 4.83461Z" fill="url(#paint1_linear_5922_98149)" style=""/>
<path d="M50.8826 7.42697C46.5442 4.06591 42.5304 5.35814 41.9177 10.3133C41.3049 15.2685 44.3251 22.01 48.6635 25.3711C53.0019 28.7321 57.0156 27.4398 57.6283 22.4846C58.2411 17.5295 55.221 10.7879 50.8826 7.42697Z" fill="url(#paint2_linear_5922_98149)" style=""/>
<path d="M28.5855 52.3412L21.8172 32.8028C21.2105 31.0513 19.2208 30.4865 17.8065 31.2936L17.8063 31.2933L17.7968 31.2988C17.7922 31.3015 17.7875 31.3042 17.7829 31.3069L13.712 33.6574L23.5089 57.8602L27.0849 55.7956C28.3011 55.2452 29.1059 53.8433 28.5855 52.3412Z" fill="#5D3645" style="fill:#5D3645;fill:color(display-p3 0.3647 0.2118 0.2706);fill-opacity:1;"/>
<path d="M12.7078 34.6757L5.93956 46.3988C5.17187 47.7286 5.62749 49.429 6.95722 50.1968L20.4939 58.0122C22.7233 59.2994 25.3539 57.1267 24.5112 54.6943L17.7429 35.1558C16.9632 32.905 13.8989 32.6127 12.7078 34.6757Z" fill="#966D7D" style="fill:#966D7D;fill:color(display-p3 0.5882 0.4275 0.4902);fill-opacity:1;"/>
<path d="M14.2237 35.313L14.2241 35.3138C14.5901 35.1072 15.0652 35.1285 15.585 35.4285C16.7415 36.0962 17.679 37.8876 17.679 39.4295C17.679 40.2699 17.4002 40.8619 16.9596 41.1194L16.9599 41.1202L15.8203 41.7747L13.0857 35.9663L14.2237 35.313Z" fill="url(#paint3_linear_5922_98149)" style=""/>
<path d="M12.3632 37.6586C12.3632 36.1165 13.3007 35.4078 14.4572 36.0755C15.6137 36.7433 16.5512 38.5346 16.5512 40.0765C16.5512 41.6185 15.6137 42.3272 14.4572 41.6596C13.3008 40.9919 12.3632 39.2006 12.3632 37.6586Z" fill="url(#paint4_linear_5922_98149)" style=""/>
<path d="M3.83414 8.97656L5.22738 10.9907L7.66828 11.1902L6.62051 13.4039L7.66828 15.6175L5.22738 15.817L3.83414 17.8311L2.4409 15.817L0 15.6175L1.04766 13.4039L0 11.1902L2.4409 10.9907L3.83414 8.97656Z" fill="#F7E041" style="fill:#F7E041;fill:color(display-p3 0.9686 0.8784 0.2549);fill-opacity:1;"/>
</g>
<defs>
<linearGradient id="paint0_linear_5922_98149" x1="3.77878" y1="5.33087" x2="39.738" y2="30.4146" gradientUnits="userSpaceOnUse">
<stop stop-color="#43386B" style="stop-color:#43386B;stop-color:color(display-p3 0.2627 0.2196 0.4196);stop-opacity:1;"/>
<stop offset="0.3794" stop-color="#554687" style="stop-color:#554687;stop-color:color(display-p3 0.3333 0.2745 0.5294);stop-opacity:1;"/>
<stop offset="1" stop-color="#7662BD" style="stop-color:#7662BD;stop-color:color(display-p3 0.4627 0.3843 0.7412);stop-opacity:1;"/>
</linearGradient>
<linearGradient id="paint1_linear_5922_98149" x1="57.7998" y1="45.1638" x2="44.3194" y2="5.08398" gradientUnits="userSpaceOnUse">
<stop stop-color="#43386B" style="stop-color:#43386B;stop-color:color(display-p3 0.2627 0.2196 0.4196);stop-opacity:1;"/>
<stop offset="0.3794" stop-color="#554687" style="stop-color:#554687;stop-color:color(display-p3 0.3333 0.2745 0.5294);stop-opacity:1;"/>
<stop offset="1" stop-color="#7662BD" style="stop-color:#7662BD;stop-color:color(display-p3 0.4627 0.3843 0.7412);stop-opacity:1;"/>
</linearGradient>
<linearGradient id="paint2_linear_5922_98149" x1="45.5942" y1="7.23132" x2="57.8776" y2="30.5285" gradientUnits="userSpaceOnUse">
<stop stop-color="#43386B" style="stop-color:#43386B;stop-color:color(display-p3 0.2627 0.2196 0.4196);stop-opacity:1;"/>
<stop offset="0.3794" stop-color="#554687" style="stop-color:#554687;stop-color:color(display-p3 0.3333 0.2745 0.5294);stop-opacity:1;"/>
<stop offset="1" stop-color="#7662BD" style="stop-color:#7662BD;stop-color:color(display-p3 0.4627 0.3843 0.7412);stop-opacity:1;"/>
</linearGradient>
<linearGradient id="paint3_linear_5922_98149" x1="16.0033" y1="38.6718" x2="14.11" y2="35.3924" gradientUnits="userSpaceOnUse">
<stop stop-color="#D7D1EB" style="stop-color:#D7D1EB;stop-color:color(display-p3 0.8431 0.8196 0.9216);stop-opacity:1;"/>
<stop offset="0.8296" stop-color="#E9E5F6" style="stop-color:#E9E5F6;stop-color:color(display-p3 0.9137 0.8980 0.9647);stop-opacity:1;"/>
<stop offset="1" stop-color="#D7D1EB" style="stop-color:#D7D1EB;stop-color:color(display-p3 0.8431 0.8196 0.9216);stop-opacity:1;"/>
</linearGradient>
<linearGradient id="paint4_linear_5922_98149" x1="14.4572" y1="42.1176" x2="14.4572" y2="36.9511" gradientUnits="userSpaceOnUse">
<stop stop-color="#DFDAEF" style="stop-color:#DFDAEF;stop-color:color(display-p3 0.8745 0.8549 0.9373);stop-opacity:1;"/>
<stop offset="1" stop-color="#F2EFFA" style="stop-color:#F2EFFA;stop-color:color(display-p3 0.9490 0.9373 0.9804);stop-opacity:1;"/>
</linearGradient>
<clipPath id="clip0_5922_98149">
<rect width="60" height="60" fill="white" style="fill:white;fill-opacity:1;"/>
</clipPath>
</defs>
</svg>
