<svg width="60" height="60" viewBox="0 0 60 60" fill="none" xmlns="http://www.w3.org/2000/svg">
<path d="M35.406 5.19122L34.4731 4.64384C34.0677 4.40677 33.5141 4.48986 32.9418 4.94384L12.3789 21.2555C11.3573 22.0659 10.6634 23.7494 10.8288 25.0158L15.1628 58.1996C15.2357 58.758 15.4638 59.1415 15.7834 59.3269L16.6915 59.8551L35.406 5.19122Z" fill="url(#paint0_linear_9370_126096)" style=""/>
<path d="M33.8802 5.48815L13.3173 21.7998C12.2958 22.6101 11.6018 24.2937 11.7673 25.5603L16.1013 58.744C16.2666 60.0105 17.2288 60.3803 18.2504 59.5699L38.8133 43.2583C39.8348 42.4479 40.5288 40.7644 40.3633 39.4978L36.0293 6.31409C35.864 5.04764 34.9018 4.6778 33.8802 5.48815Z" fill="url(#paint1_linear_9370_126096)" style=""/>
<path d="M17.0923 27.3377C16.6196 27.1398 15.951 27.6643 15.6072 28.4984C15.1305 28.3152 14.4633 28.8502 14.1262 29.6906C13.7962 30.5132 13.9203 31.3136 14.3888 31.4936L15.8917 32.0714C15.9975 32.112 16.1453 31.9948 16.2216 31.8097L17.3057 29.1799C17.6437 28.3599 17.5551 27.5314 17.0923 27.3377Z" fill="#FF4757" style="fill:#FF4757;fill:color(display-p3 1.0000 0.2784 0.3412);fill-opacity:1;"/>
<path d="M35.0385 37.7201C35.5113 37.9181 36.1798 37.3935 36.5236 36.5594C37.0004 36.7427 37.6674 36.2076 38.0047 35.3672C38.3347 34.5446 38.2106 33.7443 37.742 33.5642L36.2391 32.9866C36.1333 32.9459 35.9855 33.0631 35.9092 33.2483L34.8252 35.8781C34.487 36.6978 34.5756 37.5264 35.0385 37.7201Z" fill="#FF4757" style="fill:#FF4757;fill:color(display-p3 1.0000 0.2784 0.3412);fill-opacity:1;"/>
<path d="M13.2829 27.8832C13.3971 27.5602 13.6427 27.3267 13.8405 27.3525C14.0133 27.375 14.1892 27.3162 14.3736 27.1699C14.7636 26.8605 14.9298 26.4084 14.855 25.8355L14.5315 23.3578L13.4452 24.2195C13.2299 24.3904 13.0269 24.3124 12.992 24.0452C12.957 23.7782 13.1034 23.4231 13.3189 23.2521L15.3713 21.624L15.8126 25.0021C15.9807 26.2893 15.5411 27.336 14.5509 28.1215C14.157 28.4339 13.7782 28.5902 13.4595 28.5716C13.2381 28.5587 13.158 28.2368 13.2829 27.8832Z" fill="#FF4757" style="fill:#FF4757;fill:color(display-p3 1.0000 0.2784 0.3412);fill-opacity:1;"/>
<path d="M38.8479 37.1742C38.7337 37.4973 38.4881 37.7308 38.2902 37.7049C38.1176 37.6822 37.9417 37.7411 37.7572 37.8874C37.3671 38.1969 37.2009 38.6489 37.2758 39.2218L37.5993 41.6997L38.6856 40.838C38.9011 40.6671 39.1039 40.745 39.1388 41.0122C39.1738 41.2793 39.0274 41.6344 38.8119 41.8054L36.7595 43.4334L36.3183 40.0553C36.1501 38.7681 36.5897 37.7215 37.5798 36.936C37.9736 36.6234 38.3525 36.4672 38.6713 36.4859C38.8927 36.4986 38.9727 36.8206 38.8479 37.1742Z" fill="#FF4757" style="fill:#FF4757;fill:color(display-p3 1.0000 0.2784 0.3412);fill-opacity:1;"/>
<path d="M22.6086 29.0645L21.907 29.621L23.2187 37.2636L26.3217 30.1564L22.6086 29.0645Z" fill="#FF4757" style="fill:#FF4757;fill:color(display-p3 1.0000 0.2784 0.3412);fill-opacity:1;"/>
<path d="M27.6218 17.8926L28.1351 21.8222C28.5094 21.5253 28.862 21.6609 28.9226 22.1249L28.9719 22.5024C28.9916 22.653 28.9395 22.8456 28.8381 22.9971C28.7468 23.1336 28.6295 23.2157 28.5284 23.2141L27.7312 23.2015L27.6218 17.8926Z" fill="#F7E041" style="fill:#F7E041;fill:color(display-p3 0.9686 0.8784 0.2549);fill-opacity:1;"/>
<path d="M23.9592 26.445C24.0591 27.2094 23.6402 28.2255 23.0237 28.7146L22.0472 29.4892C21.4371 29.9732 20.8624 29.7523 20.7638 28.9958C20.7288 28.728 20.8756 28.3721 21.0915 28.2008L20.4846 23.5543L23.291 21.3281L23.9592 26.445Z" fill="#F7E041" style="fill:#F7E041;fill:color(display-p3 0.9686 0.8784 0.2549);fill-opacity:1;"/>
<path d="M27.6217 17.8927L28.2763 12.6865L19.0239 20.0261L20.4844 23.5545L27.6217 17.8927Z" fill="#FF4757" style="fill:#FF4757;fill:color(display-p3 1.0000 0.2784 0.3412);fill-opacity:1;"/>
<path d="M22.2451 29.3677L23.2151 36.795L21.1433 41.6723L19.7947 31.3471L20.7273 29.085L20.9344 29.4821C20.9346 29.482 21.2957 30.1208 22.2451 29.3677Z" fill="#F7E041" style="fill:#F7E041;fill:color(display-p3 0.9686 0.8784 0.2549);fill-opacity:1;"/>
<path d="M25.7912 30.7307L22.2451 29.3678L23.1292 28.6316L23.6421 28.0654L25.5566 28.8012L27.7208 23.2919L28.9861 23.21C28.9861 23.21 25.8019 30.8123 25.7912 30.7307Z" fill="#43386B" style="fill:#43386B;fill:color(display-p3 0.2627 0.2196 0.4196);fill-opacity:1;"/>
<path d="M26.5799 25.254L26.1535 25.5922C25.716 25.9393 25.2746 26.1788 24.8414 26.3044L23.9413 26.5653C23.9076 26.575 23.8817 26.5537 23.8762 26.5114L23.2079 21.3946C23.2005 21.3379 23.2315 21.2624 23.2774 21.2262L27.6083 17.7908C27.6322 17.7718 27.6565 17.7665 27.6752 17.7763C27.6938 17.7862 27.7048 17.8101 27.7055 17.842L27.8029 22.5783C27.8227 23.5351 27.2969 24.6854 26.5799 25.254ZM24.0329 26.3098L24.8769 26.0652C25.2896 25.9456 25.7101 25.7174 26.1268 25.3868L26.5532 25.0485C27.1874 24.5454 27.6527 23.5277 27.6353 22.6812L27.5405 18.0712L23.3872 21.3659L24.0329 26.3098Z" fill="#43386B" style="fill:#43386B;fill:color(display-p3 0.2627 0.2196 0.4196);fill-opacity:1;"/>
<path d="M23.0372 28.8171L22.0606 29.5917C21.4059 30.1111 20.7869 29.8732 20.6809 29.0614C20.6431 28.7726 20.7807 28.3974 20.9963 28.1727L20.4017 23.6199C20.3943 23.5632 20.4254 23.4878 20.4712 23.4515L23.2776 21.2253C23.3234 21.189 23.3664 21.2055 23.3739 21.2622L24.0423 26.379C24.1493 27.1988 23.6983 28.2926 23.0372 28.8171ZM20.5809 23.5911L21.1743 28.1349C21.1817 28.1917 21.1507 28.2671 21.1048 28.3033C20.9349 28.4381 20.819 28.7192 20.8466 28.9299C20.9379 29.6285 21.4704 29.8332 22.0337 29.3863L23.0102 28.6117C23.5801 28.1597 23.9686 27.217 23.8763 26.5105L23.2215 21.4964L20.5809 23.5911Z" fill="#43386B" style="fill:#43386B;fill:color(display-p3 0.2627 0.2196 0.4196);fill-opacity:1;"/>
<path d="M23.0691 27.9024C23.0192 27.942 22.9705 27.9647 22.9232 27.9704C22.7463 27.9916 22.6712 27.7581 22.6632 27.7313C22.6483 27.6816 22.6716 27.6049 22.7154 27.5597C22.7589 27.5143 22.8068 27.5178 22.822 27.5673C22.8368 27.6154 22.8936 27.7379 22.9781 27.7275C23.0252 27.7216 23.0788 27.6743 23.1418 27.5826C23.2452 27.4323 23.2796 27.2193 23.2254 27.0649C23.1666 26.8975 22.9975 26.8031 22.6991 27.0398L21.1045 28.3047C21.0587 28.3411 21.0157 28.3245 21.0082 28.2678C21.0008 28.2111 21.0318 28.1356 21.0777 28.0994L22.6722 26.8345C23.07 26.519 23.3029 26.6691 23.3817 26.8936C23.4649 27.1307 23.4041 27.4691 23.2339 27.7166C23.178 27.7975 23.1229 27.8598 23.0691 27.9024Z" fill="#43386B" style="fill:#43386B;fill:color(display-p3 0.2627 0.2196 0.4196);fill-opacity:1;"/>
<path d="M23.1937 26.9143C23.1479 26.9506 23.1049 26.9341 23.0974 26.8774L22.4588 21.9885C22.4515 21.9317 22.4825 21.8564 22.5283 21.8201C22.574 21.7837 22.6172 21.8003 22.6247 21.857L23.2632 26.7459C23.2706 26.8026 23.2394 26.878 23.1937 26.9143Z" fill="#43386B" style="fill:#43386B;fill:color(display-p3 0.2627 0.2196 0.4196);fill-opacity:1;"/>
<path d="M22.3663 27.3028C22.3206 27.3392 22.2775 27.3226 22.27 27.2658L21.6632 22.6193C21.6558 22.5626 21.6869 22.4871 21.7327 22.4509C21.7785 22.4146 21.8215 22.4311 21.829 22.4878L22.4359 27.1343C22.4432 27.1912 22.4121 27.2665 22.3663 27.3028Z" fill="#43386B" style="fill:#43386B;fill:color(display-p3 0.2627 0.2196 0.4196);fill-opacity:1;"/>
<path d="M21.6756 27.8507C21.6299 27.887 21.5868 27.8705 21.5793 27.8137L20.9725 23.1672C20.9651 23.1104 20.9962 23.035 21.042 22.9988C21.0877 22.9624 21.1308 22.979 21.1383 23.0357L21.7451 27.6822C21.7525 27.739 21.7213 27.8145 21.6756 27.8507Z" fill="#43386B" style="fill:#43386B;fill:color(display-p3 0.2627 0.2196 0.4196);fill-opacity:1;"/>
<path d="M23.037 28.8174C23.0307 28.8223 23.0244 28.8264 23.0179 28.8296C22.553 29.0563 22.2361 29.035 22.0763 28.7662C21.8129 28.3232 22.0833 27.3808 22.0949 27.341C22.1145 27.2738 22.1645 27.2207 22.2063 27.2227C22.2484 27.2246 22.2666 27.2806 22.247 27.3479C22.2445 27.3564 22.0025 28.2031 22.2211 28.5695C22.3512 28.7876 22.6231 28.7978 23.029 28.5998C23.0753 28.5772 23.1102 28.6103 23.1072 28.6738C23.1046 28.7285 23.0747 28.7875 23.037 28.8174Z" fill="#43386B" style="fill:#43386B;fill:color(display-p3 0.2627 0.2196 0.4196);fill-opacity:1;"/>
<path d="M22.0605 29.5923C22.0508 29.6 22.0407 29.6057 22.0306 29.6088C21.6794 29.7176 21.4286 29.6456 21.2853 29.395C21.0268 28.9428 21.2171 28.078 21.2253 28.0414C21.2404 27.9743 21.288 27.9159 21.3319 27.9105C21.3758 27.9053 21.3991 27.9554 21.3841 28.0225C21.3823 28.0304 21.2107 28.8155 21.4314 29.2002C21.5497 29.4063 21.7624 29.4635 22.0637 29.3702C22.1091 29.3562 22.1386 29.3981 22.1294 29.464C22.1223 29.5152 22.094 29.5657 22.0605 29.5923Z" fill="#43386B" style="fill:#43386B;fill:color(display-p3 0.2627 0.2196 0.4196);fill-opacity:1;"/>
<path d="M27.6351 17.9953L20.4978 23.657C20.4602 23.6869 20.4231 23.6815 20.4077 23.6441L18.9472 20.1157C18.9366 20.0902 18.9377 20.053 18.95 20.0154C18.9624 19.9777 18.9847 19.9437 19.0104 19.9233L28.2629 12.5837C28.2898 12.5624 28.3171 12.5585 28.3362 12.5734C28.3553 12.5883 28.3638 12.6202 28.3588 12.6586L27.7042 17.8648C27.6979 17.9153 27.6703 17.9675 27.6351 17.9953ZM20.5348 23.4011L27.5498 17.8364L28.1728 12.8821L19.1451 20.0434L20.5348 23.4011Z" fill="#43386B" style="fill:#43386B;fill:color(display-p3 0.2627 0.2196 0.4196);fill-opacity:1;"/>
<path d="M21.6941 45.8918C21.6834 45.9002 21.6723 45.9063 21.6614 45.9091C21.6283 45.9178 21.6033 45.8964 21.5978 45.8549L19.7115 31.4129C19.708 31.3856 19.7133 31.3527 19.7263 31.3211L20.6953 28.9705C20.7224 28.9047 20.7749 28.8632 20.8125 28.8776C20.8501 28.892 20.8585 28.957 20.8315 29.0228L19.8828 31.324L21.7311 45.4754L30.8419 23.3733L27.6423 23.3034C27.6001 23.3025 27.5811 23.2472 27.6001 23.1798C27.6191 23.1124 27.6685 23.0588 27.7111 23.0596L31.0045 23.1314C31.0275 23.1319 31.0446 23.1489 31.0512 23.1776C31.0577 23.2063 31.0529 23.2438 31.0382 23.2795L21.7487 45.8153C21.7355 45.8476 21.7157 45.8748 21.6941 45.8918Z" fill="#43386B" style="fill:#43386B;fill:color(display-p3 0.2627 0.2196 0.4196);fill-opacity:1;"/>
<path d="M25.5699 28.9033C25.5479 28.9208 25.5255 28.9266 25.5074 28.9197L23.5346 28.1615C23.497 28.1471 23.4885 28.082 23.5156 28.0162C23.5427 27.9504 23.5952 27.9088 23.6328 27.9233L25.5346 28.6543L27.2767 24.1261C27.3023 24.0598 27.3544 24.0156 27.393 24.0272C27.4317 24.039 27.4424 24.1021 27.4169 24.1685L25.6266 28.8217C25.6141 28.8544 25.5942 28.8834 25.5717 28.9019C25.5711 28.9025 25.5705 28.9028 25.5699 28.9033Z" fill="#43386B" style="fill:#43386B;fill:color(display-p3 0.2627 0.2196 0.4196);fill-opacity:1;"/>
<path d="M28.7223 23.244C28.646 23.3046 28.5664 23.338 28.4941 23.3368L27.6969 23.3242C27.6674 23.3237 27.6479 23.2963 27.6471 23.2538L27.5379 17.9449C27.5367 17.8867 27.5713 17.8155 27.6139 17.7866C27.6579 17.7557 27.6976 17.7736 27.7046 17.8277L28.2051 21.6602C28.5924 21.4097 28.942 21.5748 29.0054 22.0601L29.0547 22.4375C29.0795 22.6269 29.0131 22.8723 28.8855 23.0629C28.8362 23.1366 28.7802 23.1981 28.7223 23.244ZM27.8134 23.0813L28.5623 23.0931C28.6363 23.0943 28.7237 23.0331 28.7904 22.9334C28.8647 22.8223 28.9033 22.6793 28.8889 22.569L28.8396 22.1916C28.7865 21.7848 28.4764 21.6656 28.1483 21.9259C28.1026 21.9622 28.0595 21.9457 28.052 21.8889L27.7396 19.4965L27.8134 23.0813Z" fill="#43386B" style="fill:#43386B;fill:color(display-p3 0.2627 0.2196 0.4196);fill-opacity:1;"/>
<path d="M30.9705 23.2532L28.986 23.21L21.1433 41.6722L21.6847 45.8171L30.9705 23.2532Z" fill="#43386B" style="fill:#43386B;fill:color(display-p3 0.2627 0.2196 0.4196);fill-opacity:1;"/>
<path d="M23.2415 36.9968C23.1958 37.0331 23.1527 37.0166 23.1452 36.9599L22.1622 29.4338C22.1548 29.377 22.1859 29.3016 22.2317 29.2654C22.2775 29.229 22.3205 29.2456 22.328 29.3023L23.311 36.8284C23.3184 36.8851 23.2872 36.9606 23.2415 36.9968Z" fill="#43386B" style="fill:#43386B;fill:color(display-p3 0.2627 0.2196 0.4196);fill-opacity:1;"/>
<path d="M26.364 21.9869L25.7144 22.5023C25.6687 22.5386 25.6255 22.5221 25.618 22.4654C25.6106 22.4087 25.6417 22.3332 25.6875 22.297L26.2544 21.8473L26.0901 20.5896C26.0387 20.1965 26.2549 19.672 26.5719 19.4205L27.1824 18.9363C27.2282 18.8999 27.2712 18.9165 27.2787 18.9732C27.2861 19.0299 27.255 19.1054 27.2092 19.1416L26.5987 19.6258C26.373 19.8047 26.2191 20.1781 26.2556 20.4579L26.4333 21.8184C26.4409 21.8752 26.4097 21.9506 26.364 21.9869Z" fill="#43386B" style="fill:#43386B;fill:color(display-p3 0.2627 0.2196 0.4196);fill-opacity:1;"/>
<path d="M25.1813 20.75L23.9214 21.7494C23.8757 21.7857 23.8326 21.7692 23.8251 21.7124C23.8177 21.6557 23.8487 21.5803 23.8946 21.544L25.1544 20.5447C25.2001 20.5083 25.2433 20.5249 25.2508 20.5816C25.2583 20.6383 25.2271 20.7138 25.1813 20.75Z" fill="#43386B" style="fill:#43386B;fill:color(display-p3 0.2627 0.2196 0.4196);fill-opacity:1;"/>
<path d="M26.0685 23.3955L25.386 23.9369C25.3403 23.9732 25.2972 23.9567 25.2897 23.9C25.2823 23.8433 25.3133 23.7678 25.3592 23.7316L26.0417 23.1902C26.0874 23.1538 26.1305 23.1704 26.138 23.2271C26.1454 23.2838 26.1143 23.3593 26.0685 23.3955Z" fill="#43386B" style="fill:#43386B;fill:color(display-p3 0.2627 0.2196 0.4196);fill-opacity:1;"/>
<path d="M26.4919 20.0283C26.4708 19.8665 26.5594 19.6515 26.6898 19.548C26.8202 19.4445 26.9432 19.4918 26.9643 19.6535C26.9854 19.8152 26.8968 20.0302 26.7663 20.1337C26.6359 20.2373 26.513 20.1901 26.4919 20.0283Z" fill="#43386B" style="fill:#43386B;fill:color(display-p3 0.2627 0.2196 0.4196);fill-opacity:1;"/>
<path d="M24.3527 21.7255C24.3316 21.5638 24.4202 21.3488 24.5506 21.2453C24.6811 21.1418 24.804 21.189 24.8251 21.3507C24.8462 21.5125 24.7576 21.7275 24.6272 21.831C24.4967 21.9345 24.3739 21.8872 24.3527 21.7255Z" fill="#43386B" style="fill:#43386B;fill:color(display-p3 0.2627 0.2196 0.4196);fill-opacity:1;"/>
<path d="M29.5222 35.9921L30.2239 35.4355L28.9121 27.793L25.8091 34.9L29.5222 35.9921Z" fill="#FF4757" style="fill:#FF4757;fill:color(display-p3 1.0000 0.2784 0.3412);fill-opacity:1;"/>
<path d="M24.509 47.1633L23.9957 43.2337C23.6214 43.5306 23.2688 43.395 23.2082 42.931L23.1589 42.5535C23.1392 42.4029 23.1914 42.2103 23.2927 42.0587C23.384 41.9223 23.5013 41.8402 23.6024 41.8418L24.3997 41.8544L24.509 47.1633Z" fill="#F7E041" style="fill:#F7E041;fill:color(display-p3 0.9686 0.8784 0.2549);fill-opacity:1;"/>
<path d="M28.1717 38.6113C28.0719 37.8469 28.4908 36.8307 29.1073 36.3417L30.0838 35.5671C30.6939 35.0831 31.2685 35.304 31.3673 36.0605C31.4022 36.3282 31.2555 36.6841 31.0395 36.8555L31.6464 41.5019L28.84 43.7282L28.1717 38.6113Z" fill="#F7E041" style="fill:#F7E041;fill:color(display-p3 0.9686 0.8784 0.2549);fill-opacity:1;"/>
<path d="M24.5089 47.1636L23.8542 52.3698L33.1067 45.0304L31.6462 41.502L24.5089 47.1636Z" fill="#FF4757" style="fill:#FF4757;fill:color(display-p3 1.0000 0.2784 0.3412);fill-opacity:1;"/>
<path d="M29.8856 35.6893L28.9155 28.2621L30.9874 23.3848L32.3359 33.7099L31.4033 35.9721L31.1961 35.575C31.1961 35.575 30.8351 34.9362 29.8856 35.6893Z" fill="#F7E041" style="fill:#F7E041;fill:color(display-p3 0.9686 0.8784 0.2549);fill-opacity:1;"/>
<path d="M26.3397 34.3258L29.8858 35.6887L29.0017 36.4249L28.4888 36.9912L26.5743 36.2553L24.41 41.7646L23.1448 41.8465C23.1448 41.8465 26.329 34.2443 26.3397 34.3258Z" fill="#43386B" style="fill:#43386B;fill:color(display-p3 0.2627 0.2196 0.4196);fill-opacity:1;"/>
<path d="M28.8532 43.8308L24.5223 47.2662C24.4984 47.2852 24.4741 47.2905 24.4554 47.2806C24.4368 47.2708 24.4258 47.2469 24.4251 47.215L24.3277 42.4787C24.308 41.5221 24.8338 40.3717 25.5508 39.803L25.9772 39.4647C26.4147 39.1177 26.8561 38.8781 27.2894 38.7524L28.1894 38.4916C28.2231 38.4819 28.249 38.5032 28.2545 38.5455L28.9228 43.6622C28.9301 43.7191 28.8991 43.7944 28.8532 43.8308ZM24.5902 46.9857L28.7435 43.6911L28.0978 38.7472L27.254 38.9919C26.8412 39.1115 26.4207 39.3398 26.0041 39.6703L25.5776 40.0085C24.9433 40.5117 24.478 41.5294 24.4955 42.3758L24.5902 46.9857Z" fill="#43386B" style="fill:#43386B;fill:color(display-p3 0.2627 0.2196 0.4196);fill-opacity:1;"/>
<path d="M31.6598 41.6047L28.8534 43.8309C28.8077 43.8672 28.7646 43.8507 28.7571 43.794L28.0887 38.6772C27.9816 37.8574 28.4326 36.7637 29.0937 36.2391L30.0701 35.4645C30.7249 34.9451 31.3439 35.183 31.4499 35.9948C31.4876 36.2837 31.3501 36.6588 31.1344 36.8835L31.7291 41.4363C31.7367 41.493 31.7056 41.5683 31.6598 41.6047ZM28.9094 43.5597L31.5501 41.465L30.9567 36.9213C30.9493 36.8646 30.9803 36.7891 31.0262 36.7529C31.1961 36.6181 31.3119 36.337 31.2844 36.1263C31.1932 35.4277 30.6607 35.223 30.0972 35.6699L29.1208 36.4446C28.5509 36.8967 28.1624 37.8392 28.2547 38.5457L28.9094 43.5597Z" fill="#43386B" style="fill:#43386B;fill:color(display-p3 0.2627 0.2196 0.4196);fill-opacity:1;"/>
<path d="M31.0529 36.9582L29.4583 38.2231C29.0607 38.5386 28.8276 38.3885 28.7489 38.1641C28.6657 37.9269 28.7264 37.5885 28.8966 37.3411C29.0046 37.1842 29.1091 37.0986 29.2074 37.0868C29.3844 37.0657 29.4595 37.2991 29.4676 37.3258C29.4825 37.3755 29.4591 37.4523 29.4154 37.4976C29.3717 37.5429 29.3239 37.5396 29.3088 37.49C29.294 37.442 29.2372 37.3194 29.1526 37.3299C29.1056 37.3357 29.0519 37.3831 28.9889 37.4748C28.8855 37.6251 28.8512 37.8379 28.9053 37.9925C28.964 38.1599 29.1331 38.2543 29.4316 38.0176L31.0262 36.7527C31.0719 36.7163 31.115 36.7329 31.1225 36.7896C31.1298 36.8465 31.0986 36.9219 31.0529 36.9582Z" fill="#43386B" style="fill:#43386B;fill:color(display-p3 0.2627 0.2196 0.4196);fill-opacity:1;"/>
<path d="M29.6024 43.2367C29.5567 43.273 29.5136 43.2565 29.5061 43.1997L28.8675 38.3107C28.8602 38.254 28.8912 38.1785 28.937 38.1423C28.9827 38.106 29.0259 38.1225 29.0334 38.1792L29.6719 43.0682C29.6793 43.125 29.6482 43.2004 29.6024 43.2367Z" fill="#43386B" style="fill:#43386B;fill:color(display-p3 0.2627 0.2196 0.4196);fill-opacity:1;"/>
<path d="M30.3981 42.6054C30.3524 42.6418 30.3092 42.6253 30.3017 42.5685L29.6949 37.922C29.6876 37.8653 29.7186 37.7899 29.7644 37.7537C29.8101 37.7173 29.8533 37.7338 29.8608 37.7906L30.4675 42.4371C30.4749 42.4937 30.4438 42.5691 30.3981 42.6054Z" fill="#43386B" style="fill:#43386B;fill:color(display-p3 0.2627 0.2196 0.4196);fill-opacity:1;"/>
<path d="M31.0887 42.0576C31.0429 42.0939 30.9999 42.0774 30.9924 42.0207L30.3856 37.3742C30.3782 37.3175 30.4093 37.242 30.4551 37.2058C30.5008 37.1695 30.5439 37.186 30.5514 37.2427L31.1582 41.8892C31.1656 41.9459 31.1346 42.0214 31.0887 42.0576Z" fill="#43386B" style="fill:#43386B;fill:color(display-p3 0.2627 0.2196 0.4196);fill-opacity:1;"/>
<path d="M29.9731 37.8147C29.957 37.8273 29.94 37.8345 29.9242 37.8338C29.8821 37.8319 29.864 37.7759 29.8835 37.7085C29.886 37.7001 30.128 36.8532 29.9093 36.4868C29.7793 36.2686 29.5075 36.2584 29.1014 36.4566C29.0552 36.4791 29.0202 36.4461 29.0234 36.3825C29.0266 36.3191 29.0664 36.2495 29.1128 36.2268C29.5777 36 29.8946 36.0214 30.0543 36.2902C30.3176 36.7332 30.0473 37.6756 30.0357 37.7155C30.0235 37.7573 29.9996 37.7936 29.9731 37.8147Z" fill="#43386B" style="fill:#43386B;fill:color(display-p3 0.2627 0.2196 0.4196);fill-opacity:1;"/>
<path d="M30.8397 37.127C30.8264 37.1374 30.8126 37.1442 30.799 37.1457C30.7552 37.151 30.7319 37.1009 30.7469 37.0338C30.7486 37.0259 30.9203 36.2408 30.6995 35.8561C30.5813 35.65 30.3685 35.5928 30.0672 35.6861C30.0217 35.7001 29.9923 35.6582 30.0014 35.5923C30.0104 35.5266 30.055 35.4618 30.1002 35.4476C30.4514 35.3388 30.7022 35.4108 30.8455 35.6616C31.104 36.1137 30.9138 36.9784 30.9055 37.015C30.8951 37.0612 30.8691 37.1035 30.8397 37.127Z" fill="#43386B" style="fill:#43386B;fill:color(display-p3 0.2627 0.2196 0.4196);fill-opacity:1;"/>
<path d="M33.1203 45.1337L23.8679 52.4733C23.8409 52.4946 23.8137 52.4985 23.7945 52.4836C23.7754 52.4687 23.767 52.4369 23.7719 52.3984L24.4266 47.1923C24.4329 47.1419 24.4607 47.0896 24.4958 47.0618L31.6331 41.4001C31.6707 41.3703 31.7076 41.3755 31.7232 41.413L33.1837 44.9414C33.1942 44.9671 33.1932 45.0041 33.1809 45.0417C33.1682 45.0794 33.1459 45.1133 33.1203 45.1337ZM23.9581 52.1751L32.9859 45.0137L31.596 41.6561L24.5811 47.2207L23.9581 52.1751Z" fill="#43386B" style="fill:#43386B;fill:color(display-p3 0.2627 0.2196 0.4196);fill-opacity:1;"/>
<path d="M24.4672 41.9779C24.4516 41.9903 24.435 41.9973 24.4194 41.997L21.1259 41.9251C21.103 41.9247 21.0859 41.9077 21.0793 41.879C21.0727 41.8503 21.0775 41.8128 21.0923 41.777L30.3818 19.2413C30.4016 19.193 30.4362 19.156 30.4691 19.1474C30.5021 19.1387 30.5272 19.1602 30.5327 19.2017L32.4189 33.6436C32.4225 33.6709 32.4172 33.7039 32.4042 33.7355L31.4353 36.086C31.4081 36.1519 31.3556 36.1934 31.3181 36.179C31.2805 36.1646 31.272 36.0995 31.2991 36.0338L32.2476 33.7326L30.3993 19.5811L21.2886 41.6832L24.4882 41.753C24.5303 41.7539 24.5493 41.8093 24.5303 41.8766C24.5184 41.9194 24.4941 41.9566 24.4672 41.9779Z" fill="#43386B" style="fill:#43386B;fill:color(display-p3 0.2627 0.2196 0.4196);fill-opacity:1;"/>
<path d="M24.7975 41.0116C24.7775 41.0276 24.7561 41.0345 24.738 41.029C24.6993 41.0173 24.6885 40.9541 24.7141 40.8878L26.5043 36.2345C26.5169 36.2018 26.5368 36.1729 26.5593 36.1543C26.583 36.1362 26.605 36.1294 26.6235 36.1367L28.5964 36.8949C28.634 36.9093 28.6424 36.9743 28.6154 37.04C28.5883 37.1058 28.5358 37.1474 28.4982 37.133L26.5963 36.402L24.8542 40.9301C24.8407 40.9651 24.8199 40.994 24.7975 41.0116Z" fill="#43386B" style="fill:#43386B;fill:color(display-p3 0.2627 0.2196 0.4196);fill-opacity:1;"/>
<path d="M24.5225 47.2658C24.5206 47.2672 24.5187 47.2687 24.5169 47.27C24.4729 47.3009 24.4332 47.2829 24.4262 47.2289L23.9256 43.3965C23.5383 43.647 23.1888 43.4819 23.1255 42.9966L23.0762 42.6191C23.0514 42.4297 23.1178 42.1843 23.2453 41.9939C23.36 41.8226 23.5098 41.7176 23.6367 41.7198L24.4339 41.7324C24.4634 41.7329 24.4829 41.7603 24.4837 41.8028L24.5929 47.1117C24.594 47.1673 24.5636 47.2331 24.5225 47.2658ZM23.4355 42.0178C23.4017 42.0445 23.3691 42.0803 23.3403 42.1234C23.266 42.2343 23.2273 42.3773 23.2417 42.4877L23.2911 42.8653C23.3442 43.272 23.6542 43.3912 23.9824 43.131C24.0281 43.0947 24.0712 43.1112 24.0787 43.168L24.3911 45.5603L24.3174 41.9757L23.5685 41.9639C23.5263 41.9629 23.48 41.9824 23.4355 42.0178Z" fill="#43386B" style="fill:#43386B;fill:color(display-p3 0.2627 0.2196 0.4196);fill-opacity:1;"/>
<path d="M21.1604 41.803L23.1449 41.8464L30.9875 23.3841L30.4462 19.2393L21.1604 41.803Z" fill="#43386B" style="fill:#43386B;fill:color(display-p3 0.2627 0.2196 0.4196);fill-opacity:1;"/>
<path d="M29.8992 35.7927C29.8534 35.829 29.8104 35.8125 29.8029 35.7558L28.8199 28.2297C28.8126 28.1729 28.8436 28.0975 28.8894 28.0613C28.9351 28.0249 28.9783 28.0415 28.9858 28.0983L29.9687 35.6244C29.9761 35.681 29.9449 35.7564 29.8992 35.7927Z" fill="#43386B" style="fill:#43386B;fill:color(display-p3 0.2627 0.2196 0.4196);fill-opacity:1;"/>
<path d="M25.5588 45.636L24.9482 46.1203C24.9024 46.1567 24.8594 46.1401 24.8519 46.0834C24.8445 46.0267 24.8756 45.9512 24.9214 45.915L25.532 45.4307C25.7575 45.2517 25.9115 44.8783 25.875 44.5985L25.6973 43.2381C25.6899 43.1814 25.721 43.1059 25.7668 43.0697L26.4164 42.5544C26.4621 42.5181 26.5052 42.5346 26.5127 42.5913C26.5201 42.6481 26.489 42.7235 26.4432 42.7597L25.8765 43.2093L26.0408 44.4671C26.0921 44.8601 25.8758 45.3845 25.5588 45.636Z" fill="#43386B" style="fill:#43386B;fill:color(display-p3 0.2627 0.2196 0.4196);fill-opacity:1;"/>
<path d="M28.236 43.5117L26.9761 44.5111C26.9304 44.5474 26.8872 44.5309 26.8797 44.4742C26.8724 44.4174 26.9034 44.342 26.9492 44.3058L28.2091 43.3064C28.2549 43.2701 28.298 43.2866 28.3055 43.3433C28.3128 43.3999 28.2818 43.4754 28.236 43.5117Z" fill="#43386B" style="fill:#43386B;fill:color(display-p3 0.2627 0.2196 0.4196);fill-opacity:1;"/>
<path d="M26.7713 41.3242L26.0889 41.8655C26.0432 41.9018 26.0001 41.8853 25.9926 41.8286C25.9851 41.7719 26.0162 41.6964 26.0621 41.6602L26.7444 41.1189C26.7903 41.0826 26.8333 41.0991 26.8408 41.1558C26.8482 41.2125 26.8171 41.288 26.7713 41.3242Z" fill="#43386B" style="fill:#43386B;fill:color(display-p3 0.2627 0.2196 0.4196);fill-opacity:1;"/>
<path d="M25.6388 45.0285C25.6599 45.1902 25.5713 45.4052 25.4409 45.5087C25.3105 45.6122 25.1875 45.565 25.1664 45.4033C25.1453 45.2415 25.2339 45.0265 25.3644 44.923C25.4948 44.8195 25.6177 44.8668 25.6388 45.0285Z" fill="#43386B" style="fill:#43386B;fill:color(display-p3 0.2627 0.2196 0.4196);fill-opacity:1;"/>
<path d="M27.778 43.3313C27.7991 43.493 27.7105 43.7081 27.58 43.8115C27.4496 43.915 27.3267 43.8678 27.3056 43.7061C27.2845 43.5443 27.3731 43.3293 27.5035 43.2258C27.634 43.1222 27.7569 43.1695 27.778 43.3313Z" fill="#43386B" style="fill:#43386B;fill:color(display-p3 0.2627 0.2196 0.4196);fill-opacity:1;"/>
<path d="M29.2819 22.2363C29.2713 22.2448 29.2603 22.2506 29.2495 22.2535C29.2163 22.2625 29.1911 22.241 29.1857 22.1993L28.4276 16.3945C28.4241 16.3673 28.4293 16.3343 28.4423 16.3026L29.6237 13.4366C29.6435 13.3884 29.6782 13.3512 29.711 13.3427C29.7441 13.3341 29.7691 13.3555 29.7746 13.397L30.5291 19.1737C30.5326 19.2007 30.5275 19.2334 30.5147 19.2647L29.337 22.1587C29.3237 22.1914 29.3037 22.219 29.2819 22.2363ZM28.5988 16.3056L29.3187 21.817L30.3579 19.2632L29.6413 13.7764L28.5988 16.3056Z" fill="#43386B" style="fill:#43386B;fill:color(display-p3 0.2627 0.2196 0.4196);fill-opacity:1;"/>
<path d="M22.4307 51.5312C22.4201 51.5396 22.4089 51.5457 22.398 51.5486C22.365 51.5572 22.3399 51.5358 22.3344 51.4943L21.5799 45.7175C21.5764 45.6906 21.5816 45.6579 21.5943 45.6266L22.7721 42.7324C22.7918 42.684 22.8267 42.6465 22.8595 42.6377C22.8928 42.6288 22.918 42.6503 22.9234 42.692L23.6815 48.4968C23.685 48.5241 23.6797 48.557 23.6667 48.5886L22.4852 51.4547C22.4721 51.4868 22.4523 51.5141 22.4307 51.5312ZM21.7513 45.6281L22.4679 51.1147L23.5104 48.5856L22.7905 43.0741L21.7513 45.6281Z" fill="#43386B" style="fill:#43386B;fill:color(display-p3 0.2627 0.2196 0.4196);fill-opacity:1;"/>
<path d="M34.4729 4.64384C34.0676 4.40677 33.514 4.48986 32.9416 4.94384L21.2927 14.1844L22.9015 14.1979L23.7648 13.5139L35.4059 5.19111L34.4729 4.64384Z" fill="url(#paint2_linear_9370_126096)" style=""/>
<path d="M22.9016 14.198L19.8476 51.1335C19.7285 52.5728 20.4654 53.3872 21.4934 52.9523L32.3864 48.3447L38.8029 43.2548C39.8244 42.4444 40.5184 40.7609 40.3529 39.4943L36.0188 6.31082C35.9753 5.97836 35.8759 5.70953 35.736 5.50586L31.6809 7.22102L22.9016 14.198Z" fill="url(#paint3_linear_9370_126096)" style=""/>
<path d="M48.6172 0.683818L47.6943 0.146982L47.6934 0.148857C47.4131 -0.0302057 47.0541 -0.0556354 46.6485 0.115927L25.956 8.86854C24.9281 9.30331 23.9983 10.8225 23.8794 12.2618L20.7611 49.973C20.6879 50.8587 20.9396 51.5063 21.383 51.7732L21.3822 51.7748L22.2998 52.3092L48.6172 0.683818Z" fill="url(#paint4_linear_9370_126096)" style=""/>
<path d="M47.5375 0.577967L26.8449 9.3307C25.8169 9.76547 24.8871 11.2848 24.7682 12.724L21.6501 50.4352C21.531 51.8745 22.2679 52.6887 23.2959 52.2539L43.9885 43.5012C45.0164 43.0664 45.9462 41.5471 46.0652 40.1079L49.1833 2.39672C49.3022 0.95742 48.5653 0.143201 47.5375 0.577967Z" fill="url(#paint5_linear_9370_126096)" style=""/>
<path d="M28.7134 14.4737L26.7507 15.304L26.4197 16.289C26.33 16.5564 26.1516 16.7814 25.968 16.859C25.6394 16.998 25.4589 16.6172 25.6274 16.1403L27.3946 11.1401C27.5454 10.7134 27.832 10.3584 28.126 10.2341C28.4197 10.1099 28.666 10.2389 28.7548 10.5636L29.7978 14.3756C29.8973 14.7391 29.6384 15.3064 29.3096 15.4455L29.2864 15.4554C29.1027 15.5331 28.95 15.4481 28.8995 15.2401L28.7134 14.4737ZM28.4915 13.5639L28.0086 11.5812L27.1509 14.1309L28.4915 13.5639Z" fill="#43386B" style="fill:#43386B;fill:color(display-p3 0.2627 0.2196 0.4196);fill-opacity:1;"/>
<path d="M44.8653 35.9743C44.6817 36.052 44.5033 36.277 44.4135 36.5443L44.0826 37.5294L42.1198 38.3595L41.9337 37.5932C41.8832 37.3852 41.7305 37.3003 41.5469 37.378L41.5237 37.3878C41.1949 37.5269 40.936 38.0942 41.0355 38.4577L42.0786 42.2697C42.1674 42.5944 42.4137 42.7235 42.7074 42.5993C43.0014 42.4749 43.2879 42.12 43.4388 41.6933L45.2059 36.693C45.3742 36.2162 45.1938 35.8353 44.8653 35.9743ZM42.8247 41.2521L42.3418 39.2694L43.6825 38.7023L42.8247 41.2521Z" fill="#43386B" style="fill:#43386B;fill:color(display-p3 0.2627 0.2196 0.4196);fill-opacity:1;"/>
<path d="M40.4516 28.7751C42.117 26.0592 42.3692 22.6106 41.0509 21.1538L36.5372 16.1654C36.4045 16.0187 36.1611 16.1217 35.9936 16.3954L30.2576 25.7678C28.5899 28.4927 28.3094 31.8858 29.631 33.3463C30.6722 34.497 32.397 34.104 33.8976 32.5533L33.5321 33.8671C33.1313 35.3076 32.187 36.5732 31.2022 36.9898C31.1137 37.0272 31.0336 37.1579 31.0234 37.2819L30.963 38.0127C30.9528 38.1366 31.0162 38.2067 31.1047 38.1693L38.0493 35.2319C38.1378 35.1945 38.2178 35.0637 38.228 34.9398L38.2885 34.209C38.2987 34.0852 38.2353 34.0151 38.1468 34.0525C37.162 34.4691 36.366 33.9395 36.1831 32.746L36.0162 31.6573C37.3584 32.0046 39.1382 30.917 40.4516 28.7751Z" fill="#43386B" style="fill:#43386B;fill:color(display-p3 0.2627 0.2196 0.4196);fill-opacity:1;"/>
<path d="M28.7227 19.6927C29.1776 18.9508 29.2465 18.0086 28.8864 17.6105L27.6532 16.2477C27.617 16.2077 27.5504 16.2358 27.5047 16.3106L25.9377 18.8711C25.4821 19.6156 25.4054 20.5425 25.7665 20.9416C26.0509 21.256 26.5222 21.1486 26.9322 20.7249L26.8323 21.0838C26.7229 21.4774 26.4648 21.8232 26.1958 21.937C26.1716 21.9472 26.1497 21.9829 26.1469 22.0168L26.1304 22.2165C26.1275 22.2503 26.1449 22.2694 26.169 22.2592L28.0663 21.4567C28.0904 21.4465 28.1124 21.4108 28.1152 21.3769L28.1317 21.1774C28.1345 21.1435 28.1172 21.1244 28.093 21.1346C27.824 21.2484 27.6066 21.1036 27.5565 20.7776L27.5109 20.4802C27.8776 20.575 28.3638 20.2778 28.7227 19.6927Z" fill="#43386B" style="fill:#43386B;fill:color(display-p3 0.2627 0.2196 0.4196);fill-opacity:1;"/>
<path d="M42.1105 33.1406C41.6555 33.8825 41.5867 34.8247 41.9468 35.2227L43.18 36.5855C43.2162 36.6256 43.2828 36.5975 43.3285 36.5227L44.8955 33.9622C45.3511 33.2177 45.4278 32.2907 45.0667 31.8917C44.7823 31.5773 44.3111 31.6847 43.901 32.1084L44.0009 31.7494C44.1103 31.3559 44.3684 31.0101 44.6375 30.8963C44.6616 30.8861 44.6835 30.8504 44.6863 30.8165L44.7028 30.6168C44.7057 30.5829 44.6883 30.5638 44.6642 30.574L42.7669 31.3765C42.7428 31.3867 42.7209 31.4225 42.718 31.4563L42.7015 31.656C42.6987 31.6899 42.716 31.709 42.7402 31.6988C43.0092 31.585 43.2266 31.7296 43.2767 32.0557L43.3223 32.3532C42.9557 32.2583 42.4694 32.5553 42.1105 33.1406Z" fill="#43386B" style="fill:#43386B;fill:color(display-p3 0.2627 0.2196 0.4196);fill-opacity:1;"/>
<defs>
<linearGradient id="paint0_linear_9370_126096" x1="20.8415" y1="29.3859" x2="22.6118" y2="26.3195" gradientUnits="userSpaceOnUse">
<stop stop-color="#43386B" style="stop-color:#43386B;stop-color:color(display-p3 0.2627 0.2196 0.4196);stop-opacity:1;"/>
<stop offset="1" stop-color="#7662BD" style="stop-color:#7662BD;stop-color:color(display-p3 0.4627 0.3843 0.7412);stop-opacity:1;"/>
</linearGradient>
<linearGradient id="paint1_linear_9370_126096" x1="28.155" y1="49.0785" x2="5.1729" y2="20.0967" gradientUnits="userSpaceOnUse">
<stop stop-color="#D7D1EB" style="stop-color:#D7D1EB;stop-color:color(display-p3 0.8431 0.8196 0.9216);stop-opacity:1;"/>
<stop offset="1" stop-color="#F2EDFF" style="stop-color:#F2EDFF;stop-color:color(display-p3 0.9490 0.9294 1.0000);stop-opacity:1;"/>
</linearGradient>
<linearGradient id="paint2_linear_9370_126096" x1="32.3161" y1="6.42216" x2="12.5365" y2="20.8599" gradientUnits="userSpaceOnUse">
<stop stop-color="#43386B" style="stop-color:#43386B;stop-color:color(display-p3 0.2627 0.2196 0.4196);stop-opacity:1;"/>
<stop offset="1" stop-color="#43386B" stop-opacity="0" style="stop-color:none;stop-opacity:0;"/>
</linearGradient>
<linearGradient id="paint3_linear_9370_126096" x1="40.1388" y1="23.8047" x2="-7.32633" y2="47.1014" gradientUnits="userSpaceOnUse">
<stop stop-color="#43386B" style="stop-color:#43386B;stop-color:color(display-p3 0.2627 0.2196 0.4196);stop-opacity:1;"/>
<stop offset="1" stop-color="#43386B" stop-opacity="0" style="stop-color:none;stop-opacity:0;"/>
</linearGradient>
<linearGradient id="paint4_linear_9370_126096" x1="31.7368" y1="16.874" x2="33.5699" y2="13.6988" gradientUnits="userSpaceOnUse">
<stop stop-color="#43386B" style="stop-color:#43386B;stop-color:color(display-p3 0.2627 0.2196 0.4196);stop-opacity:1;"/>
<stop offset="1" stop-color="#7662BD" style="stop-color:#7662BD;stop-color:color(display-p3 0.4627 0.3843 0.7412);stop-opacity:1;"/>
</linearGradient>
<linearGradient id="paint5_linear_9370_126096" x1="32.7852" y1="57.4123" x2="15.939" y2="17.6111" gradientUnits="userSpaceOnUse">
<stop stop-color="#D7D1EB" style="stop-color:#D7D1EB;stop-color:color(display-p3 0.8431 0.8196 0.9216);stop-opacity:1;"/>
<stop offset="1" stop-color="#F2EDFF" style="stop-color:#F2EDFF;stop-color:color(display-p3 0.9490 0.9294 1.0000);stop-opacity:1;"/>
</linearGradient>
</defs>
</svg>
