<svg width="60" height="60" viewBox="0 0 60 60" fill="none" xmlns="http://www.w3.org/2000/svg">
<g clip-path="url(#clip0_9370_126152)">
<path d="M56.0056 39.6172L3.99414 43.9467V47.1214L4.00117 47.1208C3.99496 50.574 6.07527 53.8721 10.3414 56.3352C19.744 61.7638 36.1676 61.083 47.0248 54.8145C52.9648 51.3852 56.0006 46.9943 55.9988 42.8309L56.0057 42.8304L56.0056 39.6172Z" fill="url(#paint0_linear_9370_126152)" style=""/>
<path d="M31.8001 56.465C46.1337 54.7184 56.9523 46.7287 55.9642 38.6196C54.9761 30.5105 42.5554 25.3526 28.2218 27.0992C13.8882 28.8458 3.06958 36.8355 4.05771 44.9446C5.04583 53.0537 17.4665 58.2116 31.8001 56.465Z" fill="#594A8E" style="fill:#594A8E;fill:color(display-p3 0.3490 0.2902 0.5569);fill-opacity:1;"/>
<path d="M49.3667 9.03223L10.6333 12.2564V41.4974L10.6386 41.4969C10.634 44.0686 12.1832 46.5247 15.3602 48.3589C22.3624 52.4017 34.5932 51.8947 42.6786 47.2266C47.1022 44.6726 49.3628 41.4027 49.3615 38.3023L49.3667 38.3018V9.03223Z" fill="url(#paint1_linear_9370_126152)" style=""/>
<path d="M31.343 22.1192C42.0174 20.8185 50.0742 14.8686 49.3383 8.82965C48.6024 2.79072 39.3526 -1.05037 28.6782 0.250336C18.0039 1.55104 9.94712 7.50099 10.683 13.5399C11.4188 19.5788 20.6687 23.4199 31.343 22.1192Z" fill="#594A8E" style="fill:#594A8E;fill:color(display-p3 0.3490 0.2902 0.5569);fill-opacity:1;"/>
<path d="M42.6784 40.2901C34.593 44.9583 22.3622 45.4652 15.3599 41.4225C12.183 39.5883 10.6338 37.1321 10.6383 34.5605L10.6331 34.5609V41.497L10.6383 41.4966C10.6338 44.0681 12.183 46.5244 15.3599 48.3586C22.3621 52.4013 34.593 51.8944 42.6784 47.2262C47.102 44.6723 49.3627 41.4023 49.3614 38.3019L49.3666 38.3014V31.3652L49.3614 31.3657C49.3627 34.4663 47.102 37.7361 42.6784 40.2901Z" fill="url(#paint2_linear_9370_126152)" style=""/>
</g>
<defs>
<linearGradient id="paint0_linear_9370_126152" x1="16.0089" y1="49.8086" x2="54.065" y2="49.8086" gradientUnits="userSpaceOnUse">
<stop stop-color="#43386B" style="stop-color:#43386B;stop-color:color(display-p3 0.2627 0.2196 0.4196);stop-opacity:1;"/>
<stop offset="0.2544" stop-color="#554687" style="stop-color:#554687;stop-color:color(display-p3 0.3333 0.2745 0.5294);stop-opacity:1;"/>
<stop offset="0.6704" stop-color="#7662BD" style="stop-color:#7662BD;stop-color:color(display-p3 0.4627 0.3843 0.7412);stop-opacity:1;"/>
<stop offset="1" stop-color="#43386B" style="stop-color:#43386B;stop-color:color(display-p3 0.2627 0.2196 0.4196);stop-opacity:1;"/>
</linearGradient>
<linearGradient id="paint1_linear_9370_126152" x1="19.5808" y1="30.0602" x2="53.7374" y2="30.0602" gradientUnits="userSpaceOnUse">
<stop stop-color="#43386B" style="stop-color:#43386B;stop-color:color(display-p3 0.2627 0.2196 0.4196);stop-opacity:1;"/>
<stop offset="0.2544" stop-color="#554687" style="stop-color:#554687;stop-color:color(display-p3 0.3333 0.2745 0.5294);stop-opacity:1;"/>
<stop offset="0.6704" stop-color="#7662BD" style="stop-color:#7662BD;stop-color:color(display-p3 0.4627 0.3843 0.7412);stop-opacity:1;"/>
<stop offset="1" stop-color="#43386B" style="stop-color:#43386B;stop-color:color(display-p3 0.2627 0.2196 0.4196);stop-opacity:1;"/>
</linearGradient>
<linearGradient id="paint2_linear_9370_126152" x1="19.5807" y1="41.2267" x2="47.9214" y2="41.2267" gradientUnits="userSpaceOnUse">
<stop stop-color="#FF4757" style="stop-color:#FF4757;stop-color:color(display-p3 1.0000 0.2784 0.3412);stop-opacity:1;"/>
<stop offset="0.5815" stop-color="#FF6370" style="stop-color:#FF6370;stop-color:color(display-p3 1.0000 0.3882 0.4392);stop-opacity:1;"/>
<stop offset="1" stop-color="#FF7A85" style="stop-color:#FF7A85;stop-color:color(display-p3 1.0000 0.4784 0.5216);stop-opacity:1;"/>
</linearGradient>
<clipPath id="clip0_9370_126152">
<rect width="60" height="60" fill="white" style="fill:white;fill-opacity:1;"/>
</clipPath>
</defs>
</svg>
