<svg width="60" height="60" viewBox="0 0 60 60" fill="none" xmlns="http://www.w3.org/2000/svg">
<path d="M47.484 16.5621L42.6717 13.7838L41.5763 9.10529L36.7543 6.3235L36.7548 6.32561C36.4524 6.13647 36.0482 6.16342 35.6183 6.43975L30.8162 9.52647L27.0697 7.67186C26.491 7.38533 25.6664 7.86147 25.0877 8.81619L21.3412 14.9969L16.5391 17.4551C15.7973 17.8348 15.1302 18.8663 14.9356 19.9344L13.6759 26.8483L9.65211 32.6804C9.03055 33.5813 8.77578 34.7742 9.03957 35.5474L10.7476 40.5536L9.03957 47.5321C8.79101 48.5478 9.00312 49.4036 9.54828 49.6525L9.54734 49.6524L13.9839 52.2139L14.9355 56.3374C15.024 56.7209 15.2109 56.9825 15.4575 57.1106L15.4557 57.1115L20.2923 59.9028L47.484 16.5621Z" fill="url(#paint0_linear_9370_126208)" style=""/>
<path d="M41.9041 10.5043L41.5766 9.10529L36.7545 6.3235L36.755 6.32561C36.4527 6.13647 36.0485 6.16342 35.6185 6.43975L30.8164 9.52647L35.6667 12.3251L41.9041 10.5043Z" fill="url(#paint1_linear_9370_126208)" style=""/>
<path d="M20.2923 59.9029L18.526 53.6768L13.9839 52.2139L14.9354 56.3373C15.0239 56.7209 15.2108 56.9825 15.4574 57.1105L15.4556 57.1115L20.2923 59.9029Z" fill="url(#paint2_linear_9370_126208)" style=""/>
<path d="M10.7478 40.5537L9.03976 47.5322C8.79121 48.5479 9.00332 49.4037 9.54847 49.6526L9.54754 49.6525L13.9841 52.214L15.5983 43.3524L10.7478 40.5537Z" fill="url(#paint3_linear_9370_126208)" style=""/>
<path d="M25.0878 8.81593L21.3413 14.9966L26.1916 17.7953L35.6665 12.3249L30.8163 9.5262L27.0698 7.67159C26.4911 7.38507 25.6665 7.8612 25.0878 8.81593Z" fill="url(#paint4_linear_9370_126208)" style=""/>
<path d="M25.0878 8.81593L21.3413 14.9966L26.1916 17.7953L35.6665 12.3249L30.8163 9.5262L27.0698 7.67159C26.4911 7.38507 25.6665 7.8612 25.0878 8.81593Z" fill="url(#paint5_linear_9370_126208)" style=""/>
<path d="M26.1914 17.7948L21.3411 14.9961L16.539 17.4543C15.7972 17.834 15.1301 18.8655 14.9355 19.9336L13.6758 26.8475L18.5261 29.6462L26.1914 17.7948Z" fill="url(#paint6_linear_9370_126208)" style=""/>
<path d="M26.1914 17.7948L21.3411 14.9961L16.539 17.4543C15.7972 17.834 15.1301 18.8655 14.9355 19.9336L13.6758 26.8475L18.5261 29.6462L26.1914 17.7948Z" fill="url(#paint7_linear_9370_126208)" style=""/>
<path d="M9.03987 35.5468L10.7479 40.5531L15.5981 43.3518L18.5261 29.6463L13.6758 26.8477L9.65229 32.6797C9.03084 33.5807 8.77596 34.7735 9.03987 35.5468Z" fill="url(#paint8_linear_9370_126208)" style=""/>
<path d="M9.03987 35.5468L10.7479 40.5531L15.5981 43.3518L18.5261 29.6463L13.6758 26.8477L9.65229 32.6797C9.03084 33.5807 8.77596 34.7735 9.03987 35.5468Z" fill="url(#paint9_linear_9370_126208)" style=""/>
<path d="M31.9201 10.4706L35.6666 12.3253L40.4687 9.23859C41.2105 8.76175 41.8776 9.02284 42.0722 9.86612L43.3319 15.3253L47.3554 16.5116C47.9769 16.6949 48.2318 17.5935 47.968 18.6714L46.2599 25.6499L47.968 30.6561C48.2318 31.4294 47.977 32.6223 47.3554 33.5231L43.3319 39.3553L42.0722 46.2692C41.8775 47.3372 41.2104 48.3687 40.4687 48.7483L35.6666 51.2066L31.9201 57.3873C31.3414 58.342 30.5168 58.8182 29.938 58.5316L26.1915 56.6769L21.3894 59.7636C20.6476 60.2405 19.9804 59.9794 19.7859 59.1361L18.5261 53.6769L14.5026 52.4906C13.8812 52.3073 13.6263 51.4087 13.8902 50.3308L15.5982 43.3523L13.8902 38.3462C13.6263 37.5729 13.8812 36.38 14.5026 35.4792L18.5261 29.6469L19.7859 22.7331C19.9806 21.665 20.6477 20.6337 21.3894 20.2539L26.1915 17.7956L29.938 11.6149C30.5168 10.6602 31.3414 10.1841 31.9201 10.4706Z" fill="url(#paint10_linear_9370_126208)" style=""/>
<path d="M40.4687 9.23773L35.6666 12.3245L34.022 11.3755L33.6353 11.5494L33.4282 11.0328L30.8162 9.52566L28.4623 8.36035L26.4517 15.697L17.4724 22.0268L24.2318 26.0881L22.2742 38.9587L30.0436 28.3627L37.8129 29.9875L35.8553 19.3774L41.6709 9.16789C41.3628 8.93047 40.9303 8.94102 40.4687 9.23773Z" fill="url(#paint11_linear_9370_126208)" style=""/>
<path d="M16.6994 25.7705L18.5397 30.3605L23.1404 28.2913L19.6771 34.3711L20.6801 39.8073L16.6994 38.9748L12.7188 44.4039L13.7218 37.8095L10.2585 35.7286L14.8591 32.4856L16.6994 25.7705Z" fill="url(#paint12_linear_9370_126208)" style=""/>
<path d="M47.3557 16.5111L43.3321 15.3248L42.6733 12.4697L41.4931 16.7759L36.8926 20.0189L40.3558 22.0998L39.3528 28.6942L43.3336 23.2653L46.6728 23.9636L47.0244 22.527L46.3112 18.6616L47.5011 16.5726C47.4548 16.5479 47.407 16.5262 47.3557 16.5111Z" fill="url(#paint13_linear_9370_126208)" style=""/>
<path d="M45.4521 36.2817V31.8069C45.4521 30.1454 44.4385 29.379 43.1923 30.0984C41.9462 30.8178 40.9326 32.7548 40.9326 34.4163V36.4067L38.5804 33.9347C38.1224 33.4534 37.4453 33.4166 36.7225 33.8339L36.7097 33.8413C35.5068 34.5358 34.5105 36.2979 34.3376 37.9384C34.2293 36.4728 33.2621 35.8318 32.0882 36.5094L32.0605 36.5253C31.271 36.9812 30.5756 37.9263 30.1715 38.9801C30.145 38.9387 30.1173 38.8985 30.0877 38.8611C29.6802 38.347 29.0226 38.2794 28.3283 38.6802C27.3871 39.2236 26.5575 40.5036 26.2639 41.8652L25.3651 46.0302L24.5787 43.2334C24.2332 42.0044 23.2447 41.6153 22.119 42.2652C21.0071 42.9073 20.0223 44.4201 19.6685 46.0303L18.8508 49.7541L17.986 46.6629C17.696 45.6272 16.8645 45.2989 15.9169 45.8461L15.7455 45.9451C15.3917 46.1494 15.0477 46.4646 14.7413 46.8546L13.8905 50.3305C13.8013 50.6948 13.7727 51.0377 13.7962 51.3404L14.011 52.0881C14.131 52.2878 14.2961 52.4293 14.5029 52.4903L18.5264 53.6766L19.7862 59.1357C19.7926 59.1637 19.801 59.1893 19.8085 59.216C20.5272 58.3894 21.1021 57.2546 21.362 56.0708L22.0527 52.927L22.7134 55.2569C23.0904 56.5866 24.1636 57.0064 25.3839 56.302C26.6013 55.5991 27.6737 53.9433 28.0522 52.1818L29.8009 44.0456V50.7387C29.8009 52.4001 30.8147 53.1664 32.0606 52.4471L32.0883 52.4312C33.2362 51.7685 34.1848 50.0728 34.3274 48.5108C34.4699 49.9085 35.4201 50.5076 36.5681 49.8446C37.8142 49.1252 38.8279 47.1882 38.8279 45.5269V43.5268L41.1948 46.0035C41.4293 46.2489 41.7213 46.3772 42.0471 46.3888C42.0558 46.3488 42.0651 46.309 42.0723 46.2689L43.3321 39.3549L45.4521 36.2817Z" fill="url(#paint14_linear_9370_126208)" style=""/>
<path d="M45.4264 36.4139L47.429 26.02L44.6327 24.4032C44.2413 24.1965 43.7393 24.2259 43.1922 24.5417C41.9462 25.2611 40.9324 27.1981 40.9324 28.8596V29.6736L38.3076 28.1587C38.3019 28.1552 38.296 28.152 38.2902 28.1486L38.2686 28.1362L38.2681 28.1371C37.839 27.9021 37.2953 27.9464 36.7222 28.2772L36.7094 28.2846C35.7463 28.8406 34.9167 30.0814 34.5351 31.396L33.5842 30.8465L33.584 30.8469C33.1853 30.606 32.6614 30.6216 32.0879 30.9527L32.0603 30.9686C31.3055 31.4044 30.6375 32.2877 30.227 33.2852L29.749 33.0092L29.7488 33.0094C29.3579 32.7856 28.8537 32.8201 28.3281 33.1233C27.3868 33.6667 26.5572 34.9468 26.2636 36.3083L25.9415 37.8005L23.8349 36.5841L23.8338 36.5857C23.3726 36.306 22.769 36.3328 22.1188 36.7082C21.0068 37.3502 20.0221 38.8632 19.6683 40.4734L19.4648 41.3997L17.3314 40.1678C17.3305 40.1673 17.3296 40.1667 17.3285 40.1662L17.3262 40.1648V40.165C16.9428 39.9509 16.448 39.9822 15.9166 40.289L15.7452 40.388C15.0503 40.7892 14.3922 41.6171 13.9848 42.6029C13.5774 43.5884 13.4637 44.6275 13.6806 45.3821L16.0326 53.5685C16.1961 54.1378 16.4887 54.5378 16.8656 54.7541L16.8655 54.7552L19.7721 56.4298L23.5831 50.9156L26.3263 52.4985L30.5652 46.9976L33.4138 48.642L35.2145 44.4665L37.8841 46.0159L41.5605 40.7144L44.2932 42.296L45.2366 37.3996C45.3299 37.072 45.3943 36.7408 45.4264 36.4139Z" fill="url(#paint15_linear_9370_126208)" style=""/>
<path d="M44.2929 42.2964L41.5603 40.715V38.7148L44.2929 42.2964Z" fill="#C5BAEB" style="fill:#C5BAEB;fill:color(display-p3 0.7725 0.7294 0.9216);fill-opacity:1;"/>
<path d="M37.8841 46.0163L36.9929 45.499L37.1161 43.8486L37.8841 46.0163Z" fill="#C5BAEB" style="fill:#C5BAEB;fill:color(display-p3 0.7725 0.7294 0.9216);fill-opacity:1;"/>
<path d="M33.4137 48.6423L30.5652 46.9978L32.8018 39.3154L33.4137 48.6423Z" fill="#C5BAEB" style="fill:#C5BAEB;fill:color(display-p3 0.7725 0.7294 0.9216);fill-opacity:1;"/>
<path d="M26.3263 52.4998L23.5833 50.9168L24.9547 48.3428L26.3263 52.4998Z" fill="#C5BAEB" style="fill:#C5BAEB;fill:color(display-p3 0.7725 0.7294 0.9216);fill-opacity:1;"/>
<path d="M47.429 26.02L44.6327 24.4032C44.2413 24.1965 43.7392 24.2259 43.1922 24.5417C41.9462 25.2611 40.9324 27.1981 40.9324 28.8596V29.6736L44.1206 33.3139L47.429 26.02Z" fill="url(#paint16_linear_9370_126208)" style=""/>
<path d="M36.9967 34.8102L40.9324 29.6735L38.3077 28.1586C38.3019 28.1551 38.2961 28.152 38.2902 28.1486L38.2686 28.1361L38.2682 28.1371C37.839 27.902 37.2953 27.9463 36.7222 28.2771L36.7095 28.2845C35.7463 28.8406 34.9167 30.0813 34.5352 31.3959L36.4375 32.4942L36.9967 34.8102Z" fill="url(#paint17_linear_9370_126208)" style=""/>
<path d="M33.5841 30.8466C33.1853 30.6058 32.6615 30.6214 32.088 30.9524L32.0603 30.9683C31.3055 31.4042 30.6376 32.2874 30.2271 33.2849L32.567 34.636L33.0088 35.598L36.4375 32.4939L34.5352 31.3956L33.5842 30.8461L33.5841 30.8466Z" fill="url(#paint18_linear_9370_126208)" style=""/>
<path d="M29.749 33.0099C29.358 32.786 28.8538 32.8205 28.3282 33.1238C27.3869 33.6672 26.5574 34.9472 26.2637 36.3087L25.9417 37.801L26.6665 38.2194L28.0421 42.7145L32.5673 34.6365L30.2273 33.2855L29.7493 33.0095L29.749 33.0099Z" fill="url(#paint19_linear_9370_126208)" style=""/>
<path d="M21.5229 46.6784L26.6664 38.2194L25.9416 37.8009L23.8349 36.5845L23.8338 36.586C23.3726 36.3064 22.7691 36.3331 22.1188 36.7086C21.0068 37.3505 20.0221 38.8635 19.6683 40.4737L19.4648 41.4001L20.154 41.7979L21.5229 46.6784Z" fill="url(#paint20_linear_9370_126208)" style=""/>
<path d="M46.026 26.1775C44.7799 26.897 43.7661 28.8339 43.7661 30.4954V32.4859L41.4139 30.0138C40.956 29.5325 40.2788 29.4957 39.5559 29.913L39.5431 29.9204C38.3402 30.615 37.3439 32.3769 37.171 34.0175C37.0628 32.5521 36.0955 31.9109 34.9216 32.5886L34.894 32.6046C34.1044 33.0604 33.4091 34.0056 33.0049 35.0593C32.9784 35.0178 32.9508 34.9777 32.9211 34.9404C32.5136 34.4263 31.856 34.3586 31.1618 34.7594C30.2205 35.3028 29.391 36.5829 29.0973 37.9443L28.1986 42.1093L27.4121 39.3125C27.0667 38.0836 26.0782 37.6945 24.9525 38.3444C23.8405 38.9865 22.8558 40.4994 22.502 42.1095L21.6842 45.8332L20.8194 42.742C20.5296 41.7063 19.698 41.3781 18.7503 41.9252L18.5789 42.0242C17.884 42.4254 17.226 43.2533 16.8185 44.2391C16.4111 45.2245 16.2974 46.2637 16.5144 47.0183L18.8665 55.2047C19.2459 56.5258 20.3178 56.9417 21.5338 56.2398C22.7419 55.5423 23.8117 53.8985 24.1956 52.1498L24.8863 49.006L25.5469 51.3359C25.9238 52.6656 26.997 53.0854 28.2173 52.381C29.4348 51.6781 30.5072 50.0224 30.8857 48.2608L32.6344 40.1246V46.8177C32.6344 48.4791 33.6481 49.2456 34.8942 48.5261L34.9219 48.5102C36.0697 47.8475 37.0183 46.1518 37.1611 44.5898C37.3036 45.9875 38.2537 46.5866 39.4018 45.9236C40.6479 45.2042 41.6617 43.2672 41.6617 41.6057V39.6057L44.0286 42.0823C44.4866 42.5615 45.163 42.5974 45.8845 42.1808C47.2086 41.4163 48.2859 39.358 48.2859 37.5924V27.886C48.2858 26.2244 47.2721 25.4581 46.026 26.1775Z" fill="#F2EDFF" style="fill:#F2EDFF;fill:color(display-p3 0.9490 0.9294 1.0000);fill-opacity:1;"/>
<path d="M32.1246 37.5205L29.7831 48.4158C29.5616 49.4465 28.9299 50.4218 28.2175 50.8332C27.5038 51.2452 26.8712 50.9977 26.6507 50.22L24.904 44.0604L23.0957 52.2924C22.8706 53.3172 22.2419 54.2833 21.5339 54.692C20.8222 55.1029 20.1911 54.858 19.9689 54.0848L17.6168 45.8983C17.4015 45.1491 17.8895 43.9688 18.579 43.5707L18.7505 43.4717C19.1905 43.2176 19.5803 43.3715 19.7148 43.8524L21.6605 50.8073L23.6024 41.9656C23.7969 41.0795 24.3406 40.2443 24.9526 39.8909C25.5707 39.5341 26.1183 39.7496 26.308 40.4243L28.1887 47.1116L30.1999 37.7903C30.3366 37.1573 30.7246 36.5586 31.1622 36.3059C31.851 35.9083 32.3389 36.5239 32.1246 37.5205Z" fill="url(#paint21_linear_9370_126208)" style=""/>
<path d="M34.8944 34.1508L34.9219 34.1349C35.5292 33.7843 36.0214 34.1565 36.0214 34.9661V44.8614C36.0214 45.6711 35.5291 46.6116 34.9219 46.9621L34.8944 46.9781C34.2871 47.3287 33.7949 46.9565 33.7949 46.1468V36.2515C33.7949 35.4419 34.2871 34.5013 34.8944 34.1508Z" fill="url(#paint22_linear_9370_126208)" style=""/>
<path d="M47.1255 28.5549V38.2614C47.1255 39.1753 46.5698 40.2369 45.8845 40.6327C45.513 40.8471 45.1611 40.8285 44.9253 40.5818L40.5012 35.9528V42.2747C40.5012 43.0844 40.0089 44.0249 39.4017 44.3754C38.7944 44.726 38.3022 44.3539 38.3022 43.5442V33.8378C38.3022 32.9239 38.8579 31.8623 39.5434 31.4665L39.5562 31.4591C39.9282 31.2443 40.2806 31.2634 40.5164 31.5112L44.9267 36.1464V29.8245C44.9267 29.0148 45.419 28.0743 46.0262 27.7238C46.6332 27.3731 47.1255 27.7452 47.1255 28.5549Z" fill="url(#paint23_linear_9370_126208)" style=""/>
<path d="M31.333 0L34.9248 8.95863L43.9041 4.92L37.1447 16.7864L39.1023 27.3964L31.333 25.7718L23.5636 36.3679L25.5213 23.4972L18.762 19.4358L27.7411 13.1061L31.333 0Z" fill="url(#paint24_linear_9370_126208)" style=""/>
<path d="M34.9248 8.95855L33.1482 19.2318L43.904 4.91992L34.9248 8.95855Z" fill="url(#paint25_linear_9370_126208)" style=""/>
<path d="M31.3329 0L33.1481 19.2319L27.741 13.1061L31.3329 0Z" fill="url(#paint26_linear_9370_126208)" style=""/>
<path d="M33.1483 19.2314L18.762 19.4354L25.5213 23.4967L33.1483 19.2314Z" fill="url(#paint27_linear_9370_126208)" style=""/>
<path d="M23.5635 36.3674L33.1481 19.2314L31.3329 25.7713L23.5635 36.3674Z" fill="url(#paint28_linear_9370_126208)" style=""/>
<path d="M33.1482 19.2316L39.1023 27.3962L37.1446 16.7861L33.1482 19.2316Z" fill="url(#paint29_linear_9370_126208)" style=""/>
<path d="M17.9892 23.1787L19.8295 27.7687L24.4301 25.6995L20.9668 31.7793L21.9698 37.2155L17.9892 36.383L14.0085 41.812L15.0115 35.2177L11.5483 33.1368L16.1489 29.8937L17.9892 23.1787Z" fill="url(#paint30_linear_9370_126208)" style=""/>
<path d="M19.8295 27.7694L18.9192 33.033L24.43 25.7002L19.8295 27.7694Z" fill="url(#paint31_linear_9370_126208)" style=""/>
<path d="M17.989 23.1787L18.919 33.0323L16.1487 29.8937L17.989 23.1787Z" fill="url(#paint32_linear_9370_126208)" style=""/>
<path d="M18.9192 33.0322L11.5483 33.1368L15.0115 35.2177L18.9192 33.0322Z" fill="url(#paint33_linear_9370_126208)" style=""/>
<path d="M14.0083 41.8119L18.919 33.0322L17.989 36.383L14.0083 41.8119Z" fill="url(#paint34_linear_9370_126208)" style=""/>
<path d="M18.9192 33.0323L21.9698 37.2155L20.9668 31.7793L18.9192 33.0323Z" fill="url(#paint35_linear_9370_126208)" style=""/>
<path d="M44.6229 7.46973L46.4631 12.0597L51.0637 9.99055L47.6005 16.0704L48.6035 21.5066L44.6229 20.6741L40.6421 26.103L41.6451 19.5086L38.1819 17.4277L42.7825 14.1847L44.6229 7.46973Z" fill="url(#paint36_linear_9370_126208)" style=""/>
<path d="M46.4632 12.0604L45.553 17.324L51.0638 9.99121L46.4632 12.0604Z" fill="url(#paint37_linear_9370_126208)" style=""/>
<path d="M44.6228 7.46973L45.5528 17.3233L42.7825 14.1847L44.6228 7.46973Z" fill="url(#paint38_linear_9370_126208)" style=""/>
<path d="M45.5529 17.3232L38.1819 17.4277L41.6451 19.5086L45.5529 17.3232Z" fill="url(#paint39_linear_9370_126208)" style=""/>
<path d="M40.6421 26.1029L45.5528 17.3232L44.6228 20.674L40.6421 26.1029Z" fill="url(#paint40_linear_9370_126208)" style=""/>
<path d="M45.553 17.3233L48.6036 21.5065L47.6006 16.0703L45.553 17.3233Z" fill="url(#paint41_linear_9370_126208)" style=""/>
<defs>
<linearGradient id="paint0_linear_9370_126208" x1="28.2102" y1="62.542" x2="28.2102" y2="-25.346" gradientUnits="userSpaceOnUse">
<stop stop-color="#1D182F" style="stop-color:#1D182F;stop-color:color(display-p3 0.1137 0.0941 0.1843);stop-opacity:1;"/>
<stop offset="0.1795" stop-color="#292243" style="stop-color:#292243;stop-color:color(display-p3 0.1608 0.1333 0.2627);stop-opacity:1;"/>
<stop offset="0.5463" stop-color="#493D76" style="stop-color:#493D76;stop-color:color(display-p3 0.2863 0.2392 0.4627);stop-opacity:1;"/>
<stop offset="1" stop-color="#7662BD" style="stop-color:#7662BD;stop-color:color(display-p3 0.4627 0.3843 0.7412);stop-opacity:1;"/>
</linearGradient>
<linearGradient id="paint1_linear_9370_126208" x1="32.6727" y1="16.4026" x2="39.122" y2="5.2319" gradientUnits="userSpaceOnUse">
<stop stop-color="#0F0C18" style="stop-color:#0F0C18;stop-color:color(display-p3 0.0588 0.0471 0.0941);stop-opacity:1;"/>
<stop offset="1" stop-color="#0F0C18" stop-opacity="0" style="stop-color:none;stop-opacity:0;"/>
</linearGradient>
<linearGradient id="paint2_linear_9370_126208" x1="17.1382" y1="52.8719" x2="17.1382" y2="60.6475" gradientUnits="userSpaceOnUse">
<stop stop-color="#0F0C18" style="stop-color:#0F0C18;stop-color:color(display-p3 0.0588 0.0471 0.0941);stop-opacity:1;"/>
<stop offset="1" stop-color="#0F0C18" stop-opacity="0" style="stop-color:none;stop-opacity:0;"/>
</linearGradient>
<linearGradient id="paint3_linear_9370_126208" x1="10.1233" y1="50.2682" x2="13.36" y2="44.662" gradientUnits="userSpaceOnUse">
<stop stop-color="#0F0C18" style="stop-color:#0F0C18;stop-color:color(display-p3 0.0588 0.0471 0.0941);stop-opacity:1;"/>
<stop offset="1" stop-color="#0F0C18" stop-opacity="0" style="stop-color:none;stop-opacity:0;"/>
</linearGradient>
<linearGradient id="paint4_linear_9370_126208" x1="24.7503" y1="20.1625" x2="31.274" y2="8.86304" gradientUnits="userSpaceOnUse">
<stop stop-color="#0F0C18" style="stop-color:#0F0C18;stop-color:color(display-p3 0.0588 0.0471 0.0941);stop-opacity:1;"/>
<stop offset="1" stop-color="#0F0C18" stop-opacity="0" style="stop-color:none;stop-opacity:0;"/>
</linearGradient>
<linearGradient id="paint5_linear_9370_126208" x1="27.0092" y1="16.25" x2="33.5329" y2="4.9505" gradientUnits="userSpaceOnUse">
<stop stop-color="#594A8E" stop-opacity="0" style="stop-color:none;stop-opacity:0;"/>
<stop offset="0.4701" stop-color="#594A8E" stop-opacity="0.89" style="stop-color:#594A8E;stop-color:color(display-p3 0.3490 0.2902 0.5569);stop-opacity:0.89;"/>
<stop offset="0.5279" stop-color="#594A8E" style="stop-color:#594A8E;stop-color:color(display-p3 0.3490 0.2902 0.5569);stop-opacity:1;"/>
<stop offset="0.5968" stop-color="#594A8E" stop-opacity="0.854" style="stop-color:#594A8E;stop-color:color(display-p3 0.3490 0.2902 0.5569);stop-opacity:0.854;"/>
<stop offset="1" stop-color="#594A8E" stop-opacity="0" style="stop-color:none;stop-opacity:0;"/>
</linearGradient>
<linearGradient id="paint6_linear_9370_126208" x1="11.0251" y1="35.1479" x2="21.5106" y2="16.9864" gradientUnits="userSpaceOnUse">
<stop stop-color="#0F0C18" style="stop-color:#0F0C18;stop-color:color(display-p3 0.0588 0.0471 0.0941);stop-opacity:1;"/>
<stop offset="1" stop-color="#0F0C18" stop-opacity="0" style="stop-color:none;stop-opacity:0;"/>
</linearGradient>
<linearGradient id="paint7_linear_9370_126208" x1="15.8153" y1="26.851" x2="22.6904" y2="14.9429" gradientUnits="userSpaceOnUse">
<stop stop-color="#594A8E" stop-opacity="0" style="stop-color:none;stop-opacity:0;"/>
<stop offset="0.4701" stop-color="#594A8E" stop-opacity="0.89" style="stop-color:#594A8E;stop-color:color(display-p3 0.3490 0.2902 0.5569);stop-opacity:0.89;"/>
<stop offset="0.5279" stop-color="#594A8E" style="stop-color:#594A8E;stop-color:color(display-p3 0.3490 0.2902 0.5569);stop-opacity:1;"/>
<stop offset="0.5968" stop-color="#594A8E" stop-opacity="0.854" style="stop-color:#594A8E;stop-color:color(display-p3 0.3490 0.2902 0.5569);stop-opacity:0.854;"/>
<stop offset="1" stop-color="#594A8E" stop-opacity="0" style="stop-color:none;stop-opacity:0;"/>
</linearGradient>
<linearGradient id="paint8_linear_9370_126208" x1="11.3242" y1="40.2567" x2="16.7201" y2="30.9107" gradientUnits="userSpaceOnUse">
<stop stop-color="#0F0C18" style="stop-color:#0F0C18;stop-color:color(display-p3 0.0588 0.0471 0.0941);stop-opacity:1;"/>
<stop offset="1" stop-color="#0F0C18" stop-opacity="0" style="stop-color:none;stop-opacity:0;"/>
</linearGradient>
<linearGradient id="paint9_linear_9370_126208" x1="10.3631" y1="41.9211" x2="15.7592" y2="32.5751" gradientUnits="userSpaceOnUse">
<stop stop-color="#594A8E" stop-opacity="0" style="stop-color:none;stop-opacity:0;"/>
<stop offset="0.4701" stop-color="#594A8E" stop-opacity="0.89" style="stop-color:#594A8E;stop-color:color(display-p3 0.3490 0.2902 0.5569);stop-opacity:0.89;"/>
<stop offset="0.5279" stop-color="#594A8E" style="stop-color:#594A8E;stop-color:color(display-p3 0.3490 0.2902 0.5569);stop-opacity:1;"/>
<stop offset="0.5968" stop-color="#594A8E" stop-opacity="0.854" style="stop-color:#594A8E;stop-color:color(display-p3 0.3490 0.2902 0.5569);stop-opacity:0.854;"/>
<stop offset="1" stop-color="#594A8E" stop-opacity="0" style="stop-color:none;stop-opacity:0;"/>
</linearGradient>
<linearGradient id="paint10_linear_9370_126208" x1="30.929" y1="63.4103" x2="-0.0275942" y2="9.79339" gradientUnits="userSpaceOnUse">
<stop stop-color="#43386B" style="stop-color:#43386B;stop-color:color(display-p3 0.2627 0.2196 0.4196);stop-opacity:1;"/>
<stop offset="0.0815" stop-color="#453A6E" style="stop-color:#453A6E;stop-color:color(display-p3 0.2706 0.2275 0.4314);stop-opacity:1;"/>
<stop offset="1" stop-color="#594A8E" style="stop-color:#594A8E;stop-color:color(display-p3 0.3490 0.2902 0.5569);stop-opacity:1;"/>
</linearGradient>
<linearGradient id="paint11_linear_9370_126208" x1="29.5717" y1="44.6073" x2="29.5717" y2="1.13211" gradientUnits="userSpaceOnUse">
<stop stop-color="#1E1B28" style="stop-color:#1E1B28;stop-color:color(display-p3 0.1176 0.1059 0.1569);stop-opacity:1;"/>
<stop offset="1" stop-color="#1E1B28" stop-opacity="0" style="stop-color:none;stop-opacity:0;"/>
</linearGradient>
<linearGradient id="paint12_linear_9370_126208" x1="16.6995" y1="45.1306" x2="6.64668" y2="27.7191" gradientUnits="userSpaceOnUse">
<stop stop-color="#1E1B28" style="stop-color:#1E1B28;stop-color:color(display-p3 0.1176 0.1059 0.1569);stop-opacity:1;"/>
<stop offset="1" stop-color="#1E1B28" stop-opacity="0" style="stop-color:none;stop-opacity:0;"/>
</linearGradient>
<linearGradient id="paint13_linear_9370_126208" x1="42.1968" y1="31.6893" x2="42.1968" y2="8.63688" gradientUnits="userSpaceOnUse">
<stop stop-color="#1E1B28" style="stop-color:#1E1B28;stop-color:color(display-p3 0.1176 0.1059 0.1569);stop-opacity:1;"/>
<stop offset="1" stop-color="#1E1B28" stop-opacity="0" style="stop-color:none;stop-opacity:0;"/>
</linearGradient>
<linearGradient id="paint14_linear_9370_126208" x1="31.8809" y1="45.2673" x2="37.4168" y2="54.8559" gradientUnits="userSpaceOnUse">
<stop stop-color="#1E1B28" style="stop-color:#1E1B28;stop-color:color(display-p3 0.1176 0.1059 0.1569);stop-opacity:1;"/>
<stop offset="1" stop-color="#1E1B28" stop-opacity="0" style="stop-color:none;stop-opacity:0;"/>
</linearGradient>
<linearGradient id="paint15_linear_9370_126208" x1="24.2591" y1="50.8516" x2="25.6492" y2="48.4437" gradientUnits="userSpaceOnUse">
<stop stop-color="#C9BAEC" style="stop-color:#C9BAEC;stop-color:color(display-p3 0.7882 0.7294 0.9255);stop-opacity:1;"/>
<stop offset="0.3503" stop-color="#D9CDF3" style="stop-color:#D9CDF3;stop-color:color(display-p3 0.8510 0.8039 0.9529);stop-opacity:1;"/>
<stop offset="1" stop-color="#F3EDFF" style="stop-color:#F3EDFF;stop-color:color(display-p3 0.9529 0.9294 1.0000);stop-opacity:1;"/>
</linearGradient>
<linearGradient id="paint16_linear_9370_126208" x1="43.6788" y1="28.4035" x2="44.861" y2="26.3559" gradientUnits="userSpaceOnUse">
<stop stop-color="#C9BAEC" style="stop-color:#C9BAEC;stop-color:color(display-p3 0.7882 0.7294 0.9255);stop-opacity:1;"/>
<stop offset="0.3503" stop-color="#D9CDF3" style="stop-color:#D9CDF3;stop-color:color(display-p3 0.8510 0.8039 0.9529);stop-opacity:1;"/>
<stop offset="1" stop-color="#F3EDFF" style="stop-color:#F3EDFF;stop-color:color(display-p3 0.9529 0.9294 1.0000);stop-opacity:1;"/>
</linearGradient>
<linearGradient id="paint17_linear_9370_126208" x1="37.2397" y1="31.2041" x2="38.1911" y2="29.5561" gradientUnits="userSpaceOnUse">
<stop stop-color="#C9BAEC" style="stop-color:#C9BAEC;stop-color:color(display-p3 0.7882 0.7294 0.9255);stop-opacity:1;"/>
<stop offset="0.3503" stop-color="#D9CDF3" style="stop-color:#D9CDF3;stop-color:color(display-p3 0.8510 0.8039 0.9529);stop-opacity:1;"/>
<stop offset="1" stop-color="#F3EDFF" style="stop-color:#F3EDFF;stop-color:color(display-p3 0.9529 0.9294 1.0000);stop-opacity:1;"/>
</linearGradient>
<linearGradient id="paint18_linear_9370_126208" x1="33.1681" y1="33.1192" x2="33.821" y2="31.9883" gradientUnits="userSpaceOnUse">
<stop stop-color="#C9BAEC" style="stop-color:#C9BAEC;stop-color:color(display-p3 0.7882 0.7294 0.9255);stop-opacity:1;"/>
<stop offset="0.3503" stop-color="#D9CDF3" style="stop-color:#D9CDF3;stop-color:color(display-p3 0.8510 0.8039 0.9529);stop-opacity:1;"/>
<stop offset="1" stop-color="#F3EDFF" style="stop-color:#F3EDFF;stop-color:color(display-p3 0.9529 0.9294 1.0000);stop-opacity:1;"/>
</linearGradient>
<linearGradient id="paint19_linear_9370_126208" x1="28.2108" y1="37.4062" x2="29.5836" y2="35.0284" gradientUnits="userSpaceOnUse">
<stop stop-color="#C9BAEC" style="stop-color:#C9BAEC;stop-color:color(display-p3 0.7882 0.7294 0.9255);stop-opacity:1;"/>
<stop offset="0.3503" stop-color="#D9CDF3" style="stop-color:#D9CDF3;stop-color:color(display-p3 0.8510 0.8039 0.9529);stop-opacity:1;"/>
<stop offset="1" stop-color="#F3EDFF" style="stop-color:#F3EDFF;stop-color:color(display-p3 0.9529 0.9294 1.0000);stop-opacity:1;"/>
</linearGradient>
<linearGradient id="paint20_linear_9370_126208" x1="21.9464" y1="41.1439" x2="23.4141" y2="38.602" gradientUnits="userSpaceOnUse">
<stop stop-color="#C9BAEC" style="stop-color:#C9BAEC;stop-color:color(display-p3 0.7882 0.7294 0.9255);stop-opacity:1;"/>
<stop offset="0.3503" stop-color="#D9CDF3" style="stop-color:#D9CDF3;stop-color:color(display-p3 0.8510 0.8039 0.9529);stop-opacity:1;"/>
<stop offset="1" stop-color="#F3EDFF" style="stop-color:#F3EDFF;stop-color:color(display-p3 0.9529 0.9294 1.0000);stop-opacity:1;"/>
</linearGradient>
<linearGradient id="paint21_linear_9370_126208" x1="30.2833" y1="52.7383" x2="22.7289" y2="39.6537" gradientUnits="userSpaceOnUse">
<stop stop-color="#C62834" style="stop-color:#C62834;stop-color:color(display-p3 0.7765 0.1569 0.2039);stop-opacity:1;"/>
<stop offset="0.4744" stop-color="#E33746" style="stop-color:#E33746;stop-color:color(display-p3 0.8902 0.2157 0.2745);stop-opacity:1;"/>
<stop offset="1" stop-color="#FF4557" style="stop-color:#FF4557;stop-color:color(display-p3 1.0000 0.2706 0.3412);stop-opacity:1;"/>
</linearGradient>
<linearGradient id="paint22_linear_9370_126208" x1="39.4163" y1="48.3647" x2="31.5373" y2="34.718" gradientUnits="userSpaceOnUse">
<stop stop-color="#C62834" style="stop-color:#C62834;stop-color:color(display-p3 0.7765 0.1569 0.2039);stop-opacity:1;"/>
<stop offset="0.4744" stop-color="#E33746" style="stop-color:#E33746;stop-color:color(display-p3 0.8902 0.2157 0.2745);stop-opacity:1;"/>
<stop offset="1" stop-color="#FF4557" style="stop-color:#FF4557;stop-color:color(display-p3 1.0000 0.2706 0.3412);stop-opacity:1;"/>
</linearGradient>
<linearGradient id="paint23_linear_9370_126208" x1="47.281" y1="43.9603" x2="39.6279" y2="30.7044" gradientUnits="userSpaceOnUse">
<stop stop-color="#C62834" style="stop-color:#C62834;stop-color:color(display-p3 0.7765 0.1569 0.2039);stop-opacity:1;"/>
<stop offset="0.4744" stop-color="#E33746" style="stop-color:#E33746;stop-color:color(display-p3 0.8902 0.2157 0.2745);stop-opacity:1;"/>
<stop offset="1" stop-color="#FF4557" style="stop-color:#FF4557;stop-color:color(display-p3 1.0000 0.2706 0.3412);stop-opacity:1;"/>
</linearGradient>
<linearGradient id="paint24_linear_9370_126208" x1="31.333" y1="37.7775" x2="11.7123" y2="3.79447" gradientUnits="userSpaceOnUse">
<stop stop-color="#FFE026" style="stop-color:#FFE026;stop-color:color(display-p3 1.0000 0.8784 0.1490);stop-opacity:1;"/>
<stop offset="1" stop-color="#FFF2B0" style="stop-color:#FFF2B0;stop-color:color(display-p3 1.0000 0.9490 0.6902);stop-opacity:1;"/>
</linearGradient>
<linearGradient id="paint25_linear_9370_126208" x1="23.8075" y1="8.73789" x2="39.2992" y2="12.2512" gradientUnits="userSpaceOnUse">
<stop stop-color="#FF7B2A" style="stop-color:#FF7B2A;stop-color:color(display-p3 1.0000 0.4824 0.1647);stop-opacity:1;"/>
<stop offset="1" stop-color="#FFC51E" style="stop-color:#FFC51E;stop-color:color(display-p3 1.0000 0.7725 0.1176);stop-opacity:1;"/>
</linearGradient>
<linearGradient id="paint26_linear_9370_126208" x1="29.6305" y1="22.2591" x2="32.0623" y2="4.06641" gradientUnits="userSpaceOnUse">
<stop stop-color="#FF7B2A" style="stop-color:#FF7B2A;stop-color:color(display-p3 1.0000 0.4824 0.1647);stop-opacity:1;"/>
<stop offset="0.3616" stop-color="#FF9B25" style="stop-color:#FF9B25;stop-color:color(display-p3 1.0000 0.6078 0.1451);stop-opacity:1;"/>
<stop offset="0.77" stop-color="#FFBA20" style="stop-color:#FFBA20;stop-color:color(display-p3 1.0000 0.7294 0.1255);stop-opacity:1;"/>
<stop offset="1" stop-color="#FFC51E" style="stop-color:#FFC51E;stop-color:color(display-p3 1.0000 0.7725 0.1176);stop-opacity:1;"/>
</linearGradient>
<linearGradient id="paint27_linear_9370_126208" x1="30.4765" y1="14.3232" x2="21.8949" y2="23.8326" gradientUnits="userSpaceOnUse">
<stop stop-color="#FF7B2A" style="stop-color:#FF7B2A;stop-color:color(display-p3 1.0000 0.4824 0.1647);stop-opacity:1;"/>
<stop offset="1" stop-color="#FFC51E" style="stop-color:#FFC51E;stop-color:color(display-p3 1.0000 0.7725 0.1176);stop-opacity:1;"/>
</linearGradient>
<linearGradient id="paint28_linear_9370_126208" x1="24.6231" y1="37.4472" x2="30.5673" y2="24.0278" gradientUnits="userSpaceOnUse">
<stop stop-color="#FF7B2A" style="stop-color:#FF7B2A;stop-color:color(display-p3 1.0000 0.4824 0.1647);stop-opacity:1;"/>
<stop offset="1" stop-color="#FFC51E" style="stop-color:#FFC51E;stop-color:color(display-p3 1.0000 0.7725 0.1176);stop-opacity:1;"/>
</linearGradient>
<linearGradient id="paint29_linear_9370_126208" x1="31.237" y1="29.2535" x2="39.6128" y2="19.0763" gradientUnits="userSpaceOnUse">
<stop stop-color="#FF7B2A" style="stop-color:#FF7B2A;stop-color:color(display-p3 1.0000 0.4824 0.1647);stop-opacity:1;"/>
<stop offset="1" stop-color="#FFC51E" style="stop-color:#FFC51E;stop-color:color(display-p3 1.0000 0.7725 0.1176);stop-opacity:1;"/>
</linearGradient>
<linearGradient id="paint30_linear_9370_126208" x1="17.9892" y1="42.5383" x2="7.9364" y2="25.1268" gradientUnits="userSpaceOnUse">
<stop stop-color="#FFE026" style="stop-color:#FFE026;stop-color:color(display-p3 1.0000 0.8784 0.1490);stop-opacity:1;"/>
<stop offset="1" stop-color="#FFF2B0" style="stop-color:#FFF2B0;stop-color:color(display-p3 1.0000 0.9490 0.6902);stop-opacity:1;"/>
</linearGradient>
<linearGradient id="paint31_linear_9370_126208" x1="14.1335" y1="27.6564" x2="22.0708" y2="29.4564" gradientUnits="userSpaceOnUse">
<stop stop-color="#FF7B2A" style="stop-color:#FF7B2A;stop-color:color(display-p3 1.0000 0.4824 0.1647);stop-opacity:1;"/>
<stop offset="1" stop-color="#FFC51E" style="stop-color:#FFC51E;stop-color:color(display-p3 1.0000 0.7725 0.1176);stop-opacity:1;"/>
</linearGradient>
<linearGradient id="paint32_linear_9370_126208" x1="17.1168" y1="34.5833" x2="18.3627" y2="25.2622" gradientUnits="userSpaceOnUse">
<stop stop-color="#FF7B2A" style="stop-color:#FF7B2A;stop-color:color(display-p3 1.0000 0.4824 0.1647);stop-opacity:1;"/>
<stop offset="0.3616" stop-color="#FF9B25" style="stop-color:#FF9B25;stop-color:color(display-p3 1.0000 0.6078 0.1451);stop-opacity:1;"/>
<stop offset="0.77" stop-color="#FFBA20" style="stop-color:#FFBA20;stop-color:color(display-p3 1.0000 0.7294 0.1255);stop-opacity:1;"/>
<stop offset="1" stop-color="#FFC51E" style="stop-color:#FFC51E;stop-color:color(display-p3 1.0000 0.7725 0.1176);stop-opacity:1;"/>
</linearGradient>
<linearGradient id="paint33_linear_9370_126208" x1="17.5503" y1="30.5175" x2="13.1535" y2="35.3897" gradientUnits="userSpaceOnUse">
<stop stop-color="#FF7B2A" style="stop-color:#FF7B2A;stop-color:color(display-p3 1.0000 0.4824 0.1647);stop-opacity:1;"/>
<stop offset="1" stop-color="#FFC51E" style="stop-color:#FFC51E;stop-color:color(display-p3 1.0000 0.7725 0.1176);stop-opacity:1;"/>
</linearGradient>
<linearGradient id="paint34_linear_9370_126208" x1="14.5512" y1="42.3653" x2="17.5968" y2="35.4896" gradientUnits="userSpaceOnUse">
<stop stop-color="#FF7B2A" style="stop-color:#FF7B2A;stop-color:color(display-p3 1.0000 0.4824 0.1647);stop-opacity:1;"/>
<stop offset="1" stop-color="#FFC51E" style="stop-color:#FFC51E;stop-color:color(display-p3 1.0000 0.7725 0.1176);stop-opacity:1;"/>
</linearGradient>
<linearGradient id="paint35_linear_9370_126208" x1="17.94" y1="38.1671" x2="22.2315" y2="32.9527" gradientUnits="userSpaceOnUse">
<stop stop-color="#FF7B2A" style="stop-color:#FF7B2A;stop-color:color(display-p3 1.0000 0.4824 0.1647);stop-opacity:1;"/>
<stop offset="1" stop-color="#FFC51E" style="stop-color:#FFC51E;stop-color:color(display-p3 1.0000 0.7725 0.1176);stop-opacity:1;"/>
</linearGradient>
<linearGradient id="paint36_linear_9370_126208" x1="44.6228" y1="26.8292" x2="34.57" y2="9.41764" gradientUnits="userSpaceOnUse">
<stop stop-color="#FFE026" style="stop-color:#FFE026;stop-color:color(display-p3 1.0000 0.8784 0.1490);stop-opacity:1;"/>
<stop offset="1" stop-color="#FFF2B0" style="stop-color:#FFF2B0;stop-color:color(display-p3 1.0000 0.9490 0.6902);stop-opacity:1;"/>
</linearGradient>
<linearGradient id="paint37_linear_9370_126208" x1="40.7672" y1="11.9473" x2="48.7045" y2="13.7474" gradientUnits="userSpaceOnUse">
<stop stop-color="#FF7B2A" style="stop-color:#FF7B2A;stop-color:color(display-p3 1.0000 0.4824 0.1647);stop-opacity:1;"/>
<stop offset="1" stop-color="#FFC51E" style="stop-color:#FFC51E;stop-color:color(display-p3 1.0000 0.7725 0.1176);stop-opacity:1;"/>
</linearGradient>
<linearGradient id="paint38_linear_9370_126208" x1="43.7506" y1="18.8743" x2="44.9964" y2="9.55309" gradientUnits="userSpaceOnUse">
<stop stop-color="#FF7B2A" style="stop-color:#FF7B2A;stop-color:color(display-p3 1.0000 0.4824 0.1647);stop-opacity:1;"/>
<stop offset="0.3616" stop-color="#FF9B25" style="stop-color:#FF9B25;stop-color:color(display-p3 1.0000 0.6078 0.1451);stop-opacity:1;"/>
<stop offset="0.77" stop-color="#FFBA20" style="stop-color:#FFBA20;stop-color:color(display-p3 1.0000 0.7294 0.1255);stop-opacity:1;"/>
<stop offset="1" stop-color="#FFC51E" style="stop-color:#FFC51E;stop-color:color(display-p3 1.0000 0.7725 0.1176);stop-opacity:1;"/>
</linearGradient>
<linearGradient id="paint39_linear_9370_126208" x1="44.184" y1="14.8084" x2="39.7871" y2="19.6807" gradientUnits="userSpaceOnUse">
<stop stop-color="#FF7B2A" style="stop-color:#FF7B2A;stop-color:color(display-p3 1.0000 0.4824 0.1647);stop-opacity:1;"/>
<stop offset="1" stop-color="#FFC51E" style="stop-color:#FFC51E;stop-color:color(display-p3 1.0000 0.7725 0.1176);stop-opacity:1;"/>
</linearGradient>
<linearGradient id="paint40_linear_9370_126208" x1="41.185" y1="26.6562" x2="44.2305" y2="19.7807" gradientUnits="userSpaceOnUse">
<stop stop-color="#FF7B2A" style="stop-color:#FF7B2A;stop-color:color(display-p3 1.0000 0.4824 0.1647);stop-opacity:1;"/>
<stop offset="1" stop-color="#FFC51E" style="stop-color:#FFC51E;stop-color:color(display-p3 1.0000 0.7725 0.1176);stop-opacity:1;"/>
</linearGradient>
<linearGradient id="paint41_linear_9370_126208" x1="44.5738" y1="22.4581" x2="48.8652" y2="17.2437" gradientUnits="userSpaceOnUse">
<stop stop-color="#FF7B2A" style="stop-color:#FF7B2A;stop-color:color(display-p3 1.0000 0.4824 0.1647);stop-opacity:1;"/>
<stop offset="1" stop-color="#FFC51E" style="stop-color:#FFC51E;stop-color:color(display-p3 1.0000 0.7725 0.1176);stop-opacity:1;"/>
</linearGradient>
</defs>
</svg>
