<svg width="60" height="60" viewBox="0 0 60 60" fill="none" xmlns="http://www.w3.org/2000/svg">
<path d="M18.093 58.6697L18.0933 58.67C21.3614 59.6946 25.1309 60.1218 28.9752 59.9696L28.9767 59.969L40.0391 57.8835L40.0516 57.8823C41.8121 57.2598 43.4905 56.5021 45.0354 55.6102C46.5074 54.7604 47.7675 53.8403 48.816 52.8762L52.6383 39.2852L8.60897 42.8485V49.0802C8.60886 49.0998 8.60886 49.1195 8.60897 49.1391V49.1713L8.60968 49.1712C8.62503 51.0113 9.34491 52.797 10.7853 54.385L18.093 58.6697Z" fill="url(#paint0_linear_9370_126252)" style=""/>
<path d="M10.7852 54.385C11.612 55.2967 12.6756 56.1435 13.9818 56.8976C15.2214 57.6133 16.6053 58.2033 18.0929 58.6697V52.4736L10.7852 48.1885V54.385Z" fill="url(#paint1_linear_9370_126252)" style=""/>
<path d="M8.60897 49.0802C8.60886 49.0998 8.60886 49.1195 8.60897 49.1392V49.1714L8.60968 49.1713C8.63276 51.9243 10.2312 54.5556 13.4643 56.5848L19.7798 52.9386L12.4218 42.54L8.60897 42.8486V49.0802Z" fill="url(#paint2_linear_9370_126252)" style=""/>
<path d="M48.8159 52.8762C51.357 50.5396 52.6468 47.9418 52.6378 45.4421H52.6382V39.2852L48.8159 46.6806V52.8762Z" fill="url(#paint3_linear_9370_126252)" style=""/>
<path d="M50.4604 33.9981L43.1538 29.7135C39.8852 28.6886 36.115 28.2614 32.2701 28.4138L21.2077 30.4964C19.4426 31.1198 17.7599 31.879 16.2114 32.773C14.7398 33.6228 13.4792 34.5425 12.4308 35.5063L8.68353 41.877C8.369 44.1005 9.06017 46.2866 10.7858 48.1893L18.0929 52.474C21.3615 53.4989 25.1316 53.9261 28.9765 53.7737L40.0389 51.6911C41.804 51.0677 43.4867 50.3085 45.0353 49.4145C46.5071 48.5648 47.7676 47.6451 48.8159 46.6812L52.6354 39.2912C52.6403 37.4232 51.9212 35.609 50.4604 33.9981Z" fill="url(#paint4_linear_9370_126252)" style=""/>
<path d="M42.7996 34.0639C36.9757 30.7015 26.8032 31.1232 20.0784 35.0057C13.3536 38.8883 12.6232 44.7615 18.4471 48.1238C24.271 51.4861 34.4436 51.0645 41.1684 47.182C47.8932 43.2995 48.6235 37.4263 42.7996 34.0639ZM39.5686 46.2584C33.8641 49.552 25.2347 49.9096 20.2945 47.0574C15.3542 44.2051 15.9738 39.2229 21.6783 35.9294C27.3829 32.6358 36.0122 32.2782 40.9525 35.1304C45.8927 37.9828 45.2731 42.9649 39.5686 46.2584Z" fill="url(#paint5_linear_9370_126252)" style=""/>
<path d="M20.0784 35.5368C26.8032 31.6543 36.9758 31.2326 42.7997 34.595C45.3289 36.0552 46.6203 37.9893 46.723 40.028C46.8348 37.7963 45.5477 35.6505 42.7997 34.0639C36.9758 30.7015 26.8032 31.1232 20.0784 35.0057C16.2743 37.202 14.39 40.0353 14.5237 42.6908C14.649 40.1929 16.5269 37.5872 20.0784 35.5368Z" fill="url(#paint6_linear_9370_126252)" style=""/>
<path d="M20.2945 47.5888C25.2348 50.441 33.8642 50.0834 39.5687 46.7898C42.8151 44.9156 44.412 42.4948 44.2773 40.2305C44.153 42.337 42.5623 44.5303 39.5687 46.2586C33.8642 49.5521 25.2348 49.9098 20.2945 47.0576C18.1656 45.8284 17.0718 44.2035 16.9698 42.4889C16.8572 44.3966 17.9468 46.2333 20.2945 47.5888Z" fill="url(#paint7_linear_9370_126252)" style=""/>
<path d="M19.9143 48.5004L20.6871 47.9797C21.3212 48.2776 22.0142 48.5379 22.7469 48.7535L22.1348 49.3344C21.3448 49.102 20.5978 48.8215 19.9143 48.5004ZM18.0572 47.4224C17.5049 47.0259 17.0229 46.593 16.6243 46.1354L17.6328 45.7847C18.0025 46.209 18.4497 46.6107 18.9622 46.9784L18.0572 47.4224ZM24.6469 49.8928L25.0768 49.2713C25.8872 49.3987 26.7351 49.481 27.5967 49.516L27.3624 50.1565C26.4342 50.1187 25.5204 50.03 24.6469 49.8928ZM15.6704 44.6817C15.4372 44.1764 15.288 43.6482 15.2271 43.112L16.3367 42.9797C16.3933 43.4775 16.5316 43.9674 16.748 44.4363L15.6704 44.6817ZM30.1876 50.1186L30.2192 49.4809C31.0997 49.4226 31.9866 49.3173 32.8551 49.1677L33.0275 49.7812C32.0916 49.9424 31.1361 50.0558 30.1876 50.1186ZM15.306 41.48C15.4192 40.9322 15.6203 40.3807 15.9033 39.8408L16.9645 39.9432C16.7016 40.4443 16.5151 40.9562 16.4099 41.4648L15.306 41.48ZM35.7862 49.1544L35.4144 48.5861C36.2432 48.3498 37.0491 48.0699 37.8096 47.7543L38.3688 48.2573C37.5488 48.5977 36.6799 48.8995 35.7862 49.1544ZM17.0021 38.2494C17.4475 37.7343 17.974 37.2338 18.567 36.7617L19.4349 37.0872C18.8851 37.5252 18.3966 37.9893 17.9835 38.467L17.0021 38.2494ZM40.6871 47.1221L39.9591 46.7019L39.9949 46.6813C40.6632 46.2954 41.279 45.8785 41.8252 45.4424L42.6944 45.767C42.1059 46.237 41.4426 46.686 40.7228 47.1016L40.6871 47.1221ZM21.2687 35.8496L20.5419 35.4287C21.2623 35.0138 22.0409 34.6315 22.8562 34.2922L23.4168 34.7946C22.6604 35.1095 21.9376 35.4644 21.2687 35.8496ZM43.2732 44.0615C43.6847 43.5839 44.0265 43.087 44.2885 42.5847L45.3501 42.6862C45.0677 43.2276 44.6994 43.7632 44.2556 44.2781L43.2732 44.0615ZM25.8104 33.9607L25.437 33.393C26.3293 33.1377 27.257 32.9259 28.1945 32.7637L28.3686 33.377C27.4987 33.5273 26.6381 33.7237 25.8104 33.9607ZM44.8389 41.0631C44.9425 40.5549 44.9657 40.0454 44.9079 39.5483L46.0175 39.4152C46.0796 39.9505 46.0547 40.4995 45.9432 41.0468L44.8389 41.0631ZM31.0042 33.0615L31.0341 32.4239C31.9821 32.3602 32.9328 32.3467 33.8599 32.3835L33.6274 33.0239C32.7669 32.9898 31.8843 33.0024 31.0042 33.0615ZM44.4924 38.0922C44.2742 37.6229 43.9753 37.1696 43.6038 36.7451L44.6115 36.3934C45.0121 36.8513 45.3344 37.34 45.5697 37.846L44.4924 38.0922ZM36.1484 33.2662L36.5766 32.6445C37.4526 32.7812 38.2986 32.9682 39.0909 33.2004L38.4803 33.7817C37.7454 33.5663 36.9609 33.3929 36.1484 33.2662ZM42.2706 35.5528C41.7608 35.1881 41.1733 34.8484 40.543 34.5534L41.3143 34.0322C41.993 34.3497 42.6253 34.7154 43.1745 35.1082L42.2706 35.5528Z" fill="url(#paint8_linear_9370_126252)" style=""/>
<path d="M38.5192 45.6522C43.5547 42.745 44.1016 38.3472 39.7407 35.8296C35.3799 33.3119 27.7627 33.6276 22.7273 36.5348C17.6918 39.442 17.1449 43.8398 21.5058 46.3575C25.8666 48.8751 33.4838 48.5594 38.5192 45.6522Z" fill="url(#paint9_linear_9370_126252)" style=""/>
<path d="M47.2648 31.4852C46.0252 30.7696 44.6413 30.1794 43.1537 29.7129L42.2101 30.2577C41.2841 30.7923 41.1836 31.6011 41.9855 32.0641L46.4462 34.6396C47.2481 35.1026 48.649 35.0446 49.575 34.5098L50.4614 33.9981C49.6343 33.0864 48.5709 32.2395 47.2648 31.4852Z" fill="url(#paint10_linear_9370_126252)" style=""/>
<path d="M21.2075 30.4966L21.4433 31.1772C21.6749 31.8455 22.8376 32.1997 24.0406 31.9681L30.7318 30.6805C31.9347 30.4489 32.7222 29.7195 32.4907 29.0512L32.27 28.4141C28.5214 28.5625 24.7024 29.2623 21.2075 30.4966Z" fill="url(#paint11_linear_9370_126252)" style=""/>
<path d="M14.9088 37.1334C15.3098 36.4388 14.6965 35.7674 13.539 35.6338L12.4307 35.5059C10.248 37.5126 8.9898 39.712 8.68359 41.8765L9.85652 42.012C11.0141 42.1457 12.2775 41.691 12.6785 40.9964L14.9088 37.1334Z" fill="url(#paint12_linear_9370_126252)" style=""/>
<path d="M19.2608 50.1234L14.8001 47.5479C13.9982 47.0849 12.5973 47.1429 11.6713 47.6777L10.7849 48.1894C11.612 49.1011 12.6754 49.9482 13.9816 50.7023C15.2212 51.4179 16.605 52.0081 18.0926 52.4746L19.0362 51.9298C19.9622 51.3951 20.0628 50.5864 19.2608 50.1234Z" fill="url(#paint13_linear_9370_126252)" style=""/>
<path d="M28.9766 59.9699C32.7256 59.8214 36.5436 59.1191 40.0389 57.8844V51.6914L28.9766 53.7741V59.9699Z" fill="url(#paint14_linear_9370_126252)" style=""/>
<path d="M39.8032 51.0102C39.5717 50.3419 38.4088 49.9879 37.2058 50.2193L30.5147 51.507C29.3117 51.7384 28.5242 52.4679 28.7557 53.1362L28.9764 53.7734C32.7248 53.6248 36.5439 52.9251 40.0387 51.6907L39.8032 51.0102Z" fill="url(#paint15_linear_9370_126252)" style=""/>
<path d="M52.6381 39.2854L51.6378 39.2235C50.4802 39.0898 49.2168 39.5445 48.8158 40.2391L46.3377 45.0533C45.9366 45.7478 46.55 46.4192 47.7076 46.5528L48.8159 46.6808C50.9984 44.6741 52.5244 41.6825 52.6381 39.2854Z" fill="url(#paint16_linear_9370_126252)" style=""/>
<path d="M13.9818 50.7017C15.6785 51.6812 17.646 52.425 19.7798 52.9389H24.288V38.2539H10.0852C7.2537 42.6863 8.46683 47.5176 13.9818 50.7017Z" fill="url(#paint17_linear_9370_126252)" style=""/>
<path d="M15.0465 51.6092L15.0469 51.6094C18.315 52.6341 22.0845 53.0612 25.9288 52.909L25.9303 52.9084L36.9927 50.823L37.0051 50.8218C38.7656 50.1993 40.4441 49.4416 41.989 48.5496C43.461 47.6998 44.7211 46.7798 45.7696 45.8157L49.5919 32.2246L5.56255 35.7879V42.0196C5.56243 42.0393 5.56255 42.059 5.56255 42.0786V42.1108H5.56326C5.57872 43.9509 6.29849 45.7366 7.73884 47.3246L15.0465 51.6092Z" fill="url(#paint18_linear_9370_126252)" style=""/>
<path d="M7.73877 47.3245C8.56564 48.2362 9.62924 49.083 10.9354 49.8371C12.1749 50.5527 13.5589 51.1427 15.0465 51.6092V45.413L7.73877 41.1279V47.3245Z" fill="url(#paint19_linear_9370_126252)" style=""/>
<path d="M5.56308 42.02C5.56296 42.0397 5.56296 42.0594 5.56308 42.0789V42.1112H5.56378C5.58804 45.0077 7.35487 47.7699 10.9359 49.8375C11.1836 49.9804 11.4371 50.1185 11.696 50.2515L18.6042 46.263L12.7011 35.2109L5.56319 35.7886V42.02H5.56308Z" fill="url(#paint20_linear_9370_126252)" style=""/>
<path d="M45.7695 45.8157C48.3106 43.4791 49.6004 40.8814 49.5914 38.3815H49.5918V32.2246L45.7695 39.6201V45.8157Z" fill="url(#paint21_linear_9370_126252)" style=""/>
<path d="M47.4143 26.9375L40.1075 22.653C36.8389 21.628 33.0688 21.2009 29.2238 21.3532L18.1615 23.4358C16.3964 24.0592 14.7137 24.8184 13.1652 25.7124C11.6935 26.5621 10.4329 27.4817 9.38458 28.4457L5.63739 34.8164C5.32286 37.04 6.01403 39.2261 7.73962 41.1287L15.0467 45.4135C18.3153 46.4384 22.0855 46.8655 25.9304 46.7132L36.9928 44.6307C38.7579 44.0072 40.4406 43.2481 41.9892 42.3541C43.4609 41.5043 44.7214 40.5846 45.7698 39.6208L49.5893 32.2308C49.5942 30.3625 48.875 28.5483 47.4143 26.9375Z" fill="url(#paint22_linear_9370_126252)" style=""/>
<path d="M39.7532 27.0033C33.9294 23.641 23.7568 24.0626 17.032 27.9452C10.3072 31.8277 9.57688 37.7009 15.4006 41.0633C21.2245 44.4256 31.3971 44.004 38.1219 40.1214C44.8467 36.2389 45.577 30.3657 39.7532 27.0033ZM36.5222 39.1977C30.8176 42.4913 22.1882 42.849 17.248 39.9967C12.3077 37.1444 12.9273 32.1623 18.6318 28.8687C24.3364 25.5752 32.9657 25.2175 37.906 28.0697C42.8463 30.922 42.2267 35.9043 36.5222 39.1977Z" fill="url(#paint23_linear_9370_126252)" style=""/>
<path d="M17.032 28.4763C23.7568 24.5937 33.9294 24.1721 39.7533 27.5344C42.2825 28.9947 43.574 30.9288 43.6766 32.9675C43.7884 30.7358 42.5013 28.5899 39.7533 27.0033C33.9294 23.641 23.7568 24.0626 17.032 27.9452C13.2279 30.1415 11.3436 32.9747 11.4774 35.6302C11.6025 33.1324 13.4804 30.5268 17.032 28.4763Z" fill="url(#paint24_linear_9370_126252)" style=""/>
<path d="M17.2477 40.5282C22.1879 43.3805 30.8173 43.0228 36.5218 39.7293C39.7682 37.8551 41.3651 35.4342 41.2304 33.1699C41.1061 35.2765 39.5154 37.4698 36.5218 39.198C30.8173 42.4916 22.1879 42.8493 17.2477 39.997C15.1187 38.7679 14.0249 37.1429 13.9229 35.4284C13.8104 37.3362 14.8999 39.1728 17.2477 40.5282Z" fill="url(#paint25_linear_9370_126252)" style=""/>
<path d="M16.8682 41.4399L17.6409 40.9193C18.275 41.2172 18.9681 41.4774 19.7007 41.6931L19.0886 42.274C18.2987 42.0416 17.5517 41.7609 16.8682 41.4399ZM15.0111 40.3619C14.4588 39.9655 13.9768 39.5326 13.5781 39.075L14.5867 38.7242C14.9564 39.1487 15.4036 39.5503 15.916 39.918L15.0111 40.3619ZM21.6008 42.8324L22.0306 42.2109C22.8411 42.3382 23.689 42.4206 24.5505 42.4556L24.3163 43.096C23.388 43.0583 22.4743 42.9695 21.6008 42.8324ZM12.6242 37.6211C12.391 37.1158 12.2418 36.5877 12.1809 36.0514L13.2906 35.9191C13.3472 36.4168 13.4854 36.9069 13.7019 37.3758L12.6242 37.6211ZM27.1414 43.0582L27.1731 42.4204C28.0536 42.3622 28.9405 42.2569 29.809 42.1073L29.9813 42.7208C29.0456 42.8818 28.09 42.9954 27.1414 43.0582ZM12.2599 34.4195C12.3731 33.8716 12.5741 33.3201 12.8572 32.7801L13.9182 32.8826C13.6554 33.3836 13.4688 33.8955 13.3637 34.4041L12.2599 34.4195ZM32.74 42.094L32.3683 41.5257C33.1972 41.2894 34.0031 41.0095 34.7635 40.6939L35.3227 41.197C34.5028 41.5373 33.6337 41.8391 32.74 42.094ZM13.9559 31.189C14.4014 30.6739 14.9279 30.1734 15.5209 29.7013L16.3888 30.0267C15.8389 30.4646 15.3505 30.9288 14.9374 31.4065L13.9559 31.189ZM37.6409 40.0616L36.913 39.6412L36.9487 39.6206C37.6172 39.2347 38.2329 38.8179 38.7791 38.3817L39.6483 38.7063C39.0597 39.1763 38.3965 39.6254 37.6767 40.0408L37.6409 40.0616ZM18.2225 28.7892L17.4957 28.3683C18.2162 27.9534 18.9948 27.571 19.81 27.2318L20.3707 27.7342C19.6142 28.0489 18.8914 28.4039 18.2225 28.7892ZM40.227 37.001C40.6386 36.5233 40.9803 36.0265 41.2424 35.5242L42.304 35.6257C42.0215 36.1671 41.6532 36.7026 41.2094 37.2176L40.227 37.001ZM22.7642 26.9001L22.3909 26.3325C23.2831 26.0771 24.2109 25.8654 25.1484 25.7032L25.3224 26.3164C24.4525 26.4669 23.5919 26.6633 22.7642 26.9001ZM41.7928 34.0025C41.8964 33.4944 41.9196 32.9849 41.8618 32.4877L42.9713 32.3546C43.0334 32.8899 43.0086 33.439 42.897 33.9862L41.7928 34.0025ZM27.9581 26.001L27.988 25.3633C28.9359 25.2997 29.8867 25.2861 30.8137 25.3229L30.5812 25.9633C29.7207 25.9292 28.8382 25.9419 27.9581 26.001ZM41.4463 31.0318C41.2282 30.5625 40.9291 30.1092 40.5576 29.6846L41.5653 29.3329C41.966 29.7909 42.2883 30.2796 42.5236 30.7856L41.4463 31.0318ZM33.1023 26.2057L33.5305 25.584C34.4065 25.7206 35.2524 25.9077 36.0447 26.1398L35.4342 26.7212C34.6994 26.5058 33.9149 26.3325 33.1023 26.2057ZM39.2245 28.4922C38.7145 28.1276 38.1272 27.7878 37.4967 27.4929L38.268 26.9716C38.9468 27.2892 39.579 27.6548 40.1284 28.0476L39.2245 28.4922Z" fill="url(#paint26_linear_9370_126252)" style=""/>
<path d="M35.4727 38.5917C40.5081 35.6845 41.0551 31.2867 36.6943 28.7691C32.3335 26.2513 24.7163 26.5671 19.6809 29.4743C14.6455 32.3815 14.0985 36.7793 18.4594 39.297C22.8202 41.8147 30.4373 41.4989 35.4727 38.5917Z" fill="url(#paint27_linear_9370_126252)" style=""/>
<path d="M44.2186 24.4247C42.979 23.709 41.5951 23.1189 40.1076 22.6523L39.164 23.1971C38.238 23.7318 38.1374 24.5406 38.9393 25.0036L43.4001 27.579C44.202 28.042 45.6028 27.984 46.5289 27.4493L47.4153 26.9375C46.5882 26.0258 45.5248 25.1788 44.2186 24.4247Z" fill="url(#paint28_linear_9370_126252)" style=""/>
<path d="M18.1614 23.4351L18.3972 24.1157C18.6287 24.784 19.7916 25.1382 20.9945 24.9066L27.6857 23.6189C28.8886 23.3874 29.6761 22.658 29.4447 21.9897L29.224 21.3525C25.4754 21.501 21.6563 22.2009 18.1614 23.4351Z" fill="url(#paint29_linear_9370_126252)" style=""/>
<path d="M11.8626 30.0728C12.2636 29.3782 11.6502 28.7069 10.4926 28.5733L9.38439 28.4453C7.20166 30.452 5.94342 32.6514 5.63721 34.816L6.81014 34.9514C7.96772 35.0852 9.23111 34.6305 9.63213 33.9359L11.8626 30.0728Z" fill="url(#paint30_linear_9370_126252)" style=""/>
<path d="M16.215 43.0618L11.7542 40.4864C10.9523 40.0234 9.55144 40.0815 8.62542 40.6161L7.73901 41.1279C8.56612 42.0396 9.62948 42.8866 10.9357 43.6407C12.1753 44.3564 13.5591 44.9465 15.0467 45.4131L15.9903 44.8683C16.9163 44.3336 17.0169 43.5248 16.215 43.0618Z" fill="url(#paint31_linear_9370_126252)" style=""/>
<path d="M25.9302 52.9084C29.6792 52.7598 33.4973 52.0576 36.9926 50.8229V44.6299L25.9302 46.7125V52.9084Z" fill="url(#paint32_linear_9370_126252)" style=""/>
<path d="M36.757 43.9487C36.5256 43.2804 35.3628 42.9263 34.1597 43.1578L27.4685 44.4454C26.2656 44.6769 25.4781 45.4064 25.7095 46.0747L25.9302 46.7119C29.6787 46.5634 33.4977 45.8635 36.9926 44.6293L36.757 43.9487Z" fill="url(#paint33_linear_9370_126252)" style=""/>
<path d="M49.592 32.2248L48.5917 32.163C47.4341 32.0293 46.1707 32.484 45.7697 33.1785L43.2915 37.9927C42.8905 38.6873 43.5039 39.3586 44.6613 39.4922L45.7697 39.6202C47.9523 37.6135 49.4783 34.6219 49.592 32.2248Z" fill="url(#paint34_linear_9370_126252)" style=""/>
<path d="M25.4296 26.001C25.4296 26.001 18.6543 26.0416 12.5906 26.0554C3.93745 31.3593 3.14596 39.1432 10.9358 43.6407C13.118 44.9006 15.7477 45.771 18.604 46.2625H26.4471L25.4296 26.001Z" fill="url(#paint35_linear_9370_126252)" style=""/>
<path d="M17.4006 44.9634L17.4009 44.9637C20.6691 45.9884 24.4385 46.4155 28.2828 46.2633L28.2844 46.2627L39.3467 44.1772L39.3592 44.1761C41.1197 43.5536 42.7982 42.7958 44.343 41.9039C45.815 41.0541 47.0751 40.134 48.1236 39.1699L51.9459 25.5791L7.91659 29.1422V35.3739C7.91647 35.3936 7.91647 35.4132 7.91659 35.4328V35.465H7.91729C7.93276 37.3051 8.65253 39.0908 10.0929 40.6788L17.4006 44.9634Z" fill="url(#paint36_linear_9370_126252)" style=""/>
<path d="M10.0928 40.6788C10.9196 41.5905 11.9832 42.4373 13.2894 43.1914C14.529 43.9071 15.9129 44.4972 17.4005 44.9636V38.7675L10.0928 34.4824V40.6788Z" fill="url(#paint37_linear_9370_126252)" style=""/>
<path d="M7.91659 35.3746C7.91647 35.3943 7.91647 35.4139 7.91659 35.4335V35.4657L7.91729 35.4656C7.94038 38.2186 9.53882 40.8499 12.7719 42.8791L19.0874 39.2329L16.6203 28.4385L7.91659 29.1429V35.3746Z" fill="url(#paint38_linear_9370_126252)" style=""/>
<path d="M48.1235 39.1702C50.6646 36.8336 51.9544 34.2357 51.9454 31.736H51.9458V25.5791L48.1235 32.9746V39.1702Z" fill="url(#paint39_linear_9370_126252)" style=""/>
<path d="M49.7684 20.2919L42.4618 16.0075C39.1932 14.9825 35.423 14.5554 31.5781 14.7077L20.5157 16.7904C18.7506 17.4138 17.0679 18.173 15.5194 19.067C14.0478 19.9167 12.7872 20.8364 11.7388 21.8003L7.99164 28.171C7.6771 30.3946 8.36828 32.5807 10.0939 34.4834L17.401 38.7681C20.6696 39.793 24.4397 40.2202 28.2846 40.0678L39.347 37.9853C41.1121 37.3618 42.7948 36.6027 44.3434 35.7087C45.8152 34.8589 47.0757 33.9394 48.124 32.9754L51.9435 25.5854C51.9482 23.717 51.229 21.9028 49.7684 20.2919Z" fill="url(#paint40_linear_9370_126252)" style=""/>
<path d="M42.1072 20.3578C36.2834 16.9955 26.1108 17.4171 19.386 21.2997C12.6612 25.1822 11.9309 31.0554 17.7547 34.4177C23.5786 37.7801 33.7512 37.3585 40.476 33.4759C47.2007 29.5934 47.9311 23.7202 42.1072 20.3578ZM38.8761 32.5522C33.1716 35.8458 24.5422 36.2035 19.602 33.3512C14.6617 30.4989 15.2813 25.5168 20.9858 22.2232C26.6904 18.9297 35.3197 18.572 40.26 21.4242C45.2003 24.2766 44.5807 29.2588 38.8761 32.5522Z" fill="url(#paint41_linear_9370_126252)" style=""/>
<path d="M19.3863 21.8317C26.1111 17.9492 36.2837 17.5276 42.1075 20.8899C44.6368 22.3502 45.9282 24.2842 46.0309 26.3229C46.1427 24.0912 44.8556 21.9454 42.1075 20.3588C36.2837 16.9965 26.1111 17.4181 19.3863 21.3006C15.5821 23.497 13.6979 26.3302 13.8316 28.9857C13.9568 26.4878 15.8347 23.8823 19.3863 21.8317Z" fill="url(#paint42_linear_9370_126252)" style=""/>
<path d="M19.6024 33.8826C24.5427 36.7348 33.172 36.3772 38.8766 33.0836C42.1229 31.2095 43.7198 28.7886 43.5852 26.5244C43.4608 28.631 41.8701 30.8243 38.8766 32.5525C33.172 35.8461 24.5427 36.2037 19.6024 33.3515C17.4735 32.1223 16.3796 30.4974 16.2777 28.7829C16.1651 30.6905 17.2546 32.5272 19.6024 33.8826Z" fill="url(#paint43_linear_9370_126252)" style=""/>
<path d="M19.2222 34.7954L19.9949 34.2747C20.629 34.5726 21.3221 34.8329 22.0547 35.0485L21.4426 35.6294C20.6527 35.397 19.9057 35.1164 19.2222 34.7954ZM17.3652 33.7174C16.8129 33.321 16.3309 32.8881 15.9323 32.4304L16.9408 32.0797C17.3105 32.504 17.7577 32.9058 18.2701 33.2735L17.3652 33.7174ZM23.9549 36.1878L24.3848 35.5664C25.1952 35.6936 26.0431 35.776 26.9046 35.8111L26.6704 36.4515C25.742 36.4138 24.8284 36.3249 23.9549 36.1878ZM14.9782 30.9766C14.745 30.4713 14.5958 29.9431 14.5349 29.4069L15.6446 29.2746C15.7012 29.7724 15.8394 30.2624 16.0559 30.7312L14.9782 30.9766ZM29.4954 36.4136L29.5271 35.7759C30.4076 35.7177 31.2945 35.6123 32.163 35.4628L32.3353 36.0763C31.3996 36.2373 30.4441 36.3508 29.4954 36.4136ZM14.6139 27.7749C14.7271 27.2271 14.9281 26.6756 15.2112 26.1356L16.2723 26.238C16.0095 26.7391 15.8229 27.251 15.7178 27.7596L14.6139 27.7749ZM35.0941 35.4494L34.7223 34.8812C35.5512 34.6448 36.3571 34.365 37.1175 34.0494L37.6767 34.5524C36.8568 34.8928 35.9878 35.1945 35.0941 35.4494ZM16.3101 24.5444C16.7555 24.0294 17.282 23.5289 17.875 23.0567L18.7429 23.3823C18.193 23.8202 17.7046 24.2844 17.2915 24.762L16.3101 24.5444ZM39.995 33.417L39.267 32.9968L39.3027 32.9762C39.971 32.5903 40.5869 32.1735 41.1331 31.7373L42.0023 32.0619C41.4137 32.5319 40.7505 32.9809 40.0307 33.3965L39.995 33.417ZM20.5765 22.1447L19.8497 21.7237C20.5702 21.3089 21.3488 20.9265 22.1641 20.5872L22.7247 21.0896C21.9682 21.4044 21.2454 21.7593 20.5765 22.1447ZM42.581 30.3565C42.9926 29.8788 43.3343 29.3819 43.5964 28.8797L44.658 28.9811C44.3755 29.5226 44.0072 30.0581 43.5634 30.573L42.581 30.3565ZM25.1182 20.2556L24.7449 19.6879C25.6371 19.4326 26.5649 19.2208 27.5024 19.0586L27.6764 19.6719C26.8067 19.8224 25.9459 20.0188 25.1182 20.2556ZM44.1468 27.358C44.2504 26.8499 44.2736 26.3403 44.2158 25.8432L45.3253 25.7101C45.3875 26.2454 45.3626 26.7944 45.251 27.3417L44.1468 27.358ZM30.3121 19.3564L30.342 18.7188C31.2899 18.6552 32.2407 18.6416 33.1677 18.6784L32.9352 19.3188C32.0747 19.2847 31.1922 19.2974 30.3121 19.3564ZM43.8003 24.3873C43.5821 23.9179 43.2831 23.4647 42.9116 23.0401L43.9193 22.6884C44.32 23.1464 44.6423 23.6349 44.8776 24.1411L43.8003 24.3873ZM35.4563 19.5611L35.8845 18.9395C36.7605 19.0761 37.6064 19.2631 38.3987 19.4953L37.7882 20.0767C37.0534 19.8613 36.2689 19.6879 35.4563 19.5611ZM41.5785 21.8477C41.0686 21.483 40.4812 21.1434 39.8508 20.8483L40.6221 20.3271C41.3009 20.6447 41.9331 21.0103 42.4824 21.4031L41.5785 21.8477Z" fill="url(#paint44_linear_9370_126252)" style=""/>
<path d="M37.827 31.9462C42.8624 29.039 43.4093 24.6412 39.0484 22.1235C34.6877 19.6059 27.0706 19.9216 22.0351 22.8287C16.9997 25.7359 16.4528 30.1336 20.8137 32.6514C25.1745 35.1691 32.7915 34.8534 37.827 31.9462Z" fill="url(#paint45_linear_9370_126252)" style=""/>
<path d="M46.5726 17.7782C45.333 17.0625 43.9492 16.4724 42.4616 16.0059L41.518 16.5507C40.592 17.0853 40.4914 17.8941 41.2933 18.3571L45.7541 20.9325C46.556 21.3955 47.9568 21.3375 48.8829 20.8028L49.7693 20.2911C48.9422 19.3793 47.8788 18.5323 46.5726 17.7782Z" fill="url(#paint46_linear_9370_126252)" style=""/>
<path d="M20.5156 16.7896L20.7514 17.4702C20.983 18.1385 22.1458 18.4927 23.3487 18.2611L30.0399 16.9734C31.2429 16.7419 32.0304 16.0125 31.7988 15.3442L31.5781 14.707C27.8295 14.8555 24.0105 15.5554 20.5156 16.7896Z" fill="url(#paint47_linear_9370_126252)" style=""/>
<path d="M14.2167 23.4263C14.6177 22.7319 14.0043 22.0604 12.8469 21.9268L11.7385 21.7988C9.55591 23.8055 8.29767 26.0049 7.99146 28.1696L9.16438 28.3051C10.322 28.4388 11.5854 27.9841 11.9864 27.2895L14.2167 23.4263Z" fill="url(#paint48_linear_9370_126252)" style=""/>
<path d="M18.5687 36.4154L14.108 33.8399C13.3061 33.3769 11.9052 33.4349 10.9792 33.9697L10.0928 34.4814C10.9199 35.3931 11.9832 36.2402 13.2894 36.9943C14.529 37.7099 15.9129 38.3001 17.4005 38.7666L18.3441 38.2218C19.2701 37.6872 19.3707 36.8784 18.5687 36.4154Z" fill="url(#paint49_linear_9370_126252)" style=""/>
<path d="M28.2844 46.2629C32.0335 46.1144 35.8515 45.4121 39.3468 44.1774V37.9844L28.2844 40.067V46.2629Z" fill="url(#paint50_linear_9370_126252)" style=""/>
<path d="M39.1111 37.3032C38.8796 36.6349 37.7166 36.2808 36.5137 36.5123L29.8225 37.7999C28.6196 38.0314 27.8321 38.7609 28.0636 39.4292L28.2842 40.0663C32.0327 39.9179 35.8517 39.218 39.3466 37.9837L39.1111 37.3032Z" fill="url(#paint51_linear_9370_126252)" style=""/>
<path d="M51.946 25.5784L50.9457 25.5165C49.7881 25.3828 48.5247 25.8375 48.1237 26.532L45.6455 31.3462C45.2445 32.0408 45.8579 32.7122 47.0154 32.8457L48.1238 32.9737C50.3064 30.967 51.8323 27.9754 51.946 25.5784Z" fill="url(#paint52_linear_9370_126252)" style=""/>
<path d="M24.7449 21.8535L13.0792 20.6807C6.22011 25.8967 6.10175 32.8448 13.2897 36.9948C14.9864 37.9744 16.9539 38.7182 19.0876 39.232H29.4954L24.7449 21.8535Z" fill="url(#paint53_linear_9370_126252)" style=""/>
<path d="M19.893 37.9002L19.8933 37.9004C23.1614 38.9251 26.9309 39.3523 30.7752 39.2L30.7768 39.1995L41.8391 37.114L41.8516 37.1128C43.6121 36.4903 45.2905 35.7326 46.8354 34.8407C48.3074 33.9908 49.5675 33.0708 50.616 32.1067L54.4383 18.5156L10.409 22.0789V28.3106C10.4089 28.3303 10.409 28.35 10.409 28.3696V28.4018H10.4097C10.4252 30.2419 11.1449 32.0276 12.5853 33.6156L19.893 37.9002Z" fill="url(#paint54_linear_9370_126252)" style=""/>
<path d="M12.5852 33.6156C13.4121 34.5273 14.4757 35.3741 15.7818 36.1282C17.0213 36.8439 18.4053 37.4338 19.8929 37.9003V31.7041L12.5852 27.4189V33.6156Z" fill="url(#paint55_linear_9370_126252)" style=""/>
<path d="M10.409 28.311C10.4089 28.3307 10.4089 28.3504 10.409 28.37V28.4022L10.4097 28.4021C10.4292 30.7315 11.5768 32.9738 13.8877 34.8381L19.5228 31.5848L12.7313 21.8916L10.409 22.0796V28.311Z" fill="url(#paint56_linear_9370_126252)" style=""/>
<path d="M50.616 32.1067C53.1571 29.7701 54.4468 27.1723 54.4378 24.6725H54.4383V18.5156L50.616 25.9111V32.1067Z" fill="url(#paint57_linear_9370_126252)" style=""/>
<path d="M52.2607 13.2285L44.9539 8.94398C41.6853 7.91906 37.9152 7.49191 34.0703 7.64425L23.0079 9.72691C21.2428 10.3503 19.5601 11.1095 18.0116 12.0035C16.54 12.8532 15.2794 13.7729 14.231 14.7368L10.4838 21.1076C10.1693 23.3311 10.8605 25.5173 12.5861 27.4199L19.8932 31.7046C23.1618 32.7295 26.9319 33.1567 30.7768 33.0043L41.8392 30.9218C43.6043 30.2984 45.287 29.5392 46.8356 28.6452C48.3074 27.7955 49.5678 26.8759 50.6162 25.9119L54.4357 18.5219C54.4405 16.6535 53.7213 14.8394 52.2607 13.2285Z" fill="url(#paint58_linear_9370_126252)" style=""/>
<path d="M44.5997 13.2944C38.7758 9.93201 28.6032 10.3536 21.8784 14.2362C15.1536 18.1187 14.4233 23.9919 20.2472 27.3543C26.071 30.7166 36.2436 30.295 42.9684 26.4124C49.6931 22.5299 50.4235 16.6568 44.5997 13.2944ZM41.3686 25.4889C35.664 28.7824 27.0347 29.1401 22.0944 26.2879C17.1541 23.4355 17.7737 18.4534 23.4783 15.1599C29.1828 11.8663 37.8122 11.5086 42.7524 14.3609C47.6927 17.2132 47.0731 22.1953 41.3686 25.4889Z" fill="url(#paint59_linear_9370_126252)" style=""/>
<path d="M21.8785 14.7673C28.6033 10.8847 38.7759 10.4631 44.5997 13.8254C47.129 15.2857 48.4204 17.2198 48.523 19.2585C48.6348 17.0268 47.3478 14.881 44.5997 13.2944C38.7759 9.93201 28.6033 10.3536 21.8785 14.2362C18.0743 16.4325 16.1901 19.2658 16.3238 21.9212C16.4489 19.4235 18.3269 16.8178 21.8785 14.7673Z" fill="url(#paint60_linear_9370_126252)" style=""/>
<path d="M22.0946 26.8193C27.0349 29.6715 35.6642 29.3138 41.3688 26.0203C44.6151 24.1461 46.212 21.7252 46.0774 19.4609C45.953 21.5675 44.3623 23.7608 41.3688 25.4891C35.6642 28.7826 27.0349 29.1403 22.0946 26.288C19.9657 25.0589 18.8718 23.4339 18.7699 21.7194C18.6573 23.6271 19.7467 25.4637 22.0946 26.8193Z" fill="url(#paint61_linear_9370_126252)" style=""/>
<path d="M21.7146 27.7319L22.4873 27.2113C23.1214 27.5092 23.8145 27.7694 24.5471 27.9851L23.9351 28.566C23.1451 28.3336 22.3982 28.0529 21.7146 27.7319ZM19.8577 26.6539C19.3054 26.2575 18.8234 25.8246 18.4247 25.367L19.4332 25.0162C19.8029 25.4406 20.2501 25.8423 20.7626 26.21L19.8577 26.6539ZM26.4473 29.1244L26.8772 28.5029C27.6877 28.6302 28.5355 28.7126 29.3971 28.7476L29.1628 29.388C28.2345 29.3503 27.3209 29.2616 26.4473 29.1244ZM17.4707 23.9133C17.2375 23.4079 17.0883 22.8798 17.0273 22.3435L18.1369 22.2113C18.1935 22.709 18.3318 23.1991 18.5482 23.668L17.4707 23.9133ZM31.9879 29.3502L32.0195 28.7124C32.9 28.6542 33.7869 28.5488 34.6554 28.3993L34.8278 29.0128C33.892 29.1738 32.9365 29.2874 31.9879 29.3502ZM17.1063 20.7116C17.2195 20.1637 17.4206 19.6122 17.7036 19.0724L18.7648 19.1748C18.5019 19.6759 18.3154 20.1877 18.2102 20.6963L17.1063 20.7116ZM37.5865 28.386L37.2147 27.8177C38.0435 27.5813 38.8494 27.3015 39.6098 26.9859L40.1691 27.4889C39.3492 27.8293 38.4803 28.1311 37.5865 28.386ZM18.8025 17.481C19.2479 16.9659 19.7745 16.4654 20.3674 15.9933L21.2353 16.3188C20.6855 16.7567 20.197 17.2209 19.7839 17.6986L18.8025 17.481ZM42.4874 26.3537L41.7594 25.9335L41.7952 25.9128C42.4635 25.5269 43.0793 25.1101 43.6255 24.6739L44.4947 24.9985C43.9062 25.4686 43.2429 25.9175 42.5231 26.3332L42.4874 26.3537ZM23.0689 15.0812L22.3421 14.6602C23.0626 14.2454 23.8412 13.863 24.6565 13.5238L25.2171 14.0261C24.4607 14.341 23.7379 14.696 23.0689 15.0812ZM45.0735 23.2931C45.485 22.8154 45.8268 22.3186 46.0888 21.8163L47.1504 21.9178C46.868 22.4592 46.4996 22.9947 46.0559 23.5097L45.0735 23.2931ZM27.6107 13.1922L27.2373 12.6246C28.1296 12.3692 29.0573 12.1575 29.9948 11.9953L30.1689 12.6085C29.2991 12.7589 28.4384 12.9553 27.6107 13.1922ZM46.6392 20.2945C46.7428 19.7864 46.766 19.2768 46.7082 18.7797L47.8178 18.6466C47.8799 19.1819 47.855 19.731 47.7435 20.2782L46.6392 20.2945ZM32.8045 12.2929L32.8344 11.6553C33.7823 11.5917 34.7331 11.5781 35.6602 11.6149L35.4277 12.2553C34.5671 12.2213 33.6846 12.2339 32.8045 12.2929ZM46.2927 17.3238C46.0746 16.8545 45.7755 16.4012 45.4041 15.9766L46.4118 15.6249C46.8124 16.0829 47.1347 16.5716 47.37 17.0776L46.2927 17.3238ZM37.9487 12.4977L38.3769 11.876C39.2529 12.0126 40.0989 12.1997 40.8912 12.4318L40.2806 13.0132C39.5459 12.7979 38.7613 12.6245 37.9487 12.4977ZM44.0709 14.7844C43.5611 14.4197 42.9736 14.0801 42.3432 13.785L43.1146 13.2637C43.7933 13.5813 44.4255 13.9469 44.9748 14.3397L44.0709 14.7844Z" fill="url(#paint62_linear_9370_126252)" style=""/>
<path d="M40.3193 24.8827C45.3547 21.9755 45.9016 17.5777 41.5407 15.06C37.1799 12.5424 29.5627 12.8581 24.5273 15.7653C19.4919 18.6725 18.945 23.0702 23.3059 25.5879C27.6668 28.1057 35.2838 27.79 40.3193 24.8827Z" fill="url(#paint63_linear_9370_126252)" style=""/>
<path d="M49.0651 10.7157C47.8255 10 46.4416 9.40988 44.954 8.94336L44.0104 9.48816C43.0844 10.0228 42.9839 10.8316 43.7858 11.2946L48.2465 13.87C49.0484 14.333 50.4493 14.275 51.3753 13.7403L52.2617 13.2286C51.4346 12.3168 50.3712 11.4699 49.0651 10.7157Z" fill="url(#paint64_linear_9370_126252)" style=""/>
<path d="M23.0081 9.72609L23.2438 10.4067C23.4754 11.075 24.6383 11.4291 25.8412 11.1976L32.5324 9.90996C33.7353 9.6784 34.5228 8.94902 34.2912 8.2807L34.0706 7.64355C30.322 7.79191 26.5029 8.49176 23.0081 9.72609Z" fill="url(#paint65_linear_9370_126252)" style=""/>
<path d="M16.7091 16.3638C17.1101 15.6693 16.4968 14.9979 15.3393 14.8643L14.231 14.7363C12.0483 16.7432 10.7901 18.9424 10.4839 21.1071L11.6568 21.2426C12.8144 21.3763 14.0778 20.9216 14.4788 20.227L16.7091 16.3638Z" fill="url(#paint66_linear_9370_126252)" style=""/>
<path d="M21.0611 29.3529L16.6004 26.7774C15.7985 26.3144 14.3976 26.3724 13.4716 26.9072L12.5852 27.4189C13.4123 28.3306 14.4757 29.1777 15.7818 29.9318C17.0215 30.6474 18.4053 31.2376 19.8929 31.7041L20.8365 31.1593C21.7625 30.6246 21.8632 29.8159 21.0611 29.3529Z" fill="url(#paint67_linear_9370_126252)" style=""/>
<path d="M30.7769 39.1994C34.5259 39.0508 38.3439 38.3486 41.8392 37.1139V30.9209L30.7769 33.0036V39.1994Z" fill="url(#paint68_linear_9370_126252)" style=""/>
<path d="M41.6035 30.2397C41.372 29.5714 40.2091 29.2174 39.0061 29.4488L32.315 30.7366C31.112 30.968 30.3245 31.6975 30.556 32.3658L30.7766 33.003C34.5251 32.8545 38.3443 32.1547 41.839 30.9203L41.6035 30.2397Z" fill="url(#paint69_linear_9370_126252)" style=""/>
<path d="M54.4384 18.5158L53.4381 18.454C52.2805 18.3203 51.0171 18.775 50.6161 19.4695L48.1379 24.2837C47.7369 24.9783 48.3503 25.6497 49.5077 25.7833L50.6161 25.9112C52.7988 23.9044 54.3247 20.9128 54.4384 18.5158Z" fill="url(#paint70_linear_9370_126252)" style=""/>
<path d="M15.7817 29.933C16.9179 30.5889 18.1754 31.1391 19.5227 31.5856H26.4471L10.4102 22.0566C10.3738 25.0077 12.139 27.8298 15.7817 29.933Z" fill="url(#paint71_linear_9370_126252)" style=""/>
<path d="M17.4001 30.2858L17.4004 30.2861C20.6686 31.3107 24.438 31.7379 28.2824 31.5857L28.2839 31.5851L39.3463 29.4996L39.3587 29.4984C41.1192 28.8759 42.7977 28.1182 44.3425 27.2263C45.8145 26.3764 47.0747 25.4564 48.1231 24.4923L51.9454 10.9014L7.9161 14.4646V20.6963C7.91599 20.7159 7.91599 20.7356 7.9161 20.7552V20.7874H7.91681C7.93228 22.6275 8.65204 24.4132 10.0924 26.0012L17.4001 30.2858Z" fill="url(#paint72_linear_9370_126252)" style=""/>
<path d="M48.1233 24.4924C50.6644 22.1558 51.9542 19.558 51.9451 17.0583H51.9456V10.9014L48.1233 18.2968V24.4924Z" fill="url(#paint73_linear_9370_126252)" style=""/>
<path d="M49.7675 5.61422L42.4608 1.32961C39.1922 0.304801 35.422 -0.122347 31.5771 0.0299963L20.5147 2.11265C18.7496 2.73597 17.0669 3.49523 15.5184 4.38925C14.0468 5.23898 12.7862 6.15867 11.7378 7.12254L7.99066 13.4932C7.67613 15.7167 8.3673 17.903 10.0929 19.8055L17.4 24.0902C20.6686 25.1152 24.4387 25.5423 28.2837 25.39L39.346 23.3074C41.1111 22.684 42.7938 21.9248 44.3423 21.0308C45.8141 20.1811 47.0746 19.2614 48.1229 18.2975L51.9424 10.9076C51.9473 9.03937 51.2282 7.22519 49.7675 5.61422Z" fill="url(#paint74_linear_9370_126252)" style=""/>
<path d="M42.107 5.68009C36.2831 2.31775 26.1106 2.73939 19.3858 6.62193C12.661 10.5045 11.9306 16.3777 17.7544 19.74C23.5783 23.1025 33.7508 22.6807 40.4756 18.7982C47.2004 14.9158 47.9309 9.04255 42.107 5.68009ZM38.8759 17.8746C33.1713 21.1682 24.542 21.5258 19.6017 18.6736C14.6615 15.8213 15.281 10.8392 20.9856 7.5456C26.6902 4.25205 35.3195 3.89439 40.2598 6.74662C45.2001 9.59896 44.5805 14.5811 38.8759 17.8746Z" fill="url(#paint75_linear_9370_126252)" style=""/>
<path d="M19.3858 7.15302C26.1106 3.27048 36.2832 2.84884 42.107 6.21119C44.6363 7.67146 45.9277 9.60552 46.0304 11.6442C46.1422 9.41251 44.8551 7.26669 42.107 5.68009C36.2832 2.31775 26.1106 2.73939 19.3858 6.62193C15.5817 8.81826 13.6974 11.6515 13.8311 14.307C13.9563 11.8091 15.8342 9.20345 19.3858 7.15302Z" fill="url(#paint76_linear_9370_126252)" style=""/>
<path d="M19.6017 19.204C24.542 22.0563 33.1713 21.6986 38.8759 18.405C42.1221 16.5309 43.7191 14.11 43.5845 11.8457C43.4601 13.9523 41.8695 16.1455 38.8759 17.8738C33.1713 21.1674 24.542 21.525 19.6017 18.6728C17.4727 17.4436 16.3789 15.8187 16.2769 14.1041C16.1643 16.0118 17.2538 17.8485 19.6017 19.204Z" fill="url(#paint77_linear_9370_126252)" style=""/>
<path d="M19.2217 20.1177L19.9944 19.597C20.6285 19.8949 21.3216 20.1552 22.0542 20.3708L21.4422 20.9517C20.6522 20.7193 19.9052 20.4388 19.2217 20.1177ZM17.3647 19.0397C16.8125 18.6432 16.3304 18.2103 15.9318 17.7527L16.9403 17.402C17.31 17.8264 17.7572 18.228 18.2697 18.5958L17.3647 19.0397ZM23.9544 21.5101L24.3843 20.8886C25.1947 21.0159 26.0426 21.0983 26.9041 21.1333L26.6699 21.7738C25.7415 21.736 24.8278 21.6473 23.9544 21.5101ZM14.9777 16.299C14.7445 15.7937 14.5954 15.2655 14.5344 14.7293L15.6441 14.597C15.7007 15.0948 15.839 15.5847 16.0554 16.0536L14.9777 16.299ZM29.4949 21.7359L29.5266 21.0982C30.4071 21.0399 31.2941 20.9346 32.1626 20.7851L32.335 21.3985C31.3991 21.5595 30.4436 21.6731 29.4949 21.7359ZM14.6134 13.0973C14.7266 12.5495 14.9277 11.998 15.2107 11.458L16.2718 11.5604C16.009 12.0615 15.8224 12.5734 15.7173 13.082L14.6134 13.0973ZM35.0936 20.7717L34.7218 20.2035C35.5507 19.9671 36.3566 19.6872 37.117 19.3717L37.6763 19.8747C36.8563 20.2151 35.9874 20.5168 35.0936 20.7717ZM16.3096 9.86669C16.755 9.35165 17.2815 8.85115 17.8746 8.379L18.7425 8.70455C18.1927 9.14247 17.7042 9.60665 17.2911 10.0843L16.3096 9.86669ZM39.9945 18.7394L39.2665 18.3191L39.3022 18.2985C39.9706 17.9126 40.5864 17.4957 41.1326 17.0595L42.0018 17.3842C41.4133 17.8542 40.75 18.3033 40.0302 18.7188L39.9945 18.7394ZM20.576 7.46693L19.8492 7.04599C20.5697 6.63115 21.3483 6.24876 22.1636 5.90951L22.7242 6.41189C21.9677 6.72677 21.2449 7.08173 20.576 7.46693ZM42.5806 15.6788C42.9921 15.2012 43.3338 14.7043 43.5959 14.202L44.6575 14.3035C44.3749 14.8449 44.0067 15.3805 43.5629 15.8954L42.5806 15.6788ZM25.1177 5.57798L24.7444 5.01033C25.6367 4.75497 26.5644 4.54322 27.5019 4.38103L27.6759 4.99427C26.8062 5.14462 25.9454 5.34103 25.1177 5.57798ZM44.1463 12.6804C44.2499 12.1722 44.2731 11.6627 44.2153 11.1656L45.3249 11.0325C45.387 11.5678 45.3621 12.1168 45.2506 12.6641L44.1463 12.6804ZM30.3116 4.67869L30.3415 4.04107C31.2894 3.97744 32.2403 3.96384 33.1672 4.00064L32.9347 4.64107C32.0742 4.60708 31.1917 4.61962 30.3116 4.67869ZM43.7998 9.70954C43.5817 9.24021 43.2826 8.78693 42.9111 8.36236L43.9188 8.01068C44.3195 8.46853 44.6419 8.9572 44.8771 9.46333L43.7998 9.70954ZM35.4558 4.88353L35.884 4.26185C36.76 4.39849 37.6059 4.58552 38.3983 4.81767L37.7877 5.39904C37.0529 5.18365 36.2684 5.01021 35.4558 4.88353ZM41.578 7.17009C41.068 6.8054 40.4807 6.46568 39.8503 6.17072L40.6216 5.64947C41.3004 5.96704 41.9326 6.33267 42.4819 6.72548L41.578 7.17009Z" fill="url(#paint78_linear_9370_126252)" style=""/>
<path d="M37.8266 17.2685C42.862 14.3613 43.409 9.96348 39.0481 7.44583C34.6873 4.92805 27.0701 5.24388 22.0347 8.15106C16.9992 11.0583 16.4523 15.4561 20.8131 17.9737C25.1741 20.4915 32.7912 20.1758 37.8266 17.2685Z" fill="url(#paint79_linear_9370_126252)" style=""/>
<path d="M46.5724 3.10133C45.3328 2.38566 43.9489 1.79551 42.4613 1.3291L41.5177 1.87391C40.5917 2.40852 40.4912 3.21734 41.2931 3.68035L45.7538 6.25578C46.5559 6.71879 47.9566 6.66078 48.8826 6.12605L49.769 5.6143C48.9419 4.70246 47.8786 3.85555 46.5724 3.10133Z" fill="url(#paint80_linear_9370_126252)" style=""/>
<path d="M20.5154 2.11281L20.7512 2.79344C20.9827 3.46176 22.1456 3.81578 23.3485 3.58434L30.0397 2.29668C31.2426 2.06512 32.0301 1.33574 31.7985 0.667422L31.5779 0.0302734C27.8293 0.17875 24.0103 0.878477 20.5154 2.11281Z" fill="url(#paint81_linear_9370_126252)" style=""/>
<path d="M14.2164 8.74957C14.6175 8.055 14.0041 7.38363 12.8466 7.25004L11.7383 7.12207C9.55566 9.12879 8.29742 11.3282 7.99121 13.4927L9.16426 13.6282C10.3218 13.7619 11.5852 13.3072 11.9863 12.6127L14.2164 8.74957Z" fill="url(#paint82_linear_9370_126252)" style=""/>
<path d="M10.0925 26.0022C10.9194 26.9139 11.983 27.7607 13.2892 28.5148C14.5288 29.2305 15.9126 29.8205 17.4002 30.2869V24.0907L10.0925 19.8057V26.0022Z" fill="url(#paint83_linear_9370_126252)" style=""/>
<path d="M18.5685 21.7396L14.1077 19.1642C13.3058 18.7011 11.905 18.7592 10.9789 19.2939L10.0925 19.8056C10.9196 20.7174 11.983 21.5644 13.2892 22.3185C14.5288 23.0342 15.9126 23.6243 17.4002 24.0908L18.3438 23.546C19.2698 23.0113 19.3705 22.2026 18.5685 21.7396Z" fill="url(#paint84_linear_9370_126252)" style=""/>
<path d="M28.2842 31.5861C32.0332 31.4375 35.8512 30.7353 39.3466 29.5006V23.3076L28.2842 25.3903V31.5861Z" fill="url(#paint85_linear_9370_126252)" style=""/>
<path d="M39.1107 22.6264C38.8793 21.9581 37.7164 21.6041 36.5134 21.8355L29.8222 23.1232C28.6193 23.3547 27.8318 24.0841 28.0633 24.7524L28.284 25.3896C32.0325 25.2411 35.8515 24.5413 39.3464 23.307L39.1107 22.6264Z" fill="url(#paint86_linear_9370_126252)" style=""/>
<path d="M51.9457 10.9016L50.9454 10.8397C49.7878 10.706 48.5244 11.1607 48.1234 11.8553L45.6453 16.6695C45.2443 17.364 45.8576 18.0354 47.0152 18.169L48.1235 18.297C50.3062 16.2904 51.8321 13.2987 51.9457 10.9016Z" fill="url(#paint87_linear_9370_126252)" style=""/>
<defs>
<linearGradient id="paint0_linear_9370_126252" x1="20.9731" y1="49.6424" x2="40.4175" y2="49.6424" gradientUnits="userSpaceOnUse">
<stop stop-color="#43386B" style="stop-color:#43386B;stop-color:color(display-p3 0.2627 0.2196 0.4196);stop-opacity:1;"/>
<stop offset="1" stop-color="#594A8E" style="stop-color:#594A8E;stop-color:color(display-p3 0.3490 0.2902 0.5569);stop-opacity:1;"/>
</linearGradient>
<linearGradient id="paint1_linear_9370_126252" x1="20.973" y1="53.4291" x2="40.4174" y2="53.4291" gradientUnits="userSpaceOnUse">
<stop stop-color="#C5BAEB" style="stop-color:#C5BAEB;stop-color:color(display-p3 0.7725 0.7294 0.9216);stop-opacity:1;"/>
<stop offset="1" stop-color="#D7D1EB" style="stop-color:#D7D1EB;stop-color:color(display-p3 0.8431 0.8196 0.9216);stop-opacity:1;"/>
</linearGradient>
<linearGradient id="paint2_linear_9370_126252" x1="12.0784" y1="48.3284" x2="18.762" y2="59.9048" gradientUnits="userSpaceOnUse">
<stop stop-color="#43386B" style="stop-color:#43386B;stop-color:color(display-p3 0.2627 0.2196 0.4196);stop-opacity:1;"/>
<stop offset="1" stop-color="#43386B" stop-opacity="0" style="stop-color:none;stop-opacity:0;"/>
</linearGradient>
<linearGradient id="paint3_linear_9370_126252" x1="20.4146" y1="46.0806" x2="40.249" y2="46.0806" gradientUnits="userSpaceOnUse">
<stop stop-color="#C5BAEB" style="stop-color:#C5BAEB;stop-color:color(display-p3 0.7725 0.7294 0.9216);stop-opacity:1;"/>
<stop offset="1" stop-color="#D7D1EB" style="stop-color:#D7D1EB;stop-color:color(display-p3 0.8431 0.8196 0.9216);stop-opacity:1;"/>
</linearGradient>
<linearGradient id="paint4_linear_9370_126252" x1="30.6227" y1="54.4122" x2="30.6227" y2="29.496" gradientUnits="userSpaceOnUse">
<stop stop-color="#7662BD" style="stop-color:#7662BD;stop-color:color(display-p3 0.4627 0.3843 0.7412);stop-opacity:1;"/>
<stop offset="1" stop-color="#A996EB" style="stop-color:#A996EB;stop-color:color(display-p3 0.6627 0.5882 0.9216);stop-opacity:1;"/>
</linearGradient>
<linearGradient id="paint5_linear_9370_126252" x1="41.1097" y1="47.2692" x2="7.03422" y2="27.2024" gradientUnits="userSpaceOnUse">
<stop stop-color="#43386B" style="stop-color:#43386B;stop-color:color(display-p3 0.2627 0.2196 0.4196);stop-opacity:1;"/>
<stop offset="1" stop-color="#594A8E" style="stop-color:#594A8E;stop-color:color(display-p3 0.3490 0.2902 0.5569);stop-opacity:1;"/>
</linearGradient>
<linearGradient id="paint6_linear_9370_126252" x1="36.9171" y1="37.2424" x2="23.7893" y2="37.2424" gradientUnits="userSpaceOnUse">
<stop stop-color="#43386B" style="stop-color:#43386B;stop-color:color(display-p3 0.2627 0.2196 0.4196);stop-opacity:1;"/>
<stop offset="1" stop-color="#594A8E" style="stop-color:#594A8E;stop-color:color(display-p3 0.3490 0.2902 0.5569);stop-opacity:1;"/>
</linearGradient>
<linearGradient id="paint7_linear_9370_126252" x1="20.1319" y1="44.8725" x2="32.416" y2="44.8725" gradientUnits="userSpaceOnUse">
<stop stop-color="#43386B" style="stop-color:#43386B;stop-color:color(display-p3 0.2627 0.2196 0.4196);stop-opacity:1;"/>
<stop offset="1" stop-color="#594A8E" style="stop-color:#594A8E;stop-color:color(display-p3 0.3490 0.2902 0.5569);stop-opacity:1;"/>
</linearGradient>
<linearGradient id="paint8_linear_9370_126252" x1="19.0079" y1="47.9722" x2="30.6431" y2="27.8201" gradientUnits="userSpaceOnUse">
<stop stop-color="#F2EFFA" style="stop-color:#F2EFFA;stop-color:color(display-p3 0.9490 0.9373 0.9804);stop-opacity:1;"/>
<stop offset="1" stop-color="white" style="stop-color:white;stop-opacity:1;"/>
</linearGradient>
<linearGradient id="paint9_linear_9370_126252" x1="21.0699" y1="46.6057" x2="30.0038" y2="31.1321" gradientUnits="userSpaceOnUse">
<stop stop-color="#F2EFFA" style="stop-color:#F2EFFA;stop-color:color(display-p3 0.9490 0.9373 0.9804);stop-opacity:1;"/>
<stop offset="1" stop-color="white" style="stop-color:white;stop-opacity:1;"/>
</linearGradient>
<linearGradient id="paint10_linear_9370_126252" x1="44.1407" y1="33.4005" x2="45.6796" y2="30.7352" gradientUnits="userSpaceOnUse">
<stop stop-color="#F2EFFA" style="stop-color:#F2EFFA;stop-color:color(display-p3 0.9490 0.9373 0.9804);stop-opacity:1;"/>
<stop offset="1" stop-color="white" style="stop-color:white;stop-opacity:1;"/>
</linearGradient>
<linearGradient id="paint11_linear_9370_126252" x1="22.8771" y1="32.4878" x2="26.8119" y2="25.6728" gradientUnits="userSpaceOnUse">
<stop stop-color="#F2EFFA" style="stop-color:#F2EFFA;stop-color:color(display-p3 0.9490 0.9373 0.9804);stop-opacity:1;"/>
<stop offset="1" stop-color="white" style="stop-color:white;stop-opacity:1;"/>
</linearGradient>
<linearGradient id="paint12_linear_9370_126252" x1="7.38403" y1="41.3441" x2="11.3324" y2="34.5055" gradientUnits="userSpaceOnUse">
<stop stop-color="#F2EFFA" style="stop-color:#F2EFFA;stop-color:color(display-p3 0.9490 0.9373 0.9804);stop-opacity:1;"/>
<stop offset="1" stop-color="white" style="stop-color:white;stop-opacity:1;"/>
</linearGradient>
<linearGradient id="paint13_linear_9370_126252" x1="13.8144" y1="50.6857" x2="15.3533" y2="48.0203" gradientUnits="userSpaceOnUse">
<stop stop-color="#F2EFFA" style="stop-color:#F2EFFA;stop-color:color(display-p3 0.9490 0.9373 0.9804);stop-opacity:1;"/>
<stop offset="1" stop-color="white" style="stop-color:white;stop-opacity:1;"/>
</linearGradient>
<linearGradient id="paint14_linear_9370_126252" x1="20.973" y1="55.8307" x2="40.4176" y2="55.8307" gradientUnits="userSpaceOnUse">
<stop stop-color="#C5BAEB" style="stop-color:#C5BAEB;stop-color:color(display-p3 0.7725 0.7294 0.9216);stop-opacity:1;"/>
<stop offset="1" stop-color="#D7D1EB" style="stop-color:#D7D1EB;stop-color:color(display-p3 0.8431 0.8196 0.9216);stop-opacity:1;"/>
</linearGradient>
<linearGradient id="paint15_linear_9370_126252" x1="29.9541" y1="54.5548" x2="33.889" y2="47.7396" gradientUnits="userSpaceOnUse">
<stop stop-color="#F2EFFA" style="stop-color:#F2EFFA;stop-color:color(display-p3 0.9490 0.9373 0.9804);stop-opacity:1;"/>
<stop offset="1" stop-color="white" style="stop-color:white;stop-opacity:1;"/>
</linearGradient>
<linearGradient id="paint16_linear_9370_126252" x1="45.046" y1="45.5255" x2="49.4476" y2="37.9019" gradientUnits="userSpaceOnUse">
<stop stop-color="#F2EFFA" style="stop-color:#F2EFFA;stop-color:color(display-p3 0.9490 0.9373 0.9804);stop-opacity:1;"/>
<stop offset="1" stop-color="white" style="stop-color:white;stop-opacity:1;"/>
</linearGradient>
<linearGradient id="paint17_linear_9370_126252" x1="15.8992" y1="46.3396" x2="2.81406" y2="53.8943" gradientUnits="userSpaceOnUse">
<stop offset="0.0319" stop-color="#45356D" style="stop-color:#45356D;stop-color:color(display-p3 0.2706 0.2078 0.4275);stop-opacity:1;"/>
<stop offset="1" stop-color="#45356D" stop-opacity="0" style="stop-color:none;stop-opacity:0;"/>
</linearGradient>
<linearGradient id="paint18_linear_9370_126252" x1="17.9267" y1="42.582" x2="37.3711" y2="42.582" gradientUnits="userSpaceOnUse">
<stop stop-color="#00395E" style="stop-color:#00395E;stop-color:color(display-p3 0.0000 0.2235 0.3686);stop-opacity:1;"/>
<stop offset="1" stop-color="#0072BC" style="stop-color:#0072BC;stop-color:color(display-p3 0.0000 0.4471 0.7373);stop-opacity:1;"/>
</linearGradient>
<linearGradient id="paint19_linear_9370_126252" x1="17.9266" y1="46.3684" x2="37.371" y2="46.3684" gradientUnits="userSpaceOnUse">
<stop stop-color="#C5BAEB" style="stop-color:#C5BAEB;stop-color:color(display-p3 0.7725 0.7294 0.9216);stop-opacity:1;"/>
<stop offset="1" stop-color="#D7D1EB" style="stop-color:#D7D1EB;stop-color:color(display-p3 0.8431 0.8196 0.9216);stop-opacity:1;"/>
</linearGradient>
<linearGradient id="paint20_linear_9370_126252" x1="7.84226" y1="37.3661" x2="15.1176" y2="49.9673" gradientUnits="userSpaceOnUse">
<stop stop-color="#43386B" style="stop-color:#43386B;stop-color:color(display-p3 0.2627 0.2196 0.4196);stop-opacity:1;"/>
<stop offset="1" stop-color="#43386B" stop-opacity="0" style="stop-color:none;stop-opacity:0;"/>
</linearGradient>
<linearGradient id="paint21_linear_9370_126252" x1="17.3681" y1="39.0201" x2="37.2027" y2="39.0201" gradientUnits="userSpaceOnUse">
<stop stop-color="#C5BAEB" style="stop-color:#C5BAEB;stop-color:color(display-p3 0.7725 0.7294 0.9216);stop-opacity:1;"/>
<stop offset="1" stop-color="#D7D1EB" style="stop-color:#D7D1EB;stop-color:color(display-p3 0.8431 0.8196 0.9216);stop-opacity:1;"/>
</linearGradient>
<linearGradient id="paint22_linear_9370_126252" x1="27.5765" y1="47.3516" x2="27.5765" y2="22.4355" gradientUnits="userSpaceOnUse">
<stop stop-color="#0072BC" style="stop-color:#0072BC;stop-color:color(display-p3 0.0000 0.4471 0.7373);stop-opacity:1;"/>
<stop offset="1" stop-color="#2F97F7" style="stop-color:#2F97F7;stop-color:color(display-p3 0.1843 0.5922 0.9686);stop-opacity:1;"/>
</linearGradient>
<linearGradient id="paint23_linear_9370_126252" x1="38.0632" y1="40.2085" x2="3.98774" y2="20.1419" gradientUnits="userSpaceOnUse">
<stop stop-color="#00395E" style="stop-color:#00395E;stop-color:color(display-p3 0.0000 0.2235 0.3686);stop-opacity:1;"/>
<stop offset="1" stop-color="#0072BC" style="stop-color:#0072BC;stop-color:color(display-p3 0.0000 0.4471 0.7373);stop-opacity:1;"/>
</linearGradient>
<linearGradient id="paint24_linear_9370_126252" x1="33.8706" y1="30.1818" x2="20.7428" y2="30.1818" gradientUnits="userSpaceOnUse">
<stop stop-color="#00395E" style="stop-color:#00395E;stop-color:color(display-p3 0.0000 0.2235 0.3686);stop-opacity:1;"/>
<stop offset="1" stop-color="#0072BC" style="stop-color:#0072BC;stop-color:color(display-p3 0.0000 0.4471 0.7373);stop-opacity:1;"/>
</linearGradient>
<linearGradient id="paint25_linear_9370_126252" x1="17.0851" y1="37.812" x2="29.3691" y2="37.812" gradientUnits="userSpaceOnUse">
<stop stop-color="#00395E" style="stop-color:#00395E;stop-color:color(display-p3 0.0000 0.2235 0.3686);stop-opacity:1;"/>
<stop offset="1" stop-color="#0072BC" style="stop-color:#0072BC;stop-color:color(display-p3 0.0000 0.4471 0.7373);stop-opacity:1;"/>
</linearGradient>
<linearGradient id="paint26_linear_9370_126252" x1="15.9617" y1="40.9135" x2="27.5969" y2="20.7614" gradientUnits="userSpaceOnUse">
<stop stop-color="#F2EFFA" style="stop-color:#F2EFFA;stop-color:color(display-p3 0.9490 0.9373 0.9804);stop-opacity:1;"/>
<stop offset="1" stop-color="white" style="stop-color:white;stop-opacity:1;"/>
</linearGradient>
<linearGradient id="paint27_linear_9370_126252" x1="18.0233" y1="39.547" x2="26.9572" y2="24.0735" gradientUnits="userSpaceOnUse">
<stop stop-color="#F2EFFA" style="stop-color:#F2EFFA;stop-color:color(display-p3 0.9490 0.9373 0.9804);stop-opacity:1;"/>
<stop offset="1" stop-color="white" style="stop-color:white;stop-opacity:1;"/>
</linearGradient>
<linearGradient id="paint28_linear_9370_126252" x1="41.0946" y1="26.3418" x2="42.6335" y2="23.6764" gradientUnits="userSpaceOnUse">
<stop stop-color="#F2EFFA" style="stop-color:#F2EFFA;stop-color:color(display-p3 0.9490 0.9373 0.9804);stop-opacity:1;"/>
<stop offset="1" stop-color="white" style="stop-color:white;stop-opacity:1;"/>
</linearGradient>
<linearGradient id="paint29_linear_9370_126252" x1="19.831" y1="25.4282" x2="23.7658" y2="18.6132" gradientUnits="userSpaceOnUse">
<stop stop-color="#F2EFFA" style="stop-color:#F2EFFA;stop-color:color(display-p3 0.9490 0.9373 0.9804);stop-opacity:1;"/>
<stop offset="1" stop-color="white" style="stop-color:white;stop-opacity:1;"/>
</linearGradient>
<linearGradient id="paint30_linear_9370_126252" x1="4.33782" y1="34.2854" x2="8.28619" y2="27.4468" gradientUnits="userSpaceOnUse">
<stop stop-color="#F2EFFA" style="stop-color:#F2EFFA;stop-color:color(display-p3 0.9490 0.9373 0.9804);stop-opacity:1;"/>
<stop offset="1" stop-color="white" style="stop-color:white;stop-opacity:1;"/>
</linearGradient>
<linearGradient id="paint31_linear_9370_126252" x1="10.7684" y1="43.626" x2="12.3073" y2="40.9606" gradientUnits="userSpaceOnUse">
<stop stop-color="#F2EFFA" style="stop-color:#F2EFFA;stop-color:color(display-p3 0.9490 0.9373 0.9804);stop-opacity:1;"/>
<stop offset="1" stop-color="white" style="stop-color:white;stop-opacity:1;"/>
</linearGradient>
<linearGradient id="paint32_linear_9370_126252" x1="17.9266" y1="48.7692" x2="37.3712" y2="48.7692" gradientUnits="userSpaceOnUse">
<stop stop-color="#C5BAEB" style="stop-color:#C5BAEB;stop-color:color(display-p3 0.7725 0.7294 0.9216);stop-opacity:1;"/>
<stop offset="1" stop-color="#D7D1EB" style="stop-color:#D7D1EB;stop-color:color(display-p3 0.8431 0.8196 0.9216);stop-opacity:1;"/>
</linearGradient>
<linearGradient id="paint33_linear_9370_126252" x1="26.9079" y1="47.4952" x2="30.8428" y2="40.68" gradientUnits="userSpaceOnUse">
<stop stop-color="#F2EFFA" style="stop-color:#F2EFFA;stop-color:color(display-p3 0.9490 0.9373 0.9804);stop-opacity:1;"/>
<stop offset="1" stop-color="white" style="stop-color:white;stop-opacity:1;"/>
</linearGradient>
<linearGradient id="paint34_linear_9370_126252" x1="41.9999" y1="38.4667" x2="46.4014" y2="30.8431" gradientUnits="userSpaceOnUse">
<stop stop-color="#F2EFFA" style="stop-color:#F2EFFA;stop-color:color(display-p3 0.9490 0.9373 0.9804);stop-opacity:1;"/>
<stop offset="1" stop-color="white" style="stop-color:white;stop-opacity:1;"/>
</linearGradient>
<linearGradient id="paint35_linear_9370_126252" x1="17.1008" y1="37.5548" x2="-0.88599" y2="47.9395" gradientUnits="userSpaceOnUse">
<stop stop-color="#43386B" style="stop-color:#43386B;stop-color:color(display-p3 0.2627 0.2196 0.4196);stop-opacity:1;"/>
<stop offset="1" stop-color="#43386B" stop-opacity="0" style="stop-color:none;stop-opacity:0;"/>
</linearGradient>
<linearGradient id="paint36_linear_9370_126252" x1="20.2807" y1="35.9362" x2="39.7253" y2="35.9362" gradientUnits="userSpaceOnUse">
<stop stop-color="#236568" style="stop-color:#236568;stop-color:color(display-p3 0.1373 0.3961 0.4078);stop-opacity:1;"/>
<stop offset="1" stop-color="#2F878A" style="stop-color:#2F878A;stop-color:color(display-p3 0.1843 0.5294 0.5412);stop-opacity:1;"/>
</linearGradient>
<linearGradient id="paint37_linear_9370_126252" x1="20.2806" y1="39.7229" x2="39.725" y2="39.7229" gradientUnits="userSpaceOnUse">
<stop stop-color="#C5BAEB" style="stop-color:#C5BAEB;stop-color:color(display-p3 0.7725 0.7294 0.9216);stop-opacity:1;"/>
<stop offset="1" stop-color="#D7D1EB" style="stop-color:#D7D1EB;stop-color:color(display-p3 0.8431 0.8196 0.9216);stop-opacity:1;"/>
</linearGradient>
<linearGradient id="paint38_linear_9370_126252" x1="7.25167" y1="24.2014" x2="18.0915" y2="42.9766" gradientUnits="userSpaceOnUse">
<stop stop-color="#43386B" style="stop-color:#43386B;stop-color:color(display-p3 0.2627 0.2196 0.4196);stop-opacity:1;"/>
<stop offset="1" stop-color="#43386B" stop-opacity="0" style="stop-color:none;stop-opacity:0;"/>
</linearGradient>
<linearGradient id="paint39_linear_9370_126252" x1="19.7222" y1="32.3746" x2="39.5567" y2="32.3746" gradientUnits="userSpaceOnUse">
<stop stop-color="#C5BAEB" style="stop-color:#C5BAEB;stop-color:color(display-p3 0.7725 0.7294 0.9216);stop-opacity:1;"/>
<stop offset="1" stop-color="#D7D1EB" style="stop-color:#D7D1EB;stop-color:color(display-p3 0.8431 0.8196 0.9216);stop-opacity:1;"/>
</linearGradient>
<linearGradient id="paint40_linear_9370_126252" x1="29.9305" y1="40.7061" x2="29.9305" y2="15.79" gradientUnits="userSpaceOnUse">
<stop stop-color="#06DAAE" style="stop-color:#06DAAE;stop-color:color(display-p3 0.0235 0.8549 0.6824);stop-opacity:1;"/>
<stop offset="1" stop-color="#9BF0DF" style="stop-color:#9BF0DF;stop-color:color(display-p3 0.6078 0.9412 0.8745);stop-opacity:1;"/>
</linearGradient>
<linearGradient id="paint41_linear_9370_126252" x1="40.4172" y1="33.563" x2="6.34184" y2="13.4964" gradientUnits="userSpaceOnUse">
<stop stop-color="#236568" style="stop-color:#236568;stop-color:color(display-p3 0.1373 0.3961 0.4078);stop-opacity:1;"/>
<stop offset="1" stop-color="#2F878A" style="stop-color:#2F878A;stop-color:color(display-p3 0.1843 0.5294 0.5412);stop-opacity:1;"/>
</linearGradient>
<linearGradient id="paint42_linear_9370_126252" x1="36.2248" y1="23.5373" x2="23.0971" y2="23.5373" gradientUnits="userSpaceOnUse">
<stop stop-color="#236568" style="stop-color:#236568;stop-color:color(display-p3 0.1373 0.3961 0.4078);stop-opacity:1;"/>
<stop offset="1" stop-color="#2F878A" style="stop-color:#2F878A;stop-color:color(display-p3 0.1843 0.5294 0.5412);stop-opacity:1;"/>
</linearGradient>
<linearGradient id="paint43_linear_9370_126252" x1="19.4398" y1="31.1663" x2="31.7238" y2="31.1663" gradientUnits="userSpaceOnUse">
<stop stop-color="#236568" style="stop-color:#236568;stop-color:color(display-p3 0.1373 0.3961 0.4078);stop-opacity:1;"/>
<stop offset="1" stop-color="#2F878A" style="stop-color:#2F878A;stop-color:color(display-p3 0.1843 0.5294 0.5412);stop-opacity:1;"/>
</linearGradient>
<linearGradient id="paint44_linear_9370_126252" x1="18.3158" y1="34.2718" x2="29.951" y2="14.1197" gradientUnits="userSpaceOnUse">
<stop stop-color="#F2EFFA" style="stop-color:#F2EFFA;stop-color:color(display-p3 0.9490 0.9373 0.9804);stop-opacity:1;"/>
<stop offset="1" stop-color="white" style="stop-color:white;stop-opacity:1;"/>
</linearGradient>
<linearGradient id="paint45_linear_9370_126252" x1="20.3777" y1="32.9043" x2="29.3116" y2="17.4307" gradientUnits="userSpaceOnUse">
<stop stop-color="#F2EFFA" style="stop-color:#F2EFFA;stop-color:color(display-p3 0.9490 0.9373 0.9804);stop-opacity:1;"/>
<stop offset="1" stop-color="white" style="stop-color:white;stop-opacity:1;"/>
</linearGradient>
<linearGradient id="paint46_linear_9370_126252" x1="43.4486" y1="19.6981" x2="44.9875" y2="17.0327" gradientUnits="userSpaceOnUse">
<stop stop-color="#F2EFFA" style="stop-color:#F2EFFA;stop-color:color(display-p3 0.9490 0.9373 0.9804);stop-opacity:1;"/>
<stop offset="1" stop-color="white" style="stop-color:white;stop-opacity:1;"/>
</linearGradient>
<linearGradient id="paint47_linear_9370_126252" x1="22.1851" y1="18.7855" x2="26.1199" y2="11.9705" gradientUnits="userSpaceOnUse">
<stop stop-color="#F2EFFA" style="stop-color:#F2EFFA;stop-color:color(display-p3 0.9490 0.9373 0.9804);stop-opacity:1;"/>
<stop offset="1" stop-color="white" style="stop-color:white;stop-opacity:1;"/>
</linearGradient>
<linearGradient id="paint48_linear_9370_126252" x1="6.69194" y1="27.6417" x2="10.6403" y2="20.8031" gradientUnits="userSpaceOnUse">
<stop stop-color="#F2EFFA" style="stop-color:#F2EFFA;stop-color:color(display-p3 0.9490 0.9373 0.9804);stop-opacity:1;"/>
<stop offset="1" stop-color="white" style="stop-color:white;stop-opacity:1;"/>
</linearGradient>
<linearGradient id="paint49_linear_9370_126252" x1="13.1223" y1="36.9823" x2="14.6612" y2="34.317" gradientUnits="userSpaceOnUse">
<stop stop-color="#F2EFFA" style="stop-color:#F2EFFA;stop-color:color(display-p3 0.9490 0.9373 0.9804);stop-opacity:1;"/>
<stop offset="1" stop-color="white" style="stop-color:white;stop-opacity:1;"/>
</linearGradient>
<linearGradient id="paint50_linear_9370_126252" x1="20.281" y1="42.1237" x2="39.7254" y2="42.1237" gradientUnits="userSpaceOnUse">
<stop stop-color="#C5BAEB" style="stop-color:#C5BAEB;stop-color:color(display-p3 0.7725 0.7294 0.9216);stop-opacity:1;"/>
<stop offset="1" stop-color="#D7D1EB" style="stop-color:#D7D1EB;stop-color:color(display-p3 0.8431 0.8196 0.9216);stop-opacity:1;"/>
</linearGradient>
<linearGradient id="paint51_linear_9370_126252" x1="29.2619" y1="40.8524" x2="33.1968" y2="34.0373" gradientUnits="userSpaceOnUse">
<stop stop-color="#F2EFFA" style="stop-color:#F2EFFA;stop-color:color(display-p3 0.9490 0.9373 0.9804);stop-opacity:1;"/>
<stop offset="1" stop-color="white" style="stop-color:white;stop-opacity:1;"/>
</linearGradient>
<linearGradient id="paint52_linear_9370_126252" x1="44.3538" y1="31.823" x2="48.7554" y2="24.1994" gradientUnits="userSpaceOnUse">
<stop stop-color="#F2EFFA" style="stop-color:#F2EFFA;stop-color:color(display-p3 0.9490 0.9373 0.9804);stop-opacity:1;"/>
<stop offset="1" stop-color="white" style="stop-color:white;stop-opacity:1;"/>
</linearGradient>
<linearGradient id="paint53_linear_9370_126252" x1="26.1244" y1="27.1638" x2="-6.9336" y2="46.2498" gradientUnits="userSpaceOnUse">
<stop stop-color="#43386B" style="stop-color:#43386B;stop-color:color(display-p3 0.2627 0.2196 0.4196);stop-opacity:1;"/>
<stop offset="1" stop-color="#43386B" stop-opacity="0" style="stop-color:none;stop-opacity:0;"/>
</linearGradient>
<linearGradient id="paint54_linear_9370_126252" x1="22.7731" y1="28.8729" x2="42.2177" y2="28.8729" gradientUnits="userSpaceOnUse">
<stop stop-color="#FFA538" style="stop-color:#FFA538;stop-color:color(display-p3 1.0000 0.6471 0.2196);stop-opacity:1;"/>
<stop offset="1" stop-color="#FFC538" style="stop-color:#FFC538;stop-color:color(display-p3 1.0000 0.7725 0.2196);stop-opacity:1;"/>
</linearGradient>
<linearGradient id="paint55_linear_9370_126252" x1="22.773" y1="32.6597" x2="42.2175" y2="32.6597" gradientUnits="userSpaceOnUse">
<stop stop-color="#C5BAEB" style="stop-color:#C5BAEB;stop-color:color(display-p3 0.7725 0.7294 0.9216);stop-opacity:1;"/>
<stop offset="1" stop-color="#D7D1EB" style="stop-color:#D7D1EB;stop-color:color(display-p3 0.8431 0.8196 0.9216);stop-opacity:1;"/>
</linearGradient>
<linearGradient id="paint56_linear_9370_126252" x1="11.0211" y1="24.0995" x2="16.9885" y2="34.4352" gradientUnits="userSpaceOnUse">
<stop stop-color="#43386B" style="stop-color:#43386B;stop-color:color(display-p3 0.2627 0.2196 0.4196);stop-opacity:1;"/>
<stop offset="1" stop-color="#43386B" stop-opacity="0" style="stop-color:none;stop-opacity:0;"/>
</linearGradient>
<linearGradient id="paint57_linear_9370_126252" x1="22.2147" y1="25.3112" x2="42.0491" y2="25.3112" gradientUnits="userSpaceOnUse">
<stop stop-color="#C5BAEB" style="stop-color:#C5BAEB;stop-color:color(display-p3 0.7725 0.7294 0.9216);stop-opacity:1;"/>
<stop offset="1" stop-color="#D7D1EB" style="stop-color:#D7D1EB;stop-color:color(display-p3 0.8431 0.8196 0.9216);stop-opacity:1;"/>
</linearGradient>
<linearGradient id="paint58_linear_9370_126252" x1="32.4228" y1="33.6427" x2="32.4228" y2="8.72648" gradientUnits="userSpaceOnUse">
<stop stop-color="#F7E041" style="stop-color:#F7E041;stop-color:color(display-p3 0.9686 0.8784 0.2549);stop-opacity:1;"/>
<stop offset="1" stop-color="#FCF3B3" style="stop-color:#FCF3B3;stop-color:color(display-p3 0.9882 0.9529 0.7020);stop-opacity:1;"/>
</linearGradient>
<linearGradient id="paint59_linear_9370_126252" x1="42.9096" y1="26.4996" x2="8.83428" y2="6.4329" gradientUnits="userSpaceOnUse">
<stop stop-color="#FFA538" style="stop-color:#FFA538;stop-color:color(display-p3 1.0000 0.6471 0.2196);stop-opacity:1;"/>
<stop offset="1" stop-color="#FFC538" style="stop-color:#FFC538;stop-color:color(display-p3 1.0000 0.7725 0.2196);stop-opacity:1;"/>
</linearGradient>
<linearGradient id="paint60_linear_9370_126252" x1="38.717" y1="16.4728" x2="25.5893" y2="16.4728" gradientUnits="userSpaceOnUse">
<stop stop-color="#FFA538" style="stop-color:#FFA538;stop-color:color(display-p3 1.0000 0.6471 0.2196);stop-opacity:1;"/>
<stop offset="1" stop-color="#FFC538" style="stop-color:#FFC538;stop-color:color(display-p3 1.0000 0.7725 0.2196);stop-opacity:1;"/>
</linearGradient>
<linearGradient id="paint61_linear_9370_126252" x1="21.9319" y1="24.1029" x2="34.216" y2="24.1029" gradientUnits="userSpaceOnUse">
<stop stop-color="#FFA538" style="stop-color:#FFA538;stop-color:color(display-p3 1.0000 0.6471 0.2196);stop-opacity:1;"/>
<stop offset="1" stop-color="#FFC538" style="stop-color:#FFC538;stop-color:color(display-p3 1.0000 0.7725 0.2196);stop-opacity:1;"/>
</linearGradient>
<linearGradient id="paint62_linear_9370_126252" x1="20.8082" y1="27.2113" x2="32.4434" y2="7.05918" gradientUnits="userSpaceOnUse">
<stop stop-color="#F2EFFA" style="stop-color:#F2EFFA;stop-color:color(display-p3 0.9490 0.9373 0.9804);stop-opacity:1;"/>
<stop offset="1" stop-color="white" style="stop-color:white;stop-opacity:1;"/>
</linearGradient>
<linearGradient id="paint63_linear_9370_126252" x1="22.8699" y1="25.8438" x2="31.8039" y2="10.3702" gradientUnits="userSpaceOnUse">
<stop stop-color="#F2EFFA" style="stop-color:#F2EFFA;stop-color:color(display-p3 0.9490 0.9373 0.9804);stop-opacity:1;"/>
<stop offset="1" stop-color="white" style="stop-color:white;stop-opacity:1;"/>
</linearGradient>
<linearGradient id="paint64_linear_9370_126252" x1="45.9411" y1="12.6386" x2="47.48" y2="9.97321" gradientUnits="userSpaceOnUse">
<stop stop-color="#F2EFFA" style="stop-color:#F2EFFA;stop-color:color(display-p3 0.9490 0.9373 0.9804);stop-opacity:1;"/>
<stop offset="1" stop-color="white" style="stop-color:white;stop-opacity:1;"/>
</linearGradient>
<linearGradient id="paint65_linear_9370_126252" x1="24.6775" y1="11.7249" x2="28.6123" y2="4.90983" gradientUnits="userSpaceOnUse">
<stop stop-color="#F2EFFA" style="stop-color:#F2EFFA;stop-color:color(display-p3 0.9490 0.9373 0.9804);stop-opacity:1;"/>
<stop offset="1" stop-color="white" style="stop-color:white;stop-opacity:1;"/>
</linearGradient>
<linearGradient id="paint66_linear_9370_126252" x1="9.18435" y1="20.5821" x2="13.1327" y2="13.7435" gradientUnits="userSpaceOnUse">
<stop stop-color="#F2EFFA" style="stop-color:#F2EFFA;stop-color:color(display-p3 0.9490 0.9373 0.9804);stop-opacity:1;"/>
<stop offset="1" stop-color="white" style="stop-color:white;stop-opacity:1;"/>
</linearGradient>
<linearGradient id="paint67_linear_9370_126252" x1="15.6147" y1="29.9227" x2="17.1536" y2="27.2573" gradientUnits="userSpaceOnUse">
<stop stop-color="#F2EFFA" style="stop-color:#F2EFFA;stop-color:color(display-p3 0.9490 0.9373 0.9804);stop-opacity:1;"/>
<stop offset="1" stop-color="white" style="stop-color:white;stop-opacity:1;"/>
</linearGradient>
<linearGradient id="paint68_linear_9370_126252" x1="22.7734" y1="35.0602" x2="42.2179" y2="35.0602" gradientUnits="userSpaceOnUse">
<stop stop-color="#C5BAEB" style="stop-color:#C5BAEB;stop-color:color(display-p3 0.7725 0.7294 0.9216);stop-opacity:1;"/>
<stop offset="1" stop-color="#D7D1EB" style="stop-color:#D7D1EB;stop-color:color(display-p3 0.8431 0.8196 0.9216);stop-opacity:1;"/>
</linearGradient>
<linearGradient id="paint69_linear_9370_126252" x1="31.7543" y1="33.7918" x2="35.6892" y2="26.9767" gradientUnits="userSpaceOnUse">
<stop stop-color="#F2EFFA" style="stop-color:#F2EFFA;stop-color:color(display-p3 0.9490 0.9373 0.9804);stop-opacity:1;"/>
<stop offset="1" stop-color="white" style="stop-color:white;stop-opacity:1;"/>
</linearGradient>
<linearGradient id="paint70_linear_9370_126252" x1="46.8464" y1="24.7634" x2="51.2479" y2="17.1398" gradientUnits="userSpaceOnUse">
<stop stop-color="#F2EFFA" style="stop-color:#F2EFFA;stop-color:color(display-p3 0.9490 0.9373 0.9804);stop-opacity:1;"/>
<stop offset="1" stop-color="white" style="stop-color:white;stop-opacity:1;"/>
</linearGradient>
<linearGradient id="paint71_linear_9370_126252" x1="18.2583" y1="26.9195" x2="9.23471" y2="32.1293" gradientUnits="userSpaceOnUse">
<stop stop-color="#43386B" style="stop-color:#43386B;stop-color:color(display-p3 0.2627 0.2196 0.4196);stop-opacity:1;"/>
<stop offset="1" stop-color="#43386B" stop-opacity="0" style="stop-color:none;stop-opacity:0;"/>
</linearGradient>
<linearGradient id="paint72_linear_9370_126252" x1="20.2802" y1="21.2585" x2="39.7248" y2="21.2585" gradientUnits="userSpaceOnUse">
<stop stop-color="#AB2C37" style="stop-color:#AB2C37;stop-color:color(display-p3 0.6706 0.1725 0.2157);stop-opacity:1;"/>
<stop offset="1" stop-color="#FF4757" style="stop-color:#FF4757;stop-color:color(display-p3 1.0000 0.2784 0.3412);stop-opacity:1;"/>
</linearGradient>
<linearGradient id="paint73_linear_9370_126252" x1="19.7218" y1="17.697" x2="39.5564" y2="17.697" gradientUnits="userSpaceOnUse">
<stop stop-color="#C5BAEB" style="stop-color:#C5BAEB;stop-color:color(display-p3 0.7725 0.7294 0.9216);stop-opacity:1;"/>
<stop offset="1" stop-color="#D7D1EB" style="stop-color:#D7D1EB;stop-color:color(display-p3 0.8431 0.8196 0.9216);stop-opacity:1;"/>
</linearGradient>
<linearGradient id="paint74_linear_9370_126252" x1="29.9297" y1="26.0284" x2="29.9297" y2="1.11222" gradientUnits="userSpaceOnUse">
<stop stop-color="#FF4757" style="stop-color:#FF4757;stop-color:color(display-p3 1.0000 0.2784 0.3412);stop-opacity:1;"/>
<stop offset="1" stop-color="#FF7A85" style="stop-color:#FF7A85;stop-color:color(display-p3 1.0000 0.4784 0.5216);stop-opacity:1;"/>
</linearGradient>
<linearGradient id="paint75_linear_9370_126252" x1="40.4169" y1="18.8854" x2="6.34161" y2="-1.18135" gradientUnits="userSpaceOnUse">
<stop stop-color="#AB2C37" style="stop-color:#AB2C37;stop-color:color(display-p3 0.6706 0.1725 0.2157);stop-opacity:1;"/>
<stop offset="1" stop-color="#FF4757" style="stop-color:#FF4757;stop-color:color(display-p3 1.0000 0.2784 0.3412);stop-opacity:1;"/>
</linearGradient>
<linearGradient id="paint76_linear_9370_126252" x1="36.2244" y1="8.85845" x2="23.0967" y2="8.85845" gradientUnits="userSpaceOnUse">
<stop stop-color="#AB2C37" style="stop-color:#AB2C37;stop-color:color(display-p3 0.6706 0.1725 0.2157);stop-opacity:1;"/>
<stop offset="1" stop-color="#FF4757" style="stop-color:#FF4757;stop-color:color(display-p3 1.0000 0.2784 0.3412);stop-opacity:1;"/>
</linearGradient>
<linearGradient id="paint77_linear_9370_126252" x1="19.439" y1="16.4877" x2="31.723" y2="16.4877" gradientUnits="userSpaceOnUse">
<stop stop-color="#AB2C37" style="stop-color:#AB2C37;stop-color:color(display-p3 0.6706 0.1725 0.2157);stop-opacity:1;"/>
<stop offset="1" stop-color="#FF4757" style="stop-color:#FF4757;stop-color:color(display-p3 1.0000 0.2784 0.3412);stop-opacity:1;"/>
</linearGradient>
<linearGradient id="paint78_linear_9370_126252" x1="18.3153" y1="19.5991" x2="29.9504" y2="-0.552895" gradientUnits="userSpaceOnUse">
<stop stop-color="#F2EFFA" style="stop-color:#F2EFFA;stop-color:color(display-p3 0.9490 0.9373 0.9804);stop-opacity:1;"/>
<stop offset="1" stop-color="white" style="stop-color:white;stop-opacity:1;"/>
</linearGradient>
<linearGradient id="paint79_linear_9370_126252" x1="20.3773" y1="18.2317" x2="29.3112" y2="2.75821" gradientUnits="userSpaceOnUse">
<stop stop-color="#F2EFFA" style="stop-color:#F2EFFA;stop-color:color(display-p3 0.9490 0.9373 0.9804);stop-opacity:1;"/>
<stop offset="1" stop-color="white" style="stop-color:white;stop-opacity:1;"/>
</linearGradient>
<linearGradient id="paint80_linear_9370_126252" x1="43.4484" y1="5.02636" x2="44.9873" y2="2.36099" gradientUnits="userSpaceOnUse">
<stop stop-color="#F2EFFA" style="stop-color:#F2EFFA;stop-color:color(display-p3 0.9490 0.9373 0.9804);stop-opacity:1;"/>
<stop offset="1" stop-color="white" style="stop-color:white;stop-opacity:1;"/>
</linearGradient>
<linearGradient id="paint81_linear_9370_126252" x1="22.1849" y1="4.1138" x2="26.1197" y2="-2.70134" gradientUnits="userSpaceOnUse">
<stop stop-color="#F2EFFA" style="stop-color:#F2EFFA;stop-color:color(display-p3 0.9490 0.9373 0.9804);stop-opacity:1;"/>
<stop offset="1" stop-color="white" style="stop-color:white;stop-opacity:1;"/>
</linearGradient>
<linearGradient id="paint82_linear_9370_126252" x1="6.6918" y1="12.97" x2="10.6402" y2="6.13144" gradientUnits="userSpaceOnUse">
<stop stop-color="#F2EFFA" style="stop-color:#F2EFFA;stop-color:color(display-p3 0.9490 0.9373 0.9804);stop-opacity:1;"/>
<stop offset="1" stop-color="white" style="stop-color:white;stop-opacity:1;"/>
</linearGradient>
<linearGradient id="paint83_linear_9370_126252" x1="20.2803" y1="25.0463" x2="39.7248" y2="25.0463" gradientUnits="userSpaceOnUse">
<stop stop-color="#C5BAEB" style="stop-color:#C5BAEB;stop-color:color(display-p3 0.7725 0.7294 0.9216);stop-opacity:1;"/>
<stop offset="1" stop-color="#D7D1EB" style="stop-color:#D7D1EB;stop-color:color(display-p3 0.8431 0.8196 0.9216);stop-opacity:1;"/>
</linearGradient>
<linearGradient id="paint84_linear_9370_126252" x1="13.122" y1="22.3115" x2="14.6609" y2="19.6461" gradientUnits="userSpaceOnUse">
<stop stop-color="#F2EFFA" style="stop-color:#F2EFFA;stop-color:color(display-p3 0.9490 0.9373 0.9804);stop-opacity:1;"/>
<stop offset="1" stop-color="white" style="stop-color:white;stop-opacity:1;"/>
</linearGradient>
<linearGradient id="paint85_linear_9370_126252" x1="20.2806" y1="27.4469" x2="39.7252" y2="27.4469" gradientUnits="userSpaceOnUse">
<stop stop-color="#C5BAEB" style="stop-color:#C5BAEB;stop-color:color(display-p3 0.7725 0.7294 0.9216);stop-opacity:1;"/>
<stop offset="1" stop-color="#D7D1EB" style="stop-color:#D7D1EB;stop-color:color(display-p3 0.8431 0.8196 0.9216);stop-opacity:1;"/>
</linearGradient>
<linearGradient id="paint86_linear_9370_126252" x1="29.2617" y1="26.1807" x2="33.1965" y2="19.3656" gradientUnits="userSpaceOnUse">
<stop stop-color="#F2EFFA" style="stop-color:#F2EFFA;stop-color:color(display-p3 0.9490 0.9373 0.9804);stop-opacity:1;"/>
<stop offset="1" stop-color="white" style="stop-color:white;stop-opacity:1;"/>
</linearGradient>
<linearGradient id="paint87_linear_9370_126252" x1="44.3537" y1="17.1513" x2="48.7553" y2="9.52776" gradientUnits="userSpaceOnUse">
<stop stop-color="#F2EFFA" style="stop-color:#F2EFFA;stop-color:color(display-p3 0.9490 0.9373 0.9804);stop-opacity:1;"/>
<stop offset="1" stop-color="white" style="stop-color:white;stop-opacity:1;"/>
</linearGradient>
</defs>
</svg>
