<svg width="60" height="60" viewBox="0 0 60 60" fill="none" xmlns="http://www.w3.org/2000/svg">
<g clip-path="url(#clip0_9370_126180)">
<path d="M47.8643 30.4667L46.1514 29.5021L53.7683 15.9766L55.4813 16.9411L47.8643 30.4667Z" fill="url(#paint0_linear_9370_126180)" style=""/>
<path d="M52.7085 21.8651L55.4814 16.9411L53.7684 15.9766L50.4524 21.8651H52.7085Z" fill="url(#paint1_linear_9370_126180)" style=""/>
<path d="M54.6248 20.0093C56.5854 20.0093 58.1749 18.4199 58.1749 16.4593C58.1749 14.4986 56.5854 12.9092 54.6248 12.9092C52.6641 12.9092 51.0747 14.4986 51.0747 16.4593C51.0747 18.4199 52.6641 20.0093 54.6248 20.0093Z" fill="url(#paint2_linear_9370_126180)" style=""/>
<path d="M54.0168 33.1171L48.1619 28.3085V10.084L14.7427 47.6031L21.096 59.8331L54.5153 40.5384C54.7027 40.3957 54.8297 40.1708 54.8297 39.9019V34.8367C54.8296 34.1708 54.5313 33.5398 54.0168 33.1171Z" fill="url(#paint3_linear_9370_126180)" style=""/>
<path d="M20.5977 52.4121L15.6076 48.3138L47.3456 7.6203L34.4079 0.150185L34.4074 0.150888C33.9895 -0.0804401 33.4489 -0.0539558 32.8579 0.287177L4.22153 16.8205C2.89767 17.5848 1.82446 19.6353 1.82446 21.4005V47.8875C1.82446 48.7337 2.27552 49.5158 3.00806 49.9396L20.2072 59.891C20.7418 60.2003 21.4107 59.8146 21.4107 59.1969V54.1317C21.4106 53.4657 21.1124 52.8348 20.5977 52.4121Z" fill="url(#paint4_linear_9370_126180)" style=""/>
<path d="M45.7762 7.74565L17.1397 24.2789C15.8159 25.0432 14.7427 27.0938 14.7427 28.859V46.4042C14.7427 48.1692 15.8159 48.9807 17.1397 48.2164L45.7762 31.6831C47.1 30.9188 48.1732 28.8682 48.1732 27.1031V9.55783C48.1731 7.79264 47.0999 6.98135 45.7762 7.74565Z" fill="url(#paint5_linear_9370_126180)" style=""/>
<path d="M25.5155 23.7812L18.5984 27.7749V41.3102L25.5155 37.3165V23.7812Z" fill="url(#paint6_linear_9370_126180)" style=""/>
<path d="M18.5984 41.3102L25.5155 23.7812L18.5984 27.7749V41.3102Z" fill="url(#paint7_linear_9370_126180)" style=""/>
<path d="M25.0031 25.0762L19.1108 28.4781V40.0154L25.0031 36.6134V25.0762Z" fill="#221C36" style="fill:#221C36;fill:color(display-p3 0.1333 0.1098 0.2118);fill-opacity:1;"/>
<path d="M24.6616 25.7402L19.4524 28.7477V39.3511L24.6616 36.3436V25.7402Z" fill="url(#paint8_linear_9370_126180)" style=""/>
<path d="M23.3718 28.5543L20.5714 30.1712C20.319 30.317 20.1143 30.708 20.1143 31.0446C20.1143 31.3811 20.3189 31.5359 20.5714 31.3902L22.7185 30.1506L21.3342 35.1267C21.185 35.6628 21.3508 36.0603 21.7111 35.9592C21.9786 35.8841 22.24 35.547 22.345 35.1664L23.9495 29.3442C24.005 29.1426 24.0155 28.9443 23.9761 28.7847C23.9001 28.4777 23.6456 28.3963 23.3718 28.5543Z" fill="#FF4757" style="fill:#FF4757;fill:color(display-p3 1.0000 0.2784 0.3412);fill-opacity:1;"/>
<path d="M21.604 36.0786C21.4997 36.0786 21.4064 36.0412 21.3335 35.9686C21.1662 35.8017 21.1292 35.4766 21.2342 35.099L22.5504 30.3675L20.6233 31.4802C20.48 31.5629 20.3371 31.5716 20.2204 31.5043C20.087 31.4273 20.0105 31.2599 20.0105 31.0448C20.0105 30.6695 20.2341 30.2463 20.5196 30.0815L23.3201 28.4647C23.4903 28.3664 23.6624 28.3455 23.8044 28.406C23.9377 28.4627 24.0344 28.5885 24.0768 28.7599C24.1199 28.9343 24.1102 29.1515 24.0495 29.3718L22.4451 35.1941C22.3278 35.6197 22.0374 35.9755 21.7392 36.0592C21.6925 36.0722 21.6474 36.0786 21.604 36.0786ZM22.7184 30.0468C22.7409 30.0468 22.7633 30.0541 22.7819 30.0686C22.8151 30.0944 22.8296 30.1378 22.8183 30.1785L21.4341 35.1546C21.3519 35.45 21.37 35.7118 21.4803 35.8216C21.5301 35.8713 21.5966 35.8837 21.683 35.8594C21.9075 35.7963 22.1491 35.4866 22.2449 35.1389L23.8493 29.3167C23.9008 29.1301 23.91 28.95 23.8753 28.8097C23.8567 28.7342 23.8151 28.636 23.723 28.5969C23.6428 28.5627 23.5364 28.5794 23.4237 28.6444L20.6233 30.2612C20.4037 30.388 20.2182 30.7468 20.2182 31.0447C20.2182 31.1816 20.2578 31.2862 20.3242 31.3245C20.3876 31.3611 20.4654 31.3317 20.5196 31.3004L22.6666 30.0608C22.6827 30.0514 22.7005 30.0468 22.7184 30.0468Z" fill="#221C36" style="fill:#221C36;fill:color(display-p3 0.1333 0.1098 0.2118);fill-opacity:1;"/>
<path d="M33.9772 18.8965L27.0601 22.89V36.4254L33.9772 32.4318V18.8965Z" fill="url(#paint9_linear_9370_126180)" style=""/>
<path d="M27.0601 36.4254L33.9772 18.8965L27.0601 22.89V36.4254Z" fill="url(#paint10_linear_9370_126180)" style=""/>
<path d="M33.4649 20.1914L27.5725 23.5934V35.1306L33.4649 31.7286V20.1914Z" fill="#221C36" style="fill:#221C36;fill:color(display-p3 0.1333 0.1098 0.2118);fill-opacity:1;"/>
<path d="M33.1233 20.8555L27.9141 23.863V34.4663L33.1233 31.4588V20.8555Z" fill="url(#paint11_linear_9370_126180)" style=""/>
<path d="M31.8335 23.6705L29.0331 25.2873C28.7807 25.4331 28.5759 25.8241 28.5759 26.1607C28.5759 26.4973 28.7805 26.6521 29.0331 26.5063L31.1802 25.2667L29.7958 30.2428C29.6467 30.7788 29.8125 31.1765 30.1726 31.0753C30.4401 31.0002 30.7016 30.6632 30.8066 30.2826L32.411 24.4603C32.4666 24.2588 32.4771 24.0605 32.4376 23.9009C32.3618 23.594 32.1073 23.5125 31.8335 23.6705Z" fill="#FF4757" style="fill:#FF4757;fill:color(display-p3 1.0000 0.2784 0.3412);fill-opacity:1;"/>
<path d="M30.0657 31.1948C29.9613 31.1948 29.868 31.1574 29.7951 31.0847C29.6277 30.9178 29.5907 30.5927 29.6957 30.2151L31.0118 25.4836L29.0847 26.5963C28.9415 26.679 28.7985 26.6876 28.6818 26.6204C28.5484 26.5434 28.4719 26.376 28.4719 26.1609C28.4719 25.7856 28.6955 25.3625 28.981 25.1977L31.7814 23.5809C31.9516 23.4826 32.1236 23.4617 32.2658 23.5222C32.399 23.5789 32.4957 23.7047 32.5381 23.8761C32.5812 24.0505 32.5715 24.2677 32.5108 24.4881L30.9064 30.3103C30.7891 30.7359 30.4989 31.0917 30.2006 31.1755C30.1541 31.1884 30.109 31.1948 30.0657 31.1948ZM31.18 25.1631C31.2025 25.1631 31.225 25.1703 31.2435 25.1849C31.2768 25.2106 31.2912 25.2541 31.28 25.2947L29.8958 30.2708C29.8136 30.5662 29.8317 30.828 29.9418 30.9378C29.9917 30.9875 30.0583 30.9999 30.1447 30.9756C30.3692 30.9125 30.6108 30.6028 30.7066 30.255L32.311 24.4327C32.3625 24.2462 32.3717 24.0662 32.337 23.9258C32.3184 23.8503 32.2768 23.7521 32.1847 23.713C32.1045 23.6788 31.9981 23.6955 31.8854 23.7604L29.0849 25.3773C28.8653 25.5041 28.6798 25.8629 28.6798 26.1608C28.6798 26.2977 28.7194 26.4023 28.7859 26.4406C28.8492 26.4771 28.927 26.4479 28.9812 26.4165L31.1282 25.1769C31.1444 25.1676 31.1622 25.1631 31.18 25.1631Z" fill="#221C36" style="fill:#221C36;fill:color(display-p3 0.1333 0.1098 0.2118);fill-opacity:1;"/>
<path d="M42.4388 14.0107L35.5217 18.0044V31.5398L42.4388 27.5461V14.0107Z" fill="url(#paint12_linear_9370_126180)" style=""/>
<path d="M35.5217 31.5398L42.4388 14.0107L35.5217 18.0044V31.5398Z" fill="url(#paint13_linear_9370_126180)" style=""/>
<path d="M41.9266 15.3057L36.0342 18.7076V30.2448L41.9266 26.8429V15.3057Z" fill="#221C36" style="fill:#221C36;fill:color(display-p3 0.1333 0.1098 0.2118);fill-opacity:1;"/>
<path d="M41.5849 15.9697L36.3757 18.9772V29.5807L41.5849 26.5732V15.9697Z" fill="url(#paint14_linear_9370_126180)" style=""/>
<path d="M40.2952 18.7838L37.4947 20.4006C37.2423 20.5464 37.0376 20.9375 37.0376 21.274C37.0376 21.6106 37.2422 21.7654 37.4947 21.6196L39.6419 20.38L38.2575 25.3562C38.1083 25.8923 38.2742 26.2898 38.6344 26.1887C38.9019 26.1135 39.1634 25.7765 39.2684 25.3959L40.8728 19.5737C40.9283 19.3721 40.9389 19.1738 40.8994 19.0142C40.8235 18.7073 40.5689 18.6257 40.2952 18.7838Z" fill="#FF4757" style="fill:#FF4757;fill:color(display-p3 1.0000 0.2784 0.3412);fill-opacity:1;"/>
<path d="M38.5274 26.3081C38.4231 26.3081 38.3298 26.2707 38.2568 26.1979C38.0895 26.031 38.0525 25.706 38.1575 25.3284L39.4738 20.5968L37.5466 21.7095C37.4033 21.7922 37.2604 21.8009 37.1437 21.7337C37.0104 21.6567 36.9338 21.4891 36.9338 21.2742C36.9338 20.8988 37.1574 20.4756 37.4429 20.311L40.2434 18.6942C40.4135 18.596 40.5856 18.575 40.7278 18.6355C40.861 18.6922 40.9577 18.8179 41.0001 18.9894C41.0433 19.1637 41.0335 19.381 40.9728 19.6013L39.3684 25.4235C39.2511 25.8492 38.9607 26.2049 38.6626 26.2887C38.6159 26.3016 38.5707 26.3081 38.5274 26.3081ZM39.6417 20.2764C39.6642 20.2764 39.6867 20.2837 39.7052 20.2982C39.7385 20.324 39.7529 20.3675 39.7415 20.408L38.3573 25.3842C38.2752 25.6795 38.2932 25.9414 38.4034 26.0512C38.4533 26.101 38.5199 26.1133 38.6062 26.0889C38.8308 26.0259 39.0724 25.7162 39.1681 25.3685L40.7725 19.5462C40.824 19.3597 40.8333 19.1796 40.7986 19.0393C40.7799 18.9638 40.7383 18.8656 40.6463 18.8265C40.5657 18.7922 40.4597 18.809 40.3469 18.8739L37.5465 20.4908C37.3269 20.6176 37.1414 20.9764 37.1414 21.2743C37.1414 21.4112 37.181 21.5158 37.2474 21.5541C37.3107 21.5907 37.3885 21.5613 37.4428 21.53L39.5898 20.2904C39.6061 20.281 39.6239 20.2764 39.6417 20.2764Z" fill="#221C36" style="fill:#221C36;fill:color(display-p3 0.1333 0.1098 0.2118);fill-opacity:1;"/>
<path d="M39.3366 11.4639L17.1397 24.2793C15.8159 25.0436 14.7427 27.0941 14.7427 28.8593V46.4045C14.7427 48.1696 15.8159 48.981 17.1397 48.2167L27.0463 42.4971L39.3366 11.4639Z" fill="url(#paint15_linear_9370_126180)" style=""/>
<path d="M45.3904 12.1592V27.7149C45.3904 27.9802 45.229 28.2885 45.03 28.4033L17.8858 44.0752C17.6868 44.19 17.5254 44.0682 17.5254 43.8028V28.247C17.5254 27.9817 17.6868 27.6734 17.8858 27.5585L45.03 11.8867C45.229 11.7719 45.3904 11.8939 45.3904 12.1592ZM45.7762 7.74565L17.1397 24.2789C15.8159 25.0432 14.7427 27.0938 14.7427 28.859V46.4042C14.7427 48.1692 15.8159 48.9807 17.1397 48.2162L45.7762 31.683C47.1 30.9187 48.1732 28.8681 48.1732 27.103V9.55783C48.1731 7.79264 47.1 6.98135 45.7762 7.74565Z" fill="url(#paint16_linear_9370_126180)" style=""/>
<path d="M32.3538 17.3319C32.3538 16.672 31.9527 16.3687 31.4578 16.6544C30.9629 16.9401 30.5618 17.7066 30.5618 18.3665C30.5618 19.0264 30.9629 19.3297 31.4578 19.044C31.9527 18.7583 32.3538 17.9917 32.3538 17.3319Z" fill="#F7E041" style="fill:#F7E041;fill:color(display-p3 0.9686 0.8784 0.2549);fill-opacity:1;"/>
<path d="M35.9246 15.2703C35.9246 14.6105 35.5235 14.3072 35.0286 14.5929C34.5337 14.8786 34.1326 15.6451 34.1326 16.305C34.1326 16.9649 34.5337 17.2681 35.0286 16.9824C35.5235 16.6966 35.9246 15.9301 35.9246 15.2703Z" fill="#F7E041" style="fill:#F7E041;fill:color(display-p3 0.9686 0.8784 0.2549);fill-opacity:1;"/>
<path d="M39.3306 14.0438C39.6284 13.3448 39.5493 12.6416 39.1539 12.4731C38.7585 12.3046 38.1965 12.7346 37.8986 13.4336C37.6008 14.1326 37.6799 14.8358 38.0754 15.0043C38.4708 15.1728 39.0328 14.7427 39.3306 14.0438Z" fill="#F7E041" style="fill:#F7E041;fill:color(display-p3 0.9686 0.8784 0.2549);fill-opacity:1;"/>
<path d="M43.066 11.1473C43.066 10.4874 42.6648 10.1841 42.1699 10.4698C41.6751 10.7555 41.2739 11.5221 41.2739 12.1819C41.2739 12.8418 41.6751 13.1451 42.1699 12.8594C42.6648 12.5736 43.066 11.8071 43.066 11.1473Z" fill="#F7E041" style="fill:#F7E041;fill:color(display-p3 0.9686 0.8784 0.2549);fill-opacity:1;"/>
<path d="M47.0081 9.36604C47.0081 8.70615 46.607 8.40287 46.1121 8.68857C45.6172 8.97428 45.2161 9.7408 45.2161 10.4007C45.2161 11.0606 45.6172 11.3638 46.1121 11.0781C46.6068 10.7924 47.0081 10.0259 47.0081 9.36604Z" fill="#F7E041" style="fill:#F7E041;fill:color(display-p3 0.9686 0.8784 0.2549);fill-opacity:1;"/>
<path d="M17.6997 26.2869C17.6997 25.6271 17.2986 25.3238 16.8037 25.6095C16.3088 25.8952 15.9077 26.6617 15.9077 27.3216C15.9077 27.9815 16.3088 28.2847 16.8037 27.999C17.2986 27.7133 17.6997 26.9468 17.6997 26.2869Z" fill="#F7E041" style="fill:#F7E041;fill:color(display-p3 0.9686 0.8784 0.2549);fill-opacity:1;"/>
<path d="M21.6416 23.5164C21.6416 22.8565 21.2405 22.5533 20.7456 22.839C20.2507 23.1247 19.8496 23.8912 19.8496 24.5511C19.8496 25.211 20.2507 25.5142 20.7456 25.2285C21.2405 24.9428 21.6416 24.1763 21.6416 23.5164Z" fill="#F7E041" style="fill:#F7E041;fill:color(display-p3 0.9686 0.8784 0.2549);fill-opacity:1;"/>
<path d="M25.2124 21.4549C25.2124 20.795 24.8113 20.4917 24.3164 20.7775C23.8215 21.0632 23.4204 21.8297 23.4204 22.4896C23.4204 23.1495 23.8215 23.4528 24.3164 23.1671C24.8113 22.8813 25.2124 22.1147 25.2124 21.4549Z" fill="#F7E041" style="fill:#F7E041;fill:color(display-p3 0.9686 0.8784 0.2549);fill-opacity:1;"/>
<path d="M28.7832 19.3934C28.7832 18.7335 28.3821 18.4302 27.8872 18.7159C27.3923 19.0016 26.9912 19.7681 26.9912 20.428C26.9912 21.0879 27.3923 21.3912 27.8872 21.1055C28.382 20.8198 28.7832 20.0533 28.7832 19.3934Z" fill="#F7E041" style="fill:#F7E041;fill:color(display-p3 0.9686 0.8784 0.2549);fill-opacity:1;"/>
<path d="M32.3538 37.5955C32.3538 36.9356 31.9527 36.6323 31.4578 36.9181C30.9629 37.2038 30.5618 37.9704 30.5618 38.6302C30.5618 39.2901 30.9629 39.5934 31.4578 39.3077C31.9527 39.0218 32.3538 38.2552 32.3538 37.5955Z" fill="#F7E041" style="fill:#F7E041;fill:color(display-p3 0.9686 0.8784 0.2549);fill-opacity:1;"/>
<path d="M35.9246 35.534C35.9246 34.8741 35.5235 34.5708 35.0286 34.8565C34.5337 35.1422 34.1326 35.9088 34.1326 36.5687C34.1326 37.2285 34.5337 37.5318 35.0286 37.2461C35.5235 36.9603 35.9246 36.1938 35.9246 35.534Z" fill="#F7E041" style="fill:#F7E041;fill:color(display-p3 0.9686 0.8784 0.2549);fill-opacity:1;"/>
<path d="M39.3274 34.3162C39.6253 33.6172 39.5461 32.914 39.1507 32.7455C38.7553 32.577 38.1933 33.0071 37.8955 33.7061C37.5976 34.405 37.6768 35.1083 38.0722 35.2768C38.4676 35.4452 39.0296 35.0152 39.3274 34.3162Z" fill="#F7E041" style="fill:#F7E041;fill:color(display-p3 0.9686 0.8784 0.2549);fill-opacity:1;"/>
<path d="M43.066 31.411C43.066 30.7511 42.6648 30.4478 42.1699 30.7335C41.6751 31.0192 41.2739 31.7857 41.2739 32.4456C41.2739 33.1055 41.6751 33.4088 42.1699 33.1231C42.6648 32.8374 43.066 32.0708 43.066 31.411Z" fill="#F7E041" style="fill:#F7E041;fill:color(display-p3 0.9686 0.8784 0.2549);fill-opacity:1;"/>
<path d="M47.0081 28.6404C47.0081 27.9806 46.607 27.6773 46.1121 27.963C45.6172 28.2487 45.2161 29.0152 45.2161 29.6751C45.2161 30.335 45.6172 30.6383 46.1121 30.3524C46.6068 30.0667 47.0081 29.3002 47.0081 28.6404Z" fill="#F7E041" style="fill:#F7E041;fill:color(display-p3 0.9686 0.8784 0.2549);fill-opacity:1;"/>
<path d="M17.5201 46.407C17.8179 45.7081 17.7388 45.0048 17.3433 44.8363C16.9479 44.6679 16.3859 45.0979 16.0881 45.7969C15.7903 46.4959 15.8694 47.1991 16.2648 47.3676C16.6602 47.5361 17.2222 47.106 17.5201 46.407Z" fill="#F7E041" style="fill:#F7E041;fill:color(display-p3 0.9686 0.8784 0.2549);fill-opacity:1;"/>
<path d="M21.6416 43.78C21.6416 43.1202 21.2405 42.8169 20.7456 43.1027C20.2507 43.3884 19.8496 44.1549 19.8496 44.8148C19.8496 45.4747 20.2507 45.778 20.7456 45.4922C21.2405 45.2065 21.6416 44.4399 21.6416 43.78Z" fill="#F7E041" style="fill:#F7E041;fill:color(display-p3 0.9686 0.8784 0.2549);fill-opacity:1;"/>
<path d="M25.2124 41.7185C25.2124 41.0586 24.8113 40.7554 24.3164 41.0412C23.8215 41.3269 23.4204 42.0934 23.4204 42.7533C23.4204 43.4132 23.8215 43.7165 24.3164 43.4308C24.8113 43.1449 25.2124 42.3784 25.2124 41.7185Z" fill="#F7E041" style="fill:#F7E041;fill:color(display-p3 0.9686 0.8784 0.2549);fill-opacity:1;"/>
<path d="M28.7832 39.657C28.7832 38.9971 28.3821 38.6938 27.8872 38.9797C27.3923 39.2654 26.9912 40.0319 26.9912 40.6918C26.9912 41.3517 27.3923 41.6549 27.8872 41.3691C28.382 41.0834 28.7832 40.3169 28.7832 39.657Z" fill="#F7E041" style="fill:#F7E041;fill:color(display-p3 0.9686 0.8784 0.2549);fill-opacity:1;"/>
<path d="M16.7688 32.4373C17.0667 31.7383 16.9875 31.0351 16.5921 30.8666C16.1967 30.6981 15.6347 31.1282 15.3369 31.8272C15.039 32.5261 15.1182 33.2294 15.5136 33.3978C15.909 33.5663 16.471 33.1363 16.7688 32.4373Z" fill="#F7E041" style="fill:#F7E041;fill:color(display-p3 0.9686 0.8784 0.2549);fill-opacity:1;"/>
<path d="M16.0508 38.0713C16.5457 37.7856 16.9468 37.019 16.9468 36.3592C16.9468 35.6993 16.5457 35.396 16.0508 35.6818C15.5559 35.9675 15.1548 36.734 15.1548 37.3939C15.1547 38.0537 15.5559 38.357 16.0508 38.0713Z" fill="#F7E041" style="fill:#F7E041;fill:color(display-p3 0.9686 0.8784 0.2549);fill-opacity:1;"/>
<path d="M16.0508 42.8321C16.5457 42.5463 16.9468 41.7798 16.9468 41.1199C16.9468 40.4601 16.5457 40.1568 16.0508 40.4425C15.5559 40.7282 15.1548 41.4947 15.1548 42.1546C15.1547 42.8145 15.5559 43.1178 16.0508 42.8321Z" fill="#F7E041" style="fill:#F7E041;fill:color(display-p3 0.9686 0.8784 0.2549);fill-opacity:1;"/>
<path d="M46.8096 15.5518C47.3045 15.2661 47.7056 14.4996 47.7056 13.8397C47.7056 13.1798 47.3045 12.8765 46.8096 13.1622C46.3147 13.4479 45.9136 14.2144 45.9136 14.8743C45.9136 15.5342 46.3147 15.8375 46.8096 15.5518Z" fill="#F7E041" style="fill:#F7E041;fill:color(display-p3 0.9686 0.8784 0.2549);fill-opacity:1;"/>
<path d="M46.8096 20.3125C47.3045 20.0268 47.7056 19.2603 47.7056 18.6004C47.7056 17.9405 47.3045 17.6372 46.8096 17.9229C46.3147 18.2087 45.9136 18.9752 45.9136 19.6351C45.9136 20.2949 46.3147 20.5982 46.8096 20.3125Z" fill="#F7E041" style="fill:#F7E041;fill:color(display-p3 0.9686 0.8784 0.2549);fill-opacity:1;"/>
<path d="M47.543 24.2029C47.8408 23.504 47.7617 22.8007 47.3663 22.6322C46.9709 22.4638 46.4089 22.8938 46.111 23.5928C45.8132 24.2918 45.8923 24.995 46.2878 25.1635C46.6832 25.332 47.2452 24.9019 47.543 24.2029Z" fill="#F7E041" style="fill:#F7E041;fill:color(display-p3 0.9686 0.8784 0.2549);fill-opacity:1;"/>
<path d="M17.8856 44.0754L45.03 28.4036C45.229 28.2888 45.3902 27.9804 45.3902 27.7151V12.1594C45.3902 11.894 45.2289 11.7721 45.03 11.887L43.7494 12.6263V27.3844C43.7494 27.6497 43.5881 27.9579 43.389 28.0729L17.5254 43.0054V43.803C17.5254 44.0684 17.6866 44.1904 17.8856 44.0754Z" fill="url(#paint17_linear_9370_126180)" style=""/>
<path d="M23.0343 45.8966L20.1908 47.5487C19.9856 47.6679 19.9624 47.9552 20.1458 48.1058L22.5938 50.1163C22.8174 50.2999 23.1314 50.3252 23.3816 50.1799L26.2252 48.5279C26.4304 48.4087 26.4536 48.1214 26.2702 47.9708L23.8221 45.9602C23.5985 45.7766 23.2843 45.7511 23.0343 45.8966Z" fill="#F7E041" style="fill:#F7E041;fill:color(display-p3 0.9686 0.8784 0.2549);fill-opacity:1;"/>
<path d="M27.6053 43.2588L24.7619 44.9109C24.5567 45.0301 24.5335 45.3175 24.7169 45.4682L27.1648 47.4786C27.3884 47.6623 27.7025 47.6876 27.9527 47.5423L30.7962 45.8903C31.0014 45.7711 31.0246 45.4838 30.8412 45.333L28.3932 43.3225C28.1696 43.1388 27.8554 43.1135 27.6053 43.2588Z" fill="#F7E041" style="fill:#F7E041;fill:color(display-p3 0.9686 0.8784 0.2549);fill-opacity:1;"/>
<path d="M32.1764 40.6222L29.3329 42.2743C29.1277 42.3935 29.1045 42.6808 29.2879 42.8314L31.7358 44.8419C31.9594 45.0255 32.2735 45.0508 32.5237 44.9055L35.3673 43.2535C35.5724 43.1343 35.5956 42.847 35.4123 42.6963L32.9642 40.6857C32.7406 40.5022 32.4264 40.4767 32.1764 40.6222Z" fill="#F7E041" style="fill:#F7E041;fill:color(display-p3 0.9686 0.8784 0.2549);fill-opacity:1;"/>
<path d="M46.6756 32.2081L43.8322 33.8602C43.627 33.9793 43.6038 34.2667 43.7872 34.4173L46.2351 36.4277C46.4587 36.6114 46.7728 36.6367 47.023 36.4914L49.8665 34.8394C50.0717 34.7202 50.0949 34.4329 49.9115 34.2822L47.4635 32.2716C47.2399 32.0881 46.9257 32.0627 46.6756 32.2081Z" fill="#E9E5F6" style="fill:#E9E5F6;fill:color(display-p3 0.9137 0.8980 0.9647);fill-opacity:1;"/>
</g>
<defs>
<linearGradient id="paint0_linear_9370_126180" x1="45.7364" y1="29.158" x2="55.9079" y2="17.3151" gradientUnits="userSpaceOnUse">
<stop stop-color="#C9BAEC" style="stop-color:#C9BAEC;stop-color:color(display-p3 0.7882 0.7294 0.9255);stop-opacity:1;"/>
<stop offset="1" stop-color="#F3EEFA" style="stop-color:#F3EEFA;stop-color:color(display-p3 0.9529 0.9333 0.9804);stop-opacity:1;"/>
</linearGradient>
<linearGradient id="paint1_linear_9370_126180" x1="54.2374" y1="16.8879" x2="51.5291" y2="22.2493" gradientUnits="userSpaceOnUse">
<stop stop-color="#7662BD" style="stop-color:#7662BD;stop-color:color(display-p3 0.4627 0.3843 0.7412);stop-opacity:1;"/>
<stop offset="1" stop-color="#7662BD" stop-opacity="0" style="stop-color:none;stop-opacity:0;"/>
</linearGradient>
<linearGradient id="paint2_linear_9370_126180" x1="56.3495" y1="21.3644" x2="53.531" y2="13.3346" gradientUnits="userSpaceOnUse">
<stop stop-color="#63141A" style="stop-color:#63141A;stop-color:color(display-p3 0.3882 0.0784 0.1020);stop-opacity:1;"/>
<stop offset="0.2842" stop-color="#981F28" style="stop-color:#981F28;stop-color:color(display-p3 0.5961 0.1216 0.1569);stop-opacity:1;"/>
<stop offset="0.5147" stop-color="#C62834" style="stop-color:#C62834;stop-color:color(display-p3 0.7765 0.1569 0.2039);stop-opacity:1;"/>
<stop offset="0.9681" stop-color="#FB4355" style="stop-color:#FB4355;stop-color:color(display-p3 0.9843 0.2627 0.3333);stop-opacity:1;"/>
<stop offset="1" stop-color="#FF4557" style="stop-color:#FF4557;stop-color:color(display-p3 1.0000 0.2706 0.3412);stop-opacity:1;"/>
</linearGradient>
<linearGradient id="paint3_linear_9370_126180" x1="39.6213" y1="43.6057" x2="38.9452" y2="42.4345" gradientUnits="userSpaceOnUse">
<stop stop-color="#59171D" style="stop-color:#59171D;stop-color:color(display-p3 0.3490 0.0902 0.1137);stop-opacity:1;"/>
<stop offset="0.1229" stop-color="#641A21" style="stop-color:#641A21;stop-color:color(display-p3 0.3922 0.1020 0.1294);stop-opacity:1;"/>
<stop offset="0.7108" stop-color="#972731" style="stop-color:#972731;stop-color:color(display-p3 0.5922 0.1529 0.1922);stop-opacity:1;"/>
<stop offset="1" stop-color="#AB2C37" style="stop-color:#AB2C37;stop-color:color(display-p3 0.6706 0.1725 0.2157);stop-opacity:1;"/>
</linearGradient>
<linearGradient id="paint4_linear_9370_126180" x1="17.8821" y1="28.8268" x2="19.9022" y2="25.3278" gradientUnits="userSpaceOnUse">
<stop stop-color="#AB2C37" style="stop-color:#AB2C37;stop-color:color(display-p3 0.6706 0.1725 0.2157);stop-opacity:1;"/>
<stop offset="0.1412" stop-color="#B8303C" style="stop-color:#B8303C;stop-color:color(display-p3 0.7216 0.1882 0.2353);stop-opacity:1;"/>
<stop offset="0.7169" stop-color="#EB414F" style="stop-color:#EB414F;stop-color:color(display-p3 0.9216 0.2549 0.3098);stop-opacity:1;"/>
<stop offset="1" stop-color="#FF4757" style="stop-color:#FF4757;stop-color:color(display-p3 1.0000 0.2784 0.3412);stop-opacity:1;"/>
</linearGradient>
<linearGradient id="paint5_linear_9370_126180" x1="31.458" y1="18.5752" x2="41.7562" y2="36.4119" gradientUnits="userSpaceOnUse">
<stop stop-color="#AB2C37" style="stop-color:#AB2C37;stop-color:color(display-p3 0.6706 0.1725 0.2157);stop-opacity:1;"/>
<stop offset="0.2831" stop-color="#BF323F" style="stop-color:#BF323F;stop-color:color(display-p3 0.7490 0.1961 0.2471);stop-opacity:1;"/>
<stop offset="0.8588" stop-color="#F24352" style="stop-color:#F24352;stop-color:color(display-p3 0.9490 0.2627 0.3216);stop-opacity:1;"/>
<stop offset="1" stop-color="#FF4757" style="stop-color:#FF4757;stop-color:color(display-p3 1.0000 0.2784 0.3412);stop-opacity:1;"/>
</linearGradient>
<linearGradient id="paint6_linear_9370_126180" x1="22.0571" y1="39.7935" x2="17.8024" y2="32.4244" gradientUnits="userSpaceOnUse">
<stop stop-color="#59171D" style="stop-color:#59171D;stop-color:color(display-p3 0.3490 0.0902 0.1137);stop-opacity:1;"/>
<stop offset="0.1229" stop-color="#641A21" style="stop-color:#641A21;stop-color:color(display-p3 0.3922 0.1020 0.1294);stop-opacity:1;"/>
<stop offset="0.7108" stop-color="#972731" style="stop-color:#972731;stop-color:color(display-p3 0.5922 0.1529 0.1922);stop-opacity:1;"/>
<stop offset="1" stop-color="#AB2C37" style="stop-color:#AB2C37;stop-color:color(display-p3 0.6706 0.1725 0.2157);stop-opacity:1;"/>
</linearGradient>
<linearGradient id="paint7_linear_9370_126180" x1="22.0571" y1="25.5284" x2="23.3702" y2="27.8026" gradientUnits="userSpaceOnUse">
<stop stop-color="#59171D" style="stop-color:#59171D;stop-color:color(display-p3 0.3490 0.0902 0.1137);stop-opacity:1;"/>
<stop offset="0.1229" stop-color="#641A21" style="stop-color:#641A21;stop-color:color(display-p3 0.3922 0.1020 0.1294);stop-opacity:1;"/>
<stop offset="0.7108" stop-color="#972731" style="stop-color:#972731;stop-color:color(display-p3 0.5922 0.1529 0.1922);stop-opacity:1;"/>
<stop offset="1" stop-color="#AB2C37" style="stop-color:#AB2C37;stop-color:color(display-p3 0.6706 0.1725 0.2157);stop-opacity:1;"/>
</linearGradient>
<linearGradient id="paint8_linear_9370_126180" x1="22.0571" y1="37.8572" x2="17.4644" y2="29.9026" gradientUnits="userSpaceOnUse">
<stop stop-color="#FFC538" style="stop-color:#FFC538;stop-color:color(display-p3 1.0000 0.7725 0.2196);stop-opacity:1;"/>
<stop offset="0.1017" stop-color="#FFCC4C" style="stop-color:#FFCC4C;stop-color:color(display-p3 1.0000 0.8000 0.2980);stop-opacity:1;"/>
<stop offset="0.3081" stop-color="#FDDF7F" style="stop-color:#FDDF7F;stop-color:color(display-p3 0.9922 0.8745 0.4980);stop-opacity:1;"/>
<stop offset="0.5" stop-color="#FCF3B3" style="stop-color:#FCF3B3;stop-color:color(display-p3 0.9882 0.9529 0.7020);stop-opacity:1;"/>
<stop offset="0.6192" stop-color="#FCF2B0" style="stop-color:#FCF2B0;stop-color:color(display-p3 0.9882 0.9490 0.6902);stop-opacity:1;"/>
<stop offset="0.7069" stop-color="#FCEEA7" style="stop-color:#FCEEA7;stop-color:color(display-p3 0.9882 0.9333 0.6549);stop-opacity:1;"/>
<stop offset="0.7844" stop-color="#FDE897" style="stop-color:#FDE897;stop-color:color(display-p3 0.9922 0.9098 0.5922);stop-opacity:1;"/>
<stop offset="0.8561" stop-color="#FDE080" style="stop-color:#FDE080;stop-color:color(display-p3 0.9922 0.8784 0.5020);stop-opacity:1;"/>
<stop offset="0.9238" stop-color="#FED563" style="stop-color:#FED563;stop-color:color(display-p3 0.9961 0.8353 0.3882);stop-opacity:1;"/>
<stop offset="0.9876" stop-color="#FFC840" style="stop-color:#FFC840;stop-color:color(display-p3 1.0000 0.7843 0.2510);stop-opacity:1;"/>
<stop offset="1" stop-color="#FFC538" style="stop-color:#FFC538;stop-color:color(display-p3 1.0000 0.7725 0.2196);stop-opacity:1;"/>
</linearGradient>
<linearGradient id="paint9_linear_9370_126180" x1="30.5187" y1="34.9087" x2="26.264" y2="27.5397" gradientUnits="userSpaceOnUse">
<stop stop-color="#59171D" style="stop-color:#59171D;stop-color:color(display-p3 0.3490 0.0902 0.1137);stop-opacity:1;"/>
<stop offset="0.1229" stop-color="#641A21" style="stop-color:#641A21;stop-color:color(display-p3 0.3922 0.1020 0.1294);stop-opacity:1;"/>
<stop offset="0.7108" stop-color="#972731" style="stop-color:#972731;stop-color:color(display-p3 0.5922 0.1529 0.1922);stop-opacity:1;"/>
<stop offset="1" stop-color="#AB2C37" style="stop-color:#AB2C37;stop-color:color(display-p3 0.6706 0.1725 0.2157);stop-opacity:1;"/>
</linearGradient>
<linearGradient id="paint10_linear_9370_126180" x1="30.5187" y1="20.6436" x2="31.8318" y2="22.9179" gradientUnits="userSpaceOnUse">
<stop stop-color="#59171D" style="stop-color:#59171D;stop-color:color(display-p3 0.3490 0.0902 0.1137);stop-opacity:1;"/>
<stop offset="0.1229" stop-color="#641A21" style="stop-color:#641A21;stop-color:color(display-p3 0.3922 0.1020 0.1294);stop-opacity:1;"/>
<stop offset="0.7108" stop-color="#972731" style="stop-color:#972731;stop-color:color(display-p3 0.5922 0.1529 0.1922);stop-opacity:1;"/>
<stop offset="1" stop-color="#AB2C37" style="stop-color:#AB2C37;stop-color:color(display-p3 0.6706 0.1725 0.2157);stop-opacity:1;"/>
</linearGradient>
<linearGradient id="paint11_linear_9370_126180" x1="30.5187" y1="32.9725" x2="25.926" y2="25.0179" gradientUnits="userSpaceOnUse">
<stop stop-color="#FFC538" style="stop-color:#FFC538;stop-color:color(display-p3 1.0000 0.7725 0.2196);stop-opacity:1;"/>
<stop offset="0.1017" stop-color="#FFCC4C" style="stop-color:#FFCC4C;stop-color:color(display-p3 1.0000 0.8000 0.2980);stop-opacity:1;"/>
<stop offset="0.3081" stop-color="#FDDF7F" style="stop-color:#FDDF7F;stop-color:color(display-p3 0.9922 0.8745 0.4980);stop-opacity:1;"/>
<stop offset="0.5" stop-color="#FCF3B3" style="stop-color:#FCF3B3;stop-color:color(display-p3 0.9882 0.9529 0.7020);stop-opacity:1;"/>
<stop offset="0.6192" stop-color="#FCF2B0" style="stop-color:#FCF2B0;stop-color:color(display-p3 0.9882 0.9490 0.6902);stop-opacity:1;"/>
<stop offset="0.7069" stop-color="#FCEEA7" style="stop-color:#FCEEA7;stop-color:color(display-p3 0.9882 0.9333 0.6549);stop-opacity:1;"/>
<stop offset="0.7844" stop-color="#FDE897" style="stop-color:#FDE897;stop-color:color(display-p3 0.9922 0.9098 0.5922);stop-opacity:1;"/>
<stop offset="0.8561" stop-color="#FDE080" style="stop-color:#FDE080;stop-color:color(display-p3 0.9922 0.8784 0.5020);stop-opacity:1;"/>
<stop offset="0.9238" stop-color="#FED563" style="stop-color:#FED563;stop-color:color(display-p3 0.9961 0.8353 0.3882);stop-opacity:1;"/>
<stop offset="0.9876" stop-color="#FFC840" style="stop-color:#FFC840;stop-color:color(display-p3 1.0000 0.7843 0.2510);stop-opacity:1;"/>
<stop offset="1" stop-color="#FFC538" style="stop-color:#FFC538;stop-color:color(display-p3 1.0000 0.7725 0.2196);stop-opacity:1;"/>
</linearGradient>
<linearGradient id="paint12_linear_9370_126180" x1="38.9804" y1="30.0229" x2="34.7258" y2="22.654" gradientUnits="userSpaceOnUse">
<stop stop-color="#59171D" style="stop-color:#59171D;stop-color:color(display-p3 0.3490 0.0902 0.1137);stop-opacity:1;"/>
<stop offset="0.1229" stop-color="#641A21" style="stop-color:#641A21;stop-color:color(display-p3 0.3922 0.1020 0.1294);stop-opacity:1;"/>
<stop offset="0.7108" stop-color="#972731" style="stop-color:#972731;stop-color:color(display-p3 0.5922 0.1529 0.1922);stop-opacity:1;"/>
<stop offset="1" stop-color="#AB2C37" style="stop-color:#AB2C37;stop-color:color(display-p3 0.6706 0.1725 0.2157);stop-opacity:1;"/>
</linearGradient>
<linearGradient id="paint13_linear_9370_126180" x1="38.9804" y1="15.758" x2="40.2935" y2="18.0322" gradientUnits="userSpaceOnUse">
<stop stop-color="#59171D" style="stop-color:#59171D;stop-color:color(display-p3 0.3490 0.0902 0.1137);stop-opacity:1;"/>
<stop offset="0.1229" stop-color="#641A21" style="stop-color:#641A21;stop-color:color(display-p3 0.3922 0.1020 0.1294);stop-opacity:1;"/>
<stop offset="0.7108" stop-color="#972731" style="stop-color:#972731;stop-color:color(display-p3 0.5922 0.1529 0.1922);stop-opacity:1;"/>
<stop offset="1" stop-color="#AB2C37" style="stop-color:#AB2C37;stop-color:color(display-p3 0.6706 0.1725 0.2157);stop-opacity:1;"/>
</linearGradient>
<linearGradient id="paint14_linear_9370_126180" x1="38.9804" y1="28.0868" x2="34.3877" y2="20.1322" gradientUnits="userSpaceOnUse">
<stop stop-color="#FFC538" style="stop-color:#FFC538;stop-color:color(display-p3 1.0000 0.7725 0.2196);stop-opacity:1;"/>
<stop offset="0.1017" stop-color="#FFCC4C" style="stop-color:#FFCC4C;stop-color:color(display-p3 1.0000 0.8000 0.2980);stop-opacity:1;"/>
<stop offset="0.3081" stop-color="#FDDF7F" style="stop-color:#FDDF7F;stop-color:color(display-p3 0.9922 0.8745 0.4980);stop-opacity:1;"/>
<stop offset="0.5" stop-color="#FCF3B3" style="stop-color:#FCF3B3;stop-color:color(display-p3 0.9882 0.9529 0.7020);stop-opacity:1;"/>
<stop offset="0.6192" stop-color="#FCF2B0" style="stop-color:#FCF2B0;stop-color:color(display-p3 0.9882 0.9490 0.6902);stop-opacity:1;"/>
<stop offset="0.7069" stop-color="#FCEEA7" style="stop-color:#FCEEA7;stop-color:color(display-p3 0.9882 0.9333 0.6549);stop-opacity:1;"/>
<stop offset="0.7844" stop-color="#FDE897" style="stop-color:#FDE897;stop-color:color(display-p3 0.9922 0.9098 0.5922);stop-opacity:1;"/>
<stop offset="0.8561" stop-color="#FDE080" style="stop-color:#FDE080;stop-color:color(display-p3 0.9922 0.8784 0.5020);stop-opacity:1;"/>
<stop offset="0.9238" stop-color="#FED563" style="stop-color:#FED563;stop-color:color(display-p3 0.9961 0.8353 0.3882);stop-opacity:1;"/>
<stop offset="0.9876" stop-color="#FFC840" style="stop-color:#FFC840;stop-color:color(display-p3 1.0000 0.7843 0.2510);stop-opacity:1;"/>
<stop offset="1" stop-color="#FFC538" style="stop-color:#FFC538;stop-color:color(display-p3 1.0000 0.7725 0.2196);stop-opacity:1;"/>
</linearGradient>
<linearGradient id="paint15_linear_9370_126180" x1="39.9239" y1="31.8241" x2="22.8119" y2="29.2457" gradientUnits="userSpaceOnUse">
<stop stop-color="white" style="stop-color:white;stop-opacity:1;"/>
<stop offset="1" stop-color="white" stop-opacity="0" style="stop-color:none;stop-opacity:0;"/>
</linearGradient>
<linearGradient id="paint16_linear_9370_126180" x1="31.458" y1="41.505" x2="20.4561" y2="22.4498" gradientUnits="userSpaceOnUse">
<stop stop-color="#FF4757" style="stop-color:#FF4757;stop-color:color(display-p3 1.0000 0.2784 0.3412);stop-opacity:1;"/>
<stop offset="0.563" stop-color="#FF6673" style="stop-color:#FF6673;stop-color:color(display-p3 1.0000 0.4000 0.4510);stop-opacity:1;"/>
<stop offset="1" stop-color="#FF7A85" style="stop-color:#FF7A85;stop-color:color(display-p3 1.0000 0.4784 0.5216);stop-opacity:1;"/>
</linearGradient>
<linearGradient id="paint17_linear_9370_126180" x1="38.2069" y1="23.7803" x2="37.1802" y2="25.5587" gradientUnits="userSpaceOnUse">
<stop stop-color="#59171D" style="stop-color:#59171D;stop-color:color(display-p3 0.3490 0.0902 0.1137);stop-opacity:1;"/>
<stop offset="0.1229" stop-color="#641A21" style="stop-color:#641A21;stop-color:color(display-p3 0.3922 0.1020 0.1294);stop-opacity:1;"/>
<stop offset="0.7108" stop-color="#972731" style="stop-color:#972731;stop-color:color(display-p3 0.5922 0.1529 0.1922);stop-opacity:1;"/>
<stop offset="1" stop-color="#AB2C37" style="stop-color:#AB2C37;stop-color:color(display-p3 0.6706 0.1725 0.2157);stop-opacity:1;"/>
</linearGradient>
<clipPath id="clip0_9370_126180">
<rect width="60" height="60" fill="white" style="fill:white;fill-opacity:1;"/>
</clipPath>
</defs>
</svg>
