<svg width="16" height="16" viewBox="0 0 16 16" fill="none" xmlns="http://www.w3.org/2000/svg">
<g opacity="0.7" clip-path="url(#clip0_2125_12329)">
<path d="M14.6754 9.59447L14.6756 9.59444V8.05859L0 10.0004V11.5353L0.00021875 11.5353C-0.000125 11.5827 0.0341562 11.6328 0.101812 11.6718L5.42303 14.744C5.54612 14.8151 5.73231 14.8228 5.83891 14.7613L8.943 12.9691L10.4027 12.0442L11.5155 11.4839L14.6038 9.70087C14.6529 9.6725 14.6763 9.63431 14.6754 9.59447Z" fill="url(#paint0_linear_2125_12329)" style=""/>
<path d="M14.6038 9.57705L5.83891 14.6375C5.73231 14.699 5.54612 14.6913 5.42303 14.6202L0.101812 11.548C0.0341562 11.509 -0.000125 11.4589 0.00021875 11.4115L0 11.4115V11.5618L0.00021875 11.5618C-0.000125 11.6092 0.0341562 11.6593 0.101812 11.6983L5.42303 14.7705C5.54612 14.8416 5.73231 14.8493 5.83891 14.7878L8.943 12.9956L9.01259 12.8658L11.4291 11.4842L11.5155 11.5105L14.6038 9.72742C14.6529 9.69905 14.6762 9.66086 14.6754 9.62102L14.6756 9.62099V9.4707L14.6754 9.47073C14.6763 9.51052 14.6529 9.54867 14.6038 9.57705Z" fill="url(#paint1_linear_2125_12329)" style=""/>
<path d="M14.6038 9.27932L5.83891 14.3397C5.73231 14.4013 5.54612 14.3935 5.42303 14.3225L0.101812 11.2503C0.0341562 11.2112 -0.000125 11.1612 0.00021875 11.1138H0V11.264L0.00021875 11.264C-0.000125 11.3114 0.0341562 11.3615 0.101812 11.4005L5.42303 14.4728C5.54612 14.5438 5.73231 14.5515 5.83891 14.49L14.6038 9.4296C14.6529 9.40123 14.6762 9.36304 14.6754 9.3232L14.6756 9.32316V9.17285L14.6754 9.17288C14.6763 9.21276 14.6529 9.25095 14.6038 9.27932Z" fill="url(#paint2_linear_2125_12329)" style=""/>
<path d="M14.6038 8.98437L5.83891 14.0448C5.73231 14.1063 5.54612 14.0986 5.42303 14.0275L0.101812 10.9553C0.0341562 10.9162 -0.000125 10.8662 0.00021875 10.8188L0 10.8188V10.9691L0.00021875 10.9691C-0.000125 11.0165 0.0341562 11.0666 0.101812 11.1056L5.42303 14.1778C5.54612 14.2489 5.73231 14.2566 5.83891 14.1951L14.6038 9.13465C14.6529 9.10627 14.6762 9.06809 14.6754 9.02824L14.6756 9.02821V8.87793L14.6754 8.87796C14.6763 8.9178 14.6529 8.95599 14.6038 8.98437Z" fill="url(#paint3_linear_2125_12329)" style=""/>
<path d="M14.6038 8.68557L5.83891 13.7459C5.73231 13.8075 5.54612 13.7998 5.42303 13.7287L0.101812 10.6565C0.0341562 10.6174 -0.000125 10.5674 0.00021875 10.52L0 10.52V10.6703L0.00021875 10.6703C-0.000125 10.7177 0.0341562 10.7677 0.101812 10.8068L5.42303 13.879C5.54612 13.9501 5.73231 13.9578 5.83891 13.8963L14.6038 8.83585C14.6529 8.80748 14.6762 8.76929 14.6754 8.72945L14.6756 8.72941V8.5791L14.6754 8.57913C14.6763 8.61901 14.6529 8.65716 14.6038 8.68557Z" fill="url(#paint4_linear_2125_12329)" style=""/>
<path d="M14.6038 8.38085L5.83891 13.4413C5.73231 13.5028 5.54612 13.4951 5.42303 13.424L0.101812 10.3518C0.0341562 10.3128 -0.000125 10.2627 0.00021875 10.2153H0V10.3656L0.00021875 10.3655C-0.000125 10.4129 0.0341562 10.463 0.101812 10.5021L5.42303 13.5743C5.54612 13.6454 5.73231 13.6531 5.83891 13.5915L14.6038 8.53113C14.6529 8.50276 14.6762 8.46457 14.6754 8.42473L14.6756 8.4247V8.27441L14.6754 8.27445C14.6763 8.31429 14.6529 8.35248 14.6038 8.38085Z" fill="url(#paint5_linear_2125_12329)" style=""/>
<path d="M0.101812 11.6988L3.37869 13.5907L4.732 12.8093L1.93166 9.74512L0 10.0007V11.5622L0.00021875 11.5622C-0.000125 11.6096 0.0341562 11.6597 0.101812 11.6988Z" fill="url(#paint6_linear_2125_12329)" style=""/>
<path d="M8.82261 4.87514L0.140863 9.88752C0.0352689 9.94849 0.0485189 10.055 0.170456 10.1254L5.44117 13.1684C5.56308 13.2388 5.74752 13.2465 5.85311 13.1855L14.5348 8.17308C14.6404 8.11211 14.6272 8.00564 14.5053 7.93527L9.23452 4.89221C9.11261 4.82183 8.92818 4.81417 8.82261 4.87514Z" fill="url(#paint7_linear_2125_12329)" style=""/>
<path d="M8.83708 4.83548L5.74311 6.62176L4.76549 7.34926L3.16336 8.1112L0.0722048 9.89589C-0.034389 9.95742 -0.021014 10.0649 0.102049 10.136L5.42327 13.2082C5.54636 13.2793 5.73255 13.287 5.83914 13.2255L14.604 8.16507C14.7106 8.10354 14.6972 7.99604 14.5741 7.92498L9.25292 4.85276C9.12986 4.78167 8.94367 4.77395 8.83708 4.83548ZM12.0245 7.42029C11.5619 7.68742 11.6199 8.15401 12.1541 8.46248C12.346 8.57323 12.5732 8.64836 12.807 8.68701L6.7432 12.1879C6.67624 12.0529 6.54614 11.9218 6.3543 11.811C5.82005 11.5026 5.01186 11.469 4.54917 11.7362C4.38302 11.8321 4.28439 11.9538 4.25049 12.0846L2.04817 10.8131C2.27474 10.7935 2.48552 10.7366 2.65167 10.6407C3.11436 10.3736 3.05633 9.90698 2.52208 9.59851C2.33024 9.48773 2.10302 9.41264 1.8692 9.37398L7.93302 5.87304C7.99999 6.00804 8.13008 6.13923 8.32192 6.24998C8.85617 6.55842 9.66436 6.59195 10.127 6.32479C10.2932 6.22886 10.3918 6.10717 10.4257 5.97636L12.628 7.24786C12.4015 7.26742 12.1907 7.32436 12.0245 7.42029Z" fill="url(#paint8_linear_2125_12329)" style=""/>
<path d="M9.02702 8.03382C7.93795 7.40504 6.29052 7.33676 5.34736 7.88129C4.4042 8.42582 4.52248 9.37698 5.61155 10.0057C6.70061 10.6345 8.34805 10.7028 9.2912 10.1583C10.2344 9.61376 10.1161 8.6626 9.02702 8.03382Z" fill="url(#paint9_linear_2125_12329)" style=""/>
<path d="M8.94299 11.4335V12.9961L11.5155 11.5109V9.94824L10.2292 10.4815L8.94299 11.4335Z" fill="url(#paint10_linear_2125_12329)" style=""/>
<path d="M5.7429 6.62207L3.16315 8.11148L8.94302 11.4336L11.5155 9.94835L5.7429 6.62207Z" fill="url(#paint11_linear_2125_12329)" style=""/>
<path d="M8.5468 9.52405L8.83424 9.68999C8.93552 9.74846 8.93552 9.82052 8.83424 9.87902C8.75605 9.92415 8.56058 9.92415 8.48243 9.87902L8.20427 9.71843C8.07911 9.7708 7.93999 9.8133 7.79446 9.84474C7.54374 9.89887 7.20799 9.8538 7.14099 9.75677L7.13986 9.75515C7.07458 9.66059 7.20936 9.56312 7.46824 9.51874C7.67461 9.48337 7.85777 9.42821 7.96608 9.36568C8.10396 9.28609 8.13183 9.2019 8.02274 9.1389C7.67186 8.9363 6.94189 9.6029 6.21064 9.18071C5.88336 8.99174 5.86058 8.74274 6.12552 8.51827L5.85577 8.36252C5.75446 8.30402 5.75446 8.23199 5.85577 8.17349C5.93396 8.12837 6.12943 8.12837 6.20758 8.17349L6.46214 8.32046C6.52458 8.29252 6.59027 8.26724 6.65793 8.24477C6.89511 8.16605 7.2998 8.20474 7.37805 8.31321C7.44049 8.39977 7.33324 8.48956 7.11227 8.53959C6.93674 8.57934 6.78314 8.62877 6.69561 8.6793C6.58327 8.74418 6.55639 8.81415 6.65074 8.86865C6.99277 9.06612 7.74043 8.40974 8.48346 8.83874C8.84618 9.04821 8.81839 9.30937 8.5468 9.52405Z" fill="white" style="fill:white;fill-opacity:1;"/>
<path d="M5.7429 6.62207L3.16315 8.11148L8.94302 11.4336L11.5155 9.94835L5.7429 6.62207Z" fill="url(#paint12_linear_2125_12329)" style=""/>
<path d="M14.6756 8.05859L13.3467 8.23444L6.55981 12.809C6.55981 13.0124 6.78006 13.1396 6.95625 13.0378L14.6756 8.58106V8.05859Z" fill="url(#paint13_linear_2125_12329)" style=""/>
<path d="M6.5598 12.8099L6.70446 12.7264L3.25371 8.05957L0.0719577 9.89654C-0.034636 9.95807 -0.021261 10.0656 0.101833 10.1366L4.73199 12.8099H6.5598V12.8099Z" fill="url(#paint14_linear_2125_12329)" style=""/>
<path d="M15.9997 7.57396L15.9999 7.57393V6.03809L1.32428 7.97984V9.5148L1.3245 9.51477C1.32415 9.56218 1.35844 9.61224 1.42609 9.6513L6.74731 12.7235C6.8704 12.7946 7.05659 12.8023 7.16319 12.7407L10.2673 10.9486L11.727 10.0237L12.8397 9.46337L15.928 7.68034C15.9772 7.65199 16.0006 7.6138 15.9997 7.57396Z" fill="url(#paint15_linear_2125_12329)" style=""/>
<path d="M15.928 7.5566L7.16315 12.617C7.05656 12.6785 6.87037 12.6708 6.74728 12.5998L1.42609 9.52757C1.35844 9.48851 1.32412 9.43841 1.3245 9.39104L1.32428 9.39107V9.54138L1.3245 9.54135C1.32415 9.58876 1.35844 9.63882 1.42609 9.67788L6.74731 12.7501C6.8704 12.8211 7.05659 12.8289 7.16319 12.7673L10.2673 10.9752L10.3369 10.8453L12.7534 9.46373L12.8397 9.48995L15.9281 7.70691C15.9772 7.67854 16.0006 7.64035 15.9997 7.60051L15.9999 7.60048V7.4502L15.9997 7.45023C16.0005 7.49004 15.9772 7.52823 15.928 7.5566Z" fill="url(#paint16_linear_2125_12329)" style=""/>
<path d="M15.928 7.25878L7.16315 12.3192C7.05656 12.3807 6.87037 12.373 6.74728 12.3019L1.42609 9.22972C1.35844 9.19066 1.32412 9.14059 1.3245 9.09319L1.32428 9.09322V9.24353L1.3245 9.2435C1.32415 9.29091 1.35844 9.34097 1.42609 9.38003L6.74731 12.4523C6.8704 12.5233 7.05659 12.531 7.16319 12.4695L15.9281 7.40909C15.9772 7.38072 16.0006 7.34253 15.9997 7.30269L15.9999 7.30266V7.15234L15.9997 7.15238C16.0005 7.19222 15.9772 7.23041 15.928 7.25878Z" fill="url(#paint17_linear_2125_12329)" style=""/>
<path d="M15.928 6.96386L7.16315 12.0242C7.05656 12.0858 6.87037 12.078 6.74728 12.007L1.42609 8.9348C1.35844 8.89573 1.32412 8.84564 1.3245 8.79827L1.32428 8.7983V8.94861L1.3245 8.94858C1.32415 8.99598 1.35844 9.04605 1.42609 9.08511L6.74731 12.1573C6.8704 12.2284 7.05659 12.2361 7.16319 12.1745L15.9281 7.11414C15.9772 7.08577 16.0006 7.04758 15.9997 7.00773L15.9999 7.0077V6.85742L15.9997 6.85745C16.0005 6.8973 15.9772 6.93545 15.928 6.96386Z" fill="url(#paint18_linear_2125_12329)" style=""/>
<path d="M15.928 6.665L7.16315 11.7254C7.05656 11.7869 6.87037 11.7792 6.74728 11.7082L1.42609 8.63597C1.35844 8.59691 1.32412 8.54684 1.3245 8.49944L1.32428 8.49947V8.64978L1.3245 8.64975C1.32415 8.69716 1.35844 8.74722 1.42609 8.78628L6.74731 11.8585C6.8704 11.9296 7.05659 11.9373 7.16319 11.8758L15.9281 6.81534C15.9772 6.78697 16.0006 6.74878 15.9997 6.70894L15.9999 6.70891V6.55859L15.9997 6.55863C16.0005 6.59844 15.9772 6.63663 15.928 6.665Z" fill="url(#paint19_linear_2125_12329)" style=""/>
<path d="M15.928 6.36031L7.16315 11.4207C7.05656 11.4822 6.87037 11.4745 6.74728 11.4034L1.42609 8.33125C1.35844 8.29219 1.32412 8.24213 1.3245 8.19472L1.32428 8.19475V8.34506L1.3245 8.34503C1.32415 8.39244 1.35844 8.4425 1.42609 8.48156L6.74731 11.5538C6.8704 11.6248 7.05659 11.6326 7.16319 11.571L15.9281 6.51062C15.9772 6.48225 16.0006 6.44406 15.9997 6.40422L15.9999 6.40419V6.25391L15.9997 6.25394C16.0005 6.29375 15.9772 6.33194 15.928 6.36031Z" fill="url(#paint20_linear_2125_12329)" style=""/>
<path d="M1.32428 9.54178L1.3245 9.54175C1.32415 9.58916 1.35844 9.63922 1.42609 9.67828L5.17612 11.8434L6.52944 11.0621L1.85381 7.91016L1.32428 7.98022V9.54178Z" fill="url(#paint21_linear_2125_12329)" style=""/>
<path d="M10.1469 2.85462L1.46521 7.86703C1.35961 7.92799 1.37286 8.03446 1.49477 8.10487L6.76549 11.1479C6.88739 11.2183 7.07183 11.226 7.17742 11.165L15.8591 6.15262C15.9647 6.09165 15.9515 5.98518 15.8296 5.91478L10.5589 2.87171C10.4369 2.80131 10.2525 2.79368 10.1469 2.85462Z" fill="url(#paint22_linear_2125_12329)" style=""/>
<path d="M10.1614 2.81498L7.06739 4.60126L6.08977 5.32876L4.48764 6.09069L1.39648 7.87538C1.28989 7.93691 1.30327 8.04441 1.42633 8.11551L6.74755 11.1877C6.87064 11.2588 7.05683 11.2665 7.16342 11.2049L15.9283 6.14454C16.0349 6.08301 16.0215 5.97551 15.8984 5.90441L10.5772 2.83223C10.4541 2.76116 10.268 2.75344 10.1614 2.81498ZM13.3488 5.39976C12.8861 5.66688 12.9442 6.13348 13.4784 6.44194C13.6703 6.55269 13.8975 6.62782 14.1313 6.66648L8.06745 10.1674C8.00048 10.0324 7.87039 9.90126 7.67855 9.79048C7.1443 9.48201 6.33611 9.44851 5.87342 9.71566C5.70727 9.8116 5.60864 9.93329 5.57473 10.0641L3.37242 8.7926C3.59898 8.77301 3.80977 8.71607 3.97592 8.62016C4.43861 8.35304 4.38058 7.88641 3.84633 7.57798C3.65448 7.46719 3.42727 7.3921 3.19345 7.35344L9.2573 3.85251C9.32427 3.98751 9.45436 4.11869 9.6462 4.22944C10.1805 4.53788 10.9886 4.57141 11.4513 4.30426C11.6175 4.20832 11.7161 4.08663 11.75 3.95582L13.9523 5.22732C13.7258 5.24688 13.515 5.30385 13.3488 5.39976Z" fill="url(#paint23_linear_2125_12329)" style=""/>
<path d="M10.3513 6.01331C9.26223 5.38453 7.6148 5.31625 6.67164 5.86078C5.72848 6.40531 5.84676 7.35647 6.93583 7.98522C8.02489 8.61397 9.67233 8.68228 10.6155 8.13775C11.5586 7.59322 11.4404 6.64206 10.3513 6.01331Z" fill="url(#paint24_linear_2125_12329)" style=""/>
<path d="M10.2673 9.41295V10.9756L12.8398 9.49039V7.92773L11.5536 8.46098L10.2673 9.41295Z" fill="url(#paint25_linear_2125_12329)" style=""/>
<path d="M7.06718 4.60156L4.48743 6.09097L10.2673 9.41306L12.8398 7.92784L7.06718 4.60156Z" fill="url(#paint26_linear_2125_12329)" style=""/>
<path d="M9.87106 7.50355L10.1585 7.66948C10.2598 7.72798 10.2598 7.80002 10.1585 7.85852C10.0803 7.90367 9.88484 7.90367 9.80665 7.85852L9.52849 7.69792C9.40334 7.7503 9.26421 7.7928 9.11868 7.82423C8.86796 7.87836 8.53221 7.8333 8.46524 7.73627L8.46412 7.73464C8.39884 7.64008 8.53362 7.54261 8.79249 7.49823C8.99887 7.46286 9.18203 7.4077 9.29034 7.34517C9.42821 7.26555 9.45609 7.18139 9.34699 7.11839C8.99612 6.9158 8.26615 7.58239 7.5349 7.1602C7.20762 6.97123 7.18484 6.72223 7.44978 6.49777L7.18003 6.34202C7.07874 6.28355 7.07874 6.21148 7.18003 6.15298C7.25821 6.10786 7.45368 6.10786 7.53184 6.15298L7.7864 6.29995C7.84887 6.27202 7.91453 6.24673 7.98218 6.22427C8.21937 6.14555 8.62406 6.18423 8.70231 6.2927C8.76474 6.37927 8.65749 6.46905 8.43653 6.51911C8.26096 6.55886 8.1074 6.6083 8.01987 6.65883C7.90753 6.7237 7.88065 6.79367 7.97503 6.84814C8.31706 7.04561 9.06471 6.38923 9.80774 6.81823C10.1704 7.02767 10.1427 7.28886 9.87106 7.50355Z" fill="white" style="fill:white;fill-opacity:1;"/>
<path d="M15.1877 5.97142L15.188 5.97139V4.43555L0.512329 6.37733V7.9123L0.512548 7.91227C0.512204 7.95967 0.546485 8.00973 0.614142 8.0488L5.93536 11.121C6.05845 11.192 6.24464 11.1998 6.35124 11.1382L9.45533 9.34608L10.9151 8.4212L12.0278 7.86086L15.1161 6.07783C15.1653 6.04945 15.1886 6.01127 15.1877 5.97142Z" fill="url(#paint27_linear_2125_12329)" style=""/>
<path d="M15.1161 5.95409L6.35124 11.0145C6.24464 11.076 6.05845 11.0683 5.93536 10.9972L0.614142 7.92506C0.546485 7.886 0.512173 7.83591 0.512548 7.78853L0.512329 7.78856V7.93887L0.512548 7.93884C0.512204 7.98625 0.546485 8.03631 0.614142 8.07537L5.93536 11.1476C6.05845 11.2186 6.24464 11.2263 6.35124 11.1648L9.45533 9.37266L9.52492 9.24281L11.9414 7.86122L12.0278 7.88744L15.1161 6.10441C15.1653 6.07603 15.1886 6.03784 15.1877 5.998L15.188 5.99797V5.84766L15.1877 5.84769C15.1886 5.88753 15.1653 5.92572 15.1161 5.95409Z" fill="url(#paint28_linear_2125_12329)" style=""/>
<path d="M15.1161 5.65627L6.35124 10.7167C6.24464 10.7782 6.05845 10.7705 5.93536 10.6994L0.614142 7.62721C0.546485 7.58815 0.512173 7.53809 0.512548 7.49068L0.512329 7.49071V7.64102L0.512548 7.64099C0.512204 7.6884 0.546485 7.73846 0.614142 7.77752L5.93536 10.8497C6.05845 10.9208 6.24464 10.9285 6.35124 10.867L15.1161 5.80655C15.1653 5.77818 15.1886 5.73999 15.1877 5.70015L15.188 5.70012V5.5498L15.1877 5.54984C15.1886 5.58971 15.1653 5.6279 15.1161 5.65627Z" fill="url(#paint29_linear_2125_12329)" style=""/>
<path d="M15.1161 5.36132L6.35124 10.4217C6.24464 10.4832 6.05845 10.4755 5.93536 10.4044L0.614142 7.33226C0.546485 7.2932 0.512173 7.2431 0.512548 7.19573L0.512329 7.19576V7.34607L0.512548 7.34604C0.512204 7.39345 0.546485 7.44351 0.614142 7.48257L5.93536 10.5548C6.05845 10.6259 6.24464 10.6336 6.35124 10.572L15.1161 5.51163C15.1653 5.48326 15.1886 5.44507 15.1877 5.40523L15.188 5.4052V5.25488L15.1877 5.25491C15.1886 5.29476 15.1653 5.33291 15.1161 5.36132Z" fill="url(#paint30_linear_2125_12329)" style=""/>
<path d="M15.1161 5.06246L6.35124 10.1229C6.24464 10.1844 6.05845 10.1767 5.93536 10.1056L0.614142 7.03343C0.546485 6.99437 0.512173 6.9443 0.512548 6.8969L0.512329 6.89693V7.04724L0.512548 7.04721C0.512204 7.09462 0.546485 7.14468 0.614142 7.18374L5.93536 10.2559C6.05845 10.327 6.24464 10.3347 6.35124 10.2732L15.1161 5.21277C15.1653 5.1844 15.1886 5.14621 15.1877 5.10637L15.188 5.10634V4.95605L15.1877 4.95609C15.1886 4.99593 15.1653 5.03409 15.1161 5.06246Z" fill="url(#paint31_linear_2125_12329)" style=""/>
<path d="M15.1161 4.7578L6.35124 9.81818C6.24464 9.87971 6.05845 9.87199 5.93536 9.80093L0.614142 6.72874C0.546485 6.68968 0.512173 6.63962 0.512548 6.59221L0.512329 6.59224V6.74255L0.512548 6.74252C0.512204 6.78993 0.546485 6.83999 0.614142 6.87905L5.93536 9.95127C6.05845 10.0223 6.24464 10.0301 6.35124 9.96852L15.1161 4.90812C15.1653 4.87974 15.1886 4.84155 15.1877 4.80171L15.188 4.80168V4.65137L15.1877 4.6514C15.1886 4.69124 15.1653 4.72943 15.1161 4.7578Z" fill="url(#paint32_linear_2125_12329)" style=""/>
<path d="M9.33501 1.2521L0.653256 6.26447C0.547662 6.32544 0.560912 6.43191 0.682818 6.50231L5.95354 9.54538C6.07544 9.61578 6.25988 9.62341 6.36547 9.56247L15.0472 4.55006C15.1528 4.4891 15.1396 4.38263 15.0177 4.31225L9.74691 1.26916C9.62501 1.19878 9.44057 1.19113 9.33501 1.2521Z" fill="url(#paint33_linear_2125_12329)" style=""/>
<path d="M9.34916 1.21244L6.2552 2.99872L5.27757 3.72622L3.67545 4.48815L0.58429 6.27284C0.477696 6.33437 0.491071 6.4419 0.614133 6.51294L5.93535 9.58516C6.05845 9.65622 6.24463 9.66394 6.35123 9.60241L15.1161 4.542C15.2227 4.48047 15.2093 4.37297 15.0862 4.30187L9.76501 1.22969C9.64198 1.15862 9.45579 1.15091 9.34916 1.21244ZM12.5367 3.79722C12.074 4.06434 12.132 4.53094 12.6663 4.83941C12.8581 4.95019 13.0853 5.02528 13.3191 5.06394L7.25532 8.56491C7.18835 8.42991 7.05826 8.29875 6.86642 8.18797C6.33217 7.8795 5.52398 7.846 5.06129 8.11316C4.89513 8.20909 4.79651 8.33078 4.7626 8.46159L2.56026 7.19006C2.78682 7.17047 2.9976 7.11353 3.16376 7.01762C3.62645 6.7505 3.56841 6.28387 3.03416 5.97544C2.84232 5.86465 2.6151 5.78956 2.38129 5.75091L8.44513 2.24997C8.5121 2.38497 8.6422 2.51612 8.83404 2.62691C9.36829 2.93534 10.1765 2.96884 10.6392 2.70172C10.8053 2.60578 10.9039 2.48409 10.9379 2.35328L13.1402 3.62478C12.9136 3.64437 12.7028 3.70131 12.5367 3.79722Z" fill="url(#paint34_linear_2125_12329)" style=""/>
<path d="M9.53934 4.41077C8.45028 3.78199 6.80284 3.71371 5.85969 4.25824C4.91653 4.80277 5.03481 5.75393 6.12388 6.38268C7.21294 7.01143 8.86038 7.07974 9.80353 6.53521C10.7467 5.99068 10.6284 5.03955 9.53934 4.41077Z" fill="url(#paint35_linear_2125_12329)" style=""/>
<path d="M9.45532 7.81041V9.37307L12.0278 7.88785V6.3252L10.7415 6.85845L9.45532 7.81041Z" fill="url(#paint36_linear_2125_12329)" style=""/>
<path d="M6.25523 2.99902L3.67548 4.48843L9.45535 7.81052L12.0278 6.3253L6.25523 2.99902Z" fill="url(#paint37_linear_2125_12329)" style=""/>
<path d="M9.05905 5.90101L9.34648 6.06695C9.44776 6.12545 9.44776 6.19748 9.34648 6.25595C9.2683 6.3011 9.07283 6.3011 8.99467 6.25595L8.71651 6.09535C8.59136 6.14773 8.45223 6.19023 8.3067 6.22166C8.05598 6.27579 7.72023 6.23073 7.65323 6.1337L7.65211 6.13207C7.58683 6.03751 7.72161 5.94004 7.98048 5.89566C8.18686 5.86029 8.37001 5.80513 8.47833 5.7426C8.6162 5.66298 8.64408 5.57882 8.53498 5.51582C8.18411 5.31323 7.45414 5.97982 6.72289 5.55763C6.39561 5.36866 6.37286 5.11966 6.63776 4.8952L6.36801 4.73945C6.26673 4.68098 6.26673 4.60891 6.36801 4.55045C6.4462 4.50532 6.64164 4.50532 6.71983 4.55045L6.97439 4.69741C7.03686 4.66948 7.10251 4.6442 7.17017 4.62173C7.40736 4.54301 7.81205 4.5817 7.8903 4.69016C7.95273 4.77673 7.84548 4.86651 7.62451 4.91657C7.44898 4.95632 7.29539 5.00576 7.20786 5.05629C7.09551 5.12116 7.06864 5.19113 7.16298 5.2456C7.50501 5.44307 8.25267 4.78673 8.9957 5.2157C9.35842 5.42516 9.33067 5.68632 9.05905 5.90101Z" fill="white" style="fill:white;fill-opacity:1;"/>
</g>
<defs>
<linearGradient id="paint0_linear_2125_12329" x1="0.497469" y1="11.4307" x2="5.94469" y2="11.4307" gradientUnits="userSpaceOnUse">
<stop offset="0.0022" stop-color="#236568" style="stop-color:#236568;stop-color:color(display-p3 0.1373 0.3961 0.4078);stop-opacity:1;"/>
<stop offset="0.8472" stop-color="#2F878A" style="stop-color:#2F878A;stop-color:color(display-p3 0.1843 0.5294 0.5412);stop-opacity:1;"/>
<stop offset="1" stop-color="#06DAAE" style="stop-color:#06DAAE;stop-color:color(display-p3 0.0235 0.8549 0.6824);stop-opacity:1;"/>
</linearGradient>
<linearGradient id="paint1_linear_2125_12329" x1="5.44403" y1="12.15" x2="6.06291" y2="12.15" gradientUnits="userSpaceOnUse">
<stop stop-color="#236568" style="stop-color:#236568;stop-color:color(display-p3 0.1373 0.3961 0.4078);stop-opacity:1;"/>
<stop offset="1" stop-color="#2F878A" style="stop-color:#2F878A;stop-color:color(display-p3 0.1843 0.5294 0.5412);stop-opacity:1;"/>
</linearGradient>
<linearGradient id="paint2_linear_2125_12329" x1="5.44403" y1="11.8522" x2="6.06291" y2="11.8522" gradientUnits="userSpaceOnUse">
<stop stop-color="#236568" style="stop-color:#236568;stop-color:color(display-p3 0.1373 0.3961 0.4078);stop-opacity:1;"/>
<stop offset="1" stop-color="#2F878A" style="stop-color:#2F878A;stop-color:color(display-p3 0.1843 0.5294 0.5412);stop-opacity:1;"/>
</linearGradient>
<linearGradient id="paint3_linear_2125_12329" x1="5.44403" y1="11.5573" x2="6.06291" y2="11.5573" gradientUnits="userSpaceOnUse">
<stop stop-color="#236568" style="stop-color:#236568;stop-color:color(display-p3 0.1373 0.3961 0.4078);stop-opacity:1;"/>
<stop offset="1" stop-color="#2F878A" style="stop-color:#2F878A;stop-color:color(display-p3 0.1843 0.5294 0.5412);stop-opacity:1;"/>
</linearGradient>
<linearGradient id="paint4_linear_2125_12329" x1="5.44403" y1="11.2585" x2="6.06291" y2="11.2585" gradientUnits="userSpaceOnUse">
<stop stop-color="#236568" style="stop-color:#236568;stop-color:color(display-p3 0.1373 0.3961 0.4078);stop-opacity:1;"/>
<stop offset="1" stop-color="#2F878A" style="stop-color:#2F878A;stop-color:color(display-p3 0.1843 0.5294 0.5412);stop-opacity:1;"/>
</linearGradient>
<linearGradient id="paint5_linear_2125_12329" x1="5.44403" y1="10.9538" x2="6.06291" y2="10.9538" gradientUnits="userSpaceOnUse">
<stop stop-color="#236568" style="stop-color:#236568;stop-color:color(display-p3 0.1373 0.3961 0.4078);stop-opacity:1;"/>
<stop offset="1" stop-color="#2F878A" style="stop-color:#2F878A;stop-color:color(display-p3 0.1843 0.5294 0.5412);stop-opacity:1;"/>
</linearGradient>
<linearGradient id="paint6_linear_2125_12329" x1="-0.70625" y1="9.72718" x2="7.29734" y2="14.3481" gradientUnits="userSpaceOnUse">
<stop stop-color="#1A4C4E" style="stop-color:#1A4C4E;stop-color:color(display-p3 0.1020 0.2980 0.3059);stop-opacity:1;"/>
<stop offset="1" stop-color="#1A4C4E" stop-opacity="0" style="stop-color:none;stop-opacity:0;"/>
</linearGradient>
<linearGradient id="paint7_linear_2125_12329" x1="3.40408" y1="6.75914" x2="11.6678" y2="11.5302" gradientUnits="userSpaceOnUse">
<stop stop-color="#06DAAE" style="stop-color:#06DAAE;stop-color:color(display-p3 0.0235 0.8549 0.6824);stop-opacity:1;"/>
<stop offset="1" stop-color="#9BF0DF" style="stop-color:#9BF0DF;stop-color:color(display-p3 0.6078 0.9412 0.8745);stop-opacity:1;"/>
</linearGradient>
<linearGradient id="paint8_linear_2125_12329" x1="4.6042" y1="7.45204" x2="14.2691" y2="13.0321" gradientUnits="userSpaceOnUse">
<stop stop-color="#2F878A" style="stop-color:#2F878A;stop-color:color(display-p3 0.1843 0.5294 0.5412);stop-opacity:1;"/>
<stop offset="1" stop-color="#06DAAE" style="stop-color:#06DAAE;stop-color:color(display-p3 0.0235 0.8549 0.6824);stop-opacity:1;"/>
</linearGradient>
<linearGradient id="paint9_linear_2125_12329" x1="4.36952" y1="7.31673" x2="10.4789" y2="10.844" gradientUnits="userSpaceOnUse">
<stop stop-color="#2F878A" style="stop-color:#2F878A;stop-color:color(display-p3 0.1843 0.5294 0.5412);stop-opacity:1;"/>
<stop offset="1" stop-color="#06DAAE" style="stop-color:#06DAAE;stop-color:color(display-p3 0.0235 0.8549 0.6824);stop-opacity:1;"/>
</linearGradient>
<linearGradient id="paint10_linear_2125_12329" x1="10.2292" y1="12.4133" x2="10.2292" y2="7.85946" gradientUnits="userSpaceOnUse">
<stop stop-color="#FFA538" style="stop-color:#FFA538;stop-color:color(display-p3 1.0000 0.6471 0.2196);stop-opacity:1;"/>
<stop offset="1" stop-color="#FFC538" style="stop-color:#FFC538;stop-color:color(display-p3 1.0000 0.7725 0.2196);stop-opacity:1;"/>
</linearGradient>
<linearGradient id="paint11_linear_2125_12329" x1="4.33281" y1="7.2885" x2="7.51175" y2="12.7944" gradientUnits="userSpaceOnUse">
<stop stop-color="#FFC538" style="stop-color:#FFC538;stop-color:color(display-p3 1.0000 0.7725 0.2196);stop-opacity:1;"/>
<stop offset="1" stop-color="#F7E041" style="stop-color:#F7E041;stop-color:color(display-p3 0.9686 0.8784 0.2549);stop-opacity:1;"/>
</linearGradient>
<linearGradient id="paint12_linear_2125_12329" x1="4.33281" y1="7.2885" x2="7.51175" y2="12.7944" gradientUnits="userSpaceOnUse">
<stop stop-color="#FFC538" style="stop-color:#FFC538;stop-color:color(display-p3 1.0000 0.7725 0.2196);stop-opacity:1;"/>
<stop offset="1" stop-color="#F7E041" style="stop-color:#F7E041;stop-color:color(display-p3 0.9686 0.8784 0.2549);stop-opacity:1;"/>
</linearGradient>
<linearGradient id="paint13_linear_2125_12329" x1="10.4597" y1="10.1959" x2="10.905" y2="10.9672" gradientUnits="userSpaceOnUse">
<stop stop-color="#0D2627" style="stop-color:#0D2627;stop-color:color(display-p3 0.0510 0.1490 0.1529);stop-opacity:1;"/>
<stop offset="1" stop-color="#0D2627" stop-opacity="0" style="stop-color:none;stop-opacity:0;"/>
</linearGradient>
<linearGradient id="paint14_linear_2125_12329" x1="1.85346" y1="9.21513" x2="8.44293" y2="13.5897" gradientUnits="userSpaceOnUse">
<stop stop-color="#1A4C4E" style="stop-color:#1A4C4E;stop-color:color(display-p3 0.1020 0.2980 0.3059);stop-opacity:1;"/>
<stop offset="1" stop-color="#1A4C4E" stop-opacity="0" style="stop-color:none;stop-opacity:0;"/>
</linearGradient>
<linearGradient id="paint15_linear_2125_12329" x1="1.82178" y1="9.41021" x2="7.269" y2="9.41021" gradientUnits="userSpaceOnUse">
<stop offset="0.0022" stop-color="#236568" style="stop-color:#236568;stop-color:color(display-p3 0.1373 0.3961 0.4078);stop-opacity:1;"/>
<stop offset="0.8472" stop-color="#2F878A" style="stop-color:#2F878A;stop-color:color(display-p3 0.1843 0.5294 0.5412);stop-opacity:1;"/>
<stop offset="1" stop-color="#06DAAE" style="stop-color:#06DAAE;stop-color:color(display-p3 0.0235 0.8549 0.6824);stop-opacity:1;"/>
</linearGradient>
<linearGradient id="paint16_linear_2125_12329" x1="6.76831" y1="10.1295" x2="7.38715" y2="10.1295" gradientUnits="userSpaceOnUse">
<stop stop-color="#236568" style="stop-color:#236568;stop-color:color(display-p3 0.1373 0.3961 0.4078);stop-opacity:1;"/>
<stop offset="1" stop-color="#2F878A" style="stop-color:#2F878A;stop-color:color(display-p3 0.1843 0.5294 0.5412);stop-opacity:1;"/>
</linearGradient>
<linearGradient id="paint17_linear_2125_12329" x1="6.76831" y1="9.83169" x2="7.38715" y2="9.83169" gradientUnits="userSpaceOnUse">
<stop stop-color="#236568" style="stop-color:#236568;stop-color:color(display-p3 0.1373 0.3961 0.4078);stop-opacity:1;"/>
<stop offset="1" stop-color="#2F878A" style="stop-color:#2F878A;stop-color:color(display-p3 0.1843 0.5294 0.5412);stop-opacity:1;"/>
</linearGradient>
<linearGradient id="paint18_linear_2125_12329" x1="6.76831" y1="9.53677" x2="7.38715" y2="9.53677" gradientUnits="userSpaceOnUse">
<stop stop-color="#236568" style="stop-color:#236568;stop-color:color(display-p3 0.1373 0.3961 0.4078);stop-opacity:1;"/>
<stop offset="1" stop-color="#2F878A" style="stop-color:#2F878A;stop-color:color(display-p3 0.1843 0.5294 0.5412);stop-opacity:1;"/>
</linearGradient>
<linearGradient id="paint19_linear_2125_12329" x1="6.76831" y1="9.23791" x2="7.38715" y2="9.23791" gradientUnits="userSpaceOnUse">
<stop stop-color="#236568" style="stop-color:#236568;stop-color:color(display-p3 0.1373 0.3961 0.4078);stop-opacity:1;"/>
<stop offset="1" stop-color="#2F878A" style="stop-color:#2F878A;stop-color:color(display-p3 0.1843 0.5294 0.5412);stop-opacity:1;"/>
</linearGradient>
<linearGradient id="paint20_linear_2125_12329" x1="6.76831" y1="8.93322" x2="7.38715" y2="8.93322" gradientUnits="userSpaceOnUse">
<stop stop-color="#236568" style="stop-color:#236568;stop-color:color(display-p3 0.1373 0.3961 0.4078);stop-opacity:1;"/>
<stop offset="1" stop-color="#2F878A" style="stop-color:#2F878A;stop-color:color(display-p3 0.1843 0.5294 0.5412);stop-opacity:1;"/>
</linearGradient>
<linearGradient id="paint21_linear_2125_12329" x1="2.14847" y1="9.08781" x2="7.00203" y2="11.89" gradientUnits="userSpaceOnUse">
<stop stop-color="#1A4C4E" style="stop-color:#1A4C4E;stop-color:color(display-p3 0.1020 0.2980 0.3059);stop-opacity:1;"/>
<stop offset="1" stop-color="#1A4C4E" stop-opacity="0" style="stop-color:none;stop-opacity:0;"/>
</linearGradient>
<linearGradient id="paint22_linear_2125_12329" x1="4.72839" y1="4.73865" x2="12.9921" y2="9.50968" gradientUnits="userSpaceOnUse">
<stop stop-color="#06DAAE" style="stop-color:#06DAAE;stop-color:color(display-p3 0.0235 0.8549 0.6824);stop-opacity:1;"/>
<stop offset="1" stop-color="#9BF0DF" style="stop-color:#9BF0DF;stop-color:color(display-p3 0.6078 0.9412 0.8745);stop-opacity:1;"/>
</linearGradient>
<linearGradient id="paint23_linear_2125_12329" x1="5.92848" y1="5.43154" x2="15.5934" y2="11.0116" gradientUnits="userSpaceOnUse">
<stop stop-color="#2F878A" style="stop-color:#2F878A;stop-color:color(display-p3 0.1843 0.5294 0.5412);stop-opacity:1;"/>
<stop offset="1" stop-color="#06DAAE" style="stop-color:#06DAAE;stop-color:color(display-p3 0.0235 0.8549 0.6824);stop-opacity:1;"/>
</linearGradient>
<linearGradient id="paint24_linear_2125_12329" x1="5.6938" y1="5.29622" x2="11.8032" y2="8.8235" gradientUnits="userSpaceOnUse">
<stop stop-color="#2F878A" style="stop-color:#2F878A;stop-color:color(display-p3 0.1843 0.5294 0.5412);stop-opacity:1;"/>
<stop offset="1" stop-color="#06DAAE" style="stop-color:#06DAAE;stop-color:color(display-p3 0.0235 0.8549 0.6824);stop-opacity:1;"/>
</linearGradient>
<linearGradient id="paint25_linear_2125_12329" x1="11.5536" y1="10.3927" x2="11.5536" y2="5.83895" gradientUnits="userSpaceOnUse">
<stop stop-color="#FFA538" style="stop-color:#FFA538;stop-color:color(display-p3 1.0000 0.6471 0.2196);stop-opacity:1;"/>
<stop offset="1" stop-color="#FFC538" style="stop-color:#FFC538;stop-color:color(display-p3 1.0000 0.7725 0.2196);stop-opacity:1;"/>
</linearGradient>
<linearGradient id="paint26_linear_2125_12329" x1="5.65709" y1="5.26841" x2="8.83603" y2="10.7743" gradientUnits="userSpaceOnUse">
<stop stop-color="#FFC538" style="stop-color:#FFC538;stop-color:color(display-p3 1.0000 0.7725 0.2196);stop-opacity:1;"/>
<stop offset="1" stop-color="#F7E041" style="stop-color:#F7E041;stop-color:color(display-p3 0.9686 0.8784 0.2549);stop-opacity:1;"/>
</linearGradient>
<linearGradient id="paint27_linear_2125_12329" x1="1.0098" y1="7.80767" x2="6.45702" y2="7.80767" gradientUnits="userSpaceOnUse">
<stop offset="0.0022" stop-color="#236568" style="stop-color:#236568;stop-color:color(display-p3 0.1373 0.3961 0.4078);stop-opacity:1;"/>
<stop offset="0.8472" stop-color="#2F878A" style="stop-color:#2F878A;stop-color:color(display-p3 0.1843 0.5294 0.5412);stop-opacity:1;"/>
<stop offset="1" stop-color="#06DAAE" style="stop-color:#06DAAE;stop-color:color(display-p3 0.0235 0.8549 0.6824);stop-opacity:1;"/>
</linearGradient>
<linearGradient id="paint28_linear_2125_12329" x1="5.95636" y1="8.527" x2="6.57524" y2="8.527" gradientUnits="userSpaceOnUse">
<stop stop-color="#236568" style="stop-color:#236568;stop-color:color(display-p3 0.1373 0.3961 0.4078);stop-opacity:1;"/>
<stop offset="1" stop-color="#2F878A" style="stop-color:#2F878A;stop-color:color(display-p3 0.1843 0.5294 0.5412);stop-opacity:1;"/>
</linearGradient>
<linearGradient id="paint29_linear_2125_12329" x1="5.95636" y1="8.22918" x2="6.57524" y2="8.22918" gradientUnits="userSpaceOnUse">
<stop stop-color="#236568" style="stop-color:#236568;stop-color:color(display-p3 0.1373 0.3961 0.4078);stop-opacity:1;"/>
<stop offset="1" stop-color="#2F878A" style="stop-color:#2F878A;stop-color:color(display-p3 0.1843 0.5294 0.5412);stop-opacity:1;"/>
</linearGradient>
<linearGradient id="paint30_linear_2125_12329" x1="5.95636" y1="7.93423" x2="6.57524" y2="7.93423" gradientUnits="userSpaceOnUse">
<stop stop-color="#236568" style="stop-color:#236568;stop-color:color(display-p3 0.1373 0.3961 0.4078);stop-opacity:1;"/>
<stop offset="1" stop-color="#2F878A" style="stop-color:#2F878A;stop-color:color(display-p3 0.1843 0.5294 0.5412);stop-opacity:1;"/>
</linearGradient>
<linearGradient id="paint31_linear_2125_12329" x1="5.95636" y1="7.63537" x2="6.57524" y2="7.63537" gradientUnits="userSpaceOnUse">
<stop stop-color="#236568" style="stop-color:#236568;stop-color:color(display-p3 0.1373 0.3961 0.4078);stop-opacity:1;"/>
<stop offset="1" stop-color="#2F878A" style="stop-color:#2F878A;stop-color:color(display-p3 0.1843 0.5294 0.5412);stop-opacity:1;"/>
</linearGradient>
<linearGradient id="paint32_linear_2125_12329" x1="5.95636" y1="7.33071" x2="6.57524" y2="7.33071" gradientUnits="userSpaceOnUse">
<stop stop-color="#236568" style="stop-color:#236568;stop-color:color(display-p3 0.1373 0.3961 0.4078);stop-opacity:1;"/>
<stop offset="1" stop-color="#2F878A" style="stop-color:#2F878A;stop-color:color(display-p3 0.1843 0.5294 0.5412);stop-opacity:1;"/>
</linearGradient>
<linearGradient id="paint33_linear_2125_12329" x1="3.91647" y1="3.1361" x2="12.1802" y2="7.90713" gradientUnits="userSpaceOnUse">
<stop stop-color="#06DAAE" style="stop-color:#06DAAE;stop-color:color(display-p3 0.0235 0.8549 0.6824);stop-opacity:1;"/>
<stop offset="1" stop-color="#9BF0DF" style="stop-color:#9BF0DF;stop-color:color(display-p3 0.6078 0.9412 0.8745);stop-opacity:1;"/>
</linearGradient>
<linearGradient id="paint34_linear_2125_12329" x1="5.11632" y1="3.829" x2="14.7812" y2="9.40903" gradientUnits="userSpaceOnUse">
<stop stop-color="#2F878A" style="stop-color:#2F878A;stop-color:color(display-p3 0.1843 0.5294 0.5412);stop-opacity:1;"/>
<stop offset="1" stop-color="#06DAAE" style="stop-color:#06DAAE;stop-color:color(display-p3 0.0235 0.8549 0.6824);stop-opacity:1;"/>
</linearGradient>
<linearGradient id="paint35_linear_2125_12329" x1="4.88184" y1="3.69368" x2="10.9913" y2="7.22096" gradientUnits="userSpaceOnUse">
<stop stop-color="#2F878A" style="stop-color:#2F878A;stop-color:color(display-p3 0.1843 0.5294 0.5412);stop-opacity:1;"/>
<stop offset="1" stop-color="#06DAAE" style="stop-color:#06DAAE;stop-color:color(display-p3 0.0235 0.8549 0.6824);stop-opacity:1;"/>
</linearGradient>
<linearGradient id="paint36_linear_2125_12329" x1="10.7416" y1="8.79019" x2="10.7416" y2="4.23641" gradientUnits="userSpaceOnUse">
<stop stop-color="#FFA538" style="stop-color:#FFA538;stop-color:color(display-p3 1.0000 0.6471 0.2196);stop-opacity:1;"/>
<stop offset="1" stop-color="#FFC538" style="stop-color:#FFC538;stop-color:color(display-p3 1.0000 0.7725 0.2196);stop-opacity:1;"/>
</linearGradient>
<linearGradient id="paint37_linear_2125_12329" x1="4.84515" y1="3.66661" x2="8.02408" y2="9.17251" gradientUnits="userSpaceOnUse">
<stop stop-color="#FFC538" style="stop-color:#FFC538;stop-color:color(display-p3 1.0000 0.7725 0.2196);stop-opacity:1;"/>
<stop offset="1" stop-color="#F7E041" style="stop-color:#F7E041;stop-color:color(display-p3 0.9686 0.8784 0.2549);stop-opacity:1;"/>
</linearGradient>
<clipPath id="clip0_2125_12329">
<rect width="16" height="16" fill="white" style="fill:white;fill-opacity:1;"/>
</clipPath>
</defs>
</svg>
