<svg width="60" height="60" viewBox="0 0 60 60" fill="none" xmlns="http://www.w3.org/2000/svg">
<g clip-path="url(#clip0_2146_30330)">
<path d="M47.8644 30.4667L46.1515 29.5021L53.7684 15.9766L55.4814 16.9411L47.8644 30.4667Z" fill="url(#paint0_linear_2146_30330)" style=""/>
<path d="M52.7085 21.8651L55.4814 16.9411L53.7684 15.9766L50.4524 21.8651H52.7085Z" fill="url(#paint1_linear_2146_30330)" style=""/>
<path d="M54.6248 20.0093C56.5854 20.0093 58.1749 18.4199 58.1749 16.4593C58.1749 14.4986 56.5854 12.9092 54.6248 12.9092C52.6641 12.9092 51.0747 14.4986 51.0747 16.4593C51.0747 18.4199 52.6641 20.0093 54.6248 20.0093Z" fill="url(#paint2_linear_2146_30330)" style=""/>
<path d="M54.0167 33.1171L48.1617 28.3085V10.084L14.7426 47.6031L21.0959 59.8331L54.5152 40.5384C54.7026 40.3957 54.8296 40.1708 54.8296 39.9019V34.8367C54.8295 34.1708 54.5312 33.5398 54.0167 33.1171Z" fill="url(#paint3_linear_2146_30330)" style=""/>
<path d="M20.5975 52.4121L15.6075 48.3138L47.3455 7.6203L34.4077 0.150185L34.4073 0.150888C33.9894 -0.0804401 33.4488 -0.0539558 32.8578 0.287177L4.22141 16.8205C2.89754 17.5848 1.82434 19.6353 1.82434 21.4005V47.8875C1.82434 48.7337 2.2754 49.5158 3.00793 49.9396L20.2071 59.891C20.7417 60.2003 21.4106 59.8146 21.4106 59.1969V54.1317C21.4105 53.4657 21.1122 52.8348 20.5975 52.4121Z" fill="url(#paint4_linear_2146_30330)" style=""/>
<path d="M45.776 7.74565L17.1396 24.2789C15.8158 25.0432 14.7426 27.0938 14.7426 28.859V46.4042C14.7426 48.1692 15.8158 48.9807 17.1396 48.2164L45.776 31.6831C47.0999 30.9188 48.1731 28.8682 48.1731 27.1031V9.55783C48.173 7.79264 47.0998 6.98135 45.776 7.74565Z" fill="url(#paint5_linear_2146_30330)" style=""/>
<path d="M25.5154 23.7812L18.5983 27.7749V41.3102L25.5154 37.3165V23.7812Z" fill="url(#paint6_linear_2146_30330)" style=""/>
<path d="M18.5983 41.3102L25.5154 23.7812L18.5983 27.7749V41.3102Z" fill="url(#paint7_linear_2146_30330)" style=""/>
<path d="M25.003 25.0762L19.1107 28.4781V40.0154L25.003 36.6134V25.0762Z" fill="#221C36" style="fill:#221C36;fill:color(display-p3 0.1333 0.1098 0.2118);fill-opacity:1;"/>
<path d="M24.6614 25.7402L19.4521 28.7477V39.3511L24.6614 36.3436V25.7402Z" fill="url(#paint8_linear_2146_30330)" style=""/>
<path d="M23.3716 28.5543L20.5712 30.1712C20.3187 30.317 20.114 30.708 20.114 31.0446C20.114 31.3811 20.3186 31.5359 20.5712 31.3902L22.7183 30.1506L21.3339 35.1267C21.1848 35.6628 21.3506 36.0603 21.7108 35.9592C21.9783 35.8841 22.2398 35.547 22.3448 35.1664L23.9492 29.3442C24.0048 29.1426 24.0153 28.9443 23.9758 28.7847C23.8999 28.4777 23.6453 28.3963 23.3716 28.5543Z" fill="#FF4757" style="fill:#FF4757;fill:color(display-p3 1.0000 0.2784 0.3412);fill-opacity:1;"/>
<path d="M21.6038 36.0786C21.4995 36.0786 21.4062 36.0412 21.3333 35.9686C21.166 35.8017 21.1289 35.4766 21.2339 35.099L22.5502 30.3675L20.623 31.4802C20.4797 31.5629 20.3369 31.5716 20.2201 31.5043C20.0868 31.4273 20.0103 31.2599 20.0103 31.0448C20.0103 30.6695 20.2338 30.2463 20.5193 30.0815L23.3199 28.4647C23.49 28.3664 23.6622 28.3455 23.8042 28.406C23.9374 28.4627 24.0341 28.5885 24.0765 28.7599C24.1197 28.9343 24.1099 29.1515 24.0492 29.3718L22.4448 35.1941C22.3275 35.6197 22.0371 35.9755 21.739 36.0592C21.6922 36.0722 21.6471 36.0786 21.6038 36.0786ZM22.7181 30.0468C22.7406 30.0468 22.7631 30.0541 22.7816 30.0686C22.8149 30.0944 22.8293 30.1378 22.8181 30.1785L21.4338 35.1546C21.3517 35.45 21.3697 35.7118 21.48 35.8216C21.5298 35.8713 21.5964 35.8837 21.6828 35.8594C21.9073 35.7963 22.1488 35.4866 22.2447 35.1389L23.8491 29.3167C23.9005 29.1301 23.9098 28.95 23.8751 28.8097C23.8565 28.7342 23.8149 28.636 23.7228 28.5969C23.6426 28.5627 23.5362 28.5794 23.4235 28.6444L20.623 30.2612C20.4034 30.388 20.2179 30.7468 20.2179 31.0447C20.2179 31.1816 20.2575 31.2862 20.324 31.3245C20.3874 31.3611 20.4652 31.3317 20.5193 31.3004L22.6663 30.0608C22.6825 30.0514 22.7003 30.0468 22.7181 30.0468Z" fill="#221C36" style="fill:#221C36;fill:color(display-p3 0.1333 0.1098 0.2118);fill-opacity:1;"/>
<path d="M33.9769 18.8965L27.0598 22.89V36.4254L33.9769 32.4318V18.8965Z" fill="url(#paint9_linear_2146_30330)" style=""/>
<path d="M27.0598 36.4254L33.9769 18.8965L27.0598 22.89V36.4254Z" fill="url(#paint10_linear_2146_30330)" style=""/>
<path d="M33.4646 20.1914L27.5721 23.5934V35.1306L33.4646 31.7286V20.1914Z" fill="#221C36" style="fill:#221C36;fill:color(display-p3 0.1333 0.1098 0.2118);fill-opacity:1;"/>
<path d="M33.123 20.8555L27.9138 23.863V34.4663L33.123 31.4588V20.8555Z" fill="url(#paint11_linear_2146_30330)" style=""/>
<path d="M31.8333 23.6705L29.0328 25.2873C28.7804 25.4331 28.5757 25.8241 28.5757 26.1607C28.5757 26.4973 28.7803 26.6521 29.0328 26.5063L31.1799 25.2667L29.7956 30.2428C29.6464 30.7788 29.8122 31.1765 30.1724 31.0753C30.4399 31.0002 30.7013 30.6632 30.8063 30.2826L32.4108 24.4603C32.4663 24.2588 32.4769 24.0605 32.4374 23.9009C32.3615 23.594 32.107 23.5125 31.8333 23.6705Z" fill="#FF4757" style="fill:#FF4757;fill:color(display-p3 1.0000 0.2784 0.3412);fill-opacity:1;"/>
<path d="M30.0654 31.1948C29.961 31.1948 29.8677 31.1574 29.7948 31.0847C29.6275 30.9178 29.5905 30.5927 29.6955 30.2151L31.0116 25.4836L29.0845 26.5963C28.9412 26.679 28.7983 26.6876 28.6816 26.6204C28.5482 26.5434 28.4717 26.376 28.4717 26.1609C28.4717 25.7856 28.6953 25.3625 28.9807 25.1977L31.7812 23.5809C31.9513 23.4826 32.1234 23.4617 32.2655 23.5222C32.3988 23.5789 32.4954 23.7047 32.5378 23.8761C32.581 24.0505 32.5712 24.2677 32.5105 24.4881L30.9061 30.3103C30.7888 30.7359 30.4987 31.0917 30.2003 31.1755C30.1539 31.1884 30.1088 31.1948 30.0654 31.1948ZM31.1798 25.1631C31.2023 25.1631 31.2248 25.1703 31.2433 25.1849C31.2766 25.2106 31.291 25.2541 31.2797 25.2947L29.8955 30.2708C29.8134 30.5662 29.8314 30.828 29.9416 30.9378C29.9915 30.9875 30.058 30.9999 30.1444 30.9756C30.3689 30.9125 30.6106 30.6028 30.7063 30.255L32.3107 24.4327C32.3623 24.2462 32.3714 24.0662 32.3368 23.9258C32.3181 23.8503 32.2765 23.7521 32.1844 23.713C32.1043 23.6788 31.9979 23.6955 31.8851 23.7604L29.0847 25.3773C28.8651 25.5041 28.6796 25.8629 28.6796 26.1608C28.6796 26.2977 28.7192 26.4023 28.7856 26.4406C28.8489 26.4771 28.9267 26.4479 28.981 26.4165L31.128 25.1769C31.1441 25.1676 31.162 25.1631 31.1798 25.1631Z" fill="#221C36" style="fill:#221C36;fill:color(display-p3 0.1333 0.1098 0.2118);fill-opacity:1;"/>
<path d="M42.4387 14.0107L35.5216 18.0044V31.5398L42.4387 27.5461V14.0107Z" fill="url(#paint12_linear_2146_30330)" style=""/>
<path d="M35.5216 31.5398L42.4387 14.0107L35.5216 18.0044V31.5398Z" fill="url(#paint13_linear_2146_30330)" style=""/>
<path d="M41.9264 15.3057L36.0339 18.7076V30.2448L41.9264 26.8429V15.3057Z" fill="#221C36" style="fill:#221C36;fill:color(display-p3 0.1333 0.1098 0.2118);fill-opacity:1;"/>
<path d="M41.5848 15.9697L36.3756 18.9772V29.5807L41.5848 26.5732V15.9697Z" fill="url(#paint14_linear_2146_30330)" style=""/>
<path d="M40.2949 18.7838L37.4945 20.4006C37.2421 20.5464 37.0374 20.9375 37.0374 21.274C37.0374 21.6106 37.242 21.7654 37.4945 21.6196L39.6416 20.38L38.2573 25.3562C38.1081 25.8923 38.2739 26.2898 38.6341 26.1887C38.9017 26.1135 39.1631 25.7765 39.2681 25.3959L40.8725 19.5737C40.9281 19.3721 40.9386 19.1738 40.8991 19.0142C40.8232 18.7073 40.5687 18.6257 40.2949 18.7838Z" fill="#FF4757" style="fill:#FF4757;fill:color(display-p3 1.0000 0.2784 0.3412);fill-opacity:1;"/>
<path d="M38.5272 26.3081C38.4229 26.3081 38.3297 26.2707 38.2566 26.1979C38.0894 26.031 38.0524 25.706 38.1574 25.3284L39.4736 20.5968L37.5465 21.7095C37.4032 21.7922 37.2603 21.8009 37.1436 21.7337C37.0102 21.6567 36.9337 21.4891 36.9337 21.2742C36.9337 20.8988 37.1573 20.4756 37.4428 20.311L40.2433 18.6942C40.4134 18.596 40.5855 18.575 40.7277 18.6355C40.8609 18.6922 40.9576 18.8179 41 18.9894C41.0431 19.1637 41.0334 19.381 40.9727 19.6013L39.3683 25.4235C39.251 25.8492 38.9606 26.2049 38.6625 26.2887C38.6158 26.3016 38.5706 26.3081 38.5272 26.3081ZM39.6416 20.2764C39.6641 20.2764 39.6866 20.2837 39.7051 20.2982C39.7384 20.324 39.7528 20.3675 39.7414 20.408L38.3572 25.3842C38.275 25.6795 38.2931 25.9414 38.4032 26.0512C38.4532 26.101 38.5197 26.1133 38.6061 26.0889C38.8306 26.0259 39.0723 25.7162 39.168 25.3685L40.7724 19.5462C40.8239 19.3597 40.8331 19.1796 40.7984 19.0393C40.7798 18.9638 40.7382 18.8656 40.6462 18.8265C40.5656 18.7922 40.4595 18.809 40.3468 18.8739L37.5464 20.4908C37.3268 20.6176 37.1413 20.9764 37.1413 21.2743C37.1413 21.4112 37.1809 21.5158 37.2473 21.5541C37.3106 21.5907 37.3884 21.5613 37.4427 21.53L39.5897 20.2904C39.6059 20.281 39.6238 20.2764 39.6416 20.2764Z" fill="#221C36" style="fill:#221C36;fill:color(display-p3 0.1333 0.1098 0.2118);fill-opacity:1;"/>
<path d="M39.3365 11.4639L17.1396 24.2793C15.8158 25.0436 14.7426 27.0941 14.7426 28.8593V46.4045C14.7426 48.1696 15.8158 48.981 17.1396 48.2167L27.0462 42.4971L39.3365 11.4639Z" fill="url(#paint15_linear_2146_30330)" style=""/>
<path d="M45.3903 12.1592V27.7149C45.3903 27.9802 45.2289 28.2885 45.0299 28.4033L17.8856 44.0752C17.6867 44.19 17.5253 44.0682 17.5253 43.8028V28.247C17.5253 27.9817 17.6867 27.6734 17.8856 27.5585L45.0299 11.8867C45.2289 11.7719 45.3903 11.8939 45.3903 12.1592ZM45.776 7.74565L17.1396 24.2789C15.8158 25.0432 14.7426 27.0938 14.7426 28.859V46.4042C14.7426 48.1692 15.8158 48.9807 17.1396 48.2162L45.776 31.683C47.0999 30.9187 48.1731 28.8681 48.1731 27.103V9.55783C48.173 7.79264 47.0999 6.98135 45.776 7.74565Z" fill="url(#paint16_linear_2146_30330)" style=""/>
<path d="M32.3538 17.3319C32.3538 16.672 31.9527 16.3687 31.4578 16.6544C30.9629 16.9401 30.5618 17.7066 30.5618 18.3665C30.5618 19.0264 30.9629 19.3297 31.4578 19.044C31.9527 18.7583 32.3538 17.9917 32.3538 17.3319Z" fill="#F7E041" style="fill:#F7E041;fill:color(display-p3 0.9686 0.8784 0.2549);fill-opacity:1;"/>
<path d="M35.9245 15.2703C35.9245 14.6105 35.5233 14.3072 35.0285 14.5929C34.5336 14.8786 34.1324 15.6451 34.1324 16.305C34.1324 16.9649 34.5336 17.2681 35.0285 16.9824C35.5233 16.6966 35.9245 15.9301 35.9245 15.2703Z" fill="#F7E041" style="fill:#F7E041;fill:color(display-p3 0.9686 0.8784 0.2549);fill-opacity:1;"/>
<path d="M39.3305 14.0438C39.6283 13.3448 39.5492 12.6416 39.1538 12.4731C38.7583 12.3046 38.1963 12.7346 37.8985 13.4336C37.6007 14.1326 37.6798 14.8358 38.0752 15.0043C38.4707 15.1728 39.0327 14.7427 39.3305 14.0438Z" fill="#F7E041" style="fill:#F7E041;fill:color(display-p3 0.9686 0.8784 0.2549);fill-opacity:1;"/>
<path d="M43.0661 11.1473C43.0661 10.4874 42.6649 10.1841 42.1701 10.4698C41.6752 10.7555 41.274 11.5221 41.274 12.1819C41.274 12.8418 41.6752 13.1451 42.1701 12.8594C42.6649 12.5736 43.0661 11.8071 43.0661 11.1473Z" fill="#F7E041" style="fill:#F7E041;fill:color(display-p3 0.9686 0.8784 0.2549);fill-opacity:1;"/>
<path d="M47.0079 9.36604C47.0079 8.70615 46.6067 8.40287 46.1118 8.68857C45.617 8.97428 45.2158 9.7408 45.2158 10.4007C45.2158 11.0606 45.617 11.3638 46.1118 11.0781C46.6066 10.7924 47.0079 10.0259 47.0079 9.36604Z" fill="#F7E041" style="fill:#F7E041;fill:color(display-p3 0.9686 0.8784 0.2549);fill-opacity:1;"/>
<path d="M17.6997 26.2869C17.6997 25.6271 17.2986 25.3238 16.8037 25.6095C16.3088 25.8952 15.9077 26.6617 15.9077 27.3216C15.9077 27.9815 16.3088 28.2847 16.8037 27.999C17.2986 27.7133 17.6997 26.9468 17.6997 26.2869Z" fill="#F7E041" style="fill:#F7E041;fill:color(display-p3 0.9686 0.8784 0.2549);fill-opacity:1;"/>
<path d="M21.6416 23.5164C21.6416 22.8565 21.2405 22.5533 20.7456 22.839C20.2507 23.1247 19.8496 23.8912 19.8496 24.5511C19.8496 25.211 20.2507 25.5142 20.7456 25.2285C21.2405 24.9428 21.6416 24.1763 21.6416 23.5164Z" fill="#F7E041" style="fill:#F7E041;fill:color(display-p3 0.9686 0.8784 0.2549);fill-opacity:1;"/>
<path d="M25.2122 21.4549C25.2122 20.795 24.8111 20.4917 24.3162 20.7775C23.8213 21.0632 23.4202 21.8297 23.4202 22.4896C23.4202 23.1495 23.8213 23.4528 24.3162 23.1671C24.8111 22.8813 25.2122 22.1147 25.2122 21.4549Z" fill="#F7E041" style="fill:#F7E041;fill:color(display-p3 0.9686 0.8784 0.2549);fill-opacity:1;"/>
<path d="M28.7831 19.3934C28.7831 18.7335 28.382 18.4302 27.8871 18.7159C27.3922 19.0016 26.9911 19.7681 26.9911 20.428C26.9911 21.0879 27.3922 21.3912 27.8871 21.1055C28.3819 20.8198 28.7831 20.0533 28.7831 19.3934Z" fill="#F7E041" style="fill:#F7E041;fill:color(display-p3 0.9686 0.8784 0.2549);fill-opacity:1;"/>
<path d="M32.3538 37.5955C32.3538 36.9356 31.9527 36.6323 31.4578 36.9181C30.9629 37.2038 30.5618 37.9704 30.5618 38.6302C30.5618 39.2901 30.9629 39.5934 31.4578 39.3077C31.9527 39.0218 32.3538 38.2552 32.3538 37.5955Z" fill="#F7E041" style="fill:#F7E041;fill:color(display-p3 0.9686 0.8784 0.2549);fill-opacity:1;"/>
<path d="M35.9245 35.534C35.9245 34.8741 35.5233 34.5708 35.0285 34.8565C34.5336 35.1422 34.1324 35.9088 34.1324 36.5687C34.1324 37.2285 34.5336 37.5318 35.0285 37.2461C35.5233 36.9603 35.9245 36.1938 35.9245 35.534Z" fill="#F7E041" style="fill:#F7E041;fill:color(display-p3 0.9686 0.8784 0.2549);fill-opacity:1;"/>
<path d="M39.3273 34.3162C39.6251 33.6172 39.546 32.914 39.1506 32.7455C38.7552 32.577 38.1932 33.0071 37.8953 33.7061C37.5975 34.405 37.6766 35.1083 38.0721 35.2768C38.4675 35.4452 39.0295 35.0152 39.3273 34.3162Z" fill="#F7E041" style="fill:#F7E041;fill:color(display-p3 0.9686 0.8784 0.2549);fill-opacity:1;"/>
<path d="M43.0661 31.411C43.0661 30.7511 42.6649 30.4478 42.1701 30.7335C41.6752 31.0192 41.274 31.7857 41.274 32.4456C41.274 33.1055 41.6752 33.4088 42.1701 33.1231C42.6649 32.8374 43.0661 32.0708 43.0661 31.411Z" fill="#F7E041" style="fill:#F7E041;fill:color(display-p3 0.9686 0.8784 0.2549);fill-opacity:1;"/>
<path d="M47.0079 28.6404C47.0079 27.9806 46.6067 27.6773 46.1118 27.963C45.617 28.2487 45.2158 29.0152 45.2158 29.6751C45.2158 30.335 45.617 30.6383 46.1118 30.3524C46.6066 30.0667 47.0079 29.3002 47.0079 28.6404Z" fill="#F7E041" style="fill:#F7E041;fill:color(display-p3 0.9686 0.8784 0.2549);fill-opacity:1;"/>
<path d="M17.5199 46.407C17.8178 45.7081 17.7386 45.0048 17.3432 44.8363C16.9478 44.6679 16.3858 45.0979 16.088 45.7969C15.7901 46.4959 15.8693 47.1991 16.2647 47.3676C16.6601 47.5361 17.2221 47.106 17.5199 46.407Z" fill="#F7E041" style="fill:#F7E041;fill:color(display-p3 0.9686 0.8784 0.2549);fill-opacity:1;"/>
<path d="M21.6416 43.78C21.6416 43.1202 21.2405 42.8169 20.7456 43.1027C20.2507 43.3884 19.8496 44.1549 19.8496 44.8148C19.8496 45.4747 20.2507 45.778 20.7456 45.4922C21.2405 45.2065 21.6416 44.4399 21.6416 43.78Z" fill="#F7E041" style="fill:#F7E041;fill:color(display-p3 0.9686 0.8784 0.2549);fill-opacity:1;"/>
<path d="M25.2122 41.7185C25.2122 41.0586 24.8111 40.7554 24.3162 41.0412C23.8213 41.3269 23.4202 42.0934 23.4202 42.7533C23.4202 43.4132 23.8213 43.7165 24.3162 43.4308C24.8111 43.1449 25.2122 42.3784 25.2122 41.7185Z" fill="#F7E041" style="fill:#F7E041;fill:color(display-p3 0.9686 0.8784 0.2549);fill-opacity:1;"/>
<path d="M28.7831 39.657C28.7831 38.9971 28.382 38.6938 27.8871 38.9797C27.3922 39.2654 26.9911 40.0319 26.9911 40.6918C26.9911 41.3517 27.3922 41.6549 27.8871 41.3691C28.3819 41.0834 28.7831 40.3169 28.7831 39.657Z" fill="#F7E041" style="fill:#F7E041;fill:color(display-p3 0.9686 0.8784 0.2549);fill-opacity:1;"/>
<path d="M16.7687 32.4373C17.0665 31.7383 16.9874 31.0351 16.592 30.8666C16.1966 30.6981 15.6346 31.1282 15.3367 31.8272C15.0389 32.5261 15.118 33.2294 15.5135 33.3978C15.9089 33.5663 16.4709 33.1363 16.7687 32.4373Z" fill="#F7E041" style="fill:#F7E041;fill:color(display-p3 0.9686 0.8784 0.2549);fill-opacity:1;"/>
<path d="M16.0507 38.0713C16.5456 37.7856 16.9467 37.019 16.9467 36.3592C16.9467 35.6993 16.5456 35.396 16.0507 35.6818C15.5558 35.9675 15.1547 36.734 15.1547 37.3939C15.1545 38.0537 15.5558 38.357 16.0507 38.0713Z" fill="#F7E041" style="fill:#F7E041;fill:color(display-p3 0.9686 0.8784 0.2549);fill-opacity:1;"/>
<path d="M16.0507 42.8321C16.5456 42.5463 16.9467 41.7798 16.9467 41.1199C16.9467 40.4601 16.5456 40.1568 16.0507 40.4425C15.5558 40.7282 15.1547 41.4947 15.1547 42.1546C15.1545 42.8145 15.5558 43.1178 16.0507 42.8321Z" fill="#F7E041" style="fill:#F7E041;fill:color(display-p3 0.9686 0.8784 0.2549);fill-opacity:1;"/>
<path d="M46.8095 15.5518C47.3044 15.2661 47.7055 14.4996 47.7055 13.8397C47.7055 13.1798 47.3044 12.8765 46.8095 13.1622C46.3146 13.4479 45.9135 14.2144 45.9135 14.8743C45.9135 15.5342 46.3146 15.8375 46.8095 15.5518Z" fill="#F7E041" style="fill:#F7E041;fill:color(display-p3 0.9686 0.8784 0.2549);fill-opacity:1;"/>
<path d="M46.8095 20.3125C47.3044 20.0268 47.7055 19.2603 47.7055 18.6004C47.7055 17.9405 47.3044 17.6372 46.8095 17.9229C46.3146 18.2087 45.9135 18.9752 45.9135 19.6351C45.9135 20.2949 46.3146 20.5982 46.8095 20.3125Z" fill="#F7E041" style="fill:#F7E041;fill:color(display-p3 0.9686 0.8784 0.2549);fill-opacity:1;"/>
<path d="M47.5429 24.2029C47.8407 23.504 47.7616 22.8007 47.3662 22.6322C46.9707 22.4638 46.4087 22.8938 46.1109 23.5928C45.8131 24.2918 45.8922 24.995 46.2876 25.1635C46.6831 25.332 47.2451 24.9019 47.5429 24.2029Z" fill="#F7E041" style="fill:#F7E041;fill:color(display-p3 0.9686 0.8784 0.2549);fill-opacity:1;"/>
<path d="M17.8857 44.0754L45.0301 28.4036C45.2291 28.2888 45.3904 27.9804 45.3904 27.7151V12.1594C45.3904 11.894 45.229 11.7721 45.0301 11.887L43.7495 12.6263V27.3844C43.7495 27.6497 43.5882 27.9579 43.3891 28.0729L17.5255 43.0054V43.803C17.5255 44.0684 17.6868 44.1904 17.8857 44.0754Z" fill="url(#paint17_linear_2146_30330)" style=""/>
<path d="M23.0341 45.8966L20.1907 47.5487C19.9855 47.6679 19.9623 47.9552 20.1457 48.1058L22.5936 50.1163C22.8172 50.2999 23.1313 50.3252 23.3815 50.1799L26.225 48.5279C26.4302 48.4087 26.4534 48.1214 26.27 47.9708L23.822 45.9602C23.5984 45.7766 23.2842 45.7511 23.0341 45.8966Z" fill="#F7E041" style="fill:#F7E041;fill:color(display-p3 0.9686 0.8784 0.2549);fill-opacity:1;"/>
<path d="M27.6053 43.2588L24.7619 44.9109C24.5567 45.0301 24.5335 45.3175 24.7169 45.4682L27.1648 47.4786C27.3884 47.6623 27.7025 47.6876 27.9527 47.5423L30.7962 45.8903C31.0014 45.7711 31.0246 45.4838 30.8412 45.333L28.3932 43.3225C28.1696 43.1388 27.8554 43.1135 27.6053 43.2588Z" fill="#F7E041" style="fill:#F7E041;fill:color(display-p3 0.9686 0.8784 0.2549);fill-opacity:1;"/>
<path d="M32.1762 40.6222L29.3328 42.2743C29.1276 42.3935 29.1044 42.6808 29.2878 42.8314L31.7357 44.8419C31.9593 45.0255 32.2734 45.0508 32.5236 44.9055L35.3671 43.2535C35.5723 43.1343 35.5955 42.847 35.4121 42.6963L32.9641 40.6857C32.7405 40.5022 32.4263 40.4767 32.1762 40.6222Z" fill="#F7E041" style="fill:#F7E041;fill:color(display-p3 0.9686 0.8784 0.2549);fill-opacity:1;"/>
<path d="M46.6756 32.2081L43.8322 33.8602C43.627 33.9793 43.6038 34.2667 43.7872 34.4173L46.2351 36.4277C46.4587 36.6114 46.7728 36.6367 47.023 36.4914L49.8665 34.8394C50.0717 34.7202 50.0949 34.4329 49.9115 34.2822L47.4635 32.2716C47.2399 32.0881 46.9257 32.0627 46.6756 32.2081Z" fill="#E9E5F6" style="fill:#E9E5F6;fill:color(display-p3 0.9137 0.8980 0.9647);fill-opacity:1;"/>
</g>
<defs>
<linearGradient id="paint0_linear_2146_30330" x1="45.7366" y1="29.158" x2="55.9081" y2="17.3151" gradientUnits="userSpaceOnUse">
<stop stop-color="#C9BAEC" style="stop-color:#C9BAEC;stop-color:color(display-p3 0.7882 0.7294 0.9255);stop-opacity:1;"/>
<stop offset="1" stop-color="#F3EEFA" style="stop-color:#F3EEFA;stop-color:color(display-p3 0.9529 0.9333 0.9804);stop-opacity:1;"/>
</linearGradient>
<linearGradient id="paint1_linear_2146_30330" x1="54.2374" y1="16.8879" x2="51.5291" y2="22.2493" gradientUnits="userSpaceOnUse">
<stop stop-color="#7662BD" style="stop-color:#7662BD;stop-color:color(display-p3 0.4627 0.3843 0.7412);stop-opacity:1;"/>
<stop offset="1" stop-color="#7662BD" stop-opacity="0" style="stop-color:none;stop-opacity:0;"/>
</linearGradient>
<linearGradient id="paint2_linear_2146_30330" x1="56.3495" y1="21.3644" x2="53.531" y2="13.3346" gradientUnits="userSpaceOnUse">
<stop stop-color="#63141A" style="stop-color:#63141A;stop-color:color(display-p3 0.3882 0.0784 0.1020);stop-opacity:1;"/>
<stop offset="0.2842" stop-color="#981F28" style="stop-color:#981F28;stop-color:color(display-p3 0.5961 0.1216 0.1569);stop-opacity:1;"/>
<stop offset="0.5147" stop-color="#C62834" style="stop-color:#C62834;stop-color:color(display-p3 0.7765 0.1569 0.2039);stop-opacity:1;"/>
<stop offset="0.9681" stop-color="#FB4355" style="stop-color:#FB4355;stop-color:color(display-p3 0.9843 0.2627 0.3333);stop-opacity:1;"/>
<stop offset="1" stop-color="#FF4557" style="stop-color:#FF4557;stop-color:color(display-p3 1.0000 0.2706 0.3412);stop-opacity:1;"/>
</linearGradient>
<linearGradient id="paint3_linear_2146_30330" x1="39.6212" y1="43.6057" x2="38.9451" y2="42.4345" gradientUnits="userSpaceOnUse">
<stop stop-color="#59171D" style="stop-color:#59171D;stop-color:color(display-p3 0.3490 0.0902 0.1137);stop-opacity:1;"/>
<stop offset="0.1229" stop-color="#641A21" style="stop-color:#641A21;stop-color:color(display-p3 0.3922 0.1020 0.1294);stop-opacity:1;"/>
<stop offset="0.7108" stop-color="#972731" style="stop-color:#972731;stop-color:color(display-p3 0.5922 0.1529 0.1922);stop-opacity:1;"/>
<stop offset="1" stop-color="#AB2C37" style="stop-color:#AB2C37;stop-color:color(display-p3 0.6706 0.1725 0.2157);stop-opacity:1;"/>
</linearGradient>
<linearGradient id="paint4_linear_2146_30330" x1="17.882" y1="28.8268" x2="19.902" y2="25.3278" gradientUnits="userSpaceOnUse">
<stop stop-color="#AB2C37" style="stop-color:#AB2C37;stop-color:color(display-p3 0.6706 0.1725 0.2157);stop-opacity:1;"/>
<stop offset="0.1412" stop-color="#B8303C" style="stop-color:#B8303C;stop-color:color(display-p3 0.7216 0.1882 0.2353);stop-opacity:1;"/>
<stop offset="0.7169" stop-color="#EB414F" style="stop-color:#EB414F;stop-color:color(display-p3 0.9216 0.2549 0.3098);stop-opacity:1;"/>
<stop offset="1" stop-color="#FF4757" style="stop-color:#FF4757;stop-color:color(display-p3 1.0000 0.2784 0.3412);stop-opacity:1;"/>
</linearGradient>
<linearGradient id="paint5_linear_2146_30330" x1="31.4578" y1="18.5752" x2="41.7561" y2="36.4119" gradientUnits="userSpaceOnUse">
<stop stop-color="#AB2C37" style="stop-color:#AB2C37;stop-color:color(display-p3 0.6706 0.1725 0.2157);stop-opacity:1;"/>
<stop offset="0.2831" stop-color="#BF323F" style="stop-color:#BF323F;stop-color:color(display-p3 0.7490 0.1961 0.2471);stop-opacity:1;"/>
<stop offset="0.8588" stop-color="#F24352" style="stop-color:#F24352;stop-color:color(display-p3 0.9490 0.2627 0.3216);stop-opacity:1;"/>
<stop offset="1" stop-color="#FF4757" style="stop-color:#FF4757;stop-color:color(display-p3 1.0000 0.2784 0.3412);stop-opacity:1;"/>
</linearGradient>
<linearGradient id="paint6_linear_2146_30330" x1="22.0569" y1="39.7935" x2="17.8023" y2="32.4244" gradientUnits="userSpaceOnUse">
<stop stop-color="#59171D" style="stop-color:#59171D;stop-color:color(display-p3 0.3490 0.0902 0.1137);stop-opacity:1;"/>
<stop offset="0.1229" stop-color="#641A21" style="stop-color:#641A21;stop-color:color(display-p3 0.3922 0.1020 0.1294);stop-opacity:1;"/>
<stop offset="0.7108" stop-color="#972731" style="stop-color:#972731;stop-color:color(display-p3 0.5922 0.1529 0.1922);stop-opacity:1;"/>
<stop offset="1" stop-color="#AB2C37" style="stop-color:#AB2C37;stop-color:color(display-p3 0.6706 0.1725 0.2157);stop-opacity:1;"/>
</linearGradient>
<linearGradient id="paint7_linear_2146_30330" x1="22.0569" y1="25.5284" x2="23.37" y2="27.8026" gradientUnits="userSpaceOnUse">
<stop stop-color="#59171D" style="stop-color:#59171D;stop-color:color(display-p3 0.3490 0.0902 0.1137);stop-opacity:1;"/>
<stop offset="0.1229" stop-color="#641A21" style="stop-color:#641A21;stop-color:color(display-p3 0.3922 0.1020 0.1294);stop-opacity:1;"/>
<stop offset="0.7108" stop-color="#972731" style="stop-color:#972731;stop-color:color(display-p3 0.5922 0.1529 0.1922);stop-opacity:1;"/>
<stop offset="1" stop-color="#AB2C37" style="stop-color:#AB2C37;stop-color:color(display-p3 0.6706 0.1725 0.2157);stop-opacity:1;"/>
</linearGradient>
<linearGradient id="paint8_linear_2146_30330" x1="22.0569" y1="37.8572" x2="17.4642" y2="29.9026" gradientUnits="userSpaceOnUse">
<stop stop-color="#FFC538" style="stop-color:#FFC538;stop-color:color(display-p3 1.0000 0.7725 0.2196);stop-opacity:1;"/>
<stop offset="0.1017" stop-color="#FFCC4C" style="stop-color:#FFCC4C;stop-color:color(display-p3 1.0000 0.8000 0.2980);stop-opacity:1;"/>
<stop offset="0.3081" stop-color="#FDDF7F" style="stop-color:#FDDF7F;stop-color:color(display-p3 0.9922 0.8745 0.4980);stop-opacity:1;"/>
<stop offset="0.5" stop-color="#FCF3B3" style="stop-color:#FCF3B3;stop-color:color(display-p3 0.9882 0.9529 0.7020);stop-opacity:1;"/>
<stop offset="0.6192" stop-color="#FCF2B0" style="stop-color:#FCF2B0;stop-color:color(display-p3 0.9882 0.9490 0.6902);stop-opacity:1;"/>
<stop offset="0.7069" stop-color="#FCEEA7" style="stop-color:#FCEEA7;stop-color:color(display-p3 0.9882 0.9333 0.6549);stop-opacity:1;"/>
<stop offset="0.7844" stop-color="#FDE897" style="stop-color:#FDE897;stop-color:color(display-p3 0.9922 0.9098 0.5922);stop-opacity:1;"/>
<stop offset="0.8561" stop-color="#FDE080" style="stop-color:#FDE080;stop-color:color(display-p3 0.9922 0.8784 0.5020);stop-opacity:1;"/>
<stop offset="0.9238" stop-color="#FED563" style="stop-color:#FED563;stop-color:color(display-p3 0.9961 0.8353 0.3882);stop-opacity:1;"/>
<stop offset="0.9876" stop-color="#FFC840" style="stop-color:#FFC840;stop-color:color(display-p3 1.0000 0.7843 0.2510);stop-opacity:1;"/>
<stop offset="1" stop-color="#FFC538" style="stop-color:#FFC538;stop-color:color(display-p3 1.0000 0.7725 0.2196);stop-opacity:1;"/>
</linearGradient>
<linearGradient id="paint9_linear_2146_30330" x1="30.5184" y1="34.9087" x2="26.2638" y2="27.5397" gradientUnits="userSpaceOnUse">
<stop stop-color="#59171D" style="stop-color:#59171D;stop-color:color(display-p3 0.3490 0.0902 0.1137);stop-opacity:1;"/>
<stop offset="0.1229" stop-color="#641A21" style="stop-color:#641A21;stop-color:color(display-p3 0.3922 0.1020 0.1294);stop-opacity:1;"/>
<stop offset="0.7108" stop-color="#972731" style="stop-color:#972731;stop-color:color(display-p3 0.5922 0.1529 0.1922);stop-opacity:1;"/>
<stop offset="1" stop-color="#AB2C37" style="stop-color:#AB2C37;stop-color:color(display-p3 0.6706 0.1725 0.2157);stop-opacity:1;"/>
</linearGradient>
<linearGradient id="paint10_linear_2146_30330" x1="30.5184" y1="20.6436" x2="31.8315" y2="22.9179" gradientUnits="userSpaceOnUse">
<stop stop-color="#59171D" style="stop-color:#59171D;stop-color:color(display-p3 0.3490 0.0902 0.1137);stop-opacity:1;"/>
<stop offset="0.1229" stop-color="#641A21" style="stop-color:#641A21;stop-color:color(display-p3 0.3922 0.1020 0.1294);stop-opacity:1;"/>
<stop offset="0.7108" stop-color="#972731" style="stop-color:#972731;stop-color:color(display-p3 0.5922 0.1529 0.1922);stop-opacity:1;"/>
<stop offset="1" stop-color="#AB2C37" style="stop-color:#AB2C37;stop-color:color(display-p3 0.6706 0.1725 0.2157);stop-opacity:1;"/>
</linearGradient>
<linearGradient id="paint11_linear_2146_30330" x1="30.5185" y1="32.9725" x2="25.9258" y2="25.0179" gradientUnits="userSpaceOnUse">
<stop stop-color="#FFC538" style="stop-color:#FFC538;stop-color:color(display-p3 1.0000 0.7725 0.2196);stop-opacity:1;"/>
<stop offset="0.1017" stop-color="#FFCC4C" style="stop-color:#FFCC4C;stop-color:color(display-p3 1.0000 0.8000 0.2980);stop-opacity:1;"/>
<stop offset="0.3081" stop-color="#FDDF7F" style="stop-color:#FDDF7F;stop-color:color(display-p3 0.9922 0.8745 0.4980);stop-opacity:1;"/>
<stop offset="0.5" stop-color="#FCF3B3" style="stop-color:#FCF3B3;stop-color:color(display-p3 0.9882 0.9529 0.7020);stop-opacity:1;"/>
<stop offset="0.6192" stop-color="#FCF2B0" style="stop-color:#FCF2B0;stop-color:color(display-p3 0.9882 0.9490 0.6902);stop-opacity:1;"/>
<stop offset="0.7069" stop-color="#FCEEA7" style="stop-color:#FCEEA7;stop-color:color(display-p3 0.9882 0.9333 0.6549);stop-opacity:1;"/>
<stop offset="0.7844" stop-color="#FDE897" style="stop-color:#FDE897;stop-color:color(display-p3 0.9922 0.9098 0.5922);stop-opacity:1;"/>
<stop offset="0.8561" stop-color="#FDE080" style="stop-color:#FDE080;stop-color:color(display-p3 0.9922 0.8784 0.5020);stop-opacity:1;"/>
<stop offset="0.9238" stop-color="#FED563" style="stop-color:#FED563;stop-color:color(display-p3 0.9961 0.8353 0.3882);stop-opacity:1;"/>
<stop offset="0.9876" stop-color="#FFC840" style="stop-color:#FFC840;stop-color:color(display-p3 1.0000 0.7843 0.2510);stop-opacity:1;"/>
<stop offset="1" stop-color="#FFC538" style="stop-color:#FFC538;stop-color:color(display-p3 1.0000 0.7725 0.2196);stop-opacity:1;"/>
</linearGradient>
<linearGradient id="paint12_linear_2146_30330" x1="38.9802" y1="30.0229" x2="34.7256" y2="22.654" gradientUnits="userSpaceOnUse">
<stop stop-color="#59171D" style="stop-color:#59171D;stop-color:color(display-p3 0.3490 0.0902 0.1137);stop-opacity:1;"/>
<stop offset="0.1229" stop-color="#641A21" style="stop-color:#641A21;stop-color:color(display-p3 0.3922 0.1020 0.1294);stop-opacity:1;"/>
<stop offset="0.7108" stop-color="#972731" style="stop-color:#972731;stop-color:color(display-p3 0.5922 0.1529 0.1922);stop-opacity:1;"/>
<stop offset="1" stop-color="#AB2C37" style="stop-color:#AB2C37;stop-color:color(display-p3 0.6706 0.1725 0.2157);stop-opacity:1;"/>
</linearGradient>
<linearGradient id="paint13_linear_2146_30330" x1="38.9802" y1="15.758" x2="40.2933" y2="18.0322" gradientUnits="userSpaceOnUse">
<stop stop-color="#59171D" style="stop-color:#59171D;stop-color:color(display-p3 0.3490 0.0902 0.1137);stop-opacity:1;"/>
<stop offset="0.1229" stop-color="#641A21" style="stop-color:#641A21;stop-color:color(display-p3 0.3922 0.1020 0.1294);stop-opacity:1;"/>
<stop offset="0.7108" stop-color="#972731" style="stop-color:#972731;stop-color:color(display-p3 0.5922 0.1529 0.1922);stop-opacity:1;"/>
<stop offset="1" stop-color="#AB2C37" style="stop-color:#AB2C37;stop-color:color(display-p3 0.6706 0.1725 0.2157);stop-opacity:1;"/>
</linearGradient>
<linearGradient id="paint14_linear_2146_30330" x1="38.9803" y1="28.0868" x2="34.3876" y2="20.1322" gradientUnits="userSpaceOnUse">
<stop stop-color="#FFC538" style="stop-color:#FFC538;stop-color:color(display-p3 1.0000 0.7725 0.2196);stop-opacity:1;"/>
<stop offset="0.1017" stop-color="#FFCC4C" style="stop-color:#FFCC4C;stop-color:color(display-p3 1.0000 0.8000 0.2980);stop-opacity:1;"/>
<stop offset="0.3081" stop-color="#FDDF7F" style="stop-color:#FDDF7F;stop-color:color(display-p3 0.9922 0.8745 0.4980);stop-opacity:1;"/>
<stop offset="0.5" stop-color="#FCF3B3" style="stop-color:#FCF3B3;stop-color:color(display-p3 0.9882 0.9529 0.7020);stop-opacity:1;"/>
<stop offset="0.6192" stop-color="#FCF2B0" style="stop-color:#FCF2B0;stop-color:color(display-p3 0.9882 0.9490 0.6902);stop-opacity:1;"/>
<stop offset="0.7069" stop-color="#FCEEA7" style="stop-color:#FCEEA7;stop-color:color(display-p3 0.9882 0.9333 0.6549);stop-opacity:1;"/>
<stop offset="0.7844" stop-color="#FDE897" style="stop-color:#FDE897;stop-color:color(display-p3 0.9922 0.9098 0.5922);stop-opacity:1;"/>
<stop offset="0.8561" stop-color="#FDE080" style="stop-color:#FDE080;stop-color:color(display-p3 0.9922 0.8784 0.5020);stop-opacity:1;"/>
<stop offset="0.9238" stop-color="#FED563" style="stop-color:#FED563;stop-color:color(display-p3 0.9961 0.8353 0.3882);stop-opacity:1;"/>
<stop offset="0.9876" stop-color="#FFC840" style="stop-color:#FFC840;stop-color:color(display-p3 1.0000 0.7843 0.2510);stop-opacity:1;"/>
<stop offset="1" stop-color="#FFC538" style="stop-color:#FFC538;stop-color:color(display-p3 1.0000 0.7725 0.2196);stop-opacity:1;"/>
</linearGradient>
<linearGradient id="paint15_linear_2146_30330" x1="39.9238" y1="31.8241" x2="22.8117" y2="29.2457" gradientUnits="userSpaceOnUse">
<stop stop-color="white" style="stop-color:white;stop-opacity:1;"/>
<stop offset="1" stop-color="white" stop-opacity="0" style="stop-color:none;stop-opacity:0;"/>
</linearGradient>
<linearGradient id="paint16_linear_2146_30330" x1="31.4578" y1="41.505" x2="20.456" y2="22.4498" gradientUnits="userSpaceOnUse">
<stop stop-color="#FF4757" style="stop-color:#FF4757;stop-color:color(display-p3 1.0000 0.2784 0.3412);stop-opacity:1;"/>
<stop offset="0.563" stop-color="#FF6673" style="stop-color:#FF6673;stop-color:color(display-p3 1.0000 0.4000 0.4510);stop-opacity:1;"/>
<stop offset="1" stop-color="#FF7A85" style="stop-color:#FF7A85;stop-color:color(display-p3 1.0000 0.4784 0.5216);stop-opacity:1;"/>
</linearGradient>
<linearGradient id="paint17_linear_2146_30330" x1="38.207" y1="23.7803" x2="37.1803" y2="25.5587" gradientUnits="userSpaceOnUse">
<stop stop-color="#59171D" style="stop-color:#59171D;stop-color:color(display-p3 0.3490 0.0902 0.1137);stop-opacity:1;"/>
<stop offset="0.1229" stop-color="#641A21" style="stop-color:#641A21;stop-color:color(display-p3 0.3922 0.1020 0.1294);stop-opacity:1;"/>
<stop offset="0.7108" stop-color="#972731" style="stop-color:#972731;stop-color:color(display-p3 0.5922 0.1529 0.1922);stop-opacity:1;"/>
<stop offset="1" stop-color="#AB2C37" style="stop-color:#AB2C37;stop-color:color(display-p3 0.6706 0.1725 0.2157);stop-opacity:1;"/>
</linearGradient>
<clipPath id="clip0_2146_30330">
<rect width="60" height="60" fill="white" style="fill:white;fill-opacity:1;"/>
</clipPath>
</defs>
</svg>
