<svg width="60" height="60" viewBox="0 0 60 60" fill="none" xmlns="http://www.w3.org/2000/svg">
<g clip-path="url(#clip0_2146_30354)">
<path d="M42.7521 5.60587L41.3933 12.8839C40.8923 15.358 42.4922 17.7695 44.9662 18.2704C45.0339 18.2842 45.1016 18.2962 45.1691 18.3069C47.5516 18.68 49.7878 17.037 50.2619 14.6724L51.7114 7.41958C51.8763 6.60513 51.8135 5.79701 51.5668 5.06212C51.0641 3.56458 49.7982 2.36904 48.1386 2.03318C45.6646 1.53232 43.253 3.13181 42.7521 5.60587Z" fill="url(#paint0_linear_2146_30354)" style=""/>
<path d="M49.8713 14.0469L51.1291 7.85937C51.2786 7.11277 51.2195 6.3725 50.9921 5.69949C50.5286 4.32828 49.3664 3.23527 47.8452 2.93059C47.7002 2.90152 47.5554 2.88078 47.4113 2.86719C48.4613 3.35621 49.2488 4.25434 49.6102 5.32355C49.8377 5.99656 49.8967 6.73672 49.7472 7.48332L48.4894 13.6708C48.0754 15.7577 46.163 17.2297 44.0723 17.0355C44.3709 17.1752 44.6881 17.2858 45.0256 17.3534C45.0877 17.3659 45.1497 17.3769 45.2116 17.3864C47.3955 17.7241 49.4412 16.2144 49.8713 14.0469Z" fill="url(#paint1_linear_2146_30354)" style=""/>
<path d="M3.09554 4.0774L4.68671 7.59279C4.93597 8.1369 5.57921 8.37584 6.12331 8.12658C6.1382 8.11979 6.15284 8.11264 6.16726 8.10526C6.67597 7.84428 6.8753 7.21721 6.63624 6.69783L5.06605 3.17459C4.98402 2.99541 4.85921 2.8494 4.70933 2.74287C4.40394 2.52596 3.99448 2.47358 3.62945 2.64069C3.08534 2.89018 2.84628 3.5333 3.09554 4.0774Z" fill="url(#paint2_linear_2146_30354)" style=""/>
<path d="M33.884 41.4452L38.1447 49.3441C39.5563 52.0589 42.9015 53.1149 45.6163 51.7034C45.6906 51.6649 45.7636 51.6247 45.8354 51.5833C48.3667 50.1209 49.2244 46.8685 47.8711 44.2773L43.715 36.3331C43.2504 35.4393 42.5757 34.7251 41.7834 34.2199C40.1689 33.1903 38.0646 33.0268 36.2436 33.9737C33.5287 35.3855 32.4724 38.7305 33.884 41.4452Z" fill="url(#paint3_linear_2146_30354)" style=""/>
<path d="M47.0756 45.129L43.1887 37.0407C42.8556 36.3561 42.3602 35.8027 41.7716 35.4051C40.5723 34.5947 38.9856 34.429 37.5906 35.1078C37.4576 35.1725 37.3298 35.2438 37.2069 35.3203C38.3386 35.0735 39.5092 35.3111 40.4443 35.943C41.0328 36.3407 41.5283 36.894 41.8615 37.5786L45.7484 45.6669C46.6828 47.5782 46.0527 49.9078 44.2716 51.0195C44.5937 50.9499 44.9132 50.8457 45.2228 50.6952C45.2797 50.6674 45.3356 50.6387 45.3907 50.6088C47.3327 49.5545 48.0462 47.1141 47.0756 45.129Z" fill="url(#paint4_linear_2146_30354)" style=""/>
<path d="M42.8764 35.1359C42.5495 34.7804 42.1813 34.4736 41.7832 34.2199C40.1687 33.1903 38.0644 33.0268 36.2434 33.9737C33.5287 35.3854 32.4724 38.7304 33.884 41.4452L35.6374 44.6956C40.943 42.9219 42.5941 36.444 42.8764 35.1359Z" fill="url(#paint5_linear_2146_30354)" style=""/>
<path d="M3.43116 13.1548L6.49772 19.6627C7.59412 22.0561 10.4234 23.1072 12.8167 22.0106C12.8822 21.9806 12.9467 21.9493 13.0101 21.9168C15.248 20.7687 16.1246 18.0107 15.0728 15.726L12.0981 9.18376C11.7372 8.39579 11.188 7.75313 10.5289 7.28497C9.18565 6.33095 7.38448 6.1002 5.77901 6.83579C3.38592 7.93231 2.33463 10.7615 3.43116 13.1548Z" fill="url(#paint6_linear_2146_30354)" style=""/>
<path d="M14.3704 15.5673L11.757 9.81945C11.4399 9.12722 10.9576 8.56261 10.3784 8.15128C9.19834 7.31316 7.61584 7.11043 6.20549 7.7566C6.07096 7.81824 5.94158 7.88644 5.81689 7.96004C6.95408 7.73961 8.11881 8.00457 9.03896 8.65812C9.61811 9.06945 10.1004 9.63406 10.4177 10.3263L13.0311 16.0741C13.9208 18.0068 13.2365 20.3209 11.4298 21.3909C11.7535 21.3288 12.0753 21.2321 12.3883 21.0887C12.4458 21.0623 12.5024 21.0348 12.5582 21.0062C14.5243 19.9975 15.2944 17.5744 14.3704 15.5673Z" fill="url(#paint7_linear_2146_30354)" style=""/>
<path d="M34.9592 28.3463L19.3685 19.4646C15.6545 17.32 10.9054 18.5929 8.76085 22.3068C8.70214 22.4084 8.64612 22.5108 8.59245 22.614C6.70315 26.2498 8.14057 30.7398 11.6926 32.7821L27.1936 41.7963C28.4164 42.5023 29.7518 42.838 31.069 42.838C33.7528 42.838 36.3628 41.4453 37.8013 38.954C39.9457 35.2399 38.6733 30.4907 34.9592 28.3463Z" fill="url(#paint8_linear_2146_30354)" style=""/>
<path d="M15.4654 18.4258C12.8881 18.4352 10.3832 19.7277 8.92188 22.0444C10.1223 22.5687 11.5321 22.5996 12.8167 22.0111C12.8822 21.9811 12.9467 21.9498 13.0101 21.9173C14.3963 21.2062 15.2586 19.8771 15.4654 18.4258Z" fill="url(#paint9_linear_2146_30354)" style=""/>
<path d="M37.8014 36.1304C36.3629 38.6217 33.753 40.0143 31.0691 40.0143C29.7519 40.0143 28.4164 39.6786 27.1937 38.9727L24.4319 37.3951L11.0903 29.7649C9.34871 28.5711 8.23168 26.7692 7.85961 24.8135C7.34574 27.9076 8.8332 31.138 11.6928 32.7821L27.1938 41.7963C28.4165 42.5023 29.752 42.838 31.0692 42.838C33.753 42.838 36.363 41.4453 37.8015 38.954C38.7622 37.29 39.035 35.4187 38.7118 33.6665C38.7118 33.6663 38.7117 33.6661 38.7117 33.6659C38.5546 34.5107 38.2555 35.3438 37.8014 36.1304Z" fill="url(#paint10_linear_2146_30354)" style=""/>
<path d="M35.8401 40.251C37.873 36.73 36.6667 32.2276 33.1455 30.1946L18.2426 21.7128C15.2369 19.9773 11.5175 20.6041 9.22815 23.0145C11.2667 19.5094 15.7581 18.3109 19.2722 20.34L34.1751 28.8219C37.6963 30.8548 38.9026 35.3571 36.8698 38.8782C36.5737 39.3909 36.2228 39.8515 35.8326 40.2632C35.835 40.2589 35.8378 40.2552 35.8401 40.251Z" fill="url(#paint11_linear_2146_30354)" style=""/>
<path d="M35.0966 17.6199L29.7687 29.5672C28.1696 33.0107 29.6655 37.0983 33.109 38.6972C33.2032 38.7409 33.2979 38.7824 33.393 38.8216C36.7475 40.2016 40.5936 38.5811 42.1152 35.2884L47.5669 23.4095C48.0933 22.2759 48.2843 21.0719 48.1807 19.9104C47.9696 17.5438 46.5364 15.352 44.2265 14.2795C40.783 12.6809 36.6954 14.1762 35.0966 17.6199Z" fill="url(#paint12_linear_2146_30354)" style=""/>
<path d="M47.1347 24.3514C46.7506 24.0088 36.5913 24.4481 36.5913 24.4481C36.5913 24.4481 39.614 28.5634 43.9257 31.3433L47.1347 24.3514Z" fill="url(#paint13_linear_2146_30354)" style=""/>
<path d="M41.7832 34.2199C40.1687 33.1903 38.0643 33.0268 36.2434 33.9737C34.3865 34.9393 33.3062 36.8095 33.2601 38.7638C33.3044 38.7832 33.3485 38.8037 33.393 38.8219C36.7475 40.2019 40.5937 38.5815 42.1152 35.2887L42.3965 34.6756C42.2017 34.5092 41.9972 34.3563 41.7832 34.2199Z" fill="url(#paint14_linear_2146_30354)" style=""/>
<path d="M34.9592 28.3469L31.2543 26.2363L29.7687 29.5675C28.1698 33.0111 29.6656 37.0987 33.109 38.6976C33.2033 38.7413 33.2979 38.7828 33.3931 38.8219C34.8264 39.4116 36.3492 39.4519 37.7423 39.0495C37.7614 39.0174 37.7826 38.9871 37.8015 38.9546C39.9458 35.2404 38.6733 30.4913 34.9592 28.3469Z" fill="url(#paint15_linear_2146_30354)" style=""/>
<path d="M54.7169 18.9326L45.4637 13.6873C42.0488 11.7155 37.6822 12.8858 35.7104 16.3007C35.6565 16.3941 35.6048 16.4883 35.5556 16.5831C33.8185 19.9261 35.14 24.0544 38.4061 25.9322L47.577 31.2992C48.7013 31.9483 49.9292 32.2569 51.1402 32.2569C53.608 32.2569 56.0077 30.9764 57.3303 28.6859C59.3019 25.2708 58.1319 20.9042 54.7169 18.9326Z" fill="url(#paint16_linear_2146_30354)" style=""/>
<path d="M48.1806 19.9102C47.9696 17.5436 46.5364 15.3517 44.2266 14.2792C40.8389 12.7065 36.8295 14.1298 35.178 17.4552C34.0603 20.6149 35.4193 24.214 38.406 25.9313L44.7149 29.6233L47.5668 23.4093C48.0932 22.2756 48.2842 21.0717 48.1806 19.9102Z" fill="url(#paint17_linear_2146_30354)" style=""/>
<path d="M57.7165 27.0599C56.3939 29.3505 53.9941 30.6309 51.5264 30.6309C50.3153 30.6309 49.0874 30.3223 47.9632 29.6732L38.7922 24.3061C36.2769 22.8599 34.9167 20.0788 35.2171 17.3496C34.0306 20.5344 35.3858 24.1952 38.4061 25.9317L47.5771 31.2987C48.7014 31.9478 49.9293 32.2564 51.1403 32.2564C53.608 32.2564 56.0078 30.9759 57.3304 28.6853C57.8345 27.812 58.1319 26.8765 58.2402 25.9348C58.1002 26.3181 57.9274 26.6946 57.7165 27.0599Z" fill="url(#paint18_linear_2146_30354)" style=""/>
<path d="M19.4857 43.4847L19.5254 52.4594C19.4925 55.5191 21.9464 58.0258 25.0061 58.0588C25.0897 58.0597 25.1731 58.0586 25.2559 58.056C28.1776 57.9575 30.4656 55.4921 30.4917 52.5689L30.5656 43.6036C30.5763 42.5963 30.3176 41.6485 29.8565 40.8297C28.9168 39.1612 27.1374 38.0263 25.0851 38.0042C22.0254 37.9714 19.5185 40.4251 19.4857 43.4847Z" fill="url(#paint19_linear_2146_30354)" style=""/>
<path d="M22.1047 38.8375L27.1937 41.7969C28.2459 42.4044 29.3817 42.736 30.5174 42.8172C30.4239 42.1036 30.1954 41.4316 29.8565 40.8297C28.9168 39.1612 27.1374 38.0263 25.085 38.0042C23.9915 37.9926 22.9695 38.2999 22.1047 38.8375Z" fill="url(#paint20_linear_2146_30354)" style=""/>
<path d="M5.19906 30.7162L0.765973 38.5197C-0.785707 41.1569 0.0948402 44.5527 2.73191 46.1042C2.8041 46.1467 2.87675 46.1873 2.95 46.2261C5.53293 47.5952 8.74468 46.5958 10.2224 44.0736L14.7494 36.3348C15.2602 35.4665 15.5075 34.5158 15.5151 33.5761C15.5308 31.6612 14.5524 29.791 12.7833 28.7503C10.1462 27.1989 6.7505 28.0789 5.19906 30.7162Z" fill="url(#paint21_linear_2146_30354)" style=""/>
<path d="M8.10706 28.3105C8.67635 30.1368 9.92147 31.7641 11.6929 32.7826L15.34 34.9035C15.4527 34.4652 15.5117 34.0197 15.5153 33.5767C15.5309 31.6618 14.5526 29.7917 12.7835 28.7509C11.31 27.884 9.60002 27.7769 8.10706 28.3105Z" fill="url(#paint22_linear_2146_30354)" style=""/>
<path d="M57.3683 32.2565C58.8217 32.2565 59.9999 31.0783 59.9999 29.6248C59.9999 28.1714 58.8217 26.9932 57.3683 26.9932C55.9148 26.9932 54.7366 28.1714 54.7366 29.6248C54.7366 31.0783 55.9148 32.2565 57.3683 32.2565Z" fill="url(#paint23_linear_2146_30354)" style=""/>
<path d="M57.3682 27.3262C56.6088 27.3262 55.9373 27.6961 55.5187 28.264C55.8999 27.983 56.3695 27.8148 56.8795 27.8148C58.149 27.8148 59.1781 28.844 59.1781 30.1135C59.1781 30.6235 59.0099 31.093 58.7289 31.4744C59.2968 31.0559 59.6668 30.3844 59.6668 29.6248C59.6669 28.3552 58.6377 27.3262 57.3682 27.3262Z" fill="url(#paint24_linear_2146_30354)" style=""/>
<path d="M55.6417 30.5219C57.6746 27.0009 56.4683 22.4986 52.9471 20.4656L44.8141 15.83C41.8086 14.0945 38.0891 14.7213 35.7997 17.1316C37.8384 13.6266 42.3295 12.4281 45.8437 14.4572L53.9767 19.0928C57.4979 21.1256 58.7042 25.628 56.6714 29.1491C56.3753 29.6619 56.0244 30.1223 55.6342 30.534C55.6366 30.5299 55.6393 30.5261 55.6417 30.5219Z" fill="url(#paint25_linear_2146_30354)" style=""/>
<path d="M30.8742 10.3771L33.6466 17.2423C34.5561 19.5969 37.2026 20.7682 39.5571 19.8586C39.6216 19.8338 39.6851 19.8075 39.7477 19.7801C41.9565 18.8121 42.9566 16.2238 42.0836 13.9757L39.4011 7.08295C39.1017 6.30775 38.6137 5.66052 38.0102 5.17396C36.7805 4.18244 35.0701 3.85642 33.4907 4.4665C31.136 5.37634 29.9646 8.02244 30.8742 10.3771Z" fill="url(#paint26_linear_2146_30354)" style=""/>
<path d="M41.3284 13.4265L38.8269 7.6291C38.5233 6.93078 38.052 6.35691 37.4809 5.93445C36.3174 5.07359 34.7391 4.84015 33.3164 5.4589C33.1807 5.51785 33.05 5.58359 32.924 5.65472C34.0651 5.45644 35.2246 5.74379 36.1318 6.41515C36.7029 6.83762 37.1742 7.41148 37.4779 8.10969L39.9793 13.9071C40.8314 15.8566 40.1024 18.157 38.2753 19.1918C38.6002 19.1359 38.9237 19.0455 39.2394 18.9083C39.2974 18.883 39.3546 18.8566 39.411 18.8291C41.3964 17.8589 42.2134 15.4512 41.3284 13.4265Z" fill="url(#paint27_linear_2146_30354)" style=""/>
<path d="M29.955 52.6212L29.9551 43.6475C29.9514 42.8861 29.7445 42.1728 29.3863 41.5594C28.6563 40.3095 27.298 39.4728 25.7466 39.4805C25.5986 39.4812 25.4527 39.4901 25.3088 39.5058C26.4358 39.7736 27.3879 40.4948 27.9571 41.4694C28.3153 42.0828 28.5222 42.7961 28.5259 43.5575L28.5258 52.5312C28.5402 54.6586 26.9632 56.4854 24.8762 56.716C25.1968 56.7927 25.5298 56.8373 25.8741 56.8355C25.9374 56.8352 26.0003 56.8335 26.0629 56.8304C28.2699 56.7214 29.97 54.8309 29.955 52.6212Z" fill="url(#paint28_linear_2146_30354)" style=""/>
<path d="M9.57705 43.7819L14.1025 36.0329C14.4832 35.3735 14.6643 34.6532 14.6643 33.943C14.6643 32.4956 13.9132 31.0879 12.5697 30.3123C12.4416 30.2382 12.311 30.1723 12.1788 30.1133C13.017 30.9127 13.4755 32.0157 13.4755 33.1445C13.4755 33.8548 13.2945 34.5751 12.9138 35.2344L8.3883 42.9833C7.32787 44.8277 5.04494 45.6099 3.12646 44.7566C3.36459 44.9845 3.62967 45.1909 3.92779 45.363C3.98264 45.3946 4.03783 45.4249 4.09338 45.4538C6.05416 46.4728 8.4756 45.6976 9.57705 43.7819Z" fill="url(#paint29_linear_2146_30354)" style=""/>
</g>
<defs>
<linearGradient id="paint0_linear_2146_30354" x1="44.1147" y1="23.248" x2="47.8888" y2="2.97549" gradientUnits="userSpaceOnUse">
<stop stop-color="#FF4757" style="stop-color:#FF4757;stop-color:color(display-p3 1.0000 0.2784 0.3412);stop-opacity:1;"/>
<stop offset="0.4185" stop-color="#FF5E6C" style="stop-color:#FF5E6C;stop-color:color(display-p3 1.0000 0.3686 0.4235);stop-opacity:1;"/>
<stop offset="1" stop-color="#FF7A85" style="stop-color:#FF7A85;stop-color:color(display-p3 1.0000 0.4784 0.5216);stop-opacity:1;"/>
</linearGradient>
<linearGradient id="paint1_linear_2146_30354" x1="62.8915" y1="7.61565" x2="44.9842" y2="10.4396" gradientUnits="userSpaceOnUse">
<stop stop-color="white" style="stop-color:white;stop-opacity:1;"/>
<stop offset="1" stop-color="white" stop-opacity="0" style="stop-color:none;stop-opacity:0;"/>
</linearGradient>
<linearGradient id="paint2_linear_2146_30354" x1="6.9706" y1="9.77443" x2="3.74112" y2="2.99251" gradientUnits="userSpaceOnUse">
<stop stop-color="#FF4757" style="stop-color:#FF4757;stop-color:color(display-p3 1.0000 0.2784 0.3412);stop-opacity:1;"/>
<stop offset="0.4185" stop-color="#FF5E6C" style="stop-color:#FF5E6C;stop-color:color(display-p3 1.0000 0.3686 0.4235);stop-opacity:1;"/>
<stop offset="1" stop-color="#FF7A85" style="stop-color:#FF7A85;stop-color:color(display-p3 1.0000 0.4784 0.5216);stop-opacity:1;"/>
</linearGradient>
<linearGradient id="paint3_linear_2146_30354" x1="38.7637" y1="38.3924" x2="46.3901" y2="54.5139" gradientUnits="userSpaceOnUse">
<stop stop-color="#FF4757" style="stop-color:#FF4757;stop-color:color(display-p3 1.0000 0.2784 0.3412);stop-opacity:1;"/>
<stop offset="0.4185" stop-color="#FF5E6C" style="stop-color:#FF5E6C;stop-color:color(display-p3 1.0000 0.3686 0.4235);stop-opacity:1;"/>
<stop offset="1" stop-color="#FF7A85" style="stop-color:#FF7A85;stop-color:color(display-p3 1.0000 0.4784 0.5216);stop-opacity:1;"/>
</linearGradient>
<linearGradient id="paint4_linear_2146_30354" x1="54.1488" y1="29.7209" x2="40.2323" y2="44.2378" gradientUnits="userSpaceOnUse">
<stop stop-color="white" style="stop-color:white;stop-opacity:1;"/>
<stop offset="1" stop-color="white" stop-opacity="0" style="stop-color:none;stop-opacity:0;"/>
</linearGradient>
<linearGradient id="paint5_linear_2146_30354" x1="31.4713" y1="31.7974" x2="46.193" y2="47.1466" gradientUnits="userSpaceOnUse">
<stop stop-color="#5D3645" style="stop-color:#5D3645;stop-color:color(display-p3 0.3647 0.2118 0.2706);stop-opacity:1;"/>
<stop offset="1" stop-color="#5D3645" stop-opacity="0" style="stop-color:none;stop-opacity:0;"/>
</linearGradient>
<linearGradient id="paint6_linear_2146_30354" x1="15.0977" y1="26.608" x2="6.13196" y2="7.78003" gradientUnits="userSpaceOnUse">
<stop stop-color="#FF4757" style="stop-color:#FF4757;stop-color:color(display-p3 1.0000 0.2784 0.3412);stop-opacity:1;"/>
<stop offset="0.4185" stop-color="#FF5E6C" style="stop-color:#FF5E6C;stop-color:color(display-p3 1.0000 0.3686 0.4235);stop-opacity:1;"/>
<stop offset="1" stop-color="#FF7A85" style="stop-color:#FF7A85;stop-color:color(display-p3 1.0000 0.4784 0.5216);stop-opacity:1;"/>
</linearGradient>
<linearGradient id="paint7_linear_2146_30354" x1="21.1197" y1="2.72996" x2="8.28041" y2="15.521" gradientUnits="userSpaceOnUse">
<stop stop-color="white" style="stop-color:white;stop-opacity:1;"/>
<stop offset="1" stop-color="white" stop-opacity="0" style="stop-color:none;stop-opacity:0;"/>
</linearGradient>
<linearGradient id="paint8_linear_2146_30354" x1="29.7324" y1="41.6797" x2="19.9362" y2="24.7122" gradientUnits="userSpaceOnUse">
<stop stop-color="#FF4757" style="stop-color:#FF4757;stop-color:color(display-p3 1.0000 0.2784 0.3412);stop-opacity:1;"/>
<stop offset="0.4185" stop-color="#FF5E6C" style="stop-color:#FF5E6C;stop-color:color(display-p3 1.0000 0.3686 0.4235);stop-opacity:1;"/>
<stop offset="1" stop-color="#FF7A85" style="stop-color:#FF7A85;stop-color:color(display-p3 1.0000 0.4784 0.5216);stop-opacity:1;"/>
</linearGradient>
<linearGradient id="paint9_linear_2146_30354" x1="13.005" y1="21.6405" x2="12.1107" y2="20.0914" gradientUnits="userSpaceOnUse">
<stop stop-color="#FF4757" style="stop-color:#FF4757;stop-color:color(display-p3 1.0000 0.2784 0.3412);stop-opacity:1;"/>
<stop offset="0.4185" stop-color="#FF5E6C" style="stop-color:#FF5E6C;stop-color:color(display-p3 1.0000 0.3686 0.4235);stop-opacity:1;"/>
<stop offset="1" stop-color="#FF7A85" style="stop-color:#FF7A85;stop-color:color(display-p3 1.0000 0.4784 0.5216);stop-opacity:1;"/>
</linearGradient>
<linearGradient id="paint10_linear_2146_30354" x1="6.20316" y1="51.3556" x2="24.6795" y2="29.8337" gradientUnits="userSpaceOnUse">
<stop stop-color="#5D3645" style="stop-color:#5D3645;stop-color:color(display-p3 0.3647 0.2118 0.2706);stop-opacity:1;"/>
<stop offset="1" stop-color="#5D3645" stop-opacity="0" style="stop-color:none;stop-opacity:0;"/>
</linearGradient>
<linearGradient id="paint11_linear_2146_30354" x1="33.1707" y1="16.6048" x2="24.5024" y2="28.8875" gradientUnits="userSpaceOnUse">
<stop stop-color="white" style="stop-color:white;stop-opacity:1;"/>
<stop offset="1" stop-color="white" stop-opacity="0" style="stop-color:none;stop-opacity:0;"/>
</linearGradient>
<linearGradient id="paint12_linear_2146_30354" x1="41.2467" y1="23.819" x2="29.7787" y2="35.287" gradientUnits="userSpaceOnUse">
<stop stop-color="#FF4757" style="stop-color:#FF4757;stop-color:color(display-p3 1.0000 0.2784 0.3412);stop-opacity:1;"/>
<stop offset="0.4185" stop-color="#FF5E6C" style="stop-color:#FF5E6C;stop-color:color(display-p3 1.0000 0.3686 0.4235);stop-opacity:1;"/>
<stop offset="1" stop-color="#FF7A85" style="stop-color:#FF7A85;stop-color:color(display-p3 1.0000 0.4784 0.5216);stop-opacity:1;"/>
</linearGradient>
<linearGradient id="paint13_linear_2146_30354" x1="41.6113" y1="18.9063" x2="42.4114" y2="36.3681" gradientUnits="userSpaceOnUse">
<stop stop-color="#5D3645" style="stop-color:#5D3645;stop-color:color(display-p3 0.3647 0.2118 0.2706);stop-opacity:1;"/>
<stop offset="1" stop-color="#5D3645" stop-opacity="0" style="stop-color:none;stop-opacity:0;"/>
</linearGradient>
<linearGradient id="paint14_linear_2146_30354" x1="37.8285" y1="31.9183" x2="37.8285" y2="39.7155" gradientUnits="userSpaceOnUse">
<stop stop-color="#FF4757" style="stop-color:#FF4757;stop-color:color(display-p3 1.0000 0.2784 0.3412);stop-opacity:1;"/>
<stop offset="0.4185" stop-color="#FF5E6C" style="stop-color:#FF5E6C;stop-color:color(display-p3 1.0000 0.3686 0.4235);stop-opacity:1;"/>
<stop offset="1" stop-color="#FF7A85" style="stop-color:#FF7A85;stop-color:color(display-p3 1.0000 0.4784 0.5216);stop-opacity:1;"/>
</linearGradient>
<linearGradient id="paint15_linear_2146_30354" x1="38.3062" y1="28.6154" x2="27.0115" y2="40.5617" gradientUnits="userSpaceOnUse">
<stop stop-color="#FF4757" style="stop-color:#FF4757;stop-color:color(display-p3 1.0000 0.2784 0.3412);stop-opacity:1;"/>
<stop offset="0.4185" stop-color="#FF5E6C" style="stop-color:#FF5E6C;stop-color:color(display-p3 1.0000 0.3686 0.4235);stop-opacity:1;"/>
<stop offset="1" stop-color="#FF7A85" style="stop-color:#FF7A85;stop-color:color(display-p3 1.0000 0.4784 0.5216);stop-opacity:1;"/>
</linearGradient>
<linearGradient id="paint16_linear_2146_30354" x1="51.4063" y1="30.8413" x2="44.0004" y2="18.014" gradientUnits="userSpaceOnUse">
<stop stop-color="#FF4757" style="stop-color:#FF4757;stop-color:color(display-p3 1.0000 0.2784 0.3412);stop-opacity:1;"/>
<stop offset="0.4185" stop-color="#FF5E6C" style="stop-color:#FF5E6C;stop-color:color(display-p3 1.0000 0.3686 0.4235);stop-opacity:1;"/>
<stop offset="1" stop-color="#FF7A85" style="stop-color:#FF7A85;stop-color:color(display-p3 1.0000 0.4784 0.5216);stop-opacity:1;"/>
</linearGradient>
<linearGradient id="paint17_linear_2146_30354" x1="49.1767" y1="10.9744" x2="37.2304" y2="27.1201" gradientUnits="userSpaceOnUse">
<stop stop-color="#FF4757" style="stop-color:#FF4757;stop-color:color(display-p3 1.0000 0.2784 0.3412);stop-opacity:1;"/>
<stop offset="0.4185" stop-color="#FF5E6C" style="stop-color:#FF5E6C;stop-color:color(display-p3 1.0000 0.3686 0.4235);stop-opacity:1;"/>
<stop offset="1" stop-color="#FF7A85" style="stop-color:#FF7A85;stop-color:color(display-p3 1.0000 0.4784 0.5216);stop-opacity:1;"/>
</linearGradient>
<linearGradient id="paint18_linear_2146_30354" x1="33.1915" y1="40.8935" x2="45.9342" y2="23.5171" gradientUnits="userSpaceOnUse">
<stop stop-color="#5D3645" style="stop-color:#5D3645;stop-color:color(display-p3 0.3647 0.2118 0.2706);stop-opacity:1;"/>
<stop offset="1" stop-color="#5D3645" stop-opacity="0" style="stop-color:none;stop-opacity:0;"/>
</linearGradient>
<linearGradient id="paint19_linear_2146_30354" x1="25.1457" y1="64.1867" x2="25.0207" y2="39.1894" gradientUnits="userSpaceOnUse">
<stop stop-color="#FF4757" style="stop-color:#FF4757;stop-color:color(display-p3 1.0000 0.2784 0.3412);stop-opacity:1;"/>
<stop offset="0.4185" stop-color="#FF5E6C" style="stop-color:#FF5E6C;stop-color:color(display-p3 1.0000 0.3686 0.4235);stop-opacity:1;"/>
<stop offset="1" stop-color="#FF7A85" style="stop-color:#FF7A85;stop-color:color(display-p3 1.0000 0.4784 0.5216);stop-opacity:1;"/>
</linearGradient>
<linearGradient id="paint20_linear_2146_30354" x1="26.3112" y1="43.325" x2="26.3112" y2="35.1249" gradientUnits="userSpaceOnUse">
<stop stop-color="#FF4757" style="stop-color:#FF4757;stop-color:color(display-p3 1.0000 0.2784 0.3412);stop-opacity:1;"/>
<stop offset="0.4185" stop-color="#FF5E6C" style="stop-color:#FF5E6C;stop-color:color(display-p3 1.0000 0.3686 0.4235);stop-opacity:1;"/>
<stop offset="1" stop-color="#FF7A85" style="stop-color:#FF7A85;stop-color:color(display-p3 1.0000 0.4784 0.5216);stop-opacity:1;"/>
</linearGradient>
<linearGradient id="paint21_linear_2146_30354" x1="-0.232573" y1="51.5111" x2="12.116" y2="29.7637" gradientUnits="userSpaceOnUse">
<stop stop-color="#FF4757" style="stop-color:#FF4757;stop-color:color(display-p3 1.0000 0.2784 0.3412);stop-opacity:1;"/>
<stop offset="0.4185" stop-color="#FF5E6C" style="stop-color:#FF5E6C;stop-color:color(display-p3 1.0000 0.3686 0.4235);stop-opacity:1;"/>
<stop offset="1" stop-color="#FF7A85" style="stop-color:#FF7A85;stop-color:color(display-p3 1.0000 0.4784 0.5216);stop-opacity:1;"/>
</linearGradient>
<linearGradient id="paint22_linear_2146_30354" x1="15.1946" y1="27.4078" x2="8.29221" y2="35.7581" gradientUnits="userSpaceOnUse">
<stop stop-color="#FF4757" style="stop-color:#FF4757;stop-color:color(display-p3 1.0000 0.2784 0.3412);stop-opacity:1;"/>
<stop offset="0.4185" stop-color="#FF5E6C" style="stop-color:#FF5E6C;stop-color:color(display-p3 1.0000 0.3686 0.4235);stop-opacity:1;"/>
<stop offset="1" stop-color="#FF7A85" style="stop-color:#FF7A85;stop-color:color(display-p3 1.0000 0.4784 0.5216);stop-opacity:1;"/>
</linearGradient>
<linearGradient id="paint23_linear_2146_30354" x1="57.3683" y1="33.8674" x2="57.3683" y2="27.307" gradientUnits="userSpaceOnUse">
<stop stop-color="#FF4757" style="stop-color:#FF4757;stop-color:color(display-p3 1.0000 0.2784 0.3412);stop-opacity:1;"/>
<stop offset="0.4185" stop-color="#FF5E6C" style="stop-color:#FF5E6C;stop-color:color(display-p3 1.0000 0.3686 0.4235);stop-opacity:1;"/>
<stop offset="1" stop-color="#FF7A85" style="stop-color:#FF7A85;stop-color:color(display-p3 1.0000 0.4784 0.5216);stop-opacity:1;"/>
</linearGradient>
<linearGradient id="paint24_linear_2146_30354" x1="61.6732" y1="24.1066" x2="57.5644" y2="29.3738" gradientUnits="userSpaceOnUse">
<stop stop-color="white" style="stop-color:white;stop-opacity:1;"/>
<stop offset="1" stop-color="white" stop-opacity="0" style="stop-color:none;stop-opacity:0;"/>
</linearGradient>
<linearGradient id="paint25_linear_2146_30354" x1="55.7125" y1="9.71238" x2="47.7264" y2="21.0285" gradientUnits="userSpaceOnUse">
<stop stop-color="white" style="stop-color:white;stop-opacity:1;"/>
<stop offset="1" stop-color="white" stop-opacity="0" style="stop-color:none;stop-opacity:0;"/>
</linearGradient>
<linearGradient id="paint26_linear_2146_30354" x1="41.5215" y1="24.507" x2="33.7883" y2="5.39063" gradientUnits="userSpaceOnUse">
<stop stop-color="#FF4757" style="stop-color:#FF4757;stop-color:color(display-p3 1.0000 0.2784 0.3412);stop-opacity:1;"/>
<stop offset="0.4185" stop-color="#FF5E6C" style="stop-color:#FF5E6C;stop-color:color(display-p3 1.0000 0.3686 0.4235);stop-opacity:1;"/>
<stop offset="1" stop-color="#FF7A85" style="stop-color:#FF7A85;stop-color:color(display-p3 1.0000 0.4784 0.5216);stop-opacity:1;"/>
</linearGradient>
<linearGradient id="paint27_linear_2146_30354" x1="48.3353" y1="0.703596" x2="35.2528" y2="13.2508" gradientUnits="userSpaceOnUse">
<stop stop-color="white" style="stop-color:white;stop-opacity:1;"/>
<stop offset="1" stop-color="white" stop-opacity="0" style="stop-color:none;stop-opacity:0;"/>
</linearGradient>
<linearGradient id="paint28_linear_2146_30354" x1="42.9998" y1="41.7642" x2="24.1784" y2="48.8226" gradientUnits="userSpaceOnUse">
<stop stop-color="white" style="stop-color:white;stop-opacity:1;"/>
<stop offset="1" stop-color="white" stop-opacity="0" style="stop-color:none;stop-opacity:0;"/>
</linearGradient>
<linearGradient id="paint29_linear_2146_30354" x1="26.3293" y1="40.9831" x2="6.51871" y2="37.5908" gradientUnits="userSpaceOnUse">
<stop stop-color="white" style="stop-color:white;stop-opacity:1;"/>
<stop offset="1" stop-color="white" stop-opacity="0" style="stop-color:none;stop-opacity:0;"/>
</linearGradient>
<clipPath id="clip0_2146_30354">
<rect width="60" height="60" fill="white" style="fill:white;fill-opacity:1;"/>
</clipPath>
</defs>
</svg>
