<svg width="16" height="16" viewBox="0 0 16 16" fill="none" xmlns="http://www.w3.org/2000/svg">
<path d="M10.59 9.16016H10.815C11.09 9.16016 11.315 8.93516 11.315 8.66016C11.315 8.38516 11.09 8.16016 10.815 8.16016H10.59C10.315 8.16016 10.09 8.38516 10.09 8.66016C10.09 8.93516 10.315 9.16016 10.59 9.16016Z" fill="#A6ADBB" style="fill:#A6ADBB;fill:color(display-p3 0.6510 0.6784 0.7333);fill-opacity:1;"/>
<path d="M6.51498 8.16016H6.28998C6.01498 8.16016 5.78998 8.38516 5.78998 8.66016C5.78998 8.93516 6.01498 9.16016 6.28998 9.16016H6.51498C6.78998 9.16016 7.01498 8.93516 7.01498 8.66016C7.01498 8.38516 6.78998 8.16016 6.51498 8.16016Z" fill="#A6ADBB" style="fill:#A6ADBB;fill:color(display-p3 0.6510 0.6784 0.7333);fill-opacity:1;"/>
<path d="M8.665 8.16016H8.44C8.165 8.16016 7.94 8.38516 7.94 8.66016C7.94 8.93516 8.165 9.16016 8.44 9.16016H8.665C8.94 9.16016 9.165 8.93516 9.165 8.66016C9.165 8.38516 8.94 8.16016 8.665 8.16016Z" fill="#A6ADBB" style="fill:#A6ADBB;fill:color(display-p3 0.6510 0.6784 0.7333);fill-opacity:1;"/>
<path d="M10.81 12.9355H10.585C10.31 12.9355 10.085 13.1605 10.085 13.4355C10.085 13.7105 10.31 13.9355 10.585 13.9355H10.81C11.085 13.9355 11.31 13.7105 11.31 13.4355C11.31 13.1605 11.085 12.9355 10.81 12.9355Z" fill="#A6ADBB" style="fill:#A6ADBB;fill:color(display-p3 0.6510 0.6784 0.7333);fill-opacity:1;"/>
<path d="M6.51498 12.9355H6.28998C6.01498 12.9355 5.78998 13.1605 5.78998 13.4355C5.78998 13.7105 6.01498 13.9355 6.28998 13.9355H6.51498C6.78998 13.9355 7.01498 13.7105 7.01498 13.4355C7.01498 13.1605 6.78998 12.9355 6.51498 12.9355Z" fill="#A6ADBB" style="fill:#A6ADBB;fill:color(display-p3 0.6510 0.6784 0.7333);fill-opacity:1;"/>
<path d="M8.665 12.9355H8.44C8.165 12.9355 7.94 13.1605 7.94 13.4355C7.94 13.7105 8.165 13.9355 8.44 13.9355H8.665C8.94 13.9355 9.165 13.7105 9.165 13.4355C9.165 13.1605 8.94 12.9355 8.665 12.9355Z" fill="#A6ADBB" style="fill:#A6ADBB;fill:color(display-p3 0.6510 0.6784 0.7333);fill-opacity:1;"/>
<path d="M13.5 9.6157H13.07V7.7907C13.07 7.1307 12.53 6.5957 11.87 6.5957H3.355C3.16 6.5957 3 6.4357 3 6.2357V5.9507C3 5.7557 3.16 5.5957 3.355 5.5957H5.675C5.95 5.5957 6.175 5.3707 6.175 5.0957C6.175 4.8207 5.95 4.5957 5.675 4.5957H3.355C2.605 4.5957 2 5.2057 2 5.9507V13.6057C2 14.6507 2.85 15.5007 3.895 15.5007H11.87C12.53 15.5007 13.07 14.9607 13.07 14.3007V12.4807H13.5C13.775 12.4807 14 12.2557 14 11.9807V10.1207C14 9.8457 13.775 9.6207 13.5 9.6207V9.6157ZM3 13.6057V7.5407C3.115 7.5707 3.235 7.5957 3.355 7.5957H4.12V14.5007H3.895C3.4 14.5007 3 14.1007 3 13.6057ZM12.07 14.3007C12.07 14.4157 11.985 14.5007 11.87 14.5007H5.12V7.5957H11.87C11.98 7.5957 12.07 7.6807 12.07 7.7907V9.6157H11.775C10.985 9.6157 10.345 10.2557 10.345 11.0457C10.345 11.8357 10.985 12.4757 11.775 12.4757H12.07V14.2957V14.3007ZM13 11.4807H11.775C11.54 11.4807 11.345 11.2857 11.345 11.0507C11.345 10.8157 11.54 10.6207 11.775 10.6207H13V11.4807Z" fill="#A6ADBB" style="fill:#A6ADBB;fill:color(display-p3 0.6510 0.6784 0.7333);fill-opacity:1;"/>
<path d="M5.85555 3.39223L8.16555 5.48223C8.33055 5.63223 8.58055 5.63223 8.74555 5.48223L11.0555 3.39223C11.1905 3.27223 11.2355 3.08223 11.1705 2.91723C11.1055 2.75223 10.9455 2.63723 10.7655 2.63723H9.83055V0.502227L7.07055 0.502227L7.07055 2.63723H6.13555C5.95555 2.63723 5.79555 2.74723 5.73055 2.91723C5.66555 3.08223 5.71055 3.27223 5.84555 3.39223H5.85555Z" fill="#E7FB78" fill-opacity="0.8" style="fill:#E7FB78;fill:color(display-p3 0.9059 0.9843 0.4706);fill-opacity:0.8;"/>
</svg>
