<svg width="25" height="24" viewBox="0 0 25 24" fill="none" xmlns="http://www.w3.org/2000/svg">
<path d="M12.1249 2.40047C6.83253 2.40047 2.5249 6.7081 2.5249 12.0005C2.5249 17.2928 6.83253 21.6005 12.1249 21.6005C17.4173 21.6005 21.7249 17.2928 21.7249 12.0005C21.7249 8.6887 20.0432 5.76059 17.4843 4.03485L18.4015 2.85828L14.5249 2.71766L15.6437 6.40047L16.4937 5.30828C18.4673 6.59848 19.8368 8.72874 20.0812 11.2036C19.8781 11.2169 19.6877 11.3071 19.5487 11.4558C19.4098 11.6046 19.3328 11.8007 19.3334 12.0042C19.334 12.2078 19.4122 12.4034 19.552 12.5513C19.6917 12.6993 19.8827 12.7884 20.0858 12.8005C19.7117 16.5873 16.7103 19.5879 12.9233 19.9614C12.9133 19.7563 12.8248 19.563 12.6762 19.4214C12.5276 19.2797 12.3302 19.2006 12.1249 19.2005C11.9196 19.2006 11.7222 19.2797 11.5736 19.4214C11.425 19.563 11.3365 19.7563 11.3265 19.9614C7.53895 19.5879 4.53748 16.5864 4.16396 12.7989C4.36982 12.7898 4.56422 12.7016 4.70667 12.5527C4.84911 12.4039 4.92862 12.2057 4.92862 11.9997C4.92862 11.7936 4.84911 11.5955 4.70667 11.4466C4.56422 11.2978 4.36982 11.2096 4.16396 11.2005C4.56411 7.15081 7.96765 4.00047 12.1249 4.00047C12.2309 4.00197 12.3362 3.98238 12.4345 3.94285C12.5329 3.90332 12.6224 3.84463 12.6979 3.7702C12.7734 3.69576 12.8334 3.60707 12.8743 3.50926C12.9152 3.41145 12.9363 3.30649 12.9363 3.20047C12.9363 3.09445 12.9152 2.98949 12.8743 2.89168C12.8334 2.79388 12.7734 2.70518 12.6979 2.63074C12.6224 2.55631 12.5329 2.49762 12.4345 2.45809C12.3362 2.41856 12.2309 2.39897 12.1249 2.40047ZM12.1124 6.38953C11.9005 6.39285 11.6986 6.48009 11.5509 6.63213C11.4033 6.78416 11.322 6.98857 11.3249 7.20047V11.6005L8.44521 13.7598C8.36109 13.8228 8.29019 13.9018 8.23657 13.9922C8.18296 14.0826 8.14767 14.1826 8.13272 14.2867C8.11778 14.3907 8.12347 14.4967 8.14947 14.5985C8.17548 14.7003 8.22128 14.796 8.28428 14.8802C8.34727 14.9643 8.42622 15.0352 8.51661 15.0888C8.607 15.1424 8.70707 15.1777 8.8111 15.1927C8.91513 15.2076 9.02109 15.2019 9.12292 15.1759C9.22475 15.1499 9.32046 15.1041 9.40459 15.0411L12.6046 12.6411C12.7041 12.5665 12.7848 12.4698 12.8404 12.3586C12.896 12.2474 12.925 12.1248 12.9249 12.0005V7.20047C12.9264 7.09344 12.9063 6.9872 12.866 6.88805C12.8257 6.7889 12.7659 6.69885 12.6901 6.62323C12.6143 6.54761 12.5242 6.48797 12.4249 6.44783C12.3257 6.40768 12.2194 6.38786 12.1124 6.38953Z" fill="#A6ADBB" style="fill:#A6ADBB;fill:color(display-p3 0.6510 0.6784 0.7333);fill-opacity:1;"/>
</svg>
