<svg width="25" height="24" viewBox="0 0 25 24" fill="none" xmlns="http://www.w3.org/2000/svg">
<path d="M19.575 3.2002C19.1506 3.2002 18.7436 3.36877 18.4436 3.66882C18.1435 3.96888 17.975 4.37585 17.975 4.8002C17.975 4.89132 17.9828 4.98228 17.9984 5.07207L15.325 7.3002C15.1489 7.23485 14.9627 7.201 14.775 7.2002C14.4615 7.20051 14.1551 7.29288 13.8937 7.46582L11.5703 6.30332C11.5456 5.89679 11.3668 5.51497 11.0704 5.23568C10.774 4.95638 10.3822 4.80064 9.97495 4.8002C9.5506 4.8002 9.14364 4.96877 8.84358 5.26882C8.54352 5.56888 8.37495 5.97585 8.37495 6.4002C8.3754 6.43461 8.37697 6.469 8.37964 6.50332L5.88276 8.16738C5.66279 8.05806 5.42059 8.00085 5.17495 8.0002C4.7506 8.0002 4.34364 8.16877 4.04358 8.46882C3.74352 8.76888 3.57495 9.17585 3.57495 9.6002C3.57495 10.0245 3.74352 10.4315 4.04358 10.7316C4.34364 11.0316 4.7506 11.2002 5.17495 11.2002C5.5993 11.2002 6.00626 11.0316 6.30632 10.7316C6.60638 10.4315 6.77495 10.0245 6.77495 9.6002C6.77446 9.5663 6.7729 9.53243 6.77026 9.49863L9.26714 7.83301C9.48711 7.94233 9.72931 7.99954 9.97495 8.0002C10.2884 7.99988 10.5948 7.90752 10.8562 7.73457L13.1796 8.89707C13.2043 9.3036 13.3831 9.68542 13.6795 9.96471C13.9759 10.244 14.3677 10.3997 14.775 10.4002C15.1993 10.4002 15.6063 10.2316 15.9063 9.93157C16.2064 9.63151 16.375 9.22454 16.375 8.8002C16.3749 8.70907 16.3671 8.61811 16.3515 8.52832L19.025 6.3002C19.201 6.36555 19.3872 6.3994 19.575 6.4002C19.9993 6.4002 20.4063 6.23162 20.7063 5.93157C21.0064 5.63151 21.175 5.22454 21.175 4.8002C21.175 4.37585 21.0064 3.96888 20.7063 3.66882C20.4063 3.36877 19.9993 3.2002 19.575 3.2002ZM18.775 9.6002C18.3334 9.6002 17.975 9.9586 17.975 10.4002V20.8002H21.175V10.4002C21.175 9.9586 20.8166 9.6002 20.375 9.6002H18.775ZM9.17495 11.2002C8.73335 11.2002 8.37495 11.5586 8.37495 12.0002V20.8002H11.575V12.0002C11.575 11.5586 11.2166 11.2002 10.775 11.2002H9.17495ZM13.975 12.8002C13.5334 12.8002 13.175 13.1586 13.175 13.6002V20.8002H16.375V13.6002C16.375 13.1586 16.0166 12.8002 15.575 12.8002H13.975ZM4.37495 14.4002C3.93335 14.4002 3.57495 14.7586 3.57495 15.2002V20.8002H6.77495V15.2002C6.77495 14.7586 6.41655 14.4002 5.97495 14.4002H4.37495Z" fill="#A6ADBB" style="fill:#A6ADBB;fill:color(display-p3 0.6510 0.6784 0.7333);fill-opacity:1;"/>
</svg>
