<svg width="25" height="24" viewBox="0 0 25 24" fill="none" xmlns="http://www.w3.org/2000/svg">
<path d="M10.8752 1.59961C9.32876 1.59961 8.07516 2.85321 8.07516 4.39961C8.07516 5.18441 8.40047 5.89161 8.92047 6.39961H12.8314C13.3506 5.89161 13.6752 5.18441 13.6752 4.39961C13.6752 2.85321 12.4216 1.59961 10.8752 1.59961ZM20.8752 6.39961L17.1689 7.63555C16.3745 7.25562 15.5066 6.95615 14.5814 6.74961C14.4006 7.03281 14.1966 7.30176 13.9502 7.54336L13.483 7.99961H8.26735L7.80016 7.54336C7.63216 7.37856 7.49245 7.19611 7.35485 7.01211C5.38244 7.73757 3.96706 9.1247 3.47672 11.2262C3.41094 11.2088 3.3432 11.1999 3.27516 11.1996C3.06299 11.1996 2.8595 11.2839 2.70947 11.4339C2.55944 11.584 2.47516 11.7874 2.47516 11.9996C2.47516 12.2118 2.55944 12.4153 2.70947 12.5653C2.8595 12.7153 3.06299 12.7996 3.27516 12.7996C3.27776 12.7996 3.28037 12.7996 3.28297 12.7996C3.2825 12.8365 3.27516 12.8687 3.27516 12.9059C3.27516 14.1035 3.58233 15.2972 4.16735 16.3824L4.90328 20.7949C4.98008 21.2597 5.38056 21.5996 5.85016 21.5996H8.06735C8.53775 21.5996 8.93898 21.2597 9.01578 20.7949L9.0986 20.3012C10.1062 20.6155 11.229 20.7996 12.4752 20.7996C13.3824 20.7996 14.2496 20.7175 15.0689 20.5684L15.5048 21.2371C15.6528 21.4635 15.9048 21.5996 16.1752 21.5996H18.4752C18.98 21.5996 19.3587 21.1386 19.2595 20.6434L18.9455 19.0793C19.8691 18.4616 20.5912 17.6909 21.0611 16.7934H21.7502C22.1918 16.7934 22.5765 16.4932 22.6845 16.0652L23.247 13.8121C23.3686 13.3249 23.0957 12.8252 22.6189 12.6668L21.3877 12.2559C21.096 11.2622 20.5865 10.3888 19.9111 9.63711C20.4213 8.85151 20.8752 7.78498 20.8752 6.39961ZM18.0752 11.1996C18.7376 11.1996 19.2752 11.7372 19.2752 12.3996C19.2752 13.062 18.7376 13.5996 18.0752 13.5996C17.4128 13.5996 16.8752 13.062 16.8752 12.3996C16.8752 11.7372 17.4128 11.1996 18.0752 11.1996Z" fill="#A6ADBB" style="fill:#A6ADBB;fill:color(display-p3 0.6510 0.6784 0.7333);fill-opacity:1;"/>
</svg>
