<svg width="25" height="24" viewBox="0 0 25 24" fill="none" xmlns="http://www.w3.org/2000/svg">
<path d="M21.7947 12.9901H13.622C13.1237 12.9901 12.725 13.3888 12.725 13.8871V20.458C12.725 21.4475 13.5224 22.2449 14.5119 22.2449H20.556C21.7377 22.2449 22.6917 21.2909 22.6917 20.1091V13.8871C22.6917 13.3888 22.293 12.9901 21.7947 12.9901ZM19.5237 15.5173H15.893C15.6438 15.5173 15.4445 15.3109 15.4445 15.0617C15.4445 14.8126 15.6438 14.6061 15.893 14.6061H19.5237C19.7729 14.6061 19.9722 14.8126 19.9722 15.0617C19.9722 15.3109 19.7729 15.5173 19.5237 15.5173ZM21.9798 5.87104H17.6863V4.29559C17.6365 4.06778 17.487 3.86845 17.2592 3.78302C16.9957 3.66912 16.6896 3.73319 16.4832 3.93252L14.4115 6.01128C14.2336 6.14655 14.1268 6.36012 14.1339 6.58793C14.1339 6.8015 14.2336 7.00795 14.4115 7.13609V7.14321L16.4832 9.21486C16.6896 9.41419 16.9957 9.47826 17.2592 9.36436C17.487 9.27893 17.6365 9.07959 17.6863 8.85178V7.29485H21.9798C22.3735 7.29485 22.6917 6.97663 22.6917 6.58294C22.6917 6.18926 22.3735 5.87104 21.9798 5.87104ZM7.7417 11.5663C10.4968 11.5663 12.725 9.33802 12.725 6.58294C12.725 3.82787 10.4968 1.59961 7.7417 1.59961C4.98662 1.59961 2.75836 3.82787 2.75836 6.58294C2.75836 9.33802 4.98662 11.5663 7.7417 11.5663ZM7.02979 4.44723C7.02979 4.05568 7.35015 3.73532 7.7417 3.73532C8.13324 3.73532 8.4536 4.05568 8.4536 4.44723V8.71866C8.4536 9.11021 8.13324 9.43056 7.7417 9.43056C7.35015 9.43056 7.02979 9.11021 7.02979 8.71866V4.44723ZM11.0015 16.6834L8.92986 14.6118C8.72341 14.4125 8.41729 14.3484 8.15389 14.4623C7.92608 14.5477 7.77658 14.7471 7.72675 14.9749V16.5496H3.47027C3.07658 16.5496 2.75836 16.8678 2.75836 17.2615C2.75836 17.6552 3.07658 17.9734 3.47027 17.9734H7.72675V19.5311C7.77658 19.7589 7.92608 19.9582 8.15389 20.0436C8.41729 20.1575 8.72341 20.0935 8.92986 19.8941L11.0015 17.8154C11.1795 17.6801 11.2863 17.4665 11.2792 17.2387C11.2792 17.0252 11.1795 16.8187 11.0015 16.6906V16.6834Z" fill="#A6ADBB" style="fill:#A6ADBB;fill:color(display-p3 0.6510 0.6784 0.7333);fill-opacity:1;"/>
</svg>
