<svg width="25" height="24" viewBox="0 0 25 24" fill="none" xmlns="http://www.w3.org/2000/svg">
<path d="M6.46264 3.18953C6.34214 3.19142 6.22363 3.2205 6.11594 3.27462C6.00826 3.32873 5.91419 3.40647 5.84077 3.50203C5.83972 3.50359 5.83868 3.50515 5.83764 3.50672L3.50952 5.83484C3.28072 6.06364 3.21208 6.40752 3.33608 6.70672C3.46008 7.00512 3.75194 7.20047 4.07514 7.20047H5.67514V16.8005C5.67514 19.0001 7.47553 20.8005 9.67514 20.8005C11.8748 20.8005 13.6751 19.0001 13.6751 16.8005V7.20047C13.6751 5.86568 14.7404 4.80047 16.0751 4.80047C17.4099 4.80047 18.4751 5.86568 18.4751 7.20047V16.8005H16.8751C16.5519 16.8005 16.2601 16.9958 16.1361 17.2942C16.0121 17.5934 16.0807 17.9373 16.3095 18.1661L18.6392 20.4958C18.7137 20.5935 18.8096 20.6727 18.9196 20.7274C19.0296 20.782 19.1508 20.8106 19.2736 20.8109C19.3964 20.8112 19.5177 20.7832 19.628 20.7291C19.7382 20.675 19.8346 20.5962 19.9095 20.4989C19.9106 20.4973 19.9116 20.4958 19.9126 20.4942L22.2408 18.1661C22.4696 17.9373 22.5382 17.5934 22.4142 17.2942C22.2902 16.9958 21.9983 16.8005 21.6751 16.8005H20.0751V7.20047C20.0751 5.00085 18.2748 3.20047 16.0751 3.20047C13.8755 3.20047 12.0751 5.00085 12.0751 7.20047V16.8005C12.0751 18.1353 11.0099 19.2005 9.67514 19.2005C8.34035 19.2005 7.27514 18.1353 7.27514 16.8005V7.20047H8.87514C9.19834 7.20047 9.4902 7.00512 9.6142 6.70672C9.7382 6.40752 9.66957 6.06364 9.44077 5.83484L7.10795 3.50203C7.03211 3.40333 6.93429 3.32369 6.82226 3.26944C6.71024 3.21519 6.5871 3.18783 6.46264 3.18953Z" fill="#A6ADBB" style="fill:#A6ADBB;fill:color(display-p3 0.6510 0.6784 0.7333);fill-opacity:1;"/>
</svg>
