<svg width="16" height="16" viewBox="0 0 16 16" fill="none" xmlns="http://www.w3.org/2000/svg">
<path d="M3.72465 2.127C3.64431 2.12826 3.5653 2.14765 3.49351 2.18373C3.42173 2.2198 3.35902 2.27163 3.31006 2.33534C3.30937 2.33638 3.30867 2.33742 3.30798 2.33846L1.7559 3.89054C1.60336 4.04308 1.5576 4.27233 1.64027 4.47179C1.72294 4.67073 1.91751 4.80096 2.13298 4.80096H3.19965V11.201C3.19965 12.6674 4.3999 13.8676 5.86631 13.8676C7.33272 13.8676 8.53298 12.6674 8.53298 11.201V4.80096C8.53298 3.9111 9.24312 3.20096 10.133 3.20096C11.0228 3.20096 11.733 3.9111 11.733 4.80096V11.201H10.6663C10.4508 11.201 10.2563 11.3312 10.1736 11.5301C10.0909 11.7296 10.1367 11.9588 10.2892 12.1114L11.8424 13.6645C11.892 13.7296 11.956 13.7825 12.0293 13.8189C12.1026 13.8553 12.1834 13.8744 12.2653 13.8746C12.3472 13.8748 12.428 13.8561 12.5015 13.8201C12.575 13.784 12.6393 13.7315 12.6892 13.6666C12.6899 13.6655 12.6906 13.6645 12.6913 13.6635L14.2434 12.1114C14.3959 11.9588 14.4417 11.7296 14.359 11.5301C14.2764 11.3312 14.0818 11.201 13.8663 11.201H12.7996V4.80096C12.7996 3.33455 11.5994 2.13429 10.133 2.13429C8.66657 2.13429 7.46631 3.33455 7.46631 4.80096V11.201C7.46631 12.0908 6.75617 12.801 5.86631 12.801C4.97646 12.801 4.26631 12.0908 4.26631 11.201V4.80096H5.33298C5.54845 4.80096 5.74302 4.67073 5.82569 4.47179C5.90836 4.27233 5.8626 4.04308 5.71006 3.89054L4.15485 2.33534C4.10429 2.26954 4.03908 2.21645 3.96439 2.18028C3.88971 2.14411 3.80762 2.12587 3.72465 2.127Z" fill="#A6ADBB" style="fill:#A6ADBB;fill:color(display-p3 0.6510 0.6784 0.7333);fill-opacity:1;"/>
</svg>
