<svg width="16" height="16" viewBox="0 0 16 16" fill="none" xmlns="http://www.w3.org/2000/svg">
<path d="M10.5898 9.16016H10.8148C11.0898 9.16016 11.3148 8.93516 11.3148 8.66016C11.3148 8.38516 11.0898 8.16016 10.8148 8.16016H10.5898C10.3148 8.16016 10.0898 8.38516 10.0898 8.66016C10.0898 8.93516 10.3148 9.16016 10.5898 9.16016Z" fill="#A6ADBB" style="fill:#A6ADBB;fill:color(display-p3 0.6510 0.6784 0.7333);fill-opacity:1;"/>
<path d="M6.51504 8.16016H6.29004C6.01504 8.16016 5.79004 8.38516 5.79004 8.66016C5.79004 8.93516 6.01504 9.16016 6.29004 9.16016H6.51504C6.79004 9.16016 7.01504 8.93516 7.01504 8.66016C7.01504 8.38516 6.79004 8.16016 6.51504 8.16016Z" fill="#A6ADBB" style="fill:#A6ADBB;fill:color(display-p3 0.6510 0.6784 0.7333);fill-opacity:1;"/>
<path d="M8.66494 8.16016H8.43994C8.16494 8.16016 7.93994 8.38516 7.93994 8.66016C7.93994 8.93516 8.16494 9.16016 8.43994 9.16016H8.66494C8.93994 9.16016 9.16494 8.93516 9.16494 8.66016C9.16494 8.38516 8.93994 8.16016 8.66494 8.16016Z" fill="#A6ADBB" style="fill:#A6ADBB;fill:color(display-p3 0.6510 0.6784 0.7333);fill-opacity:1;"/>
<path d="M10.81 12.9355H10.585C10.31 12.9355 10.085 13.1605 10.085 13.4355C10.085 13.7105 10.31 13.9355 10.585 13.9355H10.81C11.085 13.9355 11.31 13.7105 11.31 13.4355C11.31 13.1605 11.085 12.9355 10.81 12.9355Z" fill="#A6ADBB" style="fill:#A6ADBB;fill:color(display-p3 0.6510 0.6784 0.7333);fill-opacity:1;"/>
<path d="M6.51504 12.9355H6.29004C6.01504 12.9355 5.79004 13.1605 5.79004 13.4355C5.79004 13.7105 6.01504 13.9355 6.29004 13.9355H6.51504C6.79004 13.9355 7.01504 13.7105 7.01504 13.4355C7.01504 13.1605 6.79004 12.9355 6.51504 12.9355Z" fill="#A6ADBB" style="fill:#A6ADBB;fill:color(display-p3 0.6510 0.6784 0.7333);fill-opacity:1;"/>
<path d="M8.66494 12.9355H8.43994C8.16494 12.9355 7.93994 13.1605 7.93994 13.4355C7.93994 13.7105 8.16494 13.9355 8.43994 13.9355H8.66494C8.93994 13.9355 9.16494 13.7105 9.16494 13.4355C9.16494 13.1605 8.93994 12.9355 8.66494 12.9355Z" fill="#A6ADBB" style="fill:#A6ADBB;fill:color(display-p3 0.6510 0.6784 0.7333);fill-opacity:1;"/>
<path d="M13.5 9.6157H13.07V7.7907C13.07 7.1307 12.53 6.5957 11.87 6.5957H3.355C3.16 6.5957 3 6.4357 3 6.2357V5.9507C3 5.7557 3.16 5.5957 3.355 5.5957H5.675C5.95 5.5957 6.175 5.3707 6.175 5.0957C6.175 4.8207 5.95 4.5957 5.675 4.5957H3.355C2.605 4.5957 2 5.2057 2 5.9507V13.6057C2 14.6507 2.85 15.5007 3.895 15.5007H11.87C12.53 15.5007 13.07 14.9607 13.07 14.3007V12.4807H13.5C13.775 12.4807 14 12.2557 14 11.9807V10.1207C14 9.8457 13.775 9.6207 13.5 9.6207V9.6157ZM3 13.6057V7.5407C3.115 7.5707 3.235 7.5957 3.355 7.5957H4.12V14.5007H3.895C3.4 14.5007 3 14.1007 3 13.6057ZM12.07 14.3007C12.07 14.4157 11.985 14.5007 11.87 14.5007H5.12V7.5957H11.87C11.98 7.5957 12.07 7.6807 12.07 7.7907V9.6157H11.775C10.985 9.6157 10.345 10.2557 10.345 11.0457C10.345 11.8357 10.985 12.4757 11.775 12.4757H12.07V14.2957V14.3007ZM13 11.4807H11.775C11.54 11.4807 11.345 11.2857 11.345 11.0507C11.345 10.8157 11.54 10.6207 11.775 10.6207H13V11.4807Z" fill="#A6ADBB" style="fill:#A6ADBB;fill:color(display-p3 0.6510 0.6784 0.7333);fill-opacity:1;"/>
<path d="M11.045 2.70445L8.73503 0.614453C8.57003 0.464453 8.32003 0.464453 8.15503 0.614453L5.84503 2.70445C5.71003 2.82445 5.66503 3.01445 5.73003 3.17945C5.79503 3.34445 5.95503 3.45945 6.13503 3.45945H7.07003V5.59445H9.83003V3.45945H10.765C10.945 3.45945 11.105 3.34945 11.17 3.17945C11.235 3.01445 11.19 2.82445 11.055 2.70445H11.045Z" fill="#E7FB78" fill-opacity="0.8" style="fill:#E7FB78;fill:color(display-p3 0.9059 0.9843 0.4706);fill-opacity:0.8;"/>
</svg>
