<svg width="18" height="20" viewBox="0 0 18 20" fill="none" xmlns="http://www.w3.org/2000/svg">
<path d="M9.07886 0L0.96521 4.5602V15.4398L9.07886 20L17.1925 15.4398V4.5602L9.07886 0Z" fill="url(#paint0_linear_2356_7869)" style=""/>
<path d="M2.43201 14.6161V5.38527L9.07878 1.65039L15.7249 5.38527V14.6161L9.07878 18.3516L2.43201 14.6161Z" fill="url(#paint1_linear_2356_7869)" style=""/>
<path d="M2.92163 14.3402V5.65961L9.0788 2.19922L15.236 5.65961V14.3402L9.0788 17.8012L2.92163 14.3402Z" fill="#736FA8" style="fill:#736FA8;fill:color(display-p3 0.4510 0.4353 0.6588);fill-opacity:1;"/>
<path opacity="0.3" d="M15.1034 5.71894C14.9951 5.69336 9.4313 2.56298 9.11729 2.58606C8.8193 2.6079 4.94223 4.37334 3.35295 5.70709C2.92936 6.06267 3.0838 11.3733 3.47535 11.276C3.8669 11.1781 4.15784 9.0321 8.46427 7.82624C12.7041 6.63909 14.5484 7.66591 15.0085 7.84994C15.1373 7.90172 15.3494 5.77696 15.1034 5.71894Z" fill="white" style="fill:white;fill-opacity:1;"/>
<path d="M0.96521 7.87399C0.96521 7.84966 1.03506 4.80537 1.16771 4.58827C1.30037 4.37118 8.90391 0.266377 9.125 0.208361C9.34609 0.149721 12.1946 1.75109 12.1946 1.75109L9.07886 0L0.96521 4.5602V7.87399Z" fill="url(#paint2_linear_2356_7869)" style=""/>
<path d="M11.9824 3.28125C11.9824 3.28125 15.5468 5.25505 15.5955 5.47776C15.6442 5.69984 15.7243 11.6655 15.7243 11.6655C15.7243 11.6655 15.7582 5.63933 15.7243 5.3848C15.691 5.13028 11.9824 3.28125 11.9824 3.28125Z" fill="white" style="fill:white;fill-opacity:1;"/>
<path d="M2.43208 10.4426C2.43208 10.4426 2.31352 5.45255 2.37376 5.29036C2.434 5.12816 9.07821 1.64844 9.07821 1.64844C9.07821 1.64844 2.66214 5.21862 2.53012 5.44507C2.39811 5.67152 2.43208 10.4426 2.43208 10.4426Z" fill="white" style="fill:white;fill-opacity:1;"/>
<path d="M0.96521 15.4385L9.07886 19.9987L17.1925 15.4385V12.9607C17.1925 12.9607 17.1246 15.1241 16.9586 15.3936C16.7926 15.6631 9.52488 19.7779 9.15512 19.8053C8.78471 19.8334 1.35484 15.5365 1.16002 15.2507C0.965209 14.965 0.96521 9.89453 0.96521 9.89453V15.4385Z" fill="url(#paint3_linear_2356_7869)" style=""/>
<path d="M2.4321 12.25C2.4321 12.25 2.40902 14.3791 2.53014 14.5575C2.65126 14.736 5.80418 16.5083 5.80418 16.5083C5.80418 16.5083 2.38852 14.7896 2.35648 14.6786C2.32508 14.5675 2.4321 12.25 2.4321 12.25Z" fill="white" style="fill:white;fill-opacity:1;"/>
<path d="M2.71519 14.6778C2.48256 14.7345 3.1721 15.1949 3.33488 15.2193C3.49765 15.2436 3.33744 14.8387 3.25798 14.7695C3.2003 14.7177 2.84592 14.646 2.71519 14.6778Z" fill="white" style="fill:white;fill-opacity:1;"/>
<path d="M9.07251 15.122L0.696757 10.3672C0.373134 11.0858 0.296875 11.7602 0.296875 11.7602L0.843508 12.6591L9.07251 17.3117L17.3015 12.6591L17.7969 11.7602C17.7969 11.7602 17.7982 11.0858 17.497 10.3672L9.07251 15.122Z" fill="url(#paint4_linear_2356_7869)" style=""/>
<path d="M0.843508 12.6607L0.296875 11.7617L9.07251 16.7661L17.7969 11.7617L17.3015 12.6607L9.07251 17.3132L0.843508 12.6607Z" fill="url(#paint5_linear_2356_7869)" style=""/>
<path opacity="0.5" d="M9.07251 15.1226V16.7646L17.7969 11.7602C17.7969 11.7602 17.7623 10.9367 17.497 10.3672L9.07251 15.1226Z" fill="url(#paint6_linear_2356_7869)" style=""/>
<path d="M4.80505 14.332C4.80505 14.332 8.81542 16.6733 9.07239 16.6733C9.32937 16.6733 12.531 14.7818 12.531 14.7818C12.531 14.7818 9.17045 16.856 9.07881 16.856C9.00767 16.8554 4.80505 14.332 4.80505 14.332Z" fill="white" style="fill:white;fill-opacity:1;"/>
<path d="M9.07251 12.3857L0.696757 7.63086C0.373134 8.34951 0.296875 9.02387 0.296875 9.02387L0.843508 9.92281L9.07251 14.5753L17.3015 9.92281L17.7969 9.02387C17.7969 9.02387 17.7982 8.34951 17.497 7.63086L9.07251 12.3857Z" fill="url(#paint7_linear_2356_7869)" style=""/>
<path d="M0.843508 9.92433L0.296875 9.02539L9.07251 14.0298L17.7969 9.02539L17.3015 9.92433L9.07251 14.5769L0.843508 9.92433Z" fill="url(#paint8_linear_2356_7869)" style=""/>
<path opacity="0.5" d="M9.07251 12.3863V14.0282L17.7969 9.02387C17.7969 9.02387 17.7623 8.20042 17.497 7.63086L9.07251 12.3863Z" fill="url(#paint9_linear_2356_7869)" style=""/>
<path d="M4.80505 11.5957C4.80505 11.5957 8.81542 13.9369 9.07239 13.9369C9.32937 13.9369 12.531 12.0455 12.531 12.0455C12.531 12.0455 9.17045 14.1197 9.07881 14.1197C9.00767 14.1191 4.80505 11.5957 4.80505 11.5957Z" fill="white" style="fill:white;fill-opacity:1;"/>
<path d="M11.793 6.66212L10.8227 6.52488L10.5574 6.48745L9.92747 6.39824L9.09246 4.75195L8.25809 6.39824L6.39197 6.66212L7.74221 7.94347L7.42372 9.75257L9.09246 8.89855L10.7618 9.75257L10.4427 7.94347L11.793 6.66212Z" fill="url(#paint10_linear_2356_7869)" style=""/>
<path opacity="0.5" d="M6.38232 6.66016L9.13152 7.36009L7.73257 7.9415L6.38232 6.66016Z" fill="url(#paint11_linear_2356_7869)" style=""/>
<path opacity="0.5" d="M11.7839 6.66016L9.13147 7.36009L10.4337 7.9415L11.7839 6.66016Z" fill="url(#paint12_linear_2356_7869)" style=""/>
<path opacity="0.5" d="M9.0828 8.89782L9.13151 7.36133L7.41406 9.75185L9.0828 8.89782Z" fill="url(#paint13_linear_2356_7869)" style=""/>
<path opacity="0.5" d="M10.7521 9.75185L9.13147 7.36133L9.08276 8.89782L10.7521 9.75185Z" fill="url(#paint14_linear_2356_7869)" style=""/>
<g style="mix-blend-mode:plus-lighter" opacity="0.5">
<path d="M9.08276 4.75195L9.13147 7.36206L9.91778 6.39824L9.08276 4.75195Z" fill="url(#paint15_linear_2356_7869)" style=""/>
</g>
<path opacity="0.5" d="M11.7839 6.66232L9.13147 7.36226L9.91778 6.39844L11.7839 6.66232Z" fill="url(#paint16_linear_2356_7869)" style=""/>
<g style="mix-blend-mode:plus-lighter" opacity="0.5">
<path d="M11.7839 6.66232L9.13147 7.36226L9.91778 6.39844L11.7839 6.66232Z" fill="url(#paint17_linear_2356_7869)" style=""/>
</g>
<g style="mix-blend-mode:plus-lighter" opacity="0.5">
<path d="M8.24844 6.39844L9.13152 7.36226L6.38232 6.66232L8.24844 6.39844Z" fill="url(#paint18_linear_2356_7869)" style=""/>
</g>
<defs>
<linearGradient id="paint0_linear_2356_7869" x1="9.07867" y1="20.3432" x2="9.07867" y2="3.19336" gradientUnits="userSpaceOnUse">
<stop offset="0.2103" stop-color="#98ABD2" style="stop-color:#98ABD2;stop-color:color(display-p3 0.5961 0.6706 0.8235);stop-opacity:1;"/>
<stop offset="0.4881" stop-color="#72719D" style="stop-color:#72719D;stop-color:color(display-p3 0.4471 0.4431 0.6157);stop-opacity:1;"/>
<stop offset="1" stop-color="#DAE1EF" style="stop-color:#DAE1EF;stop-color:color(display-p3 0.8549 0.8824 0.9373);stop-opacity:1;"/>
</linearGradient>
<linearGradient id="paint1_linear_2356_7869" x1="9.07858" y1="2.6831" x2="9.07858" y2="18.3069" gradientUnits="userSpaceOnUse">
<stop offset="0.2103" stop-color="#98ABD2" style="stop-color:#98ABD2;stop-color:color(display-p3 0.5961 0.6706 0.8235);stop-opacity:1;"/>
<stop offset="0.4881" stop-color="#72719D" style="stop-color:#72719D;stop-color:color(display-p3 0.4471 0.4431 0.6157);stop-opacity:1;"/>
<stop offset="1" stop-color="#DAE1EF" style="stop-color:#DAE1EF;stop-color:color(display-p3 0.8549 0.8824 0.9373);stop-opacity:1;"/>
</linearGradient>
<linearGradient id="paint2_linear_2356_7869" x1="0.965133" y1="3.93655" x2="12.1945" y2="3.93655" gradientUnits="userSpaceOnUse">
<stop stop-color="#728EE3" style="stop-color:#728EE3;stop-color:color(display-p3 0.4471 0.5569 0.8902);stop-opacity:1;"/>
<stop offset="1" stop-color="#836888" style="stop-color:#836888;stop-color:color(display-p3 0.5137 0.4078 0.5333);stop-opacity:1;"/>
</linearGradient>
<linearGradient id="paint3_linear_2356_7869" x1="0.965133" y1="14.9464" x2="17.1922" y2="14.9464" gradientUnits="userSpaceOnUse">
<stop stop-color="#728EE3" style="stop-color:#728EE3;stop-color:color(display-p3 0.4471 0.5569 0.8902);stop-opacity:1;"/>
<stop offset="1" stop-color="#836888" style="stop-color:#836888;stop-color:color(display-p3 0.5137 0.4078 0.5333);stop-opacity:1;"/>
</linearGradient>
<linearGradient id="paint4_linear_2356_7869" x1="9.04687" y1="4.72217" x2="9.04687" y2="17.1518" gradientUnits="userSpaceOnUse">
<stop offset="0.2103" stop-color="#98ABD2" style="stop-color:#98ABD2;stop-color:color(display-p3 0.5961 0.6706 0.8235);stop-opacity:1;"/>
<stop offset="0.4881" stop-color="#72719D" style="stop-color:#72719D;stop-color:color(display-p3 0.4471 0.4431 0.6157);stop-opacity:1;"/>
<stop offset="1" stop-color="#DAE1EF" style="stop-color:#DAE1EF;stop-color:color(display-p3 0.8549 0.8824 0.9373);stop-opacity:1;"/>
</linearGradient>
<linearGradient id="paint5_linear_2356_7869" x1="0.29692" y1="14.5374" x2="17.7968" y2="14.5374" gradientUnits="userSpaceOnUse">
<stop offset="0.2103" stop-color="#98ABD2" style="stop-color:#98ABD2;stop-color:color(display-p3 0.5961 0.6706 0.8235);stop-opacity:1;"/>
<stop offset="0.4881" stop-color="#72719D" style="stop-color:#72719D;stop-color:color(display-p3 0.4471 0.4431 0.6157);stop-opacity:1;"/>
<stop offset="1" stop-color="#DAE1EF" style="stop-color:#DAE1EF;stop-color:color(display-p3 0.8549 0.8824 0.9373);stop-opacity:1;"/>
</linearGradient>
<linearGradient id="paint6_linear_2356_7869" x1="13.6652" y1="16.9162" x2="13.131" y2="10.4716" gradientUnits="userSpaceOnUse">
<stop stop-color="#705AB8" style="stop-color:#705AB8;stop-color:color(display-p3 0.4392 0.3529 0.7216);stop-opacity:1;"/>
<stop offset="1" stop-color="white" style="stop-color:white;stop-opacity:1;"/>
</linearGradient>
<linearGradient id="paint7_linear_2356_7869" x1="9.04687" y1="1.98637" x2="9.04687" y2="14.416" gradientUnits="userSpaceOnUse">
<stop offset="0.2103" stop-color="#98ABD2" style="stop-color:#98ABD2;stop-color:color(display-p3 0.5961 0.6706 0.8235);stop-opacity:1;"/>
<stop offset="0.4881" stop-color="#72719D" style="stop-color:#72719D;stop-color:color(display-p3 0.4471 0.4431 0.6157);stop-opacity:1;"/>
<stop offset="1" stop-color="#DAE1EF" style="stop-color:#DAE1EF;stop-color:color(display-p3 0.8549 0.8824 0.9373);stop-opacity:1;"/>
</linearGradient>
<linearGradient id="paint8_linear_2356_7869" x1="0.29692" y1="11.801" x2="17.7968" y2="11.801" gradientUnits="userSpaceOnUse">
<stop offset="0.2103" stop-color="#98ABD2" style="stop-color:#98ABD2;stop-color:color(display-p3 0.5961 0.6706 0.8235);stop-opacity:1;"/>
<stop offset="0.4881" stop-color="#72719D" style="stop-color:#72719D;stop-color:color(display-p3 0.4471 0.4431 0.6157);stop-opacity:1;"/>
<stop offset="1" stop-color="#DAE1EF" style="stop-color:#DAE1EF;stop-color:color(display-p3 0.8549 0.8824 0.9373);stop-opacity:1;"/>
</linearGradient>
<linearGradient id="paint9_linear_2356_7869" x1="13.6652" y1="14.1804" x2="13.131" y2="7.73585" gradientUnits="userSpaceOnUse">
<stop stop-color="#705AB8" style="stop-color:#705AB8;stop-color:color(display-p3 0.4392 0.3529 0.7216);stop-opacity:1;"/>
<stop offset="1" stop-color="white" style="stop-color:white;stop-opacity:1;"/>
</linearGradient>
<linearGradient id="paint10_linear_2356_7869" x1="9.09267" y1="9.84671" x2="9.09267" y2="3.90402" gradientUnits="userSpaceOnUse">
<stop stop-color="#86759D" style="stop-color:#86759D;stop-color:color(display-p3 0.5255 0.4588 0.6157);stop-opacity:1;"/>
<stop offset="0.3889" stop-color="#98ABD2" style="stop-color:#98ABD2;stop-color:color(display-p3 0.5961 0.6706 0.8235);stop-opacity:1;"/>
<stop offset="1" stop-color="#DAE1EF" style="stop-color:#DAE1EF;stop-color:color(display-p3 0.8549 0.8824 0.9373);stop-opacity:1;"/>
</linearGradient>
<linearGradient id="paint11_linear_2356_7869" x1="6.3825" y1="7.30086" x2="9.13141" y2="7.30086" gradientUnits="userSpaceOnUse">
<stop stop-color="#705AB8" style="stop-color:#705AB8;stop-color:color(display-p3 0.4392 0.3529 0.7216);stop-opacity:1;"/>
<stop offset="1" stop-color="white" style="stop-color:white;stop-opacity:1;"/>
</linearGradient>
<linearGradient id="paint12_linear_2356_7869" x1="9.13136" y1="7.30086" x2="11.7836" y2="7.30086" gradientUnits="userSpaceOnUse">
<stop stop-color="#705AB8" style="stop-color:#705AB8;stop-color:color(display-p3 0.4392 0.3529 0.7216);stop-opacity:1;"/>
<stop offset="1" stop-color="white" style="stop-color:white;stop-opacity:1;"/>
</linearGradient>
<linearGradient id="paint13_linear_2356_7869" x1="7.41402" y1="8.55649" x2="9.1314" y2="8.55649" gradientUnits="userSpaceOnUse">
<stop stop-color="#705AB8" style="stop-color:#705AB8;stop-color:color(display-p3 0.4392 0.3529 0.7216);stop-opacity:1;"/>
<stop offset="1" stop-color="white" style="stop-color:white;stop-opacity:1;"/>
</linearGradient>
<linearGradient id="paint14_linear_2356_7869" x1="9.08304" y1="8.55649" x2="10.7521" y2="8.55649" gradientUnits="userSpaceOnUse">
<stop stop-color="#705AB8" style="stop-color:#705AB8;stop-color:color(display-p3 0.4392 0.3529 0.7216);stop-opacity:1;"/>
<stop offset="1" stop-color="white" style="stop-color:white;stop-opacity:1;"/>
</linearGradient>
<linearGradient id="paint15_linear_2356_7869" x1="9.32997" y1="5.14454" x2="9.68432" y2="8.48124" gradientUnits="userSpaceOnUse">
<stop stop-color="#BFD7FF" style="stop-color:#BFD7FF;stop-color:color(display-p3 0.7490 0.8431 1.0000);stop-opacity:1;"/>
<stop offset="1" style="stop-color:black;stop-opacity:1;"/>
</linearGradient>
<linearGradient id="paint16_linear_2356_7869" x1="9.13136" y1="6.8802" x2="11.7836" y2="6.8802" gradientUnits="userSpaceOnUse">
<stop stop-color="#BFD7FF" style="stop-color:#BFD7FF;stop-color:color(display-p3 0.7490 0.8431 1.0000);stop-opacity:1;"/>
<stop offset="1" style="stop-color:black;stop-opacity:1;"/>
</linearGradient>
<linearGradient id="paint17_linear_2356_7869" x1="10.2374" y1="5.04837" x2="10.5918" y2="8.38507" gradientUnits="userSpaceOnUse">
<stop stop-color="#BFD7FF" style="stop-color:#BFD7FF;stop-color:color(display-p3 0.7490 0.8431 1.0000);stop-opacity:1;"/>
<stop offset="1" style="stop-color:black;stop-opacity:1;"/>
</linearGradient>
<linearGradient id="paint18_linear_2356_7869" x1="7.56864" y1="5.33179" x2="7.92298" y2="8.66849" gradientUnits="userSpaceOnUse">
<stop stop-color="#BFD7FF" style="stop-color:#BFD7FF;stop-color:color(display-p3 0.7490 0.8431 1.0000);stop-opacity:1;"/>
<stop offset="1" style="stop-color:black;stop-opacity:1;"/>
</linearGradient>
</defs>
</svg>
