<svg width="18" height="21" viewBox="0 0 18 21" fill="none" xmlns="http://www.w3.org/2000/svg">
<path d="M9.19876 0.931641L1.27844 5.49147V16.3712L9.19876 20.9316L17.1184 16.3712V5.49147L9.19876 0.931641Z" fill="url(#paint0_linear_2356_2168)" style=""/>
<path d="M2.71069 15.5461V6.31538L9.1988 2.58008L15.6863 6.31538V15.5461L9.1988 19.2814L2.71069 15.5461Z" fill="url(#paint1_linear_2356_2168)" style=""/>
<path d="M3.18787 15.2717V6.59112L9.19877 3.13086L15.2091 6.59112V15.2717L9.19877 18.7326L3.18787 15.2717Z" fill="url(#paint2_linear_2356_2168)" style=""/>
<path opacity="0.4" d="M15.1014 6.65052C14.9957 6.62495 9.56456 3.49463 9.25748 3.51771C8.96666 3.53953 5.18224 5.30458 3.63057 6.63867C3.21655 6.99417 3.3679 12.3049 3.75003 12.2076C4.13216 12.1097 4.41672 9.96358 8.61954 8.75736C12.7586 7.56985 14.5592 8.59707 15.0082 8.78106C15.1352 8.83345 15.3416 6.70852 15.1014 6.65052Z" fill="#FFDF66" style="fill:#FFDF66;fill:color(display-p3 1.0000 0.8745 0.4000);fill-opacity:1;"/>
<path opacity="0.8" d="M1.27844 8.8064C1.27844 8.78208 1.34661 5.73783 1.47608 5.52078C1.60554 5.30374 9.02802 1.19858 9.24379 1.14058C9.45956 1.08195 12.2402 2.68297 12.2402 2.68297L9.19876 0.931641L1.27844 5.49147V8.8064Z" fill="#700000" style="fill:#700000;fill:color(display-p3 0.4392 0.0000 0.0000);fill-opacity:1;"/>
<path d="M12.0332 4.21289C12.0332 4.21289 15.5124 6.18688 15.5599 6.40892C15.6075 6.63095 15.6857 12.5966 15.6857 12.5966C15.6857 12.5966 15.7188 6.57045 15.6857 6.31599C15.6531 6.06152 12.0332 4.21289 12.0332 4.21289Z" fill="white" style="fill:white;fill-opacity:1;"/>
<path d="M2.71066 11.3742C2.71066 11.3742 2.59495 6.38399 2.65374 6.22183C2.71253 6.05967 9.19876 2.58008 9.19876 2.58008C9.19876 2.58008 2.93581 6.15073 2.80697 6.3765C2.67751 6.60291 2.71066 11.3742 2.71066 11.3742Z" fill="white" style="fill:white;fill-opacity:1;"/>
<path opacity="0.8" d="M1.27844 16.3721L9.19876 20.932L17.1191 16.3721V13.8942C17.1191 13.8942 17.0528 16.0578 16.8908 16.3272C16.7288 16.5967 9.63467 20.7112 9.27318 20.7393C8.91169 20.7673 1.6587 16.4701 1.46857 16.1844C1.27844 15.8988 1.27844 10.8281 1.27844 10.8281V16.3721Z" fill="#700000" style="fill:#700000;fill:color(display-p3 0.4392 0.0000 0.0000);fill-opacity:1;"/>
<path d="M2.71065 13.1836C2.71065 13.1836 2.68814 15.3123 2.80634 15.4913C2.92455 15.6696 6.00224 17.4416 6.00224 17.4416C6.00224 17.4416 2.66813 15.7226 2.63686 15.6116C2.60621 15.5006 2.71065 13.1836 2.71065 13.1836Z" fill="white" style="fill:white;fill-opacity:1;"/>
<path opacity="0.5" d="M3.13094 6.52729C3.04714 6.27719 2.79134 6.27843 2.7682 6.55723C2.74506 6.83602 2.70503 12.0083 2.80635 12.0164C2.90829 12.0245 3.12281 11.7707 3.13094 11.6516C3.13907 11.5324 3.17097 6.64641 3.13094 6.52729Z" fill="#DE5634" style="fill:#DE5634;fill:color(display-p3 0.8706 0.3373 0.2039);fill-opacity:1;"/>
<path opacity="0.5" d="M15.2659 6.5596C15.2522 6.65814 15.2021 11.541 15.2659 11.541C15.3297 11.541 15.6162 11.3109 15.6162 11.1918C15.6162 11.0726 15.5449 6.45606 15.513 6.43236C15.4804 6.40866 15.2772 6.47977 15.2659 6.5596Z" fill="#DE5634" style="fill:#DE5634;fill:color(display-p3 0.8706 0.3373 0.2039);fill-opacity:1;"/>
<path opacity="0.5" d="M9.19878 3.05088C9.19878 3.14693 6.40816 4.73485 6.34249 4.73485C6.27682 4.73485 6.30059 4.30637 6.39002 4.24712C6.47946 4.18787 9.17877 2.56876 9.19878 2.6224C9.21817 2.67604 9.19815 2.97105 9.19878 3.05088Z" fill="#DE5634" style="fill:#DE5634;fill:color(display-p3 0.8706 0.3373 0.2039);fill-opacity:1;"/>
<path d="M2.98712 15.6114C2.76009 15.6681 3.43304 16.129 3.5919 16.1527C3.75075 16.1764 3.5944 15.7723 3.51685 15.703C3.46056 15.6513 3.11408 15.5796 2.98712 15.6114Z" fill="white" style="fill:white;fill-opacity:1;"/>
<path d="M9.19247 16.0539L1.01636 11.2988C0.700523 12.0173 0.626099 12.6915 0.626099 12.6915L1.15958 13.5909L9.19247 18.2437L17.2254 13.5909L17.7088 12.6915C17.7088 12.6915 17.7101 12.0173 17.4161 11.2988L9.19247 16.0539Z" fill="url(#paint3_linear_2356_2168)" style=""/>
<path d="M1.15958 13.5908L0.626099 12.6914L9.19247 17.6959L17.7088 12.6914L17.2247 13.5908L9.19247 18.2429L1.15958 13.5908Z" fill="url(#paint4_linear_2356_2168)" style=""/>
<path opacity="0.5" d="M0.626099 12.6914L1.15958 13.5908L1.28154 13.6656L1.27903 13.9332C1.27903 13.9332 1.73747 14.1658 2.63807 14.6623C2.66872 14.6791 3.20345 15.2429 3.20345 15.2429C3.20345 15.2429 8.98983 18.7319 9.19935 18.7319C9.46953 18.7319 15.2103 15.1656 15.2103 15.1656C15.2103 15.1656 15.6574 14.7914 15.7018 14.7652L17.1197 14.0249V13.6525L17.226 13.5908L17.7094 12.6914L9.1931 17.6953L0.626099 12.6914Z" fill="#DE5634" style="fill:#DE5634;fill:color(display-p3 0.8706 0.3373 0.2039);fill-opacity:1;"/>
<path opacity="0.4" d="M1.43721 11.6602C1.28086 11.6602 1.40907 13.041 1.88439 13.3585C2.63927 13.8624 7.1892 16.5374 7.48752 16.5406C7.69329 16.5424 7.68266 15.3699 7.62074 15.2788C7.50316 15.1067 1.6705 11.6602 1.43721 11.6602Z" fill="#FFDF66" style="fill:#FFDF66;fill:color(display-p3 1.0000 0.8745 0.4000);fill-opacity:1;"/>
<path d="M5.02649 15.2617C5.02649 15.2617 8.94162 17.6031 9.19178 17.6031C9.44258 17.6031 12.5678 15.7114 12.5678 15.7114C12.5678 15.7114 9.28747 17.7858 9.19804 17.7858C9.12862 17.7852 5.02649 15.2617 5.02649 15.2617Z" fill="white" style="fill:white;fill-opacity:1;"/>
<path d="M9.19247 13.3918L1.01636 8.63672C0.700523 9.35521 0.626099 10.0294 0.626099 10.0294L1.15958 10.9288L9.19247 15.5816L17.2254 10.9288L17.7088 10.0294C17.7088 10.0294 17.7101 9.35521 17.4161 8.63672L9.19247 13.3918Z" fill="url(#paint5_linear_2356_2168)" style=""/>
<path d="M1.15958 10.9287L0.626099 10.0293L9.19247 15.0338L17.7088 10.0293L17.2247 10.9287L9.19247 15.5814L1.15958 10.9287Z" fill="url(#paint6_linear_2356_2168)" style=""/>
<path opacity="0.5" d="M0.626099 10.0293L1.15958 10.9287L1.28154 11.0035L1.27903 11.2711C1.27903 11.2711 1.73747 11.5037 2.63807 12.0002C2.66872 12.017 3.20345 12.5808 3.20345 12.5808C3.20345 12.5808 8.98983 16.0698 9.19935 16.0698C9.46953 16.0698 15.2103 12.5035 15.2103 12.5035C15.2103 12.5035 15.6574 12.1293 15.7018 12.1031L17.1197 11.3628V10.9904L17.226 10.9287L17.7094 10.0293L9.1931 15.0332L0.626099 10.0293Z" fill="#DE5634" style="fill:#DE5634;fill:color(display-p3 0.8706 0.3373 0.2039);fill-opacity:1;"/>
<path opacity="0.4" d="M1.43721 8.99805C1.28086 8.99805 1.40907 10.3789 1.88439 10.6964C2.63927 11.2003 7.1892 13.8753 7.48752 13.8785C7.69329 13.8809 7.68266 12.7078 7.62074 12.6167C7.50316 12.444 1.6705 8.99805 1.43721 8.99805Z" fill="#FFDF66" style="fill:#FFDF66;fill:color(display-p3 1.0000 0.8745 0.4000);fill-opacity:1;"/>
<path d="M5.02649 12.5996C5.02649 12.5996 8.94162 14.941 9.19178 14.941C9.44258 14.941 12.5678 13.0493 12.5678 13.0493C12.5678 13.0493 9.28747 15.1237 9.19804 15.1237C9.12862 15.1231 5.02649 12.5996 5.02649 12.5996Z" fill="white" style="fill:white;fill-opacity:1;"/>
<path d="M11.848 7.49178L10.9005 7.35457L10.6415 7.31715L10.0268 7.22796L9.21183 5.58203L8.39753 7.22796L6.57568 7.49178L7.89407 8.77348L7.58261 10.5828L9.21183 9.72836L10.841 10.5828L10.5302 8.77348L11.848 7.49178Z" fill="url(#paint7_linear_2356_2168)" style=""/>
<path opacity="0.37" d="M6.56628 7.49219L9.24996 8.19198L7.88467 8.77388L6.56628 7.49219Z" fill="url(#paint8_linear_2356_2168)" style=""/>
<path opacity="0.37" d="M11.8385 7.49219L9.24988 8.19198L10.5207 8.77388L11.8385 7.49219Z" fill="url(#paint9_linear_2356_2168)" style=""/>
<path opacity="0.37" d="M9.20246 9.72819L9.24999 8.19141L7.57324 10.5826L9.20246 9.72819Z" fill="url(#paint10_linear_2356_2168)" style=""/>
<path opacity="0.37" d="M10.8316 10.5826L9.24993 8.19141L9.20239 9.72819L10.8316 10.5826Z" fill="url(#paint11_linear_2356_2168)" style=""/>
<g style="mix-blend-mode:plus-lighter" opacity="0.5">
<path d="M9.20239 5.58203L9.24993 8.19157L10.0173 7.22796L9.20239 5.58203Z" fill="url(#paint12_linear_2356_2168)" style=""/>
</g>
<g style="mix-blend-mode:plus-lighter" opacity="0.5">
<path d="M11.8385 7.49234L9.24988 8.19213L10.0173 7.22852L11.8385 7.49234Z" fill="url(#paint13_linear_2356_2168)" style=""/>
</g>
<g style="mix-blend-mode:plus-lighter" opacity="0.5">
<path d="M8.38813 7.22852L9.24996 8.19213L6.56628 7.49234L8.38813 7.22852Z" fill="url(#paint14_linear_2356_2168)" style=""/>
</g>
<defs>
<linearGradient id="paint0_linear_2356_2168" x1="9.19846" y1="21.275" x2="9.19846" y2="4.12494" gradientUnits="userSpaceOnUse">
<stop stop-color="#CA6B34" style="stop-color:#CA6B34;stop-color:color(display-p3 0.7922 0.4196 0.2039);stop-opacity:1;"/>
<stop offset="0.6667" stop-color="#FFA933" style="stop-color:#FFA933;stop-color:color(display-p3 1.0000 0.6627 0.2000);stop-opacity:1;"/>
<stop offset="1" stop-color="#FFBD2B" style="stop-color:#FFBD2B;stop-color:color(display-p3 1.0000 0.7412 0.1686);stop-opacity:1;"/>
</linearGradient>
<linearGradient id="paint1_linear_2356_2168" x1="9.19849" y1="1.10845" x2="9.19849" y2="18.3474" gradientUnits="userSpaceOnUse">
<stop stop-color="#CA6B34" style="stop-color:#CA6B34;stop-color:color(display-p3 0.7922 0.4196 0.2039);stop-opacity:1;"/>
<stop offset="0.1742" stop-color="#CC6E34" style="stop-color:#CC6E34;stop-color:color(display-p3 0.8000 0.4314 0.2039);stop-opacity:1;"/>
<stop offset="0.2919" stop-color="#D27733" style="stop-color:#D27733;stop-color:color(display-p3 0.8235 0.4667 0.2000);stop-opacity:1;"/>
<stop offset="0.3931" stop-color="#DB8631" style="stop-color:#DB8631;stop-color:color(display-p3 0.8588 0.5255 0.1922);stop-opacity:1;"/>
<stop offset="0.4848" stop-color="#E99B2F" style="stop-color:#E99B2F;stop-color:color(display-p3 0.9137 0.6078 0.1843);stop-opacity:1;"/>
<stop offset="0.5694" stop-color="#FBB72C" style="stop-color:#FBB72C;stop-color:color(display-p3 0.9843 0.7176 0.1725);stop-opacity:1;"/>
<stop offset="0.5853" stop-color="#FFBD2B" style="stop-color:#FFBD2B;stop-color:color(display-p3 1.0000 0.7412 0.1686);stop-opacity:1;"/>
<stop offset="1" stop-color="#FFA933" style="stop-color:#FFA933;stop-color:color(display-p3 1.0000 0.6627 0.2000);stop-opacity:1;"/>
</linearGradient>
<linearGradient id="paint2_linear_2356_2168" x1="9.19847" y1="18.7325" x2="9.19847" y2="3.13059" gradientUnits="userSpaceOnUse">
<stop stop-color="#B75014" style="stop-color:#B75014;stop-color:color(display-p3 0.7176 0.3137 0.0784);stop-opacity:1;"/>
<stop offset="0.375" stop-color="#E8692A" style="stop-color:#E8692A;stop-color:color(display-p3 0.9098 0.4118 0.1647);stop-opacity:1;"/>
<stop offset="1" stop-color="#F58E2F" style="stop-color:#F58E2F;stop-color:color(display-p3 0.9608 0.5569 0.1843);stop-opacity:1;"/>
</linearGradient>
<linearGradient id="paint3_linear_2356_2168" x1="9.16733" y1="4.00364" x2="9.16733" y2="16.4334" gradientUnits="userSpaceOnUse">
<stop stop-color="#CA6B34" style="stop-color:#CA6B34;stop-color:color(display-p3 0.7922 0.4196 0.2039);stop-opacity:1;"/>
<stop offset="0.6667" stop-color="#FFA933" style="stop-color:#FFA933;stop-color:color(display-p3 1.0000 0.6627 0.2000);stop-opacity:1;"/>
<stop offset="1" stop-color="#FFBD2B" style="stop-color:#FFBD2B;stop-color:color(display-p3 1.0000 0.7412 0.1686);stop-opacity:1;"/>
</linearGradient>
<linearGradient id="paint4_linear_2356_2168" x1="9.16733" y1="18.2431" x2="9.16733" y2="12.6914" gradientUnits="userSpaceOnUse">
<stop stop-color="#F1CB3C" style="stop-color:#F1CB3C;stop-color:color(display-p3 0.9451 0.7961 0.2353);stop-opacity:1;"/>
<stop offset="1" stop-color="#FFC14F" style="stop-color:#FFC14F;stop-color:color(display-p3 1.0000 0.7569 0.3098);stop-opacity:1;"/>
</linearGradient>
<linearGradient id="paint5_linear_2356_2168" x1="9.16733" y1="1.97647" x2="9.16733" y2="14.4062" gradientUnits="userSpaceOnUse">
<stop stop-color="#CA6B34" style="stop-color:#CA6B34;stop-color:color(display-p3 0.7922 0.4196 0.2039);stop-opacity:1;"/>
<stop offset="0.6667" stop-color="#FFA933" style="stop-color:#FFA933;stop-color:color(display-p3 1.0000 0.6627 0.2000);stop-opacity:1;"/>
<stop offset="1" stop-color="#FFBD2B" style="stop-color:#FFBD2B;stop-color:color(display-p3 1.0000 0.7412 0.1686);stop-opacity:1;"/>
</linearGradient>
<linearGradient id="paint6_linear_2356_2168" x1="9.16733" y1="15.5811" x2="9.16733" y2="10.0294" gradientUnits="userSpaceOnUse">
<stop stop-color="#F1CB3C" style="stop-color:#F1CB3C;stop-color:color(display-p3 0.9451 0.7961 0.2353);stop-opacity:1;"/>
<stop offset="1" stop-color="#FFC14F" style="stop-color:#FFC14F;stop-color:color(display-p3 1.0000 0.7569 0.3098);stop-opacity:1;"/>
</linearGradient>
<linearGradient id="paint7_linear_2356_2168" x1="9.21193" y1="10.6766" x2="9.21193" y2="4.73388" gradientUnits="userSpaceOnUse">
<stop stop-color="#CA6B34" style="stop-color:#CA6B34;stop-color:color(display-p3 0.7922 0.4196 0.2039);stop-opacity:1;"/>
<stop offset="0.6667" stop-color="#FFA933" style="stop-color:#FFA933;stop-color:color(display-p3 1.0000 0.6627 0.2000);stop-opacity:1;"/>
<stop offset="1" stop-color="#FFBD2B" style="stop-color:#FFBD2B;stop-color:color(display-p3 1.0000 0.7412 0.1686);stop-opacity:1;"/>
</linearGradient>
<linearGradient id="paint8_linear_2356_2168" x1="7.90806" y1="7.49248" x2="7.90806" y2="8.77378" gradientUnits="userSpaceOnUse">
<stop stop-color="#C10065" style="stop-color:#C10065;stop-color:color(display-p3 0.7569 0.0000 0.3961);stop-opacity:1;"/>
<stop offset="1" stop-color="white" style="stop-color:white;stop-opacity:1;"/>
</linearGradient>
<linearGradient id="paint9_linear_2356_2168" x1="10.5442" y1="7.49248" x2="10.5442" y2="8.77378" gradientUnits="userSpaceOnUse">
<stop stop-color="#C10065" style="stop-color:#C10065;stop-color:color(display-p3 0.7569 0.0000 0.3961);stop-opacity:1;"/>
<stop offset="1" stop-color="white" style="stop-color:white;stop-opacity:1;"/>
</linearGradient>
<linearGradient id="paint10_linear_2356_2168" x1="8.41156" y1="8.19151" x2="8.41156" y2="10.5824" gradientUnits="userSpaceOnUse">
<stop stop-color="#C10065" style="stop-color:#C10065;stop-color:color(display-p3 0.7569 0.0000 0.3961);stop-opacity:1;"/>
<stop offset="1" stop-color="white" style="stop-color:white;stop-opacity:1;"/>
</linearGradient>
<linearGradient id="paint11_linear_2356_2168" x1="9.22867" y1="9.2264" x2="10.6984" y2="9.2264" gradientUnits="userSpaceOnUse">
<stop stop-color="#C10065" style="stop-color:#C10065;stop-color:color(display-p3 0.7569 0.0000 0.3961);stop-opacity:1;"/>
<stop offset="1" stop-color="white" style="stop-color:white;stop-opacity:1;"/>
</linearGradient>
<linearGradient id="paint12_linear_2356_2168" x1="9.4436" y1="5.97442" x2="9.8064" y2="9.30932" gradientUnits="userSpaceOnUse">
<stop stop-color="#BFD7FF" style="stop-color:#BFD7FF;stop-color:color(display-p3 0.7490 0.8431 1.0000);stop-opacity:1;"/>
<stop offset="1" style="stop-color:black;stop-opacity:1;"/>
</linearGradient>
<linearGradient id="paint13_linear_2356_2168" x1="9.24967" y1="7.71045" x2="11.8387" y2="7.71045" gradientUnits="userSpaceOnUse">
<stop stop-color="#BFD7FF" style="stop-color:#BFD7FF;stop-color:color(display-p3 0.7490 0.8431 1.0000);stop-opacity:1;"/>
<stop offset="1" style="stop-color:black;stop-opacity:1;"/>
</linearGradient>
<linearGradient id="paint14_linear_2356_2168" x1="7.72424" y1="6.16203" x2="8.08704" y2="9.49692" gradientUnits="userSpaceOnUse">
<stop stop-color="#BFD7FF" style="stop-color:#BFD7FF;stop-color:color(display-p3 0.7490 0.8431 1.0000);stop-opacity:1;"/>
<stop offset="1" style="stop-color:black;stop-opacity:1;"/>
</linearGradient>
</defs>
</svg>
