<svg width="68" height="16" viewBox="0 0 68 16" fill="none" xmlns="http://www.w3.org/2000/svg">
<g clip-path="url(#clip0_2248_36813)">
<path d="M32.4848 7.12807H27.9759C27.7919 7.12807 27.6153 7.2012 27.4851 7.33137C27.355 7.46154 27.2818 7.63809 27.2818 7.82218V8.16784C27.2818 8.35193 27.355 8.52848 27.4851 8.65865C27.6153 8.78882 27.7919 8.86195 27.9759 8.86195H31.5048C31.3141 9.60342 30.8836 10.261 30.2803 10.7324C29.677 11.2037 28.9347 11.4623 28.1691 11.468C27.4036 11.4736 26.6576 11.2259 26.0474 10.7635C25.4373 10.3011 24.9971 9.64987 24.7956 8.91129C24.594 8.1727 24.6423 7.38819 24.933 6.67991C25.2236 5.97163 25.7403 5.37935 26.4026 4.99529C27.0649 4.61123 27.8356 4.45694 28.5947 4.55646C29.3538 4.65598 30.0587 5.00371 30.5997 5.54552L30.7218 5.66768C30.8519 5.79738 31.0281 5.87021 31.2119 5.87021C31.3956 5.87021 31.5718 5.79738 31.7019 5.66768L31.9462 5.42335C32.0759 5.29325 32.1488 5.11703 32.1488 4.93332C32.1488 4.7496 32.0759 4.57339 31.9462 4.44328L31.8241 4.32112C30.9761 3.47521 29.8624 2.94757 28.6708 2.82716C27.4791 2.70676 26.2824 3.00095 25.2824 3.66014C24.2823 4.31933 23.5402 5.30319 23.1811 6.44583C22.822 7.58846 22.8679 8.81997 23.3111 9.93271C23.7543 11.0454 24.5676 11.9713 25.6139 12.5542C26.6602 13.1371 27.8755 13.3414 29.0549 13.1327C30.2343 12.9239 31.3056 12.3148 32.0882 11.4081C32.8708 10.5014 33.3169 9.35259 33.3511 8.15535C33.3511 8.10167 33.3511 8.04799 33.3511 7.99431C33.3511 7.76457 33.2598 7.54424 33.0974 7.38179C32.9349 7.21934 32.7146 7.12807 32.4848 7.12807Z" fill="#002CB8" style="fill:#002CB8;fill:color(display-p3 0.0000 0.1725 0.7216);fill-opacity:1;"/>
<path d="M43.3352 10.1675C43.1997 10.0431 43.0203 9.97769 42.8365 9.9855C42.6528 9.99331 42.4796 10.0737 42.3551 10.2091L42.2385 10.3368C41.7753 10.8437 41.1722 11.2019 40.5054 11.3659C39.8386 11.5299 39.1382 11.4924 38.4927 11.2582C37.8472 11.024 37.2857 10.6035 36.8792 10.0501C36.4728 9.49664 36.2397 8.83506 36.2093 8.14907C36.179 7.46308 36.3529 6.78351 36.7089 6.19636C37.0649 5.60921 37.5871 5.14086 38.2094 4.8506C38.8317 4.56034 39.5261 4.4612 40.2048 4.56573C40.8835 4.67027 41.5159 4.97377 42.022 5.43784C42.0645 5.47671 42.1057 5.5165 42.1455 5.55723L42.2552 5.6669C42.3853 5.7966 42.5615 5.86943 42.7452 5.86943C42.9289 5.86943 43.1051 5.7966 43.2353 5.6669L43.4796 5.42257C43.6093 5.29246 43.6821 5.11624 43.6821 4.93253C43.6821 4.74882 43.6093 4.5726 43.4796 4.44249L43.3574 4.32034C42.6234 3.58678 41.6866 3.08968 40.6677 2.89303C39.6487 2.69638 38.5942 2.80917 37.6399 3.21689C36.6856 3.6246 35.8752 4.30858 35.3129 5.1808C34.7506 6.05302 34.4622 7.07355 34.4849 8.11105C34.5075 9.14855 34.8401 10.1555 35.4399 11.0024C36.0397 11.8493 36.8792 12.4973 37.8504 12.863C38.8215 13.2287 39.8799 13.2954 40.8893 13.0545C41.8987 12.8136 42.8129 12.2761 43.5143 11.5113L43.6309 11.3835C43.7552 11.248 43.8207 11.0686 43.8129 10.8849C43.805 10.7011 43.7246 10.528 43.5892 10.4035L43.3352 10.1675Z" fill="#002CB8" style="fill:#002CB8;fill:color(display-p3 0.0000 0.1725 0.7216);fill-opacity:1;"/>
<path d="M51.6622 5.44027H51.3221C51.138 5.44027 50.9615 5.51341 50.8313 5.64357C50.7012 5.77374 50.628 5.95029 50.628 6.13438V6.28569C50.038 5.75661 49.2783 5.45579 48.486 5.4375C47.4583 5.4375 46.4726 5.84578 45.7459 6.57252C45.0191 7.29925 44.6108 8.28492 44.6108 9.31269C44.6108 10.3404 45.0191 11.3261 45.7459 12.0529C46.4726 12.7796 47.4583 13.1879 48.486 13.1879C49.2718 13.171 50.028 12.8848 50.628 12.3772V12.4924C50.628 12.6765 50.7012 12.853 50.8313 12.9832C50.9615 13.1134 51.138 13.1865 51.3221 13.1865H51.6622C51.8463 13.1865 52.0229 13.1134 52.1531 12.9832C52.2832 12.853 52.3564 12.6765 52.3564 12.4924V6.13716C52.3567 6.04577 52.339 5.95522 52.3043 5.87068C52.2696 5.78615 52.2185 5.7093 52.154 5.64455C52.0895 5.57981 52.0129 5.52843 51.9285 5.49337C51.8441 5.45832 51.7536 5.44027 51.6622 5.44027ZM50.6211 9.45498C50.5861 10.0107 50.3363 10.531 49.9244 10.9057C49.5126 11.2804 48.9711 11.4802 48.4146 11.4627C47.858 11.4452 47.3302 11.2118 46.9427 10.8119C46.5552 10.4121 46.3385 9.87712 46.3385 9.32032C46.3385 8.76352 46.5552 8.22857 46.9427 7.82872C47.3302 7.42886 47.858 7.19548 48.4146 7.17798C48.9711 7.16049 49.5126 7.36024 49.9244 7.73496C50.3363 8.10968 50.5861 8.62996 50.6211 9.18566C50.6267 9.27534 50.6267 9.36529 50.6211 9.45498Z" fill="#002CB8" style="fill:#002CB8;fill:color(display-p3 0.0000 0.1725 0.7216);fill-opacity:1;"/>
<path d="M67.5594 7.27459C66.9541 6.06269 65.8088 5.39635 64.336 5.39635C63.9758 5.38477 63.6173 5.44982 63.2842 5.58718C62.951 5.72455 62.6509 5.93111 62.4036 6.19318V3.41676C62.4036 3.23267 62.3304 3.05612 62.2003 2.92595C62.0701 2.79578 61.8936 2.72266 61.7095 2.72266H61.3596C61.1755 2.72266 60.999 2.79578 60.8688 2.92595C60.7387 3.05612 60.6655 3.23267 60.6655 3.41676V12.504C60.6655 12.6881 60.7387 12.8646 60.8688 12.9948C60.999 13.1249 61.1755 13.1981 61.3596 13.1981H61.7053C61.8894 13.1981 62.0659 13.1249 62.1961 12.9948C62.3263 12.8646 62.3994 12.6881 62.3994 12.504V9.0626C62.418 8.71124 62.5068 8.36715 62.6604 8.0506C62.9727 7.42313 63.5072 7.13022 64.3346 7.13022C65.1619 7.13022 65.67 7.40786 65.9879 8.00895C66.1534 8.33829 66.2479 8.69864 66.2656 9.06677V12.5012C66.2656 12.6853 66.3387 12.8618 66.4689 12.992C66.599 13.1222 66.7756 13.1953 66.9597 13.1953H67.3067C67.4908 13.1953 67.6674 13.1222 67.7975 12.992C67.9277 12.8618 68.0008 12.6853 68.0008 12.5012V9.06399C67.984 8.44273 67.8334 7.83239 67.5594 7.27459Z" fill="#002CB8" style="fill:#002CB8;fill:color(display-p3 0.0000 0.1725 0.7216);fill-opacity:1;"/>
<path d="M58.732 9.29125C58.2544 8.8498 57.5645 8.57077 56.6802 8.45832C56.0027 8.37503 55.7084 8.18068 55.5918 8.07518C55.5303 8.02063 55.4842 7.95088 55.4582 7.87292C55.4321 7.79496 55.427 7.71152 55.4433 7.63095C55.4738 7.33109 55.8598 7.03263 56.6524 7.09094C57.0397 7.1187 57.7463 7.45603 57.9018 7.55321L58.0503 7.64344C58.2057 7.73895 58.3924 7.76948 58.5701 7.72844C58.7478 7.68739 58.9022 7.57807 58.9999 7.42411L59.1817 7.12842C59.2782 6.97221 59.3088 6.78415 59.2669 6.60542C59.225 6.42668 59.114 6.27181 58.9582 6.17472L58.8111 6.08449C58.8 6.08449 57.7005 5.44035 56.7801 5.37094C55.9653 5.31125 55.2406 5.48339 54.6867 5.86793C54.4101 6.05708 54.1794 6.30592 54.0118 6.59609C53.8441 6.88626 53.7437 7.21037 53.718 7.5445C53.6923 7.87864 53.7419 8.21428 53.8632 8.52669C53.9845 8.8391 54.1744 9.12029 54.4188 9.34955C54.8963 9.791 55.5863 10.0714 56.4706 10.1825C57.148 10.2658 57.4423 10.4601 57.5589 10.5642C57.6205 10.6187 57.6667 10.6884 57.6928 10.7664C57.7189 10.8444 57.7239 10.9279 57.7075 11.0085C57.6769 11.3097 57.291 11.6068 56.4983 11.5499C56.111 11.5207 55.4044 11.1848 55.2489 11.0876L55.1004 10.9974C54.9436 10.9018 54.7554 10.8723 54.577 10.9153C54.3985 10.9582 54.2443 11.0701 54.1481 11.2264L53.9676 11.5221C53.8716 11.6788 53.8416 11.8672 53.8843 12.046C53.9269 12.2248 54.0388 12.3794 54.1953 12.4758L54.3438 12.566C54.3549 12.566 55.4544 13.2115 56.3748 13.2796C56.4794 13.287 56.5835 13.2907 56.6871 13.2907C57.3188 13.3077 57.9405 13.1303 58.4682 12.7826C58.7461 12.5937 58.978 12.3446 59.1466 12.0539C59.3151 11.7631 59.4161 11.4382 59.4419 11.1031C59.4678 10.768 59.4179 10.4314 59.296 10.1182C59.174 9.80507 58.9832 9.52337 58.7375 9.29402L58.732 9.29125Z" fill="#002CB8" style="fill:#002CB8;fill:color(display-p3 0.0000 0.1725 0.7216);fill-opacity:1;"/>
<path d="M16.969 7.99839C16.973 9.4206 16.64 10.8235 15.9973 12.0922C15.8934 12.2945 15.869 12.5284 15.9289 12.7478C15.9887 12.9671 16.1285 13.1562 16.3207 13.2777C16.5233 13.4062 16.7686 13.4491 17.0028 13.3971C17.237 13.345 17.441 13.2023 17.5701 13.0001C17.5849 12.977 17.5983 12.9534 17.6104 12.9293C18.3836 11.4041 18.7865 9.71812 18.7865 8.00811C18.7865 6.29809 18.3836 4.61213 17.6104 3.08691C17.4999 2.87303 17.309 2.71179 17.0796 2.63864C16.8503 2.56548 16.6013 2.58642 16.3874 2.69682L16.3179 2.73708C16.1261 2.85859 15.9866 3.0474 15.9267 3.26646C15.8669 3.48553 15.891 3.71905 15.9945 3.92122C16.6355 5.18471 16.9694 6.5816 16.969 7.99839Z" fill="#51C1FF" style="fill:#51C1FF;fill:color(display-p3 0.3176 0.7569 1.0000);fill-opacity:1;"/>
<path d="M14.0306 7.99968C14.0327 8.88128 13.8432 9.7528 13.4753 10.554C13.3831 10.7544 13.3669 10.9815 13.4297 11.193C13.4926 11.4044 13.6301 11.5859 13.8168 11.7034C13.9267 11.773 14.0502 11.8183 14.1791 11.8362C14.308 11.8541 14.4392 11.8441 14.5639 11.807C14.6886 11.7699 14.8039 11.7066 14.902 11.6212C15.0002 11.5358 15.0789 11.4303 15.1328 11.3119C15.6071 10.2731 15.8526 9.14445 15.8526 8.00245C15.8526 6.86046 15.6071 5.7318 15.1328 4.69296C15.0788 4.57518 15.0002 4.4703 14.9024 4.38531C14.8046 4.30032 14.6897 4.23719 14.5656 4.20013C14.4414 4.16308 14.3107 4.15295 14.1823 4.17043C14.0539 4.18791 13.9307 4.23259 13.821 4.30149C13.6343 4.41905 13.4967 4.60046 13.4339 4.81194C13.3711 5.02341 13.3873 5.25051 13.4795 5.45092C13.8451 6.25072 14.0332 7.12026 14.0306 7.99968Z" fill="#51C1FF" style="fill:#51C1FF;fill:color(display-p3 0.3176 0.7569 1.0000);fill-opacity:1;"/>
<path d="M7.92204 14.1061C6.95087 14.1059 5.99374 13.8741 5.13006 13.43C4.26639 12.9859 3.52107 12.3422 2.95593 11.5524C2.39079 10.7626 2.02214 9.84937 1.88054 8.88857C1.73894 7.92777 1.82849 6.94705 2.14175 6.02779C2.45501 5.10852 2.98296 4.2772 3.68179 3.60279C4.38063 2.92839 5.23019 2.43034 6.16002 2.14997C7.08985 1.86959 8.07313 1.81499 9.02829 1.99066C9.98345 2.16634 10.8829 2.56724 11.6522 3.16011C11.8266 3.29573 12.0445 3.36308 12.2651 3.34954C12.4856 3.33599 12.6936 3.24248 12.8502 3.08653C12.9413 2.99542 13.012 2.88591 13.0575 2.76532C13.103 2.64473 13.1222 2.51583 13.1139 2.38722C13.1057 2.2586 13.07 2.13323 13.0095 2.01947C12.9489 1.9057 12.8648 1.80616 12.7627 1.72748C11.5899 0.822189 10.1868 0.263844 8.71263 0.115822C7.23848 -0.0321991 5.75235 0.236035 4.42296 0.890072C3.09357 1.54411 1.97418 2.55775 1.19185 3.81592C0.409519 5.0741 -0.00440239 6.5264 -0.00292575 8.00797C-0.00144911 9.48953 0.415367 10.941 1.2002 12.1976C1.98504 13.4542 3.10645 14.4656 4.43714 15.117C5.76783 15.7684 7.25449 16.0337 8.72834 15.8827C10.2022 15.7318 11.6042 15.1706 12.7752 14.263C12.8752 14.1853 12.9576 14.0872 13.0168 13.9753C13.076 13.8633 13.1108 13.7401 13.1188 13.6137C13.1268 13.4873 13.1079 13.3606 13.0632 13.2421C13.0186 13.1236 12.9493 13.0159 12.8599 12.9262L12.8405 12.9067C12.6857 12.7544 12.4808 12.6635 12.264 12.651C12.0471 12.6384 11.8332 12.7052 11.6619 12.8387C10.5909 13.6653 9.27491 14.1113 7.92204 14.1061Z" fill="#007CFF" style="fill:#007CFF;fill:color(display-p3 0.0000 0.4863 1.0000);fill-opacity:1;"/>
<path d="M12.793 7.33361C12.6182 7.15715 12.3806 7.05729 12.1322 7.05597H7.78019C7.65382 7.05111 7.52778 7.0718 7.4096 7.11681C7.29142 7.16181 7.18354 7.23021 7.09242 7.31789C7.00129 7.40558 6.92881 7.51075 6.87929 7.62711C6.82978 7.74347 6.80426 7.86863 6.80426 7.99509C6.80426 8.12155 6.82978 8.24671 6.87929 8.36307C6.92881 8.47943 7.00129 8.5846 7.09242 8.67229C7.18354 8.75997 7.29142 8.82837 7.4096 8.87337C7.52778 8.91838 7.65382 8.93907 7.78019 8.93421H11.055C10.8567 9.58758 10.4585 10.1623 9.91656 10.5776C9.37459 10.993 8.71606 11.2279 8.0336 11.2494C7.35114 11.271 6.6791 11.078 6.11203 10.6977C5.54495 10.3174 5.11137 9.76886 4.87228 9.12929C4.63319 8.48973 4.60062 7.79129 4.77915 7.13225C4.95769 6.47321 5.33834 5.88672 5.86756 5.45529C6.39679 5.02385 7.04795 4.76919 7.72945 4.72712C8.41095 4.68505 9.08849 4.85769 9.66676 5.22075C9.84809 5.33322 10.0622 5.38073 10.2741 5.35551C10.486 5.33029 10.683 5.23382 10.8329 5.08193C10.9317 4.98281 11.007 4.8628 11.0534 4.73073C11.0998 4.59866 11.116 4.45788 11.1008 4.31873C11.0856 4.17959 11.0394 4.04561 10.9657 3.92664C10.8919 3.80768 10.7925 3.70674 10.6746 3.63125C9.52627 2.9095 8.14088 2.66631 6.81538 2.95381C5.84767 3.15892 4.96101 3.64244 4.2645 4.34487C3.56799 5.0473 3.092 5.93801 2.89508 6.90743C2.74419 7.61296 2.7433 8.34233 2.89247 9.04823C3.04164 9.75413 3.33754 10.4208 3.76097 11.005C4.1844 11.5891 4.72591 12.0777 5.35036 12.4391C5.97481 12.8005 6.66826 13.0266 7.38572 13.1027C8.10318 13.1788 8.82863 13.1033 9.51501 12.8809C10.2014 12.6586 10.8334 12.2944 11.3699 11.8121C11.9065 11.3298 12.3357 10.74 12.6296 10.0812C12.9236 9.42227 13.0757 8.70894 13.0762 7.98745C13.0711 7.74081 12.9694 7.50602 12.793 7.33361Z" fill="#002CB8" style="fill:#002CB8;fill:color(display-p3 0.0000 0.1725 0.7216);fill-opacity:1;"/>
</g>
<defs>
<clipPath id="clip0_2248_36813">
<rect width="68" height="15.8436" fill="white" style="fill:white;fill-opacity:1;" transform="translate(0 0.078125)"/>
</clipPath>
</defs>
</svg>
