<svg width="105" height="20" viewBox="0 0 105 20" fill="none" xmlns="http://www.w3.org/2000/svg">
<g clip-path="url(#clip0_2236_55431)">
<path d="M26.7787 19.7116H21.7727L24.9038 0.351074H29.9096L26.7787 19.7116Z" fill="#00579F" style="fill:#00579F;fill:color(display-p3 0.0000 0.3412 0.6235);fill-opacity:1;"/>
<path d="M44.9256 0.824255C43.9382 0.432522 42.3721 0 40.4356 0C35.492 0 32.0108 2.63619 31.9894 6.40515C31.9484 9.18588 34.4819 10.7304 36.3768 11.6575C38.3135 12.605 38.9719 13.2234 38.9719 14.0679C38.9522 15.3649 37.4069 15.9628 35.9656 15.9628C33.967 15.9628 32.8961 15.6545 31.2686 14.9329L30.6095 14.6236L29.9089 18.9696C31.083 19.5045 33.2462 19.9792 35.492 20C40.7447 20 44.1643 17.4046 44.2049 13.3882C44.2248 11.1842 42.887 9.49549 40.0028 8.11552C38.2519 7.22968 37.1797 6.63236 37.1797 5.72598C37.2002 4.902 38.0866 4.05804 40.0631 4.05804C41.6905 4.0167 42.8862 4.40789 43.7921 4.79934L44.2448 5.00493L44.9256 0.824255Z" fill="#00579F" style="fill:#00579F;fill:color(display-p3 0.0000 0.3412 0.6235);fill-opacity:1;"/>
<path d="M51.5794 12.8529C51.9916 11.7406 53.578 7.43594 53.578 7.43594C53.5572 7.47727 53.9894 6.30317 54.2366 5.58239L54.5865 7.25061C54.5865 7.25061 55.5345 11.8849 55.7403 12.8529C54.958 12.8529 52.5681 12.8529 51.5794 12.8529ZM57.7587 0.351074H53.8865C52.6924 0.351074 51.7852 0.700924 51.27 1.95743L43.8342 19.7113H49.0869C49.0869 19.7113 49.9517 17.3218 50.1375 16.8071C50.7138 16.8071 55.8236 16.8071 56.5649 16.8071C56.7086 17.4869 57.1622 19.7113 57.1622 19.7113H61.7973L57.7587 0.351074Z" fill="#00579F" style="fill:#00579F;fill:color(display-p3 0.0000 0.3412 0.6235);fill-opacity:1;"/>
<path d="M17.5914 0.351074L12.6888 13.5531L12.1531 10.8756C11.2467 7.78606 8.40412 4.42937 5.23193 2.76033L9.72249 19.6911H15.0162L22.8848 0.351074H17.5914Z" fill="#00579F" style="fill:#00579F;fill:color(display-p3 0.0000 0.3412 0.6235);fill-opacity:1;"/>
<path d="M8.13636 0.351074H0.0821535L-0.000244141 0.742259C6.28254 2.34888 10.4435 6.22159 12.1531 10.8764L10.4022 1.9785C10.1139 0.741986 9.22806 0.391863 8.13636 0.351074Z" fill="#FAA61A" style="fill:#FAA61A;fill:color(display-p3 0.9804 0.6510 0.1020);fill-opacity:1;"/>
</g>
<g clip-path="url(#clip1_2236_55431)">
<path d="M81.765 0C79.1157 0.00857399 76.578 1.06814 74.7092 2.94606C72.8403 4.82399 71.7931 7.36677 71.7974 10.0161C71.8017 12.6655 72.8571 15.2049 74.732 17.0767C76.6069 18.9486 79.148 19.9999 81.7974 19.9999C84.4467 19.9999 86.9878 18.9486 88.8627 17.0767C90.7376 15.2049 91.7931 12.6655 91.7973 10.0161C91.8016 7.36677 90.7544 4.82399 88.8856 2.94606C87.0167 1.06814 84.4791 0.00857399 81.8297 0L81.765 0Z" fill="#EB001B" style="fill:#EB001B;fill:color(display-p3 0.9216 0.0000 0.1059);fill-opacity:1;"/>
<path d="M94.1273 0C91.478 0.00857399 88.9403 1.06814 87.0715 2.94606C85.2026 4.82399 84.1554 7.36677 84.1597 10.0161C84.164 12.6655 85.2194 15.2049 87.0943 17.0767C88.9692 18.9486 91.5103 19.9999 94.1597 19.9999C96.809 19.9999 99.3501 18.9486 101.225 17.0767C103.1 15.2049 104.155 12.6655 104.16 10.0161C104.164 7.36677 103.117 4.82399 101.248 2.94606C99.3791 1.06814 96.8414 0.00857399 94.192 0L94.1273 0Z" fill="#F79E1B" style="fill:#F79E1B;fill:color(display-p3 0.9686 0.6196 0.1059);fill-opacity:1;"/>
<path d="M87.9787 2.13574C86.7875 3.07142 85.8244 4.26548 85.1621 5.62779C84.4999 6.99011 84.1558 8.48507 84.1558 9.99982C84.1558 11.5146 84.4999 13.0095 85.1621 14.3718C85.8244 15.7342 86.7875 16.9282 87.9787 17.8639C89.1699 16.9282 90.133 15.7342 90.7952 14.3718C91.4575 13.0095 91.8016 11.5146 91.8016 9.99982C91.8016 8.48507 91.4575 6.99011 90.7952 5.62779C90.133 4.26548 89.1699 3.07142 87.9787 2.13574Z" fill="#FF5F00" style="fill:#FF5F00;fill:color(display-p3 1.0000 0.3725 0.0000);fill-opacity:1;"/>
</g>
<defs>
<clipPath id="clip0_2236_55431">
<rect width="61.7974" height="20" fill="white" style="fill:white;fill-opacity:1;"/>
</clipPath>
<clipPath id="clip1_2236_55431">
<rect width="32.3625" height="20" fill="white" style="fill:white;fill-opacity:1;" transform="translate(71.7974)"/>
</clipPath>
</defs>
</svg>
