<svg width="25" height="24" viewBox="0 0 25 24" fill="none" xmlns="http://www.w3.org/2000/svg">
<path d="M5.8191 14.5069L4.98366 17.6257L1.93016 17.6903C1.01761 15.9977 0.5 14.0612 0.5 12.0033C0.5 10.0133 0.983955 8.13673 1.8418 6.48438H1.84246L4.56093 6.98277L5.75179 9.68493C5.50254 10.4116 5.36669 11.1916 5.36669 12.0033C5.36679 12.8842 5.52636 13.7282 5.8191 14.5069Z" fill="#FBBB00" style="fill:#FBBB00;fill:color(display-p3 0.9843 0.7333 0.0000);fill-opacity:1;"/>
<path d="M24.2903 9.76172C24.4281 10.4877 24.5 11.2374 24.5 12.0036C24.5 12.8627 24.4096 13.7008 24.2376 14.5092C23.6534 17.26 22.1269 19.6621 20.0124 21.3619L20.0117 21.3613L16.5877 21.1866L16.1031 18.1614C17.5062 17.3385 18.6027 16.0507 19.1803 14.5092H12.7634V9.76172H19.2739H24.2903Z" fill="#518EF8" style="fill:#518EF8;fill:color(display-p3 0.3176 0.5569 0.9725);fill-opacity:1;"/>
<path d="M20.0137 21.3599L20.0143 21.3606C17.9578 23.0136 15.3454 24.0027 12.5015 24.0027C7.93149 24.0027 3.95818 21.4483 1.93127 17.6893L5.82021 14.5059C6.83364 17.2106 9.44275 19.1359 12.5015 19.1359C13.8163 19.1359 15.048 18.7805 16.105 18.16L20.0137 21.3599Z" fill="#28B446" style="fill:#28B446;fill:color(display-p3 0.1569 0.7059 0.2745);fill-opacity:1;"/>
<path d="M20.1593 2.76468L16.2717 5.94742C15.1778 5.26368 13.8848 4.86869 12.4995 4.86869C9.37142 4.86869 6.71351 6.88238 5.75085 9.68406L1.84148 6.4835H1.84082C3.83805 2.63282 7.86148 0.00195312 12.4995 0.00195312C15.4112 0.00195312 18.081 1.03915 20.1593 2.76468Z" fill="#F14336" style="fill:#F14336;fill:color(display-p3 0.9451 0.2627 0.2118);fill-opacity:1;"/>
</svg>
