<svg width="25" height="24" viewBox="0 0 25 24" fill="none" xmlns="http://www.w3.org/2000/svg">
<path fill-rule="evenodd" clip-rule="evenodd" d="M24.5 12.002C24.5 18.6294 19.1274 24.002 12.5 24.002C5.87258 24.002 0.5 18.6294 0.5 12.002C0.5 5.37454 5.87258 0.00195312 12.5 0.00195312C19.1274 0.00195312 24.5 5.37454 24.5 12.002ZM12.93 8.86088C11.7628 9.34635 9.43013 10.3512 5.93188 11.8753C5.36382 12.1012 5.06625 12.3222 5.03916 12.5383C4.99338 12.9035 5.4507 13.0473 6.07346 13.2431C6.15817 13.2697 6.24594 13.2973 6.33593 13.3266C6.94863 13.5257 7.77281 13.7587 8.20128 13.768C8.58993 13.7764 9.02372 13.6162 9.50263 13.2873C12.7711 11.081 14.4584 9.96577 14.5643 9.94173C14.639 9.92476 14.7426 9.90344 14.8128 9.9658C14.8829 10.0282 14.876 10.1463 14.8686 10.178C14.8233 10.3711 13.0281 12.04 12.0991 12.9037C11.8095 13.173 11.6041 13.364 11.5621 13.4076C11.468 13.5053 11.3721 13.5977 11.28 13.6866C10.7108 14.2353 10.2839 14.6468 11.3036 15.3188C11.7936 15.6417 12.1857 15.9087 12.5769 16.1751C13.0041 16.466 13.4303 16.7562 13.9816 17.1176C14.1221 17.2097 14.2562 17.3053 14.3869 17.3985C14.8841 17.7529 15.3307 18.0714 15.8826 18.0206C16.2032 17.9911 16.5344 17.6896 16.7027 16.7903C17.1002 14.6651 17.8816 10.0604 18.0622 8.16293C18.078 7.99669 18.0581 7.78393 18.0421 7.69053C18.0262 7.59713 17.9928 7.46406 17.8714 7.36555C17.7276 7.24889 17.5056 7.22429 17.4064 7.22604C16.955 7.23399 16.2625 7.47477 12.93 8.86088Z" fill="url(#paint0_linear_7218_29454)" style=""/>
<defs>
<linearGradient id="paint0_linear_7218_29454" x1="12.5" y1="0.00195312" x2="12.5" y2="23.824" gradientUnits="userSpaceOnUse">
<stop stop-color="#2AABEE" style="stop-color:#2AABEE;stop-color:color(display-p3 0.1647 0.6706 0.9333);stop-opacity:1;"/>
<stop offset="1" stop-color="#229ED9" style="stop-color:#229ED9;stop-color:color(display-p3 0.1333 0.6196 0.8510);stop-opacity:1;"/>
</linearGradient>
</defs>
</svg>
