<svg width="25" height="24" viewBox="0 0 25 24" fill="none" xmlns="http://www.w3.org/2000/svg">
<path d="M12.5264 24.002H12.4736C5.87143 24.002 0.5 18.6305 0.5 12.0284V11.9756C0.5 5.37338 5.87143 0.00195312 12.4736 0.00195312H12.5264C19.1286 0.00195312 24.5 5.37338 24.5 11.9756V12.0284C24.5 18.6305 19.1286 24.002 12.5264 24.002ZM12.4736 0.814328C6.31905 0.814328 1.31238 5.821 1.31238 11.9756V12.0284C1.31238 18.1829 6.31905 23.1896 12.4736 23.1896H12.5264C18.681 23.1896 23.6876 18.1829 23.6876 12.0284V11.9756C23.6876 5.821 18.681 0.814328 12.5264 0.814328H12.4736Z" fill="#A6ADBB" style="fill:#A6ADBB;fill:color(display-p3 0.6510 0.6784 0.7333);fill-opacity:1;"/>
<path d="M5.60899 5.6582L10.956 12.8071L5.57568 18.6196H6.78694L11.4979 13.5309L15.3039 18.6196H19.4251L13.7774 11.0686L18.7857 5.6582H17.5745L13.2364 10.3448L9.73099 5.6582H5.6098H5.60899ZM7.38971 6.55019H9.28255L17.6427 17.7277H15.7499L7.38971 6.55019Z" fill="#A6ADBB" style="fill:#A6ADBB;fill:color(display-p3 0.6510 0.6784 0.7333);fill-opacity:1;"/>
</svg>
