<svg width="16" height="16" viewBox="0 0 16 16" fill="none" xmlns="http://www.w3.org/2000/svg">
<path d="M8.00002 1.33301C5.14035 1.33301 2.70835 3.13701 1.76135 5.66634H14.2384C13.2917 3.13701 10.8597 1.33301 8.00002 1.33301ZM14.2387 10.333H1.76135C2.70835 12.8623 5.14035 14.6663 8.00002 14.6663C10.8597 14.6663 13.2917 12.8623 14.2387 10.333Z" fill="url(#paint0_linear_2503_5125)" style=""/>
<path d="M14.6667 7.99935C14.6667 7.17702 14.5107 6.39335 14.2387 5.66602H1.76137C1.48937 6.39335 1.33337 7.17702 1.33337 7.99935C1.33337 8.82168 1.48937 9.60535 1.76137 10.3327H14.2384C14.5107 9.60535 14.6667 8.82168 14.6667 7.99935Z" fill="url(#paint1_linear_2503_5125)" style=""/>
<path d="M7.9126 8.04408L8.61326 9.53441C8.61326 9.53441 8.61326 9.57908 8.65793 9.53441V9.48975L8.0876 7.95508M8.0446 8.52541C8.0446 8.74474 8.17493 8.87641 8.17493 9.09574C8.17493 9.31508 8.26393 9.40241 8.30693 9.48975C8.3516 9.57875 8.26426 9.62175 8.30693 9.62175C8.3516 9.62175 8.39426 9.57908 8.3516 9.44708C8.3516 9.31508 8.26426 9.31508 8.26426 9.05141C8.26426 8.78941 8.17526 8.74474 8.17526 8.52541" fill="#FFC107" style="fill:#FFC107;fill:color(display-p3 1.0000 0.7569 0.0275);fill-opacity:1;"/>
<path d="M8.3066 9.66569C8.26393 9.66569 8.26393 9.62102 8.3066 9.62102C8.3066 9.57836 8.3066 9.57836 8.3066 9.53369C8.3066 9.53369 8.3066 9.48902 8.26393 9.44636C8.21926 9.35902 8.17493 9.27002 8.17493 9.09536C8.17493 9.00802 8.17493 8.92069 8.13226 8.83169C8.0876 8.74436 8.0876 8.65702 8.0876 8.52502H8.13226C8.13226 8.65702 8.17493 8.74436 8.17493 8.78869C8.2196 8.87602 8.2196 8.96336 8.2196 9.05069C8.2196 9.18269 8.26426 9.31436 8.30693 9.35902C8.30693 9.40169 8.3516 9.40169 8.3516 9.44636C8.3066 9.53369 8.3066 9.57836 8.3066 9.66569C8.35126 9.62102 8.35126 9.57836 8.35126 9.48936C8.35126 9.44669 8.35126 9.44669 8.3066 9.40202C8.26393 9.35936 8.26393 9.27002 8.26393 9.09536C8.26393 8.96336 8.26393 8.92069 8.21926 8.83169C8.21926 8.78902 8.1746 8.70136 8.1746 8.61236L7.9126 8.04369H7.95526L8.1746 8.56969H8.21926V8.61236L8.65793 9.53402L8.08726 7.99902H8.13193L8.70226 9.53369V9.57836C8.70226 9.57836 8.6576 9.57836 8.6576 9.53369L8.2636 8.65669C8.2636 8.70136 8.2636 8.74402 8.30626 8.78869C8.35093 8.87602 8.35093 8.92069 8.35093 9.05069C8.35093 9.22702 8.35093 9.27002 8.3936 9.35902C8.3936 9.40169 8.43826 9.40169 8.43826 9.44636C8.35093 9.53369 8.35093 9.62102 8.3066 9.66569Z" fill="#BF360C" style="fill:#BF360C;fill:color(display-p3 0.7490 0.2118 0.0471);fill-opacity:1;"/>
<path d="M7.91262 7.99902L7.95528 9.62102L7.99995 7.99902M7.82528 8.52502C7.73628 8.74436 7.82528 8.92069 7.73628 9.09536C7.64895 9.27002 7.69362 9.40202 7.69362 9.48936C7.69362 9.57836 7.60628 9.57836 7.64895 9.62136C7.69362 9.66602 7.73628 9.62136 7.78095 9.48936C7.82562 9.35902 7.73628 9.31469 7.86828 9.09536C8.00028 8.87602 7.91295 8.78869 8.00028 8.56936" fill="#FFC107" style="fill:#FFC107;fill:color(display-p3 1.0000 0.7569 0.0275);fill-opacity:1;"/>
<path d="M8.00002 9.66569C7.95535 9.66569 7.95535 9.62102 7.95535 9.62102L7.91268 8.70102C7.91268 8.74369 7.91268 8.78836 7.91268 8.83136C7.91268 8.92036 7.91268 9.00769 7.82535 9.09502C7.73635 9.22702 7.73635 9.31436 7.78068 9.35869C7.78068 9.40136 7.78068 9.44602 7.78068 9.44602C7.78068 9.53336 7.69335 9.57802 7.69335 9.57802H7.64868V9.53336C7.64868 9.53336 7.69335 9.48869 7.69335 9.44602C7.69335 9.44602 7.69335 9.40136 7.69335 9.35869C7.69335 9.26969 7.64868 9.13936 7.73602 9.00769C7.78068 8.92036 7.78068 8.83136 7.78068 8.74402C7.78068 8.65669 7.78068 8.56936 7.82535 8.43736H7.86802C7.82535 8.52469 7.82535 8.61202 7.82535 8.70102C7.82535 8.78836 7.82535 8.87569 7.78068 8.96302C7.69335 9.09502 7.73602 9.22669 7.73602 9.26969C7.73602 9.31436 7.73602 9.31436 7.73602 9.35869C7.73602 9.40136 7.69335 9.44602 7.69335 9.44602C7.69335 9.44602 7.73601 9.40136 7.78068 9.31402C7.78068 9.26936 7.78068 9.26936 7.78068 9.22669C7.78068 9.13936 7.78068 9.09469 7.86802 8.92002C7.91268 8.83102 7.91268 8.74369 7.95535 8.65636C7.95535 8.61169 7.95535 8.52436 8.00002 8.43702L7.91268 7.99902H7.95535V8.56936H8.00002C8.00002 8.56936 8.00001 8.61202 7.95535 8.61202L8.00002 9.62102V9.66569C8.00002 9.62102 8.00002 9.62102 8.00002 9.62102L8.04468 7.99902H8.08735L8.00002 9.66569C8.04468 9.66569 8.04468 9.66569 8.00002 9.66569Z" fill="#BF360C" style="fill:#BF360C;fill:color(display-p3 0.7490 0.2118 0.0471);fill-opacity:1;"/>
<path d="M7.91261 7.95508L7.34228 9.48975V9.53441H7.38695L8.08761 8.04408M7.64895 8.43841C7.47428 8.57041 7.47428 8.78941 7.34228 8.92141C7.21028 9.05174 7.16761 9.22808 7.16761 9.27075C7.16761 9.31541 7.07861 9.35975 7.07861 9.35975C7.07861 9.40241 7.16761 9.35975 7.25495 9.27075C7.34228 9.18341 7.29761 9.09608 7.47428 8.92141C7.64895 8.74508 7.60628 8.61308 7.78095 8.48274" fill="#FFC107" style="fill:#FFC107;fill:color(display-p3 1.0000 0.7569 0.0275);fill-opacity:1;"/>
<path d="M7.38663 9.53441C7.34197 9.53441 7.34197 9.48975 7.34197 9.48975L7.64863 8.61275C7.60597 8.65741 7.60597 8.70175 7.5613 8.74475C7.51663 8.83208 7.47397 8.87675 7.38663 8.96408C7.25463 9.05141 7.25463 9.14041 7.2103 9.18341C7.2103 9.22808 7.16763 9.22808 7.16763 9.27075C7.12297 9.31541 7.07863 9.35975 7.03563 9.35975H6.99097C6.99097 9.35975 6.99097 9.31508 7.03563 9.31508C7.03563 9.31508 7.0783 9.27041 7.12297 9.27041C7.12297 9.27041 7.12297 9.22774 7.16763 9.18308C7.2103 9.09574 7.2103 9.00841 7.3423 8.87641C7.42963 8.83174 7.4743 8.74441 7.4743 8.65708C7.51697 8.56975 7.56163 8.48241 7.64897 8.39341C7.56163 8.48241 7.51697 8.56975 7.4743 8.61275C7.42963 8.70175 7.38697 8.78908 7.29797 8.83208C7.16763 8.92108 7.16763 9.05141 7.1233 9.09575C7.1233 9.14041 7.1233 9.14041 7.07863 9.18308C7.1233 9.31508 7.07863 9.31508 7.07863 9.35941C7.1233 9.35941 7.16763 9.35941 7.21063 9.27041C7.2553 9.22775 7.2553 9.22774 7.2553 9.18308C7.29797 9.14041 7.29797 9.05108 7.42997 8.92108C7.5173 8.83208 7.56197 8.78908 7.6063 8.70175C7.64897 8.65708 7.64897 8.56975 7.73663 8.52541L7.95597 7.95508H7.99997L7.78063 8.48274C7.78063 8.48274 7.73597 8.48275 7.73597 8.52541L7.38663 9.48975C7.38663 9.49008 7.3423 9.53441 7.38663 9.53441L8.0873 7.99975H8.13197L7.38663 9.53441Z" fill="#BF360C" style="fill:#BF360C;fill:color(display-p3 0.7490 0.2118 0.0471);fill-opacity:1;"/>
<path d="M7.95538 7.95508L6.85905 9.14041V9.18308H6.90371L8.08738 8.08674M7.51705 8.26341C7.29771 8.35075 7.25505 8.52541 7.03571 8.57008C6.85938 8.61275 6.77205 8.78941 6.72905 8.83208C6.68438 8.87675 6.59705 8.87675 6.59705 8.87675C6.59705 8.87675 6.68438 8.92141 6.77171 8.87675C6.85905 8.83208 6.85905 8.74475 7.12271 8.65741C7.34205 8.57008 7.38638 8.43808 7.60571 8.39374" fill="#FFC107" style="fill:#FFC107;fill:color(display-p3 1.0000 0.7569 0.0275);fill-opacity:1;"/>
<path d="M6.81635 9.18285C6.77168 9.14019 6.77168 9.14019 6.81635 9.14019L7.47401 8.43785C7.42935 8.48252 7.38668 8.48252 7.38668 8.52519C7.34201 8.56985 7.25468 8.61252 7.16735 8.65719C7.03535 8.70185 6.94801 8.74452 6.90368 8.78919C6.85901 8.83185 6.85901 8.83185 6.81635 8.87652C6.72901 8.92119 6.68435 8.92119 6.64001 8.92119C6.64001 8.92119 6.64001 8.92119 6.64001 8.87652C6.64001 8.83185 6.68468 8.83185 6.68468 8.83185C6.72935 8.83185 6.72935 8.83185 6.77201 8.78919L6.81668 8.74452C6.85935 8.65719 6.94868 8.56985 7.07868 8.52519C7.16768 8.48252 7.25501 8.43785 7.29801 8.39319C7.38701 8.35052 7.43001 8.26285 7.56168 8.21852V8.26319C7.47435 8.30585 7.38701 8.35052 7.34235 8.43785C7.25501 8.48252 7.21035 8.56985 7.12301 8.61252C6.99101 8.65719 6.90368 8.74452 6.85935 8.83185C6.85935 8.87652 6.81668 8.87652 6.81668 8.87652C6.68468 8.87652 6.64001 8.87652 6.64001 8.87652C6.64001 8.87652 6.72935 8.87652 6.77235 8.83185C6.81701 8.83185 6.81701 8.78919 6.85968 8.74452C6.90435 8.70185 6.94868 8.65719 7.12335 8.56985C7.25535 8.52519 7.29768 8.48252 7.34235 8.43785C7.38701 8.39319 7.43001 8.35052 7.51735 8.30585L7.95601 7.86719L7.56201 8.30585V8.35052H7.51735L6.81668 9.09552C6.81635 9.13985 6.81635 9.18285 6.81635 9.18285Z" fill="#BF360C" style="fill:#BF360C;fill:color(display-p3 0.7490 0.2118 0.0471);fill-opacity:1;"/>
<path d="M8.08732 8.56936C8.08732 8.78869 8.21932 8.87602 8.21932 9.09536C8.26366 8.92069 8.13199 8.83136 8.08732 8.56936ZM7.95532 7.99902L8.43832 9.00802L8.04466 7.99902" fill="#BF360C" style="fill:#BF360C;fill:color(display-p3 0.7490 0.2118 0.0471);fill-opacity:1;"/>
<path d="M7.86797 8.56936C7.78064 8.78869 7.86797 8.92036 7.78064 9.09536C7.86797 8.96336 7.82531 8.78869 7.86797 8.56936ZM7.95531 7.99902L7.99997 9.13969L8.04464 7.99902" fill="#BF360C" style="fill:#BF360C;fill:color(display-p3 0.7490 0.2118 0.0471);fill-opacity:1;"/>
<path d="M7.64896 8.48202C7.51696 8.65669 7.51696 8.78869 7.38696 8.92069C7.51696 8.83136 7.51696 8.65669 7.64896 8.48202ZM7.9553 7.99902L7.5613 9.05069L8.0443 8.04336" fill="#BF360C" style="fill:#BF360C;fill:color(display-p3 0.7490 0.2118 0.0471);fill-opacity:1;"/>
<path d="M7.51704 8.30641C7.34237 8.39374 7.2977 8.57008 7.07837 8.61308C7.25504 8.61308 7.2977 8.43841 7.51704 8.30641ZM7.95537 7.95508L7.21037 8.78941L8.0447 8.04441" fill="#BF360C" style="fill:#BF360C;fill:color(display-p3 0.7490 0.2118 0.0471);fill-opacity:1;"/>
<path d="M7.95535 7.91211L6.46502 8.61278C6.46502 8.61278 6.42035 8.61278 6.46502 8.65744H6.50969L8.04435 8.08711M7.47402 8.04411C7.25469 8.04411 7.12302 8.17444 6.90369 8.17444C6.68435 8.17444 6.59702 8.26344 6.50969 8.30644C6.42069 8.35111 6.37769 8.26378 6.37769 8.30644C6.37769 8.35111 6.42035 8.39378 6.55235 8.35111C6.68435 8.35111 6.68435 8.26378 6.94802 8.26378C7.21002 8.26378 7.25469 8.17478 7.47402 8.17478" fill="#FFC107" style="fill:#FFC107;fill:color(display-p3 1.0000 0.7569 0.0275);fill-opacity:1;"/>
<path d="M6.46526 8.65711C6.4206 8.61244 6.4206 8.61244 6.46526 8.56978L7.34226 8.17411C7.2976 8.17411 7.25493 8.17411 7.21026 8.21878C7.12293 8.26344 7.07826 8.26344 6.94826 8.26344C6.77193 8.26344 6.72893 8.26344 6.63993 8.30611C6.59726 8.30611 6.59726 8.35078 6.5526 8.35078C6.46526 8.35078 6.4206 8.35078 6.37793 8.30611V8.26344H6.4206C6.46526 8.26344 6.46526 8.26344 6.5096 8.26344C6.5096 8.26344 6.55226 8.26344 6.59693 8.21878C6.68426 8.17411 6.7716 8.13144 6.85893 8.13144H6.9036C6.99093 8.13144 7.07826 8.13144 7.16726 8.08678C7.2546 8.04411 7.34193 8.04411 7.47393 8.04411V8.08678C7.3866 8.08678 7.2976 8.13144 7.21026 8.13144C7.12293 8.17411 7.0356 8.17411 6.94826 8.17411C6.81626 8.17411 6.6846 8.21878 6.63993 8.26311C6.59726 8.26311 6.59726 8.30578 6.5526 8.30578C6.50993 8.30578 6.46526 8.30578 6.4206 8.30578C6.4206 8.30578 6.5096 8.35044 6.5526 8.35044C6.59726 8.35044 6.59726 8.35078 6.63993 8.30611C6.6846 8.26344 6.77193 8.26344 6.94826 8.26344C7.0786 8.26344 7.12293 8.26311 7.21026 8.21844C7.25493 8.21844 7.34226 8.17378 7.4296 8.17378L7.99993 7.91211V7.95478L7.47393 8.17411V8.21878H7.42926L6.46526 8.65711C6.46526 8.61278 6.46526 8.61278 6.46526 8.65711L7.99993 8.04411V8.08678L6.46526 8.65711Z" fill="#BF360C" style="fill:#BF360C;fill:color(display-p3 0.7490 0.2118 0.0471);fill-opacity:1;"/>
<path d="M8.00004 7.91213L6.37804 7.99946L8.00004 8.04413M7.47404 7.82479C7.25471 7.73579 7.07837 7.82479 6.90371 7.73579C6.72904 7.64846 6.59704 7.69313 6.50971 7.69313C6.42071 7.69313 6.42071 7.60579 6.37771 7.64846C6.33304 7.69313 6.37771 7.73579 6.50971 7.78046C6.64004 7.82513 6.68437 7.73579 6.90371 7.86779C7.12304 7.99979 7.21037 7.91246 7.42971 7.99979" fill="#FFC107" style="fill:#FFC107;fill:color(display-p3 1.0000 0.7569 0.0275);fill-opacity:1;"/>
<path d="M8.00004 8.0871L6.37804 8.04444C6.37804 8.04444 6.33337 8.04444 6.33337 7.99977C6.33337 7.9551 6.37804 7.9551 6.37804 7.9551L7.29804 7.91244C7.25537 7.91244 7.21071 7.91244 7.16771 7.91244C7.07871 7.91244 6.99137 7.91244 6.90404 7.8251C6.77204 7.7361 6.68471 7.7361 6.64037 7.78044C6.59771 7.78044 6.55304 7.78044 6.55304 7.78044C6.46571 7.78044 6.42104 7.6931 6.42104 7.6931V7.64844H6.46571C6.46571 7.64844 6.51037 7.6931 6.55304 7.6931C6.55304 7.6931 6.59771 7.6931 6.64037 7.6931C6.72937 7.6931 6.85971 7.64844 6.99137 7.73577C7.07871 7.78044 7.16771 7.78044 7.25504 7.78044C7.34237 7.78044 7.42971 7.78044 7.56171 7.8251V7.86777C7.47437 7.8251 7.38704 7.8251 7.29804 7.8251C7.21071 7.8251 7.12337 7.8251 7.03604 7.78044C6.90404 7.6931 6.81671 7.73577 6.72937 7.73577C6.68471 7.73577 6.68471 7.73577 6.64037 7.73577C6.59771 7.73577 6.55304 7.6931 6.55304 7.6931C6.55304 7.6931 6.59771 7.73577 6.68504 7.78044C6.72971 7.78044 6.77237 7.78044 6.77237 7.78044C6.85971 7.78044 6.90437 7.78044 7.07904 7.86777C7.16804 7.91244 7.25537 7.91244 7.34271 7.9551C7.38737 7.9551 7.47471 7.9551 7.56204 7.99977L8.17537 7.9551V7.99977H7.60671V8.04444C7.60671 8.04444 7.56204 8.04444 7.56204 7.99977H6.37837L8.00004 8.0871Z" fill="#BF360C" style="fill:#BF360C;fill:color(display-p3 0.7490 0.2118 0.0471);fill-opacity:1;"/>
<path d="M8.04467 7.91212L6.51 7.34179H6.46533V7.38646L7.95567 8.08712M7.56133 7.64846C7.42933 7.47379 7.21033 7.47379 7.07833 7.34179C6.948 7.20979 6.77167 7.16713 6.729 7.16713C6.68433 7.16713 6.64 7.07812 6.64 7.07812C6.59733 7.07812 6.64 7.16712 6.729 7.25446C6.81633 7.34179 6.90367 7.29713 7.07833 7.47379C7.25467 7.64846 7.38667 7.60579 7.517 7.78046" fill="#FFC107" style="fill:#FFC107;fill:color(display-p3 1.0000 0.7569 0.0275);fill-opacity:1;"/>
<path d="M7.95529 8.08657L6.46495 7.3859L6.42029 7.34123C6.42029 7.34123 6.46495 7.29657 6.46495 7.34123L7.34195 7.6479C7.29729 7.60523 7.25462 7.60523 7.20995 7.56057C7.12262 7.5159 7.07795 7.47323 6.99062 7.3859C6.90329 7.2539 6.81595 7.2539 6.77129 7.20957C6.72862 7.20957 6.72862 7.1669 6.68395 7.1669C6.59662 7.12223 6.59662 7.0349 6.59662 7.0349V6.99023C6.59662 6.99023 6.63929 6.99023 6.63929 7.0349C6.63929 7.0349 6.68395 7.07757 6.68395 7.12223C6.68395 7.12223 6.72862 7.12223 6.77129 7.1669C6.85862 7.20957 6.94762 7.20957 7.07795 7.34157C7.12262 7.4289 7.20995 7.47357 7.29729 7.47357C7.38629 7.51623 7.47362 7.5609 7.56095 7.64823C7.47362 7.5609 7.38629 7.51623 7.34162 7.47357C7.25429 7.4289 7.16695 7.38623 7.12229 7.29723C7.03495 7.1669 6.90295 7.1669 6.85862 7.12257C6.81595 7.12257 6.81595 7.12257 6.77129 7.0779C6.68395 7.12257 6.68395 7.0779 6.63929 7.0779C6.63929 7.12257 6.63929 7.1669 6.72829 7.2099C6.77095 7.25457 6.77095 7.25457 6.81562 7.25457C6.85829 7.29723 6.94762 7.29723 7.07762 7.42923C7.16662 7.51657 7.20962 7.56123 7.29695 7.60557C7.34162 7.64823 7.42895 7.64823 7.47329 7.7359L8.04362 7.95523V7.99923L7.51595 7.7799C7.51595 7.7799 7.51595 7.73523 7.47329 7.73523L6.50895 7.3859L7.95529 8.08657Z" fill="#BF360C" style="fill:#BF360C;fill:color(display-p3 0.7490 0.2118 0.0471);fill-opacity:1;"/>
<path d="M8.04465 7.95501L6.85932 6.85868H6.81665V6.90335L7.91298 8.08701M7.73632 7.51668C7.64898 7.29735 7.47432 7.25468 7.42965 7.03535C7.38698 6.85901 7.21032 6.77168 7.16765 6.72868C7.12298 6.68401 7.12298 6.59668 7.12298 6.59668C7.12298 6.59668 7.07832 6.68401 7.12298 6.77135C7.16765 6.85868 7.25498 6.85868 7.34232 7.12235C7.42965 7.34168 7.56165 7.38601 7.60598 7.60535" fill="#FFC107" style="fill:#FFC107;fill:color(display-p3 1.0000 0.7569 0.0275);fill-opacity:1;"/>
<path d="M7.91262 8.08698L6.81628 6.90332C6.81628 6.90332 6.81628 6.90331 6.81628 6.85865C6.81628 6.85865 6.81628 6.85865 6.81628 6.81598H6.85895L7.56128 7.47365C7.51662 7.42898 7.51662 7.38631 7.47395 7.38631C7.42928 7.34165 7.38662 7.25432 7.34195 7.16698C7.29728 7.03498 7.25462 6.94765 7.20995 6.90332C7.16728 6.85865 7.16728 6.85865 7.12262 6.81598C7.07795 6.72865 7.07795 6.68398 7.07795 6.63965C7.07795 6.63965 7.07795 6.63965 7.12262 6.63965C7.16728 6.63965 7.16728 6.68432 7.16728 6.68432C7.16728 6.72898 7.16728 6.72898 7.20995 6.77165L7.25462 6.81632C7.34195 6.85898 7.42928 6.94831 7.47395 7.07831C7.51662 7.16731 7.56128 7.25465 7.60595 7.29765C7.64862 7.38665 7.73628 7.42965 7.78062 7.56131H7.73595C7.69328 7.47398 7.64862 7.38665 7.56128 7.34198C7.51662 7.25465 7.42928 7.20998 7.38662 7.12265C7.34195 6.99065 7.25462 6.90331 7.16728 6.85898C7.12262 6.85898 7.12262 6.81632 7.12262 6.81632C7.12262 6.68432 7.12262 6.63965 7.12262 6.63965C7.12262 6.63965 7.12262 6.72898 7.16728 6.77198C7.16728 6.81665 7.20995 6.81665 7.25462 6.85932C7.29728 6.90398 7.34195 6.94832 7.42928 7.12298C7.47395 7.25498 7.51662 7.29731 7.56128 7.34198C7.60595 7.38665 7.64862 7.42965 7.69328 7.51698L8.13195 7.95565L7.69328 7.56165H7.64862V7.51698L6.90362 6.81632L7.91262 8.08698Z" fill="#BF360C" style="fill:#BF360C;fill:color(display-p3 0.7490 0.2118 0.0471);fill-opacity:1;"/>
<path d="M7.42969 8.08708C7.21035 8.08708 7.12302 8.21908 6.90369 8.21908C7.07835 8.26341 7.16769 8.13174 7.42969 8.08708ZM8.00002 7.95508L6.94835 8.43808L8.00002 8.04441" fill="#BF360C" style="fill:#BF360C;fill:color(display-p3 0.7490 0.2118 0.0471);fill-opacity:1;"/>
<path d="M7.42971 7.86761C7.21038 7.78027 7.07871 7.86761 6.90371 7.78027C7.03571 7.86761 7.21038 7.82494 7.42971 7.86761ZM8.00004 7.95494L6.85938 7.99961L8.00004 8.04427" fill="#BF360C" style="fill:#BF360C;fill:color(display-p3 0.7490 0.2118 0.0471);fill-opacity:1;"/>
<path d="M7.51703 7.64872C7.34236 7.51672 7.21036 7.51672 7.07836 7.38672C7.1677 7.51672 7.34236 7.51672 7.51703 7.64872ZM8.00003 7.95505L6.94836 7.56105L7.9557 8.04405" fill="#BF360C" style="fill:#BF360C;fill:color(display-p3 0.7490 0.2118 0.0471);fill-opacity:1;"/>
<path d="M7.69333 7.51679C7.60599 7.34212 7.42966 7.29746 7.38666 7.07812C7.38666 7.25479 7.56133 7.29746 7.69333 7.51679ZM8.04466 7.95512L7.21033 7.21012L7.95533 8.04446" fill="#BF360C" style="fill:#BF360C;fill:color(display-p3 0.7490 0.2118 0.0471);fill-opacity:1;"/>
<path d="M8.08737 7.95462L7.38671 6.46429C7.38671 6.46429 7.38671 6.41962 7.34204 6.46429V6.50895L7.91237 8.04362M7.95537 7.47329C7.95537 7.25395 7.82504 7.12229 7.82504 6.90295C7.82504 6.68362 7.73604 6.59629 7.69304 6.50895C7.64837 6.41995 7.73571 6.37695 7.69304 6.37695C7.64837 6.37695 7.60571 6.41962 7.64837 6.55162C7.64837 6.68362 7.73571 6.68362 7.73571 6.94729C7.73571 7.20929 7.82471 7.25395 7.82471 7.47329" fill="#FFC107" style="fill:#FFC107;fill:color(display-p3 1.0000 0.7569 0.0275);fill-opacity:1;"/>
<path d="M7.9127 8.04359L7.34236 6.50892V6.46426C7.34236 6.46426 7.38703 6.46426 7.38703 6.50892L7.78103 7.38592C7.78103 7.34125 7.78103 7.29692 7.73636 7.25392C7.6937 7.16659 7.6937 7.12192 7.6937 6.99026C7.6937 6.81559 7.6937 6.77092 7.64903 6.68359C7.64903 6.63892 7.60636 6.63892 7.60636 6.59625C7.60636 6.50892 7.60636 6.46426 7.64903 6.41992H7.6937V6.46459C7.6937 6.50925 7.6937 6.50926 7.6937 6.55192C7.6937 6.55192 7.6937 6.59659 7.73636 6.63925C7.78103 6.72825 7.82536 6.81559 7.82536 6.99026C7.82536 7.07759 7.82536 7.16659 7.86803 7.25392C7.9127 7.34125 7.9127 7.42859 7.9127 7.56059H7.86803C7.86803 7.42859 7.82536 7.34125 7.82536 7.29692C7.7807 7.20959 7.7807 7.12225 7.7807 7.03492C7.7807 6.90292 7.73603 6.77125 7.69336 6.72825C7.69336 6.68359 7.6487 6.68359 7.6487 6.63925C7.6487 6.59659 7.6487 6.55192 7.6487 6.50892C7.6487 6.50892 7.60603 6.59625 7.60603 6.63925C7.60603 6.68392 7.60603 6.68392 7.6487 6.72825C7.69336 6.77092 7.69336 6.85859 7.69336 7.03492C7.69336 7.16692 7.69336 7.20959 7.73603 7.29692C7.73603 7.34159 7.7807 7.42892 7.7807 7.51625L8.04436 8.08659H8.00003L7.7807 7.56059H7.73603V7.51592L7.29736 6.59592L7.9127 8.04359Z" fill="#BF360C" style="fill:#BF360C;fill:color(display-p3 0.7490 0.2118 0.0471);fill-opacity:1;"/>
<path d="M8.08726 7.99967L7.99993 6.37767L7.9126 7.99967M8.1746 7.47368C8.2636 7.25434 8.1746 7.07801 8.2636 6.90334C8.35093 6.72867 8.30626 6.59667 8.30626 6.50934C8.30626 6.42034 8.3936 6.42034 8.35093 6.37734C8.30626 6.33267 8.2636 6.37734 8.21893 6.50934C8.17426 6.63967 8.2636 6.68401 8.1316 6.90334C7.9996 7.12267 8.08693 7.21001 7.9996 7.42934" fill="#FFC107" style="fill:#FFC107;fill:color(display-p3 1.0000 0.7569 0.0275);fill-opacity:1;"/>
<path d="M8.08738 7.99967V7.42934H8.04471C8.04471 7.42934 8.04471 7.38667 8.08738 7.38667L8.00004 6.37767L7.91271 7.99967H7.86804L7.91271 6.37767C7.91271 6.37767 7.91271 6.33301 7.95538 6.33301C8.00004 6.33301 8.00004 6.37767 8.00004 6.37767L8.04471 7.29767C8.04471 7.25501 8.04471 7.21034 8.04471 7.16734C8.04471 7.07834 8.04471 6.99101 8.13204 6.90367C8.21938 6.77167 8.21938 6.68434 8.17471 6.64001C8.17471 6.59734 8.17471 6.55267 8.17471 6.55267C8.17471 6.46534 8.26371 6.42067 8.26371 6.42067H8.30638V6.46534C8.30638 6.46534 8.26371 6.51001 8.26371 6.55267C8.26371 6.55267 8.26371 6.59734 8.26371 6.64001C8.26371 6.72901 8.30638 6.85934 8.21904 6.99101C8.17438 7.07834 8.17438 7.16734 8.17438 7.25467C8.17438 7.34201 8.17438 7.42934 8.13171 7.56134H8.08704C8.13171 7.47401 8.13171 7.38667 8.13171 7.29767C8.13171 7.21034 8.13171 7.12301 8.17438 7.03567C8.26338 6.90367 8.21904 6.77201 8.21904 6.72901C8.21904 6.68434 8.21904 6.68434 8.21904 6.64001C8.21904 6.59734 8.26371 6.55267 8.26371 6.55267C8.26371 6.55267 8.21904 6.59734 8.17471 6.68467C8.17471 6.72934 8.17471 6.72934 8.17471 6.77201C8.17471 6.85934 8.17471 6.90401 8.08738 7.07867C8.04471 7.16767 8.04471 7.25501 8.00004 7.34234C8.00004 7.38701 8.00004 7.47434 7.95538 7.56168L8.08738 7.99967Z" fill="#BF360C" style="fill:#BF360C;fill:color(display-p3 0.7490 0.2118 0.0471);fill-opacity:1;"/>
<path d="M8.08726 8.04418L8.6576 6.50951V6.46484H8.61326L7.9126 7.95518M8.35093 7.56084C8.5256 7.42884 8.5256 7.20984 8.6576 7.07784C8.7896 6.94751 8.83226 6.77118 8.83226 6.72851C8.83226 6.68384 8.92126 6.63951 8.92126 6.63951C8.92126 6.59684 8.83226 6.63951 8.74493 6.72851C8.6576 6.81584 8.70226 6.90318 8.5256 7.07784C8.35093 7.25418 8.3936 7.38618 8.21893 7.51651" fill="#FFC107" style="fill:#FFC107;fill:color(display-p3 1.0000 0.7569 0.0275);fill-opacity:1;"/>
<path d="M8.08735 8.04392L8.26369 7.47359C8.26369 7.47359 8.30635 7.47359 8.30635 7.42892L8.65735 6.46459L7.95502 7.95492H7.91235L8.61302 6.46459L8.65769 6.41992C8.65769 6.41992 8.70202 6.46459 8.65735 6.46459L8.35102 7.34159C8.39369 7.29692 8.39369 7.25426 8.43835 7.20959C8.48302 7.12226 8.52569 7.07759 8.61302 6.99026C8.74502 6.90292 8.74502 6.81559 8.78935 6.77092C8.78935 6.72826 8.83202 6.72826 8.83202 6.68359C8.87669 6.59626 8.96402 6.59626 8.96402 6.59626H9.00869C9.00869 6.59626 9.00869 6.63892 8.96402 6.63892C8.96402 6.63892 8.92135 6.68359 8.87669 6.68359C8.87669 6.68359 8.87669 6.72826 8.83202 6.77092C8.78935 6.85826 8.78935 6.94726 8.65735 7.07759C8.57002 7.12226 8.52535 7.20959 8.52535 7.29692C8.48269 7.38592 8.43802 7.47326 8.35069 7.56059C8.43802 7.47326 8.48269 7.38592 8.52535 7.34126C8.57002 7.25392 8.61269 7.16659 8.70169 7.12192C8.83202 7.03459 8.83202 6.90259 8.87635 6.85826C8.87635 6.81559 8.87635 6.81559 8.92102 6.77092C8.96369 6.72826 8.96369 6.72826 9.00835 6.68359C8.96369 6.68359 8.92102 6.68359 8.87635 6.77092C8.83169 6.81559 8.83169 6.81559 8.83169 6.85826C8.78902 6.90292 8.78902 6.99026 8.65702 7.12192C8.48235 7.12192 8.43769 7.20926 8.43769 7.29659C8.39302 7.34126 8.39302 7.42859 8.30569 7.47292L8.08735 8.04392Z" fill="#BF360C" style="fill:#BF360C;fill:color(display-p3 0.7490 0.2118 0.0471);fill-opacity:1;"/>
<path d="M8.0446 8.04441L9.14093 6.85907V6.81641H9.09626L7.9126 7.91274M8.48293 7.73607C8.70226 7.64874 8.74493 7.47407 8.96426 7.42941C9.1406 7.38674 9.22793 7.21007 9.27093 7.16741C9.3156 7.12274 9.40293 7.12274 9.40293 7.12274C9.40293 7.12274 9.3156 7.07807 9.22826 7.12274C9.14093 7.16741 9.14093 7.25474 8.87726 7.34207C8.65793 7.42941 8.6136 7.56141 8.39426 7.60574" fill="#FFC107" style="fill:#FFC107;fill:color(display-p3 1.0000 0.7569 0.0275);fill-opacity:1;"/>
<path d="M8.08733 8.08673L8.43833 7.64806V7.6054H8.483L9.18367 6.85873C9.18367 6.85873 9.18367 6.8584 9.22833 6.8584V6.90307L8.526 7.56073C8.57067 7.51607 8.61333 7.51607 8.61333 7.4734C8.658 7.42873 8.74533 7.38606 8.83267 7.3414C8.96467 7.29673 9.052 7.25406 9.09633 7.2094C9.141 7.16673 9.141 7.16673 9.18367 7.12207C9.271 7.0774 9.31567 7.0774 9.36 7.0774C9.36 7.0774 9.36 7.0774 9.36 7.12207C9.36 7.16673 9.31533 7.16673 9.31533 7.16673C9.27067 7.16673 9.27067 7.16673 9.228 7.2094L9.18333 7.25407C9.14067 7.3414 9.05133 7.42873 8.92133 7.4734C8.83233 7.51607 8.745 7.56073 8.702 7.6054C8.613 7.64807 8.57 7.73573 8.43833 7.78006V7.7354C8.52567 7.69273 8.613 7.64807 8.65767 7.56073C8.745 7.51607 8.78967 7.42873 8.877 7.38607C9.009 7.3414 9.09633 7.25407 9.14067 7.20973C9.14067 7.16707 9.18333 7.16707 9.18333 7.16707C9.31533 7.1224 9.35967 7.1224 9.35967 7.1224C9.35967 7.1224 9.27067 7.1224 9.22767 7.16707C9.183 7.16707 9.183 7.20973 9.14033 7.2544C9.09567 7.29706 9.05133 7.34173 8.87667 7.42906C8.74467 7.47373 8.702 7.5164 8.65733 7.56106C8.61267 7.60573 8.57 7.6484 8.48267 7.69306L8.08733 8.08673Z" fill="#BF360C" style="fill:#BF360C;fill:color(display-p3 0.7490 0.2118 0.0471);fill-opacity:1;"/>
<path d="M7.91265 7.42932C7.91265 7.20999 7.78065 7.12265 7.78065 6.90332C7.73631 7.07799 7.86798 7.16732 7.91265 7.42932ZM8.04465 7.99965L7.56165 6.94799L7.95531 7.99965" fill="#BF360C" style="fill:#BF360C;fill:color(display-p3 0.7490 0.2118 0.0471);fill-opacity:1;"/>
<path d="M8.13199 7.42873C8.21932 7.2094 8.13199 7.07773 8.21932 6.90273C8.13199 7.03473 8.17466 7.2094 8.13199 7.42873ZM8.04466 7.99907L7.99999 6.8584L7.95532 7.99907" fill="#BF360C" style="fill:#BF360C;fill:color(display-p3 0.7490 0.2118 0.0471);fill-opacity:1;"/>
<path d="M8.35099 7.51593C8.48299 7.34127 8.48299 7.20927 8.61299 7.07727C8.48299 7.1666 8.48299 7.34127 8.35099 7.51593ZM8.04466 7.99893L8.43866 6.94727L7.95532 7.99893" fill="#BF360C" style="fill:#BF360C;fill:color(display-p3 0.7490 0.2118 0.0471);fill-opacity:1;"/>
<path d="M8.48299 7.69296C8.65766 7.60563 8.70232 7.42929 8.92166 7.38629C8.78966 7.38629 8.70232 7.56096 8.48299 7.69296ZM8.04466 8.04429L8.78966 7.20996L7.95532 7.95496" fill="#BF360C" style="fill:#BF360C;fill:color(display-p3 0.7490 0.2118 0.0471);fill-opacity:1;"/>
<path d="M8.04469 8.08713L9.53502 7.38646C9.53502 7.38646 9.57969 7.38646 9.53502 7.3418H9.49036L7.95569 7.91213M8.52602 7.95513C8.74535 7.95513 8.87702 7.8248 9.09636 7.8248C9.31569 7.8248 9.40302 7.7358 9.49036 7.6928C9.57936 7.64813 9.62236 7.73546 9.62236 7.6928C9.62236 7.64813 9.57969 7.60546 9.44769 7.64813C9.31569 7.64813 9.31569 7.73546 9.05202 7.73546C8.79002 7.73546 8.74535 7.82446 8.52602 7.82446" fill="#FFC107" style="fill:#FFC107;fill:color(display-p3 1.0000 0.7569 0.0275);fill-opacity:1;"/>
<path d="M8.04467 8.08654L8.57067 7.82454V7.77987H8.61333L9.535 7.34121L8 7.91188V7.86721L9.53467 7.29688H9.57933C9.57933 7.34154 9.57933 7.34154 9.53467 7.34154L8.65767 7.73554C8.70233 7.73554 8.745 7.73554 8.78967 7.69287C8.877 7.64821 8.92167 7.64821 9.05167 7.64821C9.09633 7.64821 9.09633 7.64821 9.14067 7.64821C9.271 7.64821 9.31533 7.60554 9.36 7.60554C9.40267 7.60554 9.40267 7.56087 9.44733 7.56087C9.53467 7.56087 9.57933 7.56088 9.622 7.60554V7.64821H9.57933C9.53467 7.64821 9.53467 7.64821 9.49033 7.64821C9.49033 7.64821 9.44767 7.64821 9.403 7.69287C9.31567 7.73554 9.22833 7.78021 9.141 7.78021H9.09633H9.05167C8.96433 7.78021 8.92133 7.82487 8.83233 7.82487C8.745 7.86754 8.65767 7.86754 8.57033 7.86754V7.82487C8.65767 7.82487 8.745 7.78021 8.83233 7.78021C8.92133 7.73554 9.00867 7.73554 9.096 7.73554C9.228 7.73554 9.35967 7.69288 9.40267 7.64821C9.44733 7.64821 9.44733 7.60554 9.49 7.60554C9.53467 7.60554 9.579 7.60554 9.622 7.60554C9.622 7.60554 9.53467 7.56087 9.49 7.56087C9.44733 7.56087 9.44733 7.56088 9.40267 7.60554C9.36 7.64821 9.27067 7.64821 9.096 7.64821C8.964 7.64821 8.92133 7.64821 8.83233 7.69287C8.78967 7.69287 8.702 7.73554 8.65767 7.73554L8.04467 8.08654Z" fill="#BF360C" style="fill:#BF360C;fill:color(display-p3 0.7490 0.2118 0.0471);fill-opacity:1;"/>
<path d="M8 8.08678L9.622 8.04411L8 7.91211M8.526 8.17411C8.74533 8.26311 8.92167 8.17411 9.09633 8.26311C9.271 8.35044 9.403 8.30578 9.49033 8.30578C9.57933 8.30578 9.57933 8.39311 9.62233 8.35044C9.667 8.30578 9.62233 8.26311 9.49033 8.21844C9.36 8.17378 9.31567 8.26311 9.09633 8.13111C8.877 7.99911 8.78967 8.08644 8.57033 7.99911" fill="#FFC107" style="fill:#FFC107;fill:color(display-p3 1.0000 0.7569 0.0275);fill-opacity:1;"/>
<path d="M9.622 8.39319C9.57933 8.39319 9.57933 8.35019 9.622 8.39319C9.57933 8.35052 9.53467 8.35052 9.49 8.35052C9.49 8.35052 9.44733 8.35052 9.40267 8.35052C9.31533 8.35052 9.18333 8.39319 9.05167 8.30585C8.96433 8.26319 8.877 8.26319 8.78967 8.26319C8.70233 8.26319 8.61333 8.26319 8.483 8.21852V8.17385C8.57033 8.21852 8.65767 8.21852 8.745 8.21852C8.83233 8.21852 8.92133 8.21852 9.00867 8.26319C9.14067 8.35052 9.228 8.30585 9.31533 8.30585C9.36 8.30585 9.36 8.30585 9.40267 8.30585C9.53467 8.30585 9.57933 8.30585 9.622 8.39319C9.622 8.35019 9.57933 8.35019 9.622 8.39319C9.622 8.35019 9.622 8.35019 9.622 8.39319C9.622 8.35052 9.57933 8.30585 9.49 8.26285C9.44733 8.26285 9.44733 8.26285 9.40267 8.26285C9.31533 8.26285 9.27067 8.26285 9.096 8.17385C9.00867 8.13119 8.92133 8.13119 8.83233 8.08652C8.78967 8.08652 8.702 8.08652 8.613 8.04385L8 8.08652V8.04385H8.57033V7.99919C8.57033 7.99919 8.613 7.99919 8.613 8.04385L9.622 7.99919L8 7.91185V7.86719L9.622 7.91185C9.622 7.91185 9.66667 7.91185 9.66667 7.95452C9.66667 7.99919 9.622 7.99919 9.622 7.99919L8.702 8.04385C8.74467 8.04385 8.78933 8.04385 8.83233 8.04385C8.92133 8.04385 9.00867 8.04385 9.096 8.13119C9.228 8.21852 9.31533 8.21852 9.35967 8.17385C9.40233 8.17385 9.447 8.17385 9.447 8.17385C9.57933 8.26285 9.622 8.30585 9.622 8.39319C9.622 8.35019 9.622 8.35019 9.622 8.39319Z" fill="#BF360C" style="fill:#BF360C;fill:color(display-p3 0.7490 0.2118 0.0471);fill-opacity:1;"/>
<path d="M7.95532 8.08678L9.48999 8.65711H9.53466V8.61278L8.04432 7.91211M8.43866 8.35044C8.57066 8.52511 8.78966 8.52511 8.92166 8.65711C9.05199 8.78911 9.22832 8.83178 9.27099 8.83178C9.31566 8.83178 9.35999 8.92078 9.35999 8.92078C9.40266 8.92078 9.35999 8.83178 9.27099 8.74444C9.18366 8.65711 9.09632 8.70178 8.92166 8.52511C8.74532 8.35044 8.61332 8.39311 8.48299 8.21844" fill="#FFC107" style="fill:#FFC107;fill:color(display-p3 1.0000 0.7569 0.0275);fill-opacity:1;"/>
<path d="M9.36002 8.96378C9.31569 8.96378 9.31569 8.96378 9.36002 8.96378C9.31536 8.92111 9.31536 8.87644 9.27102 8.87644C9.27102 8.87644 9.22836 8.87644 9.18369 8.83178C9.09636 8.78911 9.00902 8.78911 8.87702 8.65711C8.83236 8.56978 8.74502 8.52511 8.65769 8.52511C8.57035 8.48244 8.48302 8.43778 8.39402 8.35044C8.48302 8.43778 8.57036 8.48244 8.61336 8.52511C8.70236 8.56978 8.78969 8.61244 8.83269 8.70144C8.92169 8.83178 9.05202 8.83178 9.09636 8.87611C9.14102 8.87611 9.14102 8.87611 9.18369 8.92078C9.31569 8.87644 9.31569 8.92111 9.36002 8.96378C9.36002 8.92111 9.36002 8.83178 9.27102 8.78911C9.22836 8.74444 9.22836 8.74444 9.18369 8.74444C9.14102 8.70178 9.05169 8.70178 8.92169 8.56978C8.87702 8.48244 8.78969 8.43778 8.70236 8.43778C8.65769 8.39311 8.57035 8.39311 8.52602 8.30578L7.95569 8.08644V8.04378L8.48336 8.26311C8.48336 8.26311 8.48335 8.30578 8.52602 8.30578L9.49036 8.65678L8.00002 7.95478V7.91211L9.49036 8.61278L9.53502 8.65744C9.53502 8.65744 9.49036 8.70211 9.49036 8.65744L8.61336 8.35078C8.65802 8.39344 8.70236 8.39344 8.74536 8.43811C8.83269 8.48278 8.87735 8.52544 8.96469 8.61278C9.05202 8.74478 9.14102 8.74478 9.18402 8.78911C9.22869 8.78911 9.22869 8.83178 9.27135 8.83178C9.36002 8.83178 9.40302 8.92111 9.36002 8.96378Z" fill="#BF360C" style="fill:#BF360C;fill:color(display-p3 0.7490 0.2118 0.0471);fill-opacity:1;"/>
<path d="M7.95532 8.04411L9.14066 9.14044H9.18332V9.09578L8.08699 7.91211M8.26366 8.48244C8.35099 8.70178 8.52566 8.74444 8.57032 8.96378C8.61299 9.14011 8.78966 9.22744 8.83232 9.27044C8.87699 9.31511 8.87699 9.40244 8.87699 9.40244C8.87699 9.40244 8.92166 9.31511 8.87699 9.22778C8.83232 9.14044 8.74499 9.14044 8.65766 8.87678C8.57032 8.65744 8.43832 8.61311 8.39399 8.39378" fill="#FFC107" style="fill:#FFC107;fill:color(display-p3 1.0000 0.7569 0.0275);fill-opacity:1;"/>
<path d="M8.87701 9.40202C8.87701 9.35936 8.87701 9.31469 8.83234 9.27002L8.78968 9.22736C8.70234 9.18269 8.61334 9.09536 8.57034 8.96369C8.52568 8.87636 8.48301 8.78902 8.43834 8.74436C8.39368 8.65702 8.30634 8.61236 8.26368 8.48236H8.30634C8.35101 8.56969 8.39368 8.65702 8.48268 8.70169C8.52534 8.78902 8.61301 8.83202 8.65734 8.92102C8.70201 9.05136 8.78934 9.14036 8.87667 9.18302C8.92134 9.18302 8.92134 9.22769 8.92134 9.22769C8.87668 9.31502 8.87667 9.35969 8.87667 9.35969V9.40202C8.87701 9.40202 8.87701 9.35902 8.87701 9.40202C8.87701 9.35936 8.87701 9.27002 8.83234 9.22736C8.83234 9.18269 8.78968 9.18269 8.74501 9.14002C8.70234 9.09536 8.65768 9.05102 8.57034 8.87636C8.52568 8.74436 8.48301 8.70169 8.43834 8.65702C8.39368 8.61236 8.35101 8.56969 8.30634 8.48236L7.86768 8.04369L8.30634 8.43769H8.35101V8.48236L9.09601 9.18302L8.00001 7.99902L9.09634 9.18269C9.09634 9.18269 9.09634 9.18269 9.09634 9.22736C9.09634 9.22736 9.09634 9.22736 9.09634 9.27002H9.05168L8.43834 8.52502C8.48301 8.56969 8.48301 8.61236 8.52568 8.61236C8.57034 8.65702 8.61301 8.74436 8.65768 8.83169C8.70234 8.96369 8.74501 9.05102 8.78968 9.09536C8.83234 9.14002 8.83234 9.14002 8.87701 9.18269C8.92168 9.31469 8.92168 9.35902 8.87701 9.40202C8.92168 9.40202 8.92168 9.40202 8.87701 9.40202Z" fill="#BF360C" style="fill:#BF360C;fill:color(display-p3 0.7490 0.2118 0.0471);fill-opacity:1;"/>
<path d="M8.57033 7.91155C8.78967 7.91155 8.877 7.77955 9.09633 7.77955C8.92167 7.73521 8.83233 7.86688 8.57033 7.91155ZM8 8.04355L9.009 7.56055L8 7.95421" fill="#BF360C" style="fill:#BF360C;fill:color(display-p3 0.7490 0.2118 0.0471);fill-opacity:1;"/>
<path d="M8.57033 8.13174C8.78967 8.21908 8.92133 8.13175 9.09633 8.21908C8.96433 8.13175 8.78967 8.17441 8.57033 8.13174ZM8 8.04441L9.14067 7.99975L8 7.95508" fill="#BF360C" style="fill:#BF360C;fill:color(display-p3 0.7490 0.2118 0.0471);fill-opacity:1;"/>
<path d="M8.483 8.35074C8.65767 8.48274 8.78967 8.48274 8.92167 8.61274C8.83233 8.48274 8.65767 8.48274 8.483 8.35074ZM8 8.04441L9.05167 8.43841L8 7.95508" fill="#BF360C" style="fill:#BF360C;fill:color(display-p3 0.7490 0.2118 0.0471);fill-opacity:1;"/>
<path d="M8.30666 8.48274C8.39399 8.65741 8.57032 8.70208 8.61332 8.92141C8.61332 8.78941 8.43866 8.70208 8.30666 8.48274ZM7.95532 8.04441L8.78966 8.78941L8.04466 7.95508" fill="#BF360C" style="fill:#BF360C;fill:color(display-p3 0.7490 0.2118 0.0471);fill-opacity:1;"/>
<path d="M8.65762 7.99946C8.65762 8.35046 8.35095 8.65713 7.99995 8.65713C7.64895 8.65713 7.34229 8.35046 7.34229 7.99946C7.34229 7.64846 7.64895 7.3418 7.99995 7.3418C8.35095 7.3418 8.65762 7.64846 8.65762 7.99946Z" fill="#FFC107" style="fill:#FFC107;fill:color(display-p3 1.0000 0.7569 0.0275);fill-opacity:1;"/>
<path d="M7.99994 8.70154C7.60594 8.70154 7.29761 8.39321 7.29761 7.99921C7.29761 7.60521 7.60594 7.29688 7.99994 7.29688C8.39394 7.29688 8.70227 7.60521 8.70227 7.99921C8.70227 8.39321 8.39394 8.70154 7.99994 8.70154ZM7.99994 7.34154C7.64894 7.34154 7.34227 7.64821 7.34227 7.99921C7.34227 8.35021 7.64894 8.65688 7.99994 8.65688C8.35094 8.65688 8.65761 8.35021 8.65761 7.99921C8.65761 7.64821 8.35094 7.34154 7.99994 7.34154Z" fill="#BF360C" style="fill:#BF360C;fill:color(display-p3 0.7490 0.2118 0.0471);fill-opacity:1;"/>
<path d="M8.21928 7.86719C8.17461 7.86719 8.13195 7.86719 8.08728 7.91185C8.13195 7.95452 8.26361 7.95452 8.35095 7.91185C8.30661 7.86719 8.26361 7.86719 8.21928 7.86719ZM8.21928 7.86719C8.26395 7.86719 8.30661 7.86719 8.30661 7.91185C8.26395 7.95452 8.17461 7.95452 8.13195 7.91185C8.17461 7.86719 8.17461 7.86719 8.21928 7.86719Z" fill="#843511" style="fill:#843511;fill:color(display-p3 0.5176 0.2078 0.0667);fill-opacity:1;"/>
<path d="M8.21934 7.82422C8.13201 7.82422 8.13201 7.82422 8.08734 7.86689C8.04468 7.91155 8.04468 7.86689 8.04468 7.91155C8.04468 7.91155 8.08734 7.91155 8.08734 7.86689C8.08734 7.82422 8.21934 7.82422 8.21934 7.82422C8.30668 7.82422 8.35134 7.91155 8.35134 7.91155C8.39401 7.91155 8.35101 7.82422 8.21934 7.82422Z" fill="#BF360C" style="fill:#BF360C;fill:color(display-p3 0.7490 0.2118 0.0471);fill-opacity:1;"/>
<path d="M8.43871 7.86736C8.30671 7.78003 8.17504 7.73536 8.08771 7.82469C8.08771 7.86736 8.04504 7.86736 8.04504 7.91203C8.04504 7.95469 8.04504 8.04403 8.08771 8.08669C8.04504 7.99936 8.04504 7.91203 8.04504 7.86736V7.82469C8.17471 7.69269 8.30671 7.69269 8.43871 7.86736Z" fill="#BF360C" style="fill:#BF360C;fill:color(display-p3 0.7490 0.2118 0.0471);fill-opacity:1;"/>
<path d="M8.26365 7.91185C8.26365 7.95452 8.26365 7.95452 8.21898 7.95452C8.17432 7.95452 8.17432 7.95452 8.17432 7.91185C8.17432 7.86719 8.17432 7.86719 8.21898 7.86719C8.26365 7.86719 8.26365 7.86719 8.26365 7.91185Z" fill="#BF360C" style="fill:#BF360C;fill:color(display-p3 0.7490 0.2118 0.0471);fill-opacity:1;"/>
<path d="M8.35095 7.95508C8.26361 8.04441 8.17461 7.99974 8.13195 7.99974C8.08728 7.99974 8.08728 7.95508 8.08728 7.95508C8.08728 7.95508 8.08728 7.95508 8.13195 7.99974C8.17461 8.04441 8.26361 7.99974 8.35095 7.95508Z" fill="#BF360C" style="fill:#BF360C;fill:color(display-p3 0.7490 0.2118 0.0471);fill-opacity:1;"/>
<path d="M7.91271 8.08691L7.86804 8.13158C7.86804 8.17425 7.86804 8.17425 7.91271 8.17425H7.95538H8.00004H8.04471H8.08738C8.13204 8.17425 8.13204 8.17425 8.13204 8.13158C8.13204 8.08691 8.13204 8.08691 8.08738 8.08691C8.08738 8.08691 8.08738 8.08691 8.08738 8.13158C8.08738 8.13158 8.08738 8.17425 8.04471 8.17425C8.04471 8.17425 8.00004 8.17425 8.00004 8.13158L7.95538 8.17425C7.95538 8.17425 7.95538 8.13158 7.91271 8.08691C7.95538 8.13158 7.95538 8.13158 7.91271 8.13158C7.91271 8.13158 7.86804 8.13158 7.91271 8.08691C7.86804 8.08691 7.86804 8.08691 7.91271 8.08691Z" fill="#BF360C" style="fill:#BF360C;fill:color(display-p3 0.7490 0.2118 0.0471);fill-opacity:1;"/>
<path d="M7.95528 8.21908C7.91262 8.21908 7.86795 8.26375 7.82495 8.30642C7.86795 8.30642 7.86795 8.26342 7.95528 8.21908L7.99995 8.26342C7.99995 8.26342 8.04462 8.21875 8.08728 8.26342C8.13195 8.30608 8.13195 8.30608 8.17462 8.30608C8.13195 8.26342 8.08728 8.21875 8.04428 8.21875H7.99995C7.95528 8.21908 7.95528 8.21908 7.95528 8.21908Z" fill="#BF360C" style="fill:#BF360C;fill:color(display-p3 0.7490 0.2118 0.0471);fill-opacity:1;"/>
<path d="M7.91265 8.30607C7.91265 8.30607 7.86798 8.30607 7.82532 8.30607C7.91265 8.30607 7.95565 8.30607 7.95565 8.30607C8.00032 8.30607 8.00032 8.26341 8.13198 8.30607C8.04465 8.26341 7.99998 8.30607 7.95565 8.30607C7.99998 8.30607 7.95532 8.30607 7.91265 8.30607Z" fill="#BF360C" style="fill:#BF360C;fill:color(display-p3 0.7490 0.2118 0.0471);fill-opacity:1;"/>
<path d="M7.86794 8.30566C7.82527 8.30566 7.82527 8.30566 7.86794 8.30566C7.95527 8.30566 7.9126 8.393 7.99994 8.393C8.08727 8.393 8.0446 8.35033 8.1746 8.30566C8.04427 8.30566 8.08727 8.35033 7.99994 8.35033C7.9126 8.35033 7.95527 8.30566 7.86794 8.30566Z" fill="#BF360C" style="fill:#BF360C;fill:color(display-p3 0.7490 0.2118 0.0471);fill-opacity:1;"/>
<path d="M8.08726 8.48256C8.08726 8.43789 8.0446 8.39355 7.99993 8.39355C7.95526 8.39355 7.9126 8.43822 7.9126 8.48256C7.9126 8.43789 7.95526 8.39355 7.99993 8.39355C8.0446 8.39355 8.08726 8.43822 8.08726 8.48256Z" fill="#BF360C" style="fill:#BF360C;fill:color(display-p3 0.7490 0.2118 0.0471);fill-opacity:1;"/>
<path d="M7.60596 7.86736C7.73629 7.78003 7.86796 7.73536 7.95529 7.82469C7.95529 7.86736 7.99996 7.86736 7.99996 7.91203C7.99996 7.95469 7.99996 8.04403 7.95529 8.08669C7.99996 7.99936 7.99996 7.95469 7.99996 7.86736V7.82469C7.86796 7.69269 7.69329 7.69269 7.60596 7.86736Z" fill="#BF360C" style="fill:#BF360C;fill:color(display-p3 0.7490 0.2118 0.0471);fill-opacity:1;"/>
<path d="M7.78062 7.82422C7.86796 7.82422 7.86796 7.82422 7.91262 7.86689C7.95529 7.91155 7.95529 7.86689 7.95529 7.91155C7.95529 7.91155 7.91262 7.91155 7.91262 7.86689C7.91262 7.82422 7.78062 7.82422 7.78062 7.82422C7.69329 7.82422 7.64862 7.91155 7.60596 7.91155C7.60596 7.91155 7.64896 7.82422 7.78062 7.82422Z" fill="#BF360C" style="fill:#BF360C;fill:color(display-p3 0.7490 0.2118 0.0471);fill-opacity:1;"/>
<path d="M7.78068 7.86719C7.73601 7.86719 7.69335 7.86719 7.64868 7.91185C7.69335 7.95452 7.82501 7.95452 7.91235 7.91185C7.86801 7.86719 7.82535 7.86719 7.78068 7.86719ZM7.78068 7.86719C7.82535 7.86719 7.86802 7.86719 7.86802 7.91185C7.82535 7.95452 7.73602 7.95452 7.69335 7.91185C7.69335 7.86719 7.73635 7.86719 7.78068 7.86719Z" fill="#843511" style="fill:#843511;fill:color(display-p3 0.5176 0.2078 0.0667);fill-opacity:1;"/>
<path d="M7.82529 7.91185C7.82529 7.95452 7.82529 7.95452 7.78063 7.95452C7.73596 7.95452 7.73596 7.95452 7.73596 7.91185C7.73596 7.86719 7.73596 7.86719 7.78063 7.86719C7.78063 7.86719 7.82529 7.86719 7.82529 7.91185Z" fill="#BF360C" style="fill:#BF360C;fill:color(display-p3 0.7490 0.2118 0.0471);fill-opacity:1;"/>
<path d="M7.64905 7.95508C7.73638 8.04441 7.82538 7.99974 7.86805 7.99974C7.82538 8.04441 7.73638 7.99974 7.64905 7.95508Z" fill="#BF360C" style="fill:#BF360C;fill:color(display-p3 0.7490 0.2118 0.0471);fill-opacity:1;"/>
<defs>
<linearGradient id="paint0_linear_2503_5125" x1="5.36935" y1="2.71601" x2="10.9304" y2="13.8857" gradientUnits="userSpaceOnUse">
<stop stop-color="#00ADE7" style="stop-color:#00ADE7;stop-color:color(display-p3 0.0000 0.6784 0.9059);stop-opacity:1;"/>
<stop offset="1" stop-color="#0098B5" style="stop-color:#0098B5;stop-color:color(display-p3 0.0000 0.5961 0.7098);stop-opacity:1;"/>
</linearGradient>
<linearGradient id="paint1_linear_2503_5125" x1="7.15971" y1="5.78668" x2="11.8934" y2="18.2513" gradientUnits="userSpaceOnUse">
<stop stop-color="#DFE9F2" style="stop-color:#DFE9F2;stop-color:color(display-p3 0.8745 0.9137 0.9490);stop-opacity:1;"/>
<stop offset="0.998" stop-color="#9EA7B0" style="stop-color:#9EA7B0;stop-color:color(display-p3 0.6196 0.6549 0.6902);stop-opacity:1;"/>
</linearGradient>
</defs>
</svg>
