<svg width="16" height="16" viewBox="0 0 16 16" fill="none" xmlns="http://www.w3.org/2000/svg">
<path d="M14.6673 7.99869C14.6673 4.31703 11.6823 1.33203 8.00065 1.33203C4.31898 1.33203 1.33398 4.31703 1.33398 7.99869C1.33398 11.6803 4.31898 14.6653 8.00065 14.6653C11.6823 14.6653 14.6673 11.6803 14.6673 7.99869Z" fill="url(#paint0_linear_9881_129301)" style=""/>
<path d="M13.0354 3.63778L9.6674 6.16911V1.55078C10.996 1.89344 12.1634 2.63178 13.0354 3.63778ZM14.4487 6.33211C14.3437 5.92511 14.202 5.53378 14.026 5.16044L12.334 6.33211H14.4487ZM2.96607 3.63778L6.33406 6.16911V1.55078C5.0054 1.89344 3.83807 2.63178 2.96607 3.63778ZM1.97507 5.16044C1.79907 5.53378 1.65773 5.92511 1.55273 6.33211H3.6674L1.97507 5.16044ZM6.33406 14.4468V9.78678L2.96607 12.3598C3.83807 13.3658 5.0054 14.1041 6.33406 14.4468ZM1.55273 9.66544C1.65773 10.0724 1.7994 10.4638 1.9754 10.8371L3.6674 9.66544H1.55273ZM9.6674 14.4468C10.996 14.1041 12.1634 13.3658 13.0354 12.3598L9.6674 9.78678V14.4468ZM14.0264 10.8371C14.2024 10.4641 14.344 10.0728 14.449 9.66544H12.334L14.0264 10.8371Z" fill="url(#paint1_linear_9881_129301)" style=""/>
<path d="M14.4678 9.61139C13.5772 13.1828 9.95958 15.3564 6.38731 14.4658C2.81654 13.5754 0.642793 9.95785 1.53366 6.38669C2.42374 2.81482 6.04145 0.641141 9.6126 1.53152C13.1846 2.42191 15.3583 6.03977 14.4678 9.61139Z" fill="#F3BA2F" style="fill:#F3BA2F;fill:color(display-p3 0.9529 0.7294 0.1843);fill-opacity:1;"/>
<path fill-rule="evenodd" clip-rule="evenodd" d="M8.00351 5.55967L6.27703 7.28597L5.27255 6.28146L8.00351 3.55078L10.7353 6.28227L9.7308 7.28671L8.00351 5.55967ZM4.56318 6.99061L3.55859 7.99523L4.56311 8.99949L5.56769 7.99501L4.56318 6.99061ZM6.27703 8.7046L8.00351 10.4308L9.73077 8.70378L10.7359 9.7077L8.00351 12.4397L5.27113 9.70758L6.27703 8.7046ZM11.4439 6.99117L10.4393 7.99565L11.4439 9.00006L12.4484 7.99558L11.4439 6.99117Z" fill="white" style="fill:white;fill-opacity:1;"/>
<path d="M9.02114 7.9958L8.0023 6.97656L6.98384 7.99477L6.98242 7.99616L6.98384 7.99761L8.0023 9.01611L9.02163 7.99687L9.02114 7.9958Z" fill="white" style="fill:white;fill-opacity:1;"/>
<defs>
<linearGradient id="paint0_linear_9881_129301" x1="3.37065" y1="3.36869" x2="12.7246" y2="12.7227" gradientUnits="userSpaceOnUse">
<stop stop-color="#DFE9F2" style="stop-color:#DFE9F2;stop-color:color(display-p3 0.8745 0.9137 0.9490);stop-opacity:1;"/>
<stop offset="0.998" stop-color="#9EA7B0" style="stop-color:#9EA7B0;stop-color:color(display-p3 0.6196 0.6549 0.6902);stop-opacity:1;"/>
</linearGradient>
<linearGradient id="paint1_linear_9881_129301" x1="3.49573" y1="3.49378" x2="12.7827" y2="12.7808" gradientUnits="userSpaceOnUse">
<stop stop-color="#0D61A9" style="stop-color:#0D61A9;stop-color:color(display-p3 0.0510 0.3804 0.6627);stop-opacity:1;"/>
<stop offset="1" stop-color="#16528C" style="stop-color:#16528C;stop-color:color(display-p3 0.0863 0.3216 0.5490);stop-opacity:1;"/>
</linearGradient>
</defs>
</svg>
