<svg width="16" height="16" viewBox="0 0 16 16" fill="none" xmlns="http://www.w3.org/2000/svg">
<path d="M14.6673 7.99869C14.6673 4.31703 11.6823 1.33203 8.00065 1.33203C4.31898 1.33203 1.33398 4.31703 1.33398 7.99869C1.33398 11.6803 4.31898 14.6653 8.00065 14.6653C11.6823 14.6653 14.6673 11.6803 14.6673 7.99869Z" fill="url(#paint0_linear_9881_129320)" style=""/>
<path d="M13.0354 3.63778L9.6674 6.16911V1.55078C10.996 1.89344 12.1634 2.63178 13.0354 3.63778ZM14.4487 6.33211C14.3437 5.92511 14.202 5.53378 14.026 5.16044L12.334 6.33211H14.4487ZM2.96607 3.63778L6.33406 6.16911V1.55078C5.0054 1.89344 3.83807 2.63178 2.96607 3.63778ZM1.97507 5.16044C1.79907 5.53378 1.65773 5.92511 1.55273 6.33211H3.6674L1.97507 5.16044ZM6.33406 14.4468V9.78678L2.96607 12.3598C3.83807 13.3658 5.0054 14.1041 6.33406 14.4468ZM1.55273 9.66544C1.65773 10.0724 1.7994 10.4638 1.9754 10.8371L3.6674 9.66544H1.55273ZM9.6674 14.4468C10.996 14.1041 12.1634 13.3658 13.0354 12.3598L9.6674 9.78678V14.4468ZM14.0264 10.8371C14.2024 10.4641 14.344 10.0728 14.449 9.66544H12.334L14.0264 10.8371Z" fill="url(#paint1_linear_9881_129320)" style=""/>
<path fill-rule="evenodd" clip-rule="evenodd" d="M8.00065 14.6653C11.6825 14.6653 14.6673 11.6805 14.6673 7.99869C14.6673 4.3168 11.6825 1.33203 8.00065 1.33203C4.31875 1.33203 1.33398 4.3168 1.33398 7.99869C1.33398 11.6805 4.31875 14.6653 8.00065 14.6653Z" fill="#F7931A" style="fill:#F7931A;fill:color(display-p3 0.9686 0.5765 0.1020);fill-opacity:1;"/>
<path fill-rule="evenodd" clip-rule="evenodd" d="M10.2234 9.14947C10.0998 8.85276 9.82369 8.60324 9.82369 8.60324C9.82369 8.60324 10.1809 8.60037 10.3803 8.50661C10.5799 8.41285 10.7746 8.2015 10.8565 8.08077C10.9383 7.95995 11.2647 7.44368 11.0343 6.90506C10.8562 6.48835 10.5502 6.18713 10.0845 5.87771L10.7003 4.81105L10.052 4.43673L9.44345 5.49078C9.29878 5.40727 9.12973 5.30966 8.94963 5.20568L9.55819 4.15162L8.90992 3.77734L8.30135 4.8314C7.63954 4.44931 7.0259 4.09502 7.0259 4.09502L6.63159 4.77798C6.63159 4.77798 6.90425 4.9354 7.00649 4.99443C7.10869 5.05343 7.28381 5.16991 7.31043 5.3022C7.33715 5.43435 7.32415 5.48836 7.22573 5.65883C7.12727 5.82937 5.69185 8.31568 5.65458 8.38022C5.61732 8.44474 5.5591 8.5176 5.47434 8.53837C5.38967 8.55921 5.32811 8.53994 5.19779 8.46469C5.06749 8.38947 4.81005 8.24083 4.81005 8.24083L4.2207 8.95378C4.2207 8.95378 4.85455 9.31972 5.49615 9.69016L4.88931 10.7412L5.53761 11.1155L6.14445 10.0645C6.34365 10.1795 6.5171 10.2796 6.63827 10.3496L6.03143 11.4006L6.67977 11.7749L7.29661 10.7065C7.46994 10.7934 7.63364 10.8707 7.73178 10.9112C7.93078 10.9934 8.37722 11.1856 8.9278 11.1347C9.47829 11.0836 9.81627 10.701 10.0773 10.2699C10.3385 9.83881 10.3468 9.44608 10.2234 9.14947ZM8.51881 5.94964C8.51881 5.94964 8.73542 6.05016 8.93667 6.17036C9.13796 6.29064 9.31306 6.39996 9.53182 6.63692C9.75045 6.87385 9.79076 7.16757 9.65853 7.41086C9.52617 7.65406 9.33082 7.75428 9.09057 7.75082C8.85027 7.74729 8.56701 7.65752 8.32532 7.53016C8.08372 7.403 7.78605 7.21881 7.78605 7.21881L8.51881 5.94964ZM8.15757 9.93149C7.9612 9.92882 7.6217 9.83113 7.32156 9.68645C7.02129 9.54181 6.59643 9.28422 6.59643 9.28422L7.41086 7.87357C7.41086 7.87357 7.83529 8.09002 8.14406 8.2969C8.45269 8.50389 8.67445 8.74245 8.76003 8.87395C8.84574 9.00532 8.97983 9.26299 8.79349 9.58573C8.60723 9.90836 8.35382 9.93419 8.15757 9.93149Z" fill="white" style="fill:white;fill-opacity:1;"/>
<defs>
<linearGradient id="paint0_linear_9881_129320" x1="3.37065" y1="3.36869" x2="12.7246" y2="12.7227" gradientUnits="userSpaceOnUse">
<stop stop-color="#DFE9F2" style="stop-color:#DFE9F2;stop-color:color(display-p3 0.8745 0.9137 0.9490);stop-opacity:1;"/>
<stop offset="0.998" stop-color="#9EA7B0" style="stop-color:#9EA7B0;stop-color:color(display-p3 0.6196 0.6549 0.6902);stop-opacity:1;"/>
</linearGradient>
<linearGradient id="paint1_linear_9881_129320" x1="3.49573" y1="3.49378" x2="12.7827" y2="12.7808" gradientUnits="userSpaceOnUse">
<stop stop-color="#0D61A9" style="stop-color:#0D61A9;stop-color:color(display-p3 0.0510 0.3804 0.6627);stop-opacity:1;"/>
<stop offset="1" stop-color="#16528C" style="stop-color:#16528C;stop-color:color(display-p3 0.0863 0.3216 0.5490);stop-opacity:1;"/>
</linearGradient>
</defs>
</svg>
