<svg width="16" height="16" viewBox="0 0 16 16" fill="none" xmlns="http://www.w3.org/2000/svg">
<path d="M12 2.67632C10.885 1.83732 9.503 1.33398 8 1.33398C6.497 1.33398 5.115 1.83732 4 2.67632V13.325C5.115 14.164 6.497 14.6673 8 14.6673C9.503 14.6673 10.885 14.164 12 13.325V2.67632Z" fill="url(#paint0_linear_2503_11692)" style=""/>
<path d="M14.6667 8.00011C14.6667 5.82111 13.6167 3.89245 12 2.67578V13.3244C13.6167 12.1078 14.6667 10.1791 14.6667 8.00011ZM1.33337 8.00011C1.33337 10.1791 2.38337 12.1078 4.00004 13.3244V2.67578C2.38337 3.89245 1.33337 5.82111 1.33337 8.00011ZM11 7.66678H10L9.98704 7.00545L9.21604 7.39078L9.33337 5.66678L8.66671 6.00011L8.00271 5.00011L7.33337 6.00011L6.66671 5.66678L6.78404 7.38178L6.01304 7.00545C6.01304 7.00545 5.99871 7.66311 6.00004 7.66678H5.00004L5.66671 8.66678L5.00004 9.00011L6.33337 9.66678V10.3334C6.33337 10.3334 7.17871 10.2874 7.66671 10.2628V11.0001H8.33337V10.2628C8.82137 10.2874 9.66671 10.3334 9.66671 10.3334V9.66678L11 9.00011L10.3334 8.66678L11 7.66678Z" fill="url(#paint1_linear_2503_11692)" style=""/>
<defs>
<linearGradient id="paint0_linear_2503_11692" x1="7.507" y1="6.68565" x2="12.738" y2="20.637" gradientUnits="userSpaceOnUse">
<stop stop-color="#DFE9F2" style="stop-color:#DFE9F2;stop-color:color(display-p3 0.8745 0.9137 0.9490);stop-opacity:1;"/>
<stop offset="0.998" stop-color="#9EA7B0" style="stop-color:#9EA7B0;stop-color:color(display-p3 0.6196 0.6549 0.6902);stop-opacity:1;"/>
</linearGradient>
<linearGradient id="paint1_linear_2503_11692" x1="5.87771" y1="2.82878" x2="10.94" y2="15.1638" gradientUnits="userSpaceOnUse">
<stop offset="0.008" stop-color="#F44F5A" style="stop-color:#F44F5A;stop-color:color(display-p3 0.9569 0.3098 0.3529);stop-opacity:1;"/>
<stop offset="0.447" stop-color="#EE3D4A" style="stop-color:#EE3D4A;stop-color:color(display-p3 0.9333 0.2392 0.2902);stop-opacity:1;"/>
<stop offset="1" stop-color="#E52030" style="stop-color:#E52030;stop-color:color(display-p3 0.8980 0.1255 0.1882);stop-opacity:1;"/>
</linearGradient>
</defs>
</svg>
