<svg width="16" height="16" viewBox="0 0 16 16" fill="none" xmlns="http://www.w3.org/2000/svg">
<path d="M14.6673 7.99869C14.6673 4.31703 11.6823 1.33203 8.00065 1.33203C4.31898 1.33203 1.33398 4.31703 1.33398 7.99869C1.33398 11.6803 4.31898 14.6653 8.00065 14.6653C11.6823 14.6653 14.6673 11.6803 14.6673 7.99869Z" fill="url(#paint0_linear_9881_129231)" style=""/>
<path d="M13.0354 3.63778L9.6674 6.16911V1.55078C10.996 1.89344 12.1634 2.63178 13.0354 3.63778ZM14.4487 6.33211C14.3437 5.92511 14.202 5.53378 14.026 5.16044L12.334 6.33211H14.4487ZM2.96607 3.63778L6.33406 6.16911V1.55078C5.0054 1.89344 3.83807 2.63178 2.96607 3.63778ZM1.97507 5.16044C1.79907 5.53378 1.65773 5.92511 1.55273 6.33211H3.6674L1.97507 5.16044ZM6.33406 14.4468V9.78678L2.96607 12.3598C3.83807 13.3658 5.0054 14.1041 6.33406 14.4468ZM1.55273 9.66544C1.65773 10.0724 1.7994 10.4638 1.9754 10.8371L3.6674 9.66544H1.55273ZM9.6674 14.4468C10.996 14.1041 12.1634 13.3658 13.0354 12.3598L9.6674 9.78678V14.4468ZM14.0264 10.8371C14.2024 10.4641 14.344 10.0728 14.449 9.66544H12.334L14.0264 10.8371Z" fill="url(#paint1_linear_9881_129231)" style=""/>
<g clip-path="url(#clip0_9881_129231)">
<path d="M7.99898 14.662C11.68 14.662 14.664 11.678 14.664 7.99703C14.664 4.31605 11.68 1.33203 7.99898 1.33203C4.31801 1.33203 1.33398 4.31605 1.33398 7.99703C1.33398 11.678 4.31801 14.662 7.99898 14.662Z" fill="black" style="fill:black;fill-opacity:1;"/>
<path d="M4.66406 3.99695C5.16394 3.99695 5.55273 4.21911 5.94152 4.55236C6.0526 4.66345 6.16369 4.77453 6.27477 4.88561C6.44139 5.05224 6.60802 5.05224 6.83019 5.05224C7.21898 4.9967 7.55223 4.88561 7.94102 4.88561C8.0521 4.88561 8.16319 4.88561 8.27427 4.94116C8.55198 5.05224 8.77414 4.9967 9.05185 4.88561C9.44064 4.66345 9.88498 4.44128 10.2738 4.27466C10.6626 4.10803 11.0514 3.94141 11.4957 3.94141C11.94 3.94141 12.2177 4.16357 12.4399 4.49682C12.551 4.66345 12.4954 4.83007 12.4399 4.9967C12.3288 5.49657 12.0511 5.82982 11.6068 6.05199C11.3846 6.16307 11.218 6.27416 10.9958 6.38524C10.6626 6.49632 10.4959 6.77403 10.4404 7.10728C10.2738 8.10703 10.1071 9.05124 9.82944 9.99545C9.60727 10.7175 9.32956 11.384 8.88523 11.9394C8.44089 12.4393 7.94102 12.7725 7.27452 12.7725C6.94127 12.7725 6.7191 12.5504 6.49694 12.3837C6.0526 11.9949 5.88598 11.4951 5.77489 10.9952C5.71935 10.7175 5.66381 10.4398 5.66381 10.1621C5.77489 9.10678 5.60827 8.21811 5.3861 7.32945C5.33056 7.10728 5.21948 6.82957 5.16394 6.60741C5.16394 6.3297 4.94177 6.10753 4.77514 5.94091C4.55298 5.77428 4.33081 5.60766 4.16419 5.38549C3.88648 5.05224 3.83094 4.66345 4.0531 4.27466C4.16419 4.05249 4.33081 3.99695 4.66406 3.99695Z" fill="#FEFEFE" style="fill:#FEFEFE;fill:color(display-p3 0.9961 0.9961 0.9961);fill-opacity:1;"/>
<path d="M6.60938 11.6043C6.60938 11.0489 6.83154 10.6601 7.27587 10.4935C7.72021 10.3268 8.22008 10.549 8.44225 10.9378C8.66442 11.3266 8.49779 11.7709 8.109 12.1042C7.88683 12.2708 7.66467 12.3819 7.38696 12.3819C6.99817 12.4374 6.60938 12.2153 6.60938 11.6043Z" fill="black" style="fill:black;fill-opacity:1;"/>
<path d="M8.27539 7.8293C8.33093 7.49605 8.44202 7.1628 8.77527 6.94063C8.99743 6.77401 9.2196 6.82955 9.38622 7.05172C9.66393 7.44051 9.77502 7.88484 9.55285 8.32917C9.44177 8.55134 9.27514 8.66242 9.05297 8.60688C8.94189 8.60688 8.83081 8.55134 8.66418 8.55134C8.44202 8.44026 8.27539 8.21809 8.27539 7.8293Z" fill="black" style="fill:black;fill-opacity:1;"/>
<path d="M6.49662 8.27148C6.10783 8.27148 5.9412 7.93823 5.99674 7.60498C5.99674 7.49389 6.05228 7.43835 6.05228 7.32727C6.16337 6.99402 6.55216 6.93848 6.82987 7.16064C7.10758 7.38281 7.10758 7.88269 6.82987 8.10485C6.71878 8.27148 6.6077 8.32702 6.49662 8.27148Z" fill="black" style="fill:black;fill-opacity:1;"/>
<path d="M9.71911 5.82964C9.66357 5.82964 9.66357 5.82964 9.66357 5.7741C9.66357 5.66302 9.55249 5.66302 9.49695 5.66302C9.44141 5.66302 9.44141 5.60747 9.44141 5.55193C9.44141 5.49639 9.49695 5.49639 9.55249 5.49639C9.60803 5.49639 9.71911 5.49639 9.71911 5.38531C9.71911 5.27422 9.66357 5.21868 9.60803 5.21868C9.55249 5.21868 9.49695 5.16314 9.55249 5.1076C9.55249 5.05206 9.60803 5.05206 9.66357 5.05206C9.77466 5.05206 9.88574 5.05206 9.99682 4.94097C10.0524 4.88543 10.1079 4.94097 10.1634 4.99652C10.219 5.05206 10.1634 5.05206 10.1634 5.1076C10.1634 5.21868 9.99682 5.21868 9.94128 5.32977C9.88574 5.44085 9.88574 5.55193 9.88574 5.71856C9.8302 5.7741 9.8302 5.82964 9.71911 5.82964Z" fill="#040404" style="fill:#040404;fill:color(display-p3 0.0157 0.0157 0.0157);fill-opacity:1;"/>
</g>
<defs>
<linearGradient id="paint0_linear_9881_129231" x1="3.37065" y1="3.36869" x2="12.7246" y2="12.7227" gradientUnits="userSpaceOnUse">
<stop stop-color="#DFE9F2" style="stop-color:#DFE9F2;stop-color:color(display-p3 0.8745 0.9137 0.9490);stop-opacity:1;"/>
<stop offset="0.998" stop-color="#9EA7B0" style="stop-color:#9EA7B0;stop-color:color(display-p3 0.6196 0.6549 0.6902);stop-opacity:1;"/>
</linearGradient>
<linearGradient id="paint1_linear_9881_129231" x1="3.49573" y1="3.49378" x2="12.7827" y2="12.7808" gradientUnits="userSpaceOnUse">
<stop stop-color="#0D61A9" style="stop-color:#0D61A9;stop-color:color(display-p3 0.0510 0.3804 0.6627);stop-opacity:1;"/>
<stop offset="1" stop-color="#16528C" style="stop-color:#16528C;stop-color:color(display-p3 0.0863 0.3216 0.5490);stop-opacity:1;"/>
</linearGradient>
<clipPath id="clip0_9881_129231">
<rect width="13.33" height="13.33" fill="white" style="fill:white;fill-opacity:1;" transform="translate(1.33398 1.33203)"/>
</clipPath>
</defs>
</svg>
