<svg width="16" height="16" viewBox="0 0 16 16" fill="none" xmlns="http://www.w3.org/2000/svg">
<path d="M14.6673 7.99869C14.6673 4.31703 11.6823 1.33203 8.00065 1.33203C4.31898 1.33203 1.33398 4.31703 1.33398 7.99869C1.33398 11.6803 4.31898 14.6653 8.00065 14.6653C11.6823 14.6653 14.6673 11.6803 14.6673 7.99869Z" fill="url(#paint0_linear_9881_129337)" style=""/>
<path d="M13.0354 3.63778L9.6674 6.16911V1.55078C10.996 1.89344 12.1634 2.63178 13.0354 3.63778ZM14.4487 6.33211C14.3437 5.92511 14.202 5.53378 14.026 5.16044L12.334 6.33211H14.4487ZM2.96607 3.63778L6.33406 6.16911V1.55078C5.0054 1.89344 3.83807 2.63178 2.96607 3.63778ZM1.97507 5.16044C1.79907 5.53378 1.65773 5.92511 1.55273 6.33211H3.6674L1.97507 5.16044ZM6.33406 14.4468V9.78678L2.96607 12.3598C3.83807 13.3658 5.0054 14.1041 6.33406 14.4468ZM1.55273 9.66544C1.65773 10.0724 1.7994 10.4638 1.9754 10.8371L3.6674 9.66544H1.55273ZM9.6674 14.4468C10.996 14.1041 12.1634 13.3658 13.0354 12.3598L9.6674 9.78678V14.4468ZM14.0264 10.8371C14.2024 10.4641 14.344 10.0728 14.449 9.66544H12.334L14.0264 10.8371Z" fill="url(#paint1_linear_9881_129337)" style=""/>
<path d="M8.00065 14.6654C11.6825 14.6654 14.6673 11.6806 14.6673 7.99869C14.6673 4.3168 11.6825 1.33203 8.00065 1.33203C4.31875 1.33203 1.33398 4.3168 1.33398 7.99869C1.33398 11.6806 4.31875 14.6654 8.00065 14.6654Z" fill="#EDF0F4" style="fill:#EDF0F4;fill:color(display-p3 0.9313 0.9428 0.9558);fill-opacity:1;"/>
<path d="M7.98273 3.99609L7.92969 4.17623V9.40309L7.98273 9.456L10.4089 8.02185L7.98273 3.99609Z" fill="#343434" style="fill:#343434;fill:color(display-p3 0.2039 0.2039 0.2039);fill-opacity:1;"/>
<path d="M7.98486 3.99609L5.55859 8.02185L7.98486 9.456V6.91903V3.99609Z" fill="#8C8C8C" style="fill:#8C8C8C;fill:color(display-p3 0.5490 0.5490 0.5490);fill-opacity:1;"/>
<path d="M7.98496 9.91778L7.95508 9.95423V11.8161L7.98496 11.9034L10.4127 8.48438L7.98496 9.91778Z" fill="#3C3C3B" style="fill:#3C3C3B;fill:color(display-p3 0.2353 0.2353 0.2314);fill-opacity:1;"/>
<path d="M7.98486 11.9034V9.91778L5.55859 8.48438L7.98486 11.9034Z" fill="#8C8C8C" style="fill:#8C8C8C;fill:color(display-p3 0.5490 0.5490 0.5490);fill-opacity:1;"/>
<path d="M7.98438 9.45885L10.4106 8.0247L7.98438 6.92188V9.45885Z" fill="#141414" style="fill:#141414;fill:color(display-p3 0.0784 0.0784 0.0784);fill-opacity:1;"/>
<path d="M5.55859 8.0247L7.98486 9.45885V6.92188L5.55859 8.0247Z" fill="#393939" style="fill:#393939;fill:color(display-p3 0.2235 0.2235 0.2235);fill-opacity:1;"/>
<defs>
<linearGradient id="paint0_linear_9881_129337" x1="3.37065" y1="3.36869" x2="12.7246" y2="12.7227" gradientUnits="userSpaceOnUse">
<stop stop-color="#DFE9F2" style="stop-color:#DFE9F2;stop-color:color(display-p3 0.8745 0.9137 0.9490);stop-opacity:1;"/>
<stop offset="0.998" stop-color="#9EA7B0" style="stop-color:#9EA7B0;stop-color:color(display-p3 0.6196 0.6549 0.6902);stop-opacity:1;"/>
</linearGradient>
<linearGradient id="paint1_linear_9881_129337" x1="3.49573" y1="3.49378" x2="12.7827" y2="12.7808" gradientUnits="userSpaceOnUse">
<stop stop-color="#0D61A9" style="stop-color:#0D61A9;stop-color:color(display-p3 0.0510 0.3804 0.6627);stop-opacity:1;"/>
<stop offset="1" stop-color="#16528C" style="stop-color:#16528C;stop-color:color(display-p3 0.0863 0.3216 0.5490);stop-opacity:1;"/>
</linearGradient>
</defs>
</svg>
