<svg width="16" height="16" viewBox="0 0 16 16" fill="none" xmlns="http://www.w3.org/2000/svg">
<path d="M14.6673 7.99869C14.6673 4.31703 11.6823 1.33203 8.00065 1.33203C4.31898 1.33203 1.33398 4.31703 1.33398 7.99869C1.33398 11.6803 4.31898 14.6653 8.00065 14.6653C11.6823 14.6653 14.6673 11.6803 14.6673 7.99869Z" fill="url(#paint0_linear_9881_129175)" style=""/>
<path d="M13.0354 3.63778L9.6674 6.16911V1.55078C10.996 1.89344 12.1634 2.63178 13.0354 3.63778ZM14.4487 6.33211C14.3437 5.92511 14.202 5.53378 14.026 5.16044L12.334 6.33211H14.4487ZM2.96607 3.63778L6.33406 6.16911V1.55078C5.0054 1.89344 3.83807 2.63178 2.96607 3.63778ZM1.97507 5.16044C1.79907 5.53378 1.65773 5.92511 1.55273 6.33211H3.6674L1.97507 5.16044ZM6.33406 14.4468V9.78678L2.96607 12.3598C3.83807 13.3658 5.0054 14.1041 6.33406 14.4468ZM1.55273 9.66544C1.65773 10.0724 1.7994 10.4638 1.9754 10.8371L3.6674 9.66544H1.55273ZM9.6674 14.4468C10.996 14.1041 12.1634 13.3658 13.0354 12.3598L9.6674 9.78678V14.4468ZM14.0264 10.8371C14.2024 10.4641 14.344 10.0728 14.449 9.66544H12.334L14.0264 10.8371Z" fill="url(#paint1_linear_9881_129175)" style=""/>
<g clip-path="url(#clip0_9881_129175)">
<mask id="mask0_9881_129175" style="mask-type:luminance" maskUnits="userSpaceOnUse" x="1" y="1" width="14" height="14">
<path d="M14.662 7.99312C14.662 4.31215 11.678 1.32812 7.99703 1.32812C4.31605 1.32812 1.33203 4.31215 1.33203 7.99312C1.33203 11.6741 4.31605 14.6581 7.99703 14.6581C11.678 14.6581 14.662 11.6741 14.662 7.99312Z" fill="white" style="fill:white;fill-opacity:1;"/>
</mask>
<g mask="url(#mask0_9881_129175)">
<path d="M173.598 -127.527H-49.9355V61.3144H173.598V-127.527Z" fill="#D8D8D8" style="fill:#D8D8D8;fill:color(display-p3 0.8471 0.8471 0.8471);fill-opacity:1;"/>
<path d="M14.664 1.33203H1.33398V14.662H14.664V1.33203Z" fill="#2A66B7" style="fill:#2A66B7;fill:color(display-p3 0.1647 0.4000 0.7176);fill-opacity:1;"/>
<path d="M7.99902 2.55078L8.28613 3.20617L8.92187 3.31726L8.46044 3.82824L8.57324 4.55028L7.99902 4.20592L7.42481 4.55028L7.5376 3.82824L7.07617 3.31726L7.71191 3.20617L7.99902 2.55078Z" fill="#FCBE1F" style="fill:#FCBE1F;fill:color(display-p3 0.9882 0.7451 0.1216);fill-opacity:1;"/>
<path d="M7.99902 11.4375L8.28613 12.0929L8.92187 12.204L8.46044 12.7149L8.57324 13.437L7.99902 13.0927L7.42481 13.437L7.5376 12.7149L7.07617 12.204L7.71191 12.0929L7.99902 11.4375Z" fill="#FCBE1F" style="fill:#FCBE1F;fill:color(display-p3 0.9882 0.7451 0.1216);fill-opacity:1;"/>
<path d="M12.1006 6.99609L12.3877 7.65149L13.0234 7.76257L12.5621 8.27356L12.6749 8.99559L12.1006 8.65124L11.5264 8.99559L11.6392 8.27356L11.1777 7.76257L11.8135 7.65149L12.1006 6.99609Z" fill="#FCBE1F" style="fill:#FCBE1F;fill:color(display-p3 0.9882 0.7451 0.1216);fill-opacity:1;"/>
<path d="M3.89745 6.99609L4.18457 7.65149L4.8203 7.76257L4.35888 8.27356L4.47167 8.99559L3.89745 8.65124L3.32324 8.99559L3.43603 8.27356L2.97461 7.76257L3.61035 7.65149L3.89745 6.99609Z" fill="#FCBE1F" style="fill:#FCBE1F;fill:color(display-p3 0.9882 0.7451 0.1216);fill-opacity:1;"/>
<path d="M4.97363 3.88672L5.26073 4.5421L5.89647 4.65319L5.43505 5.16417L5.54784 5.88622L4.97363 5.54185L4.39941 5.88622L4.5122 5.16417L4.05078 4.65319L4.68651 4.5421L4.97363 3.88672Z" fill="#FCBE1F" style="fill:#FCBE1F;fill:color(display-p3 0.9882 0.7451 0.1216);fill-opacity:1;"/>
<path d="M11.0244 3.88672L11.3115 4.5421L11.9473 4.65319L11.4858 5.16417L11.5986 5.88622L11.0244 5.54185L10.4501 5.88622L10.5629 5.16417L10.1016 4.65319L10.7372 4.5421L11.0244 3.88672Z" fill="#FCBE1F" style="fill:#FCBE1F;fill:color(display-p3 0.9882 0.7451 0.1216);fill-opacity:1;"/>
<path d="M4.97363 9.9375L5.26073 10.5929L5.89647 10.704L5.43505 11.2149L5.54784 11.937L4.97363 11.5927L4.39941 11.937L4.5122 11.2149L4.05078 10.704L4.68651 10.5929L4.97363 9.9375Z" fill="#FCBE1F" style="fill:#FCBE1F;fill:color(display-p3 0.9882 0.7451 0.1216);fill-opacity:1;"/>
<path d="M11.0244 9.9375L11.3115 10.5929L11.9473 10.704L11.4858 11.2149L11.5986 11.937L11.0244 11.5927L10.4501 11.937L10.5629 11.2149L10.1016 10.704L10.7372 10.5929L11.0244 9.9375Z" fill="#FCBE1F" style="fill:#FCBE1F;fill:color(display-p3 0.9882 0.7451 0.1216);fill-opacity:1;"/>
</g>
</g>
<defs>
<linearGradient id="paint0_linear_9881_129175" x1="3.37065" y1="3.36869" x2="12.7246" y2="12.7227" gradientUnits="userSpaceOnUse">
<stop stop-color="#DFE9F2" style="stop-color:#DFE9F2;stop-color:color(display-p3 0.8745 0.9137 0.9490);stop-opacity:1;"/>
<stop offset="0.998" stop-color="#9EA7B0" style="stop-color:#9EA7B0;stop-color:color(display-p3 0.6196 0.6549 0.6902);stop-opacity:1;"/>
</linearGradient>
<linearGradient id="paint1_linear_9881_129175" x1="3.49573" y1="3.49378" x2="12.7827" y2="12.7808" gradientUnits="userSpaceOnUse">
<stop stop-color="#0D61A9" style="stop-color:#0D61A9;stop-color:color(display-p3 0.0510 0.3804 0.6627);stop-opacity:1;"/>
<stop offset="1" stop-color="#16528C" style="stop-color:#16528C;stop-color:color(display-p3 0.0863 0.3216 0.5490);stop-opacity:1;"/>
</linearGradient>
<clipPath id="clip0_9881_129175">
<rect width="13.33" height="13.33" fill="white" style="fill:white;fill-opacity:1;" transform="translate(1.33398 1.33203)"/>
</clipPath>
</defs>
</svg>
