<svg width="16" height="16" viewBox="0 0 16 16" fill="none" xmlns="http://www.w3.org/2000/svg">
<path d="M14.6667 7.99967C14.6667 4.31801 11.6817 1.33301 8.00004 1.33301C4.31837 1.33301 1.33337 4.31801 1.33337 7.99967C1.33337 11.6813 4.31837 14.6663 8.00004 14.6663C11.6817 14.6663 14.6667 11.6813 14.6667 7.99967Z" fill="url(#paint0_linear_2503_15471)" style=""/>
<path d="M13.0347 3.63876L9.66667 6.17009V1.55176C10.9953 1.89442 12.1627 2.63276 13.0347 3.63876ZM14.448 6.33309C14.343 5.92609 14.2013 5.53476 14.0253 5.16142L12.3333 6.33309H14.448ZM2.96534 3.63876L6.33333 6.17009V1.55176C5.00467 1.89442 3.83734 2.63276 2.96534 3.63876ZM1.97434 5.16142C1.79834 5.53476 1.657 5.92609 1.552 6.33309H3.66667L1.97434 5.16142ZM6.33333 14.4478V9.78776L2.96534 12.3608C3.83734 13.3668 5.00467 14.1051 6.33333 14.4478ZM1.552 9.66642C1.657 10.0734 1.79867 10.4648 1.97467 10.8381L3.66667 9.66642H1.552ZM9.66667 14.4478C10.9953 14.1051 12.1627 13.3668 13.0347 12.3608L9.66667 9.78776V14.4478ZM14.0257 10.8381C14.2017 10.4651 14.3433 10.0738 14.4483 9.66642H12.3333L14.0257 10.8381Z" fill="url(#paint1_linear_2503_15471)" style=""/>
<path d="M14.5837 6.99967H9.00004V1.41601C8.67304 1.36667 8.34071 1.33301 8.00004 1.33301C7.65937 1.33301 7.32704 1.36667 7.00004 1.41601V6.99967H1.41637C1.36704 7.32667 1.33337 7.65901 1.33337 7.99967C1.33337 8.34034 1.36704 8.67267 1.41637 8.99967H7.00004V14.5833C7.32704 14.6327 7.65937 14.6663 8.00004 14.6663C8.34071 14.6663 8.67304 14.6327 9.00004 14.5833V8.99967H14.5837C14.633 8.67267 14.6667 8.34034 14.6667 7.99967C14.6667 7.65901 14.633 7.32667 14.5837 6.99967ZM13.8377 4.78234C13.712 4.55501 13.5704 4.33834 13.42 4.12834L10.3334 6.33301H11.6667L13.8377 4.78234ZM5.66671 6.33301L2.58004 4.12801C2.42971 4.33801 2.28804 4.55467 2.16237 4.78201L4.33337 6.33301H5.66671ZM2.16237 11.217C2.28804 11.4443 2.42971 11.661 2.58004 11.871L5.66671 9.66634H4.33337L2.16237 11.217ZM10.3334 9.66634L13.42 11.8713C13.5704 11.6613 13.712 11.4447 13.8377 11.2173L11.6667 9.66634H10.3334Z" fill="url(#paint2_linear_2503_15471)" style=""/>
<defs>
<linearGradient id="paint0_linear_2503_15471" x1="3.37004" y1="3.36967" x2="12.724" y2="12.7237" gradientUnits="userSpaceOnUse">
<stop stop-color="#DFE9F2" style="stop-color:#DFE9F2;stop-color:color(display-p3 0.8745 0.9137 0.9490);stop-opacity:1;"/>
<stop offset="0.998" stop-color="#9EA7B0" style="stop-color:#9EA7B0;stop-color:color(display-p3 0.6196 0.6549 0.6902);stop-opacity:1;"/>
</linearGradient>
<linearGradient id="paint1_linear_2503_15471" x1="3.495" y1="3.49476" x2="12.782" y2="12.7818" gradientUnits="userSpaceOnUse">
<stop stop-color="#0D61A9" style="stop-color:#0D61A9;stop-color:color(display-p3 0.0510 0.3804 0.6627);stop-opacity:1;"/>
<stop offset="1" stop-color="#16528C" style="stop-color:#16528C;stop-color:color(display-p3 0.0863 0.3216 0.5490);stop-opacity:1;"/>
</linearGradient>
<linearGradient id="paint2_linear_2503_15471" x1="3.92137" y1="3.92101" x2="11.425" y2="11.4247" gradientUnits="userSpaceOnUse">
<stop offset="0.008" stop-color="#F44F5A" style="stop-color:#F44F5A;stop-color:color(display-p3 0.9569 0.3098 0.3529);stop-opacity:1;"/>
<stop offset="0.447" stop-color="#EE3D4A" style="stop-color:#EE3D4A;stop-color:color(display-p3 0.9333 0.2392 0.2902);stop-opacity:1;"/>
<stop offset="1" stop-color="#E52030" style="stop-color:#E52030;stop-color:color(display-p3 0.8980 0.1255 0.1882);stop-opacity:1;"/>
</linearGradient>
</defs>
</svg>
