<svg width="16" height="16" viewBox="0 0 16 16" fill="none" xmlns="http://www.w3.org/2000/svg">
<path d="M8.00004 14.6673C11.6819 14.6673 14.6667 11.6825 14.6667 8.00065C14.6667 4.31875 11.6819 1.33398 8.00004 1.33398C4.31814 1.33398 1.33337 4.31875 1.33337 8.00065C1.33337 11.6825 4.31814 14.6673 8.00004 14.6673Z" fill="url(#paint0_linear_2503_3444)" style=""/>
<path d="M8.01737 8.89326C7.87037 9.27993 7.56704 9.58859 7.18537 9.74093L7.16437 9.69159C7.53271 9.54459 7.82571 9.24626 7.96637 8.87526C8.06871 8.60426 8.07337 8.31959 7.99671 8.07959C8.04104 8.59126 7.56537 9.00126 6.98304 8.88026C6.59371 8.79959 5.96237 9.16926 5.93371 9.66159C5.90771 10.1033 5.62237 10.3923 5.15637 10.3193C6.71637 11.6196 9.08037 10.0083 8.04671 8.05859C8.13004 8.31226 8.12571 8.60593 8.01737 8.89326ZM6.90371 9.90893L6.78271 10.1003L6.73837 9.87759L6.51837 9.82159L6.71637 9.71093L6.70204 9.48426L6.86837 9.63826L7.08071 9.55626L6.98437 9.76059L7.13037 9.93626L6.90371 9.90893Z" fill="#F0F4F7" style="fill:#F0F4F7;fill:color(display-p3 0.9412 0.9569 0.9686);fill-opacity:1;"/>
<path d="M7.80569 7.83718C7.60335 7.68051 7.44535 7.44951 7.36735 7.16585C7.25802 6.76851 7.32202 6.34151 7.54069 5.99385L7.58635 6.02251C7.37402 6.35718 7.31435 6.76885 7.41969 7.15151C7.49635 7.43351 7.66269 7.66851 7.86869 7.81785C7.52635 7.43018 7.66769 6.81751 8.21135 6.57218C8.57469 6.40951 8.86769 5.74151 8.59935 5.32618C8.36002 4.95518 8.42102 4.55418 8.84035 4.33918C6.82402 4.20118 5.86735 6.84985 7.80569 7.83718ZM7.65369 5.46785L7.82035 5.62151L8.03269 5.53818L7.93769 5.74385L8.08102 5.91818L7.85535 5.89251L7.73302 6.08251L7.68869 5.86118L7.46869 5.80385L7.66802 5.69318L7.65369 5.46785Z" fill="#F0F4F7" style="fill:#F0F4F7;fill:color(display-p3 0.9412 0.9569 0.9686);fill-opacity:1;"/>
<path d="M8.00806 7.73011C8.09639 7.49378 8.26739 7.27545 8.51039 7.11611C8.85706 6.88945 9.28406 6.81778 9.68372 6.91811L9.67072 6.97011C9.28639 6.87245 8.87372 6.94278 8.54039 7.16145C8.29639 7.32145 8.12406 7.54978 8.04506 7.79078C8.30972 7.34745 8.93806 7.29211 9.33839 7.73178C9.60672 8.02611 10.3361 8.09611 10.6497 7.71345C10.9297 7.37245 11.3321 7.30611 11.6667 7.63678C11.1751 5.68811 8.35806 5.59845 8.00806 7.73011ZM10.0461 7.21611L9.92372 7.40611L9.87906 7.18511L9.65906 7.12778L9.85706 7.01845L9.84406 6.79178L10.0107 6.94545L10.2217 6.86211L10.1267 7.06778L10.2714 7.24211L10.0461 7.21611Z" fill="#F0F4F7" style="fill:#F0F4F7;fill:color(display-p3 0.9412 0.9569 0.9686);fill-opacity:1;"/>
<path d="M7.86569 8.03676C7.65003 8.19309 7.36836 8.27876 7.06103 8.26443C6.64836 8.24509 6.25903 8.05343 5.99469 7.73843L6.03636 7.70443C6.29036 8.00809 6.66536 8.19276 7.06369 8.21109C7.35769 8.22443 7.63403 8.13943 7.84036 7.98943C7.36403 8.19643 6.82069 7.87376 6.75536 7.28143C6.71236 6.88809 6.16403 6.40376 5.68369 6.53009C5.25503 6.64209 4.89203 6.45976 4.81636 5.99609C4.05636 7.87443 6.32336 9.61543 7.86569 8.03676ZM5.72669 7.35843L5.71236 7.13309L5.87903 7.28543L6.09003 7.20343L5.99469 7.40909L6.13936 7.58243L5.91403 7.55643L5.79169 7.74776L5.74736 7.52509L5.52736 7.46909L5.72669 7.35843Z" fill="#F0F4F7" style="fill:#F0F4F7;fill:color(display-p3 0.9412 0.9569 0.9686);fill-opacity:1;"/>
<path d="M8.12268 7.89791C8.39101 7.89657 8.67068 7.99157 8.91268 8.18457C9.23535 8.44124 9.43601 8.82391 9.46468 9.23291L9.41001 9.23691C9.38401 8.84257 9.19001 8.47391 8.87868 8.22524C8.65035 8.04391 8.37835 7.95157 8.12368 7.95091C8.62901 8.06457 8.87668 8.64324 8.57935 9.15924C8.38301 9.50291 8.54035 10.2152 9.00268 10.3949C9.41535 10.5536 9.60301 10.9142 9.39068 11.3336C11.1127 10.2572 10.306 7.51957 8.12268 7.89791ZM9.45735 9.69924L9.33501 9.89057L9.29068 9.66791L9.07068 9.61191L9.26968 9.50157L9.25535 9.27491L9.42201 9.42857L9.63301 9.34524L9.53801 9.55091L9.68268 9.72657L9.45735 9.69924Z" fill="#F0F4F7" style="fill:#F0F4F7;fill:color(display-p3 0.9412 0.9569 0.9686);fill-opacity:1;"/>
<defs>
<linearGradient id="paint0_linear_2503_3444" x1="4.35971" y1="2.37665" x2="11.6057" y2="13.5713" gradientUnits="userSpaceOnUse">
<stop offset="0.008" stop-color="#F44F5A" style="stop-color:#F44F5A;stop-color:color(display-p3 0.9569 0.3098 0.3529);stop-opacity:1;"/>
<stop offset="0.447" stop-color="#EE3D4A" style="stop-color:#EE3D4A;stop-color:color(display-p3 0.9333 0.2392 0.2902);stop-opacity:1;"/>
<stop offset="1" stop-color="#E52030" style="stop-color:#E52030;stop-color:color(display-p3 0.8980 0.1255 0.1882);stop-opacity:1;"/>
</linearGradient>
</defs>
</svg>
