<svg width="16" height="16" viewBox="0 0 16 16" fill="none" xmlns="http://www.w3.org/2000/svg">
<path d="M14.6673 7.99869C14.6673 4.31703 11.6823 1.33203 8.00065 1.33203C4.31898 1.33203 1.33398 4.31703 1.33398 7.99869C1.33398 11.6803 4.31898 14.6653 8.00065 14.6653C11.6823 14.6653 14.6673 11.6803 14.6673 7.99869Z" fill="url(#paint0_linear_9881_129258)" style=""/>
<path d="M13.0354 3.63778L9.6674 6.16911V1.55078C10.996 1.89344 12.1634 2.63178 13.0354 3.63778ZM14.4487 6.33211C14.3437 5.92511 14.202 5.53378 14.026 5.16044L12.334 6.33211H14.4487ZM2.96607 3.63778L6.33406 6.16911V1.55078C5.0054 1.89344 3.83807 2.63178 2.96607 3.63778ZM1.97507 5.16044C1.79907 5.53378 1.65773 5.92511 1.55273 6.33211H3.6674L1.97507 5.16044ZM6.33406 14.4468V9.78678L2.96607 12.3598C3.83807 13.3658 5.0054 14.1041 6.33406 14.4468ZM1.55273 9.66544C1.65773 10.0724 1.7994 10.4638 1.9754 10.8371L3.6674 9.66544H1.55273ZM9.6674 14.4468C10.996 14.1041 12.1634 13.3658 13.0354 12.3598L9.6674 9.78678V14.4468ZM14.0264 10.8371C14.2024 10.4641 14.344 10.0728 14.449 9.66544H12.334L14.0264 10.8371Z" fill="url(#paint1_linear_9881_129258)" style=""/>
<path d="M7.99896 14.6611C11.687 14.6611 14.664 11.684 14.664 7.99609H1.33398C1.33398 11.684 4.31101 14.6611 7.99896 14.6611Z" fill="#F9F9F9" style="fill:#F9F9F9;fill:color(display-p3 0.9765 0.9765 0.9765);fill-opacity:1;"/>
<path d="M7.99896 1.33203C4.31101 1.33203 1.33398 4.30905 1.33398 7.99701H14.664C14.664 4.30905 11.687 1.33203 7.99896 1.33203Z" fill="#ED4C5C" style="fill:#ED4C5C;fill:color(display-p3 0.9294 0.2980 0.3608);fill-opacity:1;"/>
<defs>
<linearGradient id="paint0_linear_9881_129258" x1="3.37065" y1="3.36869" x2="12.7246" y2="12.7227" gradientUnits="userSpaceOnUse">
<stop stop-color="#DFE9F2" style="stop-color:#DFE9F2;stop-color:color(display-p3 0.8745 0.9137 0.9490);stop-opacity:1;"/>
<stop offset="0.998" stop-color="#9EA7B0" style="stop-color:#9EA7B0;stop-color:color(display-p3 0.6196 0.6549 0.6902);stop-opacity:1;"/>
</linearGradient>
<linearGradient id="paint1_linear_9881_129258" x1="3.49573" y1="3.49378" x2="12.7827" y2="12.7808" gradientUnits="userSpaceOnUse">
<stop stop-color="#0D61A9" style="stop-color:#0D61A9;stop-color:color(display-p3 0.0510 0.3804 0.6627);stop-opacity:1;"/>
<stop offset="1" stop-color="#16528C" style="stop-color:#16528C;stop-color:color(display-p3 0.0863 0.3216 0.5490);stop-opacity:1;"/>
</linearGradient>
</defs>
</svg>
