<svg width="16" height="16" viewBox="0 0 16 16" fill="none" xmlns="http://www.w3.org/2000/svg">
<path d="M14.6667 7.99967C14.6667 4.31801 11.6817 1.33301 8.00004 1.33301C4.31837 1.33301 1.33337 4.31801 1.33337 7.99967C1.33337 11.6813 4.31837 14.6663 8.00004 14.6663C11.6817 14.6663 14.6667 11.6813 14.6667 7.99967Z" fill="url(#paint0_linear_2503_14723)" style=""/>
<path d="M3.96997 7.03192L5.42164 4.79492L5.6183 4.92259L4.16664 7.15826L3.96997 7.03192Z" fill="#263238" style="fill:#263238;fill:color(display-p3 0.1490 0.1961 0.2196);fill-opacity:1;"/>
<path d="M2.93103 9.64271L3.15503 9.49805L4.60436 11.7364L4.3817 11.881L2.93103 9.64271Z" fill="#263238" style="fill:#263238;fill:color(display-p3 0.1490 0.1961 0.2196);fill-opacity:1;"/>
<path d="M10.8879 4.57924L11.1106 4.43457L12.5859 6.6949L12.3619 6.8409L10.8879 4.57924Z" fill="#263238" style="fill:#263238;fill:color(display-p3 0.1490 0.1961 0.2196);fill-opacity:1;"/>
<path d="M3.448 6.70868L4.89966 4.47168L5.095 4.59801L3.64333 6.83501L3.448 6.70868Z" fill="#263238" style="fill:#263238;fill:color(display-p3 0.1490 0.1961 0.2196);fill-opacity:1;"/>
<path d="M11.1483 6.13255L11.3436 6.00488L12.0156 7.03988L11.819 7.16755L11.1483 6.13255Z" fill="#263238" style="fill:#263238;fill:color(display-p3 0.1490 0.1961 0.2196);fill-opacity:1;"/>
<path d="M12.151 10.5477L12.823 9.5127L13.0183 9.64036L12.3463 10.6744L12.151 10.5477Z" fill="#263238" style="fill:#263238;fill:color(display-p3 0.1490 0.1961 0.2196);fill-opacity:1;"/>
<path d="M4.21228 10.5033L4.40761 10.377L5.07961 11.411L4.88428 11.5386L4.21228 10.5033Z" fill="#263238" style="fill:#263238;fill:color(display-p3 0.1490 0.1961 0.2196);fill-opacity:1;"/>
<path d="M12.1863 5.47142L12.3816 5.34375L13.0573 6.37508L12.8619 6.50275L12.1863 5.47142Z" fill="#263238" style="fill:#263238;fill:color(display-p3 0.1490 0.1961 0.2196);fill-opacity:1;"/>
<path d="M11.1237 9.87289L11.7957 8.83789L11.991 8.96556L11.319 9.99956L11.1237 9.87289Z" fill="#263238" style="fill:#263238;fill:color(display-p3 0.1490 0.1961 0.2196);fill-opacity:1;"/>
<path d="M11.6456 10.1961L12.32 9.16211L12.5426 9.30811L11.8693 10.3421L11.6456 10.1961Z" fill="#263238" style="fill:#263238;fill:color(display-p3 0.1490 0.1961 0.2196);fill-opacity:1;"/>
<path d="M10.3827 4.92259L10.578 4.79492L11.2537 5.82625L11.0584 5.95392L10.3827 4.92259Z" fill="#263238" style="fill:#263238;fill:color(display-p3 0.1490 0.1961 0.2196);fill-opacity:1;"/>
<path d="M11.3683 11.7402L12.0336 10.7012L12.2303 10.8275L11.5636 11.8652L11.3683 11.7402Z" fill="#263238" style="fill:#263238;fill:color(display-p3 0.1490 0.1961 0.2196);fill-opacity:1;"/>
<path d="M3.45068 9.28822L3.67468 9.14355L4.34135 10.1812L4.11735 10.3259L3.45068 9.28822Z" fill="#263238" style="fill:#263238;fill:color(display-p3 0.1490 0.1961 0.2196);fill-opacity:1;"/>
<path d="M11.422 4.25693L11.6173 4.12793L12.2943 5.15926L12.099 5.28693L11.422 4.25693Z" fill="#263238" style="fill:#263238;fill:color(display-p3 0.1490 0.1961 0.2196);fill-opacity:1;"/>
<path d="M10.3359 11.0561L11.0093 10.0234L11.2333 10.1694L10.5589 11.2021L10.3359 11.0561Z" fill="#263238" style="fill:#263238;fill:color(display-p3 0.1490 0.1961 0.2196);fill-opacity:1;"/>
<path d="M10.845 11.4133L11.513 10.377L11.737 10.5216L11.069 11.558L10.845 11.4133Z" fill="#263238" style="fill:#263238;fill:color(display-p3 0.1490 0.1961 0.2196);fill-opacity:1;"/>
<path d="M2.91931 6.37947L4.39598 4.11914L4.61998 4.26514L3.14331 6.52547L2.91931 6.37947Z" fill="#263238" style="fill:#263238;fill:color(display-p3 0.1490 0.1961 0.2196);fill-opacity:1;"/>
<path d="M3.95166 8.94993L4.14833 8.82227L5.59766 11.0606L5.40233 11.1883L3.95166 8.94993Z" fill="#263238" style="fill:#263238;fill:color(display-p3 0.1490 0.1961 0.2196);fill-opacity:1;"/>
<path d="M6.83329 9.16016C7.47463 9.16016 7.99996 8.63482 7.99996 7.99349C7.99996 7.35216 8.52529 6.82682 9.16663 6.82682C9.80796 6.82682 10.3333 7.35216 10.3333 7.99349C10.3333 6.71049 9.28296 5.66016 7.99996 5.66016C6.71696 5.66016 5.66663 6.71049 5.66663 7.99349C5.66663 8.63516 6.19196 9.16016 6.83329 9.16016Z" fill="url(#paint1_linear_2503_14723)" style=""/>
<path d="M9.16663 6.82715C8.52529 6.82715 7.99996 7.35248 7.99996 7.99381C7.99996 8.63515 7.47463 9.16048 6.83329 9.16048C6.19196 9.16048 5.66663 8.63515 5.66663 7.99381C5.66663 9.27681 6.71696 10.3271 7.99996 10.3271C9.28296 10.3271 10.3333 9.27681 10.3333 7.99381C10.3333 7.35248 9.80796 6.82715 9.16663 6.82715Z" fill="url(#paint2_linear_2503_14723)" style=""/>
<defs>
<linearGradient id="paint0_linear_2503_14723" x1="4.43404" y1="4.43367" x2="17.7927" y2="17.7923" gradientUnits="userSpaceOnUse">
<stop stop-color="#DFE9F2" style="stop-color:#DFE9F2;stop-color:color(display-p3 0.8745 0.9137 0.9490);stop-opacity:1;"/>
<stop offset="0.998" stop-color="#9EA7B0" style="stop-color:#9EA7B0;stop-color:color(display-p3 0.6196 0.6549 0.6902);stop-opacity:1;"/>
</linearGradient>
<linearGradient id="paint1_linear_2503_14723" x1="6.74396" y1="6.41116" x2="9.91696" y2="9.83316" gradientUnits="userSpaceOnUse">
<stop offset="0.008" stop-color="#F44F5A" style="stop-color:#F44F5A;stop-color:color(display-p3 0.9569 0.3098 0.3529);stop-opacity:1;"/>
<stop offset="0.447" stop-color="#EE3D4A" style="stop-color:#EE3D4A;stop-color:color(display-p3 0.9333 0.2392 0.2902);stop-opacity:1;"/>
<stop offset="1" stop-color="#E52030" style="stop-color:#E52030;stop-color:color(display-p3 0.8980 0.1255 0.1882);stop-opacity:1;"/>
</linearGradient>
<linearGradient id="paint2_linear_2503_14723" x1="7.33829" y1="7.31348" x2="10.1526" y2="11.0361" gradientUnits="userSpaceOnUse">
<stop stop-color="#0D61A9" style="stop-color:#0D61A9;stop-color:color(display-p3 0.0510 0.3804 0.6627);stop-opacity:1;"/>
<stop offset="1" stop-color="#16528C" style="stop-color:#16528C;stop-color:color(display-p3 0.0863 0.3216 0.5490);stop-opacity:1;"/>
</linearGradient>
</defs>
</svg>
