<svg width="16" height="16" viewBox="0 0 16 16" fill="none" xmlns="http://www.w3.org/2000/svg">
<path d="M14.6673 7.99869C14.6673 4.31703 11.6823 1.33203 8.00065 1.33203C4.31898 1.33203 1.33398 4.31703 1.33398 7.99869C1.33398 11.6803 4.31898 14.6653 8.00065 14.6653C11.6823 14.6653 14.6673 11.6803 14.6673 7.99869Z" fill="url(#paint0_linear_9881_129411)" style=""/>
<path d="M13.0354 3.63778L9.6674 6.16911V1.55078C10.996 1.89344 12.1634 2.63178 13.0354 3.63778ZM14.4487 6.33211C14.3437 5.92511 14.202 5.53378 14.026 5.16044L12.334 6.33211H14.4487ZM2.96607 3.63778L6.33406 6.16911V1.55078C5.0054 1.89344 3.83807 2.63178 2.96607 3.63778ZM1.97507 5.16044C1.79907 5.53378 1.65773 5.92511 1.55273 6.33211H3.6674L1.97507 5.16044ZM6.33406 14.4468V9.78678L2.96607 12.3598C3.83807 13.3658 5.0054 14.1041 6.33406 14.4468ZM1.55273 9.66544C1.65773 10.0724 1.7994 10.4638 1.9754 10.8371L3.6674 9.66544H1.55273ZM9.6674 14.4468C10.996 14.1041 12.1634 13.3658 13.0354 12.3598L9.6674 9.78678V14.4468ZM14.0264 10.8371C14.2024 10.4641 14.344 10.0728 14.449 9.66544H12.334L14.0264 10.8371Z" fill="url(#paint1_linear_9881_129411)" style=""/>
<path d="M1.33398 7.99826C1.33398 10.9086 3.20018 13.3747 5.77732 14.2856V1.71094C3.20018 2.62182 1.33398 5.08787 1.33398 7.99826Z" fill="#C94747" style="fill:#C94747;fill:color(display-p3 0.7882 0.2784 0.2784);fill-opacity:1;"/>
<path d="M14.664 7.99826C14.664 5.08787 12.8201 2.62182 10.2207 1.71094V14.2856C12.8201 13.3747 14.664 10.9086 14.664 7.99826Z" fill="#C94747" style="fill:#C94747;fill:color(display-p3 0.7882 0.2784 0.2784);fill-opacity:1;"/>
<path d="M5.77734 14.2843C6.46606 14.5287 7.22143 14.662 7.99901 14.662C8.77659 14.662 9.53196 14.5287 10.2207 14.2843V1.70971C9.53196 1.46533 8.77659 1.33203 7.99901 1.33203C7.22143 1.33203 6.46606 1.46533 5.77734 1.70971V14.2843Z" fill="#2872A0" style="fill:#2872A0;fill:color(display-p3 0.1569 0.4471 0.6275);fill-opacity:1;"/>
<path d="M3.77758 6.99657C4.20703 6.99657 4.55517 6.64844 4.55517 6.21899C4.55517 5.78954 4.20703 5.44141 3.77758 5.44141C3.34814 5.44141 3 5.78954 3 6.21899C3 6.64844 3.34814 6.99657 3.77758 6.99657Z" fill="#F9CF02" style="fill:#F9CF02;fill:color(display-p3 0.9765 0.8118 0.0078);fill-opacity:1;"/>
<path d="M3.77734 6.66405C4.26813 6.66405 4.66601 6.26619 4.66601 5.77539C4.66601 5.28459 4.26813 4.88672 3.77734 4.88672C3.28655 4.88672 2.88867 5.28459 2.88867 5.77539C2.88867 6.26619 3.28655 6.66405 3.77734 6.66405Z" fill="#C94747" style="fill:#C94747;fill:color(display-p3 0.7882 0.2784 0.2784);fill-opacity:1;"/>
<path d="M3.77807 6.55224C4.08482 6.55224 4.33349 6.30357 4.33349 5.99682C4.33349 5.69007 4.08482 5.44141 3.77807 5.44141C3.47132 5.44141 3.22266 5.69007 3.22266 5.99682C3.22266 6.30357 3.47132 6.55224 3.77807 6.55224Z" fill="#F9CF02" style="fill:#F9CF02;fill:color(display-p3 0.9765 0.8118 0.0078);fill-opacity:1;"/>
<path d="M3.44531 4.88696C3.44531 5.10912 3.5564 5.22021 3.77856 5.22021C4.00073 5.22021 4.2229 5.10912 4.2229 4.88696C4.2229 4.77587 4.11181 4.77587 4.11181 4.66479V4.44262V4.77587C4.11181 4.77587 4.11181 4.88696 4.00073 4.88696C3.88965 4.88696 3.88965 4.88696 3.88965 4.77587C3.88965 4.66479 4.00073 4.66479 4.00073 4.55371C4.00073 4.44262 4.00073 4.44262 3.88965 4.33154C3.88965 4.22046 3.77856 4.22046 3.77856 4.10938C3.66748 4.10938 3.77856 4.33154 3.77856 4.33154C3.77856 4.33154 3.66748 4.44262 3.66748 4.55371V4.77587C3.66748 4.77587 3.66748 4.88696 3.5564 4.88696C3.44531 4.88696 3.44531 4.88696 3.44531 4.77587V4.66479V4.88696Z" fill="#F9CF02" style="fill:#F9CF02;fill:color(display-p3 0.9765 0.8118 0.0078);fill-opacity:1;"/>
<path d="M2.22266 7.10938V10.553H2.88916V7.10938H2.22266ZM4.66649 7.10938V10.553H5.44407V7.10938H4.66649ZM3.11132 7.66479V7.99804H4.55541V7.66479H3.11132ZM3.11132 9.66429V9.99754H4.55541V9.66429H3.11132ZM3.11132 7.10938H4.55541L3.77782 7.55371L3.11132 7.10938ZM3.11132 10.1086H4.55541L3.77782 10.553L3.11132 10.1086Z" fill="#F9CF02" style="fill:#F9CF02;fill:color(display-p3 0.9765 0.8118 0.0078);fill-opacity:1;"/>
<path d="M3.82177 9.59667C4.23895 9.59667 4.57714 9.25848 4.57714 8.8413C4.57714 8.42413 4.23895 8.08594 3.82177 8.08594C3.4046 8.08594 3.06641 8.42413 3.06641 8.8413C3.06641 9.25848 3.4046 9.59667 3.82177 9.59667Z" fill="#F9CF02" style="fill:#F9CF02;fill:color(display-p3 0.9765 0.8118 0.0078);fill-opacity:1;"/>
<path d="M3.82324 9.6621C3.3789 9.6621 3.02344 9.30663 3.02344 8.8623C3.02344 8.41797 3.3789 8.0625 3.82324 8.0625C4.26757 8.0625 4.62304 8.41797 4.62304 8.8623C4.62304 9.30663 4.26757 9.6621 3.82324 9.6621ZM3.82324 8.12915C3.42334 8.12915 3.09009 8.4624 3.09009 8.8623C3.09009 9.2622 3.42334 9.59545 3.82324 9.59545C4.22314 9.59545 4.55639 9.2622 4.55639 8.8623C4.55639 8.4624 4.22314 8.12915 3.82324 8.12915Z" fill="#C94747" style="fill:#C94747;fill:color(display-p3 0.7882 0.2784 0.2784);fill-opacity:1;"/>
<path d="M3.82251 9.6621C3.57812 9.6621 3.40039 9.46215 3.40039 9.23998C3.40039 9.01782 3.60034 8.81787 3.82251 8.81787C4.00024 8.81787 4.15576 8.66235 4.15576 8.48462C4.15576 8.30688 4.00024 8.15137 3.82251 8.15137V8.0625C4.06689 8.0625 4.24462 8.26245 4.24462 8.48462C4.24462 8.729 4.04467 8.90673 3.82251 8.90673C3.64477 8.90673 3.48926 9.06225 3.48926 9.23998C3.48926 9.41772 3.64477 9.57323 3.82251 9.57323V9.6621Z" fill="#C94747" style="fill:#C94747;fill:color(display-p3 0.7882 0.2784 0.2784);fill-opacity:1;"/>
<path d="M3.82153 8.61963C3.90742 8.61963 3.97705 8.55 3.97705 8.46411C3.97705 8.37822 3.90742 8.30859 3.82153 8.30859C3.73564 8.30859 3.66602 8.37822 3.66602 8.46411C3.66602 8.55 3.73564 8.61963 3.82153 8.61963Z" fill="#C94747" style="fill:#C94747;fill:color(display-p3 0.7882 0.2784 0.2784);fill-opacity:1;"/>
<path d="M3.82275 9.35254C3.89638 9.35254 3.95605 9.29286 3.95605 9.21924C3.95605 9.14561 3.89638 9.08594 3.82275 9.08594C3.74914 9.08594 3.68945 9.14561 3.68945 9.21924C3.68945 9.29286 3.74914 9.35254 3.82275 9.35254Z" fill="#C94747" style="fill:#C94747;fill:color(display-p3 0.7882 0.2784 0.2784);fill-opacity:1;"/>
<defs>
<linearGradient id="paint0_linear_9881_129411" x1="3.37065" y1="3.36869" x2="12.7246" y2="12.7227" gradientUnits="userSpaceOnUse">
<stop stop-color="#DFE9F2" style="stop-color:#DFE9F2;stop-color:color(display-p3 0.8745 0.9137 0.9490);stop-opacity:1;"/>
<stop offset="0.998" stop-color="#9EA7B0" style="stop-color:#9EA7B0;stop-color:color(display-p3 0.6196 0.6549 0.6902);stop-opacity:1;"/>
</linearGradient>
<linearGradient id="paint1_linear_9881_129411" x1="3.49573" y1="3.49378" x2="12.7827" y2="12.7808" gradientUnits="userSpaceOnUse">
<stop stop-color="#0D61A9" style="stop-color:#0D61A9;stop-color:color(display-p3 0.0510 0.3804 0.6627);stop-opacity:1;"/>
<stop offset="1" stop-color="#16528C" style="stop-color:#16528C;stop-color:color(display-p3 0.0863 0.3216 0.5490);stop-opacity:1;"/>
</linearGradient>
</defs>
</svg>
