<svg width="16" height="16" viewBox="0 0 16 16" fill="none" xmlns="http://www.w3.org/2000/svg">
<path d="M14.6673 7.99869C14.6673 4.31703 11.6823 1.33203 8.00065 1.33203C4.31898 1.33203 1.33398 4.31703 1.33398 7.99869C1.33398 11.6803 4.31898 14.6653 8.00065 14.6653C11.6823 14.6653 14.6673 11.6803 14.6673 7.99869Z" fill="url(#paint0_linear_9881_129449)" style=""/>
<path d="M13.0354 3.63778L9.6674 6.16911V1.55078C10.996 1.89344 12.1634 2.63178 13.0354 3.63778ZM14.4487 6.33211C14.3437 5.92511 14.202 5.53378 14.026 5.16044L12.334 6.33211H14.4487ZM2.96607 3.63778L6.33406 6.16911V1.55078C5.0054 1.89344 3.83807 2.63178 2.96607 3.63778ZM1.97507 5.16044C1.79907 5.53378 1.65773 5.92511 1.55273 6.33211H3.6674L1.97507 5.16044ZM6.33406 14.4468V9.78678L2.96607 12.3598C3.83807 13.3658 5.0054 14.1041 6.33406 14.4468ZM1.55273 9.66544C1.65773 10.0724 1.7994 10.4638 1.9754 10.8371L3.6674 9.66544H1.55273ZM9.6674 14.4468C10.996 14.1041 12.1634 13.3658 13.0354 12.3598L9.6674 9.78678V14.4468ZM14.0264 10.8371C14.2024 10.4641 14.344 10.0728 14.449 9.66544H12.334L14.0264 10.8371Z" fill="url(#paint1_linear_9881_129449)" style=""/>
<path d="M13.33 3.99609H7.99805V5.32909H14.1076C13.9077 4.86254 13.6411 4.39599 13.33 3.99609Z" fill="#ED4C5C" style="fill:#ED4C5C;fill:color(display-p3 0.9294 0.2980 0.3608);fill-opacity:1;"/>
<path d="M14.5307 9.32909C14.6196 8.90698 14.664 8.46264 14.664 7.99609H1.33398C1.33398 8.46264 1.37842 8.90698 1.46728 9.32909H14.5307Z" fill="#F9F9F9" style="fill:#F9F9F9;fill:color(display-p3 0.9765 0.9765 0.9765);fill-opacity:1;"/>
<path d="M7.99805 1.33203V2.66503H11.997C10.8862 1.8208 9.50878 1.33203 7.99805 1.33203Z" fill="#ED4C5C" style="fill:#ED4C5C;fill:color(display-p3 0.9294 0.2980 0.3608);fill-opacity:1;"/>
<path d="M7.99805 3.99706H13.33C12.9524 3.48608 12.508 3.04175 11.997 2.66406H7.99805V3.99706Z" fill="#F9F9F9" style="fill:#F9F9F9;fill:color(display-p3 0.9765 0.9765 0.9765);fill-opacity:1;"/>
<path d="M14.1076 5.33203H7.99805V6.66503H14.5297C14.4409 6.19848 14.2854 5.75415 14.1076 5.33203Z" fill="#F9F9F9" style="fill:#F9F9F9;fill:color(display-p3 0.9765 0.9765 0.9765);fill-opacity:1;"/>
<path d="M7.99805 6.66406V7.99706H14.663C14.663 7.53051 14.6186 7.08618 14.5297 6.66406H7.99805Z" fill="#ED4C5C" style="fill:#ED4C5C;fill:color(display-p3 0.9294 0.2980 0.3608);fill-opacity:1;"/>
<path d="M1.88891 10.6611H14.1081C14.2858 10.239 14.4413 9.79467 14.5302 9.32812H1.4668C1.55566 9.79467 1.71118 10.239 1.88891 10.6611Z" fill="#ED4C5C" style="fill:#ED4C5C;fill:color(display-p3 0.9294 0.2980 0.3608);fill-opacity:1;"/>
<path d="M2.66626 11.9971H13.3303C13.6413 11.5972 13.9079 11.1306 14.1078 10.6641H1.88867C2.08862 11.1306 2.35522 11.5972 2.66626 11.9971Z" fill="#F9F9F9" style="fill:#F9F9F9;fill:color(display-p3 0.9765 0.9765 0.9765);fill-opacity:1;"/>
<path d="M2.66602 11.9961C3.0437 12.5071 3.48803 12.9514 3.99902 13.3291H11.997C12.508 12.9514 12.9523 12.5071 13.33 11.9961H2.66602Z" fill="#ED4C5C" style="fill:#ED4C5C;fill:color(display-p3 0.9294 0.2980 0.3608);fill-opacity:1;"/>
<path d="M4 13.3281C5.11083 14.1724 6.48827 14.6611 7.999 14.6611C9.50973 14.6611 10.8872 14.1724 11.998 13.3281H4Z" fill="#F9F9F9" style="fill:#F9F9F9;fill:color(display-p3 0.9765 0.9765 0.9765);fill-opacity:1;"/>
<path d="M7.99898 1.33203C4.31102 1.33203 1.33398 4.30906 1.33398 7.99703H7.99898V1.33203Z" fill="#2A5F9E" style="fill:#2A5F9E;fill:color(display-p3 0.1647 0.3725 0.6196);fill-opacity:1;"/>
<path d="M5.31127 6.57664C4.64477 6.57664 4.08935 6.02123 4.08935 5.33251C4.08935 4.64379 4.64477 4.08838 5.31127 4.08838C5.57787 4.08838 5.80003 4.17724 5.99998 4.31054C5.71117 3.97729 5.31127 3.77734 4.84472 3.77734C4.00048 3.77734 3.33398 4.46606 3.33398 5.33251C3.33398 6.19896 4.0227 6.88768 4.84472 6.88768C5.31127 6.88768 5.71117 6.68773 5.99998 6.35448C5.80003 6.48778 5.55565 6.57664 5.31127 6.57664Z" fill="#FFE62E" style="fill:#FFE62E;fill:color(display-p3 1.0000 0.9020 0.1804);fill-opacity:1;"/>
<path d="M6.6665 5.06396L6.82202 4.66406L6.77758 5.08618L7.08862 4.79736L6.86645 5.17505L7.26635 5.04175L6.91088 5.26391L7.333 5.33056L6.91088 5.39721L7.26635 5.61938L6.86645 5.48608L7.08862 5.86376L6.77758 5.57495L6.82202 5.99706L6.6665 5.59716L6.51098 5.99706L6.55542 5.57495L6.24438 5.86376L6.46655 5.48608L6.06665 5.61938L6.42212 5.39721L6 5.33056L6.42212 5.26391L6.06665 5.04175L6.46655 5.17505L6.24438 4.79736L6.55542 5.08618L6.51098 4.66406L6.6665 5.06396Z" fill="#FFE62E" style="fill:#FFE62E;fill:color(display-p3 1.0000 0.9020 0.1804);fill-opacity:1;"/>
<defs>
<linearGradient id="paint0_linear_9881_129449" x1="3.37065" y1="3.36869" x2="12.7246" y2="12.7227" gradientUnits="userSpaceOnUse">
<stop stop-color="#DFE9F2" style="stop-color:#DFE9F2;stop-color:color(display-p3 0.8745 0.9137 0.9490);stop-opacity:1;"/>
<stop offset="0.998" stop-color="#9EA7B0" style="stop-color:#9EA7B0;stop-color:color(display-p3 0.6196 0.6549 0.6902);stop-opacity:1;"/>
</linearGradient>
<linearGradient id="paint1_linear_9881_129449" x1="3.49573" y1="3.49378" x2="12.7827" y2="12.7808" gradientUnits="userSpaceOnUse">
<stop stop-color="#0D61A9" style="stop-color:#0D61A9;stop-color:color(display-p3 0.0510 0.3804 0.6627);stop-opacity:1;"/>
<stop offset="1" stop-color="#16528C" style="stop-color:#16528C;stop-color:color(display-p3 0.0863 0.3216 0.5490);stop-opacity:1;"/>
</linearGradient>
</defs>
</svg>
