<svg width="16" height="16" viewBox="0 0 16 16" fill="none" xmlns="http://www.w3.org/2000/svg">
<path d="M14.6673 7.99869C14.6673 4.31703 11.6823 1.33203 8.00065 1.33203C4.31898 1.33203 1.33398 4.31703 1.33398 7.99869C1.33398 11.6803 4.31898 14.6653 8.00065 14.6653C11.6823 14.6653 14.6673 11.6803 14.6673 7.99869Z" fill="url(#paint0_linear_9881_129497)" style=""/>
<path d="M13.0354 3.63778L9.6674 6.16911V1.55078C10.996 1.89344 12.1634 2.63178 13.0354 3.63778ZM14.4487 6.33211C14.3437 5.92511 14.202 5.53378 14.026 5.16044L12.334 6.33211H14.4487ZM2.96607 3.63778L6.33406 6.16911V1.55078C5.0054 1.89344 3.83807 2.63178 2.96607 3.63778ZM1.97507 5.16044C1.79907 5.53378 1.65773 5.92511 1.55273 6.33211H3.6674L1.97507 5.16044ZM6.33406 14.4468V9.78678L2.96607 12.3598C3.83807 13.3658 5.0054 14.1041 6.33406 14.4468ZM1.55273 9.66544C1.65773 10.0724 1.7994 10.4638 1.9754 10.8371L3.6674 9.66544H1.55273ZM9.6674 14.4468C10.996 14.1041 12.1634 13.3658 13.0354 12.3598L9.6674 9.78678V14.4468ZM14.0264 10.8371C14.2024 10.4641 14.344 10.0728 14.449 9.66544H12.334L14.0264 10.8371Z" fill="url(#paint1_linear_9881_129497)" style=""/>
<mask id="mask0_9881_129497" style="mask-type:luminance" maskUnits="userSpaceOnUse" x="1" y="1" width="14" height="14">
<path d="M1.33406 14.6602H14.6641V1.33016H1.33406V14.6602Z" fill="white" style="fill:white;fill-opacity:1;"/>
</mask>
<g mask="url(#mask0_9881_129497)">
<path d="M7.99898 1.33203C4.31801 1.33203 1.33398 4.31606 1.33398 7.99703C1.33398 11.678 4.31801 14.662 7.99898 14.662C11.68 14.662 14.664 11.678 14.664 7.99703C14.664 4.31606 11.68 1.33203 7.99898 1.33203Z" fill="black" style="fill:black;fill-opacity:1;"/>
<path fill-rule="evenodd" clip-rule="evenodd" d="M9.85581 10.2557H6.11865C5.97583 10.2557 5.85681 10.2319 5.71399 10.1605C5.54737 10.0891 5.45214 9.97008 5.40454 9.87485C5.40454 9.87485 5.40454 9.85108 5.38074 9.85108C5.30933 9.732 5.26172 9.58922 5.26172 9.42259C5.26172 9.27974 5.28553 9.13696 5.38074 8.99411L7.73729 4.94751C7.78489 4.8523 7.88012 4.80469 7.99913 4.80469C8.09434 4.80469 8.18956 4.8523 8.26097 4.94751L10.5699 8.99411C10.6175 9.08934 10.7127 9.20835 10.7127 9.39875C10.7365 9.56537 10.6889 9.70822 10.6175 9.85108C10.5461 9.99386 10.4271 10.1129 10.2604 10.1605C10.1177 10.2557 9.95104 10.2557 9.85581 10.2557ZM8.28477 9.68445H9.85581C9.95104 9.68445 9.99866 9.68445 10.0224 9.66061C10.07 9.63683 10.0938 9.61299 10.1177 9.56537C10.1414 9.5416 10.1414 9.49398 10.1414 9.44636C10.1414 9.42259 10.1177 9.39875 10.07 9.30359L8.28477 6.2091V9.68445ZM7.71349 9.68445V6.1853L5.90442 9.30359C5.88062 9.3512 5.88062 9.39875 5.88062 9.44636C5.88062 9.49398 5.88062 9.5416 5.90442 9.56537C5.92822 9.58922 5.92822 9.61299 5.95203 9.61299L5.97583 9.63684C6.02343 9.66061 6.07104 9.66061 6.14245 9.66061H7.71349V9.68445Z" fill="#E9EFF7" style="fill:#E9EFF7;fill:color(display-p3 0.9137 0.9373 0.9686);fill-opacity:1;"/>
</g>
<defs>
<linearGradient id="paint0_linear_9881_129497" x1="3.37065" y1="3.36869" x2="12.7246" y2="12.7227" gradientUnits="userSpaceOnUse">
<stop stop-color="#DFE9F2" style="stop-color:#DFE9F2;stop-color:color(display-p3 0.8745 0.9137 0.9490);stop-opacity:1;"/>
<stop offset="0.998" stop-color="#9EA7B0" style="stop-color:#9EA7B0;stop-color:color(display-p3 0.6196 0.6549 0.6902);stop-opacity:1;"/>
</linearGradient>
<linearGradient id="paint1_linear_9881_129497" x1="3.49573" y1="3.49378" x2="12.7827" y2="12.7808" gradientUnits="userSpaceOnUse">
<stop stop-color="#0D61A9" style="stop-color:#0D61A9;stop-color:color(display-p3 0.0510 0.3804 0.6627);stop-opacity:1;"/>
<stop offset="1" stop-color="#16528C" style="stop-color:#16528C;stop-color:color(display-p3 0.0863 0.3216 0.5490);stop-opacity:1;"/>
</linearGradient>
</defs>
</svg>
