<svg width="16" height="16" viewBox="0 0 16 16" fill="none" xmlns="http://www.w3.org/2000/svg">
<path d="M14.6673 7.99869C14.6673 4.31703 11.6823 1.33203 8.00065 1.33203C4.31898 1.33203 1.33398 4.31703 1.33398 7.99869C1.33398 11.6803 4.31898 14.6653 8.00065 14.6653C11.6823 14.6653 14.6673 11.6803 14.6673 7.99869Z" fill="url(#paint0_linear_9881_130424)" style=""/>
<path d="M13.0354 3.63778L9.66741 6.16911V1.55078C10.996 1.89344 12.1634 2.63178 13.0354 3.63778ZM14.4487 6.33211C14.3437 5.92511 14.202 5.53378 14.026 5.16044L12.334 6.33211H14.4487ZM2.96607 3.63778L6.33406 6.16911V1.55078C5.0054 1.89344 3.83807 2.63178 2.96607 3.63778ZM1.97507 5.16044C1.79907 5.53378 1.65773 5.92511 1.55273 6.33211H3.6674L1.97507 5.16044ZM6.33406 14.4468V9.78678L2.96607 12.3598C3.83807 13.3658 5.0054 14.1041 6.33406 14.4468ZM1.55273 9.66544C1.65773 10.0724 1.7994 10.4638 1.9754 10.8371L3.6674 9.66544H1.55273ZM9.66741 14.4468C10.996 14.1041 12.1634 13.3658 13.0354 12.3598L9.66741 9.78678V14.4468ZM14.0264 10.8371C14.2024 10.4641 14.344 10.0728 14.449 9.66544H12.334L14.0264 10.8371Z" fill="url(#paint1_linear_9881_130424)" style=""/>
<path d="M7.99898 14.662C11.68 14.662 14.664 11.6781 14.664 7.99703C14.664 4.31601 11.68 1.33203 7.99898 1.33203C4.31796 1.33203 1.33398 4.31601 1.33398 7.99703C1.33398 11.6781 4.31796 14.662 7.99898 14.662Z" fill="black" style="fill:black;fill-opacity:1;"/>
<mask id="mask0_9881_130424" style="mask-type:luminance" maskUnits="userSpaceOnUse" x="4" y="4" width="9" height="8">
<path d="M12.3584 4.85547H4.02734V11.3852H12.3584V4.85547Z" fill="white" style="fill:white;fill-opacity:1;"/>
</mask>
<g mask="url(#mask0_9881_130424)">
<path d="M5.38116 9.84136C5.4314 9.79112 5.50048 9.76172 5.57383 9.76172H12.2228C12.3444 9.76172 12.4052 9.90843 12.3193 9.99435L11.0057 11.3079C10.9555 11.3582 10.8864 11.3873 10.8131 11.3873H4.16405C4.04245 11.3873 3.98166 11.2409 4.06757 11.1549L5.38116 9.84136Z" fill="url(#paint2_linear_9881_130424)" style=""/>
<path d="M5.38116 4.93511C5.4334 4.88487 5.50276 4.85547 5.57383 4.85547H12.2228C12.3444 4.85547 12.4052 5.00218 12.3193 5.0881L11.0057 6.40141C10.9555 6.45164 10.8864 6.48104 10.8131 6.48104H4.16405C4.04245 6.48104 3.98166 6.33433 4.06757 6.2487L5.38116 4.93511Z" fill="url(#paint3_linear_9881_130424)" style=""/>
<path d="M11.0057 7.36479C10.9555 7.31456 10.8864 7.28516 10.8131 7.28516H4.16405C4.04245 7.28516 3.98166 7.43187 4.06757 7.51779L5.38116 8.83109C5.4314 8.88161 5.50048 8.91073 5.57383 8.91073H12.2228C12.3444 8.91073 12.4052 8.7643 12.3193 8.67838L11.0057 7.36479Z" fill="url(#paint4_linear_9881_130424)" style=""/>
</g>
<defs>
<linearGradient id="paint0_linear_9881_130424" x1="3.37065" y1="3.36869" x2="12.7246" y2="12.7227" gradientUnits="userSpaceOnUse">
<stop stop-color="#DFE9F2" style="stop-color:#DFE9F2;stop-color:color(display-p3 0.8745 0.9137 0.9490);stop-opacity:1;"/>
<stop offset="0.998" stop-color="#9EA7B0" style="stop-color:#9EA7B0;stop-color:color(display-p3 0.6196 0.6549 0.6902);stop-opacity:1;"/>
</linearGradient>
<linearGradient id="paint1_linear_9881_130424" x1="3.49573" y1="3.49378" x2="12.7827" y2="12.7808" gradientUnits="userSpaceOnUse">
<stop stop-color="#0D61A9" style="stop-color:#0D61A9;stop-color:color(display-p3 0.0510 0.3804 0.6627);stop-opacity:1;"/>
<stop offset="1" stop-color="#16528C" style="stop-color:#16528C;stop-color:color(display-p3 0.0863 0.3216 0.5490);stop-opacity:1;"/>
</linearGradient>
<linearGradient id="paint2_linear_9881_130424" x1="11.5877" y1="4.07321" x2="6.98619" y2="12.8873" gradientUnits="userSpaceOnUse">
<stop stop-color="#00FFA3" style="stop-color:#00FFA3;stop-color:color(display-p3 0.0000 1.0000 0.6392);stop-opacity:1;"/>
<stop offset="1" stop-color="#DC1FFF" style="stop-color:#DC1FFF;stop-color:color(display-p3 0.8627 0.1216 1.0000);stop-opacity:1;"/>
</linearGradient>
<linearGradient id="paint3_linear_9881_130424" x1="9.57569" y1="3.02038" x2="4.97384" y2="11.8345" gradientUnits="userSpaceOnUse">
<stop stop-color="#00FFA3" style="stop-color:#00FFA3;stop-color:color(display-p3 0.0000 1.0000 0.6392);stop-opacity:1;"/>
<stop offset="1" stop-color="#DC1FFF" style="stop-color:#DC1FFF;stop-color:color(display-p3 0.8627 0.1216 1.0000);stop-opacity:1;"/>
</linearGradient>
<linearGradient id="paint4_linear_9881_130424" x1="10.5753" y1="3.53563" x2="5.97373" y2="12.3497" gradientUnits="userSpaceOnUse">
<stop stop-color="#00FFA3" style="stop-color:#00FFA3;stop-color:color(display-p3 0.0000 1.0000 0.6392);stop-opacity:1;"/>
<stop offset="1" stop-color="#DC1FFF" style="stop-color:#DC1FFF;stop-color:color(display-p3 0.8627 0.1216 1.0000);stop-opacity:1;"/>
</linearGradient>
</defs>
</svg>
