<svg width="16" height="16" viewBox="0 0 16 16" fill="none" xmlns="http://www.w3.org/2000/svg">
<path d="M14.6673 7.99869C14.6673 4.31703 11.6823 1.33203 8.00065 1.33203C4.31898 1.33203 1.33398 4.31703 1.33398 7.99869C1.33398 11.6803 4.31898 14.6653 8.00065 14.6653C11.6823 14.6653 14.6673 11.6803 14.6673 7.99869Z" fill="url(#paint0_linear_9881_129539)" style=""/>
<path d="M13.0354 3.63778L9.6674 6.16911V1.55078C10.996 1.89344 12.1634 2.63178 13.0354 3.63778ZM14.4487 6.33211C14.3437 5.92511 14.202 5.53378 14.026 5.16044L12.334 6.33211H14.4487ZM2.96607 3.63778L6.33406 6.16911V1.55078C5.0054 1.89344 3.83807 2.63178 2.96607 3.63778ZM1.97507 5.16044C1.79907 5.53378 1.65773 5.92511 1.55273 6.33211H3.6674L1.97507 5.16044ZM6.33406 14.4468V9.78678L2.96607 12.3598C3.83807 13.3658 5.0054 14.1041 6.33406 14.4468ZM1.55273 9.66544C1.65773 10.0724 1.7994 10.4638 1.9754 10.8371L3.6674 9.66544H1.55273ZM9.6674 14.4468C10.996 14.1041 12.1634 13.3658 13.0354 12.3598L9.6674 9.78678V14.4468ZM14.0264 10.8371C14.2024 10.4641 14.344 10.0728 14.449 9.66544H12.334L14.0264 10.8371Z" fill="url(#paint1_linear_9881_129539)" style=""/>
<path fill-rule="evenodd" clip-rule="evenodd" d="M7.99898 14.662C11.6799 14.662 14.664 11.678 14.664 7.99703C14.664 4.31605 11.6799 1.33203 7.99898 1.33203C4.318 1.33203 1.33398 4.31605 1.33398 7.99703C1.33398 11.678 4.318 14.662 7.99898 14.662Z" fill="#FF060A" style="fill:#FF060A;fill:color(display-p3 1.0000 0.0235 0.0392);fill-opacity:1;"/>
<path d="M12.2179 5.97314C11.8071 5.59371 11.2386 5.01427 10.7757 4.60333L10.7483 4.58415C10.7027 4.54755 10.6513 4.51884 10.5963 4.49923C9.47999 4.29102 4.28489 3.31982 4.18353 3.33215C4.15514 3.33612 4.12799 3.34642 4.10409 3.36229L4.07807 3.38283C4.04602 3.41537 4.02169 3.4547 4.00684 3.49789L4 3.5157V3.61296V3.62803C4.58485 5.25673 6.89409 10.5921 7.34881 11.8441C7.37621 11.929 7.42825 12.0907 7.52549 12.0989H7.54741C7.59945 12.0989 7.82134 11.8057 7.82134 11.8057C7.82134 11.8057 11.7879 6.99503 12.1892 6.48271C12.2411 6.4196 12.287 6.35172 12.3261 6.27998C12.3361 6.22385 12.3314 6.16608 12.3124 6.1123C12.2935 6.05853 12.2609 6.01059 12.2179 5.97314ZM8.83899 6.53339L10.5319 5.12934L11.5249 6.04437L8.83899 6.53339ZM8.18156 6.44162L5.26693 4.05266L9.98265 4.92249L8.18156 6.44162ZM8.44453 7.06762L11.4276 6.58682L8.0172 10.6962L8.44453 7.06762ZM4.8711 4.29102L7.93776 6.89366L7.49399 10.699L4.8711 4.29102Z" fill="#E9EFF7" style="fill:#E9EFF7;fill:color(display-p3 0.9137 0.9373 0.9686);fill-opacity:1;"/>
<defs>
<linearGradient id="paint0_linear_9881_129539" x1="3.37065" y1="3.36869" x2="12.7246" y2="12.7227" gradientUnits="userSpaceOnUse">
<stop stop-color="#DFE9F2" style="stop-color:#DFE9F2;stop-color:color(display-p3 0.8745 0.9137 0.9490);stop-opacity:1;"/>
<stop offset="0.998" stop-color="#9EA7B0" style="stop-color:#9EA7B0;stop-color:color(display-p3 0.6196 0.6549 0.6902);stop-opacity:1;"/>
</linearGradient>
<linearGradient id="paint1_linear_9881_129539" x1="3.49573" y1="3.49378" x2="12.7827" y2="12.7808" gradientUnits="userSpaceOnUse">
<stop stop-color="#0D61A9" style="stop-color:#0D61A9;stop-color:color(display-p3 0.0510 0.3804 0.6627);stop-opacity:1;"/>
<stop offset="1" stop-color="#16528C" style="stop-color:#16528C;stop-color:color(display-p3 0.0863 0.3216 0.5490);stop-opacity:1;"/>
</linearGradient>
</defs>
</svg>
