<svg width="16" height="16" viewBox="0 0 16 16" fill="none" xmlns="http://www.w3.org/2000/svg">
<path d="M14.6673 7.99869C14.6673 4.31703 11.6823 1.33203 8.00065 1.33203C4.31898 1.33203 1.33398 4.31703 1.33398 7.99869C1.33398 11.6803 4.31898 14.6653 8.00065 14.6653C11.6823 14.6653 14.6673 11.6803 14.6673 7.99869Z" fill="url(#paint0_linear_9881_129551)" style=""/>
<path d="M13.0354 3.63778L9.6674 6.16911V1.55078C10.996 1.89344 12.1634 2.63178 13.0354 3.63778ZM14.4487 6.33211C14.3437 5.92511 14.202 5.53378 14.026 5.16044L12.334 6.33211H14.4487ZM2.96607 3.63778L6.33406 6.16911V1.55078C5.0054 1.89344 3.83807 2.63178 2.96607 3.63778ZM1.97507 5.16044C1.79907 5.53378 1.65773 5.92511 1.55273 6.33211H3.6674L1.97507 5.16044ZM6.33406 14.4468V9.78678L2.96607 12.3598C3.83807 13.3658 5.0054 14.1041 6.33406 14.4468ZM1.55273 9.66544C1.65773 10.0724 1.7994 10.4638 1.9754 10.8371L3.6674 9.66544H1.55273ZM9.6674 14.4468C10.996 14.1041 12.1634 13.3658 13.0354 12.3598L9.6674 9.78678V14.4468ZM14.0264 10.8371C14.2024 10.4641 14.344 10.0728 14.449 9.66544H12.334L14.0264 10.8371Z" fill="url(#paint1_linear_9881_129551)" style=""/>
<path d="M14.4646 9.61025C13.5743 13.1812 9.95748 15.3545 6.38608 14.464C2.81618 13.5737 0.642963 9.95666 1.53361 6.38599C2.42348 2.81462 6.0403 0.641235 9.61058 1.53149C13.1817 2.42176 15.355 6.03912 14.4646 9.61025Z" fill="#50AF95" style="fill:#50AF95;fill:color(display-p3 0.3137 0.6863 0.5843);fill-opacity:1;"/>
<path fill-rule="evenodd" clip-rule="evenodd" d="M8.84488 8.75177C8.79775 8.75531 8.55423 8.76984 8.01102 8.76984C7.57898 8.76984 7.27222 8.75688 7.1646 8.75177C5.49491 8.67833 4.24865 8.38767 4.24865 8.03967C4.24865 7.69168 5.49491 7.40142 7.1646 7.32679V8.4623C7.27379 8.47015 7.58644 8.48862 8.01848 8.48862C8.53695 8.48862 8.79657 8.46701 8.84332 8.46269V7.32758C10.5095 7.40181 11.753 7.69246 11.753 8.03967C11.753 8.38688 10.5099 8.67754 8.84332 8.75138L8.84488 8.75177ZM8.84488 7.21013V6.19403H11.1701V4.64453H4.83938V6.19403H7.1642V7.20974C5.27456 7.29654 3.85352 7.67086 3.85352 8.11941C3.85352 8.56795 5.27456 8.94188 7.1642 9.02907V12.2852H8.8445V9.02789C10.7298 8.94109 12.1485 8.56717 12.1485 8.11901C12.1485 7.67086 10.7314 7.29733 8.84488 7.21013Z" fill="white" style="fill:white;fill-opacity:1;"/>
<path d="M14.6001 12.8998C14.2882 14.1507 13.0211 14.912 11.7699 14.6001C10.5193 14.2882 9.75791 13.0212 10.0699 11.7704C10.3817 10.5193 11.6488 9.75802 12.8996 10.0699C14.1507 10.3817 14.912 11.6489 14.6001 12.8998Z" fill="#F3BA2F" style="fill:#F3BA2F;fill:color(display-p3 0.9529 0.7294 0.1843);fill-opacity:1;"/>
<path fill-rule="evenodd" clip-rule="evenodd" d="M12.3361 11.4809L11.7314 12.0856L11.3796 11.7337L12.3361 10.7773L13.293 11.734L12.9411 12.0858L12.3361 11.4809ZM11.1312 11.9821L10.7793 12.334L11.1311 12.6857L11.483 12.3339L11.1312 11.9821ZM11.7314 12.5824L12.3361 13.187L12.9411 12.5822L13.2931 12.9338L12.3361 13.8907L11.3791 12.9337L11.7314 12.5824ZM13.5411 11.9823L13.1893 12.3341L13.5411 12.6859L13.893 12.3341L13.5411 11.9823Z" fill="white" style="fill:white;fill-opacity:1;"/>
<path d="M12.6926 12.3336L12.3357 11.9766L11.979 12.3332V12.3342L12.3357 12.691L12.6926 12.3336Z" fill="white" style="fill:white;fill-opacity:1;"/>
<defs>
<linearGradient id="paint0_linear_9881_129551" x1="3.37065" y1="3.36869" x2="12.7246" y2="12.7227" gradientUnits="userSpaceOnUse">
<stop stop-color="#DFE9F2" style="stop-color:#DFE9F2;stop-color:color(display-p3 0.8745 0.9137 0.9490);stop-opacity:1;"/>
<stop offset="0.998" stop-color="#9EA7B0" style="stop-color:#9EA7B0;stop-color:color(display-p3 0.6196 0.6549 0.6902);stop-opacity:1;"/>
</linearGradient>
<linearGradient id="paint1_linear_9881_129551" x1="3.49573" y1="3.49378" x2="12.7827" y2="12.7808" gradientUnits="userSpaceOnUse">
<stop stop-color="#0D61A9" style="stop-color:#0D61A9;stop-color:color(display-p3 0.0510 0.3804 0.6627);stop-opacity:1;"/>
<stop offset="1" stop-color="#16528C" style="stop-color:#16528C;stop-color:color(display-p3 0.0863 0.3216 0.5490);stop-opacity:1;"/>
</linearGradient>
</defs>
</svg>
