<svg width="16" height="16" viewBox="0 0 16 16" fill="none" xmlns="http://www.w3.org/2000/svg">
<path d="M14.6673 7.99869C14.6673 4.31703 11.6823 1.33203 8.00065 1.33203C4.31898 1.33203 1.33398 4.31703 1.33398 7.99869C1.33398 11.6803 4.31898 14.6653 8.00065 14.6653C11.6823 14.6653 14.6673 11.6803 14.6673 7.99869Z" fill="url(#paint0_linear_9881_129586)" style=""/>
<path d="M13.0354 3.63778L9.6674 6.16911V1.55078C10.996 1.89344 12.1634 2.63178 13.0354 3.63778ZM14.4487 6.33211C14.3437 5.92511 14.202 5.53378 14.026 5.16044L12.334 6.33211H14.4487ZM2.96607 3.63778L6.33406 6.16911V1.55078C5.0054 1.89344 3.83807 2.63178 2.96607 3.63778ZM1.97507 5.16044C1.79907 5.53378 1.65773 5.92511 1.55273 6.33211H3.6674L1.97507 5.16044ZM6.33406 14.4468V9.78678L2.96607 12.3598C3.83807 13.3658 5.0054 14.1041 6.33406 14.4468ZM1.55273 9.66544C1.65773 10.0724 1.7994 10.4638 1.9754 10.8371L3.6674 9.66544H1.55273ZM9.6674 14.4468C10.996 14.1041 12.1634 13.3658 13.0354 12.3598L9.6674 9.78678V14.4468ZM14.0264 10.8371C14.2024 10.4641 14.344 10.0728 14.449 9.66544H12.334L14.0264 10.8371Z" fill="url(#paint1_linear_9881_129586)" style=""/>
<path d="M14.4646 9.61025C13.5743 13.1812 9.95748 15.3545 6.38608 14.464C2.81618 13.5737 0.642963 9.95666 1.53361 6.38599C2.42348 2.81462 6.0403 0.641235 9.61058 1.53149C13.1817 2.42176 15.355 6.03912 14.4646 9.61025Z" fill="#50AF95" style="fill:#50AF95;fill:color(display-p3 0.3137 0.6863 0.5843);fill-opacity:1;"/>
<path fill-rule="evenodd" clip-rule="evenodd" d="M8.84488 8.75177C8.79775 8.75531 8.55423 8.76984 8.01102 8.76984C7.57898 8.76984 7.27222 8.75688 7.1646 8.75177C5.49491 8.67833 4.24865 8.38767 4.24865 8.03967C4.24865 7.69168 5.49491 7.40142 7.1646 7.32679V8.4623C7.27379 8.47015 7.58644 8.48862 8.01848 8.48862C8.53695 8.48862 8.79657 8.46701 8.84332 8.46269V7.32758C10.5095 7.40181 11.753 7.69246 11.753 8.03967C11.753 8.38688 10.5099 8.67754 8.84332 8.75138L8.84488 8.75177ZM8.84488 7.21013V6.19403H11.1701V4.64453H4.83938V6.19403H7.1642V7.20974C5.27456 7.29654 3.85352 7.67086 3.85352 8.11941C3.85352 8.56795 5.27456 8.94188 7.1642 9.02907V12.2852H8.8445V9.02789C10.7298 8.94109 12.1485 8.56717 12.1485 8.11901C12.1485 7.67086 10.7314 7.29733 8.84488 7.21013Z" fill="white" style="fill:white;fill-opacity:1;"/>
<path d="M12.335 14.67C13.6246 14.67 14.67 13.6246 14.67 12.335C14.67 11.0454 13.6246 10 12.335 10C11.0454 10 10 11.0454 10 12.335C10 13.6246 11.0454 14.67 12.335 14.67Z" fill="black" style="fill:black;fill-opacity:1;"/>
<mask id="mask0_9881_129586" style="mask-type:luminance" maskUnits="userSpaceOnUse" x="10" y="11" width="4" height="3">
<path d="M13.8621 11.2344H10.9434V13.522H13.8621V11.2344Z" fill="white" style="fill:white;fill-opacity:1;"/>
</mask>
<g mask="url(#mask0_9881_129586)">
<path d="M11.4177 12.981C11.4353 12.9634 11.4595 12.9531 11.4852 12.9531H13.8146C13.8572 12.9531 13.8785 13.0045 13.8484 13.0346L13.3882 13.4948C13.3706 13.5124 13.3464 13.5226 13.3207 13.5226H10.9913C10.9487 13.5226 10.9274 13.4713 10.9575 13.4412L11.4177 12.981Z" fill="url(#paint2_linear_9881_129586)" style=""/>
<path d="M11.4177 11.2623C11.436 11.2447 11.4603 11.2344 11.4852 11.2344H13.8146C13.8572 11.2344 13.8785 11.2858 13.8484 11.3159L13.3882 11.776C13.3706 11.7936 13.3464 11.8039 13.3207 11.8039H10.9913C10.9487 11.8039 10.9274 11.7525 10.9575 11.7225L11.4177 11.2623Z" fill="url(#paint3_linear_9881_129586)" style=""/>
<path d="M13.3882 12.1138C13.3706 12.0962 13.3464 12.0859 13.3207 12.0859H10.9913C10.9487 12.0859 10.9274 12.1373 10.9575 12.1674L11.4177 12.6275C11.4353 12.6452 11.4595 12.6554 11.4852 12.6554H13.8146C13.8572 12.6554 13.8785 12.6041 13.8484 12.574L13.3882 12.1138Z" fill="url(#paint4_linear_9881_129586)" style=""/>
</g>
<defs>
<linearGradient id="paint0_linear_9881_129586" x1="3.37065" y1="3.36869" x2="12.7246" y2="12.7227" gradientUnits="userSpaceOnUse">
<stop stop-color="#DFE9F2" style="stop-color:#DFE9F2;stop-color:color(display-p3 0.8745 0.9137 0.9490);stop-opacity:1;"/>
<stop offset="0.998" stop-color="#9EA7B0" style="stop-color:#9EA7B0;stop-color:color(display-p3 0.6196 0.6549 0.6902);stop-opacity:1;"/>
</linearGradient>
<linearGradient id="paint1_linear_9881_129586" x1="3.49573" y1="3.49378" x2="12.7827" y2="12.7808" gradientUnits="userSpaceOnUse">
<stop stop-color="#0D61A9" style="stop-color:#0D61A9;stop-color:color(display-p3 0.0510 0.3804 0.6627);stop-opacity:1;"/>
<stop offset="1" stop-color="#16528C" style="stop-color:#16528C;stop-color:color(display-p3 0.0863 0.3216 0.5490);stop-opacity:1;"/>
</linearGradient>
<linearGradient id="paint2_linear_9881_129586" x1="13.5921" y1="10.9602" x2="11.98" y2="14.0481" gradientUnits="userSpaceOnUse">
<stop stop-color="#00FFA3" style="stop-color:#00FFA3;stop-color:color(display-p3 0.0000 1.0000 0.6392);stop-opacity:1;"/>
<stop offset="1" stop-color="#DC1FFF" style="stop-color:#DC1FFF;stop-color:color(display-p3 0.8627 0.1216 1.0000);stop-opacity:1;"/>
</linearGradient>
<linearGradient id="paint3_linear_9881_129586" x1="12.8872" y1="10.5915" x2="11.275" y2="13.6794" gradientUnits="userSpaceOnUse">
<stop stop-color="#00FFA3" style="stop-color:#00FFA3;stop-color:color(display-p3 0.0000 1.0000 0.6392);stop-opacity:1;"/>
<stop offset="1" stop-color="#DC1FFF" style="stop-color:#DC1FFF;stop-color:color(display-p3 0.8627 0.1216 1.0000);stop-opacity:1;"/>
</linearGradient>
<linearGradient id="paint4_linear_9881_129586" x1="13.2374" y1="10.7723" x2="11.6253" y2="13.8602" gradientUnits="userSpaceOnUse">
<stop stop-color="#00FFA3" style="stop-color:#00FFA3;stop-color:color(display-p3 0.0000 1.0000 0.6392);stop-opacity:1;"/>
<stop offset="1" stop-color="#DC1FFF" style="stop-color:#DC1FFF;stop-color:color(display-p3 0.8627 0.1216 1.0000);stop-opacity:1;"/>
</linearGradient>
</defs>
</svg>
