<svg width="16" height="16" viewBox="0 0 16 16" fill="none" xmlns="http://www.w3.org/2000/svg">
<path d="M14.6673 7.99869C14.6673 4.31703 11.6823 1.33203 8.00065 1.33203C4.31898 1.33203 1.33398 4.31703 1.33398 7.99869C1.33398 11.6803 4.31898 14.6653 8.00065 14.6653C11.6823 14.6653 14.6673 11.6803 14.6673 7.99869Z" fill="url(#paint0_linear_9881_129612)" style=""/>
<path d="M13.0354 3.63778L9.6674 6.16911V1.55078C10.996 1.89344 12.1634 2.63178 13.0354 3.63778ZM14.4487 6.33211C14.3437 5.92511 14.202 5.53378 14.026 5.16044L12.334 6.33211H14.4487ZM2.96607 3.63778L6.33406 6.16911V1.55078C5.0054 1.89344 3.83807 2.63178 2.96607 3.63778ZM1.97507 5.16044C1.79907 5.53378 1.65773 5.92511 1.55273 6.33211H3.6674L1.97507 5.16044ZM6.33406 14.4468V9.78678L2.96607 12.3598C3.83807 13.3658 5.0054 14.1041 6.33406 14.4468ZM1.55273 9.66544C1.65773 10.0724 1.7994 10.4638 1.9754 10.8371L3.6674 9.66544H1.55273ZM9.6674 14.4468C10.996 14.1041 12.1634 13.3658 13.0354 12.3598L9.6674 9.78678V14.4468ZM14.0264 10.8371C14.2024 10.4641 14.344 10.0728 14.449 9.66544H12.334L14.0264 10.8371Z" fill="url(#paint1_linear_9881_129612)" style=""/>
<path d="M14.4646 9.61025C13.5743 13.1812 9.95748 15.3545 6.38608 14.464C2.81618 13.5737 0.642963 9.95666 1.53361 6.38599C2.42348 2.81462 6.0403 0.641235 9.61058 1.53149C13.1817 2.42176 15.355 6.03912 14.4646 9.61025Z" fill="#50AF95" style="fill:#50AF95;fill:color(display-p3 0.3137 0.6863 0.5843);fill-opacity:1;"/>
<path fill-rule="evenodd" clip-rule="evenodd" d="M8.84488 8.75177C8.79775 8.75531 8.55423 8.76984 8.01102 8.76984C7.57898 8.76984 7.27222 8.75688 7.1646 8.75177C5.49491 8.67833 4.24865 8.38767 4.24865 8.03967C4.24865 7.69168 5.49491 7.40142 7.1646 7.32679V8.4623C7.27379 8.47015 7.58644 8.48862 8.01848 8.48862C8.53695 8.48862 8.79657 8.46701 8.84332 8.46269V7.32758C10.5095 7.40181 11.753 7.69246 11.753 8.03967C11.753 8.38688 10.5099 8.67754 8.84332 8.75138L8.84488 8.75177ZM8.84488 7.21013V6.19403H11.1701V4.64453H4.83938V6.19403H7.1642V7.20974C5.27456 7.29654 3.85352 7.67086 3.85352 8.11941C3.85352 8.56795 5.27456 8.94188 7.1642 9.02907V12.2852H8.8445V9.02789C10.7298 8.94109 12.1485 8.56717 12.1485 8.11901C12.1485 7.67086 10.7314 7.29733 8.84488 7.21013Z" fill="white" style="fill:white;fill-opacity:1;"/>
<path d="M12.3333 14.6667C13.622 14.6667 14.6667 13.622 14.6667 12.3333C14.6667 11.0447 13.622 10 12.3333 10C11.0447 10 10 11.0447 10 12.3333C10 13.622 11.0447 14.6667 12.3333 14.6667Z" fill="#FF060A" style="fill:#FF060A;fill:color(display-p3 1.0000 0.0235 0.0392);fill-opacity:1;"/>
<path d="M14.0859 11.6317C13.9421 11.4989 13.7431 11.296 13.581 11.1522L13.5714 11.1454C13.5555 11.1326 13.5375 11.1226 13.5182 11.1157C13.1274 11.0428 11.3087 10.7028 11.2732 10.7071C11.2633 10.7085 11.2538 10.7121 11.2454 10.7177L11.2363 10.7249C11.2251 10.7363 11.2165 10.75 11.2113 10.7652L11.209 10.7714V10.8054V10.8107C11.4137 11.3809 12.2221 13.2488 12.3813 13.6871C12.3909 13.7168 12.4091 13.7734 12.4432 13.7763H12.4509C12.4691 13.7763 12.5468 13.6737 12.5468 13.6737C12.5468 13.6737 13.9354 11.9895 14.0759 11.8101C14.0941 11.788 14.1101 11.7643 14.1238 11.7391C14.1273 11.7195 14.1257 11.6993 14.119 11.6804C14.1124 11.6616 14.101 11.6448 14.0859 11.6317ZM12.903 11.8279L13.4957 11.3363L13.8433 11.6567L12.903 11.8279ZM12.6729 11.7957L11.6525 10.9594L13.3034 11.2639L12.6729 11.7957ZM12.7649 12.0149L13.8093 11.8466L12.6153 13.2852L12.7649 12.0149ZM11.5139 11.0428L12.5875 11.954L12.4322 13.2862L11.5139 11.0428Z" fill="white" style="fill:white;fill-opacity:1;"/>
<defs>
<linearGradient id="paint0_linear_9881_129612" x1="3.37065" y1="3.36869" x2="12.7246" y2="12.7227" gradientUnits="userSpaceOnUse">
<stop stop-color="#DFE9F2" style="stop-color:#DFE9F2;stop-color:color(display-p3 0.8745 0.9137 0.9490);stop-opacity:1;"/>
<stop offset="0.998" stop-color="#9EA7B0" style="stop-color:#9EA7B0;stop-color:color(display-p3 0.6196 0.6549 0.6902);stop-opacity:1;"/>
</linearGradient>
<linearGradient id="paint1_linear_9881_129612" x1="3.49573" y1="3.49378" x2="12.7827" y2="12.7808" gradientUnits="userSpaceOnUse">
<stop stop-color="#0D61A9" style="stop-color:#0D61A9;stop-color:color(display-p3 0.0510 0.3804 0.6627);stop-opacity:1;"/>
<stop offset="1" stop-color="#16528C" style="stop-color:#16528C;stop-color:color(display-p3 0.0863 0.3216 0.5490);stop-opacity:1;"/>
</linearGradient>
</defs>
</svg>
