<svg width="16" height="16" viewBox="0 0 16 16" fill="none" xmlns="http://www.w3.org/2000/svg">
<path d="M14.6673 7.99869C14.6673 4.31703 11.6823 1.33203 8.00065 1.33203C4.31898 1.33203 1.33398 4.31703 1.33398 7.99869C1.33398 11.6803 4.31898 14.6653 8.00065 14.6653C11.6823 14.6653 14.6673 11.6803 14.6673 7.99869Z" fill="url(#paint0_linear_9881_129642)" style=""/>
<path d="M13.0354 3.63778L9.6674 6.16911V1.55078C10.996 1.89344 12.1634 2.63178 13.0354 3.63778ZM14.4487 6.33211C14.3437 5.92511 14.202 5.53378 14.026 5.16044L12.334 6.33211H14.4487ZM2.96607 3.63778L6.33406 6.16911V1.55078C5.0054 1.89344 3.83807 2.63178 2.96607 3.63778ZM1.97507 5.16044C1.79907 5.53378 1.65773 5.92511 1.55273 6.33211H3.6674L1.97507 5.16044ZM6.33406 14.4468V9.78678L2.96607 12.3598C3.83807 13.3658 5.0054 14.1041 6.33406 14.4468ZM1.55273 9.66544C1.65773 10.0724 1.7994 10.4638 1.9754 10.8371L3.6674 9.66544H1.55273ZM9.6674 14.4468C10.996 14.1041 12.1634 13.3658 13.0354 12.3598L9.6674 9.78678V14.4468ZM14.0264 10.8371C14.2024 10.4641 14.344 10.0728 14.449 9.66544H12.334L14.0264 10.8371Z" fill="url(#paint1_linear_9881_129642)" style=""/>
<mask id="mask0_9881_129642" style="mask-type:luminance" maskUnits="userSpaceOnUse" x="1" y="1" width="14" height="14">
<path d="M14.6711 1.33203H1.33398V14.6691H14.6711V1.33203Z" fill="white" style="fill:white;fill-opacity:1;"/>
</mask>
<g mask="url(#mask0_9881_129642)">
<path d="M8.00255 1.33203C4.31962 1.33203 1.33398 4.31767 1.33398 8.00059C1.33398 11.6836 4.31962 14.6692 8.00255 14.6692C11.6855 14.6692 14.6711 11.6836 14.6711 8.00059C14.6711 4.31767 11.6855 1.33203 8.00255 1.33203Z" fill="#EA0F29" style="fill:#EA0F29;fill:color(display-p3 0.9176 0.0588 0.1608);fill-opacity:1;"/>
<path d="M12.1785 6.71344L8.99764 6.71053L7.99507 3.55859L7.00708 6.71907L3.82617 6.74804L6.39753 8.70401L5.44413 11.8704L8.01528 9.92602L10.5991 11.8495L9.62178 8.68942L12.1785 6.71344Z" fill="#F2EB08" style="fill:#F2EB08;fill:color(display-p3 0.9490 0.9216 0.0314);fill-opacity:1;"/>
<path d="M10.706 11.6132L10.7012 11.6094L10.7033 11.6159L10.706 11.6132Z" fill="#FFFF00" style="fill:#FFFF00;fill:color(display-p3 1.0000 1.0000 0.0000);fill-opacity:1;"/>
</g>
<defs>
<linearGradient id="paint0_linear_9881_129642" x1="3.37065" y1="3.36869" x2="12.7246" y2="12.7227" gradientUnits="userSpaceOnUse">
<stop stop-color="#DFE9F2" style="stop-color:#DFE9F2;stop-color:color(display-p3 0.8745 0.9137 0.9490);stop-opacity:1;"/>
<stop offset="0.998" stop-color="#9EA7B0" style="stop-color:#9EA7B0;stop-color:color(display-p3 0.6196 0.6549 0.6902);stop-opacity:1;"/>
</linearGradient>
<linearGradient id="paint1_linear_9881_129642" x1="3.49573" y1="3.49378" x2="12.7827" y2="12.7808" gradientUnits="userSpaceOnUse">
<stop stop-color="#0D61A9" style="stop-color:#0D61A9;stop-color:color(display-p3 0.0510 0.3804 0.6627);stop-opacity:1;"/>
<stop offset="1" stop-color="#16528C" style="stop-color:#16528C;stop-color:color(display-p3 0.0863 0.3216 0.5490);stop-opacity:1;"/>
</linearGradient>
</defs>
</svg>
