<svg width="16" height="16" viewBox="0 0 16 16" fill="none" xmlns="http://www.w3.org/2000/svg">
<path d="M14.6667 7.99967C14.6667 11.6817 11.682 14.6663 8.00004 14.6663C4.31804 14.6663 1.33337 11.6817 1.33337 7.99967C1.33337 7.26101 1.45337 6.55034 1.67537 5.88601C2.10371 4.60367 4.82971 3.66634 4.82971 3.66634C4.82971 3.66634 4.84304 2.10201 5.33204 1.88834C6.14904 1.53101 7.05137 1.33301 8.00004 1.33301C11.682 1.33301 14.6667 4.31767 14.6667 7.99967Z" fill="url(#paint0_linear_2503_4873)" style=""/>
<path d="M4.3333 9.33301L4.5313 9.96334L5.1353 9.72901L4.7773 10.281L5.3333 10.6193L4.68996 10.6767L4.77863 11.333L4.3333 10.8527L3.88796 11.333L3.97663 10.6767L3.3333 10.6193L3.8893 10.281L3.5313 9.72901L4.1353 9.96467L4.3333 9.33301ZM11.5 10.333L11.599 10.648L11.901 10.531L11.7226 10.807L12 10.9763L11.6783 11.005L11.7226 11.333L11.5 11.0933L11.2773 11.333L11.3216 11.005L11 10.9763L11.2773 10.807L11.099 10.531L11.401 10.648L11.5 10.333ZM9.82163 7.32767L9.92063 7.64301L10.2226 7.52567L10.0443 7.80167L10.3216 7.97101L9.99996 7.99967L10.0443 8.32767L9.82163 8.08834L9.59896 8.32767L9.6433 7.99967L9.32163 7.97101L9.6003 7.80167L9.42063 7.52567L9.72263 7.64301L9.82163 7.32767ZM11.5 5.33301L11.599 5.64801L11.901 5.53101L11.7226 5.80701L12 5.97634L11.6783 6.00501L11.7226 6.33301L11.5 6.09334L11.2773 6.33301L11.3216 6.00501L11 5.97634L11.2773 5.80701L11.099 5.53101L11.401 5.64801L11.5 5.33301ZM13.5 6.99967L13.599 7.31467L13.901 7.19767L13.7226 7.47367L14 7.64301L13.6783 7.67167L13.7226 7.99967L13.5 7.76001L13.2773 7.99967L13.3216 7.67167L13 7.64301L13.2773 7.47367L13.099 7.19767L13.401 7.31467L13.5 6.99967ZM12.3333 8.33301L12.4243 8.56867L12.6666 8.58834L12.4816 8.75234L12.539 8.99967L12.3333 8.86567L12.1276 8.99967L12.185 8.75234L12 8.58834L12.2423 8.56867L12.3333 8.33301ZM5.3333 2.86434V1.89134C4.85596 2.10001 4.41096 2.36601 3.99996 2.67534V2.76967L3.9313 2.72701C2.8963 3.52667 2.10363 4.62134 1.6803 5.88801L3.99996 4.43967V5.99967H5.3333V4.34467L7.98296 5.99967H8.3333V5.13001L7.05696 4.33301H8.3333V2.99967H6.85963L8.3333 2.07901V1.34967C8.2223 1.34434 8.11263 1.33301 7.99996 1.33301C7.92163 1.33301 7.8453 1.34201 7.76763 1.34467L5.3333 2.86434Z" fill="url(#paint1_linear_2503_4873)" style=""/>
<path d="M4.33336 3.99894V5.99894H5.00002V3.99894H8.33336V3.33227H5.00002V2.05127C4.77036 2.16727 4.54669 2.29294 4.33336 2.43394V3.33227H3.24302C3.03869 3.5406 2.85169 3.76527 2.67602 3.99894H4.33336ZM3.88036 4.33227H3.29936L1.97536 5.1586C1.89902 5.31994 1.82969 5.48427 1.76636 5.65227L3.88036 4.33227ZM8.07102 1.33594L5.40769 2.99894H5.98969L8.33336 1.53527V1.34894C8.24602 1.3446 8.15936 1.33694 8.07102 1.33594ZM8.33336 5.31027L6.76702 4.33227H6.18636L8.33336 5.67227V5.31027Z" fill="url(#paint2_linear_2503_4873)" style=""/>
<defs>
<linearGradient id="paint0_linear_2503_4873" x1="6.18237" y1="3.64067" x2="11.3154" y2="15.95" gradientUnits="userSpaceOnUse">
<stop stop-color="#0D61A9" style="stop-color:#0D61A9;stop-color:color(display-p3 0.0510 0.3804 0.6627);stop-opacity:1;"/>
<stop offset="1" stop-color="#16528C" style="stop-color:#16528C;stop-color:color(display-p3 0.0863 0.3216 0.5490);stop-opacity:1;"/>
</linearGradient>
<linearGradient id="paint1_linear_2503_4873" x1="6.64096" y1="4.54834" x2="11.7266" y2="15.769" gradientUnits="userSpaceOnUse">
<stop stop-color="#DFE9F2" style="stop-color:#DFE9F2;stop-color:color(display-p3 0.8745 0.9137 0.9490);stop-opacity:1;"/>
<stop offset="0.998" stop-color="#9EA7B0" style="stop-color:#9EA7B0;stop-color:color(display-p3 0.6196 0.6549 0.6902);stop-opacity:1;"/>
</linearGradient>
<linearGradient id="paint2_linear_2503_4873" x1="4.41236" y1="2.2826" x2="7.45769" y2="8.1006" gradientUnits="userSpaceOnUse">
<stop offset="0.008" stop-color="#F44F5A" style="stop-color:#F44F5A;stop-color:color(display-p3 0.9569 0.3098 0.3529);stop-opacity:1;"/>
<stop offset="0.447" stop-color="#EE3D4A" style="stop-color:#EE3D4A;stop-color:color(display-p3 0.9333 0.2392 0.2902);stop-opacity:1;"/>
<stop offset="1" stop-color="#E52030" style="stop-color:#E52030;stop-color:color(display-p3 0.8980 0.1255 0.1882);stop-opacity:1;"/>
</linearGradient>
</defs>
</svg>
