<svg width="16" height="16" viewBox="0 0 16 16" fill="none" xmlns="http://www.w3.org/2000/svg">
<path d="M8.00004 14.6673C11.6819 14.6673 14.6667 11.6825 14.6667 8.00065C14.6667 4.31875 11.6819 1.33398 8.00004 1.33398C4.31814 1.33398 1.33337 4.31875 1.33337 8.00065C1.33337 11.6825 4.31814 14.6673 8.00004 14.6673Z" fill="url(#paint0_linear_2503_8682)" style=""/>
<path d="M14 8L8 12L2 8L8 4L14 8Z" fill="url(#paint1_linear_2503_8682)" style=""/>
<path d="M10.3333 8.00033C10.3333 9.28933 9.28896 10.3337 7.99996 10.3337C6.71096 10.3337 5.66663 9.28933 5.66663 8.00033C5.66663 6.71133 6.71096 5.66699 7.99996 5.66699C9.28896 5.66699 10.3333 6.71133 10.3333 8.00033Z" fill="url(#paint2_linear_2503_8682)" style=""/>
<path d="M5.93503 6.91535C5.82169 7.13035 5.74369 7.36468 5.70203 7.61201C6.45336 7.51968 8.49503 7.42435 10.2137 8.73701C10.2904 8.50535 10.3334 8.25768 10.3334 8.00001C10.3334 8.00001 10.3334 7.99868 10.3334 7.99735C8.68636 6.88168 6.88536 6.83735 5.93503 6.91535Z" fill="#F0F4F7" style="fill:#F0F4F7;fill:color(display-p3 0.9412 0.9569 0.9686);fill-opacity:1;"/>
<defs>
<linearGradient id="paint0_linear_2503_8682" x1="3.70937" y1="3.70998" x2="13.1374" y2="13.138" gradientUnits="userSpaceOnUse">
<stop stop-color="#21AD64" style="stop-color:#21AD64;stop-color:color(display-p3 0.1294 0.6784 0.3922);stop-opacity:1;"/>
<stop offset="1" stop-color="#088242" style="stop-color:#088242;stop-color:color(display-p3 0.0314 0.5098 0.2588);stop-opacity:1;"/>
</linearGradient>
<linearGradient id="paint1_linear_2503_8682" x1="2" y1="8" x2="14" y2="8" gradientUnits="userSpaceOnUse">
<stop stop-color="#FFD000" style="stop-color:#FFD000;stop-color:color(display-p3 1.0000 0.8157 0.0000);stop-opacity:1;"/>
<stop offset="1" stop-color="#FFC107" style="stop-color:#FFC107;stop-color:color(display-p3 1.0000 0.7569 0.0275);stop-opacity:1;"/>
</linearGradient>
<linearGradient id="paint2_linear_2503_8682" x1="6.17363" y1="6.17399" x2="9.47396" y2="9.47432" gradientUnits="userSpaceOnUse">
<stop stop-color="#2196F3" style="stop-color:#2196F3;stop-color:color(display-p3 0.1294 0.5882 0.9529);stop-opacity:1;"/>
<stop offset="1" stop-color="#0D61A9" style="stop-color:#0D61A9;stop-color:color(display-p3 0.0510 0.3804 0.6627);stop-opacity:1;"/>
</linearGradient>
</defs>
</svg>
