<svg width="16" height="16" viewBox="0 0 16 16" fill="none" xmlns="http://www.w3.org/2000/svg">
<path d="M14.6667 8.00033C14.6667 7.17799 14.5107 6.39433 14.2387 5.66699H1.76137C1.48937 6.39433 1.33337 7.17799 1.33337 8.00033C1.33337 8.82266 1.48937 9.60633 1.76137 10.3337H14.2384C14.5107 9.60633 14.6667 8.82266 14.6667 8.00033Z" fill="url(#paint0_linear_2503_3768)" style=""/>
<path d="M8.00004 6.33398C7.07937 6.33398 6.33337 7.07998 6.33337 8.00065C6.33337 8.92132 7.07937 9.66732 8.00004 9.66732C8.92071 9.66732 9.66671 8.92132 9.66671 8.00065C9.66671 7.07998 8.92071 6.33398 8.00004 6.33398ZM8.00004 9.45932C7.19404 9.45932 6.54137 8.80665 6.54137 8.00065C6.54137 7.19465 7.19404 6.54198 8.00004 6.54198C8.80604 6.54198 9.45871 7.19465 9.45871 8.00065C9.45871 8.80665 8.80604 9.45932 8.00004 9.45932Z" fill="#0D62AB" style="fill:#0D62AB;fill:color(display-p3 0.0510 0.3843 0.6706);fill-opacity:1;"/>
<path d="M8.29129 8.00032C8.29129 8.16198 8.16129 8.29165 7.99995 8.29165C7.83862 8.29165 7.70862 8.16165 7.70862 8.00032C7.70862 7.83898 7.83862 7.70898 7.99995 7.70898C8.16129 7.70898 8.29129 7.83865 8.29129 8.00032Z" fill="#0D62AB" style="fill:#0D62AB;fill:color(display-p3 0.0510 0.3843 0.6706);fill-opacity:1;"/>
<path d="M9.45702 8.11877C9.41702 8.11377 9.38036 8.14043 9.37536 8.18043C9.37036 8.22043 9.39702 8.2571 9.43702 8.2621C9.47702 8.26877 9.51369 8.24043 9.51869 8.20043C9.52502 8.16043 9.49702 8.12377 9.45702 8.11877Z" fill="#0D62AB" style="fill:#0D62AB;fill:color(display-p3 0.0510 0.3843 0.6706);fill-opacity:1;"/>
<path d="M7.99995 9.45899L8.04995 8.58333L7.99995 8.16699L7.94995 8.58333L7.99995 9.45899Z" fill="#0D62AB" style="fill:#0D62AB;fill:color(display-p3 0.0510 0.3843 0.6706);fill-opacity:1;"/>
<path d="M9.37694 8.4918C9.33861 8.4768 9.29694 8.49346 9.28027 8.5318C9.26527 8.56846 9.28361 8.6118 9.32027 8.6268C9.35694 8.6418 9.40027 8.62513 9.41527 8.5868C9.43194 8.5498 9.41361 8.50646 9.37694 8.4918Z" fill="#0D62AB" style="fill:#0D62AB;fill:color(display-p3 0.0510 0.3843 0.6706);fill-opacity:1;"/>
<path d="M7.62195 9.40944L7.89662 8.57678L7.95662 8.16211L7.79995 8.55178L7.62195 9.40944Z" fill="#0D62AB" style="fill:#0D62AB;fill:color(display-p3 0.0510 0.3843 0.6706);fill-opacity:1;"/>
<path d="M9.20199 8.83118C9.17032 8.80618 9.12532 8.81118 9.10032 8.84451C9.07532 8.87618 9.08199 8.92118 9.11366 8.94618C9.14532 8.97118 9.19199 8.96451 9.21532 8.93284C9.24032 8.90084 9.23366 8.85418 9.20199 8.83118Z" fill="#0D62AB" style="fill:#0D62AB;fill:color(display-p3 0.0510 0.3843 0.6706);fill-opacity:1;"/>
<path d="M7.27063 9.26353L7.75196 8.5292L7.91696 8.14453L7.66563 8.48086L7.27063 9.26353Z" fill="#0D62AB" style="fill:#0D62AB;fill:color(display-p3 0.0510 0.3843 0.6706);fill-opacity:1;"/>
<path d="M8.94734 9.11282C8.92234 9.08116 8.87567 9.07616 8.844 9.09949C8.81234 9.12449 8.80567 9.17116 8.83067 9.20282C8.85567 9.23449 8.90067 9.24116 8.93234 9.21616C8.96567 9.19082 8.97067 9.14616 8.94734 9.11282Z" fill="#0D62AB" style="fill:#0D62AB;fill:color(display-p3 0.0510 0.3843 0.6706);fill-opacity:1;"/>
<path d="M6.96765 9.03314L7.62198 8.44881L7.88165 8.11914L7.55199 8.37881L6.96765 9.03314Z" fill="#0D62AB" style="fill:#0D62AB;fill:color(display-p3 0.0510 0.3843 0.6706);fill-opacity:1;"/>
<path d="M8.62597 9.31922C8.61097 9.28255 8.56763 9.26589 8.53097 9.28089C8.4943 9.29589 8.47597 9.33922 8.49097 9.37589C8.50763 9.41255 8.5493 9.43089 8.58597 9.41589C8.6243 9.39922 8.64097 9.35755 8.62597 9.31922Z" fill="#0D62AB" style="fill:#0D62AB;fill:color(display-p3 0.0510 0.3843 0.6706);fill-opacity:1;"/>
<path d="M6.73633 8.72998L7.51899 8.33532L7.85533 8.08398L7.47066 8.24898L6.73633 8.72998Z" fill="#0D62AB" style="fill:#0D62AB;fill:color(display-p3 0.0510 0.3843 0.6706);fill-opacity:1;"/>
<path d="M8.263 9.43695C8.258 9.39695 8.22134 9.36862 8.18134 9.37362C8.14134 9.38029 8.113 9.41695 8.118 9.45695C8.12467 9.49695 8.16134 9.52362 8.20134 9.51862C8.24134 9.51329 8.268 9.47695 8.263 9.43695Z" fill="#0D62AB" style="fill:#0D62AB;fill:color(display-p3 0.0510 0.3843 0.6706);fill-opacity:1;"/>
<path d="M6.59131 8.37861L7.44864 8.20061L7.83831 8.04395L7.42364 8.10395L6.59131 8.37861Z" fill="#0D62AB" style="fill:#0D62AB;fill:color(display-p3 0.0510 0.3843 0.6706);fill-opacity:1;"/>
<path d="M7.81869 9.37597C7.77869 9.36931 7.74202 9.39764 7.73702 9.43764C7.73202 9.47764 7.76036 9.51431 7.80036 9.51931C7.84036 9.52597 7.87702 9.49764 7.88202 9.45764C7.88669 9.41764 7.85836 9.38097 7.81869 9.37597Z" fill="#0D62AB" style="fill:#0D62AB;fill:color(display-p3 0.0510 0.3843 0.6706);fill-opacity:1;"/>
<path d="M6.54138 8.0002L7.41705 8.0502L7.83338 8.0002L7.41705 7.9502L6.54138 8.0002Z" fill="#0D62AB" style="fill:#0D62AB;fill:color(display-p3 0.0510 0.3843 0.6706);fill-opacity:1;"/>
<path d="M7.47071 9.28064C7.43404 9.26564 7.39071 9.28397 7.37571 9.32064C7.35904 9.35731 7.37737 9.40064 7.41404 9.41564C7.45237 9.43064 7.49404 9.41397 7.51071 9.37731C7.52537 9.33897 7.50704 9.29731 7.47071 9.28064Z" fill="#0D62AB" style="fill:#0D62AB;fill:color(display-p3 0.0510 0.3843 0.6706);fill-opacity:1;"/>
<path d="M6.59131 7.62207L7.42398 7.89674L7.83864 7.95674L7.44898 7.80007L6.59131 7.62207Z" fill="#0D62AB" style="fill:#0D62AB;fill:color(display-p3 0.0510 0.3843 0.6706);fill-opacity:1;"/>
<path d="M7.1577 9.09949C7.12603 9.07616 7.07936 9.08116 7.05603 9.11282C7.03103 9.14616 7.03603 9.19116 7.06936 9.21616C7.10103 9.23949 7.14603 9.23449 7.17103 9.20282C7.1957 9.16916 7.18903 9.12449 7.1577 9.09949Z" fill="#0D62AB" style="fill:#0D62AB;fill:color(display-p3 0.0510 0.3843 0.6706);fill-opacity:1;"/>
<path d="M6.73633 7.27051L7.47066 7.75184L7.85533 7.91684L7.51899 7.66551L6.73633 7.27051Z" fill="#0D62AB" style="fill:#0D62AB;fill:color(display-p3 0.0510 0.3843 0.6706);fill-opacity:1;"/>
<path d="M6.90099 8.844C6.87599 8.81234 6.83099 8.80567 6.79933 8.83067C6.76766 8.854 6.76099 8.90067 6.78599 8.93234C6.80933 8.964 6.85599 8.97067 6.88766 8.94567C6.91933 8.92067 6.92599 8.87567 6.90099 8.844Z" fill="#0D62AB" style="fill:#0D62AB;fill:color(display-p3 0.0510 0.3843 0.6706);fill-opacity:1;"/>
<path d="M6.96765 6.96777L7.55199 7.62211L7.88165 7.88177L7.62198 7.55211L6.96765 6.96777Z" fill="#0D62AB" style="fill:#0D62AB;fill:color(display-p3 0.0510 0.3843 0.6706);fill-opacity:1;"/>
<path d="M6.71972 8.52988C6.70472 8.49322 6.66138 8.47488 6.62472 8.49155C6.58805 8.50655 6.56972 8.54988 6.58472 8.58655C6.60138 8.62322 6.64305 8.64155 6.68138 8.62655C6.71805 8.60988 6.73638 8.56822 6.71972 8.52988Z" fill="#0D62AB" style="fill:#0D62AB;fill:color(display-p3 0.0510 0.3843 0.6706);fill-opacity:1;"/>
<path d="M7.27063 6.73633L7.6653 7.51899L7.91663 7.85533L7.75163 7.47066L7.27063 6.73633Z" fill="#0D62AB" style="fill:#0D62AB;fill:color(display-p3 0.0510 0.3843 0.6706);fill-opacity:1;"/>
<path d="M6.62628 8.18043C6.61962 8.14043 6.58295 8.11377 6.54462 8.11877C6.50462 8.12377 6.47628 8.16043 6.48128 8.20043C6.48628 8.24043 6.52295 8.26877 6.56295 8.2621C6.60295 8.2571 6.63128 8.22043 6.62628 8.18043Z" fill="#0D62AB" style="fill:#0D62AB;fill:color(display-p3 0.0510 0.3843 0.6706);fill-opacity:1;"/>
<path d="M7.62195 6.5918L7.79995 7.44913L7.95662 7.8388L7.89662 7.42413L7.62195 6.5918Z" fill="#0D62AB" style="fill:#0D62AB;fill:color(display-p3 0.0510 0.3843 0.6706);fill-opacity:1;"/>
<path d="M6.56295 7.7369C6.52295 7.7319 6.48628 7.76023 6.48128 7.80023C6.47628 7.84023 6.50462 7.8769 6.54462 7.8819C6.58462 7.8869 6.62128 7.85857 6.62628 7.81857C6.63128 7.77857 6.60295 7.7419 6.56295 7.7369Z" fill="#0D62AB" style="fill:#0D62AB;fill:color(display-p3 0.0510 0.3843 0.6706);fill-opacity:1;"/>
<path d="M7.99995 6.54199L7.94995 7.41766L7.99995 7.83399L8.04995 7.41766L7.99995 6.54199Z" fill="#0D62AB" style="fill:#0D62AB;fill:color(display-p3 0.0510 0.3843 0.6706);fill-opacity:1;"/>
<path d="M6.67969 7.37439C6.64303 7.35939 6.59969 7.37772 6.58469 7.41439C6.56969 7.45106 6.58636 7.49439 6.62469 7.50939C6.66136 7.52439 6.70469 7.50772 6.71969 7.46939C6.73469 7.43272 6.71636 7.38939 6.67969 7.37439Z" fill="#0D62AB" style="fill:#0D62AB;fill:color(display-p3 0.0510 0.3843 0.6706);fill-opacity:1;"/>
<path d="M8.378 6.5918L8.10334 7.42446L8.04333 7.83913L8.2 7.44946L8.378 6.5918Z" fill="#0D62AB" style="fill:#0D62AB;fill:color(display-p3 0.0510 0.3843 0.6706);fill-opacity:1;"/>
<path d="M6.88764 7.05481C6.85431 7.02981 6.80931 7.03481 6.78431 7.06814C6.76097 7.09981 6.76597 7.14481 6.79764 7.16981C6.83097 7.19481 6.87597 7.18814 6.90097 7.15648C6.9243 7.12481 6.91931 7.07814 6.88764 7.05481Z" fill="#0D62AB" style="fill:#0D62AB;fill:color(display-p3 0.0510 0.3843 0.6706);fill-opacity:1;"/>
<path d="M8.72934 6.73633L8.24801 7.47066L8.08301 7.85533L8.33434 7.51899L8.72934 6.73633Z" fill="#0D62AB" style="fill:#0D62AB;fill:color(display-p3 0.0510 0.3843 0.6706);fill-opacity:1;"/>
<path d="M7.17063 6.7981C7.14563 6.76644 7.10063 6.75977 7.06896 6.78477C7.03563 6.80977 7.03063 6.85477 7.05396 6.88811C7.07896 6.91977 7.12563 6.92477 7.1573 6.90144C7.18896 6.87611 7.19563 6.82977 7.17063 6.7981Z" fill="#0D62AB" style="fill:#0D62AB;fill:color(display-p3 0.0510 0.3843 0.6706);fill-opacity:1;"/>
<path d="M9.03229 6.96777L8.37795 7.55211L8.11829 7.88177L8.44795 7.62211L9.03229 6.96777Z" fill="#0D62AB" style="fill:#0D62AB;fill:color(display-p3 0.0510 0.3843 0.6706);fill-opacity:1;"/>
<path d="M7.50866 6.62461C7.49366 6.58794 7.45032 6.56961 7.41366 6.58628C7.37699 6.60128 7.35866 6.64294 7.37366 6.68128C7.38866 6.71794 7.43199 6.73628 7.46866 6.71961C7.50699 6.70461 7.52366 6.66294 7.50866 6.62461Z" fill="#0D62AB" style="fill:#0D62AB;fill:color(display-p3 0.0510 0.3843 0.6706);fill-opacity:1;"/>
<path d="M9.26365 7.27051L8.48099 7.66517L8.14465 7.91651L8.52932 7.75151L9.26365 7.27051Z" fill="#0D62AB" style="fill:#0D62AB;fill:color(display-p3 0.0510 0.3843 0.6706);fill-opacity:1;"/>
<path d="M7.88166 6.54371C7.87666 6.50371 7.83999 6.47705 7.79999 6.48205C7.75999 6.48705 7.73166 6.52371 7.73666 6.56371C7.74166 6.60371 7.77832 6.63205 7.81832 6.62538C7.85832 6.62038 7.88666 6.58371 7.88166 6.54371Z" fill="#0D62AB" style="fill:#0D62AB;fill:color(display-p3 0.0510 0.3843 0.6706);fill-opacity:1;"/>
<path d="M9.40862 7.62207L8.55129 7.80007L8.16162 7.95674L8.57629 7.89674L9.40862 7.62207Z" fill="#0D62AB" style="fill:#0D62AB;fill:color(display-p3 0.0510 0.3843 0.6706);fill-opacity:1;"/>
<path d="M8.19967 6.48202C8.15967 6.47702 8.123 6.50535 8.118 6.54535C8.113 6.58535 8.14134 6.62202 8.18134 6.62702C8.22134 6.63202 8.258 6.60368 8.263 6.56368C8.268 6.52335 8.23967 6.48702 8.19967 6.48202Z" fill="#0D62AB" style="fill:#0D62AB;fill:color(display-p3 0.0510 0.3843 0.6706);fill-opacity:1;"/>
<path d="M9.45863 8.0002L8.58296 7.9502L8.16663 8.0002L8.58296 8.0502L9.45863 8.0002Z" fill="#0D62AB" style="fill:#0D62AB;fill:color(display-p3 0.0510 0.3843 0.6706);fill-opacity:1;"/>
<path d="M8.58597 6.5853C8.5493 6.56863 8.50597 6.58697 8.49097 6.62363C8.47597 6.66197 8.49264 6.70363 8.5293 6.71863C8.56764 6.7353 8.6093 6.71697 8.62597 6.6803C8.64097 6.64197 8.62264 6.6003 8.58597 6.5853Z" fill="#0D62AB" style="fill:#0D62AB;fill:color(display-p3 0.0510 0.3843 0.6706);fill-opacity:1;"/>
<path d="M9.40871 8.37861L8.57604 8.10395L8.16138 8.04395L8.55104 8.20061L9.40871 8.37861Z" fill="#0D62AB" style="fill:#0D62AB;fill:color(display-p3 0.0510 0.3843 0.6706);fill-opacity:1;"/>
<path d="M8.93234 6.78504C8.90067 6.7617 8.85567 6.7667 8.83067 6.79837C8.80567 6.8317 8.81234 6.8767 8.844 6.9017C8.87567 6.92504 8.92234 6.92004 8.94734 6.88837C8.97067 6.8547 8.96567 6.81004 8.93234 6.78504Z" fill="#0D62AB" style="fill:#0D62AB;fill:color(display-p3 0.0510 0.3843 0.6706);fill-opacity:1;"/>
<path d="M9.26365 8.72934L8.52932 8.24801L8.14465 8.08301L8.48099 8.33434L9.26365 8.72934Z" fill="#0D62AB" style="fill:#0D62AB;fill:color(display-p3 0.0510 0.3843 0.6706);fill-opacity:1;"/>
<path d="M9.21528 7.06764C9.19028 7.03597 9.14361 7.0293 9.11195 7.0543C9.08028 7.0793 9.07361 7.1243 9.09861 7.15597C9.12361 7.18764 9.16861 7.1943 9.20195 7.1693C9.23361 7.14597 9.23861 7.0993 9.21528 7.06764Z" fill="#0D62AB" style="fill:#0D62AB;fill:color(display-p3 0.0510 0.3843 0.6706);fill-opacity:1;"/>
<path d="M9.03229 9.03314L8.44795 8.37881L8.11829 8.11914L8.37795 8.44881L9.03229 9.03314Z" fill="#0D62AB" style="fill:#0D62AB;fill:color(display-p3 0.0510 0.3843 0.6706);fill-opacity:1;"/>
<path d="M9.41537 7.41439C9.39871 7.37772 9.35704 7.35939 9.32037 7.37439C9.28204 7.39106 9.26537 7.43272 9.28037 7.46939C9.29537 7.50772 9.33871 7.52439 9.37537 7.50939C9.41204 7.49439 9.43037 7.45106 9.41537 7.41439Z" fill="#0D62AB" style="fill:#0D62AB;fill:color(display-p3 0.0510 0.3843 0.6706);fill-opacity:1;"/>
<path d="M8.72937 9.26353L8.33471 8.48086L8.08337 8.14453L8.24837 8.5292L8.72937 9.26353Z" fill="#0D62AB" style="fill:#0D62AB;fill:color(display-p3 0.0510 0.3843 0.6706);fill-opacity:1;"/>
<path d="M9.51833 7.80023C9.51333 7.76023 9.47666 7.7319 9.43666 7.7369C9.39666 7.74357 9.36833 7.77857 9.375 7.81857C9.38 7.85857 9.41666 7.8869 9.45666 7.8819C9.497 7.87657 9.525 7.8399 9.51833 7.80023Z" fill="#0D62AB" style="fill:#0D62AB;fill:color(display-p3 0.0510 0.3843 0.6706);fill-opacity:1;"/>
<path d="M8.378 9.40911L8.2 8.55178L8.04333 8.16211L8.10334 8.57678L8.378 9.40911Z" fill="#0D62AB" style="fill:#0D62AB;fill:color(display-p3 0.0510 0.3843 0.6706);fill-opacity:1;"/>
<path d="M14.2387 10.334H1.76135C2.70835 12.8633 5.14035 14.6673 8.00002 14.6673C10.8597 14.6673 13.2917 12.8633 14.2387 10.334Z" fill="url(#paint1_linear_2503_3768)" style=""/>
<path d="M8.00002 1.33398C5.14035 1.33398 2.70835 3.13798 1.76135 5.66732H14.2384C13.2917 3.13798 10.8597 1.33398 8.00002 1.33398Z" fill="url(#paint2_linear_2503_3768)" style=""/>
<defs>
<linearGradient id="paint0_linear_2503_3768" x1="3.34771" y1="3.34799" x2="12.6507" y2="12.651" gradientUnits="userSpaceOnUse">
<stop stop-color="#DFE9F2" style="stop-color:#DFE9F2;stop-color:color(display-p3 0.8745 0.9137 0.9490);stop-opacity:1;"/>
<stop offset="0.998" stop-color="#9EA7B0" style="stop-color:#9EA7B0;stop-color:color(display-p3 0.6196 0.6549 0.6902);stop-opacity:1;"/>
</linearGradient>
<linearGradient id="paint1_linear_2503_3768" x1="1.98369" y1="4.74198" x2="11.343" y2="14.1013" gradientUnits="userSpaceOnUse">
<stop stop-color="#21AD64" style="stop-color:#21AD64;stop-color:color(display-p3 0.1294 0.6784 0.3922);stop-opacity:1;"/>
<stop offset="1" stop-color="#088242" style="stop-color:#088242;stop-color:color(display-p3 0.0314 0.5098 0.2588);stop-opacity:1;"/>
</linearGradient>
<linearGradient id="paint2_linear_2503_3768" x1="4.76569" y1="2.00865" x2="14.0864" y2="11.3293" gradientUnits="userSpaceOnUse">
<stop stop-color="#F09701" style="stop-color:#F09701;stop-color:color(display-p3 0.9412 0.5922 0.0039);stop-opacity:1;"/>
<stop offset="1" stop-color="#E36001" style="stop-color:#E36001;stop-color:color(display-p3 0.8902 0.3765 0.0039);stop-opacity:1;"/>
</linearGradient>
</defs>
</svg>
