<svg width="16" height="16" viewBox="0 0 16 16" fill="none" xmlns="http://www.w3.org/2000/svg">
<g clip-path="url(#clip0_2503_5299)">
<g clip-path="url(#clip1_2503_5299)">
<path d="M7.81139 1.14258C4.12846 1.14258 1.14282 4.12822 1.14282 7.81114C1.14282 11.4941 4.12846 14.4797 7.81139 14.4797C11.4943 14.4797 14.4799 11.4941 14.4799 7.81114C14.4799 4.12822 11.4943 1.14258 7.81139 1.14258Z" fill="#EA0F29" style="fill:#EA0F29;fill:color(display-p3 0.9176 0.0588 0.1608);fill-opacity:1;"/>
<path d="M11.9875 6.52497L8.8066 6.52206L7.80403 3.37012L6.81604 6.5306L3.63513 6.55957L6.20649 8.51554L5.25309 11.6819L7.82424 9.73755L10.4081 11.661L9.43074 8.50095L11.9875 6.52497Z" fill="#F2EB08" style="fill:#F2EB08;fill:color(display-p3 0.9490 0.9216 0.0314);fill-opacity:1;"/>
<path d="M10.5155 11.4227L10.5107 11.4189L10.5128 11.4254L10.5155 11.4227Z" fill="#FFFF00" style="fill:#FFFF00;fill:color(display-p3 1.0000 1.0000 0.0000);fill-opacity:1;"/>
</g>
</g>
<defs>
<clipPath id="clip0_2503_5299">
<rect width="13.3371" height="13.3371" fill="white" style="fill:white;fill-opacity:1;" transform="translate(1.33142 1.33105)"/>
</clipPath>
<clipPath id="clip1_2503_5299">
<rect width="13.3371" height="13.3371" fill="white" style="fill:white;fill-opacity:1;" transform="translate(1.14282 1.14258)"/>
</clipPath>
</defs>
</svg>
