<svg width="16" height="16" viewBox="0 0 16 16" fill="none" xmlns="http://www.w3.org/2000/svg">
<path d="M14.6667 7.99967C14.6667 11.6817 11.682 14.6663 8.00004 14.6663C4.31804 14.6663 1.33337 11.6817 1.33337 7.99967C1.33337 7.26101 1.45337 6.55034 1.67537 5.88601C2.10371 4.60367 4.82971 3.66634 4.82971 3.66634C4.82971 3.66634 4.84304 2.10201 5.33204 1.88834C6.14904 1.53101 7.05137 1.33301 8.00004 1.33301C11.682 1.33301 14.6667 4.31767 14.6667 7.99967Z" fill="url(#paint0_linear_2503_5226)" style=""/>
<path d="M5.3333 2.86434V1.89134C4.85596 2.10001 4.41096 2.36601 3.99996 2.67534V2.76967L3.9313 2.72701C2.8963 3.52667 2.10363 4.62134 1.6803 5.88801L3.99996 4.43967V5.99967H5.3333V4.34467L7.98296 5.99967H8.3333V5.13001L7.05696 4.33301H8.3333V2.99967H6.85963L8.3333 2.07901V1.34967C8.2223 1.34434 8.11263 1.33301 7.99996 1.33301C7.92163 1.33301 7.8453 1.34201 7.76763 1.34467L5.3333 2.86434ZM9.1133 8.76534L9.83596 8.12734L8.8763 8.03467L8.4923 7.15067L8.10796 8.03467L7.1483 8.12734L7.86963 8.76534L7.6613 9.70667L8.4923 9.21701L9.32296 9.70667L9.1133 8.76534ZM10.8763 10.7013L10.4923 9.81601L10.108 10.7013L9.1483 10.7927L9.86963 11.432L9.6613 12.372L10.4923 11.8837L11.323 12.372L11.1133 11.432L11.836 10.7927L10.8763 10.7013ZM9.6613 7.37334L10.4923 6.88367L11.323 7.37334L11.1133 6.43201L11.836 5.79401L10.8763 5.70134L10.491 4.81734L10.108 5.70134L9.1483 5.79401L9.86963 6.43201L9.6613 7.37334ZM13.5026 7.79401L12.543 7.70134L12.159 6.81734L11.7746 7.70134L10.815 7.79401L11.5376 8.43201L11.328 9.37334L12.159 8.88367L12.9896 9.37334L12.78 8.43334L13.5026 7.79401Z" fill="url(#paint1_linear_2503_5226)" style=""/>
<path d="M4.33336 3.99991V5.99991H5.00002V3.99991H8.33336V3.33325H5.00002V2.05225C4.77036 2.16825 4.54669 2.29391 4.33336 2.43491V3.33325H3.24302C3.03869 3.54158 2.85169 3.76625 2.67602 3.99991H4.33336ZM3.88036 4.33325H3.29936L1.97536 5.15958C1.89902 5.32091 1.82969 5.48525 1.76636 5.65325L3.88036 4.33325ZM8.07102 1.33691L5.40769 2.99991H5.98969L8.33336 1.53625V1.34991C8.24602 1.34558 8.15936 1.33791 8.07102 1.33691ZM8.33336 5.31125L6.76702 4.33325H6.18636L8.33336 5.67325V5.31125ZM8.49236 7.98691L8.64836 8.34891L9.04036 8.38525L8.74602 8.64691L8.83069 9.03125L8.49236 8.83058L8.15369 9.03125L8.23836 8.64691L7.94402 8.38525L8.33602 8.34891L8.49236 7.98691ZM10.4924 10.6536L10.6484 11.0156L11.0404 11.0519L10.746 11.3136L10.8307 11.6979L10.4924 11.4972L10.1537 11.6979L10.2384 11.3136L9.94402 11.0519L10.336 11.0156L10.4924 10.6536ZM10.4924 5.65358L10.6484 6.01558L11.0404 6.05191L10.746 6.31358L10.8307 6.69791L10.4924 6.49725L10.1537 6.69791L10.2384 6.31358L9.94402 6.05191L10.336 6.01558L10.4924 5.65358ZM12.159 7.65358L12.315 8.01558L12.707 8.05191L12.4127 8.31358L12.4974 8.69791L12.159 8.49725L11.8204 8.69791L11.905 8.31358L11.6107 8.05191L12.0027 8.01558L12.159 7.65358Z" fill="url(#paint2_linear_2503_5226)" style=""/>
<defs>
<linearGradient id="paint0_linear_2503_5226" x1="4.97171" y1="3.99667" x2="13.016" y2="14.63" gradientUnits="userSpaceOnUse">
<stop stop-color="#0D61A9" style="stop-color:#0D61A9;stop-color:color(display-p3 0.0510 0.3804 0.6627);stop-opacity:1;"/>
<stop offset="1" stop-color="#16528C" style="stop-color:#16528C;stop-color:color(display-p3 0.0863 0.3216 0.5490);stop-opacity:1;"/>
</linearGradient>
<linearGradient id="paint1_linear_2503_5226" x1="6.3923" y1="4.46967" x2="11.7273" y2="15.02" gradientUnits="userSpaceOnUse">
<stop stop-color="#DFE9F2" style="stop-color:#DFE9F2;stop-color:color(display-p3 0.8745 0.9137 0.9490);stop-opacity:1;"/>
<stop offset="0.998" stop-color="#9EA7B0" style="stop-color:#9EA7B0;stop-color:color(display-p3 0.6196 0.6549 0.6902);stop-opacity:1;"/>
</linearGradient>
<linearGradient id="paint2_linear_2503_5226" x1="5.26402" y1="3.77491" x2="12.0147" y2="12.3846" gradientUnits="userSpaceOnUse">
<stop offset="0.008" stop-color="#F44F5A" style="stop-color:#F44F5A;stop-color:color(display-p3 0.9569 0.3098 0.3529);stop-opacity:1;"/>
<stop offset="0.447" stop-color="#EE3D4A" style="stop-color:#EE3D4A;stop-color:color(display-p3 0.9333 0.2392 0.2902);stop-opacity:1;"/>
<stop offset="1" stop-color="#E52030" style="stop-color:#E52030;stop-color:color(display-p3 0.8980 0.1255 0.1882);stop-opacity:1;"/>
</linearGradient>
</defs>
</svg>
