<svg width="94" height="16" viewBox="0 0 94 16" fill="none" xmlns="http://www.w3.org/2000/svg">
<g clip-path="url(#clip0_2236_55403)">
<path d="M34.2631 15.4136H19.8101C19.5652 15.4154 19.3242 15.3523 19.1116 15.2306C18.899 15.109 18.7225 14.9332 18.6 14.7211C18.4775 14.5091 18.4133 14.2683 18.4141 14.0234C18.4149 13.7785 18.4805 13.5381 18.6044 13.3268L25.4369 1.49319C25.5989 1.21281 25.8318 0.979991 26.1122 0.818125C26.3927 0.656258 26.7108 0.571045 27.0346 0.571045C27.3585 0.571045 27.6766 0.656258 27.957 0.818125C28.2375 0.979991 28.4704 1.21281 28.6324 1.49319L35.4649 13.3268C35.5888 13.5381 35.6545 13.7785 35.6552 14.0234C35.656 14.2683 35.5918 14.5091 35.4693 14.7211C35.3468 14.9332 35.1702 15.109 34.9576 15.2306C34.7451 15.3523 34.5041 15.4154 34.2592 15.4136H34.2631ZM22.2236 12.6319H31.8537L27.0386 4.29074L22.2236 12.6319Z" fill="url(#paint0_linear_2236_55403)" style=""/>
<path d="M92.1491 15.4136H77.6959C77.4514 15.415 77.2105 15.3517 76.9982 15.2299C76.7859 15.1081 76.6094 14.9322 76.4875 14.7203C76.3649 14.5082 76.3011 14.2676 76.3018 14.0229C76.303 13.7781 76.3686 13.538 76.4924 13.3268L83.3226 1.49319C83.4847 1.21281 83.7175 0.979991 83.9979 0.818125C84.2784 0.656258 84.5966 0.571045 84.9203 0.571045C85.2441 0.571045 85.5623 0.656258 85.8428 0.818125C86.1232 0.979991 86.356 1.21281 86.5182 1.49319L93.3507 13.3268C93.4746 13.5381 93.5402 13.7785 93.5408 14.0234C93.542 14.2683 93.4776 14.5091 93.3551 14.7211C93.2325 14.9332 93.0561 15.109 92.8437 15.2306C92.6308 15.3523 92.39 15.4154 92.1448 15.4136H92.1491ZM80.1115 12.6319H89.7416L84.9247 4.29074L80.1115 12.6319Z" fill="white" style="fill:white;fill-opacity:1;"/>
<path d="M53.5813 0.860352H51.8251C51.4431 0.860352 51.253 1.05834 51.253 1.45431V10.8745L42.8168 1.08012C42.7606 1.01199 42.6903 0.957005 42.6105 0.919035C42.5308 0.881065 42.4437 0.861033 42.3555 0.860352H40.1776C39.7975 0.860352 39.6055 1.05834 39.6055 1.45431V14.8283C39.6055 15.2242 39.8034 15.4223 40.1776 15.4223H41.9338C42.3159 15.4223 42.506 15.2242 42.506 14.8283V5.20021L51.1718 15.2302C51.2205 15.2942 51.2839 15.3456 51.3566 15.3801C51.4293 15.4145 51.5092 15.431 51.5896 15.4282H53.5694C53.9516 15.4282 54.1436 15.2302 54.1436 14.8342V1.45431C54.1495 1.05834 53.9575 0.860352 53.5813 0.860352Z" fill="white" style="fill:white;fill-opacity:1;"/>
<path d="M73.0134 14.4778L67.4399 7.80164L72.3182 1.83039C72.4024 1.71564 72.4475 1.5768 72.4469 1.43442C72.4581 1.35673 72.4506 1.27759 72.4259 1.20322C72.4005 1.12884 72.359 1.06126 72.3033 1.0058C72.2482 0.950336 72.1801 0.908503 72.1058 0.88359C72.0315 0.858679 71.9523 0.851369 71.8749 0.862236H69.4593C69.3708 0.859831 69.2823 0.87849 69.2024 0.916689C69.1219 0.954888 69.052 1.01154 68.9981 1.082L65.5729 5.45156L62.1458 1.09586C62.0919 1.01842 62.0194 0.955731 61.935 0.913534C61.8506 0.871336 61.757 0.850976 61.6627 0.854317H59.2433C59.1657 0.843367 59.0866 0.850636 59.0123 0.87555C58.938 0.900464 58.8704 0.942337 58.8152 0.997855C58.7598 1.05337 58.7182 1.12101 58.6935 1.19541C58.6689 1.26981 58.6619 1.34893 58.6731 1.4265C58.6718 1.56897 58.717 1.70798 58.8018 1.82247L63.6779 7.80362L58.1247 14.456C58.0255 14.5639 57.971 14.7054 57.9722 14.852C57.9722 15.2321 58.1702 15.4222 58.5662 15.4222H61.1043C61.1982 15.4229 61.291 15.4014 61.3749 15.3595C61.4589 15.3175 61.5317 15.2562 61.5875 15.1806L65.5629 10.1953L69.5584 15.2262C69.616 15.2908 69.6871 15.3421 69.767 15.3763C69.8469 15.4105 69.9329 15.4268 70.0196 15.4242H72.5676C72.645 15.435 72.7243 15.4277 72.7979 15.403C72.8722 15.3782 72.9397 15.3364 72.9948 15.2812C73.0505 15.2259 73.092 15.1585 73.1167 15.0844C73.1415 15.0103 73.1489 14.9314 73.1378 14.8539C73.1446 14.7174 73.1 14.5833 73.0134 14.4778Z" fill="white" style="fill:white;fill-opacity:1;"/>
<path d="M13.5206 7.77746C14.1094 7.03433 14.4266 6.1122 14.4194 5.16405C14.4273 4.59583 14.3172 4.03216 14.096 3.50869C13.8749 2.98523 13.5474 2.51338 13.1345 2.12298C12.7322 1.71509 12.2515 1.3929 11.7214 1.1758C11.1912 0.958713 10.6226 0.851227 10.0499 0.859827H1.41961C1.33891 0.848231 1.25662 0.855599 1.17927 0.881347C1.10192 0.907096 1.03163 0.950516 0.973983 1.00816C0.916337 1.06581 0.872916 1.1361 0.847168 1.21345C0.821419 1.2908 0.814051 1.37309 0.825647 1.45379V14.8278C0.825647 15.2237 1.02363 15.4217 1.41961 15.4217H10.7963C11.3701 15.4332 11.9404 15.3282 12.4726 15.1131C13.0048 14.898 13.4879 14.5774 13.8927 14.1705C14.3043 13.781 14.6305 13.3103 14.8507 12.7881C15.0708 12.266 15.1801 11.7039 15.1717 11.1373C15.1875 10.4857 15.0455 9.83992 14.758 9.25497C14.4705 8.67002 14.046 8.16313 13.5206 7.77746ZM3.72417 4.04741C3.71331 3.96947 3.72068 3.89007 3.74569 3.81546C3.77071 3.74085 3.81269 3.67306 3.86833 3.61741C3.92398 3.56177 3.99177 3.51979 4.06639 3.49478C4.14099 3.46976 4.22039 3.46239 4.29833 3.47324H10.0023C10.1984 3.47349 10.3919 3.51732 10.5689 3.60155C10.746 3.68578 10.9021 3.80832 11.0259 3.96029C11.3035 4.2939 11.4556 4.7142 11.4556 5.14821C11.4556 5.58222 11.3035 6.00252 11.0259 6.33613C10.9037 6.49067 10.7482 6.61562 10.5709 6.70167C10.3937 6.7877 10.1994 6.83264 10.0023 6.83308H4.29833C4.22031 6.84434 4.14073 6.83729 4.06593 6.8124C3.99112 6.78758 3.92315 6.74558 3.86741 6.68984C3.81166 6.6341 3.76969 6.56612 3.74483 6.49132C3.71996 6.41651 3.71289 6.33693 3.72417 6.25891V4.04741ZM11.7723 12.3133C11.6495 12.4669 11.4938 12.591 11.3166 12.6763C11.1395 12.7617 10.9454 12.8061 10.7487 12.8063H4.29833C3.91621 12.8063 3.72417 12.6084 3.72417 12.2124V10.0345C3.72417 9.63854 3.92216 9.44057 4.29833 9.44057H10.7487C10.9455 9.44131 11.1396 9.48619 11.3167 9.57187C11.4938 9.65749 11.6495 9.78179 11.7723 9.93551C12.0579 10.2645 12.2111 10.6879 12.202 11.1234C12.2145 11.5602 12.0609 11.9853 11.7723 12.3133Z" fill="white" style="fill:white;fill-opacity:1;"/>
</g>
<defs>
<linearGradient id="paint0_linear_2236_55403" x1="21.1881" y1="17.3618" x2="32.8911" y2="5.65884" gradientUnits="userSpaceOnUse">
<stop stop-color="#0073D1" style="stop-color:#0073D1;stop-color:color(display-p3 0.0000 0.4510 0.8196);stop-opacity:1;"/>
<stop offset="0.06" stop-color="#0082CE" style="stop-color:#0082CE;stop-color:color(display-p3 0.0000 0.5098 0.8078);stop-opacity:1;"/>
<stop offset="0.22" stop-color="#00A0C9" style="stop-color:#00A0C9;stop-color:color(display-p3 0.0000 0.6275 0.7882);stop-opacity:1;"/>
<stop offset="0.39" stop-color="#00B8C4" style="stop-color:#00B8C4;stop-color:color(display-p3 0.0000 0.7216 0.7686);stop-opacity:1;"/>
<stop offset="0.57" stop-color="#00C9C1" style="stop-color:#00C9C1;stop-color:color(display-p3 0.0000 0.7882 0.7569);stop-opacity:1;"/>
<stop offset="0.76" stop-color="#00D3C0" style="stop-color:#00D3C0;stop-color:color(display-p3 0.0000 0.8275 0.7529);stop-opacity:1;"/>
<stop offset="1" stop-color="#00D6BF" style="stop-color:#00D6BF;stop-color:color(display-p3 0.0000 0.8392 0.7490);stop-opacity:1;"/>
</linearGradient>
<clipPath id="clip0_2236_55403">
<rect width="92.8594" height="14.8575" fill="white" style="fill:white;fill-opacity:1;" transform="translate(0.820312 0.571289)"/>
</clipPath>
</defs>
</svg>
