<svg width="91" height="20" viewBox="0 0 91 20" fill="none" xmlns="http://www.w3.org/2000/svg">
<g clip-path="url(#clip0_2236_55397)">
<path d="M83.1805 15.0731L79.9311 7.61559H82.1098L84.3259 12.9566L86.8905 7.61559H89.0319L83.9773 17.8867H81.811L83.1805 15.0731ZM75.2873 13.5293C75.474 13.4795 75.6608 13.4172 75.8351 13.3176C75.9969 13.2305 76.1588 13.1184 76.2957 12.9939C76.4327 12.8694 76.5572 12.72 76.6568 12.5582C76.7564 12.3839 76.8435 12.1971 76.8933 12.0104C76.9556 11.7987 76.9805 11.5871 76.9805 11.363C76.9805 11.1389 76.9556 10.9273 76.8933 10.7156C76.8435 10.5289 76.7564 10.3421 76.6568 10.1678C76.5572 10.006 76.4327 9.85656 76.2957 9.73207C76.1588 9.60757 75.9969 9.49552 75.8351 9.40837C75.6608 9.32122 75.474 9.25897 75.2873 9.20917C75.0881 9.15937 74.8764 9.13447 74.6772 9.14692C74.478 9.14692 74.2664 9.17182 74.0672 9.20917C73.8805 9.24652 73.6937 9.32122 73.5194 9.40837C73.3451 9.49552 73.1957 9.60757 73.0588 9.73207C72.9218 9.85656 72.7973 10.006 72.6977 10.1678C72.5981 10.3421 72.511 10.5289 72.4612 10.7156C72.3989 10.9273 72.374 11.1513 72.374 11.363C72.374 11.5746 72.3989 11.7987 72.4612 12.0104C72.511 12.1971 72.5981 12.3839 72.6977 12.5582C72.7973 12.72 72.9218 12.8694 73.0588 12.9939C73.1957 13.1184 73.3576 13.2305 73.5194 13.3176C73.6937 13.4048 73.868 13.4795 74.0672 13.5293C74.2664 13.5791 74.4656 13.604 74.6772 13.5915C74.8764 13.604 75.0756 13.5791 75.2873 13.5293ZM73.0837 15.1976C72.7475 15.1104 72.4238 14.9859 72.125 14.8116C71.5399 14.4879 71.0543 14.0024 70.7306 13.4172C70.5563 13.1184 70.4318 12.7947 70.3447 12.4586C70.1704 11.7365 70.1704 10.9895 70.3447 10.2674C70.4318 9.93126 70.5563 9.60757 70.7306 9.30877C71.0543 8.72363 71.5399 8.25053 72.125 7.91439C72.4238 7.75254 72.7475 7.61559 73.0837 7.52844C73.4447 7.44129 73.8058 7.39149 74.1792 7.39149C74.3784 7.39149 74.5776 7.40394 74.7768 7.42884C74.9636 7.45374 75.1379 7.49109 75.3122 7.54089C75.474 7.59069 75.6359 7.64049 75.7853 7.71519C75.9347 7.77744 76.0716 7.85214 76.2086 7.93929C76.3331 8.01399 76.4576 8.11358 76.5572 8.21318C76.6568 8.31278 76.7564 8.41238 76.8311 8.52443V7.62804H78.8977V15.1229H76.8311V14.2265C76.5572 14.5751 76.1961 14.849 75.7853 15.0357C75.5487 15.1478 75.2997 15.2225 75.0383 15.2598C74.7519 15.3096 74.4532 15.347 74.1668 15.3345C73.8058 15.3345 73.4447 15.2972 73.0837 15.1976ZM65.5889 9.52042C65.8876 9.52042 66.1864 9.49552 66.4728 9.42082C66.6969 9.35857 66.9085 9.25897 67.0828 9.10957C67.2447 8.97262 67.3692 8.79833 67.4439 8.59913C67.5186 8.37503 67.5684 8.13848 67.5559 7.90194C67.5559 7.66539 67.5186 7.42884 67.4439 7.20475C67.3692 7.00555 67.2447 6.8437 67.0828 6.70675C66.9085 6.5698 66.6969 6.45775 66.4728 6.40795C66.1864 6.33326 65.8876 6.29591 65.5889 6.30836H63.5595V9.52042H65.5889ZM61.4181 4.54048H65.8005C66.4105 4.52803 67.0081 4.61518 67.5808 4.78947C68.0415 4.92642 68.4648 5.17542 68.8258 5.48667C69.1495 5.78546 69.3985 6.14651 69.5604 6.55735C69.7222 6.9931 69.8093 7.45374 69.7969 7.91439C69.7969 8.37503 69.7222 8.83568 69.5604 9.25897C69.3985 9.66982 69.1495 10.0309 68.8258 10.3297C68.4648 10.6534 68.0415 10.8899 67.5808 11.0269C67.0081 11.2011 66.3981 11.2883 65.8005 11.2758H63.572V15.1229H61.4306L61.4181 4.54048ZM52.2426 7.61559H54.2968V8.51198C54.4213 8.33768 54.5707 8.17583 54.745 8.05134C54.9193 7.91439 55.1185 7.78989 55.3302 7.70274C55.5543 7.60314 55.8033 7.52844 56.0523 7.47864C56.3262 7.42884 56.6001 7.40394 56.8864 7.40394C57.3221 7.39149 57.7579 7.46619 58.1563 7.61559C58.5173 7.75254 58.8535 7.96419 59.1274 8.23808C59.4013 8.52443 59.6005 8.87303 59.725 9.24652C59.8744 9.68227 59.9366 10.1305 59.9366 10.5911V15.1229H57.8824V11.1264C57.8824 10.8401 57.845 10.5413 57.7579 10.2674C57.6832 10.0433 57.5711 9.83166 57.4093 9.64492C57.2599 9.48307 57.0607 9.34612 56.8491 9.27142C56.3635 9.10957 55.8282 9.10957 55.3302 9.27142C55.1185 9.34612 54.9193 9.48307 54.7699 9.64492C54.6081 9.83166 54.496 10.0433 54.4213 10.2674C54.3342 10.5413 54.2968 10.8401 54.2968 11.1264V15.1229H52.2551L52.2426 7.61559ZM47.188 13.5044C47.3872 13.4546 47.5739 13.3923 47.7482 13.2927C47.9225 13.2056 48.0719 13.0935 48.2089 12.9566C48.3458 12.8196 48.4579 12.6702 48.5575 12.5084C48.657 12.3341 48.7318 12.1598 48.7691 11.973C48.8687 11.5622 48.8687 11.1389 48.7691 10.7281C48.682 10.3546 48.4828 10.006 48.2089 9.74452C48.0719 9.60757 47.9101 9.49552 47.7482 9.40837C47.5739 9.30877 47.3747 9.24652 47.188 9.19672C46.9763 9.14692 46.7522 9.12202 46.5406 9.12202C46.3289 9.12202 46.1048 9.14692 45.8932 9.19672C45.694 9.24652 45.5072 9.30877 45.3329 9.40837C45.1586 9.49552 45.0092 9.60757 44.8723 9.74452C44.7353 9.88146 44.6233 10.0309 44.5237 10.1927C44.2249 10.7405 44.1502 11.3754 44.312 11.9855C44.3618 12.1722 44.4366 12.359 44.5237 12.5208C44.6108 12.6827 44.7353 12.8321 44.8723 12.969C45.0092 13.106 45.1586 13.218 45.3329 13.3052C45.5072 13.3923 45.694 13.467 45.8932 13.5168C46.1048 13.5666 46.3165 13.5915 46.5406 13.5915C46.7647 13.5915 46.9763 13.5666 47.188 13.5044ZM45.3329 15.1976C44.9594 15.1104 44.5984 14.9859 44.2623 14.8116C43.9386 14.6498 43.6522 14.4506 43.3783 14.214C43.1169 13.9775 42.8928 13.716 42.7185 13.4172C42.5317 13.1184 42.3948 12.7947 42.2952 12.4586C42.096 11.7365 42.096 10.9771 42.2952 10.2674C42.3948 9.93126 42.5317 9.60757 42.7185 9.30877C43.092 8.71118 43.6273 8.22563 44.2623 7.91439C44.5984 7.74009 44.9594 7.61559 45.3329 7.52844C46.1297 7.34169 46.9639 7.34169 47.7607 7.52844C48.1342 7.61559 48.4828 7.74009 48.8189 7.91439C49.1426 8.07624 49.4289 8.27543 49.7028 8.52443C49.9643 8.76098 50.1884 9.02242 50.3751 9.32122C50.5619 9.62002 50.7113 9.94371 50.7984 10.2799C50.9976 11.002 50.9976 11.7614 50.7984 12.471C50.6117 13.1558 50.2257 13.7658 49.7028 14.2265C49.4414 14.463 49.1426 14.6622 48.8189 14.8241C48.4828 14.9984 48.1217 15.1229 47.7607 15.21C46.9639 15.3843 46.1297 15.3843 45.3329 15.1976ZM37.3401 13.5044C37.5393 13.4546 37.7261 13.3923 37.9004 13.2927C38.0747 13.2056 38.2241 13.0935 38.361 12.9566C38.498 12.8196 38.61 12.6702 38.7096 12.5084C38.8092 12.3341 38.8839 12.1598 38.9213 11.973C39.0209 11.5622 39.0209 11.1389 38.9213 10.7281C38.8341 10.3546 38.6349 10.006 38.361 9.74452C38.2241 9.60757 38.0622 9.49552 37.9004 9.40837C37.7261 9.30877 37.5269 9.24652 37.3401 9.19672C37.1285 9.14692 36.9044 9.12202 36.6927 9.12202C36.4811 9.12202 36.257 9.14692 36.0453 9.19672C35.8461 9.24652 35.6594 9.30877 35.4851 9.40837C35.3233 9.49552 35.1614 9.60757 35.0245 9.74452C34.8875 9.86901 34.7755 10.0309 34.6759 10.1927C34.5887 10.367 34.514 10.5413 34.4642 10.7281C34.4144 10.9273 34.3771 11.1389 34.3895 11.3505C34.3895 11.5622 34.4144 11.7738 34.4642 11.973C34.514 12.1598 34.5887 12.3465 34.6759 12.5084C34.763 12.6702 34.8875 12.8196 35.0245 12.9566C35.1614 13.0935 35.3108 13.2056 35.4851 13.2927C35.6594 13.3799 35.8461 13.4546 36.0453 13.5044C36.257 13.5542 36.4686 13.5791 36.6927 13.5791C36.9044 13.5791 37.1285 13.5542 37.3401 13.5044ZM35.4727 15.1976C35.0992 15.1104 34.7381 14.9859 34.402 14.8116C34.0783 14.6498 33.7919 14.4506 33.518 14.214C33.2566 13.9775 33.0325 13.716 32.8582 13.4172C32.6714 13.1184 32.5345 12.7947 32.4349 12.4586C32.2357 11.7365 32.2357 10.9771 32.4349 10.2674C32.5345 9.93126 32.6714 9.60757 32.8582 9.30877C33.0449 9.00997 33.269 8.74853 33.518 8.51198C33.7795 8.27543 34.0783 8.06379 34.402 7.90194C34.7381 7.72764 35.0992 7.60314 35.4727 7.51599C36.2694 7.34169 37.1036 7.34169 37.9004 7.51599C38.2739 7.60314 38.6225 7.72764 38.9586 7.90194C39.2823 8.06379 39.5687 8.26298 39.8426 8.51198C40.104 8.74853 40.3281 9.00997 40.5148 9.30877C40.7016 9.60757 40.851 9.93126 40.9381 10.2674C41.1373 10.9895 41.1373 11.7489 40.9381 12.4586C40.7514 13.1433 40.3654 13.7534 39.8426 14.214C39.5811 14.4506 39.2823 14.6498 38.9586 14.8116C38.6225 14.9859 38.2614 15.1104 37.9004 15.1976C37.116 15.3843 36.2819 15.3843 35.4727 15.1976ZM19.2878 4.54048H21.4541L25.1393 10.1803L28.8493 4.54048H31.0032V15.1229H28.8618V7.86459L25.7991 12.5457H24.4919L21.4292 7.86459V15.1229H19.2878V4.54048Z" fill="white" style="fill:white;fill-opacity:1;"/>
<path d="M14.3576 6.43289C15.5528 6.43289 16.5115 5.46181 16.5115 4.27907C16.5115 3.08388 15.5404 2.12524 14.3576 2.12524C13.1624 2.12524 12.2038 3.09633 12.2038 4.27907C12.2038 5.46181 13.1624 6.43289 14.3576 6.43289ZM7.73431 16.1562C4.82104 16.1562 2.46802 13.8032 2.46802 10.8899C2.46802 7.97668 4.82104 5.62365 7.73431 5.62365C10.6476 5.62365 13.0006 7.97668 13.0006 10.8899C13.0006 13.8032 10.6476 16.1562 7.73431 16.1562Z" fill="#7D00FF" style="fill:#7D00FF;fill:color(display-p3 0.4902 0.0000 1.0000);fill-opacity:1;"/>
</g>
<defs>
<clipPath id="clip0_2236_55397">
<rect width="90" height="19.8077" fill="white" style="fill:white;fill-opacity:1;" transform="translate(0.75 0.0961914)"/>
</clipPath>
</defs>
</svg>
