<svg width="21" height="21" viewBox="0 0 21 21" fill="none" xmlns="http://www.w3.org/2000/svg">
<path d="M20.2007 13.194C18.8649 18.5511 13.4384 21.8114 8.08 20.4755C2.72385 19.1399 -0.536783 13.7136 0.799517 8.35688C2.13464 2.99909 7.56119 -0.261436 12.9179 1.07414C18.2759 2.40971 21.5365 7.83651 20.2007 13.194Z" fill="#F3BA2F" style="fill:#F3BA2F;fill:color(display-p3 0.9529 0.7294 0.1843);fill-opacity:1;"/>
<path fill-rule="evenodd" clip-rule="evenodd" d="M10.5011 7.12157L7.91135 9.71101L6.40463 8.20424L10.5011 4.10824L14.5988 8.20546L13.092 9.71213L10.5011 7.12157ZM5.34057 9.26797L3.83369 10.7749L5.34046 12.2813L6.84734 10.7746L5.34057 9.26797ZM7.91135 11.839L10.5011 14.4282L13.0919 11.8377L14.5996 13.3436L14.5988 13.3444L10.5011 17.4416L6.40249 13.3434L7.91135 11.839ZM15.6617 9.26882L14.1548 10.7755L15.6616 12.2822L17.1684 10.7754L15.6617 9.26882Z" fill="white" style="fill:white;fill-opacity:1;"/>
<path d="M12.0293 10.7741L10.5011 9.24525L8.97338 10.7726L8.97124 10.7746L8.97338 10.7768L10.5011 12.3046L12.0301 10.7757L12.0308 10.7748L12.0293 10.7741Z" fill="white" style="fill:white;fill-opacity:1;"/>
</svg>
