<svg width="21" height="21" viewBox="0 0 21 21" fill="none" xmlns="http://www.w3.org/2000/svg">
<path fill-rule="evenodd" clip-rule="evenodd" d="M10.5 20.7749C16.0228 20.7749 20.5 16.2978 20.5 10.7749C20.5 5.25206 16.0228 0.774902 10.5 0.774902C4.97715 0.774902 0.5 5.25206 0.5 10.7749C0.5 16.2978 4.97715 20.7749 10.5 20.7749Z" fill="#F7931A" style="fill:#F7931A;fill:color(display-p3 0.9686 0.5765 0.1020);fill-opacity:1;"/>
<path fill-rule="evenodd" clip-rule="evenodd" d="M13.8325 12.502C13.6471 12.057 13.233 11.6827 13.233 11.6827C13.233 11.6827 13.7688 11.6784 14.0679 11.5377C14.3673 11.3971 14.6593 11.0801 14.7821 10.899C14.9049 10.7178 15.3945 9.94335 15.0489 9.13542C14.7817 8.51036 14.3228 8.05852 13.6242 7.59439L14.5479 5.9944L13.5754 5.43293L12.6626 7.01402C12.4456 6.88874 12.192 6.74234 11.9219 6.58635L12.8347 5.00527L11.8623 4.44385L10.9495 6.02494C9.95675 5.45179 9.03629 4.92037 9.03629 4.92037L8.44483 5.94481C8.44483 5.94481 8.85381 6.18093 9.00716 6.26947C9.16047 6.35799 9.42316 6.5327 9.46307 6.73114C9.50316 6.92936 9.48366 7.01038 9.33603 7.26609C9.18834 7.52189 7.0352 11.2513 6.9793 11.3482C6.92342 11.4449 6.83608 11.5542 6.70894 11.5854C6.58194 11.6166 6.4896 11.5877 6.29411 11.4749C6.09867 11.362 5.71251 11.1391 5.71251 11.1391L4.82849 12.2085C4.82849 12.2085 5.77926 12.7574 6.74166 13.3131L5.8314 14.8897L6.80385 15.4511L7.71411 13.8745C8.01292 14.047 8.27308 14.1972 8.45485 14.3022L7.54459 15.8788L8.51708 16.4403L9.44236 14.8376C9.70235 14.9679 9.9479 15.0839 10.0951 15.1447C10.3936 15.2679 11.0633 15.5562 11.8891 15.4798C12.7149 15.4033 13.2218 14.8293 13.6134 14.1826C14.0051 13.5361 14.0176 12.947 13.8325 12.502ZM11.2756 7.70229C11.2756 7.70229 11.6006 7.85307 11.9024 8.03338C12.2044 8.21379 12.467 8.37778 12.7952 8.73322C13.1231 9.0886 13.1836 9.52919 12.9852 9.89413C12.7867 10.2589 12.4937 10.4093 12.1333 10.4041C11.7728 10.3988 11.3479 10.2641 10.9854 10.0731C10.623 9.88233 10.1765 9.60604 10.1765 9.60604L11.2756 7.70229ZM10.7338 13.6751C10.4392 13.6711 9.92998 13.5245 9.47978 13.3075C9.02937 13.0906 8.39207 12.7042 8.39207 12.7042L9.61373 10.5882C9.61373 10.5882 10.2504 10.9129 10.7135 11.2232C11.1765 11.5337 11.5091 11.8915 11.6375 12.0888C11.7661 12.2858 11.9672 12.6723 11.6877 13.1564C11.4083 13.6404 11.0282 13.6791 10.7338 13.6751Z" fill="white" style="fill:white;fill-opacity:1;"/>
</svg>
