<svg width="16" height="16" viewBox="0 0 16 16" fill="none" xmlns="http://www.w3.org/2000/svg">
<g clip-path="url(#clip0_2503_11319)">
<path d="M206.769 -154.667H-61.5385V71.9997H206.769V-154.667Z" fill="#D8D8D8" style="fill:#D8D8D8;fill:color(display-p3 0.8471 0.8471 0.8471);fill-opacity:1;"/>
<path d="M16 0H0V16H16V0Z" fill="#2A66B7" style="fill:#2A66B7;fill:color(display-p3 0.1647 0.4000 0.7176);fill-opacity:1;"/>
<path d="M8.00003 1.4668L8.34464 2.25346L9.10772 2.3868L8.55387 3.00013L8.68926 3.8668L8.00003 3.45346L7.3108 3.8668L7.44618 3.00013L6.89233 2.3868L7.65541 2.25346L8.00003 1.4668Z" fill="#FCBE1F" style="fill:#FCBE1F;fill:color(display-p3 0.9882 0.7451 0.1216);fill-opacity:1;"/>
<path d="M8.00003 12.1338L8.34464 12.9205L9.10772 13.0538L8.55387 13.6671L8.68926 14.5338L8.00003 14.1205L7.3108 14.5338L7.44618 13.6671L6.89233 13.0538L7.65541 12.9205L8.00003 12.1338Z" fill="#FCBE1F" style="fill:#FCBE1F;fill:color(display-p3 0.9882 0.7451 0.1216);fill-opacity:1;"/>
<path d="M12.9231 6.7998L13.2677 7.58647L14.0308 7.7198L13.477 8.33314L13.6124 9.1998L12.9231 8.78647L12.2339 9.1998L12.3693 8.33314L11.8154 7.7198L12.5785 7.58647L12.9231 6.7998Z" fill="#FCBE1F" style="fill:#FCBE1F;fill:color(display-p3 0.9882 0.7451 0.1216);fill-opacity:1;"/>
<path d="M3.07693 6.7998L3.42155 7.58647L4.18462 7.7198L3.63078 8.33314L3.76616 9.1998L3.07693 8.78647L2.3877 9.1998L2.52308 8.33314L1.96924 7.7198L2.73232 7.58647L3.07693 6.7998Z" fill="#FCBE1F" style="fill:#FCBE1F;fill:color(display-p3 0.9882 0.7451 0.1216);fill-opacity:1;"/>
<path d="M4.36929 3.06641L4.7139 3.85307L5.47698 3.98641L4.92314 4.59974L5.05852 5.46641L4.36929 5.05307L3.68006 5.46641L3.81544 4.59974L3.2616 3.98641L4.02467 3.85307L4.36929 3.06641Z" fill="#FCBE1F" style="fill:#FCBE1F;fill:color(display-p3 0.9882 0.7451 0.1216);fill-opacity:1;"/>
<path d="M11.6308 3.06641L11.9754 3.85307L12.7385 3.98641L12.1846 4.59974L12.32 5.46641L11.6308 5.05307L10.9415 5.46641L11.0769 4.59974L10.5231 3.98641L11.2861 3.85307L11.6308 3.06641Z" fill="#FCBE1F" style="fill:#FCBE1F;fill:color(display-p3 0.9882 0.7451 0.1216);fill-opacity:1;"/>
<path d="M4.36929 10.333L4.7139 11.1197L5.47698 11.253L4.92314 11.8663L5.05852 12.733L4.36929 12.3197L3.68006 12.733L3.81544 11.8663L3.2616 11.253L4.02467 11.1197L4.36929 10.333Z" fill="#FCBE1F" style="fill:#FCBE1F;fill:color(display-p3 0.9882 0.7451 0.1216);fill-opacity:1;"/>
<path d="M11.6308 10.333L11.9754 11.1197L12.7385 11.253L12.1846 11.8663L12.32 12.733L11.6308 12.3197L10.9415 12.733L11.0769 11.8663L10.5231 11.253L11.2861 11.1197L11.6308 10.333Z" fill="#FCBE1F" style="fill:#FCBE1F;fill:color(display-p3 0.9882 0.7451 0.1216);fill-opacity:1;"/>
</g>
<defs>
<clipPath id="clip0_2503_11319">
<rect width="16" height="16" rx="8" fill="white" style="fill:white;fill-opacity:1;"/>
</clipPath>
</defs>
</svg>
