<svg width="16" height="16" viewBox="0 0 16 16" fill="none" xmlns="http://www.w3.org/2000/svg">
<path d="M14.6667 7.99967C14.6667 4.31801 11.6817 1.33301 8.00004 1.33301C4.31837 1.33301 1.33337 4.31801 1.33337 7.99967C1.33337 11.6813 4.31837 14.6663 8.00004 14.6663C11.6817 14.6663 14.6667 11.6813 14.6667 7.99967Z" fill="url(#paint0_linear_2503_7037)" style=""/>
<path d="M11.3333 8.00033C11.3333 9.84066 9.84029 11.3337 7.99996 11.3337C6.15963 11.3337 4.66663 9.84066 4.66663 8.00033C4.66663 6.15999 6.15963 4.66699 7.99996 4.66699C9.84029 4.66699 11.3333 6.15999 11.3333 8.00033Z" fill="url(#paint1_linear_2503_7037)" style=""/>
<defs>
<linearGradient id="paint0_linear_2503_7037" x1="4.43404" y1="4.43367" x2="17.7927" y2="17.7923" gradientUnits="userSpaceOnUse">
<stop stop-color="#DFE9F2" style="stop-color:#DFE9F2;stop-color:color(display-p3 0.8745 0.9137 0.9490);stop-opacity:1;"/>
<stop offset="0.998" stop-color="#9EA7B0" style="stop-color:#9EA7B0;stop-color:color(display-p3 0.6196 0.6549 0.6902);stop-opacity:1;"/>
</linearGradient>
<linearGradient id="paint1_linear_2503_7037" x1="7.32329" y1="6.65966" x2="10.3273" y2="12.6123" gradientUnits="userSpaceOnUse">
<stop offset="0.008" stop-color="#F44F5A" style="stop-color:#F44F5A;stop-color:color(display-p3 0.9569 0.3098 0.3529);stop-opacity:1;"/>
<stop offset="0.447" stop-color="#EE3D4A" style="stop-color:#EE3D4A;stop-color:color(display-p3 0.9333 0.2392 0.2902);stop-opacity:1;"/>
<stop offset="1" stop-color="#E52030" style="stop-color:#E52030;stop-color:color(display-p3 0.8980 0.1255 0.1882);stop-opacity:1;"/>
</linearGradient>
</defs>
</svg>
