<svg width="16" height="16" viewBox="0 0 16 16" fill="none" xmlns="http://www.w3.org/2000/svg">
<g clip-path="url(#clip0_2503_12873)">
<path d="M0.5 7.99981C0.5 11.2748 2.6 14.0498 5.5 15.0748V0.924805C2.6 1.9498 0.5 4.7248 0.5 7.99981Z" fill="#C94747" style="fill:#C94747;fill:color(display-p3 0.7882 0.2784 0.2784);fill-opacity:1;"/>
<path d="M15.5 7.99981C15.5 4.7248 13.425 1.9498 10.5 0.924805V15.0748C13.425 14.0498 15.5 11.2748 15.5 7.99981Z" fill="#C94747" style="fill:#C94747;fill:color(display-p3 0.7882 0.2784 0.2784);fill-opacity:1;"/>
<path d="M5.5 15.075C6.275 15.35 7.125 15.5 8 15.5C8.875 15.5 9.725 15.35 10.5 15.075V0.925C9.725 0.65 8.875 0.5 8 0.5C7.125 0.5 6.275 0.65 5.5 0.925V15.075Z" fill="#2872A0" style="fill:#2872A0;fill:color(display-p3 0.1569 0.4471 0.6275);fill-opacity:1;"/>
<path d="M3.25 6.875C3.73325 6.875 4.125 6.48325 4.125 6C4.125 5.51675 3.73325 5.125 3.25 5.125C2.76675 5.125 2.375 5.51675 2.375 6C2.375 6.48325 2.76675 6.875 3.25 6.875Z" fill="#F9CF02" style="fill:#F9CF02;fill:color(display-p3 0.9765 0.8118 0.0078);fill-opacity:1;"/>
<path d="M3.25 6.5C3.80228 6.5 4.25 6.05229 4.25 5.5C4.25 4.94772 3.80228 4.5 3.25 4.5C2.69772 4.5 2.25 4.94772 2.25 5.5C2.25 6.05229 2.69772 6.5 3.25 6.5Z" fill="#C94747" style="fill:#C94747;fill:color(display-p3 0.7882 0.2784 0.2784);fill-opacity:1;"/>
<path d="M3.25 6.375C3.59518 6.375 3.875 6.09518 3.875 5.75C3.875 5.40482 3.59518 5.125 3.25 5.125C2.90482 5.125 2.625 5.40482 2.625 5.75C2.625 6.09518 2.90482 6.375 3.25 6.375Z" fill="#F9CF02" style="fill:#F9CF02;fill:color(display-p3 0.9765 0.8118 0.0078);fill-opacity:1;"/>
<path d="M2.87501 4.5C2.87501 4.75 3.00001 4.875 3.25001 4.875C3.50001 4.875 3.75001 4.75 3.75001 4.5C3.75001 4.375 3.62501 4.375 3.62501 4.25V4V4.375C3.62501 4.375 3.62501 4.5 3.50001 4.5C3.37501 4.5 3.37501 4.5 3.37501 4.375C3.37501 4.25 3.50001 4.25 3.50001 4.125C3.50001 4 3.50001 4 3.37501 3.875C3.37501 3.75 3.25001 3.75 3.25001 3.625C3.12501 3.625 3.25001 3.875 3.25001 3.875C3.25001 3.875 3.12501 4 3.12501 4.125V4.375C3.12501 4.375 3.12501 4.5 3.00001 4.5C2.87501 4.5 2.87501 4.5 2.87501 4.375V4.25V4.5Z" fill="#F9CF02" style="fill:#F9CF02;fill:color(display-p3 0.9765 0.8118 0.0078);fill-opacity:1;"/>
<path d="M1.5 7V10.875H2.25V7H1.5ZM4.25 7V10.875H5.125V7H4.25ZM2.5 7.625V8H4.125V7.625H2.5ZM2.5 9.875V10.25H4.125V9.875H2.5ZM2.5 7H4.125L3.25 7.5L2.5 7ZM2.5 10.375H4.125L3.25 10.875L2.5 10.375Z" fill="#F9CF02" style="fill:#F9CF02;fill:color(display-p3 0.9765 0.8118 0.0078);fill-opacity:1;"/>
<path d="M3.29995 9.79961C3.76939 9.79961 4.14995 9.41905 4.14995 8.94961C4.14995 8.48017 3.76939 8.09961 3.29995 8.09961C2.83051 8.09961 2.44995 8.48017 2.44995 8.94961C2.44995 9.41905 2.83051 9.79961 3.29995 9.79961Z" fill="#F9CF02" style="fill:#F9CF02;fill:color(display-p3 0.9765 0.8118 0.0078);fill-opacity:1;"/>
<path d="M3.30002 9.8752C2.80002 9.8752 2.40002 9.4752 2.40002 8.9752C2.40002 8.4752 2.80002 8.0752 3.30002 8.0752C3.80002 8.0752 4.20002 8.4752 4.20002 8.9752C4.20002 9.4752 3.80002 9.8752 3.30002 9.8752ZM3.30002 8.1502C2.85002 8.1502 2.47502 8.5252 2.47502 8.9752C2.47502 9.4252 2.85002 9.8002 3.30002 9.8002C3.75002 9.8002 4.12502 9.4252 4.12502 8.9752C4.12502 8.5252 3.75002 8.1502 3.30002 8.1502Z" fill="#C94747" style="fill:#C94747;fill:color(display-p3 0.7882 0.2784 0.2784);fill-opacity:1;"/>
<path d="M3.30007 9.8752C3.02507 9.8752 2.82507 9.6502 2.82507 9.4002C2.82507 9.1502 3.05007 8.9252 3.30007 8.9252C3.50007 8.9252 3.67507 8.7502 3.67507 8.5502C3.67507 8.3502 3.50007 8.1752 3.30007 8.1752V8.0752C3.57507 8.0752 3.77507 8.3002 3.77507 8.5502C3.77507 8.8252 3.55007 9.0252 3.30007 9.0252C3.10007 9.0252 2.92507 9.2002 2.92507 9.4002C2.92507 9.6002 3.10007 9.7752 3.30007 9.7752V9.8752Z" fill="#C94747" style="fill:#C94747;fill:color(display-p3 0.7882 0.2784 0.2784);fill-opacity:1;"/>
<path d="M3.3 8.70059C3.39665 8.70059 3.475 8.62224 3.475 8.52559C3.475 8.42894 3.39665 8.35059 3.3 8.35059C3.20335 8.35059 3.125 8.42894 3.125 8.52559C3.125 8.62224 3.20335 8.70059 3.3 8.70059Z" fill="#C94747" style="fill:#C94747;fill:color(display-p3 0.7882 0.2784 0.2784);fill-opacity:1;"/>
<path d="M3.30002 9.52559C3.38287 9.52559 3.45002 9.45843 3.45002 9.37559C3.45002 9.29274 3.38287 9.22559 3.30002 9.22559C3.21718 9.22559 3.15002 9.29274 3.15002 9.37559C3.15002 9.45843 3.21718 9.52559 3.30002 9.52559Z" fill="#C94747" style="fill:#C94747;fill:color(display-p3 0.7882 0.2784 0.2784);fill-opacity:1;"/>
</g>
<defs>
<clipPath id="clip0_2503_12873">
<rect width="16" height="16" fill="white" style="fill:white;fill-opacity:1;"/>
</clipPath>
</defs>
</svg>
