<svg width="16" height="16" viewBox="0 0 16 16" fill="none" xmlns="http://www.w3.org/2000/svg">
<path d="M10.6667 1.89134C9.84971 1.53434 8.94871 1.33301 8.00004 1.33301C7.05137 1.33301 6.15037 1.53434 5.33337 1.89134V14.1077C6.15037 14.465 7.05137 14.6663 8.00004 14.6663C8.94871 14.6663 9.84971 14.465 10.6667 14.108V1.89134Z" fill="url(#paint0_linear_2503_12436)" style=""/>
<path d="M14.6667 7.99993C14.6667 5.26693 13.0204 2.92093 10.6667 1.8916V14.1079C13.0204 13.0789 14.6667 10.7329 14.6667 7.99993Z" fill="url(#paint1_linear_2503_12436)" style=""/>
<path d="M1.33337 7.99994C1.33337 10.7329 2.97971 13.0789 5.33337 14.1083V1.8916C2.97971 2.92093 1.33337 5.26694 1.33337 7.99994Z" fill="url(#paint2_linear_2503_12436)" style=""/>
<path d="M8.63538 8.82693C8.54938 8.85027 8.39838 8.87527 8.21604 8.85294C8.03504 8.83094 7.83438 8.8646 7.69638 8.7916C7.52438 8.84227 7.45038 8.69793 7.42304 8.59227C7.40471 8.68727 7.40604 8.73927 7.33704 8.71994C7.26804 8.69894 7.05571 8.59894 7.00504 8.57927C6.95304 8.55827 6.94138 8.6066 7.02604 8.6536C7.10938 8.69927 7.18738 8.7526 7.19004 8.78393C7.19138 8.8166 7.11704 8.85693 7.09104 8.86993C7.21738 8.86993 7.35671 8.8986 7.40238 8.90893C7.48704 8.9286 7.49238 8.9896 7.35404 9.08593C7.70438 9.0456 7.64838 9.22393 7.82538 9.2226C7.95571 9.22127 8.14171 9.21993 8.20171 9.21993C8.34238 9.21993 8.35004 9.12093 8.39838 9.10527C8.50504 9.07027 8.61571 9.0376 8.70038 9.00893C8.61438 8.98927 8.56638 8.96727 8.56638 8.94627C8.56638 8.9266 8.73838 8.8576 8.82171 8.8226C8.79171 8.81293 8.72138 8.80227 8.63538 8.82693Z" fill="#039BE5" style="fill:#039BE5;fill:color(display-p3 0.0118 0.6078 0.8980);fill-opacity:1;"/>
<path d="M8.39837 8.74995C8.37737 8.71862 8.32803 8.71229 8.30203 8.74729C8.15737 8.71729 7.8347 8.72629 7.72903 8.74729C7.70437 8.71229 7.6547 8.71862 7.63403 8.74995C7.61203 8.78262 7.62637 8.82296 7.65103 8.83862C7.6237 8.88029 7.63403 8.99362 7.65103 9.04162C7.62637 9.05729 7.61203 9.09629 7.63403 9.13029C7.65503 9.16162 7.70437 9.16795 7.72903 9.13162C7.85003 9.18229 8.17837 9.18229 8.30203 9.13162C8.32803 9.16795 8.3777 9.16029 8.39837 9.13029C8.42037 9.09629 8.40603 9.05729 8.38137 9.04162C8.39837 8.99329 8.40737 8.88029 8.38137 8.83862C8.40637 8.82296 8.4207 8.78262 8.39837 8.74995Z" fill="#FBC02D" style="fill:#FBC02D;fill:color(display-p3 0.9843 0.7529 0.1765);fill-opacity:1;"/>
<path d="M8.41136 8.74103C8.39836 8.72003 8.3737 8.70703 8.3487 8.70703C8.3277 8.70703 8.3097 8.7147 8.2967 8.72903C8.17836 8.70703 7.96736 8.70803 7.82803 8.7187C7.82803 8.7187 7.82803 8.7187 7.8267 8.7187C7.82536 8.7187 7.82403 8.7187 7.82136 8.7187V8.72003C7.7887 8.7227 7.75636 8.72536 7.73536 8.72903C7.72236 8.7147 7.7027 8.70703 7.68336 8.70703C7.6587 8.70703 7.63403 8.72003 7.6197 8.74103C7.60803 8.75803 7.6027 8.78003 7.60803 8.80103C7.6107 8.8167 7.61836 8.83236 7.63003 8.8427C7.60903 8.89336 7.61703 8.98736 7.63136 9.03537C7.6197 9.04703 7.61036 9.0627 7.60803 9.07836C7.6027 9.10036 7.60803 9.12136 7.6197 9.1397C7.63403 9.1607 7.6587 9.1737 7.68336 9.1737C7.70303 9.1737 7.72103 9.16603 7.73403 9.1527C7.7977 9.1747 7.90603 9.1867 8.01403 9.1867C8.19903 9.1867 8.28236 9.15803 8.29803 9.1527C8.31103 9.1657 8.32936 9.1737 8.3487 9.1737C8.37336 9.1737 8.39803 9.1607 8.41136 9.1397C8.42436 9.12136 8.42836 9.1007 8.42436 9.07836C8.42036 9.0627 8.4127 9.04703 8.3997 9.03537C8.41403 8.98703 8.4217 8.89336 8.40236 8.8427C8.4127 8.83236 8.42203 8.8167 8.42436 8.80103C8.42836 8.78003 8.42436 8.7577 8.41136 8.74103ZM7.7487 9.1197C7.75636 9.09636 7.7527 9.0727 7.74103 9.0597C7.72403 9.0427 7.7007 9.0387 7.6797 9.0507L7.6967 9.07937C7.70703 9.0727 7.7137 9.07936 7.71636 9.08203C7.72403 9.09103 7.7267 9.10536 7.71636 9.12236C7.7087 9.1327 7.6967 9.13936 7.6837 9.13936C7.66936 9.13936 7.65503 9.1327 7.64736 9.1197C7.63836 9.1067 7.63836 9.0937 7.6407 9.0857C7.64336 9.0727 7.6497 9.06236 7.66036 9.0557L7.6707 9.04803L7.6667 9.03636C7.6497 8.98936 7.64203 8.88403 7.66403 8.8477L7.67303 8.8347L7.66003 8.8257C7.6497 8.81903 7.6417 8.80736 7.64036 8.79436C7.6377 8.7867 7.6377 8.77336 7.64703 8.76036C7.6547 8.7487 7.66903 8.7407 7.68336 8.7407C7.69636 8.7407 7.7067 8.74736 7.7147 8.7577C7.72636 8.7747 7.7237 8.78903 7.71603 8.79803C7.71203 8.8007 7.70436 8.8057 7.69636 8.8007L7.67936 8.82936C7.68703 8.8347 7.69636 8.83603 7.70403 8.83603C7.71703 8.83603 7.73003 8.8307 7.73903 8.82036C7.7507 8.8087 7.75336 8.7877 7.74936 8.76703C7.7937 8.77603 7.8327 8.87136 7.8667 8.95703C7.8967 9.03636 7.92403 9.11203 7.96436 9.15103C7.87903 9.14836 7.79936 9.13803 7.7487 9.1197ZM8.0327 9.15237C7.97803 9.14703 7.93636 9.04036 7.8987 8.94536C7.86736 8.86603 7.83736 8.79303 7.79836 8.75536C7.80736 8.75403 7.8167 8.75403 7.82703 8.7527C7.87636 8.7527 7.9207 8.85703 7.96103 8.94936C7.99603 9.03003 8.03136 9.1107 8.0757 9.15103C8.06136 9.15103 8.04703 9.15237 8.0327 9.15237ZM8.13936 9.14703C8.08203 9.14303 8.03403 9.0337 7.99103 8.93603C7.95836 8.85936 7.92603 8.7877 7.8857 8.74836C7.89736 8.74836 7.90903 8.74703 7.92203 8.74703C7.97036 8.75103 8.0157 8.8577 8.0587 8.95003C8.0937 9.0307 8.12903 9.10636 8.17203 9.14403C8.16136 9.1447 8.1497 9.14603 8.13936 9.14703ZM8.36736 8.8477C8.38936 8.8827 8.38303 8.98836 8.36603 9.03636L8.3607 9.04803L8.37236 9.0547C8.38136 9.06136 8.38936 9.07303 8.39203 9.08603C8.39336 9.0937 8.39336 9.10703 8.38436 9.12003C8.3767 9.1317 8.36336 9.1397 8.34936 9.1397C8.33636 9.1397 8.3247 9.13303 8.3167 9.1227C8.30636 9.1057 8.30903 9.09003 8.3167 9.08236C8.31936 9.0797 8.32436 9.07336 8.33636 9.0797L8.35336 9.05103C8.33236 9.03936 8.30903 9.04336 8.29203 9.06003C8.28036 9.07303 8.27636 9.09503 8.28436 9.12003C8.26736 9.1267 8.24803 9.13036 8.2257 9.1357C8.1787 9.1267 8.12936 9.02503 8.09036 8.9377C8.05403 8.85836 8.02003 8.78536 7.97836 8.74503C8.08903 8.7437 8.20503 8.7477 8.28303 8.76203C8.2777 8.78536 8.28036 8.8077 8.29203 8.8207C8.30236 8.83103 8.31403 8.83636 8.32703 8.83636C8.33603 8.83636 8.34403 8.8337 8.35303 8.8287L8.33603 8.80003C8.32703 8.8067 8.31903 8.80136 8.31503 8.79736C8.30836 8.7897 8.3047 8.77403 8.31636 8.75836C8.3267 8.7427 8.34103 8.74003 8.34903 8.74003C8.36336 8.74136 8.37636 8.7477 8.38403 8.7597C8.39303 8.7727 8.39303 8.7857 8.3917 8.7947C8.38903 8.80636 8.38136 8.81803 8.3707 8.8247L8.35803 8.83336L8.36736 8.8477Z" fill="#BF360C" style="fill:#BF360C;fill:color(display-p3 0.7490 0.2118 0.0471);fill-opacity:1;"/>
<path d="M7.10035 8.80859C7.02368 8.80859 7.02368 8.92826 7.10035 8.92826C7.17701 8.92826 7.17835 8.80859 7.10035 8.80859Z" fill="white" style="fill:white;fill-opacity:1;"/>
<path d="M7.10033 8.79199C7.052 8.79199 7.026 8.82966 7.026 8.86866C7.026 8.90633 7.05067 8.94532 7.10033 8.94532C7.15 8.94532 7.176 8.90633 7.176 8.86866C7.17567 8.82966 7.14967 8.79199 7.10033 8.79199ZM7.10033 8.91166C7.06767 8.91166 7.05867 8.88433 7.05867 8.86866C7.05867 8.85166 7.06767 8.82433 7.10033 8.82433C7.129 8.82433 7.142 8.84633 7.142 8.86866C7.142 8.88433 7.13267 8.91166 7.10033 8.91166Z" fill="#1976D2" style="fill:#1976D2;fill:color(display-p3 0.0980 0.4627 0.8235);fill-opacity:1;"/>
<path d="M7.40638 8.54297C7.32971 8.54297 7.32971 8.66397 7.40638 8.66397C7.48304 8.66397 7.48438 8.54297 7.40638 8.54297Z" fill="white" style="fill:white;fill-opacity:1;"/>
<path d="M7.40636 8.52637C7.35803 8.52637 7.33203 8.56537 7.33203 8.60303C7.33203 8.64203 7.3567 8.6797 7.40636 8.6797C7.45603 8.6797 7.48203 8.6407 7.48203 8.60303C7.48036 8.56537 7.4557 8.52637 7.40636 8.52637ZM7.40636 8.64737C7.3737 8.64737 7.3647 8.62003 7.3647 8.60303C7.3647 8.58737 7.3737 8.5587 7.40636 8.5587C7.43503 8.5587 7.44803 8.5807 7.44803 8.60303C7.44803 8.62003 7.4387 8.64737 7.40636 8.64737Z" fill="#1976D2" style="fill:#1976D2;fill:color(display-p3 0.0980 0.4627 0.8235);fill-opacity:1;"/>
<path d="M8.67203 8.96094C8.59403 8.96094 8.59403 9.08194 8.67203 9.08194C8.74869 9.08194 8.75003 8.96094 8.67203 8.96094Z" fill="white" style="fill:white;fill-opacity:1;"/>
<path d="M8.67198 8.94434C8.62265 8.94434 8.59631 8.98334 8.59631 9.021C8.59631 9.06 8.62231 9.09767 8.67198 9.09767C8.72031 9.09767 8.74631 9.06 8.74631 9.021C8.74631 9.00134 8.73965 8.98334 8.72798 8.969C8.71498 8.95334 8.69531 8.94434 8.67198 8.94434ZM8.67198 9.06534C8.63931 9.06534 8.63031 9.038 8.63031 9.021C8.63031 9.00534 8.63931 8.978 8.67198 8.978C8.70065 8.978 8.71365 8.999 8.71365 9.021C8.71365 9.038 8.70431 9.06534 8.67198 9.06534Z" fill="#1976D2" style="fill:#1976D2;fill:color(display-p3 0.0980 0.4627 0.8235);fill-opacity:1;"/>
<path d="M6.87508 8.54674C6.85675 8.57541 6.90108 8.62874 6.94808 8.65107C6.99375 8.67307 7.03542 8.65641 7.04842 8.63541C7.06275 8.61574 7.04842 8.56374 6.99508 8.53507C6.94808 8.51007 6.89208 8.51941 6.87508 8.54674Z" fill="#FBC02D" style="fill:#FBC02D;fill:color(display-p3 0.9843 0.7529 0.1765);fill-opacity:1;"/>
<path d="M7.33867 9.0185C7.28801 9.0355 7.25401 9.08216 7.25934 9.11616C7.26601 9.14883 7.33367 9.15516 7.38167 9.13716C7.42867 9.12016 7.44534 9.0735 7.43767 9.04983C7.42567 9.01583 7.39467 9.00016 7.33867 9.0185Z" fill="#FBC02D" style="fill:#FBC02D;fill:color(display-p3 0.9843 0.7529 0.1765);fill-opacity:1;"/>
<path d="M8.76705 8.77614C8.71871 8.79314 8.69538 8.83347 8.70205 8.85681C8.71238 8.89181 8.74238 8.90747 8.79971 8.89081C8.85038 8.87514 8.90638 8.82047 8.89338 8.79047C8.87771 8.75281 8.81505 8.75914 8.76705 8.77614Z" fill="#FBC02D" style="fill:#FBC02D;fill:color(display-p3 0.9843 0.7529 0.1765);fill-opacity:1;"/>
<path d="M9.02873 9.26867C9.01839 9.24767 8.96373 9.227 8.94139 9.218C8.94673 9.19334 8.92706 9.119 8.90739 9.09834C8.93473 9.093 8.94639 9.054 8.92173 9.03334C8.90206 9.01767 8.87606 9.028 8.86706 9.04C8.85806 9.052 8.85806 9.09067 8.88539 9.09867C8.88939 9.12334 8.91273 9.21067 8.89306 9.24567C8.93073 9.247 8.99839 9.27034 9.01673 9.28734C9.00773 9.316 9.04006 9.338 9.05439 9.33667C9.06873 9.33534 9.09073 9.317 9.08839 9.291C9.08739 9.258 9.04839 9.24634 9.02873 9.26867Z" fill="#FBC02D" style="fill:#FBC02D;fill:color(display-p3 0.9843 0.7529 0.1765);fill-opacity:1;"/>
<path d="M9.57798 8.76957C9.56098 8.75391 9.50365 8.75257 9.48031 8.75124C9.47765 8.72657 9.43598 8.66124 9.41131 8.64957C9.43598 8.63524 9.43598 8.59358 9.40465 8.58191C9.38131 8.57424 9.36031 8.59224 9.35531 8.60657C9.35031 8.62091 9.36298 8.65858 9.39165 8.65591C9.40331 8.67791 9.45165 8.75357 9.44231 8.79257C9.47998 8.78091 9.55165 8.78091 9.57398 8.78991C9.57398 8.82124 9.61031 8.83024 9.62331 8.82391C9.63631 8.81757 9.65331 8.79391 9.64298 8.77057C9.63031 8.73957 9.58998 8.74224 9.57798 8.76957Z" fill="#FBC02D" style="fill:#FBC02D;fill:color(display-p3 0.9843 0.7529 0.1765);fill-opacity:1;"/>
<path d="M9.88665 8.1079C9.86465 8.10257 9.80331 8.11457 9.78231 8.12357C9.76931 8.1039 9.72231 8.06224 9.70031 8.05457C9.71598 8.0299 9.69631 7.99324 9.66531 7.99857C9.64065 8.00257 9.63031 8.0299 9.63265 8.04424C9.63398 8.0599 9.66131 8.08724 9.68598 8.07157C9.70565 8.0859 9.75765 8.14057 9.76798 8.17957C9.79531 8.15224 9.86698 8.13124 9.89164 8.13024C9.90464 8.15624 9.94098 8.14724 9.95031 8.13557C9.95965 8.1239 9.96331 8.09524 9.94365 8.07824C9.91931 8.05724 9.88398 8.0779 9.88665 8.1079Z" fill="#FBC02D" style="fill:#FBC02D;fill:color(display-p3 0.9843 0.7529 0.1765);fill-opacity:1;"/>
<path d="M9.82309 7.85487C9.80742 7.80787 9.73076 7.7142 9.69409 7.67387C9.72143 7.72987 9.66409 7.84454 9.72276 7.93554C9.77609 8.0162 9.77209 8.09954 9.75276 8.19587L9.77609 8.21287C9.79309 8.04887 9.84909 8.02287 9.88676 7.98754C9.94409 7.9342 10.0118 7.84287 9.99876 7.78054C9.98976 7.74154 9.98042 7.69187 9.98442 7.6582C9.92576 7.67654 9.85176 7.79654 9.82309 7.85487Z" fill="#558B2F" style="fill:#558B2F;fill:color(display-p3 0.3333 0.5451 0.1843);fill-opacity:1;"/>
<path d="M9.66532 8.42789C9.67199 8.37956 9.66399 8.25856 9.65499 8.21289C9.51299 8.24289 9.46999 8.43556 9.48966 8.60089C9.50532 8.72589 9.44799 8.77156 9.37366 8.83789L9.39566 8.87189C9.45166 8.79389 9.54399 8.69856 9.65599 8.65056C9.76932 8.60222 9.79932 8.37856 9.89166 8.28456C9.76966 8.29389 9.72532 8.36556 9.66532 8.42789Z" fill="#558B2F" style="fill:#558B2F;fill:color(display-p3 0.3333 0.5451 0.1843);fill-opacity:1;"/>
<path d="M9.26041 8.74219C9.25507 8.81652 9.08207 8.88685 9.02341 9.06519C9.00007 9.13419 8.97408 9.17852 8.87374 9.24485L8.86841 9.27219C9.08841 9.10952 9.15341 9.18485 9.30074 9.13419C9.44807 9.08352 9.41007 8.97919 9.44774 8.89852C9.38274 8.90519 9.28774 8.94552 9.23941 8.98719C9.26574 8.93485 9.28007 8.83185 9.26041 8.74219Z" fill="#558B2F" style="fill:#558B2F;fill:color(display-p3 0.3333 0.5451 0.1843);fill-opacity:1;"/>
<path d="M8.77469 9.16575C8.48435 9.12675 8.45035 9.34675 8.30469 9.37542C8.33602 9.40408 8.31235 9.41575 8.46469 9.49275C8.61835 9.56842 8.80202 9.41608 8.88135 9.42775C8.80969 9.38342 8.70569 9.36009 8.63669 9.34709C8.69802 9.31175 8.73302 9.20608 8.77469 9.16575Z" fill="#558B2F" style="fill:#558B2F;fill:color(display-p3 0.3333 0.5451 0.1843);fill-opacity:1;"/>
<path d="M9.76835 8.15594C9.64469 8.2186 9.55869 8.42427 9.53135 8.57927C9.51035 8.6966 9.48435 8.73827 9.44935 8.7836C9.32702 8.78894 9.20602 8.89827 9.14335 8.97894C9.08735 9.05327 8.98969 9.15094 8.90635 9.22627C8.77602 9.21594 8.62635 9.2756 8.54169 9.3186C8.45302 9.36294 8.37369 9.36294 8.30469 9.34994C8.11702 9.31594 7.90369 9.3136 7.68869 9.47494C7.67302 9.48527 7.70702 9.5256 7.72902 9.50894C7.91002 9.36427 8.15869 9.3046 8.37369 9.4426C8.49102 9.51927 8.81235 9.41527 8.92069 9.2266C8.91935 9.2266 8.91802 9.2266 8.91669 9.2266C8.94935 9.20194 8.98169 9.1796 9.10535 9.13794C9.27202 9.0806 9.40369 8.94527 9.45702 8.7826C9.45569 8.7826 9.45435 8.7826 9.45302 8.7826C9.50135 8.7306 9.59235 8.63927 9.66802 8.54294C9.75535 8.42827 9.79435 8.27327 9.77602 8.15894C9.79035 8.0846 9.83335 8.00394 9.87769 7.94394C9.92702 7.87494 9.92335 7.7146 9.84502 7.58594C9.74102 7.67394 9.79035 7.93194 9.76835 8.15594Z" fill="#1B5E20" style="fill:#1B5E20;fill:color(display-p3 0.1059 0.3686 0.1255);fill-opacity:1;"/>
<path d="M7.10538 9.09472C7.11705 9.05706 7.09872 9.01139 7.07138 9.01272C7.04538 9.01539 7.05172 9.07906 7.06605 9.10772C7.07905 9.13506 7.08438 9.17406 7.08805 9.22606L7.13105 9.25206C7.10538 9.21972 7.09505 9.13372 7.10538 9.09472Z" fill="#827717" style="fill:#827717;fill:color(display-p3 0.5098 0.4667 0.0902);fill-opacity:1;"/>
<path d="M7.07304 9.08894C7.03804 9.07594 7.02738 9.09427 7.04038 9.12294C7.06004 9.16194 7.10538 9.16594 7.12238 9.13727C7.14438 9.09827 7.13004 9.07461 7.11471 9.08261C7.09904 9.09127 7.08071 9.09261 7.07304 9.08894Z" fill="#FBC02D" style="fill:#FBC02D;fill:color(display-p3 0.9843 0.7529 0.1765);fill-opacity:1;"/>
<path d="M6.965 9.24692C6.93633 9.24159 6.875 9.25226 6.88033 9.27959C6.88566 9.30692 6.93366 9.31359 6.965 9.29126C6.99633 9.26892 7.07833 9.25726 7.11466 9.27426L7.07966 9.23926C7.03133 9.24826 6.99466 9.25359 6.965 9.24692Z" fill="#827717" style="fill:#827717;fill:color(display-p3 0.5098 0.4667 0.0902);fill-opacity:1;"/>
<path d="M6.94937 9.26062C6.95471 9.26829 6.95837 9.28662 6.95604 9.30495C6.95204 9.32195 6.97704 9.33095 7.00671 9.29729C7.02871 9.27395 7.01204 9.22695 6.97171 9.21929C6.94137 9.21262 6.92837 9.22829 6.94937 9.26062Z" fill="#FBC02D" style="fill:#FBC02D;fill:color(display-p3 0.9843 0.7529 0.1765);fill-opacity:1;"/>
<path d="M6.55734 8.6195C6.564 8.6495 6.56 8.6925 6.552 8.7445L6.591 8.77717C6.574 8.7395 6.57933 8.65217 6.59867 8.61717C6.61833 8.58317 6.61034 8.53383 6.58434 8.5285C6.55867 8.5245 6.55067 8.5885 6.55734 8.6195Z" fill="#827717" style="fill:#827717;fill:color(display-p3 0.5098 0.4667 0.0902);fill-opacity:1;"/>
<path d="M6.56769 8.60313C6.53635 8.58113 6.52336 8.59646 6.53002 8.62779C6.53769 8.66946 6.58335 8.68513 6.60569 8.66179C6.63702 8.62913 6.62769 8.60446 6.61102 8.60713C6.59369 8.61213 6.57569 8.60813 6.56769 8.60313Z" fill="#FBC02D" style="fill:#FBC02D;fill:color(display-p3 0.9843 0.7529 0.1765);fill-opacity:1;"/>
<path d="M6.43366 8.74314C6.40633 8.73147 6.34366 8.73014 6.34499 8.7588C6.34632 8.78614 6.39199 8.8018 6.42699 8.78614C6.46199 8.77047 6.56499 8.7758 6.59766 8.79914L6.55199 8.75214C6.50133 8.7538 6.46233 8.7538 6.43366 8.74314Z" fill="#827717" style="fill:#827717;fill:color(display-p3 0.5098 0.4667 0.0902);fill-opacity:1;"/>
<path d="M6.41669 8.75239C6.42069 8.76006 6.42069 8.77972 6.41535 8.79672C6.40869 8.81372 6.43235 8.82672 6.46735 8.79939C6.49202 8.77839 6.48302 8.73039 6.44535 8.71472C6.41669 8.70406 6.39969 8.71572 6.41669 8.75239Z" fill="#FBC02D" style="fill:#FBC02D;fill:color(display-p3 0.9843 0.7529 0.1765);fill-opacity:1;"/>
<path d="M6.2813 8.01578C6.27597 8.04578 6.24864 8.08878 6.21997 8.13178L6.23564 8.20212C6.24864 8.13445 6.28897 8.05512 6.3203 8.03145C6.35164 8.00945 6.3633 7.95978 6.3413 7.94412C6.3193 7.92845 6.28764 7.98445 6.2813 8.01578Z" fill="#827717" style="fill:#827717;fill:color(display-p3 0.5098 0.4667 0.0902);fill-opacity:1;"/>
<path d="M6.29834 8.00438C6.27867 7.97171 6.25933 7.97971 6.254 8.01104C6.245 8.05404 6.28 8.08671 6.31 8.07471C6.35034 8.05771 6.35167 8.03038 6.33467 8.02638C6.31767 8.02371 6.30334 8.01204 6.29834 8.00438Z" fill="#FBC02D" style="fill:#FBC02D;fill:color(display-p3 0.9843 0.7529 0.1765);fill-opacity:1;"/>
<path d="M6.10674 8.06112C6.0884 8.03645 6.03507 8.00245 6.02207 8.02712C6.00907 8.05179 6.04174 8.08979 6.0794 8.09479C6.11707 8.09879 6.20307 8.15979 6.2214 8.19645L6.2044 8.13145C6.16007 8.10645 6.1264 8.08579 6.10674 8.06112Z" fill="#827717" style="fill:#827717;fill:color(display-p3 0.5098 0.4667 0.0902);fill-opacity:1;"/>
<path d="M6.08736 8.06029C6.08736 8.06929 6.07836 8.08629 6.06536 8.09796C6.05236 8.10829 6.06536 8.13296 6.10836 8.12796C6.13969 8.12263 6.15669 8.07729 6.13036 8.04329C6.11069 8.01863 6.09103 8.02129 6.08736 8.06029Z" fill="#FBC02D" style="fill:#FBC02D;fill:color(display-p3 0.9843 0.7529 0.1765);fill-opacity:1;"/>
<path d="M7.73038 9.33746C7.68871 9.34912 7.66004 9.36346 7.63538 9.31912C7.61071 9.27479 7.59771 9.29312 7.58704 9.30746C7.57638 9.32179 7.54804 9.32179 7.52204 9.27479C7.49738 9.22912 7.47638 9.21346 7.44638 9.21612C7.41504 9.22012 7.40471 9.23712 7.42171 9.26679C7.43738 9.29679 7.42171 9.32012 7.39571 9.29146C7.37104 9.26412 7.33438 9.22512 7.30471 9.22646C7.27504 9.22779 7.24604 9.23179 7.26571 9.26146C7.28538 9.29112 7.28538 9.32412 7.25004 9.29646C7.21738 9.26912 7.19404 9.25746 7.16404 9.26012C7.05338 9.21312 6.98571 9.10646 6.98171 9.04512C6.97771 8.98146 6.96338 8.99812 6.95438 9.01246C6.94671 9.02812 6.91938 9.04879 6.90738 8.99946C6.89304 8.93812 6.90204 8.88479 6.88004 8.85746C6.85671 8.82879 6.83171 8.81712 6.81871 8.86779C6.80704 8.91979 6.77971 8.89112 6.77971 8.84812C6.78104 8.80512 6.78238 8.76346 6.76404 8.74379C6.74571 8.72546 6.73138 8.72679 6.73138 8.76712C6.73138 8.80879 6.71438 8.81646 6.69638 8.77879C6.67671 8.73979 6.64704 8.72012 6.64804 8.76046C6.64938 8.77612 6.65071 8.78779 6.65338 8.79946C6.53238 8.73046 6.48671 8.67446 6.48271 8.60012C6.47871 8.53646 6.48004 8.50512 6.50104 8.47912C6.52204 8.45312 6.51138 8.42579 6.48404 8.44912C6.45671 8.47379 6.43071 8.46612 6.43571 8.42312C6.44238 8.38146 6.45904 8.32679 6.44338 8.29546C6.42771 8.26279 6.39404 8.26412 6.38471 8.30712C6.38071 8.32546 6.36638 8.34479 6.34838 8.34479C6.32871 8.34479 6.33004 8.30046 6.33804 8.27312C6.34571 8.24446 6.32104 8.22479 6.30804 8.24846C6.29504 8.27312 6.26371 8.29679 6.25071 8.26012C6.24938 8.25879 6.24804 8.25879 6.24804 8.25746C6.23771 8.17546 6.18304 8.01412 6.21038 7.98146C6.23904 7.94646 6.23771 7.93979 6.21804 7.92412C6.19704 7.90712 6.21804 7.87579 6.24938 7.86279C6.29504 7.84446 6.31437 7.80546 6.28071 7.80812C6.22337 7.81212 6.19071 7.80146 6.22338 7.78212C6.26504 7.75746 6.30804 7.72746 6.29904 7.69112C6.29638 7.67679 6.27704 7.67279 6.25604 7.68079C6.23404 7.68846 6.21438 7.67546 6.23771 7.65746C6.27038 7.63546 6.24438 7.61179 6.26771 7.59479C6.29104 7.57912 6.28204 7.55713 6.26771 7.55979C6.25338 7.56113 6.21838 7.60146 6.20404 7.58312C6.18971 7.56479 6.17137 7.54546 6.15571 7.58046C6.13104 7.63112 6.16104 7.66379 6.14538 7.68846C6.12971 7.71179 6.11038 7.71979 6.09071 7.69379C6.07238 7.66779 6.04371 7.67546 6.04238 7.70812C6.03971 7.74079 6.05404 7.76012 6.07504 7.79012C6.09471 7.82012 6.09071 7.84346 6.05404 7.82512C6.01971 7.81012 6.00138 7.81012 6.00004 7.84012C5.99738 7.87012 6.01304 7.88046 6.06004 7.90279C6.10571 7.92479 6.11338 7.93146 6.11738 7.95612C6.12404 8.00046 6.16438 7.99246 6.17871 8.05112C6.18904 8.10179 6.21138 8.17746 6.21638 8.25279C6.21238 8.25679 6.21104 8.26312 6.21237 8.27112C6.17971 8.25812 6.17604 8.28546 6.18771 8.30112C6.20338 8.32212 6.20871 8.34146 6.18771 8.33612C6.16704 8.33079 6.12538 8.31512 6.13304 8.34912C6.14071 8.38179 6.20971 8.40646 6.25404 8.41546C6.29704 8.42446 6.30104 8.44546 6.28004 8.45179C6.26038 8.45946 6.24738 8.45579 6.21738 8.45179C6.18604 8.44646 6.18104 8.47146 6.20438 8.49879C6.22904 8.52612 6.29171 8.53379 6.32038 8.53646C6.36604 8.54179 6.36971 8.57812 6.35038 8.57679C6.32938 8.57679 6.29171 8.56246 6.28904 8.58346C6.28504 8.60446 6.33971 8.62779 6.37904 8.62379C6.41938 8.61979 6.42471 8.62912 6.43371 8.64079C6.48571 8.71512 6.57838 8.79979 6.64204 8.83079C6.63804 8.83346 6.64071 8.83979 6.63438 8.83979C6.60038 8.83846 6.57304 8.84512 6.60171 8.87112C6.62904 8.89846 6.64871 8.90512 6.66671 8.90879C6.68471 8.91246 6.68738 8.93746 6.66804 8.94646C6.64838 8.95546 6.62904 8.94912 6.61204 8.94112C6.59371 8.93346 6.56638 8.94379 6.59371 8.97612C6.61971 9.00879 6.66138 9.02446 6.71338 9.02446C6.76671 9.02446 6.78371 9.04912 6.75238 9.06746C6.72104 9.08579 6.69904 9.08712 6.66371 9.08046C6.62971 9.07512 6.62204 9.10512 6.67038 9.13512C6.71871 9.16512 6.76404 9.15846 6.80704 9.14279C6.85004 9.12846 6.85271 9.14546 6.84471 9.15979C6.83804 9.17279 6.84204 9.19379 6.87971 9.18179C6.91738 9.16879 6.95538 9.15579 7.00204 9.18946C7.03971 9.21812 7.08271 9.25579 7.12971 9.28579C7.12571 9.30012 7.12571 9.31579 7.10371 9.32212C7.08038 9.32879 7.05038 9.34412 7.03871 9.35979C7.02838 9.37546 7.02704 9.41446 7.11938 9.40012C7.21171 9.38446 7.21571 9.38979 7.20938 9.41979C7.20171 9.44979 7.20038 9.48612 7.25371 9.47312C7.32138 9.45746 7.35671 9.40412 7.38138 9.42879C7.39571 9.44446 7.37738 9.46646 7.36304 9.48212C7.34104 9.50679 7.39304 9.52912 7.42438 9.50412C7.45304 9.48079 7.48938 9.43646 7.51038 9.44546C7.53238 9.45312 7.51171 9.48046 7.50371 9.49746C7.49604 9.51312 7.50371 9.54679 7.54138 9.52879C7.57904 9.50912 7.60138 9.39346 7.71571 9.40912C7.74971 9.34412 8.01904 9.30879 8.24038 9.50279C8.25604 9.51846 8.27438 9.51846 8.29504 9.51579C8.31604 9.51446 8.34571 9.51579 8.32504 9.49746C8.13671 9.35546 7.91671 9.28412 7.73038 9.33746Z" fill="#1B5E20" style="fill:#1B5E20;fill:color(display-p3 0.1059 0.3686 0.1255);fill-opacity:1;"/>
<path d="M8.06009 9.46484C8.05609 9.47518 8.04309 9.50384 8.03809 9.51051C8.08642 9.54951 8.14742 9.58351 8.15909 9.62651C8.17609 9.61484 8.19175 9.60818 8.20742 9.60684C8.20175 9.55851 8.10809 9.50518 8.06009 9.46484Z" fill="white" style="fill:white;fill-opacity:1;"/>
<path d="M8.03772 9.51074C8.03239 9.52241 8.00139 9.53408 7.99072 9.54474C8.03239 9.58508 8.09239 9.62808 8.12239 9.66708C8.13406 9.64874 8.14706 9.63574 8.15872 9.62674C8.14706 9.58374 8.08606 9.54974 8.03772 9.51074Z" fill="#1B5E20" style="fill:#1B5E20;fill:color(display-p3 0.1059 0.3686 0.1255);fill-opacity:1;"/>
<path d="M7.95164 9.28125C7.89564 9.28525 7.90464 9.30858 7.90464 9.39325C7.90731 9.45058 7.74464 9.48825 7.72498 9.61725C7.74464 9.60958 7.76798 9.60292 7.79264 9.60692C7.80964 9.55492 7.96964 9.48592 7.96964 9.38558L7.96831 9.36358C7.96998 9.32425 7.97131 9.28125 7.95164 9.28125Z" fill="#1B5E20" style="fill:#1B5E20;fill:color(display-p3 0.1059 0.3686 0.1255);fill-opacity:1;"/>
<path d="M8.03006 9.28128C8.02106 9.28128 8.01039 9.28128 7.99872 9.28128C7.98039 9.28128 7.96472 9.28128 7.95172 9.28128C7.97139 9.28128 7.96872 9.32428 7.96872 9.36328C7.96872 9.37761 7.97006 9.39461 7.97006 9.41161C7.96872 9.41028 7.96739 9.40895 7.96606 9.40895C7.95039 9.47161 7.80339 9.52628 7.79272 9.60695C7.80972 9.60828 7.82539 9.61461 7.84106 9.62795C7.85939 9.56428 7.97772 9.52128 8.01539 9.45595C8.01939 9.45595 8.02306 9.45595 8.02706 9.45595C8.05306 9.46128 8.04672 9.40261 8.04672 9.36361C8.04672 9.32461 8.04939 9.27995 8.03006 9.28128Z" fill="white" style="fill:white;fill-opacity:1;"/>
<path d="M8.09241 9.43795C8.09241 9.43662 8.09241 9.43395 8.09241 9.43262C8.10541 9.41962 8.11207 9.39862 8.11207 9.36495C8.11207 9.36228 8.11207 9.36095 8.11207 9.35828V9.35695C8.11074 9.29328 8.09641 9.28262 8.03007 9.28128C8.04841 9.27995 8.04707 9.31895 8.04707 9.35562C8.04707 9.35695 8.04974 9.40495 8.01574 9.45595C7.97407 9.51862 7.86074 9.56395 7.84241 9.62662C7.85541 9.63562 7.86707 9.64862 7.87874 9.66695C7.91374 9.61995 8.01674 9.56262 8.07274 9.47828C8.12207 9.51095 8.20307 9.56428 8.20807 9.60595C8.23274 9.60328 8.25641 9.60995 8.27574 9.61628C8.25141 9.51328 8.13941 9.46762 8.09241 9.43795Z" fill="#DD2C00" style="fill:#DD2C00;fill:color(display-p3 0.8667 0.1725 0.0000);fill-opacity:1;"/>
<path d="M6.63397 7.77782C6.58063 7.83115 6.6093 7.88215 6.6353 7.91048C6.66263 7.93782 6.7253 7.97415 6.75763 7.94048C6.7863 7.91048 6.79263 7.86748 6.7603 7.81282C6.72797 7.75948 6.67563 7.73482 6.63397 7.77782Z" fill="#EF5350" style="fill:#EF5350;fill:color(display-p3 0.9373 0.3255 0.3137);fill-opacity:1;"/>
<path d="M6.56006 7.61421L6.60572 7.69887L6.62672 7.68721L6.57973 7.60254L6.56006 7.61421Z" fill="#FBC02D" style="fill:#FBC02D;fill:color(display-p3 0.9843 0.7529 0.1765);fill-opacity:1;"/>
<path d="M6.5614 7.55176C6.51973 7.55176 6.51973 7.62076 6.5614 7.62076C6.60173 7.62076 6.60407 7.55176 6.5614 7.55176Z" fill="#FBC02D" style="fill:#FBC02D;fill:color(display-p3 0.9843 0.7529 0.1765);fill-opacity:1;"/>
<path d="M6.70302 7.66047C6.67569 7.6578 6.66802 7.67214 6.66536 7.70347C6.65236 7.68014 6.63536 7.67214 6.61336 7.68514C6.59502 7.6968 6.59236 7.71247 6.59902 7.73347C6.58469 7.72447 6.57036 7.7218 6.55469 7.73747C6.54169 7.7518 6.54302 7.76614 6.55202 7.7818C6.54536 7.78314 6.54036 7.7858 6.53769 7.7948C6.52869 7.8168 6.53369 7.8288 6.56502 7.83914C6.59636 7.8468 6.60936 7.84047 6.61436 7.82747C6.61436 7.8248 6.61302 7.82347 6.61302 7.82214C6.61969 7.8208 6.62602 7.8208 6.63136 7.81547C6.63669 7.8088 6.63802 7.7998 6.63669 7.78947C6.64969 7.79847 6.66002 7.80114 6.67069 7.7948C6.67736 7.78947 6.68236 7.78047 6.68369 7.7688C6.68769 7.77014 6.69036 7.77547 6.69536 7.77547C6.71869 7.7768 6.72669 7.75847 6.73302 7.71547C6.73969 7.6828 6.73169 7.66314 6.70302 7.66047Z" fill="#E53935" style="fill:#E53935;fill:color(display-p3 0.8980 0.2235 0.2078);fill-opacity:1;"/>
<path d="M6.87099 7.92374C6.76666 7.8754 6.65366 7.9524 6.66399 8.0814C6.67566 8.2104 6.83332 8.3184 7.02866 8.32607L7.10799 8.22173C7.00532 8.20607 7.05066 8.00807 6.87099 7.92374Z" fill="#00897B" style="fill:#00897B;fill:color(display-p3 0.0000 0.5373 0.4824);fill-opacity:1;"/>
<path d="M7.04039 8.11163C7.01573 8.04263 6.98306 7.95796 6.87773 7.90863C6.82439 7.88396 6.76306 7.88763 6.71773 7.9203C6.66839 7.9543 6.64206 8.0153 6.64873 8.08163C6.66039 8.21963 6.82706 8.3343 7.02773 8.34196H7.03539L7.13839 8.2093L7.11106 8.20396C7.07573 8.19896 7.06239 8.16763 7.04039 8.11163ZM7.01973 8.3083C6.84006 8.29796 6.69173 8.19896 6.68106 8.07896C6.67573 8.02296 6.69673 7.97463 6.73706 7.9473C6.75673 7.93296 6.78139 7.9253 6.80606 7.9253C6.82573 7.9253 6.84506 7.9293 6.86339 7.9383C6.95706 7.98263 6.98439 8.05663 7.00939 8.1233C7.02773 8.16896 7.04339 8.21196 7.08106 8.22996L7.01973 8.3083Z" fill="#00695C" style="fill:#00695C;fill:color(display-p3 0.0000 0.4118 0.3608);fill-opacity:1;"/>
<path d="M7.10404 8.18468C6.97004 8.27335 7.01304 8.37735 7.05071 8.42301C7.10404 8.48668 7.34504 8.52735 7.51304 8.47135L7.53271 8.36201C7.44004 8.26935 7.23837 8.09601 7.10404 8.18468Z" fill="#00897B" style="fill:#00897B;fill:color(display-p3 0.0000 0.5373 0.4824);fill-opacity:1;"/>
<path d="M7.09501 8.17226C7.03768 8.20993 7.00501 8.25426 6.99735 8.30393C6.98835 8.3676 7.02601 8.41993 7.03768 8.43426C7.07668 8.48126 7.20035 8.51493 7.33068 8.51493C7.39435 8.51493 7.46101 8.50726 7.51835 8.4876L7.52735 8.4836L7.54935 8.35726L7.54268 8.3506C7.45835 8.2646 7.24335 8.07326 7.09501 8.17226ZM7.49868 8.4586C7.33468 8.50793 7.10935 8.4676 7.06235 8.4116C7.05335 8.39993 7.02335 8.3596 7.03101 8.3086C7.03635 8.26826 7.06368 8.23193 7.11301 8.19926C7.13501 8.1836 7.16135 8.17726 7.18735 8.17726C7.30968 8.17726 7.45701 8.31126 7.51401 8.36726L7.49868 8.4586Z" fill="#00695C" style="fill:#00695C;fill:color(display-p3 0.0000 0.4118 0.3608);fill-opacity:1;"/>
<path d="M7.58203 8.28865C7.4337 8.38099 7.48703 8.51799 7.57437 8.58299C7.66303 8.64665 7.9337 8.61932 8.05237 8.58699C8.17103 8.55465 8.20203 8.49465 8.1827 8.41365C7.91403 8.30165 7.73037 8.19765 7.58203 8.28865Z" fill="#00897B" style="fill:#00897B;fill:color(display-p3 0.0000 0.5373 0.4824);fill-opacity:1;"/>
<path d="M8.19666 8.40264L8.18899 8.39864C8.15399 8.38431 8.11866 8.36864 8.08466 8.35431C7.86733 8.25931 7.70966 8.19164 7.57299 8.27497C7.49233 8.32564 7.47399 8.38564 7.47133 8.42597C7.46866 8.48864 7.50533 8.55364 7.56366 8.59664C7.60666 8.62797 7.68466 8.63831 7.76666 8.63831C7.87733 8.63831 7.99699 8.61997 8.05566 8.60331C8.17399 8.57197 8.22099 8.50831 8.19766 8.41064L8.19666 8.40264ZM8.04833 8.57197C7.93366 8.60331 7.66666 8.63064 7.58466 8.57064C7.54433 8.54064 7.50266 8.48864 7.50533 8.42731C7.50799 8.38031 7.53666 8.33731 7.59133 8.30364C7.62766 8.28164 7.66799 8.27097 7.71099 8.27097C7.80999 8.27097 7.92699 8.32164 8.07166 8.38564C8.10299 8.39864 8.13433 8.41297 8.16799 8.42597C8.17833 8.47831 8.17066 8.53797 8.04833 8.57197Z" fill="#00695C" style="fill:#00695C;fill:color(display-p3 0.0000 0.4118 0.3608);fill-opacity:1;"/>
<path d="M8.7734 8.45702C8.73307 8.51035 8.74073 8.55735 8.59507 8.55069C8.5794 8.58069 8.55073 8.60935 8.49207 8.63269C8.51673 8.63669 8.58573 8.66135 8.7044 8.69902C8.82273 8.73802 8.90107 8.72002 9.01573 8.65335C9.1304 8.58669 9.11207 8.47769 9.01573 8.39802C8.9284 8.32435 8.81507 8.39835 8.7734 8.45702Z" fill="#00897B" style="fill:#00897B;fill:color(display-p3 0.0000 0.5373 0.4824);fill-opacity:1;"/>
<path d="M8.91265 8.35184C8.84899 8.35951 8.78899 8.40518 8.75899 8.44684C8.75132 8.45718 8.74599 8.46784 8.73932 8.47818C8.71732 8.51584 8.70532 8.53818 8.59465 8.53551L8.58432 8.53418L8.57899 8.54451C8.56332 8.57451 8.53332 8.59918 8.48532 8.61884L8.42932 8.64084L8.48932 8.64984C8.50632 8.65251 8.55065 8.66684 8.61565 8.68884L8.69899 8.71618C8.74199 8.72918 8.78099 8.73584 8.81632 8.73584C8.88799 8.73584 8.95032 8.71118 9.02332 8.66818C9.08965 8.63051 9.10799 8.58218 9.11065 8.54984C9.11599 8.49518 9.08465 8.43518 9.02599 8.38584C8.99332 8.35818 8.95165 8.34651 8.91265 8.35184ZM9.00665 8.63951C8.88932 8.70851 8.81665 8.71884 8.70965 8.68384L8.62632 8.65784C8.59132 8.64618 8.56132 8.63584 8.53899 8.62918C8.56899 8.61218 8.58965 8.59284 8.60399 8.56784C8.60932 8.56784 8.61299 8.56784 8.61832 8.56784C8.71732 8.56784 8.74199 8.53918 8.76799 8.49351C8.77332 8.48451 8.77832 8.47518 8.78632 8.46618C8.81099 8.43218 8.86199 8.39184 8.91665 8.38418C8.95065 8.38018 8.97899 8.38951 9.00532 8.41018C9.05465 8.45318 9.08099 8.50251 9.07832 8.54551C9.07432 8.58218 9.04932 8.61484 9.00665 8.63951Z" fill="#00695C" style="fill:#00695C;fill:color(display-p3 0.0000 0.4118 0.3608);fill-opacity:1;"/>
<path d="M8.19802 8.40229C8.02235 8.44662 8.01035 8.64695 8.00269 8.88029C8.00269 8.89729 8.03669 8.89729 8.10569 8.89729C8.17469 8.89729 8.21102 8.90129 8.21002 8.87262C8.22035 8.57962 8.63835 8.75662 8.60702 8.47029C8.59235 8.34229 8.37369 8.35795 8.19802 8.40229Z" fill="#00897B" style="fill:#00897B;fill:color(display-p3 0.0000 0.5373 0.4824);fill-opacity:1;"/>
<path d="M8.19272 8.38555C8.00005 8.43488 7.99205 8.66155 7.98572 8.88022C7.98572 8.91288 8.02338 8.91288 8.10538 8.91288L8.12738 8.91422C8.13405 8.91422 8.14038 8.91422 8.14572 8.91422C8.18072 8.91422 8.20438 8.91155 8.21605 8.89855C8.22138 8.89322 8.22638 8.88555 8.22505 8.87255C8.23038 8.73988 8.32672 8.71355 8.42672 8.68488C8.52572 8.65755 8.64038 8.62622 8.62205 8.46888C8.61938 8.43488 8.60238 8.40888 8.57505 8.38955C8.48172 8.32455 8.27738 8.36622 8.19272 8.38555ZM8.41805 8.65388C8.31505 8.68122 8.19938 8.71388 8.19272 8.87255V8.87655C8.18605 8.88055 8.15772 8.88055 8.12905 8.88055H8.10572C8.06805 8.88055 8.03138 8.88055 8.01972 8.87655C8.02738 8.62522 8.04572 8.45722 8.20205 8.41955C8.36605 8.37788 8.48472 8.35322 8.55738 8.41688C8.57572 8.43255 8.58738 8.44955 8.59005 8.47288C8.60405 8.60188 8.52205 8.62388 8.41805 8.65388Z" fill="#00695C" style="fill:#00695C;fill:color(display-p3 0.0000 0.4118 0.3608);fill-opacity:1;"/>
<path d="M9.06006 8.37774C9.00673 8.41274 8.99239 8.45441 9.00806 8.48708C9.02373 8.51841 9.08873 8.51041 9.13039 8.48441C9.17206 8.45841 9.19806 8.40641 9.17873 8.37374C9.15906 8.34241 9.10406 8.35041 9.06006 8.37774Z" fill="#EF5350" style="fill:#EF5350;fill:color(display-p3 0.9373 0.3255 0.3137);fill-opacity:1;"/>
<path d="M9.22668 8.31545L9.24368 8.33245L9.30869 8.26212L9.29168 8.24512L9.22668 8.31545Z" fill="#FBC02D" style="fill:#FBC02D;fill:color(display-p3 0.9843 0.7529 0.1765);fill-opacity:1;"/>
<path d="M9.28498 8.24905C9.29665 8.28938 9.36065 8.27371 9.34865 8.22938C9.33732 8.18805 9.27332 8.20605 9.28498 8.24905Z" fill="#FBC02D" style="fill:#FBC02D;fill:color(display-p3 0.9843 0.7529 0.1765);fill-opacity:1;"/>
<path d="M9.23169 8.37402C9.25636 8.35969 9.26436 8.34002 9.25003 8.31802C9.23569 8.29702 9.22003 8.29836 9.20069 8.31036C9.20736 8.29336 9.20836 8.27636 9.19169 8.26602C9.16436 8.24769 9.15136 8.26069 9.12903 8.29869C9.10669 8.33669 9.11469 8.35736 9.13036 8.36636C9.13936 8.37169 9.14603 8.36902 9.15369 8.36636C9.15369 8.37402 9.15236 8.38069 9.15636 8.38602C9.16169 8.39369 9.16803 8.39369 9.17469 8.39369C9.16936 8.40136 9.16703 8.41069 9.16803 8.41836C9.17203 8.44302 9.19136 8.44702 9.23169 8.44569C9.26303 8.44302 9.28503 8.43269 9.28103 8.40269C9.27603 8.37536 9.26036 8.37136 9.23169 8.37402Z" fill="#E53935" style="fill:#E53935;fill:color(display-p3 0.8980 0.2235 0.2078);fill-opacity:1;"/>
<path d="M7.30339 8.13184C7.24605 8.17217 7.23039 8.2515 7.26172 8.3025C7.29439 8.35317 7.34639 8.33884 7.37639 8.3025C7.40639 8.26617 7.40105 8.18017 7.38405 8.15017L7.30339 8.13184Z" fill="#EF5350" style="fill:#EF5350;fill:color(display-p3 0.9373 0.3255 0.3137);fill-opacity:1;"/>
<path d="M7.34241 8.09595L7.36441 8.10362L7.38907 8.00729L7.36707 8.00195L7.34241 8.09595Z" fill="#FBC02D" style="fill:#FBC02D;fill:color(display-p3 0.9843 0.7529 0.1765);fill-opacity:1;"/>
<path d="M7.38171 7.95801C7.34005 7.95801 7.34005 8.02701 7.38171 8.02701C7.42205 8.02701 7.42438 7.95801 7.38171 7.95801Z" fill="#FBC02D" style="fill:#FBC02D;fill:color(display-p3 0.9843 0.7529 0.1765);fill-opacity:1;"/>
<path d="M7.392 8.05244C7.371 8.05244 7.36066 8.06944 7.35933 8.08644C7.358 8.08644 7.35533 8.08644 7.354 8.08644C7.36166 8.06544 7.354 8.03711 7.32533 8.03711C7.294 8.03711 7.28633 8.07344 7.29933 8.09444C7.289 8.08778 7.281 8.07744 7.27833 8.06311C7.242 8.10078 7.27566 8.16078 7.32533 8.14778C7.32933 8.15544 7.33066 8.16344 7.33966 8.16611C7.35266 8.17011 7.363 8.16744 7.37366 8.15844C7.39833 8.18044 7.44933 8.16111 7.45033 8.10644C7.44266 8.11044 7.42833 8.11411 7.41133 8.11544C7.43233 8.09678 7.42833 8.05244 7.392 8.05244Z" fill="#E53935" style="fill:#E53935;fill:color(display-p3 0.8980 0.2235 0.2078);fill-opacity:1;"/>
<path d="M8.59905 6.12609C8.46105 6.04676 8.30205 6.01409 8.14605 6.00243C8.02372 5.99209 7.96639 6.01543 7.94939 6.05976C7.85572 6.06243 7.82705 6.10276 7.80239 6.15476C7.75405 6.25509 7.84805 6.26676 7.92872 6.27709C8.00939 6.28743 8.09805 6.38009 8.06805 6.50876C8.03305 6.44876 7.99139 6.39043 7.92105 6.36943C7.93539 6.36176 7.94839 6.35243 7.95505 6.34476C7.97472 6.32776 7.98105 6.31343 7.92105 6.32776C7.86239 6.34076 7.74905 6.24709 7.66972 6.29509C7.67105 6.27676 7.67105 6.26109 7.66972 6.24943C7.66072 6.17643 7.64872 6.21309 7.63205 6.25343C7.62305 6.27543 7.60739 6.29376 7.58639 6.30809C7.58639 6.27409 7.58239 6.24176 7.57872 6.21709C7.57105 6.17276 7.55539 6.19876 7.55405 6.24976C7.55272 6.27309 7.54739 6.30443 7.53839 6.33709C7.52139 6.34609 7.50705 6.35276 7.49139 6.36176C7.49405 6.33976 7.49405 6.32143 7.48472 6.26943C7.47705 6.21743 7.45472 6.24743 7.45605 6.27709C7.45739 6.30676 7.44705 6.38509 7.41972 6.42543C7.42639 6.40209 7.42505 6.37076 7.41439 6.33443C7.40272 6.28876 7.38972 6.29143 7.39239 6.33843C7.39372 6.38143 7.34305 6.44143 7.29605 6.47643C7.23472 6.52209 7.22439 6.55076 7.25172 6.58309C7.32839 6.67043 7.55772 6.64043 7.59405 6.64943C7.60972 6.65343 7.62405 6.65976 7.62405 6.68576C7.62405 6.70009 7.62939 6.70409 7.64239 6.69476C7.63572 6.72876 7.62272 6.76776 7.60339 6.79243C7.58639 6.81443 7.59172 6.81709 7.61639 6.81709C7.59939 6.87576 7.54072 6.92643 7.53305 6.96409C7.52905 6.98376 7.53305 6.99676 7.55005 7.00043C7.52905 7.07609 7.47705 7.11243 7.48105 7.18909C7.48505 7.26576 7.54239 7.36243 7.53439 7.40776C7.52772 7.44809 7.55905 7.44276 7.58272 7.42743C7.59572 7.44176 7.61005 7.45743 7.62305 7.47176C7.60739 7.51209 7.67639 7.63443 7.73239 7.70343C7.69205 7.68143 7.64772 7.66443 7.63472 7.67876C7.62439 7.69043 7.65039 7.74509 7.70772 7.79476C7.64272 7.83909 7.52939 7.90676 7.53205 7.94076C7.53339 7.97576 7.61139 7.99409 7.69872 8.00576C7.67405 8.04476 7.67672 8.07609 7.74572 8.06943C7.81072 8.06276 7.87972 8.03043 7.91639 8.01209C7.94905 8.05643 7.98539 8.06809 7.99839 7.92743C8.01272 7.94843 8.02439 7.96509 8.03472 7.97943C8.07639 8.04443 8.09972 8.07709 8.11672 8.05743C8.15972 8.12243 8.18305 8.15509 8.20005 8.19143C8.21839 8.22776 8.25472 8.25909 8.27172 8.14976C8.28472 8.17309 8.29639 8.19276 8.30572 8.20976C8.33039 8.25276 8.36939 8.24743 8.38639 8.15643C8.40739 8.19409 8.43205 8.21643 8.43705 8.10309C8.45139 8.14209 8.48539 8.20076 8.48005 8.09543C8.56339 8.18009 8.57905 8.19176 8.60772 8.22043C8.63639 8.24776 8.67805 8.25443 8.70939 8.22309C8.76405 8.27509 8.82772 8.26076 8.85272 8.22043C8.90739 8.26476 8.99739 8.22809 9.01172 8.18009C9.03139 8.19443 9.05472 8.19443 9.10672 8.19176C9.17705 8.18909 9.25139 8.15909 9.15872 8.09143C8.95939 7.94676 8.63405 7.72543 8.50105 7.62143C8.49572 7.52376 8.48672 7.40143 8.45539 7.29576C8.50605 7.36343 8.54539 7.37776 8.58305 7.38809C8.62072 7.39709 8.63239 7.37376 8.69372 7.48043C8.72239 7.52976 8.73405 7.54809 8.76405 7.57676C8.79539 7.60409 8.80439 7.59243 8.77172 7.52209C8.74039 7.45176 8.67672 7.35943 8.61939 7.29043C8.67672 7.35309 8.67805 7.35176 8.73005 7.37243C8.78205 7.39443 8.82772 7.45176 8.84739 7.51443C8.86572 7.57576 8.90205 7.64209 8.91372 7.66676C8.92539 7.69009 8.94239 7.67976 8.92939 7.61843C8.91505 7.55076 8.88105 7.44643 8.84872 7.38276C8.89439 7.43109 8.95305 7.47509 8.96072 7.56109C8.96739 7.64843 8.98939 7.71609 9.01005 7.75243C9.03072 7.78876 9.03872 7.76009 9.03605 7.70409C9.03472 7.64809 9.02039 7.52976 8.99705 7.43076C9.03339 7.49076 9.05705 7.54276 9.06072 7.57776C9.07639 7.70409 9.13105 7.78076 9.13105 7.92143C9.13105 7.96976 9.16105 8.04376 9.17005 7.95143C9.18305 7.81876 9.13739 7.56743 9.13605 7.43709C9.15305 7.47209 9.16739 7.51009 9.17372 7.55676C9.18805 7.68176 9.23105 7.75843 9.23639 7.89543C9.24172 8.03243 9.26772 8.11043 9.28205 8.01909C9.33139 7.70776 9.25205 7.57776 9.26905 7.35909C9.29639 7.39809 9.32105 7.44109 9.32105 7.48943C9.31839 7.83709 9.35372 7.88909 9.35372 8.05443C9.35372 8.11443 9.36139 8.20276 9.39939 8.07276C9.43972 7.93209 9.43972 7.72643 9.43972 7.60409C9.43872 6.59343 8.73705 6.20676 8.59905 6.12609Z" fill="#AD6119" style="fill:#AD6119;fill:color(display-p3 0.6784 0.3804 0.0980);fill-opacity:1;"/>
<path d="M8.59905 6.12609C8.46105 6.04676 8.30205 6.01409 8.14605 6.00243C8.02372 5.99209 7.96639 6.01543 7.94939 6.05976C7.85572 6.06243 7.82705 6.10276 7.80239 6.15476C7.75405 6.25509 7.84805 6.26676 7.92872 6.27709C7.96372 6.28109 8.00172 6.28476 8.13172 6.27576C8.24239 6.26809 8.32439 6.25876 8.42339 6.28609C8.63939 6.34609 8.83739 6.53076 8.97039 6.69876C9.12539 6.89276 9.26872 7.36143 9.26872 7.36143C9.29605 7.40043 9.32072 7.44343 9.32072 7.49043C9.31805 7.83809 9.35339 7.89143 9.35339 8.05543C9.35339 8.11676 9.36105 8.20376 9.39905 8.07376C9.43939 7.93309 9.43939 7.72743 9.43939 7.60509C9.43872 6.59343 8.73705 6.20676 8.59905 6.12609Z" fill="#C47529" style="fill:#C47529;fill:color(display-p3 0.7686 0.4588 0.1608);fill-opacity:1;"/>
<path d="M7.73037 7.70466C7.69137 7.68266 7.64704 7.66699 7.63404 7.68132C7.62371 7.69165 7.64971 7.74632 7.70704 7.79599C7.64204 7.84032 7.52871 7.90799 7.53004 7.94199C7.53271 7.97699 7.60937 7.99532 7.69804 8.00832C7.67204 8.04599 7.67471 8.07732 7.74504 8.07099C7.81004 8.06565 7.87904 8.03199 7.91437 8.01366C7.94704 8.05932 7.98471 8.07099 7.99771 7.92899C8.00537 7.94065 7.98471 7.87165 7.91437 7.77399C7.82171 7.68265 7.67704 7.63832 7.73037 7.70466Z" fill="#9E5817" style="fill:#9E5817;fill:color(display-p3 0.6196 0.3451 0.0902);fill-opacity:1;"/>
<path d="M8.21738 7.86715C8.08338 7.90615 8.10404 8.07149 8.11438 8.05849C8.15871 8.12482 8.18204 8.15749 8.19904 8.19249C8.21604 8.22882 8.25238 8.26015 8.26938 8.15215C8.28371 8.17549 8.29404 8.19515 8.30438 8.21082C8.32904 8.25382 8.36804 8.24849 8.38504 8.15749C8.40604 8.19649 8.42938 8.21749 8.43571 8.10549C8.44871 8.14315 8.48404 8.20182 8.47738 8.09649C8.56204 8.18115 8.51504 8.01715 8.42538 7.93515C8.41138 7.92049 8.36838 7.85782 8.21738 7.86715Z" fill="#C47529" style="fill:#C47529;fill:color(display-p3 0.7686 0.4588 0.1608);fill-opacity:1;"/>
<path d="M7.40105 6.45317L7.30605 6.5575C7.30338 6.57584 7.33872 6.57717 7.36605 6.57183C7.39338 6.5665 7.42605 6.54183 7.42972 6.51183C7.43338 6.48183 7.42438 6.45183 7.40105 6.45317Z" fill="white" style="fill:white;fill-opacity:1;"/>
<path d="M7.36967 6.60648C7.32133 6.56481 7.26433 6.59881 7.23933 6.56348C7.21467 6.56481 7.191 6.59214 7.20667 6.61948C7.12333 6.67148 7.118 6.77448 7.15733 6.83548C7.19 6.88614 7.27467 6.88381 7.29667 6.87981C7.25367 6.86414 7.234 6.76014 7.255 6.73148C7.276 6.70414 7.32 6.64681 7.427 6.76548C7.462 6.73148 7.496 6.70181 7.52867 6.69914C7.57033 6.69781 7.61333 6.65748 7.586 6.62114C7.55867 6.58481 7.41133 6.64314 7.36967 6.60648Z" fill="#FBC02D" style="fill:#FBC02D;fill:color(display-p3 0.9843 0.7529 0.1765);fill-opacity:1;"/>
<path d="M8.60798 8.30956C8.51565 8.31089 8.44531 8.25223 8.38531 8.15723C8.37365 8.23923 8.32665 8.26789 8.29531 8.19489C8.30831 8.24423 8.22365 8.28356 8.17798 8.26523C8.13231 8.24689 8.07898 8.26656 8.07898 8.32889C8.07898 8.36923 8.09731 8.40323 8.13765 8.41356C8.12998 8.44356 8.16631 8.48656 8.21065 8.48789C8.25498 8.49056 8.29131 8.45023 8.29131 8.40589C8.34998 8.41756 8.43598 8.35389 8.49965 8.39556C8.51665 8.44623 8.56865 8.45556 8.62731 8.42156C8.68731 8.38756 8.66131 8.30823 8.60798 8.30956Z" fill="#FBC02D" style="fill:#FBC02D;fill:color(display-p3 0.9843 0.7529 0.1765);fill-opacity:1;"/>
<path d="M8.13539 8.40891C8.07939 8.42058 8.06506 8.50658 8.14072 8.54058C8.11472 8.49224 8.19272 8.48191 8.19272 8.45724C8.19272 8.43358 8.19139 8.39591 8.13539 8.40891Z" fill="#212121" style="fill:#212121;fill:color(display-p3 0.1294 0.1294 0.1294);fill-opacity:1;"/>
<path d="M8.06138 8.29305C8.00405 8.29438 7.96105 8.37772 8.01972 8.42205C8.00538 8.35305 8.07305 8.38572 8.09405 8.37005C8.11338 8.35538 8.11838 8.29038 8.06138 8.29305Z" fill="#212121" style="fill:#212121;fill:color(display-p3 0.1294 0.1294 0.1294);fill-opacity:1;"/>
<path d="M8.6197 8.38265C8.60804 8.39565 8.59237 8.43198 8.61837 8.44898C8.64304 8.46598 8.6457 8.49065 8.6237 8.51798C8.7057 8.50765 8.71237 8.44365 8.6927 8.40465C8.67337 8.36732 8.6327 8.36965 8.6197 8.38265Z" fill="#212121" style="fill:#212121;fill:color(display-p3 0.1294 0.1294 0.1294);fill-opacity:1;"/>
<path d="M7.55463 7.68463C7.52463 7.64163 7.40097 7.68063 7.33963 7.67297C7.2903 7.66263 7.2523 7.68997 7.2473 7.72763C7.21864 7.72363 7.1953 7.74063 7.18464 7.77963C7.16897 7.78097 7.15063 7.79397 7.15063 7.81997C7.15063 7.84597 7.1703 7.9033 7.19997 7.93197C7.2313 7.96197 7.24297 7.94363 7.25863 7.91363C7.27297 7.9203 7.28997 7.9163 7.31063 7.8953C7.32097 7.8953 7.3353 7.88997 7.3523 7.87697C7.38997 7.9003 7.41997 7.91463 7.43297 7.93163C7.44597 7.94997 7.46563 7.94597 7.50463 7.90697C7.5683 7.91463 7.68297 7.93563 7.74797 7.9513C7.77797 7.9253 7.81963 7.90963 7.84563 7.90297C7.74263 7.87163 7.63063 7.8393 7.59297 7.82363C7.63663 7.77963 7.57663 7.71563 7.55463 7.68463Z" fill="#FBC02D" style="fill:#FBC02D;fill:color(display-p3 0.9843 0.7529 0.1765);fill-opacity:1;"/>
<path d="M7.31003 7.89226C7.30336 7.9026 7.28669 7.91693 7.25936 7.91426C7.25269 7.92593 7.24236 7.9416 7.22803 7.94693C7.23469 7.96393 7.27869 7.96126 7.30236 7.9416C7.35169 7.95593 7.38036 7.93393 7.38036 7.9326C7.39336 7.9326 7.40636 7.9286 7.42069 7.9196C7.39969 7.9026 7.37003 7.88693 7.35303 7.87793C7.34103 7.88693 7.32569 7.89093 7.31003 7.89226Z" fill="#212121" style="fill:#212121;fill:color(display-p3 0.1294 0.1294 0.1294);fill-opacity:1;"/>
<path d="M7.30332 7.77747C7.30465 7.80747 7.33065 7.81147 7.35665 7.8048C7.37365 7.79947 7.37865 7.78513 7.37765 7.7488C7.37632 7.70047 7.39332 7.6838 7.40632 7.6498C7.32032 7.64347 7.29932 7.71613 7.30332 7.77747Z" fill="#212121" style="fill:#212121;fill:color(display-p3 0.1294 0.1294 0.1294);fill-opacity:1;"/>
<path d="M7.02198 6.62216C7.05198 6.6155 7.04798 6.63783 7.12232 6.59616C7.14965 6.5805 7.18232 6.5285 7.17432 6.50883C7.14032 6.5465 7.06632 6.58816 7.03898 6.56483C7.01298 6.54016 7.03365 6.50616 7.06365 6.47483C7.09498 6.44216 7.11432 6.38383 7.12098 6.3575C7.13932 6.29616 7.11065 6.3145 7.08198 6.34183C7.05332 6.36783 6.99865 6.40816 6.94398 6.44216C6.88798 6.47616 6.88132 6.5165 6.90365 6.57483C6.91932 6.61516 6.92465 6.6555 6.92698 6.69316C6.92832 6.73083 6.97532 6.83116 7.13532 6.7675C7.13798 6.7675 7.13265 6.75183 7.13665 6.72716C7.14565 6.66983 7.18365 6.6425 7.17832 6.6425C7.11598 6.64183 7.02865 6.65983 7.02198 6.62216Z" fill="#558B2F" style="fill:#558B2F;fill:color(display-p3 0.3333 0.5451 0.1843);fill-opacity:1;"/>
<path d="M7.31231 6.69424C7.25631 6.70458 7.24064 6.74491 7.24731 6.78524C7.29931 6.82424 7.32164 6.89724 7.26698 6.94158C7.08998 7.07824 6.92464 7.21624 7.00131 7.46258C7.05864 7.64891 7.21098 7.61491 7.26298 7.61624L7.16931 7.45358C7.08864 7.33258 7.11331 7.24658 7.31398 7.08758C7.50931 6.93524 7.46631 6.84424 7.42731 6.76591C7.41131 6.74758 7.35398 6.68524 7.31231 6.69424Z" fill="#558B2F" style="fill:#558B2F;fill:color(display-p3 0.3333 0.5451 0.1843);fill-opacity:1;"/>
<path d="M7.15106 7.82072C7.1354 7.82072 7.1224 7.82838 7.11206 7.82205C7.0364 7.77505 7.07173 7.61238 6.9624 7.56805C6.8544 7.52372 6.8674 7.46905 6.90106 7.39472C6.93606 7.32038 6.9244 7.10572 6.73973 7.10172C6.5534 7.09772 6.6864 7.17205 6.74506 7.20205C6.80506 7.23338 6.84273 7.26838 6.81273 7.35972C6.7814 7.44972 6.7334 7.56038 6.85173 7.64872C6.92973 7.70738 6.95473 7.72672 6.97273 7.82705C6.99873 7.97805 7.1054 8.03805 7.2294 7.94672C7.19006 7.94038 7.15906 7.87405 7.15106 7.82072Z" fill="#558B2F" style="fill:#558B2F;fill:color(display-p3 0.3333 0.5451 0.1843);fill-opacity:1;"/>
<path d="M6.59633 7.08211C6.565 7.09111 6.55867 7.10177 6.586 7.12644C6.60433 7.14344 6.58867 7.17977 6.629 7.19011C6.664 7.20044 6.67467 7.16144 6.66533 7.14711C6.66 7.13544 6.66533 7.11311 6.67567 7.10544C6.68867 7.09377 6.699 7.05711 6.664 7.04811C6.62233 7.03644 6.621 7.07444 6.59633 7.08211Z" fill="#FBC02D" style="fill:#FBC02D;fill:color(display-p3 0.9843 0.7529 0.1765);fill-opacity:1;"/>
<path d="M6.64333 7.09347C6.612 7.1038 6.60566 7.11447 6.633 7.13914C6.65133 7.15614 6.63566 7.19114 6.676 7.2028C6.71233 7.21314 6.72166 7.17414 6.71233 7.15847C6.707 7.14814 6.71233 7.1258 6.72266 7.1168C6.73566 7.10647 6.746 7.0698 6.711 7.0608C6.67066 7.04914 6.668 7.08714 6.64333 7.09347Z" fill="#FBC02D" style="fill:#FBC02D;fill:color(display-p3 0.9843 0.7529 0.1765);fill-opacity:1;"/>
<path d="M6.69139 7.10704C6.66005 7.11738 6.65239 7.12804 6.67972 7.15271C6.69939 7.16971 6.68239 7.20471 6.72406 7.21638C6.75906 7.22671 6.76839 7.18771 6.76039 7.17204C6.75372 7.16171 6.75906 7.13938 6.77072 7.13038C6.78372 7.12004 6.79406 7.08338 6.75906 7.07438C6.71739 7.06304 6.71506 7.10071 6.69139 7.10704Z" fill="#FBC02D" style="fill:#FBC02D;fill:color(display-p3 0.9843 0.7529 0.1765);fill-opacity:1;"/>
<path d="M7.31233 6.68952C7.285 6.69085 7.259 6.71819 7.25 6.74285C7.38167 6.76252 7.45967 6.96952 7.33733 7.06852C7.50667 6.92652 7.48833 6.82752 7.42733 6.76519C7.41133 6.74685 7.35533 6.68719 7.31233 6.68952Z" fill="#827717" style="fill:#827717;fill:color(display-p3 0.5098 0.4667 0.0902);fill-opacity:1;"/>
<path d="M7.17703 7.43819C7.1327 7.39786 7.1157 7.31853 7.1497 7.25586C7.06903 7.36119 7.0547 7.60619 7.25636 7.61519C7.34503 7.61919 7.41137 7.62553 7.40603 7.64919C7.40337 7.65953 7.37103 7.69486 7.37737 7.76119C7.39303 7.75986 7.41137 7.76253 7.41903 7.77286C7.43203 7.78986 7.4257 7.81319 7.43203 7.82353C7.49203 7.79753 7.59603 7.73353 7.53636 7.57753C7.4597 7.38119 7.25137 7.50719 7.17703 7.43819Z" fill="#827717" style="fill:#827717;fill:color(display-p3 0.5098 0.4667 0.0902);fill-opacity:1;"/>
<path d="M7.43741 6.66644C7.40474 6.68077 7.36841 6.71077 7.36841 6.71077L7.40107 6.73811C7.40107 6.73811 7.44808 6.69911 7.47408 6.69244C7.50141 6.68577 7.50141 6.66111 7.49374 6.65744C7.48574 6.65477 7.46241 6.65611 7.43741 6.66644Z" fill="#827717" style="fill:#827717;fill:color(display-p3 0.5098 0.4667 0.0902);fill-opacity:1;"/>
<path d="M7.34236 6.50663C7.32803 6.51963 7.30969 6.55363 7.30969 6.55363C7.30969 6.55363 7.33436 6.56129 7.35669 6.55763C7.37903 6.55396 7.39569 6.54596 7.40736 6.52263C7.42303 6.48996 7.39303 6.45996 7.39303 6.45996C7.39303 6.45996 7.35669 6.49329 7.34236 6.50663Z" fill="#EF6C00" style="fill:#EF6C00;fill:color(display-p3 0.9373 0.4235 0.0000);fill-opacity:1;"/>
<path d="M7.32803 6.51785C7.3267 6.53218 7.3697 6.53218 7.37737 6.51118C7.38637 6.48518 7.3707 6.47852 7.3707 6.47852L7.32803 6.51785Z" fill="#212121" style="fill:#212121;fill:color(display-p3 0.1294 0.1294 0.1294);fill-opacity:1;"/>
<path d="M7.35404 6.51253C7.35404 6.51653 7.35137 6.51919 7.34871 6.51919C7.34471 6.51919 7.34204 6.51653 7.34204 6.51253C7.34204 6.50853 7.34471 6.50586 7.34871 6.50586C7.35171 6.50619 7.35404 6.50853 7.35404 6.51253Z" fill="white" style="fill:white;fill-opacity:1;"/>
<path d="M7.14469 6.40282C7.10569 6.38715 7.10969 6.38982 7.10969 6.38982L7.09802 6.41982C7.11902 6.41582 7.20336 6.45115 7.20336 6.45115C7.20336 6.45115 7.18369 6.41849 7.14469 6.40282Z" fill="#827717" style="fill:#827717;fill:color(display-p3 0.5098 0.4667 0.0902);fill-opacity:1;"/>
<path d="M7.01306 6.43673C7.01306 6.44207 7.01839 6.44573 7.02339 6.44573C7.02839 6.44573 7.03239 6.44173 7.03239 6.43673C7.03239 6.43173 7.02839 6.42773 7.02339 6.42773C7.01839 6.42773 7.01306 6.4314 7.01306 6.43673Z" fill="#212121" style="fill:#212121;fill:color(display-p3 0.1294 0.1294 0.1294);fill-opacity:1;"/>
<defs>
<linearGradient id="paint0_linear_2503_12436" x1="6.87504" y1="4.20034" x2="10.0614" y2="14.96" gradientUnits="userSpaceOnUse">
<stop stop-color="#DFE9F2" style="stop-color:#DFE9F2;stop-color:color(display-p3 0.8745 0.9137 0.9490);stop-opacity:1;"/>
<stop offset="0.998" stop-color="#9EA7B0" style="stop-color:#9EA7B0;stop-color:color(display-p3 0.6196 0.6549 0.6902);stop-opacity:1;"/>
</linearGradient>
<linearGradient id="paint1_linear_2503_12436" x1="10.4194" y1="4.28893" x2="13.4587" y2="12.6406" gradientUnits="userSpaceOnUse">
<stop offset="0.008" stop-color="#F44F5A" style="stop-color:#F44F5A;stop-color:color(display-p3 0.9569 0.3098 0.3529);stop-opacity:1;"/>
<stop offset="0.447" stop-color="#EE3D4A" style="stop-color:#EE3D4A;stop-color:color(display-p3 0.9333 0.2392 0.2902);stop-opacity:1;"/>
<stop offset="1" stop-color="#E52030" style="stop-color:#E52030;stop-color:color(display-p3 0.8980 0.1255 0.1882);stop-opacity:1;"/>
</linearGradient>
<linearGradient id="paint2_linear_2503_12436" x1="2.80437" y1="3.02693" x2="4.95671" y2="12.3859" gradientUnits="userSpaceOnUse">
<stop stop-color="#21AD64" style="stop-color:#21AD64;stop-color:color(display-p3 0.1294 0.6784 0.3922);stop-opacity:1;"/>
<stop offset="1" stop-color="#088242" style="stop-color:#088242;stop-color:color(display-p3 0.0314 0.5098 0.2588);stop-opacity:1;"/>
</linearGradient>
</defs>
</svg>
