<svg width="18" height="18" viewBox="0 0 18 18" fill="none" xmlns="http://www.w3.org/2000/svg">
<g clip-path="url(#clip0_11169_6193)">
<path d="M9 0C4.02944 0 0 4.02944 0 9C0 13.9706 4.02944 18 9 18C13.9706 18 18 13.9706 18 9C18 4.02944 13.9706 0 9 0Z" fill="black"/>
<path fill-rule="evenodd" clip-rule="evenodd" d="M11.5071 12.0536H6.46067C6.26782 12.0536 6.1071 12.0214 5.91425 11.925C5.68925 11.8286 5.56067 11.6679 5.49639 11.5393C5.49639 11.5393 5.49639 11.5072 5.46425 11.5072C5.36782 11.3464 5.30353 11.1536 5.30353 10.9286C5.30353 10.7357 5.33568 10.5429 5.46425 10.35L8.64639 4.88573C8.71067 4.75716 8.83925 4.69287 8.99996 4.69287C9.12853 4.69287 9.2571 4.75716 9.35353 4.88573L12.4714 10.35C12.5357 10.4786 12.6642 10.6393 12.6642 10.8964C12.6964 11.1214 12.6321 11.3143 12.5357 11.5072C12.4392 11.7 12.2785 11.8607 12.0535 11.925C11.8607 12.0536 11.6357 12.0536 11.5071 12.0536ZM9.38567 11.2822H11.5071C11.6357 11.2822 11.7 11.2822 11.7321 11.25C11.7964 11.2179 11.8285 11.1857 11.8607 11.1214C11.8928 11.0893 11.8928 11.025 11.8928 10.9607C11.8928 10.9286 11.8607 10.8964 11.7964 10.7679L9.38567 6.5893V11.2822ZM8.61425 11.2822V6.55716L6.17139 10.7679C6.13925 10.8322 6.13925 10.8964 6.13925 10.9607C6.13925 11.025 6.13925 11.0893 6.17139 11.1214C6.20353 11.1536 6.20353 11.1857 6.23568 11.1857L6.26782 11.2179C6.3321 11.25 6.39639 11.25 6.49282 11.25H8.61425V11.2822Z" fill="#E9EFF7"/>
</g>
<defs>
<clipPath id="clip0_11169_6193">
<rect width="18" height="18" fill="white" transform="matrix(-1 0 0 -1 18 18)"/>
</clipPath>
</defs>
</svg>
