<svg width="16" height="16" viewBox="0 0 16 16" fill="none" xmlns="http://www.w3.org/2000/svg">
<g clip-path="url(#clip0_2503_5256)">
<path d="M11.8475 8.00066H14.6685C14.6685 8.00024 14.6685 8.00004 14.6685 7.99962C14.6685 4.3167 11.6829 1.33105 7.99994 1.33105C6.23236 1.33105 4.62648 2.02 3.43323 3.14261L11.8475 8.00066Z" fill="#0B4BB2" style="fill:#0B4BB2;fill:color(display-p3 0.0431 0.2941 0.6980);fill-opacity:1;"/>
<path d="M3.43457 12.8582C4.62783 13.98 6.23307 14.6685 8.00004 14.6685C11.6825 14.6685 14.668 11.6835 14.6686 8.00098H11.8476L3.43457 12.8582Z" fill="#D61D37" style="fill:#D61D37;fill:color(display-p3 0.8392 0.1137 0.2157);fill-opacity:1;"/>
<path d="M3.43327 3.14258C2.14019 4.35876 1.33142 6.08425 1.33142 7.99958C1.33142 9.91555 2.14061 11.6417 3.43452 12.8578L11.8473 8.00042L3.43327 3.14258Z" fill="white" style="fill:white;fill-opacity:1;"/>
<path d="M10.5446 7.99917L10.0457 8.17255L10.0349 8.70062L9.71583 8.27967L9.21027 8.43263L9.51181 7.99917L9.21006 7.56551L9.71562 7.71847L10.0347 7.29751L10.0455 7.82558L10.5446 7.99917ZM5.8291 7.91248C5.82722 7.88351 5.82431 7.85455 5.82076 7.8262L7.01235 7.66928L6.87169 7.52862L5.80659 7.74035C5.77221 7.56613 5.70365 7.40421 5.6082 7.26167L6.51096 6.65837V6.45936L5.55735 7.19102C5.53964 7.1681 5.5213 7.1458 5.50213 7.12413L6.48616 6.26118V6.01736H6.24234L5.37939 7.00139C5.35771 6.98221 5.33521 6.96388 5.31229 6.94616L6.04416 5.99256H5.84515L5.24164 6.89552C5.0991 6.80008 4.93739 6.73152 4.76317 6.69692L4.9749 5.63183L4.83423 5.49116L4.67731 6.68275C4.64876 6.679 4.62001 6.67629 4.59104 6.67442L4.67648 5.36863L4.50414 5.19629L4.3318 5.36863L4.41724 6.67442C4.38827 6.67629 4.35931 6.67921 4.33096 6.68275L4.17404 5.49116L4.03338 5.63183L4.24511 6.69692C4.07089 6.73131 3.90897 6.79987 3.76643 6.89531L3.16313 5.99256H2.96412L3.69578 6.94616C3.67286 6.96388 3.65056 6.98221 3.62889 7.00139L2.76594 6.01736H2.52212V6.26118L3.50615 7.12413C3.48697 7.1458 3.46864 7.16831 3.45092 7.19123L2.49732 6.45936V6.65837L3.40028 7.26188C3.30484 7.40442 3.23628 7.56613 3.20168 7.74035L2.13659 7.52862L1.99593 7.66928L3.18751 7.8262C3.18376 7.85475 3.18105 7.88351 3.17918 7.91248L1.87339 7.82704L1.70105 7.99938L1.87339 8.17172L3.17918 8.08628C3.18105 8.11545 3.18397 8.14421 3.18751 8.17276L1.99593 8.32947L2.13659 8.47014L3.20168 8.25841C3.23607 8.43263 3.30463 8.59455 3.40007 8.73709L2.49732 9.34039V9.5394L3.45092 8.80773C3.46864 8.83066 3.48697 8.85295 3.50615 8.87463L2.52212 9.73758V9.9814H2.76594L3.62889 8.99737C3.65056 9.01654 3.67307 9.03488 3.69599 9.05259L2.96412 10.0062H3.16313L3.76664 9.10323C3.90897 9.19868 4.07089 9.26745 4.24511 9.30183L4.03338 10.3667L4.17404 10.5074L4.33096 9.31579C4.35951 9.31955 4.38827 9.32226 4.41724 9.32413L4.3318 10.6299L4.50414 10.8023L4.67648 10.6299L4.59104 9.32413C4.62001 9.32226 4.64897 9.31934 4.67731 9.31579L4.83423 10.5074L4.9749 10.3667L4.76317 9.30162C4.93739 9.26724 5.09931 9.19868 5.24185 9.10323L5.84515 10.006H6.04416L5.31249 9.05239C5.33542 9.03467 5.35771 9.01633 5.37939 8.99716L6.24234 9.98119H6.48616V9.73737L5.50213 8.87442C5.5213 8.85275 5.53964 8.83024 5.55735 8.80732L6.51096 9.53919V9.34018L5.60799 8.73667C5.70344 8.59413 5.772 8.43242 5.80659 8.2582L6.87169 8.46993L7.01235 8.32926L5.82076 8.17234C5.82451 8.14379 5.82722 8.11504 5.8291 8.08607L7.13489 8.17151L7.30723 7.99917L7.13489 7.82683L5.8291 7.91248Z" fill="#F4CD2A" style="fill:#F4CD2A;fill:color(display-p3 0.9569 0.8039 0.1647);fill-opacity:1;"/>
</g>
<defs>
<clipPath id="clip0_2503_5256">
<rect width="13.3371" height="13.3371" fill="white" style="fill:white;fill-opacity:1;" transform="translate(1.33142 1.33105)"/>
</clipPath>
</defs>
</svg>
