<svg width="51" height="50" viewBox="0 0 51 50" fill="none" xmlns="http://www.w3.org/2000/svg">
<g clip-path="url(#clip0_11172_7086)">
<path d="M25.0898 50C38.897 50 50.0898 38.8071 50.0898 25C50.0898 11.1929 38.897 0 25.0898 0C11.2827 0 0.0898438 11.1929 0.0898438 25C0.0898438 38.8071 11.2827 50 25.0898 50Z" fill="#0088CC"/>
<path fill-rule="evenodd" clip-rule="evenodd" d="M18.1257 16.5161H32.1436C32.6793 16.5161 33.1257 16.6054 33.6614 16.8733C34.2864 17.1411 34.6436 17.5875 34.8221 17.9447C34.8221 17.9447 34.8221 18.034 34.9114 18.034C35.1793 18.4804 35.3578 19.0161 35.3578 19.6411C35.3578 20.1768 35.2686 20.7125 34.9114 21.2483L26.0721 36.4268C25.8936 36.784 25.5364 36.9625 25.09 36.9625C24.7328 36.9625 24.3757 36.784 24.1078 36.4268L15.4471 21.2483C15.2686 20.8911 14.9114 20.4447 14.9114 19.7304C14.8221 19.1054 15.0007 18.5697 15.2686 18.034C15.5364 17.4983 15.9828 17.0518 16.6078 16.8733C17.1436 16.5161 17.7686 16.5161 18.1257 16.5161ZM24.0186 18.659H18.1257C17.7686 18.659 17.59 18.659 17.5007 18.7483C17.3221 18.8375 17.2328 18.9268 17.1436 19.1054C17.0543 19.1947 17.0543 19.3733 17.0543 19.5518C17.0543 19.6411 17.1436 19.7304 17.3221 20.0875L24.0186 31.6947V18.659ZM26.1614 18.659V31.784L32.9471 20.0875C33.0364 19.909 33.0364 19.7304 33.0364 19.5518C33.0364 19.3733 33.0364 19.1947 32.9471 19.1054C32.8578 19.0161 32.8578 18.9268 32.7686 18.9268L32.6793 18.8375C32.5007 18.7483 32.3221 18.7483 32.0543 18.7483H26.1614V18.659Z" fill="#E9EFF7"/>
</g>
<defs>
<clipPath id="clip0_11172_7086">
<rect width="50" height="50" fill="white" transform="translate(0.0898438)"/>
</clipPath>
</defs>
</svg>
