<svg width="21" height="21" viewBox="0 0 21 21" fill="none" xmlns="http://www.w3.org/2000/svg">
<circle cx="10.5" cy="10.7739" r="10" fill="#FF060A" style="fill:#FF060A;fill:color(display-p3 1.0000 0.0235 0.0392);fill-opacity:1;"/>
<path d="M16.58 8.48707C15.9635 7.91777 15.1107 7.04841 14.4161 6.43184L14.375 6.40307C14.3066 6.34815 14.2295 6.30508 14.1469 6.27564C12.472 5.96325 4.67744 4.50609 4.52537 4.52459C4.48276 4.53056 4.44203 4.54601 4.40618 4.5698L4.36713 4.60063C4.31906 4.64946 4.28254 4.70846 4.26028 4.77327L4.25 4.79999V4.94591V4.96852C5.12748 7.41219 8.59221 15.4173 9.27447 17.2958C9.31557 17.4232 9.39366 17.6657 9.53956 17.6781H9.57244C9.65053 17.6781 9.98344 17.2382 9.98344 17.2382C9.98344 17.2382 15.9347 10.0203 16.5368 9.25162C16.6148 9.15693 16.6836 9.05509 16.7423 8.94744C16.7573 8.86322 16.7503 8.77654 16.7218 8.69587C16.6934 8.61519 16.6445 8.54325 16.58 8.48707ZM11.5103 9.32766L14.0503 7.22105L15.5402 8.59394L11.5103 9.32766ZM10.5239 9.18996L6.15087 5.60564L13.2262 6.91071L10.5239 9.18996ZM10.9185 10.1292L15.3943 9.40781L10.2773 15.5735L10.9185 10.1292ZM5.55698 5.96325L10.1581 9.86819L9.4923 15.5776L5.55698 5.96325Z" fill="#E9EFF7" style="fill:#E9EFF7;fill:color(display-p3 0.9137 0.9373 0.9686);fill-opacity:1;"/>
</svg>
