<svg width="16" height="16" viewBox="0 0 16 16" fill="none" xmlns="http://www.w3.org/2000/svg">
<path d="M14.6666 8.00065C14.6666 11.6823 11.6816 14.6673 7.99992 14.6673C4.31825 14.6673 1.33325 11.6823 1.33325 8.00065C1.33325 4.31898 4.31825 1.33398 7.99992 1.33398C11.6816 1.33398 14.6666 4.31898 14.6666 8.00065Z" fill="url(#paint0_linear_2503_14934)" style=""/>
<path d="M7.99992 1.33398C4.31825 1.33398 1.33325 4.31898 1.33325 8.00065H7.99992V1.33398Z" fill="url(#paint1_linear_2503_14934)" style=""/>
<path d="M6.99996 7.33366C7.18405 7.33366 7.33329 7.18442 7.33329 7.00033C7.33329 6.81623 7.18405 6.66699 6.99996 6.66699C6.81586 6.66699 6.66663 6.81623 6.66663 7.00033C6.66663 7.18442 6.81586 7.33366 6.99996 7.33366Z" fill="#99F0FF" style="fill:#99F0FF;fill:color(display-p3 0.6000 0.9412 1.0000);fill-opacity:1;"/>
<path d="M5.66659 7.33366C5.85068 7.33366 5.99992 7.18442 5.99992 7.00033C5.99992 6.81623 5.85068 6.66699 5.66659 6.66699C5.48249 6.66699 5.33325 6.81623 5.33325 7.00033C5.33325 7.18442 5.48249 7.33366 5.66659 7.33366Z" fill="#99F0FF" style="fill:#99F0FF;fill:color(display-p3 0.6000 0.9412 1.0000);fill-opacity:1;"/>
<path d="M4.33333 7.33366C4.51743 7.33366 4.66667 7.18442 4.66667 7.00033C4.66667 6.81623 4.51743 6.66699 4.33333 6.66699C4.14924 6.66699 4 6.81623 4 7.00033C4 7.18442 4.14924 7.33366 4.33333 7.33366Z" fill="#99F0FF" style="fill:#99F0FF;fill:color(display-p3 0.6000 0.9412 1.0000);fill-opacity:1;"/>
<path d="M2.99996 7.33366C3.18405 7.33366 3.33329 7.18442 3.33329 7.00033C3.33329 6.81623 3.18405 6.66699 2.99996 6.66699C2.81586 6.66699 2.66663 6.81623 2.66663 7.00033C2.66663 7.18442 2.81586 7.33366 2.99996 7.33366Z" fill="#99F0FF" style="fill:#99F0FF;fill:color(display-p3 0.6000 0.9412 1.0000);fill-opacity:1;"/>
<path d="M6.33333 6.00065C6.51743 6.00065 6.66667 5.85141 6.66667 5.66732C6.66667 5.48322 6.51743 5.33398 6.33333 5.33398C6.14924 5.33398 6 5.48322 6 5.66732C6 5.85141 6.14924 6.00065 6.33333 6.00065Z" fill="#99F0FF" style="fill:#99F0FF;fill:color(display-p3 0.6000 0.9412 1.0000);fill-opacity:1;"/>
<path d="M4.99996 6.00065C5.18405 6.00065 5.33329 5.85141 5.33329 5.66732C5.33329 5.48322 5.18405 5.33398 4.99996 5.33398C4.81586 5.33398 4.66663 5.48322 4.66663 5.66732C4.66663 5.85141 4.81586 6.00065 4.99996 6.00065Z" fill="#99F0FF" style="fill:#99F0FF;fill:color(display-p3 0.6000 0.9412 1.0000);fill-opacity:1;"/>
<path d="M3.66659 6.00065C3.85068 6.00065 3.99992 5.85141 3.99992 5.66732C3.99992 5.48322 3.85068 5.33398 3.66659 5.33398C3.48249 5.33398 3.33325 5.48322 3.33325 5.66732C3.33325 5.85141 3.48249 6.00065 3.66659 6.00065Z" fill="#99F0FF" style="fill:#99F0FF;fill:color(display-p3 0.6000 0.9412 1.0000);fill-opacity:1;"/>
<path d="M2.33333 6.00065C2.51743 6.00065 2.66667 5.85141 2.66667 5.66732C2.66667 5.48322 2.51743 5.33398 2.33333 5.33398C2.14924 5.33398 2 5.48322 2 5.66732C2 5.85141 2.14924 6.00065 2.33333 6.00065Z" fill="#99F0FF" style="fill:#99F0FF;fill:color(display-p3 0.6000 0.9412 1.0000);fill-opacity:1;"/>
<path d="M6.99996 4.66667C7.18405 4.66667 7.33329 4.51743 7.33329 4.33333C7.33329 4.14924 7.18405 4 6.99996 4C6.81586 4 6.66663 4.14924 6.66663 4.33333C6.66663 4.51743 6.81586 4.66667 6.99996 4.66667Z" fill="#99F0FF" style="fill:#99F0FF;fill:color(display-p3 0.6000 0.9412 1.0000);fill-opacity:1;"/>
<path d="M5.66659 4.66667C5.85068 4.66667 5.99992 4.51743 5.99992 4.33333C5.99992 4.14924 5.85068 4 5.66659 4C5.48249 4 5.33325 4.14924 5.33325 4.33333C5.33325 4.51743 5.48249 4.66667 5.66659 4.66667Z" fill="#99F0FF" style="fill:#99F0FF;fill:color(display-p3 0.6000 0.9412 1.0000);fill-opacity:1;"/>
<path d="M4.33333 4.66667C4.51743 4.66667 4.66667 4.51743 4.66667 4.33333C4.66667 4.14924 4.51743 4 4.33333 4C4.14924 4 4 4.14924 4 4.33333C4 4.51743 4.14924 4.66667 4.33333 4.66667Z" fill="#99F0FF" style="fill:#99F0FF;fill:color(display-p3 0.6000 0.9412 1.0000);fill-opacity:1;"/>
<path d="M6.99996 2.00065C7.18405 2.00065 7.33329 1.85141 7.33329 1.66732C7.33329 1.48322 7.18405 1.33398 6.99996 1.33398C6.81586 1.33398 6.66663 1.48322 6.66663 1.66732C6.66663 1.85141 6.81586 2.00065 6.99996 2.00065Z" fill="#99F0FF" style="fill:#99F0FF;fill:color(display-p3 0.6000 0.9412 1.0000);fill-opacity:1;"/>
<path d="M5.66661 2.00027C5.85061 2.00027 5.99994 1.85093 5.99994 1.66693C5.99994 1.65793 5.99561 1.6506 5.99494 1.6416C5.79294 1.70527 5.59494 1.77727 5.40161 1.85927C5.46228 1.9426 5.55561 2.00027 5.66661 2.00027Z" fill="#99F0FF" style="fill:#99F0FF;fill:color(display-p3 0.6000 0.9412 1.0000);fill-opacity:1;"/>
<path d="M2.99996 4.66667C3.18405 4.66667 3.33329 4.51743 3.33329 4.33333C3.33329 4.14924 3.18405 4 2.99996 4C2.81586 4 2.66663 4.14924 2.66663 4.33333C2.66663 4.51743 2.81586 4.66667 2.99996 4.66667Z" fill="#99F0FF" style="fill:#99F0FF;fill:color(display-p3 0.6000 0.9412 1.0000);fill-opacity:1;"/>
<path d="M6.33333 3.33366C6.51743 3.33366 6.66667 3.18442 6.66667 3.00033C6.66667 2.81623 6.51743 2.66699 6.33333 2.66699C6.14924 2.66699 6 2.81623 6 3.00033C6 3.18442 6.14924 3.33366 6.33333 3.33366Z" fill="#99F0FF" style="fill:#99F0FF;fill:color(display-p3 0.6000 0.9412 1.0000);fill-opacity:1;"/>
<path d="M4.99996 3.33366C5.18405 3.33366 5.33329 3.18442 5.33329 3.00033C5.33329 2.81623 5.18405 2.66699 4.99996 2.66699C4.81586 2.66699 4.66663 2.81623 4.66663 3.00033C4.66663 3.18442 4.81586 3.33366 4.99996 3.33366Z" fill="#99F0FF" style="fill:#99F0FF;fill:color(display-p3 0.6000 0.9412 1.0000);fill-opacity:1;"/>
<path d="M3.66664 3.33415C3.85064 3.33415 3.99997 3.18481 3.99997 3.00081C3.99997 2.90415 3.95731 2.81881 3.89164 2.75781C3.71964 2.89281 3.55464 3.03515 3.39697 3.18615C3.45697 3.27348 3.55264 3.33415 3.66664 3.33415Z" fill="#99F0FF" style="fill:#99F0FF;fill:color(display-p3 0.6000 0.9412 1.0000);fill-opacity:1;"/>
<path d="M1.66665 7.33366C1.85065 7.33366 1.99998 7.18433 1.99998 7.00033C1.99998 6.81633 1.85065 6.66699 1.66665 6.66699C1.58498 6.66699 1.51265 6.69966 1.45465 6.74866C1.42798 6.88899 1.40732 7.03166 1.38965 7.17499C1.44865 7.26799 1.54798 7.33366 1.66665 7.33366Z" fill="#99F0FF" style="fill:#99F0FF;fill:color(display-p3 0.6000 0.9412 1.0000);fill-opacity:1;"/>
<path d="M14.6666 8.00065H7.99995V6.66732H14.5326C14.6203 7.09832 14.6666 7.54398 14.6666 8.00065ZM4.01229 13.334H11.9876C12.494 12.9547 12.9436 12.5063 13.324 12.0007H2.67595C3.05629 12.5063 3.50595 12.9547 4.01229 13.334ZM7.99995 1.33398V2.66732H11.9876C10.8746 1.83365 9.49729 1.33398 7.99995 1.33398ZM13.324 4.00065H7.99995V5.33398H14.108C13.8993 4.85665 13.6336 4.41165 13.324 4.00065ZM1.89195 10.6673H14.1083C14.2936 10.2437 14.4386 9.79832 14.533 9.33398H1.46729C1.56162 9.79832 1.70662 10.2437 1.89195 10.6673Z" fill="url(#paint2_linear_2503_14934)" style=""/>
<defs>
<linearGradient id="paint0_linear_2503_14934" x1="3.45892" y1="3.45965" x2="12.8589" y2="12.8597" gradientUnits="userSpaceOnUse">
<stop stop-color="#DFE9F2" style="stop-color:#DFE9F2;stop-color:color(display-p3 0.8745 0.9137 0.9490);stop-opacity:1;"/>
<stop offset="0.998" stop-color="#9EA7B0" style="stop-color:#9EA7B0;stop-color:color(display-p3 0.6196 0.6549 0.6902);stop-opacity:1;"/>
</linearGradient>
<linearGradient id="paint1_linear_2503_14934" x1="3.24692" y1="3.24765" x2="12.6423" y2="12.643" gradientUnits="userSpaceOnUse">
<stop stop-color="#0D61A9" style="stop-color:#0D61A9;stop-color:color(display-p3 0.0510 0.3804 0.6627);stop-opacity:1;"/>
<stop offset="1" stop-color="#16528C" style="stop-color:#16528C;stop-color:color(display-p3 0.0863 0.3216 0.5490);stop-opacity:1;"/>
</linearGradient>
<linearGradient id="paint2_linear_2503_14934" x1="3.23362" y1="3.28098" x2="12.9" y2="12.9473" gradientUnits="userSpaceOnUse">
<stop stop-color="#DB3542" style="stop-color:#DB3542;stop-color:color(display-p3 0.8588 0.2078 0.2588);stop-opacity:1;"/>
<stop offset="0.996" stop-color="#BA0B1A" style="stop-color:#BA0B1A;stop-color:color(display-p3 0.7294 0.0431 0.1020);stop-opacity:1;"/>
</linearGradient>
</defs>
</svg>
