<svg width="120" height="120" viewBox="0 0 120 120" fill="none" xmlns="http://www.w3.org/2000/svg">
<path d="M118.191 74.5143C110.178 106.657 77.6222 126.219 45.4752 118.204C13.3417 110.19 -6.22004 77.6324 1.79691 45.4918C9.80683 13.3451 42.3626 -6.21803 74.4997 1.79541C106.644 9.80884 126.205 42.3696 118.191 74.5143Z" fill="#50AF95"/>
<path fill-rule="evenodd" clip-rule="evenodd" d="M67.5923 66.8023C67.1681 66.8341 64.9761 66.9649 60.0866 66.9649C56.1976 66.9649 53.4364 66.8482 52.4677 66.8023C37.4385 66.1411 26.2205 63.5249 26.2205 60.3925C26.2205 57.2601 37.4385 54.6474 52.4677 53.9756V64.1966C53.4505 64.2673 56.2648 64.4335 60.1538 64.4335C64.8206 64.4335 67.1575 64.2391 67.5782 64.2002V53.9827C82.5756 54.6509 93.7688 57.2671 93.7688 60.3925C93.7688 63.5178 82.5791 66.1341 67.5782 66.7987L67.5923 66.8023ZM67.5924 52.9256V43.7794H88.5222V29.832H31.5378V43.7794H52.4641V52.9221C35.4551 53.7034 22.6638 57.0727 22.6638 61.1102C22.6638 65.1477 35.4551 68.5134 52.4641 69.2983V98.6072H67.5888V69.2877C84.559 68.5063 97.329 65.1406 97.329 61.1066C97.329 57.0727 84.5696 53.7069 67.5888 52.9221L67.5924 52.9256Z" fill="white"/>
<g clipPath="url(#clip0_16703_21876)">
<path fill-rule="evenodd" clip-rule="evenodd" d="M96 120C82.8 120 72 109.2 72 95.8805C72.12 82.6808 82.8 71.881 96.12 72.001C109.32 72.121 120 82.8008 120 96.2405C119.88 109.32 109.2 120 96 120Z" fill="#FC070C"/>
<path fill-rule="evenodd" clip-rule="evenodd" d="M113.1 90.9232C112.445 90.3184 111.685 89.5811 110.894 88.8128C109.783 87.7336 108.608 86.5932 107.572 85.6732L107.467 85.5997C107.292 85.4594 107.095 85.3494 106.884 85.2742L106.084 85.125C100.564 84.095 82.6715 80.7565 82.3035 80.8012C82.1946 80.8165 82.0906 80.8559 81.999 80.9167L81.8992 80.9955C81.7764 81.1202 81.6831 81.2709 81.6262 81.4365L81.6 81.5047V81.8775V81.9352C82.8147 85.3177 85.9703 92.8717 88.8839 99.8466C91.3472 105.743 93.6377 111.226 94.4362 113.425L94.4365 113.426C94.5416 113.751 94.741 114.37 95.1134 114.401H95.1974C95.3969 114.401 96.2474 113.278 96.2474 113.278C96.2474 113.278 111.451 94.8397 112.99 92.8762C113.189 92.6343 113.364 92.3742 113.515 92.0992C113.592 91.6615 113.435 91.2151 113.1 90.9232ZM100.148 93.0704L106.637 87.6892L110.443 91.1962L100.148 93.0704ZM86.4562 83.5627L97.6282 92.7187L104.532 86.8965L86.4562 83.5627ZM98.6362 95.1179L110.071 93.2752L96.9982 109.025L98.6362 95.1179ZM96.6937 94.4512L84.939 84.4762L94.9927 109.036L96.6937 94.4512Z" fill="white"/>
</g>
<defs>
<clipPath id="clip0_16703_21876">
<rect width="48" height="48" fill="white" transform="translate(72 72)"/>
</clipPath>
</defs>
</svg>
