<svg width="120" height="120" viewBox="0 0 120 120" fill="none" xmlns="http://www.w3.org/2000/svg">
<path d="M118.191 74.5143C110.178 106.657 77.6222 126.219 45.4752 118.204C13.3417 110.19 -6.22004 77.6324 1.79691 45.4918C9.80683 13.3451 42.3626 -6.21803 74.4997 1.79541C106.644 9.80884 126.205 42.3696 118.191 74.5143Z" fill="#50AF95"/>
<path fill-rule="evenodd" clip-rule="evenodd" d="M67.5923 66.8023C67.1681 66.8341 64.9761 66.9649 60.0866 66.9649C56.1976 66.9649 53.4364 66.8482 52.4677 66.8023C37.4385 66.1411 26.2205 63.5249 26.2205 60.3925C26.2205 57.2601 37.4385 54.6474 52.4677 53.9756V64.1966C53.4505 64.2673 56.2648 64.4335 60.1538 64.4335C64.8206 64.4335 67.1575 64.2391 67.5782 64.2002V53.9827C82.5756 54.6509 93.7688 57.2671 93.7688 60.3925C93.7688 63.5178 82.5791 66.1341 67.5782 66.7987L67.5923 66.8023ZM67.5924 52.9256V43.7794H88.5222V29.832H31.5378V43.7794H52.4641V52.9221C35.4551 53.7034 22.6638 57.0727 22.6638 61.1102C22.6638 65.1477 35.4551 68.5134 52.4641 69.2983V98.6072H67.5888V69.2877C84.559 68.5063 97.329 65.1406 97.329 61.1066C97.329 57.0727 84.5696 53.7069 67.5888 52.9221L67.5924 52.9256Z" fill="white"/>
<g clip-path="url(#clip0_16703_21876)">
<path d="M96 120C109.286 120 120 109.286 120 96C120 82.7143 109.286 72 96 72C82.7143 72 72 82.7143 72 96C72 109.286 82.7143 120 96 120Z" fill="#0098EA"/>
<path d="M104.229 85.3711H87.7714C84.7714 85.3711 82.8857 88.6282 84.3429 91.2854L94.4571 108.857C95.1429 109.971 96.7714 109.971 97.4571 108.857L107.571 91.2854C109.114 88.6282 107.229 85.3711 104.229 85.3711ZM94.5429 103.543L92.3143 99.2568L87 89.7425C86.6571 89.1425 87.0857 88.3711 87.8571 88.3711H94.5429V103.543ZM105 89.7425L99.6857 99.2568L97.4571 103.543V88.3711H104.143C104.914 88.3711 105.343 89.1425 105 89.7425Z" fill="white"/>
</g>
<defs>
<clipPath id="clip0_16703_21876">
<rect width="48" height="48" fill="white" transform="translate(72 72)"/>
</clipPath>
</defs>
</svg>
