<svg width="21" height="21" viewBox="0 0 21 21" fill="none" xmlns="http://www.w3.org/2000/svg">
<path d="M20.1986 13.194C18.863 18.5511 13.437 21.8114 8.07919 20.4755C2.72361 19.1399 -0.536673 13.7136 0.799485 8.35688C2.13447 2.99909 7.56044 -0.261436 12.9166 1.07414C18.2741 2.40971 21.5341 7.83661 20.1984 13.194L20.1986 13.194Z" fill="#50AF95" style="fill:#50AF95;fill:color(display-p3 0.3137 0.6863 0.5843);fill-opacity:1;"/>
<path fill-rule="evenodd" clip-rule="evenodd" d="M11.7654 11.9086C11.6947 11.9139 11.3294 11.9357 10.5145 11.9357C9.86631 11.9357 9.40611 11.9163 9.24465 11.9086C6.73979 11.7984 4.87012 11.3624 4.87012 10.8403C4.87012 10.3182 6.73979 9.8828 9.24465 9.77084V11.4743C9.40846 11.4861 9.8775 11.5138 10.5257 11.5138C11.3035 11.5138 11.693 11.4814 11.7631 11.4749V9.77202C14.2626 9.88339 16.1282 10.3194 16.1282 10.8403C16.1282 11.3612 14.2632 11.7972 11.7631 11.908L11.7654 11.9086ZM11.7654 9.59584V8.07147H15.2537V5.74691H5.75634V8.07147H9.24407V9.59525C6.40922 9.72547 4.27734 10.287 4.27734 10.9599C4.27734 11.6328 6.40922 12.1938 9.24407 12.3246V17.2094H11.7648V12.3228C14.5932 12.1926 16.7215 11.6317 16.7215 10.9593C16.7215 10.287 14.595 9.72606 11.7648 9.59525L11.7654 9.59584Z" fill="white" style="fill:white;fill-opacity:1;"/>
</svg>
